<?xml version="1.0" encoding="UTF-8"?>
<svg id="Layer_2" data-name="Layer 2" xmlns="http://www.w3.org/2000/svg" viewBox="0 0 446.48 518.88">
  <defs>
    <style>
      .cls-1 {
        fill: #ffcf65;
      }

      .cls-2 {
        fill: #fcc35e;
      }

      .cls-3 {
        fill: #edaf4a;
      }

      .cls-4 {
        fill: #e68436;
      }

      .cls-5 {
        fill: #8b643a;
      }

      .cls-6 {
        fill: #8d7240;
      }

      .cls-7 {
        fill: #c06410;
      }

      .cls-8 {
        fill: #a77a38;
      }

      .cls-9 {
        fill: #ad7245;
      }

      .cls-10 {
        fill: #5a87d0;
      }

      .cls-11 {
        fill: #783421;
      }

      .cls-12 {
        fill: #503403;
      }

      .cls-13 {
        fill: #835330;
      }

      .cls-14, .cls-15 {
        opacity: .59;
      }

      .cls-15 {
        fill: #ffbb4a;
      }

      .cls-16 {
        fill: #ffab64;
        opacity: .61;
      }

      .cls-17 {
        fill: #101010;
        opacity: .48;
      }

      .cls-18 {
        fill: #3c0e3d;
        opacity: .64;
      }
    </style>
  </defs>
  <g id="desert_planet" data-name="desert planet">
    <g>
      <g>
        <path class="cls-4" d="m390.02,139.79c-18.46,3.36-37.79,8.43-54.72,14.5-22.35,8-47.29,37.81-68.38,63.06-3.83,4.58-7.53,9.02-11.06,13.15-.01.01-.02.02-.03.04-5.31,6.19-10.24,11.69-14.67,15.96-23.64,22.8-51.5,18.57-101.31,44.39-49.81,25.82-55.6,60.72-55.6,60.72,12.36-21.53,27.32-32.08,57.71-46.01,30.39-13.93,77.25-21.53,116.93-44.32,1.18-.68,2.33-1.36,3.46-2.05.38-.23.75-.47,1.12-.7.74-.46,1.48-.93,2.21-1.4.44-.28.86-.57,1.29-.86.64-.43,1.29-.86,1.92-1.29.45-.31.89-.62,1.33-.93.59-.42,1.18-.84,1.76-1.26.45-.33.89-.65,1.33-.98.56-.42,1.11-.83,1.65-1.25.44-.34.88-.68,1.31-1.02.53-.42,1.05-.84,1.57-1.26.43-.35.86-.69,1.28-1.04.51-.42,1.01-.85,1.51-1.28.41-.35.83-.7,1.24-1.06.51-.44,1.01-.89,1.51-1.34.83-.74,1.64-1.48,2.45-2.23.38-.35.76-.7,1.13-1.05.5-.47.99-.95,1.48-1.43.34-.33.67-.65,1.01-.98.5-.5.99-.99,1.49-1.49.31-.31.62-.62.92-.94.51-.52,1.01-1.04,1.5-1.56.28-.29.56-.59.84-.88.52-.55,1.03-1.1,1.54-1.65.24-.26.47-.51.71-.77.55-.6,1.09-1.19,1.63-1.79.17-.19.33-.37.5-.56,15.01-16.82,27.84-35.49,47.56-54.31,14.54-13.88,31.77-21.97,49.83-26.62-1.9-2.47-3.88-4.96-5.95-7.48Z"/>
        <path class="cls-11" d="m284.9,196.21c16.52-18.75,34.14-36.1,50.39-41.92,16.93-6.06,36.26-11.14,54.72-14.5-4.77-5.78-10.02-11.65-15.77-17.43-34.52,12.64-72.02,35.03-89.34,73.85Z"/>
      </g>
      <path class="cls-4" d="m281.02,200.08s.41-.28,1.21-.8c.89-1.02,1.78-2.05,2.68-3.06,17.32-38.81,54.82-61.2,89.34-73.85-4.34-4.36-8.97-8.67-13.9-12.85-33.03,15.19-66.1,42.34-79.33,90.56Z"/>
      <path class="cls-11" d="m69.88,251.87c33.87-21.51,65.66-39.2,65.66-39.2,0,0-7.84,3.43-65.66,33.04-34,17.41-53.76,53.74-64.28,80.73.61,2.19,1.29,4.38,2.05,6.56,3.3,9.5,4.39,14.52,4.56,17.9,11.42-37.82,31.97-82.7,57.67-99.02Z"/>
      <path class="cls-11" d="m75.93,189.64c27.12-22.54,72.84-28.42,89.01-49.84,16.17-21.42,67.13-55,67.13-55-30.87,9.81-49,29.88-78.4,54.51-29.4,24.62-75.46,22.9-117.59,69.45-15.87,17.53-27.29,36.79-35.36,54-.39,6.81-.64,13.96-.71,21.47,0,0-.05,2.7.16,7.13,22.64-62,51.15-81.25,75.77-101.7Z"/>
      <g>
        <path class="cls-7" d="m240.11,102.91c-34.5,36.75-63.41,49.49-90.85,67.13-27.44,17.64-38.22,40.67-53.9,51.45,0,0,13.65-4.55,42.63-33.42,28.97-28.87,57.87-33.32,78.42-51.89,20.55-18.57,39.5-42.96,68.49-50.36,10.99-2.81,21.2-4.53,29.64-5.6-6.23-2.83-12.75-5.37-19.59-7.56-18.54,4.93-39.5,13.91-54.85,30.26Z"/>
        <path class="cls-11" d="m240.11,102.91c-34.5,36.75-63.41,49.49-90.85,67.13-27.44,17.64-38.22,40.67-53.9,51.45,0,0,13.65-4.55,42.63-33.42,28.97-28.87,57.87-33.32,78.42-51.89,20.55-18.57,39.5-42.96,68.49-50.36,10.99-2.81,21.2-4.53,29.64-5.6-6.23-2.83-12.75-5.37-19.59-7.56-18.54,4.93-39.5,13.91-54.85,30.26Z"/>
      </g>
      <path class="cls-11" d="m245.3,133.78c-37.24,9.8-62.72,33.81-62.72,33.81,0,0,44.59-24.01,71.05-27.79,26.46-3.79,11.76-3.07,42.14-23.08,19.34-12.73,39.96-16.05,52.4-16.77-3.04-2.22-6.15-4.38-9.39-6.47-6.32.97-15.01,2.88-26.84,6.48-33.81,10.27-29.4,24.03-66.64,33.83Z"/>
      <path class="cls-11" d="m295.76,297.92c-21.07,13.72-73.5,29.4-137.19,41.65-63.7,12.25-104.85,43.61-133.27,52.92-2.55.84-4.89,1.41-7.04,1.79.07,3.67,1.2,7.03,4.78,11.29,53.64-8.01,65.27-40.78,150.9-59.19,94.18-20.26,121.83-48.45,121.83-48.45Z"/>
      <path class="cls-11" d="m284.9,323.89s43.85-6.2,96.68-52.92c32.23-28.51,44.07-49.09,49.19-65.08-1.57-5.3-3.67-10.52-6.57-15.42-.19-.33-.4-.67-.6-1.02-3.77,14.89-10.88,33.48-24.19,53.59-32.11,48.51-114.51,80.85-114.51,80.85Z"/>
      <path class="cls-11" d="m108.27,426.3c13.89-15.19,30.7-13.72,30.7-13.72-24.01-6.86-36.26.98-47.53,6.86-11.27,5.88-18.13,5.39-35.28,5.39-1.4,0-2.83.08-4.27.22.19.39.28.78.24,1.2-.45,4.48-3.42,12.33,2.51,19.99,22.18-2.94,42.93-8.24,53.63-19.94Z"/>
      <g>
        <path class="cls-7" d="m410.43,413.58c-14.32,14.39-29.35,29.23-48.55,35.81,18.88-12.29,35.32-28.3,48.1-46.85,4.65-6.75,8.82-13.83,12.91-20.95,3.61-6.29,7.17-12.64,9.84-19.39,1.97-4.97,3.45-10.13,4.93-15.27,2.26-7.89,4.7-15.78,7.13-23.7,2.38-27.2,3.31-55.78-4.32-63.9-.3-.32-.58-.7-.84-1.1-3.67,16.38-3.76,33.68-10.26,49.15-7.56,17.99-22.9,31.38-33.87,47.52-5.77,8.48-10.44,17.88-17.91,24.91-5.64,5.3-12.59,8.98-19.59,12.3,4.94-3.25,9.92-6.54,14-10.81,4.69-4.9,8.02-10.9,11.67-16.61,3.83-6.01,8.07-11.76,12.66-17.2,5.65-6.7,11.91-13.01,16.24-20.63,4.01-7.05,6.21-14.96,8.38-22.77,3.36-12.13,6.73-24.25,9.73-36.48,2.03-8.25,3.89-16.54,5.49-24.88-.96-10.39-1.55-23.86-5.39-36.85-5.11,15.99-16.95,36.58-49.19,65.08-52.83,46.72-96.68,52.92-96.68,52.92,0,0,82.4-32.34,114.51-80.85,13.31-20.1,20.42-38.7,24.19-53.59-4.18-7.09-10.35-17.84-18.86-30.14-2.69-3.89-5.6-7.92-8.77-12.05-18.06,4.65-35.29,12.74-49.83,26.62-18.93,18.06-31.51,36-45.76,52.28-11.39,13.02-23.85,24.98-41.48,35.1-39.68,22.8-86.54,30.39-116.93,44.32-30.39,13.93-45.35,24.48-57.71,46.01,0,0,5.79-34.9,55.6-60.72,49.81-25.82,77.67-21.6,101.31-44.39,11.18-10.78,25.57-29.38,41.07-47.22-.79.52-1.21.8-1.21.8,13.23-48.22,46.3-75.37,79.33-90.56-3.87-3.28-7.94-6.48-12.18-9.57-12.44.73-33.06,4.04-52.4,16.77-30.38,20-15.68,19.29-42.14,23.08-26.46,3.79-71.05,27.79-71.05,27.79,0,0,25.48-24.01,62.72-33.81,37.24-9.8,32.83-23.56,66.64-33.83,11.83-3.59,20.53-5.5,26.84-6.48-7.53-4.85-15.59-9.33-24.23-13.25-8.44,1.06-18.65,2.79-29.64,5.6-28.99,7.4-47.94,31.79-68.49,50.36-20.55,18.57-49.45,23.02-78.42,51.89-28.97,28.87-42.63,33.42-42.63,33.42,15.68-10.78,26.46-33.81,53.9-51.45,27.44-17.64,56.35-30.38,90.85-67.13,15.35-16.35,36.31-25.33,54.85-30.26-7.69-2.47-15.78-4.51-24.27-6.01-1.31-.23-2.6-.45-3.9-.66-61.42-9.95-124.26,4.46-176.04,38.96C49.36,132.51,6.78,158.07.72,262.74c8.07-17.21,19.49-36.47,35.36-54,42.14-46.55,88.2-44.83,117.59-69.45,29.4-24.63,47.53-44.7,78.4-54.51,0,0-50.96,33.58-67.13,55-16.17,21.42-61.89,27.3-89.01,49.84C51.32,210.1,22.81,229.34.17,291.34c.38,7.92,1.6,21.39,5.44,35.09,10.52-26.99,30.28-63.32,64.28-80.73,57.82-29.61,65.66-33.04,65.66-33.04,0,0-31.79,17.69-65.66,39.2-25.7,16.32-46.25,61.2-57.67,99.02.25,4.95-1.5,6.36-1.21,13.19.48,11.48,9.56,12.91,8.13,22-.49,3.12-.93,5.73-.88,8.2,2.16-.38,4.49-.95,7.04-1.79,28.42-9.31,69.58-40.67,133.27-52.92,63.7-12.25,116.12-27.93,137.19-41.65,0,0-27.65,28.19-121.83,48.45-85.63,18.42-97.26,51.19-150.9,59.19,1.04,1.23,2.27,2.53,3.75,3.94,9.17,8.73,23.12,11.49,25.11,15.54,1.44-.14,2.87-.22,4.27-.22,17.15,0,24.01.49,35.28-5.39,11.27-5.88,23.52-13.72,47.53-6.86,0,0-16.81-1.47-30.7,13.72-10.69,11.69-31.45,17-53.63,19.94.4.51.83,1.02,1.31,1.53,1.51,1.61,3.32,3.1,5.27,4.52,27.1-2.98,53-15.91,80.41-18.03-11.28,2.66-22.54,5.63-33.24,10.08-10.21,4.24-19.85,9.81-30.19,13.74-1.65.63-3.33,1.21-5.03,1.74,2.94,1.78,5.7,3.56,7.95,5.42,1.93-.58,3.93-.89,5.95-.86,3.13.05,6.2.86,9.24,1.61,40.93,10.1,84.38,9.79,125.16-.88-40.35,12.22-83.34,15.62-125.11,9.89-1.23-.17-2.7-.25-3.45.74-.74.98-.27,2.37.23,3.49l1.26,2.84c2.13,2.1,4.92,4.33,8.9,6.83,5.03,3.17,10.21,5.68,16.07,7.8,7.34,1.52,14.77,2.6,22.24,3.22,10.7.88,21.48.83,32.16-.17,30.39-2.85,59.45-13.21,87.95-24.34-.52.3-1.05.61-1.57.91-16.46,6.63-32.93,13.27-49.39,19.9-6.46,2.6-12.92,5.21-19.59,7.2-7.27,2.18-14.73,3.61-22.24,4.75,8.5,2.9,11.86,6.04,34.03,9.42,31.37,4.78,62.93-4.78,79.19-11,16.26-6.22,62.59-11.96,111.64-66,14.85-16.36,25.16-31.06,32.38-44.35-.75.99-1.52,1.98-2.31,2.94-4.16,5.08-8.8,9.74-13.44,14.4Zm-69.47,40.13c-4.8,3.67-10.14,6.54-15.46,9.4-18.09,9.72-36.25,19.47-55.48,26.7-6.54,2.46-13.2,4.63-19.94,6.49,21.02-9.49,41.32-20.59,60.68-33.13,11.85-6.92,23.47-14.21,34.65-22.2,7.08-5.06,14.11-10.29,20.89-15.75,6.32-5.08,12.05-10.83,18.18-16.14,6.25-5.42,12.62-10.71,18.69-16.3-7.97,14.82-20.44,26.85-33.72,37.25-5.44,4.26-11.05,8.3-16.24,12.85-4.1,3.6-7.93,7.51-12.26,10.82Z"/>
        <path class="cls-10" d="m440.46,259.34c-.3-.32-.58-.7-.84-1.1-.68-1.06-1.22-2.4-1.66-3.96-.06,8.47-.12,16.92.93,25.39,2.75,22.18-1.7,44.91-8.74,65.91-3.62,10.8-8.03,21.36-13.06,31.58-4.53,9.23-9.32,19.09-15.8,27.13-10.85,13.44-29.35,19.24-40.01,32.57,4.69.82,9.85.3,11.47,6.36,1.81,6.77-3.2,12.12-8.56,15.27-6.1,3.59-13.08,5.4-19.45,8.42-10.92,5.17-21.97,10.09-32.68,15.69-8.96,4.68-17.38,10.19-26.95,13.61-8.12,2.9-16.67,4.34-25.23,5.12-9.8.9-19.52.73-29.2,2.68-9.72,1.96-19.63,4.59-29.62,3.45-9.05-1.03-17.69-4.2-26.28-7.05-9.45-3.14-18.24-4.49-28.18-4.58-16.07-.14-32.83-3.55-43.31-16.94-4.89-6.26-7.65-14.1-13.03-19.96-4.9-5.33-11.77-6.94-18.12-9.84-6.04-2.76-10.17-7.37-11.93-13.84-1.91-7.04.14-16.09-7.1-20.47-7.82-4.74-17.4-5.39-25.12-10.55-3.48-2.33-6.59-5.07-9.58-7.95.42,2.93,1.71,5.8,4.63,9.27,1.04,1.23,2.27,2.53,3.75,3.94,9.17,8.73,23.12,11.49,25.11,15.54.19.39.28.78.24,1.2-.45,4.48-3.42,12.33,2.51,19.99.4.51.83,1.02,1.31,1.53,1.51,1.61,3.32,3.1,5.27,4.52,3.71,2.69,7.98,5.12,11.94,7.52,2.94,1.78,5.7,3.56,7.95,5.42,1.21,1,2.28,2.03,3.13,3.1,3.92,4.97,5.36,9.02,10.16,13.74,2.13,2.1,4.92,4.33,8.9,6.83,5.03,3.17,10.21,5.68,16.07,7.8,9.18,3.31,20.03,5.65,34.62,7.99,7.01,1.12,11.41,2.28,14.94,3.49,8.5,2.9,11.86,6.04,34.03,9.42,31.37,4.78,62.93-4.78,79.19-11,16.26-6.22,62.59-11.96,111.64-66,14.85-16.36,25.16-31.06,32.38-44.35,16.64-30.62,16.91-53.81,18.58-72.81,0-.06.01-.12.02-.19,2.38-27.2,3.31-55.78-4.32-63.9Z"/>
        <path class="cls-18" d="m103.3,488.89c5.03,3.17,10.21,5.68,16.07,7.8,7.02,2.53,15.02,4.49,24.91,6.32,4.06.2,8.14.36,12.26.76,9.67.93,17.32,4.81,26.22,8.2,9.43,3.6,19.64,1.14,29.39.4,9.29-.71,18.45.57,27.73.6,8.69.03,17.27-2.01,25.45-4.83,7.86-2.71,15.38-6.26,22.99-9.58,8.69-3.8,17.57-6.92,26.51-10.07,17.22-6.08,35.37-12.41,50.41-23.05,7.29-5.16,10.54-11.61,14.17-19.47,3.5-7.57,10.47-12.27,16.44-17.76,6.7-6.16,10.18-14.21,13.84-22.39,3.76-8.4,7.77-16.68,11.59-25.06,4.23-9.27,8.09-18.71,11.86-28.17,3.58-9,7.01-17.83,8.66-27.42,2.56-14.89,2.04-30.12,2.09-45.16.01-3.87-.01-8.27.4-12.63-.92-3.5-2.18-6.26-3.85-8.03-.3-.32-.58-.7-.84-1.1-2.02-3.13-2.82-8.63-3.46-15.5-.96-10.39-1.55-23.86-5.39-36.85-1.57-5.3-3.67-10.52-6.57-15.42-.19-.33-.4-.67-.6-1.02-4.18-7.09-10.35-17.84-18.86-30.14-2.69-3.89-5.6-7.92-8.77-12.05-.86-1.12-1.74-2.25-2.64-3.38-1.63.84-3.25,1.69-4.85,2.58-10.15,5.64-18.96,13.24-27.18,21.38-15.74,15.57-28.84,33.35-43.39,49.97-12.12,13.84-25.38,26.84-40.85,36.92-17.25,11.25-36.83,17.98-56.66,23.09-20.03,5.17-40.65,8.67-60.03,16.08-16.7,6.38-32.31,15.4-46.51,26.24-14.73,11.24-27.28,24.65-40.68,37.35-12.62,11.96-27.35,24.29-44.66,28.45-3.1.75-6.32,1.21-9.6,1.45-.4,2.53-.71,4.76-.67,6.87.07,3.67,1.2,7.03,4.78,11.29,1.04,1.23,2.27,2.53,3.75,3.94,9.17,8.73,23.12,11.49,25.11,15.54.19.39.28.78.24,1.2-.45,4.48-3.42,12.33,2.51,19.99.4.51.83,1.02,1.31,1.53,1.51,1.61,3.32,3.1,5.27,4.52,3.71,2.69,7.98,5.12,11.94,7.52,2.94,1.78,5.7,3.56,7.95,5.42,1.21,1,2.28,2.03,3.13,3.1,3.92,4.97,5.36,9.02,10.16,13.74,2.13,2.1,4.92,4.33,8.9,6.83Z"/>
        <path class="cls-15" d="m.46,296.09c.37-.48.74-.95,1.09-1.43,8.22-10.96,12.65-23.11,17.39-35.8,4.39-11.77,9.63-24.11,19.4-32.48,9.28-7.94,19.99-9.23,31.25-4.79,6.52,2.57,12.47,6.41,19.35,8.01,6.51,1.52,12.99.74,19.28-1.37,13.04-4.37,23.88-12.93,38.35-11.5,13.92,1.38,25.69,9.91,39.21,12.91,14.9,3.31,30.79,1.73,44.66-4.7,40.53-18.79,45.12-71.78,81.38-95.8,11.24-7.45,24.88-10.17,38.11-7.63,13.96,2.68,25.84,10.99,36.22,20.33,6.88,6.19,13.25,12.91,19.89,19.36-.42-.62-.85-1.25-1.29-1.88-2.69-3.89-5.6-7.92-8.77-12.05-1.9-2.47-3.88-4.96-5.95-7.48-4.77-5.78-10.02-11.65-15.77-17.43-4.34-4.36-8.97-8.67-13.9-12.85-3.87-3.28-7.94-6.48-12.18-9.57-3.04-2.22-6.15-4.38-9.39-6.47-7.53-4.85-15.59-9.33-24.23-13.25-6.23-2.83-12.75-5.37-19.59-7.56-7.69-2.47-15.78-4.51-24.27-6.01-1.31-.23-2.6-.45-3.9-.66-61.42-9.95-124.26,4.46-176.04,38.96C49.36,132.51,6.78,158.07.72,262.74c-.39,6.81-.64,13.96-.71,21.47,0,0-.05,2.7.16,7.13.07,1.41.16,3.01.29,4.75Z"/>
        <path class="cls-2" d="m19.15,185.04c9.2-18.98,20.48-36.27,37.83-48.69,15.91-11.39,30.91-24.03,47.61-34.31,17.46-10.75,36.39-19.02,56.35-23.78,20.41-4.87,41.54-6.82,62.47-7.4,20.87-.58,42.38-.69,62.67,4.83,20.27,5.52,38.81,16.35,56.4,27.54,8.88,5.65,17.4,11.65,25.53,18.34,7.48,6.16,15.09,13.51,22.27,19.21.45.36.92.7,1.38,1.05-.55-.68-1.09-1.36-1.65-2.04-4.77-5.78-10.02-11.65-15.77-17.43-4.34-4.36-8.97-8.67-13.9-12.85-3.87-3.28-7.94-6.48-12.18-9.57-3.04-2.22-6.15-4.38-9.39-6.47-7.53-4.85-15.59-9.33-24.23-13.25-6.23-2.83-12.75-5.37-19.59-7.56-7.69-2.47-15.78-4.51-24.27-6.01-1.31-.23-2.6-.45-3.9-.66-61.42-9.95-124.26,4.46-176.04,38.96C56.24,127.93,20.9,149.54,6.59,216.77c3.4-10.85,7.58-21.46,12.56-31.74Z"/>
        <path class="cls-2" d="m173.09,219.77c-8.74-7.72-17.38-10.99-29.47-7.86-13.63,3.53-26.03,10.98-40.26,12.19-13.01,1.1-23.52-5.23-35.67-8.25-9.15-2.28-21-.84-28.89,5.39-7.08,5.59-10.52,13.72-14.29,21.59-.33,1.54-.64,3.08-.93,4.62,3.61-7.91,8.14-15.41,14.77-21.08,9.28-7.94,19.99-9.23,31.25-4.79,6.52,2.57,12.47,6.41,19.35,8.01,6.51,1.52,12.99.74,19.28-1.37,13.04-4.37,23.88-12.93,38.35-11.5,13.81,1.37,25.5,9.76,38.88,12.82-4.45-2.77-8.43-6.32-12.35-9.78Z"/>
        <path class="cls-7" d="m420.94,304.1c-2.17,7.81-4.37,15.72-8.38,22.77-4.33,7.62-10.58,13.93-16.24,20.63-4.6,5.45-8.83,11.2-12.66,17.2-3.65,5.71-6.98,11.72-11.67,16.61-4.09,4.27-9.07,7.56-14,10.81,6.99-3.32,13.95-6.99,19.59-12.3,7.47-7.03,12.15-16.43,17.91-24.91,10.97-16.14,26.31-29.53,33.87-47.52,6.5-15.47,6.58-32.77,10.26-49.15-2.02-3.13-2.82-8.63-3.46-15.5-1.59,8.34-3.46,16.63-5.49,24.88-3,12.22-6.37,24.35-9.73,36.48Z"/>
        <path class="cls-7" d="m420.94,304.1c-2.17,7.81-4.37,15.72-8.38,22.77-4.33,7.62-10.58,13.93-16.24,20.63-4.6,5.45-8.83,11.2-12.66,17.2-3.65,5.71-6.98,11.72-11.67,16.61-4.09,4.27-9.07,7.56-14,10.81,6.99-3.32,13.95-6.99,19.59-12.3,7.47-7.03,12.15-16.43,17.91-24.91,10.97-16.14,26.31-29.53,33.87-47.52,6.5-15.47,6.58-32.77,10.26-49.15-2.02-3.13-2.82-8.63-3.46-15.5-1.59,8.34-3.46,16.63-5.49,24.88-3,12.22-6.37,24.35-9.73,36.48Z"/>
        <path class="cls-4" d="m444.78,323.24c-2.43,7.92-4.87,15.81-7.13,23.7-1.48,5.14-2.95,10.3-4.93,15.27-2.67,6.74-6.23,13.1-9.84,19.39-4.08,7.12-8.25,14.19-12.91,20.95-12.78,18.55-29.22,34.56-48.1,46.85,19.2-6.57,34.24-21.42,48.55-35.81,4.63-4.66,9.27-9.32,13.44-14.4.79-.97,1.56-1.95,2.31-2.94,16.64-30.62,16.91-53.81,18.58-72.81,0-.06.01-.12.02-.19Z"/>
        <path class="cls-11" d="m108.4,444.33c10.7-4.45,21.96-7.42,33.24-10.08-27.41,2.13-53.31,15.06-80.41,18.03,3.71,2.69,7.98,5.12,11.94,7.52,1.7-.53,3.38-1.11,5.03-1.74,10.34-3.93,19.98-9.5,30.19-13.74Z"/>
        <path class="cls-11" d="m210.77,496.21c16.46-6.63,32.93-13.27,49.39-19.9.52-.31,1.04-.61,1.57-.91-28.5,11.13-57.56,21.49-87.95,24.34-10.69,1-21.46,1.06-32.16.17-7.47-.62-14.9-1.69-22.24-3.22,9.18,3.31,20.03,5.65,34.62,7.99,7.01,1.12,11.41,2.28,14.94,3.49,7.51-1.14,14.97-2.57,22.24-4.75,6.67-2,13.14-4.6,19.59-7.2Z"/>
        <path class="cls-11" d="m403.18,392.78c-6.07,5.59-12.44,10.88-18.69,16.3-6.13,5.31-11.86,11.06-18.18,16.14-6.78,5.45-13.81,10.69-20.89,15.75-11.18,7.99-22.8,15.28-34.65,22.2-19.36,12.54-39.66,23.63-60.68,33.13,6.74-1.86,13.39-4.03,19.94-6.49,19.22-7.24,37.38-16.98,55.48-26.7,5.32-2.86,10.67-5.73,15.46-9.4,4.33-3.31,8.16-7.22,12.26-10.82,5.19-4.55,10.81-8.6,16.24-12.85,13.28-10.4,25.75-22.43,33.72-37.25Z"/>
        <path class="cls-11" d="m92.92,475.73c.74-.99,2.22-.91,3.45-.74,41.77,5.73,84.76,2.33,125.11-9.89-40.78,10.68-84.23,10.98-125.16.88-3.04-.75-6.11-1.56-9.24-1.61-2.02-.03-4.02.28-5.95.86,1.21,1,2.28,2.03,3.13,3.1,3.92,4.97,5.36,9.02,10.16,13.74l-1.26-2.84c-.5-1.12-.97-2.51-.23-3.49Z"/>
      </g>
      <g class="cls-14">
        <path class="cls-7" d="m411.56,311.88c-11.37,13.78-30.74,12.2-46.22,17.82-8.17,2.97-14.78,8.37-21.44,13.79-3.6,2.93-7.19,5.86-10.79,8.79-11.66,5.76-24.33,8.86-37.23,11.64-14.32,3.08-29.61,6.55-40.57,16.89-.1.09.07.25.17.18,14.91-10.16,31.88-13.14,49.23-16.54,6.43-1.26,13.03-2.62,19.28-4.73-.7.57-1.41,1.15-2.11,1.72-13.27,10.81-26.12,22.31-41.18,30.63-7.62,4.21-15.68,7.09-24.32,8.31-8.48,1.19-17.01,1.36-25.16,4.28-4.53,1.62-8.77,4.02-13.39,5.39-4.95,1.48-10.09,1.46-15.21,1.53-10.36.14-20.1,2.11-30.02,5.04-.45.13,0,.77.34.72,10.05-1.59,19.91-3.18,30.13-2.92,8.24.21,15.36-.46,23.09-3.44,16.99-6.54,35.61-4.8,52.15-12.85,15.2-7.4,27.93-19.48,40.86-30.15,5.44-4.49,10.87-8.99,16.3-13.49,3.52-2.12,6.78-4.69,9.63-7.92.05-.05.07-.11.08-.16,6.25-5.29,12.61-10.68,20.2-13.84,15.65-6.51,35.38-5.49,46.31-20.58.06-.08-.09-.18-.15-.11Z"/>
        <path class="cls-7" d="m365.97,349.69c-4.23,14.86-16.83,22.73-30.22,28.6-13.22,5.79-25.88,11-37.55,19.7-11.31,8.43-21.71,18.45-34.32,24.98-14,7.25-30.03,8.28-45.51,8.09-16.65-.2-33.32-1.51-49.82,1.44-.04,0,0,.05.03.05,30.95-4.62,63.98,6.18,93.72-6.43,13.21-5.6,23.98-14.94,35.25-23.57,6.12-4.69,12.38-9.14,19.34-12.52,7.35-3.57,15.06-6.37,22.43-9.91,12.36-5.94,25.45-15.58,28.27-29.84.16-.82-1.36-1.52-1.62-.6Z"/>
      </g>
      <path class="cls-11" d="m431.52,208.59c-.24-.9-.48-1.8-.75-2.7-1.16-3.93-2.63-7.82-4.49-11.57,1.81,4.94,3.65,9.72,5.23,14.27Z"/>
      <path class="cls-11" d="m387.29,391.01c15.73-14.64,28.77-32.5,35.97-52.74-10.74,19.78-26.69,36.7-45.81,48.59-4.21,2.62-8.59,5.01-12.39,8.19-10.79,9.03-17.09,21.7-28.57,30.05,7.96-.61,19.3-10.15,26.04-14.66,8.73-5.84,17.07-12.27,24.77-19.43Z"/>
      <path class="cls-7" d="m312.09,268.34c32.01-18.43,58.02-45.48,83.56-72.15-6.6,19.69-15.23,39.17-29.25,54.49-19.47,21.26-47.36,32.5-74.68,41.71-43.15,14.55-87.44,25.73-132.33,33.41-10.09,1.73-20.27,3.29-29.94,6.63-15.12,5.23-27.25,14.8-40.55,23.24,9.85-25.67,46.24-32.7,69.5-39.36,33.11-9.49,67.16-15.34,100.1-25.47,18.55-5.71,36.75-12.8,53.6-22.5Z"/>
      <path class="cls-7" d="m124.53,386.31c22.33-4.36,45.27-6.58,66.6-14.53-32.2,3.58-64.16,9.33-95.58,17.22,35.85-18.76,75.76-28.15,115.36-36.5,39.59-8.36,79.68-15.96,117.01-31.57,37.33-15.61,72.27-40.19,92.53-75.22-6.03,18.94-16.21,36.55-29.6,51.23-11.62,12.74-25.5,23.17-39.28,33.53-11.87,8.92-23.85,17.9-37.33,24.12-32.62,15.05-71.35,12.75-103.51,28.76,3.38-3.42,7.64-5.96,12.26-7.3-24.43,4.45-48.85,8.89-73.28,13.34-12.87,2.34-25.75,4.69-38.42,7.93-14.18,3.63-28.2,11.29-42.23,14.11-1.81-13.83,45.84-23.23,55.48-25.11Z"/>
      <path class="cls-7" d="m246.79,449.89c.45-.39.89-.77,1.34-1.15-32.92,7.86-66.63,12.45-100.46,13.62,3.83,2.68,8.07,4.78,12.53,6.19-7.22.64-42.08-2.77-44.73,2.8,8.95,4.11,24.44,2.52,34.39,2.32,12.36-.25,24.71-1.46,36.88-3.6,11.96-2.11,23.75-5.11,35.25-9,8.26-2.79,16.51-7.73,24.78-11.18Z"/>
      <path class="cls-17" d="m291.27,139.34c-7.5-16.88-15.31-33.68-25.11-49.33-5.07-8.09-10.81-16-18.59-21.54-7.78-5.54-17.94-8.43-27.07-5.63l4.35,43.31c.83,8.28.84,18.36-6.21,22.78-4.05,2.54-9.18,2.25-13.95,2.01-40.29-2.08-80.52,5.15-117.75,20.38,3.28-.01,6.57.34,9.63,1.44,18.63-.13,39.63,5.4,55.05,7.94,36.53,6,73.05,12.01,109.58,18.01,11.15,1.83,24.58,2.87,31.75-5.87,7.48-9.13,3.11-22.7-1.68-33.49Z"/>
      <path class="cls-17" d="m241.79,79.23c5.54,24.99,13.02,49.56,22.35,73.4,1.48,3.77,2.82,8.57-.04,11.44-1.07,1.08-2.56,1.63-4.02,2.05-7.26,2.08-15.23,1.56-22.16-1.45-1.71-.74-3.35-1.63-5.11-2.24-2.78-.96-5.75-1.2-8.68-1.43-23.52-1.85-47.04-3.69-70.56-5.54-7.51-.59-15.11-1.2-22.25-3.62,18.73-.85,37.44-2.08,56.11-3.68,9.82-.84,19.64-1.79,29.41-3.12,3.58-.49,7.24-1.05,10.42-2.77,5.41-2.92,8.67-8.84,9.86-14.87,1.19-6.03.59-12.25-.02-18.37-1.06-10.67-2.12-21.35-3.18-32.02-.23-2.3-.53-8.77,3.48-7.64,3.11.87,3.82,7.31,4.39,9.86Z"/>
      <path class="cls-17" d="m404.2,177c-3.92-9.05-7.84-18.1-11.77-27.15-2.19-5.06-4.42-10.18-7.84-14.51-5.95-7.55-14.89-11.97-22.9-17.28-8.34-5.54-15.87-12.22-24.18-17.81-3.92-2.64-8.09-5.05-12.44-6.91-1.68-.48-3.37-.91-5.1-1.17-2.27-.33-4.56-.45-6.8-.93-1.77-.38-3.41-1.14-5.09-1.79l43.48,68.57c6.55,11.74,22.48,14.32,32.89,22.84,4.05,3.31,7.31,7.51,9.94,12.04,1.94,3.35,4.48,7.45,8.34,7.1,3.76-.34,5.65-4.86,5.58-8.63-.09-5.01-2.12-9.76-4.11-14.36Z"/>
      <path class="cls-17" d="m355.81,156.31c.49,1.09.97,2.21,1.81,3.06.97.99,2.32,1.49,3.61,1.99,7.73,2.95,15.39,6.45,21.67,11.83,2.13,1.82,4.08,3.85,6.28,5.58,3.08,2.43,6.59,4.26,10.07,6.07.44.23.9.46,1.39.54,1.48.21,2.82-1.16,3.11-2.63s-.2-2.97-.71-4.38c-4.05-11.13-10.38-21.43-18.5-30.05-9.51-10.11-21.28-17.81-33.21-24.91-7.27-4.33-14.76-8.56-20.61-14.67-4.11-4.3-7.46-9.55-12.48-12.9-3.57-2.38-3.22-.2-1.6,2.63,1.58,2.77,3.29,5.47,5.07,8.12,7.21,10.69,15.7,20.44,23.11,30.99,4.17,5.93,8,12.11,10.97,18.73Z"/>
    </g>
    <g>
      <g>
        <path class="cls-5" d="m355.53,136.03c2.96-2.11,7.78-.37,10.23-3.06.73-.8,1.09-1.87,1.55-2.85,1.96-4.23,5.88-7.27,8.1-11.37,3.24-5.97,2.48-13.35,4.96-19.66,1.48-3.76,4.06-7.04,5.26-10.9,1.93-6.21.05-13.17,2.21-19.3.28-.81.67-1.61,1.23-2.25l-2.66-27.69-35.79,98.9,2.81,1.96c.21-1.52.84-2.87,2.1-3.77Z"/>
        <path class="cls-5" d="m389.07,66.64c-.56.63-.94,1.44-1.23,2.25-2.16,6.13-.28,13.09-2.21,19.3-1.2,3.86-3.78,7.14-5.26,10.9-2.48,6.32-1.72,13.7-4.96,19.66-2.22,4.1-6.14,7.14-8.1,11.37-.46.99-.81,2.05-1.55,2.85-2.45,2.68-7.27.95-10.23,3.06-1.26.9-1.88,2.26-2.1,3.77l45.71,31.8-10.07-104.97Z"/>
      </g>
      <g>
        <path class="cls-6" d="m369.37,143.75c2.76-.37,4.88-2.8,7.62-3.32,1.46-.28,2.96.02,4.45-.05,4.15-.18,7.76-3.23,9.7-6.91,1.93-3.68,2.46-7.92,2.75-12.07.06-.91.12-1.83.18-2.74l-4.99-52.02c-.56.63-.94,1.44-1.23,2.25-2.16,6.13-.28,13.09-2.21,19.3-1.2,3.86-3.78,7.14-5.26,10.9-2.48,6.32-1.72,13.7-4.96,19.66-2.22,4.1-6.14,7.14-8.1,11.37-.46.99-.81,2.05-1.55,2.85-2.45,2.68-7.27.95-10.23,3.06-1.26.9-1.88,2.26-2.1,3.77l5.31,3.7c.27-.21.56-.41.89-.55,3.03-1.32,6.46,1.24,9.73.79Z"/>
        <path class="cls-5" d="m394.06,118.66c-.06.91-.11,1.83-.18,2.74-.29,4.15-.82,8.39-2.75,12.07-1.93,3.68-5.55,6.73-9.7,6.91-1.48.07-2.99-.23-4.45.05-2.74.52-4.86,2.95-7.62,3.32-3.28.44-6.7-2.11-9.73-.79-.32.14-.61.33-.89.55l40.39,28.1-5.08-52.94Z"/>
        <path class="cls-8" d="m394.06,118.66c-.06.91-.11,1.83-.18,2.74-.29,4.15-.82,8.39-2.75,12.07-1.93,3.68-5.55,6.73-9.7,6.91-1.48.07-2.99-.23-4.45.05-2.74.52-4.86,2.95-7.62,3.32-3.28.44-6.7-2.11-9.73-.79-.32.14-.61.33-.89.55l40.39,28.1-5.08-52.94Z"/>
      </g>
      <g>
        <polygon class="cls-1" points="368.72 87.83 386.42 38.94 357.93 56.92 363.96 63.74 356.44 57.86 322 79.58 329.2 88.69 319.93 80.89 307.36 88.82 350.62 137.84 366.98 92.65 352.23 77.6 368.72 87.83"/>
        <polygon class="cls-9" points="322 79.58 319.93 80.89 329.2 88.69 322 79.58"/>
        <polygon class="cls-9" points="357.93 56.92 356.44 57.86 363.96 63.74 357.93 56.92"/>
        <polygon class="cls-9" points="352.23 77.6 366.98 92.65 368.72 87.83 352.23 77.6"/>
      </g>
      <g>
        <polygon class="cls-12" points="391.07 87.44 390.86 85.21 380.59 80.5 391.07 87.44"/>
        <polygon class="cls-12" points="359.02 114.63 358.16 117.03 372.17 120.14 359.02 114.63"/>
      </g>
    </g>
    <g>
      <g>
        <polygon class="cls-16" points="127.48 56.88 99.79 52.12 98.8 56.37 124.94 58.66 127.48 56.88"/>
        <polygon class="cls-13" points="127.48 56.88 99.79 52.12 98.8 56.37 124.94 58.66 127.48 56.88"/>
        <polygon class="cls-16" points="130.27 122.62 85.07 115.18 84.25 118.69 132.3 124.15 130.27 122.62"/>
        <polygon class="cls-16" points="179 124.91 226.93 130.72 222.42 125.6 179 124.91"/>
        <polygon class="cls-5" points="238.94 61.89 222.37 53.81 224.44 85.82 216.52 50.96 111.96 0 171.15 67.3 176.72 50.03 174.12 70.67 222.42 125.6 226.93 130.72 247.66 154.29 238.94 61.89"/>
        <polygon class="cls-1" points="226.93 130.72 179 124.91 222.42 125.6 174.12 70.67 171.15 67.3 111.96 0 99.79 52.12 127.48 56.88 124.94 58.66 98.8 56.37 85.07 115.18 130.27 122.62 132.3 124.15 84.25 118.69 75.93 154.29 247.66 154.29 226.93 130.72"/>
        <polygon class="cls-16" points="171.15 67.3 174.12 70.67 176.72 50.03 171.15 67.3"/>
        <polygon class="cls-12" points="171.15 67.3 174.12 70.67 176.72 50.03 171.15 67.3"/>
        <path class="cls-2" d="m222.42,125.6l-10.48-11.92c-2.36-1.78-4.77-3.5-7.27-5.09-3.51-2.23-7.3-4.45-11.45-5.16-3-.51-6.09-.3-9.12-.5-5.26-.35-10.03-1.64-14.61-4.32-7.2-4.23-13.24-11.17-21.83-12.46-5.68-.85-11.58-.65-17.31-.63-9.83.03-25.47.64-37.74-2.67l-7.55,32.33-.82,3.52-8.31,35.6h171.72l-20.73-23.57-4.51-5.13Z"/>
        <path class="cls-3" d="m226.59,138.44c-12.15-2.35-23.88-5.8-35.35-10.46-5.72-2.33-10.86-5.03-15.96-8.52-4.66-3.18-9.11-5.54-14.69-6.7-12.21-2.55-25.7-3.78-38.17-3.69-13.43.09-25.82,4.35-38.08,9.17l-.11.46-8.31,35.6h171.72l-12.7-14.44c-2.82-.44-5.62-.88-8.37-1.41Z"/>
        <polygon class="cls-16" points="222.37 53.81 216.52 50.96 224.44 85.82 222.37 53.81"/>
        <polygon class="cls-12" points="222.37 53.81 216.52 50.96 224.44 85.82 222.37 53.81"/>
        <polygon class="cls-13" points="130.27 122.62 85.07 115.18 84.25 118.69 132.3 124.15 130.27 122.62"/>
        <polygon class="cls-13" points="179 124.91 226.93 130.72 222.42 125.6 179 124.91"/>
      </g>
      <polygon class="cls-2" points="111.96 0 101.97 42.81 113.14 3.48 238.94 61.89 111.96 0"/>
    </g>
  </g>
</svg>