<?xml version="1.0" encoding="UTF-8"?>
<svg id="Layer_2" data-name="Layer 2" xmlns="http://www.w3.org/2000/svg" viewBox="0 0 222.84 178.35">
  <defs>
    <style>
      .cls-1, .cls-2 {
        fill: #d75c71;
      }

      .cls-3 {
        fill: #d77285;
      }

      .cls-4, .cls-2, .cls-5 {
        opacity: .29;
      }

      .cls-5 {
        fill: #c844c4;
      }
    </style>
  </defs>
  <g id="winding_paths_2" data-name="winding paths 2">
    <g>
      <path class="cls-5" d="m9.51,121.53c2.71-2.38,4.77-5.5,7.77-7.5s7.58-2.45,9.84.36c2.63,3.27.9,9.27,4.54,11.37,3.03,1.75,7.45-.94,10.16,1.27,1.21.99,1.64,2.68,2.8,3.74,1.53,1.39,3.92,1.33,5.63,2.48,4.82,3.26.57,12.43,5.22,15.93,1.69,1.27,4,1.26,5.93,2.13,1.51.68,2.71,1.86,4.03,2.85,6.05,4.57,14.96,4.93,21.37.87,1.86-1.18,3.53-2.69,5.57-3.5,4.37-1.73,9.73.03,13.76-2.39,2.68-1.61,4.1-4.75,4.52-7.85s0-6.23-.14-9.35c-.09-1.98-.05-4.08.96-5.79,1.21-2.05,3.59-3.18,4.87-5.19.7-1.1,1.02-2.38,1.53-3.57,1.83-4.21,6.36-7.09,10.94-6.96,1.32.04,3.04,1.03,2.44,2.21-.54,1.06-2.09.58-3.26.38-2.25-.38-4.51,1.01-5.83,2.88s-1.88,4.15-2.42,6.37c-.33,1.35-.65,2.76-.3,4.1.51,1.97,2.38,3.42,2.69,5.43.44,2.77-2.19,5.09-2.64,7.85-.55,3.41,2.22,6.36,3.42,9.59,1.54,4.17.21,9.24-3.18,12.11-1.58,1.34-3.51,2.2-5.16,3.44-3.97,2.98-6.33,8.11-10.96,9.88-5.01,1.92-10.55-.86-15.92-.73-2.78.07-5.47.93-8.14,1.71-6.69,1.95-13.73,3.46-20.59,2.25s-13.53-5.68-15.55-12.35c-1.11-3.7-.73-7.66-1.1-11.51s-1.83-8-5.26-9.78c-3.85-2-9.18-.47-12.38-3.41-3.7-3.41-2.16-10.83-6.66-13.08-1.94-.97-4.26-.48-6.43-.37-3.36.17-7.11-.65-9.9-2.6,2.87-.82,5.4-1.17,7.82-3.3Z"/>
      <path class="cls-2" d="m12.6,124.04c12.01-8.45,8.64,5.69,14.17,10.29,2.41,2.01,5.54,1.77,8.31,2.88,4.14,1.65,6.79,5.65,8.36,9.64,2.81,7.13,1.72,15.24,8.24,20.46,6.11,4.89,13.97,5.6,21.49,4.79,3.58-.39,7.05-1.27,10.64-1.37,3.39-.1,6.75.36,10.14.1,3.37-.25,6.26-1.23,8.97-3.32,1.09-.84,2.04-1.87,3.17-2.67,2.07-1.46,4.39-2.07,6.44-3.68,4.79-3.75,6.1-9.61,4.77-15.4-.52-2.26-1.9-3.7-1.03-6.5.28-.9,1.1-1.58,1.25-2.53.22-1.41-.3-1.94-.66-3.21-.93-3.19-1.69-4.29-.15-7.39.45-.91-.61-1.76-1.39-1.09-1.66,1.42-2.59,3.08-2.69,5.31-.05,1.22.29,1.93.53,3.1.41,2.06.78,3.96.78,6.08-.01,3.83.43,8.4-1.52,11.86-2.06,3.66-5.4,1.99-8.84,3.08-3.89,1.24-5.08,4.51-8.19,6.59-4.54,3.03-8.44-1.32-12.93-1.49-3.57-.13-7.15,1.21-10.68,1.56-3.57.35-7.15.19-10.62-.8-5.6-1.6-6.21-5.62-7.92-10.52-1.21-3.46-2.72-6.86-4.9-9.82-3.75-5.11-8.89-7.8-15.12-8.37-7.36-.68-4.93-7.94-9.77-11.4-4.04-2.89-8.21.81-10.95,3.7-.08.09.03.21.13.14h0Z"/>
      <path class="cls-3" d="m27.54,130.58c1.68,3.31,4.89,4.53,8.21,5.81,7.06,2.72,10.04,8.57,12.13,15.61,1.33,4.47,1.8,9.17,5.32,12.57,3.6,3.49,8.59,5.11,13.54,4.66,2.64-.24,5.01-1.14,7.56-1.71,3.49-.77,6.97.25,10.44.43,4.49.24,9.13-.3,13.24-2.22,1.91-.89,3.27-2.1,4.86-3.39,2.73-2.2,5.35-2.69,8.44-4,3.86-1.64,5.22-4.41,5.28-8.46,0-.55-.91-.73-1-.15-.85,5.62-6.79,5.99-10.93,8.19-4.77,2.54-7.59,6.74-13.49,6.99-5.18.21-9.11-2.35-14.01-3.09s-9.72,1.42-14.57,1.34c-6.94-.11-10.02-3.99-11.85-10.48-1.12-3.98-2.9-8.52-5.25-11.98-4.38-6.44-12.12-5.78-17.87-10.17-.03-.02-.07.02-.06.05h0Z"/>
    </g>
    <g>
      <path class="cls-5" d="m211.75,26.22c-1.04-9.68,5.18-18.48,11.09-26.22-6.53,6.23-13.52,13.43-13.81,22.45-.23,7.23,3.9,15.01.32,21.3-2.15,3.77-6.51,5.68-10.71,6.76-4.2,1.08-8.64,1.63-12.42,3.77s-6.79,6.5-5.64,10.68c.91,3.33,4.24,5.99,3.9,9.43-.38,3.88-5.23,6.05-5.87,9.89-.82,4.92,5.23,7.74,8.51,11.5,4.23,4.84,3.73,12.74-.28,17.76-4.01,5.02-10.8,7.3-17.22,6.91-3.84-.23-8.48-2.43-8.22-6.26.27-4.05,5.99-6.36,5.69-10.4-.31-4.26-7.06-6.01-6.94-10.29.05-1.82,1.42-3.34,1.83-5.11.94-4.05-3.45-7.54-7.58-8.03s-8.3.8-12.45.46c-4.46-.37-8.63-2.61-13.1-2.81-7.96-.35-14.55,5.63-20.93,10.41-4.01,3-8.37,5.69-13.24,6.84-4.87,1.15-10.34.57-14.31-2.49-4.07-3.13-5.98-8.26-9.1-12.33-8.33-10.86-24.37-12.78-37.57-9.2-6.47,1.76-12.58,4.59-18.52,7.65-.16.08-.32.17-.48.26-.5.27-.99.56-1.49.84-2.82,1.66-5.97,3.81-9.07,5.39-1.38.86-2.75,1.72-4.13,2.59,6.28-1.4,13.06-1.64,17.05,3.03,1.14,1.33,1.96,3,3.45,3.91,3.3,2.02,7.4-.77,10.13-3.51s6.36-5.87,9.97-4.48c4.85,1.86,3.9,9.39,7.5,13.14,4.07,4.24,12.75,2.45,15.26,7.76.83,1.77.64,3.83.38,5.76-1.35,9.92-3.74,21.3,2.76,28.91,5.14,6.02,14.62,7.06,21.78,3.7,7.16-3.37,12.12-10.33,14.77-17.79,2.99-8.41,3.54-17.9,8.72-25.17,5.09-7.13,14.47-10.92,23.09-9.31,1.6.3,3.24.81,4.39,1.95,4.19,4.13-.67,12.73,3.76,16.59,2.25,1.96,5.81,1.52,8.26,3.22,2.77,1.92,3.17,5.76,4.31,8.94,2.3,6.42,8.85,11.06,15.67,11.1,6.82.05,13.43-4.51,15.82-10.89.98-2.62,1.3-5.48,2.51-8.01,1.67-3.5,4.9-6.07,6.52-9.59,2.22-4.82.79-11.05-3.31-14.42-3.56-2.91-9.27-4.6-9.57-9.19-.27-4.08,4.3-6.99,4.89-11.04.45-3.07-1.49-6.18-.78-9.2,1.19-5.03,7.91-5.59,12.85-7.13,8.44-2.62,14.38-11.66,13.43-20.44-.35-3.24-1.52-6.36-1.87-9.6Z"/>
      <g class="cls-4">
        <path class="cls-1" d="m203.85,51.32c.29-.23-.06-.73-.38-.53-6.58,4.07-14.64,2.7-18.86,10.37-1.19,2.17-1.79,4.42-1.39,6.89.53,3.26,2.59,4.18.82,8.16-.69,1.55-1.96,2.88-2.73,4.41-2.54,5.01.04,8.83,4.29,11.78,4.22,2.93,6.03,4.89,5.46,10.3-.24,2.3-.89,4.57-1.19,6.87-.24,1.86-1.04,3.36-1.97,4.81-.75.76-1.34,1.62-1.98,2.5-1,1.39-2.09,2.53-3.22,3.78-.57.63-1.22,1.41-1.81,2.23-.08.06-.15.13-.23.21-1.77,2.02-3.1,3.23-5.83,2.69-1.32-.26-2.68-.99-3.99-1.36-5.17-1.48-12.14-3.17-11.86-10.03.14-3.42,2.23-6.64,1.13-10.14-.41-1.32-1.2-2.11-2.05-3.14-1.68-2.02-1.79-2.56-2.11-5.13-.96-7.9-7.32-8.52-14.01-8.64-4.27-.07-7.45-3.05-11.7-3.16-4.22-.1-7.77,1.77-11.31,3.84-3.71,2.17-7.22,4.19-11.41,5.29-3.76.99-7.4,2.82-10.1,5.68-2.77,2.94-4.29,6.71-5.41,10.53-1.15,2.59-2.09,5.32-3.25,7.86-1.65,3.6-5.7,6.77-6.82,1.05-.16-.83-.3-1.68-.44-2.54.21-3.72-.06-7.32-1.35-10.96-1.24-3.49-3.18-6.61-5.92-9.12-3.19-2.91-7-3.9-10.79-5.72-4.74-2.27-4.96-7.8-8.43-11.36-2.97-3.04-7.09-4.26-11.22-4.71-4.62-.5-9.51-.35-13.62,2.03-5.84,3.38-9.71,8.05-17.18,7.02-.63-.09-.79.83-.33,1.13,2.96,1.94,6.63,3.35,10.22,3.25,5.27-.15,8.35-4.72,13.18-5.75,4.15-.89,11.06-.12,13.56,3.63,2.69,4.03,3.01,8.36,7.27,11.38,3.51,2.49,8.23,3.08,11.24,6.26,1.4,1.47,2.3,3.16,2.85,4.96.07.56.11,1.13.13,1.72.09,4.41-1.13,8.66-1.65,13.01-.74,6.14.05,13,5.48,16.88,5.21,3.73,12.11,2.2,16.47-2.07,3.96-3.88,5.2-8.98,5.89-14.24.62-1.42,1.12-2.89,1.49-4.38,1.09-4.36,1.24-9.1,3.44-13.11,2.26-4.1,7.31-6.65,11.17-9.1,4.17-2.65,8.1-6.44,12.96-7.73,5.42-1.44,9.74,3.07,15.14,3.33,2.13.1,6.19-.56,7.94,1.29,1.46,1.54.53,4.79.88,6.69.3,1.63.93,2.51,1.82,3.81,1.57,2.28,2.5,2.83,1.99,5.84-1.46,8.49,3.09,16.24,11.56,18.68,7.35,2.12,11.85,3.43,16.64-2.72,1.13-.8,2.08-2,2.63-3.04.73-1.39,1.2-2.86,2-4.23.32-.55.66-1.09.97-1.64,1.29-1.3,2.59-2.57,3.37-4.37,1.41-3.27,2.29-7.37,2.58-10.9.21-2.52-.24-4.89-1.56-7.06-1.92-3.13-5.24-3.9-7.8-6.25-5.79-5.33-.15-7.97,1.58-12.6.77-2.07.4-3.63-.3-5.71-4.77-14.06,10.58-12.93,18.04-18.71Z"/>
      </g>
      <path class="cls-3" d="m25.73,82.86c9.13-7.03,22.4-5.73,28.48,4.47,1.64,2.74,2.82,5.71,5.18,7.97s5.29,3.4,8.11,4.91c9.05,4.84,7.76,12.67,7,21.3-.52,5.85,1.79,12.87,8.26,14.16,6.3,1.25,9.31-4.48,10.53-9.63.99-4.22,1.78-8.4,3.01-12.56,1.53-5.18,2.26-10.78,7.33-13.7,3.74-2.15,7.85-3.75,11.66-5.8,3.59-1.93,7.91-5.08,11.81-6.19s7.71,1.55,11.48,2.41,7.69.17,11.52,1.08c.22.05.34-.22.16-.35-1.36-1.06-1.08-.93-2.82-1.27-1.01,0-2.03.02-3.04.07-2.21.05-4.18-.65-5.91-2.09-1.98-1.02-4.02-2.13-6.23-2.55-6.99-1.31-14.14,4.61-19.87,7.81-6.3,3.52-13.68,6.92-16.77,13.78-1.98,4.39-3.44,8.94-5.53,13.28-.95,1.97-1.71,4.78-3.4,6.27-3.64,3.2-5.09.55-5.68-3.15-1.11-7.02,0-13.68-3.93-20.1s-11.88-6.69-17-11.77c-5.46-5.42-8.14-11.87-16.11-14.17-6.88-1.99-13.62.56-18.39,5.64-.1.11.04.27.16.17h0Z"/>
    </g>
  </g>
</svg>