<?xml version="1.0" encoding="UTF-8"?>
<svg id="Layer_2" data-name="Layer 2" xmlns="http://www.w3.org/2000/svg" viewBox="0 0 215.7 266.44">
  <defs>
    <style>
      .cls-1 {
        fill: #d77285;
      }

      .cls-2 {
        fill: #d75c71;
      }

      .cls-2, .cls-3 {
        opacity: .29;
      }

      .cls-3 {
        fill: #c844c4;
      }
    </style>
  </defs>
  <g id="winding_paths_2" data-name="winding paths 2">
    <g>
      <path class="cls-3" d="m31.41,11.46c10.99.41,21.46,7.72,32.24,5.53,9.58-1.95,16.21-10.83,25.26-14.54C93.83.44,99.26.04,104.59,0c10.65-.08,23.12,2.36,27.75,11.95,2.82,5.83,1.82,12.81-.36,18.91-2.18,6.1-5.46,11.79-7.24,18.02-1.09,3.81-1.57,8.03.05,11.65,2.09,4.68,7.11,7.25,11.93,9,8.81,3.19,18.19,4.81,27.57,4.75,5.64-.03,11.36-.66,16.86.55,10.03,2.2,17.72,10.01,24.78,17.47,3.19,3.36,6.44,6.83,8.22,11.11,3.84,9.23-.06,19.86-5.41,28.31-2.26,3.57-4.84,7.03-8.27,9.5-9.18,6.6-22.2,4.66-32.15,10.03-8.93,4.81-13.81,14.51-19.23,23.08s-13.23,17.22-23.37,17.44c-2.67.06-5.31-.5-7.95-.93-11.47-1.89-23.18-1.56-34.8-1.23-3.21.09-6.47.19-9.51,1.22-5.38,1.82-9.53,6.51-11.39,11.88-2.96,8.55-.03,18.8,6.99,24.5,4.46,3.62,11,6.66,10.93,12.4-.06,5.53-6.37,8.65-9.09,13.47-1.72,3.06-1.95,6.8-3.72,9.84-1.77,3.04-6.47,4.93-8.69,2.21-2.71-3.3,1.58-7.85,1.83-12.11.2-3.45-2.33-6.39-4.69-8.91-4.54-4.84-9.35-9.85-15.63-12.01-2.32-.8-4.79-1.18-6.95-2.33-5.21-2.77-7.25-10.2-4.18-15.24,1.22-2.02,3.09-3.61,4.12-5.74,2.45-5.08-.6-10.95-1.28-16.55-1.09-8.96,4.98-18.26,13.61-20.89,5.92-1.8,12.61-.76,18.1-3.61,13.41-6.95,9.38-30.17,22.29-37.99,7.41-4.49,17.6-1.34,23.41,5.08,2.83,3.13,4.94,6.97,8.34,9.46,6.08,4.46,15.69,2.91,20.06-3.24,2.26-3.18,3.19-7.25,5.85-10.11,4.79-5.16,13.05-4.49,19.89-2.86,6.85,1.63,14.41,3.74,20.6.4,7.77-4.19,9.21-14.58,9.29-23.41.02-2.83-.23-6.14-2.59-7.72-3.86-2.59-9.35,1.89-13.57-.04-2.4-1.1-3.47-3.85-5.24-5.8-4.82-5.32-13.5-3.76-20.16-1.07-6.66,2.69-14.09,6.13-20.68,3.26-1.92-.84-3.59-2.16-5.51-3.01-7.4-3.27-15.83,1.37-22.03,6.56s-12.5,11.47-20.57,12c-7.22.47-14.44-4.57-16.48-11.52-1.81-6.14.27-12.97,4.22-18.01,3.96-5.04,9.57-8.52,15.38-11.22,5.3-2.47,11.84-5.76,11.75-11.61-.03-1.95-.87-3.81-1.02-5.76-.37-4.91,3.64-9.06,7.86-11.6s9.06-4.3,12.37-7.94,4.23-10.19.23-13.06c-3.88-2.78-9.21-.39-13.98-.47-4.16-.07-8.04-2.11-12.18-2.53-10.62-1.08-19.92,8.46-30.59,8.21-10.41-.25-18.86-9.74-29.26-10.12-10.59-.39-20.62,9.47-31.11,7.42,2.37-3.71,9.13-4.49,13.01-5.77,5.95-1.96,12.03-4.05,18.39-3.81Z"/>
      <path class="cls-2" d="m205.24,106.61c-.78-4.85.9-9.86-2.01-14.25-2.14-3.23-5.59-4.65-9.25-5.45-2.06-.45-4.19-.6-6.22-1.13-2.83-.73-4.45-2.34-6.79-3.96-4.3-2.98-9.23-3.22-14.29-3.44-7.16-.3-14.32-.62-21.48-.82-1-.03-2.05-.07-3.11-.11-.05-.01-.1-.04-.16-.05-7.45-1.48-15.91-.06-22.18-5.33-3.44-2.89-5.05-6.81-5.62-11.01-.09-3.19.4-6.3,1.74-9.88.86-2.31,1.68-4.62,2.47-6.93,1.57-2.24,2.99-4.69,4.29-6.99,3.21-5.7,5.71-13.95,2.81-20.26-2.89-6.3-11.94-8.28-17.99-9.92-9.12-2.47-16.28-2.38-24.31,2.97-8.82,5.87-18.41,9.13-28.98,10.16-.35.03-.39.53-.02.56,7.58.73,14.48-.28,21.54-3.2,6.68-2.77,12.72-6.26,20.19-4.99,3.99.68,7.95,1.69,11.97,2.18,3.64.45,7.93.04,11.1,2.16,4.58,3.06,3.06,8.7,1.31,12.88-1.61,3.85-2.75,9-6.09,11.67-2.73,2.18-6.08,3.07-8.32,5.9-1.89,2.39-2.86,5.48-2.98,8.5-.16,3.86.97,6.47-1.97,9.48-2.48,2.53-5.85,3.82-8.93,5.45-2.53,1.34-5.14,2.97-7.41,4.93-3.09,2.22-5.83,4.8-7.83,7.76-4.89,7.26-1.03,16.55,8.06,16.73,5.08.1,9.39-1.92,13.55-4.36,1.03-.38,1.99-.77,2.83-1.12,1.94-.81,3.79-1.77,5.54-2.88,4.22-2.66,8.98-4.37,13.96-4.63,6.82-.36,13.78.56,20.72-.45l.43-.09c1.19-.32,2.38-.62,3.61-.72,2.1-.17,4.21-.38,6.31-.57,2.41.05,4.82.09,7.22.15,1,.03,2.03.02,3.08,0,2.92-.05,5.78.88,8.11,2.64,2.93,2.21,6.14,5.16,7.99,6.48,4.56,3.24,4.85-2.3,9.97-.76,2.73.82,4.93,2.56,6.58,4.76,2.57,7.48,4.05,15.29-.39,22.51-2.98,4.84-6.71,7.97-10.99,10.24-5.2.89-10.37,1.96-15.67,2.11-5.3.15-10.73-1.4-15.93.12-7.27,2.12-11.03,8.77-14.75,14.93-4.76,3.95-9.9,6.65-16.3,3.69-4.47-2.07-8.27-5.15-13.36-5.68-5.43-.56-11.2,1.42-15.21,5.12-3.95,3.65-5.08,8.61-7.12,13.36-2.13,4.97-6.48,8.75-11.67,10.24-5.78,1.67-11.92-.31-17.81.84-5.07.99-9.69,3.64-11.96,8.42-2.54,5.35-.74,10.59-.03,16.12.81,6.38-5.61,9.4-6.01,15.64-.44,6.88,5.86,11.41,11.29,14.3,6.15,3.28,17.06,7.48,16.81,15.98-.01.49.69.49.75.02.62-4.54.38-9.09-1.95-13.09-2.86-4.92-7.6-8.86-11.92-12.46-2.65-2.21-4.59-3.21-2.41-6.33,1.61-2.29,3.25-4.39,4.02-7.13.51-1.81.58-3.55.45-5.28.41-3.41,1.18-6.81,3.18-9.66,2.89-4.11,8-5.45,12.8-5.84,5.24-.42,10.37,1.12,15.59.41,5.42-.74,9.53-3.28,13.05-7.33,2.79-3.2,5.65-8.22,9.8-9.79,2.58-.97,4.68.48,7.1,1.29,2.76.92,5.26,1.2,8.15.79,10.36-1.46,16.89-10,21.78-18.48,1.99-3.45,4.13-8.33,7.99-10.07,2.33-1.05,5.01-.38,7.47-.22,2.85.19,5.69.24,8.53.14.29.05.59.07.92.06,1.08-.03,2.17-.14,3.26-.29,9.46-.6,20.81-1.55,27.9-8.12,3.35-3.1,5.58-7.42,6.26-11.93.91-6.1-2.14-10.86-3.08-16.67Z"/>
      <path class="cls-1" d="m201.49,103.28c-1.27-7.52-4.24-12.89-12.01-14.7-2.58-.6-5.22-.86-7.74-1.7-2.54-.85-4.57-2.4-6.94-3.57-4.74-2.33-9.94-3-15.15-3.12-3.6-.08-7.21-.19-10.81-.34-3.5.12-6.97.29-10.49.04-6.54-.45-13.93-1.37-19.34-5.43-5.36-4.03-8.29-11.25-7.47-17.89.28-2.29.99-4.49,2-6.54.52-1.36,1.36-2.62,2.26-3.81,1.92-2.55,3.63-5.14,5.11-7.97,1.65-3.16,2.86-6.46,3.53-9.96.38-2.01.63-3.86.34-5.9-.16-1.1-.29-2.19-.34-3.29-1.05-3.28-3.12-5.99-6.72-7.24-2.18-.76-4.56-.69-6.83-.83-3.69-.22-7.03-1.17-10.61-1.93-4.44-.94-8.55-1.32-12.55,1.08-.04.03-.02.1.03.09,5.44-1.15,10.25.38,15.44,1.8,4.07,1.12,8.49.96,12.47,2.18,13.3,4.08,4.23,21.91-.9,29.07-4.09,5.72-9.62,10.24-10.06,17.72-.27,4.57,1.97,9.28-2.95,11.72-3.67,1.82-7.36,2.94-10.8,5.35-4.49,3.16-11.41,10.28-5.2,14.83.98.55,2,1.02,3.12,1.14,3,.31,5.83-.53,8.52-1.72.62-.42,1.23-.86,1.84-1.32.71-.19,1.42-.41,2.12-.64,3.32-1.72,6.78-3.03,10.28-4.36,3.72-1.42,7.52-2.44,11.46-2.98,7.92-1.1,15.89-.55,23.83.05,4.13.31,8.26.16,12.39.05,2.04-.06,4.08-.15,6.11.03,1.83.16,3.53.6,5.28,1.1,1.3.38,2.82.7,3.74,1.77.53.61.85,1.33,1.45,1.88.66.6,1.4,1.1,2.17,1.55,1.51.86,3.12,1.5,4.71,2.16.69.16,1.4.3,2.15.41,4.72.7,9.48,1.29,12.16,5.78,2.07,3.46,2.19,8.06,2.53,11.97.53,6.02-.61,10.72-4.21,15.6-6.09,8.25-14.61,10.77-24.49,11.03-7.98.21-16.86.15-23.79,4.72-7.21,4.76-10.21,18.89-20.78,15.2-7.65-2.67-13.68-4.33-21.7-1.68-4.44,1.46-8.16,2.94-11.34,6.49-2.88,3.2-4.91,6.95-7.48,10.36-1.35,1.79-2.88,3.17-4.55,4.25-1.36.66-2.75,1.27-4.22,1.73-5.15,1.59-10.14,1.45-15.4,2.07-8.48,1-13.72,5.43-12.73,14.37.26,2.35.59,4.48.11,6.86-.61,3-2.6,4.59-4.2,6.99-1.7,2.56-2.51,5.59-2.32,8.66.18,2.91,1.27,5.77,3.18,7.98,3.32,3.84,8.58,3.89,11.92,7.65.32.36.9-.07.68-.49-3.41-6.42-12.51-7.59-12.96-15.86-.24-4.5,2.54-6.61,4.81-9.91,2.07-3.01,1.91-5.52,1.81-9.02-.17-6.27,1.46-11.14,8.52-11.78,3.87-.35,7.73.03,11.6-.54,1.22-.18,2.53-.41,3.87-.7,3.35-.2,6.68-.65,9.94-1.63,9.65-2.9,11.96-11.89,18.94-17.99,7.85-6.86,17.01,1.06,25.63-1.48,8.79-2.59,11.03-13.68,17.54-18.91,8.91-7.16,21.98-3.14,32.41-4.41,7.79-.95,15.44-4.33,19.56-11.39,4.04-6.93,2.78-17.16,1.5-24.71Z"/>
    </g>
  </g>
</svg>