<?xml version="1.0" encoding="UTF-8"?>
<svg id="Layer_2" data-name="Layer 2" xmlns="http://www.w3.org/2000/svg" viewBox="0 0 241.11 394.67">
  <defs>
    <style>
      .cls-1, .cls-2 {
        fill: #d75c71;
      }

      .cls-3 {
        fill: #d77285;
      }

      .cls-4, .cls-2, .cls-5 {
        opacity: .29;
      }

      .cls-5 {
        fill: #c844c4;
      }
    </style>
  </defs>
  <g id="winding_paths" data-name="winding paths">
    <g>
      <g>
        <path class="cls-5" d="m22.09,133.01c4.2,2.37,9.11,3.25,13.35,5.55s7.95,6.92,6.77,11.6c-1.26,5-7.14,7.22-10.04,11.48-5.1,7.53.16,19.49-6.22,25.97-3.24,3.29-8.32,3.79-12.36,6.01-7.21,3.97-10.16,14.14-6.18,21.35,1.95,3.54,5.23,6.27,6.77,10.01,2.46,5.95-.09,12.68-2.61,18.6-1.94,4.56-3.91,9.17-6.9,13.12-1.6,2.12-3.52,4.11-4.29,6.65-1.88,6.21,3.76,12.27,3.93,18.75.08,3.21-1.2,6.34-1.14,9.56.11,6.37,5.24,11.37,10,15.61,2.72,2.42,5.5,4.89,8.84,6.36,8.54,3.77,18.99.36,27.49,4.23,13.05,5.95,14.51,25.19,26.57,32.96,4.12,2.65,9.05,3.65,13.85,4.6,6.61,1.31,13.51,2.61,20.02.85,3.11-.84,6-2.35,9.09-3.21,3.17-.88,6.51-1.07,9.8-.8,10.96.9,21.34,7.18,27.24,16.45,2.26-3.29.45-7.88-2.15-10.91-5.17-6.01-13.03-9.15-20.88-10.32s-15.83-.57-23.75-.32c-5.56.17-11.24.16-16.55-1.5s-10.29-5.21-12.42-10.35c-.96-2.32-1.34-4.94-2.83-6.97-2.66-3.63-7.91-4.25-11.23-7.3-2.81-2.58-3.84-6.52-5.91-9.73-5.61-8.69-17.48-10.47-27.83-10.29-4.48.08-9.6.11-12.63-3.2-1.37-1.5-2.08-3.5-2.53-5.48-1.2-5.32-.13-11.93,4.7-14.46,3.13-1.63,6.87-1.08,10.4-1.08,7.65,0,15.83-3.39,19.18-10.26s-.6-16.93-8.19-17.82c-3.12-.37-6.2.75-9.32,1.1s-6.81-.38-8.27-3.17c-1.53-2.92.21-6.53,2.49-8.91s5.19-4.27,6.72-7.19c2.82-5.39-.04-11.84-2.44-17.42-2.4-5.58-4.06-12.86.29-17.1,4.2-4.1,11.07-2.57,16.83-3.67,6.28-1.19,11.72-6.09,13.56-12.21.83-2.74,1.01-5.74,2.54-8.16,3.02-4.76,10.69-6.38,11.34-11.98.53-4.49-4.09-7.83-8.37-9.29s-9.22-2.41-11.82-6.1c-3.73-5.3-.43-13.03-3.17-18.9-4.58-9.8-22.32-8.3-25.12-18.75-1.3-4.84,2.25-13.68-3.13-16.71-5.02-2.83-11.93,3.05-13.41,7.68-3.53,11-.7,29.08,9.91,35.07Z"/>
        <g class="cls-4">
          <path class="cls-1" d="m17.5,299.12c-3-4.08-3.06-9.78-3.69-14.61-.35-2.7-.63-5.39-.85-8.1,0,0,0-.01,0-.02-.09-1.05.33-2.09,1.11-2.8,2-1.83,3.63-4.4,6.75-4.89,6.01-.94,11.62,1.67,17.48,1.89,6.62.25,11.81-8.56,4.45-12.01-3.74-1.75-9.32-.74-13.26-.45-3.09.23-5.14.2-6.49-2.82-.5-1.11-.71-2.44-.84-3.65-.28-2.59.18-5.11.82-7.63.46-1.85,1.13-3.63,1.79-5.41.19-.51.32-1,.43-1.49,1.25-1.82,2.32-3.72,3-6.07,1.4-4.84.27-9.29-1.39-13.89-1.39-3.83-3.29-7.44-3.57-11.58-.46-6.84,3.64-9.21,8.87-12.36,3.23-1.95,5.05-4.91,7.86-7.25,1.61-1.34,3.13-2.01,4.56-3.74,1.57-1.89,2.74-3.99,4.19-5.96,2.8-3.79,6.02-7.09,6.37-12.04.31-4.35-1.15-8.85-2.44-12.94-1.47-4.66-2.34-9.24-4.53-13.68-2.19-4.45-5.05-8.98-8.25-12.78-1.59-1.89-3.29-3.68-5.16-5.3-1.98-1.72-4.48-2.84-6.34-4.65-1.85-1.79-2.24-4.07-3.22-6.37-1.21-2.85-3.19-5.38-4.06-8.35-.56-1.92-3.24-1.84-3.82.02-1.6,5.2-4.26,9.07-2.54,14.82,1.32,4.38,4.2,8.08,7.91,10.68,4.23,2.96,9.25,4.28,13.42,7.4,4.61,3.45,7.81,8.55,9.92,13.85,1.88,4.73,1.91,9.61-.3,14.26-2.13,4.48-6.31,6.98-8.84,11.16-1.11,1.83-1.85,3.98-2.3,6.08-.36,1.7.17,3.29,0,4.89-.05.47-2.03,3.64-2.95,4.58-1.79,1.83-4.23,2.89-6.23,4.46-6.05,4.74-8.77,13.06-8.28,20.55.3,4.61,3.24,8.76,3.11,13.34-.06,2.12-.84,4.35-1.81,6.56-.43.57-.83,1.19-1.16,1.94-.46,1.03-.85,2.1-1.22,3.17-.24.54-.47,1.07-.67,1.58-1.61,4.15-2.24,7.8-2.59,12.21-.19,2.43-.39,5.05-1.35,7.33-.97,2.3-2.88,4-4.18,6.09-2.39,3.82-1.98,7.38-1.13,11.61,1.09,5.41,1.82,10.89,2.94,16.3.9,4.38,2.59,8.51,5.96,11.58,3.35,3.05,6.99,3.83,11.27,4.82,11.19,2.58,28.31-.21,33.83,12.65.32.75,1.57.27,1.33-.51-6.21-20.13-33.29-7.97-43.92-22.46Zm.77-35.41s0,0,0,0c0,0,0,0,0,0,0,0,0,0,0,0Z"/>
        </g>
      </g>
      <path class="cls-3" d="m39.29,130.47c-.05-.04-.11.05-.06.08,7.01,4.82,8.34,14.46,9.48,22.34.7,4.84.5,9.46-2.25,13.68-1.78,2.74-4.29,4.94-6.09,7.67-1.91,2.9-2.6,6.2-4.21,9.23-1.66,3.13-4.27,5.5-6.88,7.82-4.03,3.58-8.11,7.2-9.22,12.72-1.25,6.24,1.28,12.46,2.03,18.6,1.03,8.38-3.75,14.3-5.7,22.02-1.71,6.72,2.96,15.31-2.12,20.63-4.19,4.38-4.77,7.63-4.96,13.67-.36,10.89,2.28,30.39,17.53,29.02.61-.05.62-.85.02-.94-9.77-1.39-14.58-9.9-15.67-19-.39-3.22-.97-6.58-1.02-9.83-.08-5.46,2.28-8.51,5.91-12.04.02-.02.04-.04.06-.07,2.14-1.09,4.77-.68,7.43-.16,3.5,1.55,7.26,1.94,11.09,1.75,1.61-.08,7-1.13,5.75-4.08-1.72-4.06-7.76-3.18-11.33-3.43-2.12-.15-4.87.27-6.74-.93-1.84-1.19-2.55-4.16-3.16-6.73-.37-3.55-.72-6.58.42-10.17,1.08-3.42,2.81-6.63,3.69-10.11,1.46-5.8,0-11.41-1.17-17.12-.94-4.62-1.67-9.53.5-13.95,1.43-2.91,3.89-5.19,6.28-7.31,4.49-3.98,8.22-7.35,10.67-12.9,2.61-5.92,8.04-9.97,10.45-15.93,2.51-6.22.87-14.02-1-20.22-1.67-5.51-5.09-10.89-9.73-14.31Z"/>
    </g>
    <g>
      <path class="cls-5" d="m35.02,54.37c-.91,8.63,4.2,17.56,12.1,21.15,3.88,1.76,8.5,2.46,11.33,5.65,3.7,4.16,2.69,10.63.77,15.86s-4.57,10.64-3.45,16.09c1.53,7.46,9.77,11.84,17.39,12.11s14.97-2.44,22.43-4.02c2.25-.48,4.64-.85,6.83-.15s4.11,2.79,3.86,5.08c-.52,4.66-7.99,4.79-10.24,8.91-2.02,3.69,1.44,8.21,5.34,9.78s8.35,1.59,12.06,3.57,6.16,7.45,3.09,10.33c-1.82,1.7-4.66,1.63-6.88,2.76-3.22,1.64-4.62,5.52-5.01,9.11s-.08,7.31-1.18,10.75c-2.46,7.69-11.04,11.57-18.97,13.1-7.93,1.53-16.43,1.76-23.31,5.99-5.53,3.4-9.5,9.42-9.98,15.89s2.71,13.21,8.27,16.56c4.32,2.6,9.55,3.09,14.59,3.33,8.19.39,16.41.29,24.59-.29,5.97-.42,13.81.11,15.39,5.88,1.15,4.23-2.43,8.5-6.54,10.02s-8.64,1.14-13.02,1.41c-14.47.88-28.23,9.53-35.29,22.19-1.39,2.49-2.56,5.2-2.71,8.05-.26,4.82,2.36,9.28,4.89,13.39,4.92,8.01,10.38,16.5,19.05,20.12,2.39,1,4.96,1.59,7.2,2.89,4.02,2.35,6.7,6.84,11.11,8.33,6.16,2.07,14.52-2.05,18.63,2.99,1.46,1.79,1.8,4.28,3.14,6.17,1.9,2.67,5.54,3.63,8.79,3.2s6.22-1.99,9.11-3.54c11.7,1.89,22.65,8.19,29.24,18.03,1.54,2.3,3.01,4.88,5.52,6.03,4.05,1.86,8.85-.8,13.21.1,5.19,1.08,8.35,6.84,13.51,8.06,3.13.74,6.62-.32,9.53,1.05,6.11,2.86,4.2,12.82,9.11,17.45,5.95,5.59,18.06.15,22.64,6.91.04-3.87-4.15-6.35-7.92-7.22s-8.02-1.14-10.75-3.89c-2.71-2.73-2.96-6.95-3.89-10.68-2.34-9.43-10.32-17.22-19.79-19.35-4.04-.91-8.39-.9-11.99-2.94-8.41-4.76-8.34-17.75-16.03-23.62-7.8-5.96-20.63-2.31-27.36-9.46-3.61-3.83-4.4-9.88-8.54-13.12-4.96-3.89-12.44-2.04-18.07-4.88-7.81-3.94-8.39-16.14-2.35-22.47s16.14-7.25,24.46-4.56c3.74,1.21,7.31,3.06,11.2,3.6,7.42,1.04,15.04-3.14,19.01-9.49s4.51-14.49,2.39-21.68c-1.35-4.57-3.69-9.53-1.65-13.83,2.38-5.04,9.14-5.89,13.52-9.34,6.85-5.38,6.31-16.77.6-23.35s-14.9-9.07-23.6-9.35-17.38,1.3-26.09,1.29c-4.6,0-10.12-1.13-11.72-5.44-1.36-3.65.99-7.7,3.99-10.18s6.69-4.07,9.49-6.76c6.78-6.5,5.89-19.17-1.74-24.65-5.33-3.83-13.99-5.96-13.89-12.52.09-5.78,7.66-9.03,8.43-14.76.74-5.54-5.12-9.57-10.38-11.47-5.8-2.09-11.96-3.39-17.3-6.48s-9.89-8.59-9.56-14.75c.29-5.46,4.18-9.93,7.28-14.43,7.52-10.92,11.14-24.47,10.07-37.69-.52-6.49-2.27-13.13-6.54-18.05-5.36-6.16-13.75-8.64-21.77-10.2C68.15.53,55.41-.41,42.74.16c-9.42.43-21.44,4.47-21.32,13.9.03,2.42.95,4.73,1.86,6.97,4.35,10.74,12.96,21.81,11.74,33.34Z"/>
      <path class="cls-2" d="m172.97,346.38c-8.78,1-12.58-11.06-19.64-14.16-4.94-2.17-9.39-1.98-13.52-6.06-3.21-3.18-5.98-6.46-9.72-9.07-3.54-2.46-7.54-4.13-11.04-6.62-3.88-2.76-7.84-5.38-11.84-7.96-7.22-4.67-13.33-12.06-10.96-21.18,1.88-7.23,8.17-10.43,14.71-12.63,2.76-.05,5.72-.66,8.2-1.03,3.88-.57,8.2-2.23,11.87-3.66,6.95-2.7,13.71-6.83,17.82-13.21,1.95-3.03,3.22-6.39,3.54-9.99.31-3.47-.6-7.25.18-10.63,1.19-5.17,9.85-5.41,13.5-8.71,4.92-4.45,4.84-11.05,1.76-16.52-3.43-6.09-9.43-8.81-16.21-9.3-4.78-.35-9.57.22-14.32.13-1.71-.8-3.68-.9-5.75-.53-1.08-.2-2.15-.46-3.22-.81-3.21-1.06-6.36-2.82-8.96-5.13-.71-1.3-1.47-2.58-2.14-3.9-2.31-4.56-.82-7.62,2.37-11.17,4.96-5.51,10.16-10.1,9.83-18.16-.29-7.24-3.43-12.66-9.3-16.71-7.72-5.34-.71-16.03-5.96-23.37-4.33-6.05-12.32-8.02-19.18-9.26-9.96-1.8-14.93-7.71-13.28-17.88.94-5.78,2.99-11.32,4.1-17.08,1.13-5.89,1.58-11.79,1.45-17.78-.23-10.82-2.06-22.66-9.94-30.72-6.59-6.74-19.24-11.28-27.38-4.45-.52.43-.98.9-1.4,1.39-.66.48-1.33,1.04-2,1.72-3.72,3.73-6.44,8.62-7.52,13.79-2.23,10.71,3.23,22.51,12.27,28.4,4.85,3.16,8.82,4.39,10.95,10.2,1.74,4.74,1.95,9.81,2.86,14.74.98,5.34,4.03,15.45,9.64,19.6,3.47,3.31,7.96,5.33,13.27,5.9,7.29.78,21-.34,21.94,9.62.73,7.69-2.95,14.92,5.99,19,8.29,3.78,10.12,12.9,4.24,19.85-4.52,5.35-11.17,9.9-11.98,17.42-.42,3.83,1.04,7.28,2.4,10.78,1.46,3.76,2.4,6.64-2.23,7.84-2.8.72-5.87.88-8.78,1.28-3.14.43-6.29.73-9.46.9-2.03.11-4.05.33-6.1.68-6.87,1.19-13.23,4.98-12.87,12.91.38,8.27,7.78,12.99,15.42,13.53,4.38.31,8.65-.84,13.01-.72.31,0,.62.03.92.05,8.15,2.27,17.54,1.46,23.68,8.33,6.6,7.39,2.4,14.95-5.26,18.89-7.68,3.96-16.61,5.23-23.49,10.75-6.26,5.02-9.82,12.88-9.69,20.89.16,9.85,6.29,17.5,14.22,22.7,8.8,5.77,19.14,5.89,28.11,11.27,4.69,2.82,7.5,7.27,11.79,10.46,3.72,2.77,8.11,2.96,12.42,4.2,3.6,1.03,6.56,2.79,8.38,6.18,1.1,2.05,1.66,3.38,3.5,4.91,2.72,2.27,5.63,3.28,9.12,2.77,1.49-.22,1.2-2.83-.32-2.65Z"/>
      <g>
        <path class="cls-1" d="m97.26,114.05c2.52.61,4.91.34,7.47.92.37.08.54-.43.18-.57-2.15-.84-3.87-2.22-5.94-3.14-1.99-.88-4.15-1.49-6.19-2.22-3.3-1.18-6.69-2.23-9.85-3.79-4.41-2.18-6.28-4.74-6.08-9.85.15-3.98.48-7.95.61-11.94.14-4.51.78-8.68,1.81-13.08,1.13-4.84.79-9.02-.08-13.88-.58-3.2-1.17-6.5-2.72-9.41-.78-1.46-1.89-2.76-3.08-3.89-.34-.32-1.9-1.62-2.93-2.33.47-9.25-16.77-12.05-17.26-.14-.21,5.1,1.94,9.3,6.02,12.35.91.68,2.71,1.26,3.35,2.15.74,1.02.68,3.53.89,4.81.43,2.6.85,5.04,1.8,7.51,1.3,3.4,3.54,6.2,4.76,9.66,1.74,4.91,1.66,10.21,1.46,15.36-.3,7.6,1.11,13.18,8.52,16.58,3.19,1.46,6.66,2.2,10.04,3.06,2.4.61,4.8,1.25,7.22,1.83Z"/>
        <path class="cls-1" d="m149.62,201.83c-5.13-.66-10.81.8-16.01.7-4.53-.08-7.85-1.53-11.01-3.73-5.3-6.45-13.11-15.58-7.71-24,4.2-6.56,10.49-10.26,10.6-18.86.05-3.6-1.01-7.22-3.01-10.22-1-1.5-2.23-2.81-3.66-3.91-2.7-2.07-4.9-2.97-5.39-6.84-.6-4.71,2.65-8.22.71-13.09-1.19-2.98-3.74-5-6.6-6.3-.08-.04-.13.09-.06.13,3.37,2.43,5.92,6.74,6.02,11,.07,2.86-1.11,5.46-1.52,8.23-.63,4.17,1.22,5.74,4.4,7.87,5.9,3.95,8.82,12.04,5.46,18.6-2.4,4.67-6.8,8.05-9.08,12.86-3.22,6.78-1.28,13.07,1.9,19.04.33,1.72.53,3.47.6,5.16.17,4.06-1.97,5.38-5.48,6.41-2.08.61-4.32.83-6.53,1.13-1.81-.05-3.63-.1-5.44-.17-12.2-.52-12.22,18.59,0,18.99,3.05.1,6.08.12,9.1.06,1.48.48,3.02.84,4.63,1.12,3.98.7,7.81.2,11.51,2.14,6.79,3.56,11.43,11.14,11.87,18.88-.19.63-.45,1.25-.78,1.85-1.39,2.51-3.61,4.31-5.8,6.06-5.09,4.06-10.52,6.1-16.49,8.67-8.01,3.45-16.86,8.13-20.32,16.73-3.07,7.62.62,18.75,6.83,23.91,4.89,4.06,11.52,5.75,17.12,8.55,6.23,3.11,12.33,6.84,18.02,10.84.2.14.47-.16.29-.34-6.92-6.78-14.48-11.64-23.3-15.66-4.65-2.12-9.39-4.17-12.83-8.11-3.72-4.26-4.17-9.15-3.62-14.57.48-4.8,1.81-9.65,5.61-12.92,3.38-2.9,8.34-4.67,12.51-5.97,6.73-2.11,14.96-3.16,20.87-7.17,7.22-4.89,9.8-13.33,12.75-20.95.33-.85.56-1.69.71-2.51,1.45-3.58,2.3-7.47,4.21-10.87,1.32-2.34,3.63-4.93,4.9-7.68,1.28-1.23,2.31-2.78,2.98-4.73,1.98-5.7-3.46-11.29-8.93-10.34Zm-29.86.27c0-.07,0-.14,0-.21.04.06.08.13.11.19-.04,0-.07.01-.11.02Z"/>
      </g>
    </g>
  </g>
</svg>