<?xml version="1.0" encoding="UTF-8"?>
<svg id="Layer_2" data-name="Layer 2" xmlns="http://www.w3.org/2000/svg" viewBox="0 0 166.02 312.61">
  <defs>
    <style>
      .cls-1, .cls-2 {
        fill: #c844c4;
      }

      .cls-3, .cls-4 {
        fill: #d75c71;
      }

      .cls-5 {
        fill: #d77285;
      }

      .cls-6, .cls-4, .cls-2 {
        opacity: .29;
      }
    </style>
  </defs>
  <g id="winding_paths" data-name="winding paths">
    <g>
      <path class="cls-2" d="m76.08,46.13c4.05,1.68,9.29,1.81,11.62,5.52.84,1.33,1.17,2.99,2.3,4.08,1.93,1.87,5.18,1.18,7.51-.17,3.45-1.99,6.52-5.22,11.44-2.71,3.77,1.93,6.07,5.96,5.92,10.2-.06,1.78.59,3.95-.06,5.84-.64,1.87-2.41,3.08-4.06,4.15-7.67,4.98-15.61,10.08-24.62,11.65-4.44.77-9.2.71-13.08,2.99-3.19,1.88-5.41,5.14-8.66,6.91-7.85,4.28-17.42-1.68-26.33-.89-5.84.52-11.29,4.21-13.94,9.44s-2.39,11.81.65,16.82c2.29,3.77,5.9,6.51,9.43,9.16,6.6,4.95,15.24,10.12,22.54,6.26,2.7-1.43,4.72-3.94,7.69-4.96,1.05-.36,2.18-.47,3.26-.22,3.06.71,3.29,3.43,4.34,5.59,2.35,4.85,8.38,6.37,12.74,9.54,6.72,4.88,9.3,14.71,5.85,22.26-3.98,8.7-13.77,12.75-21.79,17.96s-15.43,15.11-11.14,23.66c4.18,8.34,15.66,8.58,24.97,9.22,8.25.56,16.42,2.37,24.14,5.34,1.27.49,2.42,1.31,3.19,2.43,2.99,4.34-1.32,8.55-5.08,11.17-8.2,5.72-16.9,11.63-26.85,12.56-4.07.38-8.38-.06-12.08,1.68-3.18,1.49-5.45,4.4-8.36,6.37-3.42,2.33-7.6,3.3-11.1,5.52-3.86,2.44-6.64,6.22-9.33,9.91-4.52,6.19-9.14,12.61-10.86,20.08-.7,3.04-.9,6.2-1.96,9.14-1.69,4.66-5.61,8.45-10.32,9.98,9.75-2.13,18.35-8.99,22.6-18.01,2.3-4.87,3.76-10.76,8.45-13.4,2.37-1.33,5.2-1.58,7.65-2.75,6.02-2.89,9.84-11.23,16.46-10.34,1.51.2,3,.91,4.48.58,2.72-.61,3.48-4.04,5.12-6.3,3.14-4.32,9.58-4.16,14.78-2.98s10.93,2.88,15.62.34c2.54-1.38,4.33-3.81,6.66-5.52,8.76-6.46,21.81-1.1,31.68-5.69,1.56-.72,3.04-1.73,3.94-3.19,1.08-1.76,1.17-3.95,1.01-6-1.07-14.23-13.65-26.69-27.89-27.63-2.77-.18-5.64,0-8.23-.99-.03-.01-.05-.02-.08-.03-3.07-1.23-1.71-5.9,1.56-5.39,7.35,1.16,14.86,1.62,21.63-1.2,4.27-1.77,7.92-4.74,11.5-7.66,6.52-5.32,13.5-11.39,14.8-19.71,1.21-7.71-3.53-15.94-10.81-18.76-8.46-3.28-19.34.05-26.12-5.98-1.44-2.84,1.33-5.85,2.99-8.57,2.55-4.17,2.49-9.79-.14-13.91s-7.7-6.54-12.56-5.99c-6.52.74-11.8,6.22-18.94,5.1-2.73-.43-5.07-2.41-5.6-5.12-.86-4.45,3.57-7.48,7.57-9.01,3.75-1.44,8.11-2.83,9.71-6.51,1.57-3.63-.3-8.05,1.21-11.71,2.14-5.2,9.12-5.64,14.34-7.7,9.96-3.94,14.8-17.34,9.65-26.73-2.47-4.5-6.69-7.86-9.14-12.38-.93-1.71-1.62-3.61-3-5-2.69-2.7-7.02-2.59-10.82-2.3-6.24.48-12.48.96-18.72,1.43-2.13.16-4.36.31-6.33-.51-2.88-1.2-4.54-4.14-6.69-6.4-2.5-2.63-5.8-4.43-8.14-7.2-6.67-7.91-3.21-19.84.57-29.48-6.89,11.43-16.88,38.66,1.21,46.13Z"/>
      <path class="cls-4" d="m139.6,174.37c-2.5-4.52-6.42-5.97-10.62-7.26-1.27-.71-2.56-1.44-3.45-2.51-2.06-2.46-2.4-6.48-2.55-9.55-.07-1.33-.03-3.53-.18-5.89-.11-1.71-.04-3.42.09-5.14.53-7.4-10.01-10.85-16.3-8.58-2.31.83-5.55,3.64-8.06,2.13-1.49-.9-2.47-3.72-3.42-5.14-1.37-2.05-2.97-3.53-4.73-4.87-4.33-3.29-6.57-8.74-5.55-14.08.71-3.7,2.59-7.06,5.52-9.37,2.03-1.15,4.24-2.02,6.45-2.71.8-.09,1.59-.2,2.38-.4,5.98-1.48,7.48-6.9,11.86-10.63,5.26-4.47,12.59-7.11,16.53-13.08,6.47-9.81-1.02-24-10.04-29.45-4.98-3.01-11.66-3.94-16.93-1.09-2.72,1.47-3.25,2.44-6.7,1.75-2.67-.54-5.22-1.28-7.79-2.2-4.14-1.48-7.98-3.43-11.37-6.25-.05-.04-.12.02-.07.07,4.18,4.26,9.3,6.91,14.73,9.24,2.48,1.06,5.33,2.56,8.13,2.52,3.69-.06,6.47-2.92,10.36-2.67,8.33.53,14.16,10.06,12.93,17.94-.68,4.38-3.96,6.28-7.5,8.23-3.65,2.01-6.09,4.09-8.36,7.62-1.9,2.94-2.47,7.12-4.44,9.83-2.51,3.46-8.14,1.5-11.69,1.79-3.56.29-6.33,1.61-8.99,3.93-1.12.98-2.06,2.25-3.25,3.14-2.58,1.91-5.71,1.21-8.82.92-7.91-.74-16.41-3.48-24.09-.12-7.27,3.18-8.94,11.56-2.76,16.83,8.14,6.95,17.08,1.16,26.1,1.27.75,0,1.48.07,2.19.14.21.1.42.2.64.29l.12.05c3.22,1.39,6.13,3.43,8.45,6.06,1.02,1.16,2.23,2.22,3.62,3.13,3.86,2.55,5.81,4.89,8.45,8.62,1.58,2.24,3.57,4.25,6.04,5.42,1.01.48,1.94,1.09,2.84,1.75.42.31.83.63,1.24.97.94,1.11,1.82,2.33,2.93,3.18.09.07.19.13.29.2,1.61,2.35,2.1,5.08-.03,8.08-2.68,3.77-5.23,5.97-6.64,10.59-1.43,4.66-2.28,9.07-5.52,12.91-3.48,4.11-7.75,6.06-12.66,7.99-3.74,1.47-8.08,3.11-9.71,7.11-1.68,4.12-.49,8.44,2.37,11.71,4.78,5.46,14.52,9.66,22.45,8.44,3.93.3,7.89.39,11.82.69,4.91.37,10.5.79,14.5,3.99,3.58,2.85,3.47,6.43,4.59,10.24-.34,1.56-1.06,3.01-2.26,4.12-2.47,2.28-6.38,2.48-9.36,3.69-1.25.5-2.4,1.11-3.5,1.89-1.97,1.4-2.87,3.65-4.71,5.09-2.68,2.09-7.76,1.52-11.02,1.56s-5.85.21-8.76,1.79c-3.59,1.96-6.59,4.4-10.6,5.55-3.24.92-6.58,1.51-9.72,2.76-2.49.99-4.38,2.26-6.03,4.34-1.83,2.31-2.99,4.08-5.84,5.38-1.39.64-2.88,1.04-4.27,1.67-2.79,1.29-5.35,3.07-7.36,5.3-1.89,1.67-3.44,3.67-4.42,6.16-1.91,4.82-1.99,9.82-5.47,14.02-.04.05.06.12.11.08,3.15-3.11,3.95-6.8,5.93-10.59,2.34-4.47,5.39-8.68,9.58-11.57.21-.15.27-.33.23-.51,2.77-1.39,5.88-1.81,8.65-3.22,3.12-1.59,4.58-4.58,7.36-6.62,3.03-2.23,6.51-3.05,10.08-3.96,3.41-.87,6.68-1.91,9.93-3.26,2.33-.97,4.59-1.93,7.16-2.17,3.1-.28,5.37.76,8.27,1.36,2.92.6,6.2.53,9.05-.36,3.4-1.06,4.71-3.54,7.43-5.56,5.08-3.78,12.21-2.75,15.78-8.96,3.07-5.34,1.9-12.29-1.72-17.03-3.88-5.08-9.14-8.43-14.94-10.91-3.92-1.68-8.46-3.29-12.07-5.62-.03-.02-.06-.04-.08-.06-3.16-2.09-2.71-6.86.69-8.53,3.68-1.8,7.71-3.1,8.96-3.41,7.03-1.73,14.53-2.38,21.17-5.46,5.72-2.65,9.8-8.57,6.39-14.73Z"/>
      <path class="cls-5" d="m129.05,230.52c-.93-6.34-6.59-11.54-11.79-14.7-3.63-2.21-7.51-3.34-11.6-4.36-4.59-1.15-11.01-1.66-14.43-5.29-8.46-9,15.27-14.69,20.74-15.6,6.41-1.07,17.27-1.41,16.86-10.62-.16-3.56-2.27-5.67-5.25-7.23-1.64-.86-3.44-1.25-4.68-2.77-2.09-2.56-1.08-4.51-.31-7.27,1.7-6.08-1.08-12.83-5.28-17.26-2.99-3.15-5.6-3.97-9.73-4.62-6.55-1.03-9.77-4.95-13.49-10.07-3.58-4.93-9.36-10.44-8.23-17,.66-3.84,2.63-7.34,5.29-10.17.04-.04.07-.07.11-.11.02-.02.02-.04.04-.05.42-.44.86-.86,1.31-1.26,1.82-.83,3.72-1.48,5.72-2.05,4.67-1.34,8.74-2.7,11.8-6.69,3.26-4.25,5.64-8.2,9.9-11.62,7.24-5.81,12.42-12.06,7.84-21.48-.02-.05-.11-.02-.09.03,3.18,9.48-2.85,14.55-9.44,19.78-2.11,1.68-4.2,3.39-5.9,5.5-1.97,2.45-3.22,5.5-5.47,7.71-4.96,4.88-12.52,4.08-18.46,6.97-2.94,1.43-5.32,3.8-8.28,5.16-3.03,1.4-5.99,1.01-9.19.5-5.07-.81-12.74-2.77-16.62,2-2.74,3.37-1.06,8.05,3.2,8.89,1.77.35,3.76.3,5.74.17,2.1.5,4.3.69,5.5.88,6.41,1.01,12.36,3.01,17.04,7.38,2.18,3.04,4.89,5.86,6.94,8.51,2.04,2.64,3.95,5.37,6.9,7.07,3.43,1.97,6.96,2.6,10.08,5.21,3.08,2.58,5.02,5.85,4.52,9.98-.49,4.06-2.42,7.41-1.72,11.65.21,1.29.57,2.53,1.07,3.71.27,3.85,1.64,8.52-1.34,10.71-1.44.41-2.87.87-4.28,1.43-4.3,1.71-7.65,5.15-11.4,7.79-5.05,3.54-9.93,7.43-7.26,14.23,2.64,6.71,10.42,8.21,16.66,9.57,9.32,2.04,26.29,5.23,25.22,18.27-.55,6.76-8.29,6.27-12.68,9.4-3.55,2.53-5.73,6.18-10.06,7.6-.98.32-.55,1.9.4,1.54,2.55-.95,3.84-2.6,5.71-4.55,1.73-1.8,3.24-3.27,5.82-3.89,1.78-.43,3.65-.22,5.43-.68,5.54-1.41,7.92-6.84,7.12-12.29Z"/>
    </g>
    <g>
      <g class="cls-6">
        <path class="cls-1" d="m84.58,225.18c-4.55-.76-9.02-.27-13.58-.8-3.36-.39-6.08-2.27-9.33-3.09-2.83-.71-5.71-.96-7.99-3.09-1.57-1.46-1.42-2.57-2.28-4.32-1.79-3.66-6.13-5.51-6.83-9.86-.12-.76-.08-1.44.07-2.09.03-.05.05-.09.08-.14,1.23-1.9,3.06-3.37,4.72-4.89,2.36-2.16,4.78-4.26,6.75-6.79,2.14-2.75,3.64-5.92,5.67-8.74,2.34-3.26,4.89-4.54,8.57-5.8,4.97-1.71,11.83-3.82,12.85-9.87.44-2.61-.42-5.19-2.18-7.12-1.05-1.15-2.22-1.87-3.67-2.41-1.01-.38-2.9-.27-3.67-.82-1.7-1.2-1.02-5.49-1.47-7.47-.66-2.87-2.12-5.35-4.53-7.07-4.38-3.13-11.59-3.75-16.5-1.53-2.47,1.12-4.33,3.12-6.46,4.72-2.61,1.96-4.79,1.6-7.91.46-1.93-.7-4.11-2.18-5.69-3.46-2.79-2.26-4.19-5.98-6.42-8.73-.77-3.05-4.15-5.81-7.28-6.58-3.83-.94-10.15,1.7-10.11-4.48.02-3.88,3.44-6.92,6.04-9.27,5.25-4.75,6.2-11.42,9.55-17.37,1.9-3.38,4.15-6,7.73-7.58,4.07-1.8,8.8-.25,13.14-.29,7-.05,11.23-3.1,13.12-9.89.81-2.91,1.1-6.6,3.4-8.87,2.51-2.48,6.91-2.12,9.94-3.86,4.61-2.65,9.86-10.01,9.48-15.49-.43-6.14-7.75-7.9-10.36-12.73-.02-.04-.11-.04-.08.01,2.6,5.97,10.1,8.83,5.39,16.19-2.49,3.88-5.18,7.9-9.99,8.85-3.09.61-6.35.52-9.22,1.98-6.14,3.12-4.71,10.69-8.04,15.67-5.29,7.93-16.33,1.79-23.92,2.91-6.05.9-10.62,6.81-12.33,12.28-1,3.2-.06,6.18-.63,9.22-.62,3.33-4.83,5.74-6.87,8.29-3.51,4.38-5.08,10.59-2.24,15.77,1.32,2.41,3.71,4.21,6.28,5.09.87.3,1.73.45,2.6.53,1.28.67,2.49,1.42,3.6,2.33,2.76,2.54,4.79,5.89,7.85,8.19.32.46.63.91.96,1.37,2.94,4.05,5,7.79,6.96,12.37,2.41,5.6,7.77,9.89,14.08,7.18,4.47-1.92,7.43-7.9,12.92-5.62,1.45.6,4.37,2.34,5.2,3.75,3.27,5.6-.78,4.01-3.1,4.82-2.83.98-4,2.97-4.45,5.85-.36,2.32.14,4.28-1.15,6.41-.85,1.4-2.32,2.38-3.54,3.42-2.3,1.95-4.24,3.65-5.42,6.5-1.39,3.33-4.4,5.99-5.27,9.47-.84,3.35,0,6.79,1.73,9.7,1.6,2.71,4.24,4.48,5.61,7.18,1.28,2.53,1.92,4.33,4.63,5.85,3.17,1.78,6.88,2.3,10.37,3.1,3.78.87,6.75,2.78,10.7,3.01,4.33.25,8.74.34,13.03-.29,1.47-.22.6-1.92-.45-2.1Z"/>
      </g>
      <g class="cls-6">
        <path class="cls-3" d="m62.87,63.26c-2.59-.5-4.73-.09-6.89,1.51-3.79,2.81-3.71,6.75-4.65,10.96-2.75,12.38-19.24,5.37-27.74,9.11-2.83,1.24-5.38,3.01-7,5.68-2.81,4.64-1.37,10.28-4.04,14.88-3.8,6.57-13.8,11.84-9.7,20.92,1.32,2.93,3.81,4.18,6.8,4.91,6.73,1.63,9.83,7.01,14.01,12.17,3.26,4.02,6.32,8.11,9.31,12.34,2.22,3.14,4.94,5.86,9.01,6.09,3.4.19,7.05-1.34,9.28-3.9,1.38-1.58,1.82-4.24,3.82-4.98,2.67-.98,4.17,2.54,5.78,4.45,1.07,1.27,6.04,5.18,6.09,6.55.1,2.82-3.93,5.15-5.78,6.62-3.79,2.99-4.91,6.1-6.64,10.47-1.96,4.94-7.02,7.07-9.16,11.96-1.45,3.32-4.91,6.8-5.09,10.58-.2,3.97,3.37,6.36,5.44,9.25,1.96,2.74,2.94,6.34,6.53,7.26.61.16.81-.67.27-.91-2.56-1.14-3.49-6.88-5.44-9.18-1.83-2.15-5.54-4.72-3.73-8.26.86-1.69,3.01-2.86,4.09-4.53s1.61-3.62,2.91-5.09,3.12-2.41,4.56-3.66c3.5-3.06,3.58-6.82,5.6-10.68,3.2-6.11,14.89-8.54,12.58-17.45-.91-3.49-3.97-6.52-6.06-9.37s-4.6-5.4-8.11-6.46c-2.91-.88-6.14-.48-8.57,1.39-3.26,2.51-3.58,7.91-8.11,8.5-5.28.69-9.9-6.96-12.6-10.43-3.01-3.87-5.83-7.97-9.12-11.61-2.22-2.46-4.63-4.32-7.88-5.12-2.51-.62-5.24-.48-6.39-3.37-1.5-3.77,1.45-7.47,3.75-10.12,2.48-2.85,5.42-5.39,7.3-8.7s2.01-7.38,3.48-10.98c5.08-12.38,17.48-5.44,26.94-9.54,3.3-1.43,5.58-3.76,6.37-7.32.58-2.64.24-5.48,1.43-7.98,1.38-2.9,4.41-4.59,7.34-5.53.18-.06.25-.37.02-.41h0Z"/>
      </g>
      <g>
        <path class="cls-5" d="m69.93,160.01c-1.05-2.43-3.28-4.35-5.02-6.28-2.34-2.58-4.46-5.91-8.57-6-2.28-.05-4.44,1.01-5.91,2.76-1.55,1.83-2.85,4.03-5.03,5.17-7.53,3.93-12.28-5.26-15.59-9.67-3.43-4.56-7.52-8.39-10.98-12.92-2.75-3.59-6.36-4.41-10.66-4.89-.03,0-.04.05,0,.05,3.84.91,7.35,2.02,9.84,5.37,1.11,1.5,1.83,3.25,2.99,4.73,2,2.56,4.46,4.54,6.37,7.21,1.61,2.25,2.99,4.65,4.68,6.84,5.02,6.53,11.62,9.15,17.88,2.72.84-.86,1.59-2.18,2.5-2.92.24-.29.48-.58.72-.88.05.01.11.02.16.04.2-.21.41-.4.66-.56,1.62-1.05,3.73-.94,5.26.2.6.45,1.07,1.01,1.47,1.63s.83,1.2,1.31,1.74c1.34,1.49,2.87,3.61,3.66,4.79,1.12,1.09,1.59,2.46,1.4,4.1,1.07,1.75.84,3.09-.69,4-.89,1.21-2.25,1.81-3.37,2.73-1.19.98-2.2,2.05-3.08,3.3-2.82,4.02-3.47,9.09-6.8,12.82-2.15,2.4-5.72,3.6-5.82,7.18,0,.16.21.19.27.05,1.35-3.46,4.3-4.58,6.59-7.08,1.39-1.52,2.27-3.37,3.29-5.14,1.37-2.38,2.73-5.09,4.59-7.12,1.68-1.84,3.92-2.96,5.73-4.65,2.72-2.54,3.69-5.82,2.17-9.34Z"/>
        <path class="cls-5" d="m11.93,109.16c3.99-3.25,6.04-8.49,7.05-13.4.34-1.69.38-3.81,1.14-5.34.97-1.95,4.3-3.33,6.16-3.99,3.5-1.24,7.21-1.41,10.89-1.52.09,0,.12-.14.03-.16-5.26-1.3-12.27-.45-16.62,3.06-2.73,2.2-2.55,5.16-3.1,8.39-.85,4.92-3.2,8.67-5.58,12.93-.02.03.02.06.04.04Z"/>
      </g>
    </g>
  </g>
</svg>