<?xml version="1.0" encoding="UTF-8"?>
<svg id="Layer_2" data-name="Layer 2" xmlns="http://www.w3.org/2000/svg" viewBox="0 0 341.21 331.68">
  <defs>
    <style>
      .cls-1 {
        fill: #fff966;
      }

      .cls-2 {
        fill: #73860f;
      }

      .cls-3 {
        fill: #69ffcf;
      }

      .cls-4 {
        fill: #938758;
      }

      .cls-5 {
        fill: #875e30;
      }

      .cls-6 {
        fill: #866739;
      }

      .cls-7 {
        fill: #332806;
      }

      .cls-8 {
        fill: #c58030;
      }

      .cls-9 {
        fill: #afbc39;
      }

      .cls-10 {
        fill: #ac8045;
      }

      .cls-11 {
        fill: #23a4c2;
      }

      .cls-12 {
        fill: #23c2c2;
      }

      .cls-13 {
        fill: #23809c;
      }

      .cls-14 {
        fill: #5a87d0;
      }

      .cls-15 {
        fill: #3c5903;
      }

      .cls-16 {
        fill: #37e0dc;
      }

      .cls-17 {
        fill: #5e3b1b;
      }

      .cls-18 {
        fill: #545e42;
      }

      .cls-19 {
        fill: #774f1f;
      }

      .cls-20 {
        fill: #5b5230;
      }

      .cls-20, .cls-21, .cls-22 {
        opacity: .22;
      }

      .cls-21 {
        fill: #231e21;
      }

      .cls-22 {
        fill: #202916;
      }

      .cls-23 {
        fill: #fcc35e;
        opacity: .5;
      }

      .cls-24 {
        fill: #27330a;
        opacity: .47;
      }
    </style>
  </defs>
  <g id="planet_1" data-name="planet 1">
    <g>
      <g>
        <g>
          <path class="cls-7" d="m92.26,30.58c-3.42.98-6.84,1.95-10.25,2.93-2.8,1.95-5.78,3.65-8.89,5.06,1.98-.15,3.96-.26,5.94-.32.17,1.13-.66,2.22-1.68,2.73-1.02.51-2.21.56-3.35.6-2.52.09-5.03.19-7.55.28-.45.02-.97.07-1.23.43-.69.95,1.18,1.82,1.37,2.98.16.97-.97,1.69-1.95,1.72-.98.03-1.96-.34-2.93-.2-1.77.25-2.88,2-3.56,3.65-.68,1.65-1.26,3.49-2.74,4.49-.4.27-.92.44-1.36.3-.86,2.37-1.72,4.74-2.58,7.11-1.77,4.89-4.92,10.69-5.56,15.79,2.7.17,7.89-8.46,9.78-10.56,12.63-14.02,27.9-25.66,44.79-34.06,3.5-1.74,7.31-3.56,9.17-7-5.92.79-11.68,2.44-17.42,4.08Z"/>
          <path class="cls-18" d="m55.43,54.93c1.48-1,2.06-2.85,2.74-4.49.68-1.65,1.8-3.4,3.56-3.65.97-.14,1.95.23,2.93.2.98-.03,2.11-.75,1.95-1.72-.19-1.15-2.05-2.03-1.37-2.98.26-.37.78-.41,1.23-.43,2.52-.09,5.03-.19,7.55-.28,1.14-.04,2.32-.09,3.35-.6,1.02-.51,1.85-1.6,1.68-2.73-1.98.06-3.96.17-5.94.32,3.11-1.41,6.09-3.11,8.89-5.06-3.19.91-6.37,1.82-9.56,2.73-2.64.75-5.28,1.51-7.85,2.46-1.88.69-3.8,1.54-5.09,3.07-.97,1.16-1.51,2.62-2.02,4.04-1.14,3.14-2.27,6.27-3.41,9.41.44.14.96-.03,1.36-.3Z"/>
        </g>
        <g>
          <path class="cls-7" d="m5.63,194.07c1.05.32,2.03-.55,2.95-1.14.93-.58,2.53-.64,2.75.43.16.77-.62,1.43-1.38,1.64-.76.21-1.6.2-2.27.61-1.27.78-1.27,2.76-.41,3.97.87,1.22,2.3,1.87,3.65,2.5,1.35.63,2.77,1.38,3.5,2.68.35.63.43,1.58-.2,1.92-.69.37-1.43-.31-2.02-.83s-1.75-.74-1.95,0c2.38,3.24,5.12,6.23,8.14,8.88,1.34,1.17,2.88,2.71,2.42,4.43-.3,1.16-1.42,2.52-.52,3.3.7.61,2.1.09,2.53.91.22.41.02.92.06,1.38.14,1.63,2.64,1.64,3.74,2.84,1.59,1.75-.53,4.85.74,6.85.49.78,1.45,1.27,1.66,2.17.17.73-.23,1.48-.13,2.22.27,2.14,3.89,2.2,4.56,4.23,2.49,1.15,5.04,2.16,7.65,2.99-2.05-4.73-3.85-9.56-5.38-14.48-1.32-4.25-2.45-8.56-3.57-12.87-3.63-13.89-7.26-27.85-8.99-42.13-.43-3.57-.75-7.16-.91-10.76-.08-1.9,1.03-8.17-1.77-7.8-2.12.28-3.74,5.28-4.61,6.9-1.7,3.17-3.36,6.36-4.99,9.56-.16.3-.31.61-.46.92-1.07,4.94-3.49,9.75-5.46,14.48-.61,1.48-.86,3.71.67,4.17Z"/>
          <path class="cls-18" d="m0,198.18c.06,1.67,1.47,2.94,2.77,4,4.22,3.44,8.45,6.89,12.67,10.33,1.33,1.08,2.69,2.2,3.53,3.69.85,1.49,1.08,3.45.13,4.88-.47.7-1.19,1.23-1.48,2.02-.67,1.76,1.12,3.47,2.82,4.27s3.76,1.54,4.34,3.33c.61,1.88-.81,3.92-.4,5.86.35,1.66,1.91,2.74,3.38,3.6,1.84,1.07,3.75,2.04,5.68,2.93-.66-2.03-4.29-2.09-4.56-4.23-.09-.74.3-1.5.13-2.22-.21-.9-1.17-1.39-1.66-2.17-1.27-2,.86-5.1-.74-6.85-1.1-1.21-3.6-1.22-3.74-2.84-.04-.46.16-.97-.06-1.38-.43-.82-1.83-.3-2.53-.91-.9-.78.21-2.14.52-3.3.45-1.72-1.09-3.25-2.42-4.43-3.02-2.66-5.76-5.64-8.14-8.88.2-.75,1.36-.52,1.95,0s1.33,1.2,2.02.83c.63-.34.55-1.3.2-1.92-.74-1.3-2.15-2.04-3.5-2.68-1.35-.63-2.79-1.29-3.65-2.5-.87-1.22-.87-3.19.41-3.97.67-.41,1.51-.4,2.27-.61.76-.21,1.54-.87,1.38-1.64-.22-1.07-1.82-1.01-2.75-.43-.93.58-1.91,1.46-2.95,1.14-1.53-.47-1.28-2.7-.67-4.17,1.96-4.74,4.39-9.55,5.46-14.48-3.37,6.66-6.61,13.39-9.69,20.18-.37.82-.75,1.68-.72,2.59Z"/>
        </g>
        <path class="cls-20" d="m302.91,88.41c.64,3.74,1.95,7.36,3.86,10.64.18.3.36.62.54.94,1,1.82.29,4.07-1.52,5.08-1.03.57-2.17,1.5-3.3,1.51-1.18.01-2.11-1.02-2.69-2.05-.72-1.27-1.26-2.76-2.79-3.27-.75-.25-1.64.01-2.01.71-.47.88.12,1.71.53,2.5,1.04,1.99.66,5.12-2,5.33-.98.08-1.96-.3-2.71-.93-2.66-2.25-4.88-5-6.53-8.07-1.61.56-1.99,2.8-1.3,4.36.69,1.56,2.08,2.68,3.2,3.96,1.12,1.29,2.03,3.04,1.47,4.65-.55,1.6-2.3,2.42-3.32,3.77-2.25,3-.39,7.7-3.08,10.61-.8.87-2.01,1.35-3.15,1.04-2.76-.74-2.14-4.9-4.84-5.59-1.38-.36-2.8.5-3.33,1.82-1.07,2.66.35,5.07,1.34,7.45.91,2.21,1.41,4.99-.61,6.68-1.31,1.08-3.16,1.14-4.69.41-2.68-1.3-3.8-4.2-4.26-6.99-.39-2.38-.41-4.83-1.06-7.15-1.22-4.33-4.78-7.93-9.1-9.19-1.78-.52-3.79-.64-5.4.28-2.31,1.32-3.03,4.25-4.57,6.43-2.13,3.02-6.16,4.57-9.76,3.75-3.25-.73-5.84-3.1-8.6-4.98-3.18-2.17-6.79-3.8-9.43-6.61s-4.01-7.36-1.78-10.5c.83-1.18,2.23-2.06,3.66-1.88,2.29.28,3.81,3.03,6.11,2.98,2.87-.06,3.94-4.21,3.94-6.64,0-1.42.45-2.83,1.45-3.83,2.98-2.98,5.97.42,9.17.73,3.02.3,5.56-2.16,7.42-4.57,1.85-2.41,3.78-5.15,6.74-5.84,4.98-1.16,10.79,4.03,14.79.59,1.61-1.39,1.98-3.65.96-5.51-1.02-1.85-2.71-2.1-4.81-1.82-2.94.4-3.17,5.8-7.84,3.86-1.54-.64-2.79-1.82-3.65-3.25l-4.7-7.84c-.69-1.15-1.2-2.4-1.46-3.71-.95-4.96,3.05-3.34,4.16-5.23.61-1.03-.11-2.3-.3-3.48-.32-1.95.91-3.88,2.54-4.99,1.63-1.1,3.61-1.54,5.54-1.96-1.51-4.8-7.31-6.59-12.31-7.16-5-.57-10.67-.96-13.88-4.83-1.07-1.29-2.58-3.1-3.98-2.19,1.36,1.91.45,5.08-1.96,5.69-.75.19-1.45.61-1.81,1.3-.99,1.9,1.47,2.81,2.53,4.24,1.08,1.47.55,3.67-.73,4.98s-3.1,1.9-4.86,2.37c-5.98,1.59-12.21,2.18-18.38,1.74-1.19-.08-2.06-1.2-1.85-2.38.32-1.86,1.64-3.64,3.02-5.03,1.94-1.95,4.25-3.86,4.74-6.57-12.58-1.25-25.15,3-37.77,2.39-.61-.03-1.29-.1-1.7-.56-.51-.57-.36-1.44-.19-2.19.94-3.98,2.23-8.45,6.61-9.65,1.3-.36,2.25-1.6,2.05-2.94-.35-2.35-3.49-1.69-5.61-1.12-3.84,1.02-7.88-.03-11.83-.39-3.96-.36-8.53.29-10.78,3.56-1.87,2.72-1.62,6.59-3.82,9.05-2.18,2.45-6.35,2.99-7.54,6.04-1.62,4.14,3.79,9.1,1.33,12.8-.55.83-1.44,1.38-2.4,1.65-4.68,1.28-8.4-3.55-12.96-3.34-5.09.23-7.95,6.37-12.83,7.84-5.2,1.56-11.52-2.5-15.92.68-1.32.95-2.17,2.41-3.38,3.51-2.94,2.69-7.33,2.77-11.31,3.04-3.98.27-9.18,1.39-11.07,4.89-2.91,1.43-5.86,2.9-8.2,5.14-2.34,2.24-4.02,5.41-3.69,8.63.38,3.65,3.21,6.71,2.93,10.56-.05.71-.24,1.43-.59,2.05-1.78,3.16-5.76,2.61-9.04,2.21-2.97-.36-6.79.13-7.66,2.99-.36,1.19-.09,2.57-.76,3.62-1.63,2.57-6.51.28-7.94,3.79-.5,1.23-.23,2.64.52,3.74,2.25,3.27,6.69,3.48,9.21,6.22,3.46,3.76,1.54,9.92,3.4,14.67,1.39,3.54,4.78,6.03,6.07,9.61,2.06,5.72-2.17,12.1-7.57,14.89-3.05,1.57-6.5,2.39-8.89,5.12-.82.94-1.41,2.11-1.53,3.35-.39,3.99,3.38,6.1,6.7,7.47,5.66,2.33,11.45,4.33,17.35,5.98,3.88,1.08,7.93,2.07,11.13,4.53,2.9,2.23,4.83,5.46,6.69,8.61,2.08,3.52,4.16,7.05,6.23,10.57,2.86,4.84,5.76,9.83,6.68,15.37.92,5.54-.57,11.86-5.11,15.17-3.33,2.44-8.49,3.81-8.88,7.91-.28,2.86,2.2,5.63-.74,8.56-1.24,1.24-2.96,1.91-4.71,1.9-3.27-.03-6.12-1.89-8.8-3.7l-9.03-6.08c-.27-.18-.58.15-.39.4,3.35,4.52,5.43,9.95,6.05,15.54,28.19,31.22,68.99,50.85,114.37,50.85,2.87,0,5.73-.09,8.56-.24,1.96-1.31,4.16-2.35,5.48-4.27,1.51-2.2,1.53-5.08,2.51-7.57,1.37-3.49,4.74-6.15,8.53-6.45,1.27-.1,2.53-.3,3.69-.82,7.26-3.24,2.42-8.58,3.55-13.11,1.64-6.62,13.42-5.75,15.34-12.3,1.41-4.81-3.95-9.62-2.75-14.48.59-2.41,2.69-4.21,3.36-6.59,1.09-3.93-2.24-7.97-6.13-9.19s-8.08-.41-12.09.36c-4,.76-8.26,1.44-12.06-.02-3.09-1.18-5.53-3.66-8.56-4.98-7.05-3.07-15.73.66-22.71-2.58-4.34-2.02-7.13-6.41-8.66-10.95-.99-2.95-1.56-6.07-1.33-9.17.54-7.24,5.32-14,4.27-21.18-.69-4.73-3.85-8.82-4.54-13.55-.58-4,.76-8.24,3.55-11.16,3.39-3.56,4.01-8.85,6.44-13.12,1.05-1.84,2.38-3.51,3.71-5.16,1.4-1.75,2.86-3.55,4.84-4.59,1.05-.56,2.21-.88,3.38-1.12,1.33-.27,2.68-.45,4.04-.43,1.23.02,2.46.21,3.69.1,1.3-.11,2.96-1.17,3.7-2.25,2.87-4.12,5.21-9.03,9.21-11.99,7.14-5.29,17.22-4.65,25.49-1.38,3.63,1.43,7.18,3.34,11.08,3.61,6.1.42,12.05-3.27,18.09-2.31,6.3,1,10.7,6.67,13.92,12.18s6.27,11.61,11.85,14.71c1.01.56,2.16,1.03,3.39.19,1.04-.71,1.56-1.98,1.52-3.25-.09-3.11-2.68-5.47-2.62-8.68.02-1.31.67-2.59,1.86-3.15,2.51-1.18,4.91,1.69,6.21,4.12,2.96,5.5,6.66,11.42,12.69,13.05,1.49.4,3.23.45,4.39-.57,1.11-.98,1.32-2.64,1.19-4.12-.32-3.52-2.21-6.87-5.06-8.97-3.28-2.41-7.87-3.38-9.85-6.93-2.38-4.29.85-9.95,5.34-11.91,1.12-.49,2.35-.84,3.26-1.66.91-.82,1.37-2.33.59-3.27-.74-.9-2.32-1.01-2.68-2.12-.43-1.33,1.37-2.25,2.77-2.33s3.2-.21,3.6-1.55c.25-.84-.23-1.83,1-2.47.76-.39,1.66-.41,2.48-.16,6.01,1.81,12.03,3.63,18.04,5.44-3.42-11.41-8.12-22.27-13.94-32.39-.51-.3-1.05-.52-1.65-.6Z"/>
        <g>
          <path class="cls-13" d="m304.57,89.01c-.51-.3-1.05-.52-1.65-.6.64,3.74,1.95,7.36,3.86,10.64.18.3.36.62.54.94,1,1.82.29,4.07-1.52,5.08-1.03.57-2.17,1.5-3.3,1.51-1.18.01-2.11-1.02-2.69-2.05-.72-1.27-1.26-2.76-2.79-3.27-.75-.25-1.64.01-2.01.71-.47.88.12,1.71.53,2.5,1.04,1.99.66,5.12-2,5.33-.98.08-1.96-.3-2.71-.93-2.66-2.25-4.88-5-6.53-8.07-1.61.56-1.99,2.8-1.3,4.36.69,1.56,2.08,2.68,3.2,3.96,1.12,1.29,2.03,3.04,1.47,4.65-.55,1.6-2.3,2.42-3.32,3.77-2.25,3-.39,7.7-3.08,10.61-.8.87-2.01,1.35-3.15,1.04-2.76-.74-2.14-4.9-4.84-5.59-1.38-.36-2.8.5-3.33,1.82-1.07,2.66.35,5.07,1.34,7.45.91,2.21,1.41,4.99-.61,6.68-1.31,1.08-3.16,1.14-4.69.41-2.68-1.3-3.8-4.2-4.26-6.99-.39-2.38-.41-4.83-1.06-7.15-1.22-4.33-4.78-7.93-9.1-9.19-1.78-.52-3.79-.64-5.4.28-2.31,1.32-3.03,4.25-4.57,6.43-2.13,3.02-6.16,4.57-9.76,3.75-3.25-.73-5.84-3.1-8.6-4.98-3.18-2.17-6.79-3.8-9.43-6.61s-4.01-7.36-1.78-10.5c.83-1.18,2.23-2.06,3.66-1.88,2.29.28,3.81,3.03,6.11,2.98,2.87-.06,3.94-4.21,3.94-6.64,0-1.42.45-2.83,1.45-3.83,2.98-2.98,5.97.42,9.17.73,3.02.3,5.56-2.16,7.42-4.57,1.85-2.41,3.78-5.15,6.74-5.84,4.98-1.16,10.79,4.03,14.79.59,1.61-1.39,1.98-3.65.96-5.51-1.02-1.85-2.71-2.1-4.81-1.82-2.94.4-3.17,5.8-7.84,3.86-1.54-.64-2.79-1.82-3.65-3.25l-4.7-7.84c-.69-1.15-1.2-2.4-1.46-3.71-.95-4.96,3.05-3.34,4.16-5.23.61-1.03-.11-2.3-.3-3.48-.32-1.95.91-3.88,2.54-4.99,1.63-1.1,3.61-1.54,5.54-1.96-1.51-4.8-7.31-6.59-12.31-7.16-5-.57-10.67-.96-13.88-4.83-1.07-1.29-2.58-3.1-3.98-2.19,1.36,1.91.45,5.08-1.96,5.69-.75.19-1.45.61-1.81,1.3-.99,1.9,1.47,2.81,2.53,4.24,1.08,1.47.55,3.67-.73,4.98s-3.1,1.9-4.86,2.37c-5.98,1.59-12.21,2.18-18.38,1.74-1.19-.08-2.06-1.2-1.85-2.38.32-1.86,1.64-3.64,3.02-5.03,1.94-1.95,4.25-3.86,4.74-6.57-12.58-1.25-25.15,3-37.77,2.39-.61-.03-1.29-.1-1.7-.56-.51-.57-.36-1.44-.19-2.19.94-3.98,2.23-8.45,6.61-9.65,1.3-.36,2.25-1.6,2.05-2.94-.35-2.35-3.49-1.69-5.61-1.12-3.84,1.02-7.88-.03-11.83-.39-3.96-.36-8.53.29-10.78,3.56-1.87,2.72-1.62,6.59-3.82,9.05-2.18,2.45-6.35,2.99-7.54,6.04-1.62,4.14,3.79,9.1,1.33,12.8-.55.83-1.44,1.38-2.4,1.65-4.68,1.28-8.4-3.55-12.96-3.34-5.09.23-7.95,6.37-12.83,7.84-5.2,1.56-11.52-2.5-15.92.68-1.32.95-2.17,2.41-3.38,3.51-2.94,2.69-7.33,2.77-11.31,3.04-3.98.27-9.18,1.39-11.07,4.89-2.91,1.43-5.86,2.9-8.2,5.14-2.34,2.24-4.02,5.41-3.69,8.63.38,3.65,3.21,6.71,2.93,10.56-.05.71-.24,1.43-.59,2.05-1.78,3.16-5.76,2.61-9.04,2.21-2.97-.36-6.79.13-7.66,2.99-.36,1.19-.09,2.57-.76,3.62-1.63,2.57-6.51.28-7.94,3.79-.5,1.23-.23,2.64.52,3.74,2.25,3.27,6.69,3.48,9.21,6.22,3.46,3.76,1.54,9.92,3.4,14.67,1.39,3.54,4.78,6.03,6.07,9.61,2.06,5.72-2.17,12.1-7.57,14.89-3.05,1.57-6.5,2.39-8.89,5.12-.82.94-1.41,2.11-1.53,3.35-.39,3.99,3.38,6.1,6.7,7.47,5.66,2.33,11.45,4.33,17.35,5.98,3.88,1.08,7.93,2.07,11.13,4.53,2.9,2.23,4.83,5.46,6.69,8.61,2.08,3.52,4.16,7.05,6.23,10.57,2.86,4.84,5.76,9.83,6.68,15.37.92,5.54-.57,11.86-5.11,15.17-3.33,2.44-8.49,3.81-8.88,7.91-.28,2.86,2.2,5.63-.74,8.56-1.24,1.24-2.96,1.91-4.71,1.9-3.27-.03-6.12-1.89-8.8-3.7l-9.03-6.08c-.27-.18-.58.15-.39.4,3.35,4.52,5.43,9.95,6.05,15.54,4.85,5.38,10.09,10.4,15.65,15.05.22-.14.44-.26.65-.41.68-.48,1.28-1.1,1.62-1.86,1.16-2.64-1.11-4.55-2.73-6.4-1.39-1.58-2.28-4.35-.54-5.55,1.69-1.17,3.91.47,5.96.48,3.29,0,4.99-4.03,4.95-7.32s-.87-6.85.82-9.67c2.71-4.53,9.68-3.85,13.79-7.17,4.45-3.59,4.03-10.67,1.47-15.78-2.56-5.11-6.74-9.31-9.06-14.54-1.77-4-2.38-8.45-4.36-12.35-2.42-4.78-6.66-8.33-10.79-11.73-6.57-5.43-13.89-11.14-22.42-11.16-2.75,0-5.62.58-8.12-.88-1.2-.7-2.06-1.93-2.08-3.32-.03-1.94,1.42-2.79,2.76-3.57,4.73-2.79,9.31-6.11,12.4-10.65,3.09-4.54,4.51-10.5,2.6-15.65-1.46-3.95-4.71-7.15-5.58-11.26-.42-1.98-.27-4.14-1.28-5.9-1.94-3.39-7.38-3.97-7.87-8.29-.21-1.8.62-3.57,1.99-4.76,4.44-3.87,10.94-2.1,15.6-5.05,5.15-3.26,5.62-10.41,6.15-16.48.53-6.07,2.92-13.41,8.93-14.38,2.95-.48,5.87.83,8.82,1.3,7.21,1.15,14.23-2.67,21.49-3.37,7.38-.71,14.65,1.83,22.02,2.54,7.43.72,12.41-1.35,18.09-5.64,4.26-3.22,9.44-5.26,7.62-12.33-1.49-5.82-6.19-10.77-4.01-17.4,1.08-3.29,4.53-4.89,7.53-3.19,5.74,3.26-.93,13.44,6.65,16.52,2.86,1.16,6.12.52,8.58-1.35,2.4-1.82,6.41-4.16,9.98-4.57,2.5-.29,4.61,1.89,4.27,4.39-.35,2.51,1.49,5.59,4.07,6.64,3.53,1.44,7.51.52,11.31.23,3.8-.29,8.28.49,10.07,3.85,3.13,5.89-4.79,13.45-1.56,19.28,1.18,2.13,3.7,3.53,2.88,6.6-.29,1.09-.95,2.04-1.8,2.78-3.99,3.45-10.63,2.12-12.81,8.59-.5,1.48-.63,3.07-.35,4.6.8,4.39,4.3,7.66,8.28,9.38,1.55.67,3.24,1.18,4.4,2.41s1.42,3.5.02,4.44c-8.58,2.26-19.06-6.29-25.73-.43-1.8,1.58-2.75,3.89-4.23,5.77-3.91,4.97-10.76,6.25-16.92,7.69-6.16,1.44-13,4.11-15.13,10.07-1.06,2.96-.72,6.26-1.57,9.29-2.45,8.72-13.77,12.91-15.56,21.79-1.98,9.83,8.93,18.25,8.62,28.27-.21,6.68-5.41,12.45-5.55,19.13-.18,8.47,7.87,14.99,15.99,17.38s16.86,2.09,24.98,4.5c7.02,2.08,14,6.21,21.17,4.69,3.02-.64,6.66-2.1,8.81.12.74.77,1.08,1.83,1.4,2.85,1.86,5.98,3.34,13.51-1.36,17.66-2.76,2.43-7,2.88-9.36,5.7-3.24,3.87-1.42,10.25-4.55,14.21-3.01,3.81-8.97,3.45-12.98,6.18-4.8,3.27-5.6,9.87-8.14,15.09-.65,1.33-1.44,2.59-2.35,3.76.26,0,.51.01.77.01,2.87,0,5.73-.09,8.56-.24,1.96-1.31,4.16-2.35,5.48-4.27,1.51-2.2,1.53-5.08,2.51-7.57,1.37-3.49,4.74-6.15,8.53-6.45,1.27-.1,2.53-.3,3.69-.82,7.26-3.24,2.42-8.58,3.55-13.11,1.64-6.62,13.42-5.75,15.34-12.3,1.41-4.81-3.95-9.62-2.75-14.48.59-2.41,2.69-4.21,3.36-6.59,1.09-3.93-2.24-7.97-6.13-9.19s-8.08-.41-12.09.36c-4,.76-8.26,1.44-12.06-.02-3.09-1.18-5.53-3.66-8.56-4.98-7.05-3.07-15.73.66-22.71-2.58-4.34-2.02-7.13-6.41-8.66-10.95-.99-2.95-1.56-6.07-1.33-9.17.54-7.24,5.32-14,4.27-21.18-.69-4.73-3.85-8.82-4.54-13.55-.58-4,.76-8.24,3.55-11.16,3.39-3.56,4.01-8.85,6.44-13.12,1.05-1.84,2.38-3.51,3.71-5.16,1.4-1.75,2.86-3.55,4.84-4.59,1.05-.56,2.21-.88,3.38-1.12,1.33-.27,2.68-.45,4.04-.43,1.23.02,2.46.21,3.69.1,1.3-.11,2.96-1.17,3.7-2.25,2.87-4.12,5.21-9.03,9.21-11.99,7.14-5.29,17.22-4.65,25.49-1.38,3.63,1.43,7.18,3.34,11.08,3.61,6.1.42,12.05-3.27,18.09-2.31,6.3,1,10.7,6.67,13.92,12.18s6.27,11.61,11.85,14.71c1.01.56,2.16,1.03,3.39.19,1.04-.71,1.56-1.98,1.52-3.25-.09-3.11-2.68-5.47-2.62-8.68.02-1.31.67-2.59,1.86-3.15,2.51-1.18,4.91,1.69,6.21,4.12,2.96,5.5,6.66,11.42,12.69,13.05,1.49.4,3.23.45,4.39-.57,1.11-.98,1.32-2.64,1.19-4.12-.32-3.52-2.21-6.87-5.06-8.97-3.28-2.41-7.87-3.38-9.85-6.93-2.38-4.29.85-9.95,5.34-11.91,1.12-.49,2.35-.84,3.26-1.66.91-.82,1.37-2.33.59-3.27-.74-.9-2.32-1.01-2.68-2.12-.43-1.33,1.37-2.25,2.77-2.33s3.2-.21,3.6-1.55c.25-.84-.23-1.83,1-2.47.76-.39,1.66-.41,2.48-.16,6.01,1.81,12.03,3.63,18.04,5.44-3.42-11.41-8.12-22.27-13.94-32.39Z"/>
          <path class="cls-20" d="m180.66,300.89c4.01-2.73,9.96-2.37,12.98-6.18,3.13-3.95,1.31-10.34,4.55-14.21,2.36-2.82,6.6-3.27,9.36-5.7,4.7-4.14,3.23-11.68,1.36-17.66-.32-1.02-.66-2.08-1.4-2.85-2.14-2.22-5.78-.76-8.81-.12-7.17,1.52-14.14-2.61-21.17-4.69-8.12-2.41-16.85-2.11-24.98-4.5s-16.17-8.91-15.99-17.38c.14-6.68,5.34-12.45,5.55-19.13.31-10.03-10.61-18.44-8.62-28.27,1.79-8.88,13.11-13.07,15.56-21.79.85-3.03.51-6.33,1.57-9.29,2.13-5.96,8.97-8.62,15.13-10.07,6.16-1.44,13.01-2.72,16.92-7.69,1.48-1.88,2.43-4.2,4.23-5.77,6.67-5.86,17.15,2.69,25.73.43,1.4-.94,1.14-3.21-.02-4.44s-2.85-1.74-4.4-2.41c-3.98-1.73-7.48-4.99-8.28-9.38-.28-1.53-.15-3.13.35-4.6,2.17-6.47,8.81-5.13,12.81-8.59.85-.74,1.51-1.69,1.8-2.78.82-3.07-1.7-4.47-2.88-6.6-3.23-5.83,4.69-13.39,1.56-19.28-1.79-3.36-6.27-4.14-10.07-3.85-3.8.29-7.78,1.21-11.31-.23-2.57-1.05-4.42-4.13-4.07-6.64.34-2.49-1.77-4.68-4.27-4.39-3.58.42-7.58,2.75-9.98,4.57-2.46,1.87-5.72,2.51-8.58,1.35-7.59-3.08-.91-13.27-6.65-16.52-3.01-1.71-6.45-.1-7.53,3.19-2.18,6.63,2.52,11.57,4.01,17.4,1.81,7.07-3.36,9.11-7.62,12.33-5.68,4.29-10.65,6.36-18.09,5.64-7.38-.71-14.65-3.25-22.02-2.54-7.26.7-14.29,4.52-21.49,3.37-2.95-.47-5.87-1.78-8.82-1.3-6.02.97-8.41,8.3-8.93,14.38-.53,6.07-1,13.22-6.15,16.48-4.66,2.94-11.15,1.18-15.6,5.05-1.37,1.19-2.2,2.95-1.99,4.76.49,4.31,5.93,4.89,7.87,8.29,1,1.76.86,3.92,1.28,5.9.87,4.12,4.12,7.32,5.58,11.26,1.91,5.15.49,11.11-2.6,15.65-3.09,4.54-7.66,7.87-12.4,10.65-1.33.78-2.78,1.63-2.76,3.57.02,1.39.88,2.62,2.08,3.32,2.5,1.47,5.37.88,8.12.88,8.52.02,15.84,5.73,22.42,11.16,4.13,3.41,8.37,6.96,10.79,11.73,1.97,3.9,2.59,8.36,4.36,12.35,2.32,5.23,6.5,9.42,9.06,14.54,2.56,5.11,2.97,12.19-1.47,15.78-4.11,3.32-11.08,2.64-13.79,7.17-1.69,2.82-.86,6.39-.82,9.67s-1.66,7.33-4.95,7.32c-2.05,0-4.27-1.64-5.96-.48-1.73,1.2-.85,3.96.54,5.55,1.62,1.85,3.89,3.76,2.73,6.4-.34.76-.93,1.38-1.62,1.86-.21.15-.43.27-.65.41,26.55,22.19,60.68,35.61,97.94,35.79.91-1.17,1.7-2.42,2.35-3.76,2.54-5.22,3.34-11.82,8.14-15.09Z"/>
        </g>
        <g>
          <path class="cls-11" d="m212.01,87.21c-3.23-5.83,4.69-13.39,1.56-19.28-1.79-3.36-6.27-4.14-10.07-3.85-3.8.29-7.78,1.21-11.31-.23-2.57-1.05-4.42-4.13-4.07-6.64.34-2.49-1.77-4.68-4.27-4.39-3.58.42-7.58,2.75-9.98,4.57-2.46,1.87-5.72,2.51-8.58,1.35-7.59-3.08-.91-13.27-6.65-16.52-3.01-1.71-6.45-.1-7.53,3.19-2.18,6.63,2.52,11.57,4.01,17.4,1.81,7.07-3.36,9.11-7.62,12.33-5.68,4.29-10.65,6.36-18.09,5.64-7.38-.71-14.65-3.25-22.02-2.54-7.26.7-14.29,4.52-21.49,3.37-2.95-.47-5.87-1.78-8.82-1.3-6.02.97-8.41,8.3-8.93,14.38-.53,6.07-1,13.22-6.15,16.48-4.66,2.94-11.15,1.18-15.6,5.05-1.37,1.19-2.2,2.95-1.99,4.76.49,4.31,5.93,4.89,7.87,8.29,1,1.76.86,3.92,1.28,5.9.87,4.12,4.12,7.32,5.58,11.26,1.91,5.15.49,11.11-2.6,15.65-3.09,4.54-7.66,7.87-12.4,10.65-1.33.78-2.78,1.63-2.76,3.57.02,1.39.88,2.62,2.08,3.32,2.5,1.47,5.37.88,8.12.88,8.52.02,15.84,5.73,22.42,11.16,4.13,3.41,8.37,6.96,10.79,11.73,1.97,3.9,2.59,8.36,4.36,12.35,2.32,5.23,6.5,9.42,9.06,14.54,2.56,5.11,2.97,12.19-1.47,15.78-4.11,3.32-11.08,2.64-13.79,7.17-1.69,2.82-.86,6.39-.82,9.67s-1.66,7.33-4.95,7.32c-2.05,0-4.27-1.64-5.96-.48-1.73,1.2-.85,3.96.54,5.55,1.62,1.85,3.89,3.76,2.73,6.4-.34.76-.93,1.38-1.62,1.86-.21.15-.43.27-.65.41,2.29,1.92,4.64,3.76,7.05,5.54,1.07-3.89-.22-9.35,2.87-12.17,4.49-4.09,11.6,2.14,17.52.78,5.21-1.19,7.34-7.6,11.94-10.32,3.55-2.09,8.97-2.48,9.96-6.48.73-2.96-1.82-5.76-4.53-7.16-2.71-1.4-5.85-2.13-8.06-4.24-4.51-4.29-2.99-11.6-3.03-17.83-.05-7.14-2.76-14.23-7.47-19.59-3.28-3.73-7.67-6.96-8.79-11.8-.5-2.14-.28-4.42-.98-6.51-.96-2.9-3.51-4.96-6.06-6.63-8.02-5.27-17.41-8.45-26.99-9.15-1.28-.09-2.67-.19-3.6-1.07-1.86-1.78-.09-5.15,2.34-5.97,2.44-.82,5.09-.13,7.66-.1,3.65.04,7.5-1.51,9.36-4.66s.99-7.87-2.29-9.48c.26-2.84-3.36-5.32-4.54-7.92-1.91-4.2.27-9.26-1.08-13.67-.82-2.68-2.93-5.25-2.17-7.94.76-2.68,4.15-4.17,4.42-6.94.14-1.38-.57-2.71-.65-4.09-.3-4.78,7.86-8.74,9.19-13.34,1.87-6.47,4.94-14.06,11.58-15.15,4.16-.68,8.21,1.6,12.42,1.87,5.24.35,10.22-2.42,15.46-2.7,6.6-.36,13.05,3.24,19.6,2.33,7.13-.99,12.36-6.92,18.37-10.87,6.02-3.95,15.67-5.14,19.14,1.17,2.01,3.66,1.15,8.76,4.2,11.6,1.92,1.79,4.91,2.11,6.73,4.01,3.76,3.92-.58,10.6-5.67,12.49s-11.05,1.64-15.46,4.81c-4.33,3.11-6.06,8.75-9.84,12.52-4.14,4.12-10.3,5.55-16.13,5.58-5.84.02-11.62-1.17-17.45-1.47-3.13-.16-6.37-.04-9.2,1.31s-5.14,4.17-5.05,7.3c.13,4.71,5.13,7.61,9.57,9.17,4.44,1.56,9.61,3.25,11.33,7.63,1.83,4.66-1.27,9.92-.46,14.86.38,2.29,1.58,4.38,1.94,6.67.81,5.22-2.9,10.23-2.65,15.5.27,5.61,4.86,10.06,6.38,15.47,2.06,7.3-1.7,15.24.13,22.6,2.04,8.22,10.28,13.19,18.07,16.53,13.14,5.63,27.15,9.24,41.37,10.65,2.92.29,5.93.51,8.57,1.8,2.64,1.29,4.84,3.97,4.6,6.9-.64,7.76-14.54,6.57-17.49,13.78-.9,2.2-.51,4.69-.83,7.04-1.34,9.86-14.35,14.86-15.76,24.71-.4,2.76.14,5.82-1.4,8.14-.05.07-.11.14-.16.21,1.31.04,2.63.07,3.95.07.91-1.17,1.7-2.42,2.35-3.76,2.54-5.22,3.34-11.82,8.14-15.09,4.01-2.73,9.96-2.37,12.98-6.18,3.13-3.95,1.31-10.34,4.55-14.21,2.36-2.82,6.6-3.27,9.36-5.7,4.7-4.14,3.23-11.68,1.36-17.66-.32-1.02-.66-2.08-1.4-2.85-2.14-2.22-5.78-.76-8.81-.12-7.17,1.52-14.14-2.61-21.17-4.69-8.12-2.41-16.85-2.11-24.98-4.5s-16.17-8.91-15.99-17.38c.14-6.68,5.34-12.45,5.55-19.13.31-10.03-10.61-18.44-8.62-28.27,1.79-8.88,13.11-13.07,15.56-21.79.85-3.03.51-6.33,1.57-9.29,2.13-5.96,8.97-8.62,15.13-10.07,6.16-1.44,13.01-2.72,16.92-7.69,1.48-1.88,2.43-4.2,4.23-5.77,6.67-5.86,17.15,2.69,25.73.43,1.4-.94,1.14-3.21-.02-4.44s-2.85-1.74-4.4-2.41c-3.98-1.73-7.48-4.99-8.28-9.38-.28-1.53-.15-3.13.35-4.6,2.17-6.47,8.81-5.13,12.81-8.59.85-.74,1.51-1.69,1.8-2.78.82-3.07-1.7-4.47-2.88-6.6Z"/>
          <path class="cls-11" d="m167.78,311.32c1.41-9.85,14.42-14.85,15.76-24.71.32-2.35-.07-4.84.83-7.04,2.95-7.21,16.85-6.02,17.49-13.78.24-2.93-1.96-5.6-4.6-6.9-2.64-1.29-5.65-1.51-8.57-1.8-14.23-1.41-28.23-5.02-41.37-10.65-7.79-3.34-16.03-8.31-18.07-16.53-1.83-7.36,1.93-15.31-.13-22.6-1.53-5.41-6.11-9.85-6.38-15.47-.25-5.28,3.45-10.28,2.65-15.5-.35-2.29-1.56-4.38-1.94-6.67-.81-4.94,2.29-10.2.46-14.86-1.73-4.38-6.89-6.07-11.33-7.63-4.44-1.56-9.44-4.46-9.57-9.17-.09-3.13,2.22-5.95,5.05-7.3s6.07-1.47,9.2-1.31c5.83.3,11.61,1.49,17.45,1.47,5.84-.02,12-1.45,16.13-5.58,3.78-3.77,5.51-9.41,9.84-12.52,4.41-3.17,10.37-2.92,15.46-4.81s9.43-8.57,5.67-12.49c-1.82-1.9-4.81-2.22-6.73-4.01-3.05-2.84-2.2-7.94-4.2-11.6-3.47-6.31-13.12-5.12-19.14-1.17-6.02,3.95-11.25,9.89-18.37,10.87-6.55.91-13-2.69-19.6-2.33-5.25.28-10.22,3.05-15.46,2.7-4.2-.28-8.26-2.55-12.42-1.87-6.64,1.08-9.72,8.68-11.58,15.15-1.33,4.6-9.49,8.56-9.19,13.34.09,1.38.79,2.71.65,4.09-.27,2.77-3.66,4.26-4.42,6.94-.77,2.69,1.35,5.26,2.17,7.94,1.35,4.41-.83,9.48,1.08,13.67,1.18,2.59,4.8,5.08,4.54,7.92,3.28,1.61,4.15,6.34,2.29,9.48s-5.71,4.7-9.36,4.66c-2.57-.03-5.22-.72-7.66.1-2.44.82-4.2,4.2-2.34,5.97.92.88,2.32.98,3.6,1.07,9.58.69,18.96,3.87,26.99,9.15,2.55,1.68,5.1,3.74,6.06,6.63.69,2.08.48,4.37.98,6.51,1.12,4.84,5.51,8.07,8.79,11.8,4.72,5.36,7.42,12.45,7.47,19.59.05,6.23-1.48,13.54,3.03,17.83,2.21,2.1,5.35,2.83,8.06,4.24,2.71,1.4,5.27,4.2,4.53,7.16-.99,4-6.41,4.39-9.96,6.48-4.6,2.71-6.74,9.13-11.94,10.32-5.92,1.35-13.03-4.87-17.52-.78-3.09,2.82-1.8,8.28-2.87,12.17,24.44,18.13,54.42,29.2,86.94,30.18.05-.07.11-.13.16-.21,1.55-2.32,1.01-5.38,1.4-8.14Z"/>
        </g>
        <g>
          <path class="cls-12" d="m197.27,258.9c-2.64-1.29-5.65-1.51-8.57-1.8-14.23-1.41-28.23-5.02-41.37-10.65-7.79-3.34-16.03-8.31-18.07-16.53-1.83-7.36,1.93-15.31-.13-22.6-1.53-5.41-6.11-9.85-6.38-15.47-.25-5.28,3.45-10.28,2.65-15.5-.35-2.29-1.56-4.38-1.94-6.67-.81-4.94,2.29-10.2.46-14.86-1.73-4.38-6.89-6.07-11.33-7.63-4.44-1.56-9.44-4.46-9.57-9.17-.09-3.13,2.22-5.95,5.05-7.3s6.07-1.47,9.2-1.31c5.83.3,11.61,1.49,17.45,1.47,5.84-.02,12-1.45,16.13-5.58,3.78-3.77,5.51-9.41,9.84-12.52,4.41-3.17,10.37-2.92,15.46-4.81s9.43-8.57,5.67-12.49c-1.82-1.9-4.81-2.22-6.73-4.01-3.05-2.84-2.2-7.94-4.2-11.6-3.47-6.31-13.12-5.12-19.14-1.17-6.02,3.95-11.25,9.89-18.37,10.87-6.55.91-13-2.69-19.6-2.33-5.25.28-10.22,3.05-15.46,2.7-4.2-.28-8.26-2.55-12.42-1.87-6.64,1.08-9.72,8.68-11.58,15.15-1.33,4.6-9.49,8.56-9.19,13.34.09,1.38.79,2.71.65,4.09-.27,2.77-3.66,4.26-4.42,6.94-.77,2.69,1.35,5.26,2.17,7.94,1.35,4.41-.83,9.48,1.08,13.67,1.18,2.59,4.8,5.08,4.54,7.92,3.28,1.61,4.15,6.34,2.29,9.48s-5.71,4.7-9.36,4.66c-2.57-.03-5.22-.72-7.66.1-2.44.82-4.2,4.2-2.34,5.97.92.88,2.32.98,3.6,1.07,9.58.69,18.96,3.87,26.99,9.15,2.55,1.68,5.1,3.74,6.06,6.63.69,2.08.48,4.37.98,6.51,1.12,4.84,5.51,8.07,8.79,11.8,4.72,5.36,7.42,12.45,7.47,19.59.05,6.23-1.48,13.54,3.03,17.83,2.21,2.1,5.35,2.83,8.06,4.24,2.71,1.4,5.27,4.2,4.53,7.16-.99,4-6.41,4.39-9.96,6.48-4.6,2.71-6.74,9.13-11.94,10.32-5.92,1.35-13.03-4.87-17.52-.78-3.09,2.82-1.8,8.28-2.87,12.17,1.69,1.25,3.41,2.47,5.15,3.65.42-.77.78-1.56,1.08-2.34,1.45-3.72,3.02-8.12,6.84-9.3,3.14-.97,6.42.74,9.68,1.19,8.69,1.21,15.78-6.31,23.43-10.59,1.67-.93,3.46-1.76,4.73-3.19,3.88-4.37.73-11.47-3.74-15.23-4.47-3.77-10.25-6.28-13.21-11.32-4.8-8.16-.17-19.45-5.01-27.59-1.81-3.06-4.79-5.3-6.56-8.37-1.58-2.74-2.12-5.97-3.52-8.81-1.64-3.31-4.36-5.93-7.03-8.47-5.92-5.64-12.73-11.64-20.9-11.54-.41,0-.83.02-1.19-.16-1.03-.5-.78-2.16.11-2.87s2.1-.85,3.17-1.25c5.37-2,5.78-9.63,3.62-14.94-2.15-5.31-5.93-10.31-5.67-16.04.18-3.88,2.24-7.54,2.12-11.42-.11-3.63-2.12-7.08-1.81-10.7.32-3.73,3.01-6.77,5.57-9.51,4.83-5.18,15.44-9.95,23.18-11,.12-.02.24-.03.37-.05.2-.02.39-.05.59-.07.32-.03.64-.06.96-.07.1,0,.21-.02.31-.02h-.03c.55,0,1.09-.01,1.64.02,3.75.23,7.29,1.72,10.95,2.57,7.66,1.77,15.96.58,22.83-3.25,2.04-1.14,4.1-2.55,6.44-2.6,2.34-.05,4.88,2.1,4.16,4.33-.17.52-.49.98-.81,1.42-4.29,5.95-9.68,11.66-16.77,13.54-6.42,1.7-13.18,0-19.73-1.1s-13.87-1.4-19.22,2.54c-5.75,4.24-7.42,11.98-8.56,19.04-.4,2.48-.79,5.07-.1,7.49,1.35,4.73,6.29,7.42,8.97,11.54,4.74,7.26,2.3,18.54,9.17,23.83,5.06,3.9,14.04,3.42,15.89,9.53,1.34,4.4-2.49,8.89-2.03,13.47.35,3.52,3.12,6.25,4.59,9.46,3.55,7.73-.46,17.95,4.7,24.72,2.78,3.65,7.6,5.27,10.41,8.9,1.36,1.76,2.19,3.92,3.72,5.54,2.46,2.6,6.23,3.32,9.56,4.65,3.32,1.33,6.74,4.1,6.41,7.66-.16,1.74-1.21,3.3-1.35,5.04-.29,3.51,4.16,6.41,7.25,4.72,1.69-.92,2.68-2.72,4.04-4.07,4.25-4.23,11.17-3.56,17.09-2.59,2.71.44,6.24,2.01,5.6,4.68-.36,1.52-1.96,2.32-3.13,3.34-5.04,4.39-2.37,13.04-5.78,18.78-2.59,4.36-8.03,6.01-11.8,9.41-2.7,2.43-4.48,5.7-6.52,8.71-1.92,2.83-4.18,5.49-6.71,7.83,4.54.55,9.15.9,13.81,1.04.05-.07.11-.13.16-.21,1.55-2.32,1.01-5.38,1.4-8.14,1.41-9.85,14.42-14.85,15.76-24.71.32-2.35-.07-4.84.83-7.04,2.95-7.21,16.85-6.02,17.49-13.78.24-2.93-1.96-5.6-4.6-6.9Z"/>
          <path class="cls-11" d="m159.13,310.8c2.04-3.01,3.82-6.28,6.52-8.71,3.77-3.39,9.2-5.05,11.8-9.41,3.42-5.74.75-14.39,5.78-18.78,1.17-1.02,2.77-1.83,3.13-3.34.64-2.67-2.89-4.24-5.6-4.68-5.92-.97-12.84-1.64-17.09,2.59-1.36,1.36-2.35,3.15-4.04,4.07-3.1,1.69-7.54-1.2-7.25-4.72.14-1.74,1.19-3.3,1.35-5.04.33-3.56-3.09-6.34-6.41-7.66-3.32-1.33-7.1-2.05-9.56-4.65-1.53-1.62-2.36-3.78-3.72-5.54-2.81-3.63-7.63-5.25-10.41-8.9-5.16-6.77-1.14-16.99-4.7-24.72-1.48-3.21-4.24-5.95-4.59-9.46-.46-4.58,3.37-9.07,2.03-13.47-1.86-6.11-10.83-5.63-15.89-9.53-6.87-5.3-4.43-16.57-9.17-23.83-2.69-4.12-7.63-6.81-8.97-11.54-.69-2.42-.3-5,.1-7.49,1.15-7.05,2.81-14.8,8.56-19.04,5.35-3.94,12.66-3.64,19.22-2.54s13.31,2.8,19.73,1.1c7.09-1.88,12.48-7.59,16.77-13.54.32-.44.64-.9.81-1.42.72-2.23-1.82-4.38-4.16-4.33-2.34.05-4.4,1.46-6.44,2.6-6.86,3.84-15.16,5.02-22.83,3.25-3.66-.84-7.2-2.34-10.95-2.57-.55-.03-1.1-.03-1.64-.01h.03c-.1,0-.21,0-.31.01-.32.02-.64.04-.96.07-.19.02-.39.04-.59.07-.12.02-.24.03-.37.05-7.74,1.05-18.35,5.82-23.18,11-2.56,2.74-5.25,5.77-5.57,9.51-.31,3.62,1.7,7.07,1.81,10.7.12,3.88-1.95,7.54-2.12,11.42-.26,5.73,3.52,10.73,5.67,16.04,2.15,5.31,1.75,12.95-3.62,14.94-1.07.4-2.28.53-3.17,1.25s-1.14,2.37-.11,2.87c.36.18.79.16,1.19.16,8.17-.11,14.98,5.9,20.9,11.54,2.67,2.54,5.4,5.16,7.03,8.47,1.4,2.84,1.94,6.07,3.52,8.81,1.78,3.08,4.75,5.32,6.56,8.37,4.83,8.14.21,19.43,5.01,27.59,2.96,5.04,8.75,7.55,13.21,11.32,4.47,3.77,7.62,10.86,3.74,15.23-1.27,1.43-3.06,2.26-4.73,3.19-7.66,4.28-14.75,11.79-23.43,10.59-3.26-.45-6.54-2.16-9.68-1.19-3.82,1.18-5.39,5.58-6.84,9.3-.3.78-.67,1.57-1.08,2.34,19.84,13.5,42.99,22.48,67.99,25.48,2.53-2.35,4.79-5,6.71-7.83Z"/>
        </g>
        <g>
          <path class="cls-16" d="m180.76,265.87c-5.92-.97-12.84-1.64-17.09,2.59-1.36,1.36-2.35,3.15-4.04,4.07-3.1,1.69-7.54-1.2-7.25-4.72.14-1.74,1.19-3.3,1.35-5.04.33-3.56-3.09-6.34-6.41-7.66-3.32-1.33-7.1-2.05-9.56-4.65-1.53-1.62-2.36-3.78-3.72-5.54-2.81-3.63-7.63-5.25-10.41-8.9-5.16-6.77-1.14-16.99-4.7-24.72-1.48-3.21-4.24-5.95-4.59-9.46-.46-4.58,3.37-9.07,2.03-13.47-1.86-6.11-10.83-5.63-15.89-9.53-6.87-5.3-4.43-16.57-9.17-23.83-2.69-4.12-7.63-6.81-8.97-11.54-.69-2.42-.3-5,.1-7.49,1.15-7.05,2.81-14.8,8.56-19.04,5.35-3.94,12.66-3.64,19.22-2.54s13.31,2.8,19.73,1.1c7.09-1.88,12.48-7.59,16.77-13.54.32-.44.64-.9.81-1.42.72-2.23-1.82-4.38-4.16-4.33-2.34.05-4.4,1.46-6.44,2.6-6.86,3.84-15.16,5.02-22.83,3.25-3.66-.84-7.2-2.34-10.95-2.57-.55-.03-1.1-.03-1.64-.01h.03c-.1,0-.21,0-.31.01-.32.02-.64.04-.96.07-.19.02-.39.04-.59.07-.12.02-.24.03-.37.05-7.74,1.05-18.35,5.82-23.18,11-2.56,2.74-5.25,5.77-5.57,9.51-.31,3.62,1.7,7.07,1.81,10.7.12,3.88-1.95,7.54-2.12,11.42-.26,5.73,3.52,10.73,5.67,16.04,2.15,5.31,1.75,12.95-3.62,14.94-1.07.4-2.28.53-3.17,1.25s-1.14,2.37-.11,2.87c.36.18.79.16,1.19.16,8.17-.11,14.98,5.9,20.9,11.54,2.67,2.54,5.4,5.16,7.03,8.47,1.4,2.84,1.94,6.07,3.52,8.81,1.78,3.08,4.75,5.32,6.56,8.37,4.83,8.14.21,19.43,5.01,27.59,2.96,5.04,8.75,7.55,13.21,11.32,4.47,3.77,7.62,10.86,3.74,15.23-1.27,1.43-3.06,2.26-4.73,3.19-7.66,4.28-14.75,11.79-23.43,10.59-3.26-.45-6.54-2.16-9.68-1.19-3.82,1.18-5.39,5.58-6.84,9.3-.3.78-.67,1.57-1.08,2.34,2.1,1.43,4.25,2.8,6.42,4.12.24-.57.48-1.15.75-1.71,2.1-4.38,5.85-7.23,10.26-9.03,4.6-1.88,9.53-2.15,14.38-2.96,5.23-.88,8.96-2.64,12.69-6.43,3.56-3.62,10.05-7.52,10.22-12.95.02-.59-.04-1.13-.12-1.65-.4-1.14-.88-2.27-1.43-3.41-2.17-3-6.15-4.82-8.77-7.53-1.28-1.32-1.98-2.75-2.63-4.45-.96-2.49-2.15-3.6-4.3-5.2-2.96-2.21-4.97-4.37-6.16-7.9-.29-.85.9-.67,1.22-.21,2.22,3.18,4.53,5.34,7.63,7.59,1.19.87,2.42,1.7,3.38,2.84,1.71,2.01,2.83,4.16,4.94,5.85,2.13,1.7,4.47,3.02,6.37,5.01,1.18,1.23,2.07,2.49,2.73,3.77,4.17,4.54,6.35,10.8,7.72,16.89.36,1.61.86,4.78,2.58,5.55,2.01.91,5.59-1.34,6.87-2.62,2.03-2.04,3.16-4.8,6.62-4.39,2.23.26,4.32,1.96,4.71,4.23.48,2.83-1.56,4.19-3.11,6.15-2.2,2.81-2.09,6.53-3.52,9.73-1.26,2.8-3.32,4.71-5.85,6.38-2.94,1.95-5.92,3.01-7.02,6.59-1.24,4.04-2.32,6.46-5.67,9.3-.3.25-.61.5-.93.75,2.64.46,5.3.86,7.99,1.19,2.53-2.35,4.79-5,6.71-7.83,2.04-3.01,3.82-6.28,6.52-8.71,3.77-3.39,9.2-5.05,11.8-9.41,3.42-5.74.75-14.39,5.78-18.78,1.17-1.02,2.77-1.83,3.13-3.34.64-2.67-2.89-4.24-5.6-4.68Z"/>
          <path class="cls-3" d="m151.01,307.38c1.1-3.59,4.08-4.64,7.02-6.59,2.52-1.68,4.59-3.58,5.85-6.38,1.43-3.19,1.32-6.91,3.52-9.73,1.54-1.97,3.59-3.32,3.11-6.15-.39-2.26-2.48-3.96-4.71-4.23-3.47-.41-4.59,2.35-6.62,4.39-1.28,1.28-4.86,3.53-6.87,2.62-1.72-.78-2.21-3.94-2.58-5.55-1.37-6.09-3.55-12.35-7.72-16.89-.66-1.28-1.55-2.54-2.73-3.77-1.9-1.99-4.24-3.3-6.37-5.01-2.12-1.69-3.24-3.84-4.94-5.85-.96-1.14-2.19-1.97-3.38-2.84-3.1-2.25-5.41-4.41-7.63-7.59-.32-.46-1.51-.64-1.22.21,1.2,3.53,3.2,5.7,6.16,7.9,2.15,1.6,3.35,2.71,4.3,5.2.65,1.7,1.35,3.13,2.63,4.45,2.62,2.71,6.59,4.53,8.77,7.53.55,1.14,1.03,2.27,1.43,3.41.09.52.14,1.06.12,1.65-.17,5.43-6.66,9.33-10.22,12.95-3.73,3.79-7.46,5.55-12.69,6.43-4.85.82-9.78,1.08-14.38,2.96-4.41,1.8-8.16,4.65-10.26,9.03-.27.56-.51,1.13-.75,1.71,16.15,9.85,34.24,16.82,53.58,20.17.31-.25.63-.5.93-.75,3.35-2.84,4.42-5.26,5.67-9.3Z"/>
        </g>
        <path class="cls-2" d="m199.72,300.41c-1.16.52-2.43.72-3.69.82-3.79.3-7.16,2.96-8.53,6.45-.98,2.49-1,5.36-2.51,7.57-1.32,1.93-3.52,2.96-5.48,4.27,81.09-4.44,145.48-71.6,145.48-153.8,0-15.4-2.27-30.27-6.48-44.3-5.77-1.74-11.54-3.48-17.31-5.22,2.46,3.56,5.72,7.09,4.24,10.8-2.12,5.34-12.57,5.87-11.43,11.5.58,2.86,4,3.9,6.41,5.56,7.52,5.19,4.68,17.62-2.2,23.64-3.14,2.75-7.9,4.77-11.35,2.42-1.86-1.27-2.78-3.48-4.15-5.27-1.37-1.79-3.81-3.26-5.79-2.19-1.76.95-2.11,3.3-3.31,4.89-2.3,3.04-7.34,2.49-10.17-.07s-4.04-6.4-5.24-10.02c-2.55-7.69-7.04-16.41-15.09-17.27-2.71-.29-5.41.41-8.13.53-10.59.49-21.98-7.46-31.01-1.91-4.83,2.97-7.1,9.02-11.9,12.04-3.54,2.22-7.97,2.48-11.76,4.26-7.22,3.38-10.86,11.62-12.29,19.47-1.43,7.85-1.31,16.03-3.92,23.57-2.56,7.41-7.72,15.35-4.25,22.39,4.08,8.27,16.01,7.52,24.15,11.86,2.81,1.5,5.37,3.73,8.53,4.15,5.87.78,11.99-4.95,17.22-2.15,2.53,1.35,3.76,4.28,5.86,6.23,3.71,3.43,10.6,4.63,10.88,9.68.16,2.92-2.28,5.36-2.77,8.24-.92,5.39,5.08,10.11,4.32,15.52-1.19,8.49-15.41,7.28-19.88,14.6-1.39,2.28-1.63,5.16-3.26,7.27-.38.5-.91.9-1.5,1.19-.51,1.23-1.59,2.35-3.7,3.29Z"/>
        <g>
          <path class="cls-2" d="m220.74,294.11c4.49-1.94,5.88-7.94,10.09-10.43,2.27-1.34,5.02-1.45,7.6-1.95,13.57-2.62,22.26-15.56,29.42-27.39,2.92-4.82,5.37-12.11.64-15.18-3.33-2.17-7.71-.24-11.68-.29-8.01-.1-14.25-8.37-22.26-8.24-4.15.06-9.61,1.85-11.54-1.84-1.82-3.49,2.51-7.15,6.39-7.83,3.88-.68,8.42-.4,11.04-3.34,1.24-1.4,1.92-3.42,3.62-4.18,2.24-1,4.64.76,6.96,1.53,6.46,2.16,12.72-3.42,17.26-8.5,3.91-4.36,8.09-10.18,5.75-15.55-1.68-3.86-6.07-5.63-10.04-7.03-5.68-2-11.37-4-17.05-6.01-3.15-1.11-6.52-2.38-8.36-5.17-1.84-2.78-.99-7.49,2.28-8.19,1.22-.26,2.48.07,3.68.41,8.94,2.48,18.18,5.12,25.25,11.12,1.66,1.41,3.27,3.05,5.38,3.61,4.75,1.27,9.28-3.42,14.19-3.09,2.2.15,4.5,1.29,6.5.35,1.49-.7,2.25-2.33,2.9-3.84,1.4-3.25,2.79-6.76,3.39-10.24-1.06,1.82-2.39,3.48-3.92,4.82-3.14,2.75-7.9,4.77-11.35,2.42-1.86-1.27-2.78-3.48-4.15-5.27-1.37-1.79-3.81-3.26-5.79-2.19-1.76.95-2.11,3.3-3.31,4.89-2.3,3.04-7.34,2.49-10.17-.07s-4.04-6.4-5.24-10.02c-2.55-7.69-7.04-16.41-15.09-17.27-2.71-.29-5.41.41-8.13.53-10.59.49-21.98-7.46-31.01-1.91-4.83,2.97-7.1,9.02-11.9,12.04-3.54,2.22-7.97,2.48-11.76,4.26-7.22,3.38-10.86,11.62-12.29,19.47-1.43,7.85-1.31,16.03-3.92,23.57-2.56,7.41-7.72,15.35-4.25,22.39,4.08,8.27,16.01,7.52,24.15,11.86,2.81,1.5,5.37,3.73,8.53,4.15,5.87.78,11.99-4.95,17.22-2.15,2.53,1.35,3.76,4.28,5.86,6.23,3.71,3.43,10.6,4.63,10.88,9.68.16,2.92-2.28,5.36-2.77,8.24-.92,5.39,5.08,10.11,4.32,15.52-1.07,7.65-12.74,7.43-18.29,12.67.81,4.94,5.8,9.62,10.98,7.39Z"/>
          <path class="cls-2" d="m208.18,288.65c-1.39,2.28-1.63,5.16-3.26,7.27-.38.5-.91.9-1.5,1.19-.51,1.23-1.59,2.35-3.7,3.29-1.16.52-2.43.72-3.69.82-3.79.3-7.16,2.96-8.53,6.45-.98,2.49-1,5.36-2.51,7.57-1.32,1.93-3.52,2.96-5.48,4.27,81.09-4.44,145.48-71.6,145.48-153.8,0-15.4-2.27-30.27-6.48-44.3-5.77-1.74-11.54-3.48-17.31-5.22,2.46,3.56,5.72,7.09,4.24,10.8-2.12,5.34-12.57,5.87-11.43,11.5.58,2.86,4,3.9,6.41,5.56,5.85,4.03,5.43,12.45,1.72,18.82-.6,3.48-2,6.99-3.39,10.24-.65,1.51-1.42,3.14-2.9,3.84-1.99.94-4.3-.2-6.5-.35-4.91-.33-9.44,4.36-14.19,3.09-2.1-.56-3.72-2.2-5.38-3.61-7.07-6.01-16.31-8.65-25.25-11.12-1.2-.33-2.46-.67-3.68-.41-3.26.71-4.12,5.41-2.28,8.19,1.84,2.78,5.21,4.06,8.36,5.17,5.68,2,11.37,4,17.05,6.01,3.97,1.4,8.36,3.17,10.04,7.03,2.34,5.37-1.84,11.18-5.75,15.55-4.55,5.08-10.8,10.66-17.26,8.5-2.32-.78-4.73-2.53-6.96-1.53-1.7.76-2.38,2.79-3.62,4.18-2.62,2.94-7.16,2.67-11.04,3.34-3.88.68-8.21,4.34-6.39,7.83,1.92,3.68,7.38,1.9,11.54,1.84,8.01-.12,14.25,8.14,22.26,8.24,3.97.05,8.35-1.88,11.68.29,4.73,3.07,2.28,10.36-.64,15.18-7.16,11.82-15.85,24.76-29.42,27.39-2.58.5-5.33.62-7.6,1.95-4.22,2.48-5.6,8.49-10.09,10.43-5.18,2.24-10.16-2.45-10.98-7.39-.61.57-1.14,1.21-1.58,1.93Z"/>
          <path class="cls-15" d="m208.18,288.65c-1.39,2.28-1.63,5.16-3.26,7.27-.38.5-.91.9-1.5,1.19-.51,1.23-1.59,2.35-3.7,3.29-1.16.52-2.43.72-3.69.82-3.79.3-7.16,2.96-8.53,6.45-.98,2.49-1,5.36-2.51,7.57-1.32,1.93-3.52,2.96-5.48,4.27,81.09-4.44,145.48-71.6,145.48-153.8,0-15.4-2.27-30.27-6.48-44.3-5.77-1.74-11.54-3.48-17.31-5.22,2.46,3.56,5.72,7.09,4.24,10.8-2.12,5.34-12.57,5.87-11.43,11.5.58,2.86,4,3.9,6.41,5.56,5.85,4.03,5.43,12.45,1.72,18.82-.6,3.48-2,6.99-3.39,10.24-.65,1.51-1.42,3.14-2.9,3.84-1.99.94-4.3-.2-6.5-.35-4.91-.33-9.44,4.36-14.19,3.09-2.1-.56-3.72-2.2-5.38-3.61-7.07-6.01-16.31-8.65-25.25-11.12-1.2-.33-2.46-.67-3.68-.41-3.26.71-4.12,5.41-2.28,8.19,1.84,2.78,5.21,4.06,8.36,5.17,5.68,2,11.37,4,17.05,6.01,3.97,1.4,8.36,3.17,10.04,7.03,2.34,5.37-1.84,11.18-5.75,15.55-4.55,5.08-10.8,10.66-17.26,8.5-2.32-.78-4.73-2.53-6.96-1.53-1.7.76-2.38,2.79-3.62,4.18-2.62,2.94-7.16,2.67-11.04,3.34-3.88.68-8.21,4.34-6.39,7.83,1.92,3.68,7.38,1.9,11.54,1.84,8.01-.12,14.25,8.14,22.26,8.24,3.97.05,8.35-1.88,11.68.29,4.73,3.07,2.28,10.36-.64,15.18-7.16,11.82-15.85,24.76-29.42,27.39-2.58.5-5.33.62-7.6,1.95-4.22,2.48-5.6,8.49-10.09,10.43-5.18,2.24-10.16-2.45-10.98-7.39-.61.57-1.14,1.21-1.58,1.93Z"/>
          <path class="cls-14" d="m318.51,121.4c-.34-.1-.67-.2-1.01-.3.04.41.08.83.15,1.24.55,3.31,1.36,6.56,2.1,9.83,1.9,8.41,1.64,16.93.9,25.49-1.01,11.68-3.21,23.22-5.7,34.67-1.03,4.77-2.42,9.44-3.83,14.1,2.03.82,3.68,2.74,3.66,5.04-.11,13.82-9.67,25.57-17.77,35.91-8.21,10.49-15.73,21.46-24.55,31.47-3.29,3.73-6.69,7.36-10.19,10.9,38.04-28.05,62.71-73.16,62.71-124.05,0-15.4-2.27-30.27-6.48-44.3Z"/>
        </g>
        <g>
          <path class="cls-15" d="m187.47,188.74c-.68,0-1.35.08-1.93.45-.47.29-.83.73-1.22,1.12-.66.66-1.32,1.32-1.97,1.99.03,0,.05,0,.08,0-.62.51-.91,1.33-.51,2.3.71,1.72,3.26,2.84,4.84,1.6.79-.63,1.59-1.25,2.38-1.88.41-.32.84-.61,1.16-1.01.51-.63.51-1.39.47-2.16-.08-1.6-1.96-2.43-3.3-2.41Z"/>
          <path class="cls-15" d="m211.18,171.78c-.33.1-.65.28-.98.4-.68.25-1.39.28-1.62,1.07-.14.48.26.95.6,1.21.95.72,2.39.38,3.48.2,2.36-.4.33-3.69-1.49-2.88Z"/>
          <path class="cls-15" d="m212.18,194.31c-.39-.91-1.82-1.66-2.56-.71-.92,1.19-1.65,3.28-.61,4.59.72.91,2,1.49,3.07.79.89-.58.71-1.51.67-2.43-.03-.83-.23-1.49-.56-2.24Z"/>
          <path class="cls-15" d="m232.9,210.28c.38-1.84-1.3-4.35-2.38-5.73-.67-.86-2.3-3.02-3.65-2.09-1.01.7-.66,2.32-.51,3.37.21,1.51.35,3.34,1.34,4.53,1.18,1.43,4.66,2.55,5.2-.08Z"/>
          <path class="cls-15" d="m228.84,179.86c.55-.28,1.1-.55,1.65-.83.32-.16.72-.3.99-.52.39-.32.58-.92.48-1.41-.14-.7-.66-1.4-1.38-1.61-.51-.15-1-.23-1.52-.11-.48.11-.74.4-1.08.72-.42.41-.85.82-1.27,1.23-.56.54-.46,1.27.02,1.84.44.53,1.41,1.05,2.11.7Z"/>
          <path class="cls-15" d="m238.9,150.71c-.41-.35-.86-.67-1.34-.91-.44-.25-.91-.41-1.4-.46-.52-.11-.62-.12-.3-.03-.39-.09-.72-.24-1.1-.36-.19-.06-.27-.07-.31-.07-.04-.03-.1-.07-.18-.12-1.27-.8-4.15-1.97-4.83.19-.56,1.76,1.33,3.72,2.58,4.73,2.15,1.74,5.87,2.73,7.8.29.78-.98-.16-2.61-.92-3.26Z"/>
          <path class="cls-15" d="m184.97,165.33c.75-1.4-.81-3.04-2.21-3.12-.82-.05-1.6-.08-2.38.23-.5.2-1,.54-1.47.8-.84.47-1.87,1.35-1.95,2.4-.07.85.48,1.64,1.31,1.91,1.21.41,2.67.31,3.85-.18,1.18-.49,2.22-.86,2.85-2.05Z"/>
          <path class="cls-15" d="m253.27,249.07c-.77.14-1.62.21-2.35.5-.46.18-.91.54-1.34.79-.97.58-1.71,1.39-2.52,2.18-1.72,1.68,1.2,4.31,3.03,3.46,1.13-.53,2.3-.99,3.31-1.73,1-.74,1.54-1.48,2.11-2.57.66-1.28-.93-2.85-2.24-2.62Z"/>
          <path class="cls-15" d="m235.84,267.79c-.82.08-1.64-.11-2.44.05-.69.14-1.35.21-2.05.29-1.72.18-1.01,2.32.24,2.69,1.01.29,2.1.44,3.15.36,1.01-.08,1.7-.7,2.42-1.34.93-.83-.37-2.13-1.32-2.04Z"/>
          <path class="cls-15" d="m253.69,264.12c-.6-.31-1.34-.25-1.6.45-.18.49-.46,1.02-.53,1.53-.06.49.3,1.19.85,1.21.55.02.84-.11,1.19-.54.27-.33.54-.67.81-1,.47-.58-.23-1.4-.71-1.64Z"/>
          <path class="cls-15" d="m277.71,171.05c-.39.22-.67.39-.89.8-.18.34-.32.71-.48,1.06-.18.41-.36.76-.15,1.2.14.31.37.58.72.66.34.08.62.09.93-.08.29-.15.52-.41.77-.62.24-.21.5-.41.71-.65.29-.31.35-.64.42-1.05.21-1.06-1.18-1.81-2.03-1.34Z"/>
          <path class="cls-15" d="m209.89,223.24c-.28.28-.42.34-.71.47-.31.14-.48.39-.77.56-.53.31-.05.97.24,1.21.49.41,1.14.74,1.79.71.54-.02,1.1-.17,1.58-.42.84-.44.9-1.3.3-2.01-.47-.57-1.75-1.2-2.42-.53Z"/>
        </g>
        <g>
          <path class="cls-9" d="m305.44,126.99c1.48-3.72-1.78-7.25-4.24-10.8-.24-.07-.49-.15-.73-.22-.82-.25-1.72-.23-2.48.16-1.23.64-.74,1.63-1,2.47-.4,1.34-2.2,1.47-3.6,1.55s-3.2,1-2.77,2.33c.35,1.11,1.94,1.22,2.68,2.12.78.95.32,2.45-.59,3.27-.91.82-2.13,1.17-3.26,1.66-4.49,1.96-7.72,7.63-5.34,11.91,1.98,3.56,6.57,4.53,9.85,6.93,2.85,2.09,4.74,5.44,5.06,8.97.13,1.48-.07,3.14-1.19,4.12-1.15,1.02-2.9.97-4.39.57-6.03-1.62-9.73-7.54-12.69-13.05-1.31-2.43-3.71-5.3-6.21-4.12-1.18.56-1.83,1.84-1.86,3.15-.05,3.2,2.53,5.56,2.62,8.68.04,1.26-.48,2.53-1.52,3.25-1.23.84-2.38.37-3.39-.19-5.58-3.1-8.62-9.2-11.85-14.71s-7.62-11.18-13.92-12.18c-6.04-.96-11.99,2.73-18.09,2.31-3.89-.27-7.45-2.17-11.08-3.61-4.46-1.76-9.44-2.74-14.2-2.46-1.14.67-2.3,1.33-3.35,2.12-3.26,2.44-4.39,5.82-6.27,9.25-3.42,6.24-8.29,9.81-15.61,9.95-4.35.09-8.05-.84-11.98,1.65-4.46,2.82-5.13,8.34-6.02,13.15-.76,4.07-1,8.01-2.39,11.95-1.67,4.72-2.28,7.33-.42,12.08,3.15,8.05-.47,13.65-2.16,21.5-1.69,7.89.56,17.37,6.52,23.01,3.62,3.42,7.06,3.22,11.81,3.33,3.7.09,6.99.71,10.45,2.1,4.31,1.73,10,4.93,15.57,6.49,1.21-.16,2.42-.37,3.61-.59,4-.76,8.2-1.58,12.09-.36s7.22,5.27,6.13,9.19c-.67,2.39-2.76,4.19-3.36,6.59-1.2,4.87,4.15,9.67,2.75,14.48-1.92,6.54-13.69,5.68-15.34,12.3-.8,3.21,1.4,6.83.16,9.82.59-.29,1.12-.69,1.5-1.19,1.62-2.12,1.87-5,3.26-7.27,4.47-7.32,18.69-6.11,19.88-14.6.76-5.42-5.24-10.13-4.32-15.52.49-2.88,2.93-5.32,2.77-8.24-.28-5.05-7.17-6.25-10.88-9.68-2.11-1.95-3.33-4.88-5.86-6.23-5.23-2.79-11.35,2.94-17.22,2.15-3.16-.42-5.72-2.65-8.53-4.15-8.14-4.34-20.07-3.59-24.15-11.86-3.47-7.04,1.68-14.98,4.25-22.39,2.61-7.54,2.49-15.72,3.92-23.57,1.43-7.85,5.07-16.08,12.29-19.47,3.79-1.77,8.22-2.04,11.76-4.26,4.81-3.02,7.07-9.07,11.9-12.04,9.03-5.55,20.42,2.39,31.01,1.91,2.72-.12,5.43-.82,8.13-.53,8.06.86,12.54,9.59,15.09,17.27,1.2,3.62,2.42,7.46,5.24,10.02s7.86,3.11,10.17.07c1.21-1.59,1.55-3.95,3.31-4.89,1.98-1.07,4.42.4,5.79,2.19,1.37,1.79,2.29,4,4.15,5.27,3.44,2.35,8.21.33,11.35-2.42,6.88-6.02,9.72-18.45,2.2-23.64-2.4-1.66-5.83-2.7-6.41-5.56-1.14-5.63,9.3-6.16,11.43-11.5Z"/>
          <path class="cls-10" d="m171.37,237.1c-4.76-.12-8.19.09-11.81-3.33-5.96-5.63-8.21-15.12-6.52-23.01,1.69-7.85,5.3-13.46,2.16-21.5-1.86-4.75-1.25-7.37.42-12.08,1.39-3.94,1.64-7.88,2.39-11.95.9-4.81,1.57-10.33,6.02-13.15,3.93-2.49,7.63-1.56,11.98-1.65,7.32-.15,12.2-3.71,15.61-9.95,1.88-3.44,3.02-6.82,6.27-9.25,1.06-.79,2.21-1.45,3.35-2.12-4.07.24-7.99,1.41-11.29,3.85-4,2.96-6.34,7.87-9.21,11.99-.75,1.07-2.4,2.13-3.7,2.25-1.23.11-2.46-.08-3.69-.1-1.36-.02-2.71.15-4.04.43-1.17.24-2.33.56-3.38,1.12-1.98,1.05-3.44,2.84-4.84,4.59-1.33,1.66-2.66,3.32-3.71,5.16-2.44,4.27-3.05,9.56-6.44,13.12-2.79,2.93-4.13,7.16-3.55,11.16.69,4.73,3.85,8.82,4.54,13.55,1.05,7.18-3.73,13.94-4.27,21.18-.23,3.1.33,6.22,1.33,9.17,1.53,4.53,4.33,8.93,8.66,10.95,6.97,3.25,15.65-.48,22.71,2.58,3.03,1.32,5.47,3.79,8.56,4.98,2.68,1.03,5.57.99,8.45.61-5.58-1.56-11.26-4.76-15.57-6.49-3.45-1.39-6.75-2.01-10.45-2.1Z"/>
        </g>
        <g>
          <path class="cls-24" d="m236.85,194.48c-.34,1.15-.94,2.21-1.37,3.33-1,2.61-1,5.48-.85,8.26.2,3.51.67,7.1,2.3,10.22,2.68,5.12,8.01,8.2,13.07,11,3.18,1.76,6.44,3.55,10.02,4.13,5.92.96,12.28-1.78,15.64-6.75,2.03-2.99,3.09-6.75,5.9-9.02,1.28-1.03,2.83-1.67,4.24-2.5,5-2.95,8.24-8.48,8.91-14.24s-1.1-11.68-4.39-16.47c-1.83-2.67-4.18-5.07-7.11-6.47s-6.48-1.68-9.4-.27c-.94.45-1.82,1.08-2.85,1.27-1.99.37-3.95-.96-5.97-.8-2.43.19-4.14,2.42-5.37,4.52s-2.48,4.48-4.75,5.36c-2.08.81-4.45.1-6.44-.93-1.37-.71-3.96-2.99-5.53-2.89-.82.05-2.92,1.68-3.65,2.39-2.63,2.57-1.48,6.59-2.42,9.84Z"/>
          <path class="cls-24" d="m236.58,203.5c-.81,4.58,1,9.34,3.93,12.95s6.88,6.25,10.91,8.57c1.42.82,2.87,1.61,4.45,2.05,4.62,1.28,9.86-.88,12.59-4.81,1.75-2.52,2.61-5.66,4.79-7.81,2.96-2.91,7.65-3.31,10.86-5.95,2.9-2.39,4.16-6.33,4.11-10.08s-1.24-7.39-2.52-10.92c-.64-1.76-1.57-3.75-3.4-4.14-.98-2.17-2.43-4.39-4.61-5.37-1.89-.85-4.11-.44-6.08.24-5.36,1.86-10.02,5.65-12.94,10.51-1.53,2.56-2.71,5.52-5.2,7.17-1.94,1.28-4.45,1.53-6.71.98-.84-.2-1.7-.51-2.54-.32-.64.14-1.18.55-1.7.95-.94.73-1.87,1.45-2.81,2.18-1.11.86-3.73,2.53-3.16,3.81Z"/>
          <g>
            <g>
              <path class="cls-5" d="m245.57,216.88c1.29-.13,2.5-.79,3.8-.86.77-.04,1.55.14,2.32.03,2.03-.27,3.24-2.3,4.46-3.94,2.11-2.85,5.05-5.09,8.37-6.36.22.7.22,1.46.02,2.16.93.33,1.88-.45,2.39-1.29s.82-1.85,1.58-2.46c1.04-.83,2.51-.66,3.82-.85s2.8-1.26,2.41-2.52c-.35-1.15-2.03-1.52-2.31-2.69-.46-1.96,3.3-2.72,3.21-4.73-.05-1.11-1.24-1.73-2.14-2.37-.9-.64-1.62-2.07-.74-2.74.71.78,1.76,1.24,2.81,1.23.6,0,1.24-.14,1.76.15.63.35.81,1.16.94,1.87.58,3.08,1.61,6.07,3.05,8.85.93-.5,1.19-1.75,1.02-2.79-.16-1.05-.64-2.03-.76-3.08-.11-.93.07-1.87.12-2.81.09-1.53-.15-3.01-.55-4.48-1.12-1.66-2.47-3.19-3.53-4.9-.78-1.27-1.41-2.66-2.5-3.68s-2.82-1.55-4.07-.75c-.74.47-1.2,1.33-2.02,1.64-1.1.41-2.25-.36-3.38-.68-1.74-.5-3.76.17-4.86,1.62-.94,1.23-1.89,4.04-3.3,3.41-1.41-.63-2.2-2.13-3.35-3.17-1.23-1.11-2.89-1.7-4.54-1.74-1.66-.04-3.33.31-4.83,1-1.8.83-3.44,2-4.81,3.43-.77.8-1.47,1.72-1.66,2.81-.24,1.38.39,2.79.21,4.19-.26,2.01-2.09,3.4-3.17,5.11-1.24,1.97-1.48,4.54-.62,6.7.41,1.04,1.05,1.98,1.55,2.98,1.06,2.13,1.47,4.52,2.22,6.78.04.11.08.21.12.32.24.37.49.73.75,1.08,1.49,1.99,3.72,3.77,6.2,3.53Z"/>
              <path class="cls-22" d="m242.54,217.64c.94.52,2,.77,2.96,1.26,1.89.95,3.23,2.7,4.93,3.97,1.99,1.49,4.53,2.28,7,2,2.47-.28,4.82-1.7,6.06-3.86.68-1.19,1.01-2.54,1.57-3.8,1.77-3.96,5.61-6.53,9.26-8.89,2.71-1.75,4.47.17,7.17-1.59,1.73-1.12,2.67-3.19,2.92-5.23s-.1-4.12-.45-6.15c-.36-2.1-.73-4.24-1.64-6.17-.33-.7-.73-1.35-1.16-1.99.4,1.46.63,2.95.55,4.48-.05.94-.23,1.88-.12,2.81.12,1.05.59,2.03.76,3.08.16,1.05-.09,2.29-1.02,2.79-1.44-2.78-2.47-5.77-3.05-8.85-.13-.71-.31-1.52-.94-1.87-.52-.29-1.16-.15-1.76-.15-1.05,0-2.1-.45-2.81-1.23-.88.67-.16,2.1.74,2.74.9.64,2.09,1.26,2.14,2.37.09,2.01-3.67,2.77-3.21,4.73.27,1.17,1.95,1.54,2.31,2.69.39,1.27-1.1,2.33-2.41,2.52s-2.78.03-3.82.85c-.77.61-1.08,1.61-1.58,2.46s-1.46,1.62-2.39,1.29c.21-.7.2-1.46-.02-2.16-3.31,1.27-6.25,3.5-8.37,6.36-1.22,1.64-2.43,3.67-4.46,3.94-.77.1-1.55-.07-2.32-.03-1.3.07-2.5.73-3.8.86-2.48.24-4.71-1.53-6.2-3.53-.26-.35-.51-.71-.75-1.08.75,2.15,1.94,4.27,3.93,5.36Z"/>
              <path class="cls-17" d="m242.54,217.64c.94.52,2,.77,2.96,1.26,1.89.95,3.23,2.7,4.93,3.97,1.99,1.49,4.53,2.28,7,2,2.47-.28,4.82-1.7,6.06-3.86.68-1.19,1.01-2.54,1.57-3.8,1.77-3.96,5.61-6.53,9.26-8.89,2.71-1.75,4.47.17,7.17-1.59,1.73-1.12,2.67-3.19,2.92-5.23s-.1-4.12-.45-6.15c-.36-2.1-.73-4.24-1.64-6.17-.33-.7-.73-1.35-1.16-1.99.4,1.46.63,2.95.55,4.48-.05.94-.23,1.88-.12,2.81.12,1.05.59,2.03.76,3.08.16,1.05-.09,2.29-1.02,2.79-1.44-2.78-2.47-5.77-3.05-8.85-.13-.71-.31-1.52-.94-1.87-.52-.29-1.16-.15-1.76-.15-1.05,0-2.1-.45-2.81-1.23-.88.67-.16,2.1.74,2.74.9.64,2.09,1.26,2.14,2.37.09,2.01-3.67,2.77-3.21,4.73.27,1.17,1.95,1.54,2.31,2.69.39,1.27-1.1,2.33-2.41,2.52s-2.78.03-3.82.85c-.77.61-1.08,1.61-1.58,2.46s-1.46,1.62-2.39,1.29c.21-.7.2-1.46-.02-2.16-3.31,1.27-6.25,3.5-8.37,6.36-1.22,1.64-2.43,3.67-4.46,3.94-.77.1-1.55-.07-2.32-.03-1.3.07-2.5.73-3.8.86-2.48.24-4.71-1.53-6.2-3.53-.26-.35-.51-.71-.75-1.08.75,2.15,1.94,4.27,3.93,5.36Z"/>
            </g>
            <path class="cls-8" d="m263.97,200.72c-.69-.35-1.41-.62-2.15-.83-2.26-.35-4.67-.19-6.83-.17-5.03.05-9.95-.99-14.95-1.45-1.15-.1-2.53-.34-3.53.32-.16.43-.2.92-.15,1.38.33,2.73,2.67,4.84,3.26,7.53.22.97.19,1.99.38,2.97s.64,1.99,1.51,2.47c1.36.76,3.03-.03,4.38-.81,1.27-.74,2.56-1.48,3.65-2.46.9-.81,1.66-1.78,2.64-2.48.86-.62,1.86-1.01,2.85-1.4,1.62-.64,3.28-1.28,5.02-1.41.85-.06,1.75,0,2.52-.37.89-.43,1.44-1.35,1.8-2.27.08-.2.15-.42.07-.62-.08-.2-.28-.32-.47-.41Z"/>
            <path class="cls-8" d="m239.36,188.06c-.12,1.48.86,3.1.09,4.37-.41.68-1.21,1.01-1.82,1.52s-1.03,1.49-.49,2.07c.19.2.45.3.71.39,2.91,1,6.09.6,9.17.68,4.17.11,8.27,1.12,12.44,1.29,1.05.04,2.28-.06,2.87-.93-.82-.64-1.75-1.14-2.75-1.46-.58-.19-1.23-.34-1.59-.83s-.12-1.41.49-1.37c-2.44-1.72-5.12-3.09-7.95-4.04,2.78,1.01,5.56,2.02,8.33,3.04.67.24,1.38.49,2.08.38.59-.09,1.11-.42,1.69-.57,1.39-.35,3.11.34,4.14-.65.09-.09.18-.2.19-.33.02-.22-.17-.39-.34-.52-4.42-3.33-10.98-3.44-14.53-7.69-.48-.58-.9-1.23-1.54-1.64-.85-.55-1.93-.57-2.94-.51-1.06.06-2.15.19-3.11.66-1.2.59-1.66,1.77-2.59,2.6-1.12,1.01-2.44,1.87-2.57,3.54Z"/>
            <path class="cls-8" d="m259.07,184.47c-.36.28-.84.65-.66,1.07.09.21.32.31.53.4,2.84,1.16,5.69,2.31,8.53,3.47.26.1.53.21.81.17.58-.08.89-.78.79-1.35s-.47-1.06-.78-1.55-.58-1.08-.44-1.64c.61-.32,1.26.36,1.56.98s.7,1.39,1.38,1.37c.49-.02.87-.49.95-.97s-.05-.97-.18-1.45c-.17-.6-.34-1.2-.51-1.8-.15-.52-.31-1.05-.65-1.46-.51-.61-1.33-.85-2.09-1.06-.7-.19-1.39-.38-2.09-.57-1.3-.35-2.95-.44-4.13.34-1.47.97-1.69,2.99-3.03,4.06Z"/>
            <path class="cls-8" d="m272.9,180.5c-.05-.34-.09-.68,0-1.01s.34-.64.68-.68c.43-.05.78.31,1.05.64.92,1.1,1.83,2.19,2.75,3.29.54.64,1.07,1.29,1.5,2,.26.44.49.95.41,1.46-.12.71-.82,1.2-1.52,1.31-4.75.74-4.38-3.68-4.85-7Z"/>
          </g>
        </g>
        <g>
          <path class="cls-24" d="m277.56,242.12c-.28,1.45-.47,2.95-1.17,4.26-.55,1.03-1.39,1.86-2.11,2.77-1.21,1.52-2.12,3.29-2.67,5.16-.45,1.53-.4,3.6,1.06,4.22,1.71.72,3.25-1.23,4.88-2.15,2.68-1.51,5.98-.07,9.03.28,5.89.68,11.79-3.25,14.18-8.68.79-1.79,1.25-3.72,1.76-5.61,1.54-5.66,3.61-11.18,4.61-16.96,1-5.78.84-11.98-1.89-17.16-1.11-2.11-3.18-4.22-5.51-3.71-2.11.46-3.17,2.79-3.9,4.82-1.31,3.6-2.61,7.2-3.92,10.8-1.22,3.37-2.08,6.4-5.19,8.49-1.83,1.23-3.81,1.82-5.23,3.61-2.13,2.68-3.27,6.55-3.92,9.86Z"/>
          <g>
            <path class="cls-17" d="m312.86,231.81l-11.31-22.63c-.58-1.16-1.26-2.25-2.03-3.29-.12-.17-.24-.33-.36-.49-.32-.44-.59-.84-.96-1.23-.31-.33-.35-.41-.84-.36-.04,0-.41.09-.35.07.06-.02-.16.15-.05.04-.15.16-.25.34-.41.49,0,0-.02.02-.03.03-2.32,5.49-4.25,11.14-5.76,16.9-1.71.02-2.92-2.31-5.11-.32-.62.56-1.07,1.3-1.38,2.08-1.95,4.96-3.91,9.91-5.86,14.87-.41,1.03-.82,2.17-.46,3.22.18.51.53.95.76,1.44,1.12,2.28-.35,4.96-1.97,6.92-1.3,1.58-2.8,3.24-3.27,5.15-.18.71.45,1.37,1.18,1.27,10.31-1.46,20.56-3.37,30.71-5.73,1.13-.26,2.47-.74,2.68-1.88.09-.49-.06-.99-.22-1.46-1.2-3.56-2.77-7-4.67-10.25,1.85-.56,3.82-.49,5.72-.86,1.58-.31,3.14-1.1,3.98-2.42.29-.47.28-1.07.04-1.56Z"/>
            <path class="cls-5" d="m297.55,206.08l13.2,24.33c.76.63.78,1.99.1,2.71-.71.74-1.9.75-2.87.43s-1.83-.92-2.79-1.27c-.61-.22-1.26-.34-1.83-.64-.82-.43-1.42-1.19-1.98-1.92-1.2-1.56-2.42-3.14-3.17-4.96-.6-1.45-.92-3.07-1.96-4.26-.12-.14-.27-.28-.45-.32-.39-.09-.71.31-1.09.46-.65.27-1.4-.28-1.62-.95s-.06-1.39.11-2.08c.45-1.9.9-3.8,1.36-5.7.38-1.59.76-3.2,1.51-4.65.25-.49.96-1.31,1.5-1.18Z"/>
            <path class="cls-5" d="m292.88,224.19c1.32,1.61,2.16,3.56,3.1,5.43,2.01,4.04,4.5,7.83,7.08,11.54.12.18.26.4.18.6-.11.28-.49.29-.78.24-1.29-.2-2.55-.57-3.73-1.1-.57-.26-1.3-.53-1.77-.11-.52.47-.19,1.36.31,1.84s1.18.88,1.38,1.55c.04.12.05.25,0,.36-.08.18-.3.24-.49.28-1.91.34-3.89-.35-5.81-.09-.4.05-.8.15-1.11.41s-.5.69-.36,1.07c.15.39.58.59.97.75,1.37.54,2.73,1.09,4.1,1.63.06.79-.94,1.15-1.72,1.26-4.39.65-8.72,1.74-12.9,3.25-1.2.43-2.39.9-3.63,1.25-.55.15-1.14.28-1.7.16s-1.09-.57-1.13-1.14c-.03-.45.23-.87.5-1.24,1.37-1.91,3.03-3.62,4.21-5.66.31-.53.59-1.11.63-1.72.05-.95-.48-1.82-.85-2.7-.47-1.15-.67-2.41-.52-3.64.18-1.49.85-2.86,1.52-4.2,1.23-2.47,2.48-4.93,3.36-7.55.61-1.83,1.39-4.92,3.63-5.38,2.03-.42,4.37,1.48,5.55,2.92Z"/>
          </g>
        </g>
        <g>
          <path class="cls-7" d="m275.49,295.83c.04-.94-.95-1.61-1.88-1.78-.93-.18-1.92-.07-2.79-.44-.87-.37-1.52-1.52-.93-2.25.29-.36.78-.49,1.23-.58,1.98-.4,4.02-.48,6.02-.23.63.08,1.3.18,1.89-.06.59-.24,1.02-1,.68-1.54-.08-.13-.2-.24-.25-.38-.18-.54.68-.81,1.23-.64.55.17,1.27.42,1.59-.06.3-.43-.09-1-.46-1.38-2.42-2.48-4.84-4.96-7.26-7.44-.51-.53-1.07-1.28-.72-1.93.27-.5.98-.61,1.51-.4.53.21.92.66,1.3,1.08,1.46,1.6,3.07,3.06,4.82,4.34.32.23.68.47,1.07.45.43-.03.78-.38.96-.78.5-1.09-.05-2.34-.46-3.46-.41-1.12-.61-2.58.31-3.34.92,1.38,1.26,3.07,1.57,4.7.63,3.29,1.27,6.57,1.9,9.86.46.18.88-.24,1.03-.73-.83-7.27-1.67-14.54-2.5-21.81-.2-1.75-.41-3.54-1.17-5.14-.57-1.21-1.45-2.29-1.8-3.58-.29-1.08-.75-2.68-1.83-2.36-.31.09-.54.34-.74.59-1.2,1.46-2.07,3.2-2.51,5.04-.39,1.63-.64,3.59-2.13,4.35-.98.5-2.18.27-3.23.61-2.22.71-2.88,3.47-4.37,5.28-1,1.22-2.42,2.01-3.54,3.12s-1.94,2.81-1.29,4.25c.43.97,1.48,1.68,1.55,2.74.1,1.54-1.89,2.35-3.42,2.19s-3.16-.76-4.57-.13c-.76.34-1.33,1-1.97,1.53-1.38,1.12-3.23,1.66-5,1.45-2.24-.27-4.63-1.63-6.57-.49-.93.55-1.48,1.55-2.17,2.38-1.62,1.94-4.23,3.01-6.75,2.76-2.27-.23-4.43-1.45-6.7-1.18-4.53.54-7.23,6.7-11.77,6.29-.99-.09-1.93-.51-2.89-.75-3.28-.83-7,.54-8.96,3.3-.78,1.1-1.3,2.38-2.18,3.39-1.95,2.24-5.17,2.72-8,3.65-.77.25-1.55.61-2.28,1.05-1.34,2.01-2.2,4.62-1.19,6.8.62,1.34,1.62,2.52,2.73,3.62,3.34,2.37,6.68,4.75,10.02,7.12,1.09.78,2.22,1.57,3.53,1.84,1.58.33,3.21-.14,4.81-.42,2.61-.46,5.3-.37,7.89.2l-2.6-1.81c-.66-.46-1.41-1.22-1.05-1.94,1.02.05,2.04.11,3.06.16.39.02.82.03,1.13-.21.42-.32.43-.98.18-1.44s-.69-.79-1.09-1.13c-1.29-1.1-2.34-2.49-3.03-4.04.97-.71,2.34-.28,3.36.35,1.02.63,2,1.46,3.2,1.54.21.01.42,0,.61-.1.42-.22.51-.79.45-1.26-.25-1.83-1.97-3.03-3.15-4.46-1.15-1.4-1.84-3.17-1.93-4.98,1.32-.3,2.25,1.22,2.85,2.43,1.6,3.24,4.04,6.06,7.02,8.11,0,0,.02.01.03.02,2.29,1.57,5.44,0,5.61-2.77.12-2.01-.44-4.3.64-6.05.83-.08,1.47.79,1.61,1.61.14.83-.04,1.68.1,2.51.14.83.79,1.69,1.62,1.6.48-.05.87-.41,1.19-.76.98-1.08,1.67-2.41,1.98-3.84.72-3.34,1.79-6.6,3.21-9.71,1.03,1.11.95,2.83.67,4.31-.91,4.89-3.27,9.37-5.61,13.76.38.07.76.07,1.14,0,.74-.15,1.25.76.79,1.36-.15.2-.33.39-.5.58,1.57-.55,3.38-.37,4.96-.96,2.84-1.06,4.18-4.24,5.21-7.1,1.45-4.01,2.9-8.03,4.35-12.04,5.2-.58,10.51-1.27,15.83-1.86.67-.27,1.36-.5,2.06-.66,1.17-.27,2.68-.71,2.73-1.91Z"/>
          <path class="cls-18" d="m240.06,318.42c-.37.07-.76.08-1.14,0,2.33-4.39,4.69-8.87,5.61-13.76.28-1.48.35-3.2-.67-4.31-1.41,3.11-2.49,6.37-3.21,9.71-.31,1.43-.99,2.76-1.98,3.84-.32.35-.71.71-1.19.76-.83.09-1.48-.77-1.62-1.6-.14-.83.04-1.68-.1-2.51-.14-.83-.78-1.7-1.61-1.61-1.07,1.76-.52,4.04-.64,6.05-.17,2.77-3.32,4.33-5.61,2.77,0,0-.02-.01-.03-.02-2.98-2.05-5.42-4.87-7.02-8.11-.6-1.21-1.53-2.73-2.85-2.43.09,1.81.78,3.58,1.93,4.98,1.18,1.43,2.89,2.62,3.15,4.46.06.47-.03,1.03-.45,1.26-.18.1-.4.11-.61.1-1.2-.07-2.18-.91-3.2-1.54-1.02-.63-2.4-1.06-3.36-.35.69,1.55,1.74,2.94,3.03,4.04.4.34.84.67,1.09,1.13s.24,1.12-.18,1.44c-.31.24-.74.23-1.13.21-1.02-.05-2.04-.11-3.06-.16-.36.72.39,1.48,1.05,1.94l2.6,1.81c2.23.49,4.38,1.32,6.32,2.51,2.25,1.38,4.73,3.29,7.24,2.46,2.12-.7,3.15-3.07,3.82-5.2.67-2.13,1.41-4.52,3.37-5.6.23-.13.48-.23.73-.32.17-.19.34-.38.5-.58.46-.6-.05-1.5-.79-1.36Z"/>
          <path class="cls-18" d="m288.26,296.96c.45-.34.43-1.02.37-1.58-.25-2.18-.5-4.36-.75-6.55-.16.49-.58.91-1.03.73-.63-3.29-1.27-6.57-1.9-9.86-.32-1.63-.65-3.31-1.57-4.7-.92.76-.72,2.22-.31,3.34.41,1.12.95,2.37.46,3.46-.18.39-.53.75-.96.78-.39.03-.75-.21-1.07-.45-1.74-1.28-3.36-2.74-4.82-4.34-.38-.42-.78-.87-1.3-1.08-.53-.21-1.24-.1-1.51.4-.35.65.2,1.4.72,1.93,2.42,2.48,4.84,4.96,7.26,7.44.37.38.76.94.46,1.38-.33.47-1.05.23-1.59.06-.55-.17-1.41.1-1.23.64.05.15.17.25.25.38.34.54-.09,1.29-.68,1.54-.59.24-1.26.14-1.89.06-2-.25-4.04-.17-6.02.23-.46.09-.94.22-1.23.58-.59.73.06,1.89.93,2.25.87.37,1.86.26,2.79.44.93.18,1.92.84,1.88,1.78-.05,1.2-1.56,1.64-2.73,1.91-.7.16-1.39.39-2.06.66,5.55-.61,11.11-1.1,16.57-1.21.35,0,.72-.02.99-.23Z"/>
        </g>
        <path class="cls-20" d="m49.78,254.37c-.57-1.62,1.5-2.92,2.71-1.7,1.7,1.72,3.67,3.11,6.16,3.22,1.91.08,3.77-.96,4.59-2.69,1.87-3.92-3.64-5.36-1.99-8.96.71-1.56,2.34-2.43,4.05-2.51,4.14-.18,8.16-2.05,11.02-5.04,1.41-1.47,2.63-3.44.96-5.74-.85-1.16-2.14-1.91-3.53-2.24l-17.34-4.05c-1.49-.35-3.39-1.28-2.98-2.8.19-.71.87-1.19,1.59-1.27,1.46-.16,2.59.71,3.84,1.23,4.01,1.69,8.76-.31,12.63-1.18,2.29-.52,4.03-2.51,3.97-4.86-.13-4.57-6.36-4.18-8.9-7.29-1.69-2.06-1.34-5.16-2.68-7.46-1.21-2.07-3.56-3.14-5.76-4.09-6.81-2.92-13.11-6.14-19.79-9.35-5.06-2.43-10.75-5.62-9.34-12.81.54-2.78,2.03-5.29,4.04-7.28,4.27-4.22,11.36-10.62,9.36-17.32-1.45-4.86-7.34-7.89-7.47-12.96-.08-3.06,2.03-6.4.35-8.96-.74-1.14-2.06-1.75-3.07-2.66-4.09-3.71-1.71-10.78,2.4-14.46,4.11-3.68,9.59-5.79,13.05-10.1,1.59-1.98,2.67-4.36,3.12-6.85.45-2.53.28-5.2,1.29-7.56.86-2.01,2.5-3.57,3.89-5.27,3.97-4.81,6.78-11.46,12.78-13.14,3.41-.96,7.17-.02,10.51-1.19,2.94-1.03,5.09-3.52,7.45-5.55,2.37-2.03,5.55-3.73,8.5-2.74,1.36.45,2.52,1.44,3.93,1.7,6.2,1.14,8.92-11.74,16.37-6.5,1.05.74,2.44.94,3.61.41,2.18-1,1.33-3.04,1.63-4.75.69-3.93,6.24-4.11,9.56-6.32,3.55-2.36,4.41-7.16,7-10.54,3.5-4.58,9.65-6.04,15.3-7.19l27.41-5.61c5.4-1.11,11.13-2.38,15.07-6.23.04-.04.08-.09.12-.13-7.91-1.25-16.01-1.92-24.27-1.92C85.87,11.66,16.9,80.63,16.9,165.71c0,37.89,13.69,72.58,36.39,99.41-.62-1.73-1.27-3.46-2.01-5.2-.5-1.17-1.07-4.32-1.5-5.55Z"/>
        <g>
          <path class="cls-10" d="m163.84,17.74c-5.92,1.78-11.52,4.71-17.64,5.58-7.99,1.13-17.92-.65-22.61,5.92-3.26,4.57-2.76,12.08-7.88,14.4-2.9,1.32-6.76.31-9.09,2.49-1.33,1.24-1.74,3.2-2.94,4.57-4.21,4.84-13.13-1.12-18.36,2.6-3.68,2.62-4.5,9.39-9.01,9.4-2.22,0-4.04-1.87-6.24-2.15-2.95-.38-5.41,2.11-7.28,4.43-7.4,9.15-13.14,19.44-18.84,29.73.22,2.27-.57,4.57-1.93,6.41s-3.26,3.22-5.31,4.21c-.65.31-1.33.59-1.91,1.02-1.24.9-1.96,2.35-2.46,3.79s-.84,2.96-1.56,4.31c-.47.89-1.09,1.69-1.61,2.55-2.1,3.48-3.63,8.16-1.61,11.68,1.77,3.09,2.16,6.94,1.05,10.32-.85,2.58-2.53,5.3-1.43,7.78,1.27,2.88,5.79,3.85,5.95,6.99.09,1.81-1.45,3.29-3.05,4.15-1.6.86-3.41,1.42-4.69,2.7-.91.91-1.46,2.1-1.91,3.3-3.72,10.04.03,22.33,8.72,28.59,2.04,1.47,4.33,2.65,6.06,4.48,1.28,1.35,2.21,3.03,3.68,4.17,3.9,3.04,10.61,1.66,13.32,5.8,2.14,3.27-.69,8.35-4.59,8.49-1.54.05-3.32-.44-4.47.59-1.21,1.08-.81,3.08-.03,4.5s1.87,2.83,1.78,4.45c-.05.87-.45,1.69-.45,2.55-.01,1.85,1.72,3.23,3.41,4s3.6,1.3,4.78,2.74c1.7,2.07,1.03,5.51-1.14,7.09-2.17,1.58-5.35,1.34-7.52-.23-1.88-1.36-3.88-3.73-5.97-2.73.49,3.06.73,6.17.7,9.27,0,.48-.08,1.02-.29,1.44,3.61,5.59,7.56,10.92,11.84,15.98-.62-1.73-1.27-3.46-2.01-5.2-.5-1.17-1.07-4.32-1.5-5.55-.57-1.62,1.5-2.92,2.71-1.7,1.7,1.72,3.67,3.11,6.16,3.22,1.91.08,3.77-.96,4.59-2.69,1.87-3.92-3.64-5.36-1.99-8.96.71-1.56,2.34-2.43,4.05-2.51,4.14-.18,8.16-2.05,11.02-5.04,1.41-1.47,2.63-3.44.96-5.74-.85-1.16-2.14-1.91-3.53-2.24l-17.34-4.05c-1.49-.35-3.39-1.28-2.98-2.8.19-.71.87-1.19,1.59-1.27,1.46-.16,2.59.71,3.84,1.23,4.01,1.69,8.76-.31,12.63-1.18,2.29-.52,4.03-2.51,3.97-4.86-.13-4.57-6.36-4.18-8.9-7.29-1.69-2.06-1.34-5.16-2.68-7.46-1.21-2.07-3.56-3.14-5.76-4.09-6.81-2.92-13.11-6.14-19.79-9.35-5.06-2.43-10.75-5.62-9.34-12.81.54-2.78,2.03-5.29,4.04-7.28,4.27-4.22,11.36-10.62,9.36-17.32-1.45-4.86-7.34-7.89-7.47-12.96-.08-3.06,2.03-6.4.35-8.96-.74-1.14-2.06-1.75-3.07-2.66-4.09-3.71-1.71-10.78,2.4-14.46,4.11-3.68,9.59-5.79,13.05-10.1,1.59-1.98,2.67-4.36,3.12-6.85.45-2.53.28-5.2,1.29-7.56.86-2.01,2.5-3.57,3.89-5.27,3.97-4.81,6.78-11.46,12.78-13.14,3.41-.96,7.17-.02,10.51-1.19,2.94-1.03,5.09-3.52,7.45-5.55,2.37-2.03,5.55-3.73,8.5-2.74,1.36.45,2.52,1.44,3.93,1.7,6.2,1.14,8.92-11.74,16.37-6.5,1.05.74,2.44.94,3.61.41,2.18-1,1.33-3.04,1.63-4.75.69-3.93,6.24-4.11,9.56-6.32,3.55-2.36,4.41-7.16,7-10.54,3.5-4.58,9.65-6.04,15.3-7.19l27.41-5.61c4.68-.96,9.6-2.04,13.4-4.82-10.02-.05-20.04-.25-29.57,2.62Z"/>
          <path class="cls-2" d="m195.21,13.58c-7.91-1.25-16.01-1.92-24.27-1.92C85.87,11.66,16.9,80.63,16.9,165.71c0,30.75,9.02,59.39,24.54,83.43.21-.42.28-.96.29-1.44.03-3.1-.2-6.21-.7-9.27,2.09-1,4.09,1.37,5.97,2.73,2.17,1.57,5.36,1.81,7.52.23,2.17-1.58,2.84-5.02,1.14-7.09-1.18-1.43-3.09-1.97-4.78-2.74s-3.42-2.14-3.41-4c0-.87.4-1.69.45-2.55.1-1.62-1-3.03-1.78-4.45s-1.18-3.42.03-4.5c1.15-1.03,2.93-.54,4.47-.59,3.9-.14,6.73-5.22,4.59-8.49-2.71-4.14-9.42-2.76-13.32-5.8-1.46-1.14-2.4-2.82-3.68-4.17-1.73-1.83-4.02-3.01-6.06-4.48-8.68-6.25-12.43-18.55-8.72-28.59.45-1.2,1-2.4,1.91-3.3,1.28-1.28,3.1-1.84,4.69-2.7,1.6-.86,3.14-2.34,3.05-4.15-.16-3.14-4.67-4.12-5.95-6.99-1.1-2.48.58-5.21,1.43-7.78,1.12-3.38.73-7.23-1.05-10.32-2.02-3.53-.5-8.2,1.61-11.68.52-.86,1.14-1.66,1.61-2.55.72-1.35,1.06-2.87,1.56-4.31s1.22-2.9,2.46-3.79c.59-.42,1.26-.7,1.91-1.02,2.06-.99,3.95-2.37,5.31-4.21s2.14-4.14,1.93-6.41c5.7-10.3,11.44-20.59,18.84-29.73,1.87-2.31,4.33-4.81,7.28-4.43,2.2.28,4.02,2.16,6.24,2.15,4.52-.01,5.33-6.79,9.01-9.4,5.23-3.72,14.15,2.24,18.36-2.6,1.19-1.37,1.61-3.33,2.94-4.57,2.33-2.18,6.19-1.18,9.09-2.49,5.11-2.32,4.61-9.83,7.88-14.4,4.69-6.57,14.62-4.8,22.61-5.92,6.12-.86,11.72-3.8,17.64-5.58,9.53-2.87,19.55-2.67,29.57-2.62.59-.43,1.15-.89,1.68-1.41.04-.04.08-.09.12-.13Z"/>
          <path class="cls-21" d="m195.21,13.58c-7.91-1.25-16.01-1.92-24.27-1.92C85.87,11.66,16.9,80.63,16.9,165.71c0,30.75,9.02,59.39,24.54,83.43.21-.42.28-.96.29-1.44.03-3.1-.2-6.21-.7-9.27,2.09-1,4.09,1.37,5.97,2.73,2.17,1.57,5.36,1.81,7.52.23,2.17-1.58,2.84-5.02,1.14-7.09-1.18-1.43-3.09-1.97-4.78-2.74s-3.42-2.14-3.41-4c0-.87.4-1.69.45-2.55.1-1.62-1-3.03-1.78-4.45s-1.18-3.42.03-4.5c1.15-1.03,2.93-.54,4.47-.59,3.9-.14,6.73-5.22,4.59-8.49-2.71-4.14-9.42-2.76-13.32-5.8-1.46-1.14-2.4-2.82-3.68-4.17-1.73-1.83-4.02-3.01-6.06-4.48-8.68-6.25-12.43-18.55-8.72-28.59.45-1.2,1-2.4,1.91-3.3,1.28-1.28,3.1-1.84,4.69-2.7,1.6-.86,3.14-2.34,3.05-4.15-.16-3.14-4.67-4.12-5.95-6.99-1.1-2.48.58-5.21,1.43-7.78,1.12-3.38.73-7.23-1.05-10.32-2.02-3.53-.5-8.2,1.61-11.68.52-.86,1.14-1.66,1.61-2.55.72-1.35,1.06-2.87,1.56-4.31s1.22-2.9,2.46-3.79c.59-.42,1.26-.7,1.91-1.02,2.06-.99,3.95-2.37,5.31-4.21s2.14-4.14,1.93-6.41c5.7-10.3,11.44-20.59,18.84-29.73,1.87-2.31,4.33-4.81,7.28-4.43,2.2.28,4.02,2.16,6.24,2.15,4.52-.01,5.33-6.79,9.01-9.4,5.23-3.72,14.15,2.24,18.36-2.6,1.19-1.37,1.61-3.33,2.94-4.57,2.33-2.18,6.19-1.18,9.09-2.49,5.11-2.32,4.61-9.83,7.88-14.4,4.69-6.57,14.62-4.8,22.61-5.92,6.12-.86,11.72-3.8,17.64-5.58,9.53-2.87,19.55-2.67,29.57-2.62.59-.43,1.15-.89,1.68-1.41.04-.04.08-.09.12-.13Z"/>
        </g>
        <g>
          <path class="cls-9" d="m307.31,99.99c-.18-.32-.36-.64-.54-.94-1.91-3.28-3.22-6.9-3.86-10.64.6.08,1.15.3,1.65.6-.74-1.28-1.49-2.54-2.26-3.8-1.63.87-2.76,2.5-2.75,4.37,0,2.24.65,4.49,1.88,6.36.65.99,1.47,1.93,1.72,3.09.25,1.16-.4,2.63-1.58,2.71-.62.04-1.19-.3-1.71-.63-1.38-.87-2.76-1.74-4.15-2.6-.42-.27-.88-.54-1.38-.53-1.26.04-1.68,1.74-1.49,2.99.2,1.35.6,2.96-.58,3.82-.62.45-1.48.46-2.17.12-2.56-1.24-2.49-4.88-5.61-5.49-1.4-.27-2.87.27-3.8,1.35-2.24,2.6-1.03,6.33,1.4,8.25.62.49,1.32.9,1.8,1.53.86,1.13.75,2.89-.25,3.9-.45.46-1.05.76-1.49,1.24-1.22,1.3-.95,3.42-1.4,5.07-.5,1.84-2.76,2.56-4.32,1.46,0,0-.01,0-.02-.01-2.39-1.68-5.97-3.04-7.68.27-.63,1.22-.7,2.65-.32,3.96.64,2.24.34,6.35-2.33,6.79-1.58-.49-2.21-2.41-2.26-4.07-.04-1.66.25-3.41-.45-4.91-.48-1.04-1.38-1.82-1.95-2.81-.85-1.46-.92-3.23-1.37-4.85-1.1-4.07-4.78-7.32-8.96-7.92-4.18-.6-8.62,1.49-10.82,5.08-1.53,2.49-2.11,5.68-6.02,6.32-2.47.4-4.96-.48-6.87-2.1-1.32-1.12-2.56-2.57-2.92-4.3-.29-1.4.12-2.86.96-4.01,1.58-2.15,2.6-4.62,2.86-7.27.03-.26.07-.52.12-.78.42-1.96,2.02-3.82,4.02-3.83,1.1,0,2.12.52,3.2.74,3.47.69,6.66-1.89,9.32-4.23s6.08-4.75,9.45-3.67c1.11.35,2.08,1.06,3.21,1.35,1.34.35,2.77.08,4.09-.35,3.98-1.3,7.69-4.37,8.01-8.73.19-2.59-1.06-5.16-3.4-6.29-3.88-1.89-7.28,1.62-11.05,1.48-3.59-.12-6.45-4.2-5.34-7.61.22-.69.58-1.37.52-2.1-.07-.82-.66-1.51-.88-2.3-.44-1.56.6-3.14,1.79-4.25,1.18-1.1,2.61-2.05,3.31-3.5.34-.71.49-1.5.81-2.21.45-.98,1.22-1.77,1.89-2.62,2.89-3.67,3.75-8.46,3.09-13.12-18.99-13.57-41.17-22.94-65.22-26.75-.04.04-.08.09-.12.13-3.95,3.85-9.67,5.12-15.07,6.23l-27.41,5.61c-5.65,1.16-11.79,2.61-15.3,7.19-2.59,3.38-3.46,8.18-7,10.54-3.32,2.21-8.88,2.39-9.56,6.32-.3,1.71.55,3.75-1.63,4.75-1.17.54-2.56.33-3.61-.41-7.44-5.24-10.16,7.64-16.37,6.5-1.41-.26-2.57-1.24-3.93-1.7-2.96-.99-6.14.71-8.5,2.74-2.37,2.03-4.51,4.52-7.45,5.55-3.34,1.17-7.1.23-10.51,1.19-6,1.69-8.82,8.33-12.78,13.14-1.39,1.69-3.03,3.25-3.89,5.27-1.01,2.36-.84,5.03-1.29,7.56-.45,2.5-1.53,4.88-3.12,6.85-3.45,4.3-8.93,6.42-13.05,10.1-4.11,3.68-6.49,10.75-2.4,14.46,1.01.91,2.32,1.52,3.07,2.66,1.68,2.56-.43,5.9-.35,8.96.13,5.07,6.02,8.1,7.47,12.96,2,6.7-5.09,13.1-9.36,17.32-2.02,1.99-3.5,4.5-4.04,7.28-1.4,7.19,4.28,10.38,9.34,12.81,6.68,3.2,12.98,6.43,19.79,9.35,2.2.95,4.55,2.02,5.76,4.09,1.34,2.3.99,5.4,2.68,7.46,2.54,3.11,8.77,2.72,8.9,7.29.07,2.35-1.68,4.35-3.97,4.86-3.87.87-8.62,2.86-12.63,1.18-1.25-.52-2.38-1.4-3.84-1.23-.73.08-1.4.56-1.59,1.27-.41,1.52,1.48,2.45,2.98,2.8l17.34,4.05c1.4.33,2.69,1.08,3.53,2.24,1.68,2.29.45,4.26-.96,5.74-2.86,2.99-6.88,4.85-11.02,5.04-1.71.08-3.34.95-4.05,2.51-1.65,3.6,3.86,5.04,1.99,8.96-.83,1.73-2.68,2.77-4.59,2.69-2.49-.11-4.46-1.5-6.16-3.22-1.21-1.22-3.28.08-2.71,1.7.43,1.24,1,4.38,1.5,5.55.74,1.74,1.39,3.47,2.01,5.2,1.08,1.28,2.17,2.54,3.29,3.78-.62-5.59-2.7-11.03-6.05-15.54-.19-.26.12-.58.39-.4l9.03,6.08c2.68,1.8,5.53,3.67,8.8,3.7,1.75.01,3.47-.66,4.71-1.9,2.94-2.94.46-5.71.74-8.56.4-4.11,5.55-5.48,8.88-7.91,4.54-3.32,6.03-9.63,5.11-15.17-.92-5.54-3.83-10.53-6.68-15.37-2.08-3.52-4.16-7.05-6.23-10.57-1.86-3.15-3.79-6.39-6.69-8.61-3.2-2.45-7.24-3.44-11.13-4.53-5.89-1.64-11.69-3.64-17.35-5.98-3.32-1.37-7.09-3.48-6.7-7.47.12-1.25.7-2.41,1.53-3.35,2.39-2.73,5.84-3.55,8.89-5.12,5.41-2.79,9.64-9.16,7.57-14.89-1.29-3.58-4.68-6.07-6.07-9.61-1.86-4.75.05-10.91-3.4-14.67-2.52-2.74-6.96-2.95-9.21-6.22-.76-1.1-1.02-2.51-.52-3.74,1.43-3.51,6.31-1.21,7.94-3.79.67-1.05.39-2.43.76-3.62.87-2.86,4.7-3.36,7.66-2.99,3.28.4,7.25.95,9.04-2.21.35-.62.54-1.34.59-2.05.28-3.85-2.55-6.91-2.93-10.56-.33-3.22,1.35-6.39,3.69-8.63,2.34-2.24,5.3-3.7,8.2-5.14,1.9-3.51,7.1-4.62,11.07-4.89,3.98-.27,8.37-.35,11.31-3.04,1.2-1.1,2.06-2.55,3.38-3.51,4.4-3.18,10.72.89,15.92-.68,4.88-1.47,7.74-7.61,12.83-7.84,4.57-.21,8.29,4.62,12.96,3.34.96-.26,1.85-.82,2.4-1.65,2.46-3.7-2.95-8.66-1.33-12.8,1.2-3.05,5.36-3.6,7.54-6.04,2.2-2.46,1.95-6.33,3.82-9.05,2.25-3.27,6.82-3.92,10.78-3.56,3.96.36,7.99,1.41,11.83.39,2.12-.57,5.26-1.23,5.61,1.12.2,1.34-.74,2.58-2.05,2.94-4.38,1.2-5.67,5.67-6.61,9.65-.18.74-.32,1.62.19,2.19.41.46,1.09.53,1.7.56,12.63.61,25.19-3.65,37.77-2.39-.49,2.7-2.8,4.62-4.74,6.57-1.39,1.39-2.7,3.17-3.02,5.03-.2,1.18.66,2.3,1.85,2.38,6.17.44,12.41-.15,18.38-1.74,1.76-.47,3.58-1.07,4.86-2.37s1.81-3.51.73-4.98c-1.06-1.43-3.52-2.34-2.53-4.24.36-.69,1.06-1.1,1.81-1.3,2.4-.62,3.31-3.79,1.96-5.69,1.4-.92,2.91.9,3.98,2.19,3.21,3.88,8.88,4.26,13.88,4.83,5,.57,10.8,2.36,12.31,7.16-1.93.42-3.91.86-5.54,1.96-1.63,1.1-2.86,3.04-2.54,4.99.19,1.18.91,2.45.3,3.48-1.12,1.89-5.12.26-4.16,5.23.25,1.31.77,2.57,1.46,3.71l4.7,7.84c.86,1.43,2.11,2.61,3.65,3.25,4.67,1.94,4.9-3.46,7.84-3.86,2.1-.29,3.78-.04,4.81,1.82,1.03,1.86.65,4.12-.96,5.51-4,3.45-9.81-1.75-14.79-.59-2.96.69-4.88,3.44-6.74,5.84-1.85,2.41-4.39,4.86-7.42,4.57-3.2-.31-6.19-3.71-9.17-.73-1,1-1.45,2.41-1.45,3.83,0,2.43-1.08,6.58-3.94,6.64-2.31.05-3.82-2.7-6.11-2.98-1.43-.17-2.83.71-3.66,1.88-2.23,3.14-.85,7.7,1.78,10.5s6.25,4.44,9.43,6.61c2.76,1.88,5.34,4.24,8.6,4.98,3.61.81,7.63-.73,9.76-3.75,1.53-2.17,2.26-5.1,4.57-6.43,1.61-.92,3.62-.8,5.4-.28,4.32,1.27,7.88,4.86,9.1,9.19.65,2.32.67,4.77,1.06,7.15.46,2.79,1.58,5.7,4.26,6.99,1.53.74,3.38.68,4.69-.41,2.03-1.68,1.53-4.47.61-6.68-.98-2.38-2.41-4.79-1.34-7.45.53-1.33,1.95-2.18,3.33-1.82,2.7.7,2.08,4.85,4.84,5.59,1.14.31,2.35-.17,3.15-1.04,2.68-2.91.82-7.61,3.08-10.61,1.02-1.35,2.77-2.17,3.32-3.77.56-1.61-.35-3.37-1.47-4.65-1.12-1.29-2.51-2.4-3.2-3.96-.69-1.56-.31-3.8,1.3-4.36,1.65,3.07,3.87,5.82,6.53,8.07.75.64,1.73,1.01,2.71.93,2.66-.21,3.04-3.34,2-5.33-.41-.79-1-1.62-.53-2.5.38-.7,1.26-.96,2.01-.71,1.53.51,2.07,2,2.79,3.27.58,1.03,1.51,2.06,2.69,2.05,1.13-.01,2.28-.94,3.3-1.51,1.81-1.01,2.52-3.26,1.52-5.08Z"/>
          <path class="cls-9" d="m257.34,53.45c-.67.85-1.44,1.64-1.89,2.62-.33.72-.47,1.5-.81,2.21-.7,1.46-2.12,2.4-3.31,3.5-1.18,1.1-2.22,2.69-1.79,4.25.22.8.81,1.48.88,2.3.06.72-.3,1.41-.52,2.1-1.1,3.42,1.75,7.49,5.34,7.61,3.78.13,7.18-3.37,11.05-1.48,2.33,1.14,3.58,3.7,3.4,6.29-.31,4.36-4.03,7.43-8.01,8.73-1.32.43-2.74.7-4.09.35-1.12-.29-2.1-1-3.21-1.35-3.38-1.07-6.79,1.34-9.45,3.67s-5.85,4.92-9.32,4.23c-1.08-.21-2.1-.74-3.2-.74-2,.01-3.61,1.87-4.02,3.83-.06.26-.09.52-.12.78-.26,2.65-1.29,5.12-2.86,7.27-.84,1.15-1.25,2.61-.96,4.01.36,1.73,1.6,3.18,2.92,4.3,1.91,1.62,4.4,2.51,6.87,2.1,3.9-.64,4.49-3.82,6.02-6.32,2.21-3.6,6.65-5.68,10.82-5.08,4.18.6,7.85,3.85,8.96,7.92.44,1.63.52,3.39,1.37,4.85.57.99,1.47,1.77,1.95,2.81.7,1.5.41,3.25.45,4.91.04,1.66.67,3.58,2.26,4.07,2.67-.45,2.97-4.56,2.33-6.79-.38-1.32-.31-2.75.32-3.96,1.71-3.31,5.3-1.95,7.68-.27,0,0,.01,0,.02.01,1.56,1.1,3.82.38,4.32-1.46.45-1.65.18-3.76,1.4-5.07.44-.47,1.04-.78,1.49-1.24,1-1.01,1.11-2.77.25-3.9-.48-.63-1.18-1.04-1.8-1.53-2.43-1.93-3.64-5.65-1.4-8.25.93-1.08,2.4-1.63,3.8-1.35,3.12.61,3.05,4.25,5.61,5.49.69.33,1.55.33,2.17-.12,1.18-.86.78-2.47.58-3.82-.19-1.25.23-2.94,1.49-2.99.5-.02.96.26,1.38.53,1.38.87,2.76,1.74,4.15,2.6.52.33,1.09.67,1.71.63,1.18-.08,1.83-1.55,1.58-2.71-.25-1.16-1.07-2.1-1.72-3.09-1.23-1.88-1.87-4.12-1.88-6.36,0-1.87,1.11-3.49,2.75-4.37-10.82-17.62-25.1-32.89-41.88-44.88.66,4.66-.2,9.45-3.09,13.12Z"/>
        </g>
        <g>
          <path class="cls-2" d="m295.91,82.14c-.69,2.75,1.8,5.41,2.79,8.03.46,1.21-1.11,2.17-2.02,1.26l-2.05-2.02c-.46-.46-1.13-.95-1.7-.63-.32.18-.46.55-.54.9-.28,1.2-.1,2.46-.24,3.69-.14,1.23-.75,2.56-1.94,2.91-1.05.31-2.14-.25-3.13-.71-5.5-2.52-12.24-2.07-17.36,1.14-1.25.78-2.43,1.73-3.97,1.85-.79.06-1.61-.17-2.15-.74-1.6-1.68.25-4.24,2.23-5.26,1.91-.99,4.31-1.76,4.96-3.8.25-.77.19-1.6.24-2.4.22-3.4,2.44-6.42,2.14-9.96-.06-.76-.28-1.51-.67-2.18-2.59-4.48-7.76-.15-10.53-3.38-.7-.81-.98-1.91-.92-2.98.16-2.77,1.98-4.83,2.99-7.24,1.06-2.55,1.19-5.39,1.11-8.15-.07-2.46-.29-4.97-1.26-7.24-.69-1.61-1.73-3.03-2.82-4.42-.22-.16-.43-.32-.65-.48.66,4.66-.2,9.45-3.09,13.12-.67.85-1.44,1.64-1.89,2.62-.33.72-.47,1.5-.81,2.21-.7,1.46-2.12,2.4-3.31,3.5-1.18,1.1-2.22,2.69-1.79,4.25.22.8.81,1.48.88,2.3.06.72-.3,1.41-.52,2.1-1.1,3.42,1.75,7.49,5.34,7.61,3.78.13,7.18-3.37,11.05-1.48,2.33,1.14,3.58,3.7,3.4,6.29-.31,4.36-4.03,7.43-8.01,8.73-1.32.43-2.74.7-4.09.35-1.12-.29-2.1-1-3.21-1.35-3.38-1.07-6.79,1.34-9.45,3.67s-5.85,4.92-9.32,4.23c-1.08-.21-2.1-.74-3.2-.74-2,.01-3.61,1.87-4.02,3.83-.06.26-.09.52-.12.78-.26,2.65-1.29,5.12-2.86,7.27-.84,1.15-1.25,2.61-.96,4.01.36,1.73,1.6,3.18,2.92,4.3,1.91,1.62,4.4,2.51,6.87,2.1,3.9-.64,4.49-3.82,6.02-6.32,2.21-3.6,6.65-5.68,10.82-5.08,4.18.6,7.85,3.85,8.96,7.92.44,1.63.52,3.39,1.37,4.85.57.99,1.47,1.77,1.95,2.81.7,1.5.41,3.25.45,4.91.04,1.66.67,3.58,2.26,4.07,2.67-.45,2.97-4.56,2.33-6.79-.38-1.32-.31-2.75.32-3.96,1.71-3.31,5.3-1.95,7.68-.27,0,0,.01,0,.02.01,1.56,1.1,3.82.38,4.32-1.46.45-1.65.18-3.76,1.4-5.07.44-.47,1.04-.78,1.49-1.24,1-1.01,1.11-2.77.25-3.9-.48-.63-1.18-1.04-1.8-1.53-2.43-1.93-3.64-5.65-1.4-8.25.93-1.08,2.4-1.63,3.8-1.35,3.12.61,3.05,4.25,5.61,5.49.69.33,1.55.33,2.17-.12,1.18-.86.78-2.47.58-3.82-.19-1.25.23-2.94,1.49-2.99.5-.02.96.26,1.38.53,1.38.87,2.76,1.74,4.15,2.6.52.33,1.09.67,1.71.63,1.18-.08,1.83-1.55,1.58-2.71-.25-1.16-1.07-2.1-1.72-3.09-1.23-1.88-1.87-4.12-1.88-6.36,0-1.87,1.11-3.49,2.75-4.37-.41-.68-.84-1.34-1.27-2.01-1.76-.91-3.46-1.89-5.13-1.06Z"/>
          <path class="cls-2" d="m261.08,40.81c1.08,1.38,2.13,2.81,2.82,4.42.97,2.27,1.19,4.78,1.26,7.24.07,2.76-.05,5.6-1.11,8.15-1.01,2.42-2.83,4.47-2.99,7.24-.06,1.07.22,2.17.92,2.98,2.77,3.22,7.94-1.11,10.53,3.38.38.66.6,1.41.67,2.18.3,3.54-1.92,6.56-2.14,9.96-.05.81,0,1.63-.24,2.4-.66,2.04-3.06,2.82-4.96,3.8-1.97,1.02-3.83,3.57-2.23,5.26.55.57,1.36.81,2.15.74,1.54-.12,2.72-1.07,3.97-1.85,5.12-3.21,11.87-3.65,17.36-1.14,1,.46,2.08,1.02,3.13.71,1.19-.35,1.8-1.68,1.94-2.91.14-1.23-.05-2.49.24-3.69.08-.35.23-.72.54-.9.57-.32,1.23.17,1.7.63l2.05,2.02c.92.91,2.48-.05,2.02-1.26-.99-2.62-3.47-5.28-2.79-8.03,1.67-.83,3.36.15,5.13,1.06-10.52-16.54-24.1-30.93-39.95-42.39Z"/>
          <path class="cls-15" d="m261.08,40.81c1.08,1.38,2.13,2.81,2.82,4.42.97,2.27,1.19,4.78,1.26,7.24.07,2.76-.05,5.6-1.11,8.15-1.01,2.42-2.83,4.47-2.99,7.24-.06,1.07.22,2.17.92,2.98,2.77,3.22,7.94-1.11,10.53,3.38.38.66.6,1.41.67,2.18.3,3.54-1.92,6.56-2.14,9.96-.05.81,0,1.63-.24,2.4-.66,2.04-3.06,2.82-4.96,3.8-1.97,1.02-3.83,3.57-2.23,5.26.55.57,1.36.81,2.15.74,1.54-.12,2.72-1.07,3.97-1.85,5.12-3.21,11.87-3.65,17.36-1.14,1,.46,2.08,1.02,3.13.71,1.19-.35,1.8-1.68,1.94-2.91.14-1.23-.05-2.49.24-3.69.08-.35.23-.72.54-.9.57-.32,1.23.17,1.7.63l2.05,2.02c.92.91,2.48-.05,2.02-1.26-.99-2.62-3.47-5.28-2.79-8.03,1.67-.83,3.36.15,5.13,1.06-10.52-16.54-24.1-30.93-39.95-42.39Z"/>
        </g>
        <g>
          <path class="cls-9" d="m222.73,89.34c-.97-.15-1.79-.96-1.96-1.93-.17-.96.33-2.01,1.18-2.48.54-.3,1.18-.38,1.75-.62.57-.24,1.11-.76,1.05-1.38-.04-.4-.33-.73-.51-1.09-.79-1.51.2-3.42-.31-5.05-.21-.67-.66-1.25-.87-1.92-.53-1.66.48-3.51-.02-5.17-.46-1.52-2-2.39-3.32-3.28-.64-.43-1.28-.98-1.73-1.61-.33.5-.53,1.12-.54,1.88-.01,1.45.77,2.77,1.57,3.97.8,1.2,1.68,2.43,1.9,3.86.27,1.77-.51,3.51-1.25,5.13-1.02,2.25-2.01,4.63-1.79,7.09s2.11,4.94,4.57,4.95c1.9,0,3.52-1.36,5.37-1.79-.36-.31-.72-.62-1.17-.79-1.24-.45-2.61.44-3.91.23Z"/>
          <path class="cls-9" d="m231.07,89.81c3.41.07,7.14-1.6,8.26-4.81.96-2.73-.17-5.74-1.66-8.22-1.95-3.26-4.5-6.11-7.04-8.94-1.3-1.45-2.64-2.93-4.35-3.87-2.16-1.19-6.75-1.53-8.32.84.45.63,1.09,1.18,1.73,1.61,1.32.89,2.86,1.76,3.32,3.28.5,1.66-.51,3.51.02,5.17.21.67.66,1.25.87,1.92.51,1.63-.48,3.53.31,5.05.19.36.47.69.51,1.09.06.62-.48,1.14-1.05,1.38-.57.24-1.21.32-1.75.62-.85.47-1.35,1.52-1.18,2.48.17.96,1,1.77,1.96,1.93,1.3.21,2.67-.68,3.91-.23.44.16.81.47,1.17.79.09-.02.19-.05.28-.07.98-.17,1.98-.04,2.98-.02Z"/>
          <path class="cls-2" d="m231.07,89.81c3.41.07,7.14-1.6,8.26-4.81.96-2.73-.17-5.74-1.66-8.22-1.95-3.26-4.5-6.11-7.04-8.94-1.3-1.45-2.64-2.93-4.35-3.87-2.16-1.19-6.75-1.53-8.32.84.45.63,1.09,1.18,1.73,1.61,1.32.89,2.86,1.76,3.32,3.28.5,1.66-.51,3.51.02,5.17.21.67.66,1.25.87,1.92.51,1.63-.48,3.53.31,5.05.19.36.47.69.51,1.09.06.62-.48,1.14-1.05,1.38-.57.24-1.21.32-1.75.62-.85.47-1.35,1.52-1.18,2.48.17.96,1,1.77,1.96,1.93,1.3.21,2.67-.68,3.91-.23.44.16.81.47,1.17.79.09-.02.19-.05.28-.07.98-.17,1.98-.04,2.98-.02Z"/>
        </g>
        <g>
          <path class="cls-7" d="m335.12,148.8c-2.02-2.67-4.03-5.34-6.05-8.01,1.85-3.66,3.66-7.45,5.56-11.19.11-.56.25-1.1.45-1.64.32-.88.68-2.06-.08-2.61-.6-.43-1.46-.06-1.98.47-.51.53-.87,1.23-1.48,1.64-.61.41-1.65.35-1.88-.35-.11-.35.01-.72.15-1.06.59-1.47,1.41-2.84,2.43-4.05.32-.38.68-.78.77-1.27.09-.49-.22-1.1-.72-1.1-.12,0-.24.03-.36,0-.44-.11-.24-.79.1-1.08s.82-.65.64-1.07c-.16-.38-.69-.37-1.1-.29-2.66.53-5.33,1.06-7.99,1.58-.57.11-1.3.15-1.57-.35-.21-.39.02-.91.38-1.16.37-.26.83-.32,1.27-.39,1.68-.27,3.32-.71,4.91-1.3.29-.11.6-.24.75-.51.17-.3.08-.68-.1-.97-.5-.79-1.55-.97-2.47-1.18-.91-.21-1.96-.7-2.06-1.64,1.3-.01,2.55.49,3.76.98,2.43.99,4.86,1.98,7.29,2.97.31-.22.22-.68-.04-.99-5.13-2.57-10.26-5.13-15.39-7.7-1.24-.62-2.5-1.25-3.87-1.43-1.04-.14-2.12-.03-3.12-.35-.84-.27-2.08-.65-2.33.19-.07.24,0,.5.07.74.44,1.42,1.21,2.73,2.23,3.81.9.95,2.09,1.96,1.95,3.26-.09.86-.75,1.55-.98,2.38-.48,1.76,1.05,3.38,1.59,5.12.37,1.18.28,2.45.54,3.66s1.02,2.47,2.24,2.67c-2.78,2.11-.01,2.88-.77,3.82s1.35,1.27,1.17,2.47c-.1.65.09,1.3.16,1.95.15,1.39-.29,2.83-1.19,3.9-1.13,1.35-3.05,2.34-3.13,4.11-.04.85.38,1.64.63,2.45.58,1.89.17,4.07-1.08,5.61-1.12,1.39-2.85,2.29-3.64,3.89-1.58,3.2,1.3,7.61-.91,10.42-.48.61-1.16,1.05-1.73,1.58-1.95,1.8-2.64,4.83-1.67,7.3.39.98,1.01,1.87,1.29,2.88.64,2.24-.43,4.56-1.03,6.81-.16.62-.26,1.28-.29,1.94.74,1.74,2.09,3.42,3.96,3.69,1.15.17,2.35.01,3.54-.24l8.96-3.53c.98-.38,1.98-.79,2.72-1.53.9-.9,1.28-2.17,1.78-3.33.82-1.91,2.03-3.64,3.51-5.1-.77.31-1.54.62-2.3.93-.59.24-1.41.4-1.73-.14l1.42-1.94c.18-.25.37-.52.35-.83-.03-.41-.46-.7-.87-.73s-.81.11-1.21.23c-1.27.38-2.63.47-3.95.26-.05-.94.82-1.66,1.67-2.06s1.82-.69,2.38-1.44c.1-.13.18-.28.2-.44.03-.37-.3-.67-.63-.83-1.31-.62-2.83,0-4.27.16-1.41.16-2.87-.15-4.09-.86.37-.99,1.76-.95,2.81-.83,2.81.34,5.71-.06,8.33-1.14,0,0,.02,0,.03-.01,2.01-.83,2.33-3.57.58-4.86-1.27-.94-3.01-1.55-3.7-3.01.3-.58,1.15-.63,1.75-.37.6.27,1.09.75,1.69,1.01s1.45.2,1.74-.38c.17-.34.1-.75.01-1.11-.29-1.11-.87-2.13-1.68-2.94-1.89-1.9-3.56-4-5-6.26,1.17-.2,2.26.59,3.12,1.4,2.82,2.69,4.75,6.16,6.64,9.57.21-.22.37-.47.48-.75.22-.55,1.04-.5,1.23.06.06.19.12.38.17.58.31-1.26,1.21-2.38,1.49-3.67.52-2.32-1-4.56-2.43-6.46Z"/>
          <path class="cls-18" d="m334.66,158.29c-.11.28-.28.53-.48.75-1.89-3.41-3.82-6.88-6.64-9.57-.86-.82-1.95-1.6-3.12-1.4,1.44,2.26,3.11,4.36,5,6.26.81.81,1.39,1.83,1.68,2.94.09.36.16.77-.01,1.11-.29.59-1.14.65-1.74.38-.6-.26-1.09-.74-1.69-1.01-.6-.27-1.45-.22-1.75.37.69,1.46,2.43,2.07,3.7,3.01,1.75,1.3,1.43,4.03-.58,4.86,0,0-.02,0-.03.01-2.62,1.08-5.52,1.47-8.33,1.14-1.05-.13-2.45-.17-2.81.83,1.23.71,2.68,1.02,4.09.86,1.44-.16,2.96-.78,4.27-.16.34.16.67.46.63.83-.01.16-.1.31-.2.44-.56.75-1.53,1.04-2.38,1.44-.85.4-1.72,1.12-1.67,2.06,1.31.21,2.67.12,3.95-.26.4-.12.8-.27,1.21-.23s.84.32.87.73c.02.31-.16.58-.35.83-.47.65-.94,1.29-1.42,1.94.32.55,1.14.38,1.73.14l2.3-.93c1.27-1.25,2.74-2.31,4.35-3.08,1.87-.89,4.18-1.7,4.71-3.7.45-1.7-.67-3.38-1.78-4.73-1.11-1.35-2.36-2.86-2.24-4.61.02-.21.05-.41.1-.61-.05-.19-.1-.39-.17-.58-.19-.56-1.01-.61-1.23-.06Z"/>
          <path class="cls-18" d="m341.2,117.46c-.03-.44-.48-.72-.88-.92-1.54-.77-3.08-1.54-4.62-2.31.26.31.35.77.04.99-2.43-.99-4.86-1.98-7.29-2.97-1.21-.49-2.45-.99-3.76-.98.1.93,1.15,1.43,2.06,1.64.91.21,1.96.39,2.47,1.18.18.29.26.67.1.97-.15.27-.46.4-.75.51-1.59.6-3.24,1.03-4.91,1.3-.44.07-.9.14-1.27.39-.37.26-.6.77-.38,1.16.28.51,1.01.47,1.57.35,2.66-.53,5.33-1.06,7.99-1.58.4-.08.94-.09,1.1.29.17.42-.3.78-.64,1.07-.35.29-.54.97-.1,1.08.12.03.24,0,.36,0,.5,0,.81.61.72,1.1-.09.49-.45.88-.77,1.27-1.02,1.21-1.84,2.58-2.43,4.05-.13.34-.26.71-.15,1.06.23.7,1.27.77,1.88.35.61-.41.97-1.11,1.48-1.64.51-.53,1.37-.9,1.98-.47.76.55.41,1.72.08,2.61-.2.53-.34,1.08-.45,1.64,1.98-3.91,4.03-7.77,6.3-11.4.14-.23.29-.48.27-.75Z"/>
        </g>
        <path class="cls-1" d="m234,328.86c-4.12-1.43-7.66-4.47-11.91-5.5-4.6-1.12-9.42.24-14.07-.79-4.52-1.01-8.37-3.63-12.62-5.32-4.6-1.82-9.56-1.64-14.42-1.91-4.46-.25-8.91-.52-13.36-.87-9.19-.72-18.38-1.74-27.47-3.31-18.54-3.21-36.04-9.16-51.71-19.71-8.64-5.81-16.75-12.47-24.25-19.69-7.07-6.81-12.97-14.66-19.93-21.55-1.44-1.42-2.92-2.68-4.49-3.78,1.35,2.18,2.74,4.34,4.19,6.45.18.27.37.53.56.8,1.7,2.44,3.47,4.83,5.31,7.16.22.28.44.56.67.84.92,1.15,1.85,2.3,2.8,3.42,1.08,1.28,2.17,2.54,3.29,3.78,1.11,1.22,2.24,2.42,3.38,3.61.26.27.53.54.79.81,1.05,1.07,2.11,2.13,3.19,3.17.1.09.19.19.29.29,7.25,6.97,15.18,13.22,23.67,18.68.03.02.05.03.08.05,4.51,2.89,9.18,5.55,13.99,7.96.09.04.17.09.26.13.91.46,1.83.9,2.76,1.34.07.03.15.07.22.1,3.84,1.81,7.76,3.47,11.76,4.97.1.04.21.08.31.12.91.34,1.83.67,2.75.99.18.06.37.13.55.19.92.32,1.84.63,2.76.93.11.04.22.07.33.11,3.99,1.29,8.05,2.41,12.17,3.37.24.06.47.11.71.17.9.2,1.8.4,2.7.59.25.05.51.1.76.16.93.19,1.86.37,2.79.55.1.02.2.04.3.05,1.68.31,3.37.58,5.07.83.01,0,.02,0,.04,0,1.4.21,2.81.4,4.23.57.22.03.44.06.66.08.91.1,1.82.2,2.73.29.32.03.63.06.95.09.9.08,1.8.16,2.71.22.29.02.58.04.87.06,3.5.24,7.02.37,10.58.37,2.87,0,5.73-.09,8.56-.24,4.6-.25,9.15-.72,13.64-1.37,3.17,2.25,6.33,4.5,9.5,6.75,1.09.78,2.22,1.57,3.53,1.84,1.58.33,3.21-.14,4.81-.42,2.61-.46,5.3-.37,7.89.2,2.23.49,4.38,1.32,6.32,2.51,2.25,1.38,4.73,3.29,7.24,2.46,1.15-.38,1.97-1.25,2.59-2.3-.34-.09-.68-.18-1.02-.3Z"/>
        <path class="cls-23" d="m322.39,117.25c.18-.13.39-.21.61-.27-.22.06-.42.14-.61.27Z"/>
        <path class="cls-23" d="m326.85,169.48c-.01.16-.1.31-.2.44.1-.13.18-.28.2-.44h0Z"/>
        <path class="cls-23" d="m325.9,158.09h0c.11-.22.3-.36.53-.44-.22.08-.41.22-.53.44Z"/>
        <path class="cls-23" d="m327.37,115.97c.4-.13.81-.27,1.2-.42.11-.04.22-.08.33-.14-.1.05-.22.1-.33.14-.4.15-.8.29-1.2.42Z"/>
        <path class="cls-23" d="m329.32,115.04c-.04.07-.09.13-.14.18.05-.05.1-.11.14-.18.04-.07.07-.15.08-.24-.01.08-.04.16-.08.24Z"/>
        <path class="cls-23" d="m332.23,121.99c-.25.3-.5.62-.73.94.23-.32.47-.63.73-.94.16-.19.33-.39.47-.59-.14.21-.31.4-.47.59Z"/>
        <path class="cls-23" d="m333,120.72c-.02.12-.06.24-.11.35.05-.11.09-.23.11-.35h0Z"/>
        <g>
          <path class="cls-1" d="m216.02,245.54c-3.61-3.07-8.41-2.89-12.86-2.23-8.69,1.29-12.74-3-19.94-6.52-5.92-2.9-11.85-1.07-17.95-2.82-8-2.3-12.61-11.11-11.11-19.03.09-.46-.57-.69-.72-.22-3.41,10.79,4.48,21.4,15.43,22.44,5.11.49,9.58.29,14.24,2.77,2.96,1.58,5.67,3.62,8.75,4.98,2.53,1.12,5.14,1.73,7.91,1.56,5.28-.32,10.8-3.85,15.55-.08.49.39,1.19-.45.7-.86Z"/>
          <path class="cls-1" d="m83.32,221.61c4.38,9.46,3.32,17.59-5.39,23.85-1.75,1.26-3.59,2.43-4.53,4.46-1.22,2.62.91,5.99-.48,8.22-.06.09.06.19.14.12.78-.68.86-.81,1.2-1.81,1.08-3.17.36-6.08,3.56-8.37,3.25-2.32,6.31-4.02,8.47-7.55,3.72-6.1,3.54-14.71-1.92-19.7-.56-.51-1.37.09-1.05.77Z"/>
          <path class="cls-1" d="m204.57,286.15c.08-.34-.41-.62-.59-.27-1.26,2.42-2.48,7.21.06,9.26.54.44,1.45.21,1.45-.59,0-1.23-.65-2.44-.95-3.64-.4-1.59-.35-3.17.04-4.76Z"/>
        </g>
      </g>
      <g>
        <path class="cls-24" d="m157.93,29.54c-.94-.43-2.01.73-1.82,1.74s1.16,1.71,2.15,2.02c2.52.81,5.35-.12,7.82,1.18.85.45,1.55,1.21,1.77,2.15.49,2.06-1.35,3.49-2.67,4.93-1.48,1.61-2.51,3.89-1.9,5.99.89,3.05,4.56,4.21,7.72,4.57,5.37.61,10.78.27,16.17-.27,1.68-.17,3.42-.32,4.97-.99.74-.32,1.89.38,2.32,1.3.55,1.18.13,2.57-.31,3.79s-.9,2.58-.43,3.8c.54,1.39,2.1,2.06,3.52,2.49,6.3,1.9,13.16,1.93,19.46.03,4.41-1.33,8.88-3.61,13.39-2.66,2.86.6,5.29,2.45,7.96,3.63s6.13,1.59,8.26-.41c.55-.51.97-1.15,1.57-1.59,1.48-1.08,3.53-.65,5.32-.24,2.56.59,5.16,1.03,7.77,1.33,2.63.3,5.45.44,7.4-2.34,1.31-1.86,1.61-4.25,1.01-6.45-1.04-3.81-4.16-6.51-7.26-8.86-24.21-18.32-56.09-26.13-86.02-21.1-2.92.49-5.82,1.1-8.65,1.98-2.9.9-6.91,2.41-9.52,3.95Z"/>
        <path class="cls-24" d="m262.94,50.63c-.39-1.38-.88-2.74-1.65-3.94-1.08-1.69-2.64-3.01-4.24-4.23-9.75-7.43-21.34-11.98-32.82-16.26-6.02-2.25-12.18-4.47-18.59-4.82-9.8-.54-19.47,3.4-27.3,9.32-1.06.8-2.14,1.71-2.55,2.97-.23.71-.24,1.49-.5,2.19-.62,1.68-2.5,2.49-4.21,2.99-.26.08-.58.21-.6.48-.02.17.16.32.26.34-.98,1.46-1.74,3.05-2.25,4.73-.75,2.46.44,4.54,2.74,5.7s5.01.91,7.57.64l15.36-1.63c1.14-.12,2.43-.2,3.29.56.94.83.95,2.31.6,3.51s-.97,2.35-1.04,3.61c-.14,2.53,2.12,4.69,4.58,5.33,2.45.64,5.04.13,7.53-.38,5.56-1.14,11.12-2.28,16.68-3.42,1.65-.34,3.47-.79,4.4-2.19.89-1.35.79-3.35,2.13-4.25,1.58-1.06,3.6.32,5.15,1.42,5,3.55,11.32,4.53,17.39,5.41,2.6.38,5.67.59,7.42-1.37,1.56-1.75,1.29-4.44.66-6.69Z"/>
        <g>
          <g>
            <path class="cls-19" d="m257.4,35.6c-1.11.45-2.36.07-3.49-.31-2.62-.88-5.25-1.76-7.88-2.64-3-1-6.13-2.1-8.25-4.45-.81-.9-1.43-1.95-2.27-2.82-1.81-1.86-4.42-2.67-6.62-4.06-2.2-1.39-4.15-3.95-3.32-6.42.33-1,1.07-1.81,1.5-2.76.43-.96.45-2.28-.42-2.87-.97-.66-2.26.03-3.27.63-3.39,2.03-7.27,3.22-11.21,3.44-1.43.08-3.16-.13-3.81-1.41-.2-.39-.28-.85-.6-1.14-.3-.27-.73-.32-1.13-.3-2.89.1-4.96,2.68-6.94,4.79-2.74,2.92-6.06,5.3-9.71,6.96-.75.34-1.55.66-2.38.67-.71.01-1.4-.2-2.09-.37-4.18-.98-8.55-.13-12.84-.04-1.16.02-2.44-.06-3.26-.88-.82-.81-.63-2.58.51-2.76-.23-.2-.43-.43-.61-.68-1.38.86-2.68,1.88-3.9,2.94-2.38,2.08-4.58,4.34-7.09,6.27-.82.63-2.25,1.31-2.24,2.51.02,1.64,2.01,2.1,3.24,2.28,2.89.44,5.79.88,8.68,1.31.46.07.96.16,1.3.48.78.75.17,2.05-.47,2.92-2.12,2.88-4.45,5.85-4.92,9.4-.08.6-.1,1.24.14,1.8.32.76,1.06,1.25,1.82,1.58,2.2.95,4.69.81,7.08.66,5.18-.33,10.36-.66,15.47-1.59,3.92-.71,7.96-1.77,11.82-.8.36.09.75.23.92.55.24.47-.1,1.01-.42,1.43-1.42,1.82-2.83,3.64-4.25,5.47-1.17,1.5-2.4,3.39-1.7,5.16.87,2.19,3.87,2.35,6.2,2.06,6.84-.83,13.61-2.26,20.17-4.36,1.64-.52,3.32-1.13,4.52-2.36,1.2-1.23,1.74-3.27.77-4.7-.57-.85-1.55-1.32-2.3-2-.76-.69-1.3-1.87-.72-2.71.23-.33.59-.54.92-.78,1.75-1.24,2.77-3.45,2.57-5.59,2.52,2.44,5.63,4.27,8.98,5.3,2.15.66,4.45,1.03,6.35,2.24,1.27.81,2.28,1.96,3.42,2.95,2.5,2.18,5.66,3.6,8.95,4.02.97.12,2.06.13,2.82-.49.88-.72,1.01-1.99,1.07-3.13l.71-13.43c.05-1.04.11-2.11-.21-3.1-.04-.12-.09-.22-.14-.33-.33.63-.82,1.16-1.47,1.42Zm-56.64-5.09c-1.21-.04-2.45-.06-3.59.38-1.8.69-2.98,2.37-4.4,3.67-2.28,2.1-5.38,3.29-8.48,3.27-2.01-.02-4.01-.52-6.01-.29-1.36.16-2.87.63-4.01-.12-.21-.14-.4-.32-.5-.55-.53-1.25,1.25-1.81,1.93-2.39.81-.69,1.17-1.57,1.65-2.49.65-1.26,1.33-2.52,2.6-3.26,3.09-1.81,7.58-1.44,10.97-2.58,1.48-.5,2.93-1.14,4.47-1.39,1.63-.26,3.3-.06,4.94.13,4.03.48,8.06.96,12.1,1.45,1.13.14,2.6.67,2.48,1.8-.09.78-.93,1.21-1.67,1.45-3.99,1.3-8.29,1.05-12.49.92Zm22.76,18.82c.13,1.02-.79,1.89-1.73,2.3-1.52.67-3.22.68-4.88.79-3.52.24-7.01.96-10.34,2.13-2.31.82-4.75,1.87-7.12,1.24-.56-.15-1.16-.47-1.27-1.03-.09-.46.19-.91.45-1.3,1.95-2.87,4.02-6.22,6.9-8.25,2.18-1.54,5.52-2.12,8.11-2.28,1.59-.1,3.25,0,4.69.68,1.91.89,3.25,2.66,4.5,4.36.3.41.61.84.68,1.35Z"/>
            <path class="cls-4" d="m248.22,27.29c-1.3-1.4-1.85-3.32-2.82-4.96-3.28-5.56-11.1-7.69-13.31-13.75-1.09-2.99-1.01-7.08-3.95-8.29-1.83-.75-3.89.14-5.63,1.07-3.99,2.14-8.09,4.67-12.61,4.5-3.36-.13-6.62-1.78-9.95-1.34-6.68.89-10.04,9.43-16.61,10.95-2.47.57-5.07.04-7.59.32-2.3.26-4.44,1.18-6.41,2.42.18.24.38.47.61.68-1.14.19-1.33,1.95-.51,2.76.82.81,2.1.9,3.26.88,4.3-.08,8.66-.94,12.84.04.69.16,1.38.38,2.09.37.83-.01,1.62-.33,2.38-.67,3.65-1.66,6.96-4.04,9.71-6.96,1.98-2.11,4.05-4.69,6.94-4.79.4-.01.83.04,1.13.3.32.29.4.75.6,1.14.65,1.28,2.37,1.49,3.81,1.41,3.94-.22,7.82-1.42,11.21-3.44,1.01-.6,2.29-1.29,3.27-.63.87.59.86,1.91.42,2.87-.43.96-1.17,1.77-1.5,2.76-.82,2.47,1.12,5.03,3.32,6.42,2.2,1.39,4.81,2.2,6.62,4.06.84.87,1.47,1.92,2.27,2.82,2.11,2.35,5.25,3.45,8.25,4.45,2.62.88,5.25,1.76,7.88,2.64,1.13.38,2.38.76,3.49.31.65-.26,1.15-.79,1.47-1.42-1.59-3.89-7.71-3.73-10.66-6.89Z"/>
            <path class="cls-4" d="m213.25,29.59c.74-.24,1.58-.68,1.67-1.45.13-1.13-1.34-1.67-2.48-1.8-4.03-.48-8.06-.96-12.1-1.45-1.64-.2-3.3-.39-4.94-.13-1.54.24-2.99.89-4.47,1.39-3.39,1.14-7.88.77-10.97,2.58-1.27.74-1.95,1.99-2.6,3.26-.48.92-.84,1.8-1.65,2.49-.68.58-2.46,1.14-1.93,2.39.1.23.29.41.5.55,1.15.75,2.65.28,4.01.12,1.99-.23,4,.27,6.01.29,3.1.03,6.2-1.17,8.48-3.27,1.42-1.3,2.6-2.99,4.4-3.67,1.13-.43,2.38-.41,3.59-.38,4.19.13,8.5.39,12.49-.92Z"/>
            <path class="cls-4" d="m218.34,43.62c-1.45-.68-3.1-.79-4.69-.68-2.59.17-5.93.75-8.11,2.28-2.89,2.03-4.95,5.38-6.9,8.25-.26.39-.54.83-.45,1.3.11.57.71.89,1.27,1.03,2.37.63,4.81-.43,7.12-1.24,3.33-1.18,6.82-1.9,10.34-2.13,1.65-.11,3.36-.13,4.88-.79.94-.42,1.87-1.28,1.73-2.3-.07-.5-.38-.94-.68-1.35-1.25-1.7-2.59-3.46-4.5-4.36Z"/>
          </g>
          <path class="cls-6" d="m195.05,42c.39,1.48,1.12,3.14,2.61,3.47.56.12,1.16.03,1.71.17.76.2,1.38.83,2.16.94,1.08.16,2.07-.76,2.39-1.8s.13-2.16-.07-3.23c-.26-1.46-.53-2.92-.79-4.39.82.79,1.04,1.99,1.39,3.07s1.05,2.23,2.18,2.39c.89.13,1.72-.42,2.55-.78,1.74-.75,3.71-.68,5.61-.6,1.41.06,2.89.14,4.08.89.79.49,1.41,1.26,2.28,1.58s2.14-.15,2.09-1.07c-.02-.35-.22-.67-.42-.96-2.22-3.26-4.43-6.53-6.65-9.79-.19-.27-.39-.56-.69-.69-.25-.1-.53-.08-.8-.06-2.45.2-4.9.4-7.35.6-.03,2.26.07,4.52.31,6.76-.69-1.8-1.52-3.55-2.47-5.23-.28-.5-.59-1-1.06-1.32-1.5-1.02-3.4.35-5.15.8-1.4.37-3.15.25-3.98,1.43-.55.78-.5,1.94-1.24,2.54-.83.67-2.38.42-2.76,1.41-.2.53.09,1.11.37,1.6.77,1.35,1.54,2.7,2.3,4.05-.11-.19-.44-4.11-.39-4.18,1.05-1.33,1.65,1.82,1.79,2.36Z"/>
          <path class="cls-6" d="m156.62,29.5c.31.85,1.36,1.11,2.25,1.26,2.08.33,4.15.66,6.23.99.57.09,1.16.18,1.72.05,1.64-.38,2.36-2.36,3.84-3.16-.7,1.02-1.29,2.13-1.74,3.29,1.28.84,3.05.57,4.35-.24s2.24-2.09,3.14-3.33c1-1.38,2.01-2.75,3.01-4.13-2.62-2.08-6.95,1.11-9.7-.81-.25-.18-.49-.4-.79-.46-.5-.1-.97.25-1.35.58-1.31,1.13-2.61,2.25-3.92,3.38,1.68-2.09,3.36-4.17,5.04-6.26-.76-.65-1.91.03-2.66.69-1.72,1.51-3.47,2.99-5.15,4.55-.65.61-4.28,3-4.28,3.6Z"/>
          <path class="cls-6" d="m165.19,46.08c-.17.49-.31,1.05-.05,1.49.31.52,1.01.61,1.6.78.63.18,1.22.52,1.88.56,1.01.07,1.95-.61,2.49-1.47s.75-1.87.95-2.87c-.3,1-.6,2-.89,2.99-.13.45-.26.95-.05,1.36.35.67,1.31.64,2.06.5,2.04-.36,4.08-.72,6.12-1.08.31-.06.63-.11.92-.24,1.15-.51,1.52-1.93,1.76-3.17.19,1.02.38,2.04.56,3.05.04.2.08.41.23.54.15.14.38.15.58.15,1.68,0,3.3-.57,4.88-1.14.36-.13.72-.26,1.01-.51.99-.84.6-2.42.14-3.63-.66-1.72-1.49-3.61-3.19-4.32-1.33-.55-2.83-.22-4.26-.15-1.22.06-2.46-.08-3.64-.41-.72,1.05-1.36,2.15-1.91,3.3.05-.92.11-1.83.16-2.75-.99.22-2.09.21-2.96-.31,0-.79-1.42-1.21-1.06-2.55-3.53,2.48-5.9,5.67-7.33,9.86Z"/>
          <path class="cls-6" d="m229.45,30.46c.82,2.65-.97,5.72.24,8.22.86-2.5,1.62-5.03,2.28-7.59.48-.14.93.36,1.06.84s.1,1.02.35,1.46c.31.54.94.79,1.44,1.16,1.68,1.28,1.51,3.8,1.38,5.91-.05.78-.07,1.6.25,2.32.63,1.46,2.35,2.05,3.89,2.49.59.17,1.21.34,1.82.25,1.84-.28,2.48-2.56,2.72-4.4,0,1.5-.02,3.01-.02,4.51,0,.41,0,.82.11,1.21.24.85.98,1.46,1.67,2.01,1.93,1.53,3.93,3.1,6.3,3.78,1.24.36,2.75.39,3.64-.55.72-.76.8-1.9.84-2.94.11-2.78.23-5.57.34-8.35.03-.67.05-1.36-.24-1.97-.43-.9-1.42-1.37-2.34-1.76-1.56-.67-3.13-1.34-4.69-2.01-.48,2.27-.96,4.54-1.44,6.8.21-2.28.25-4.57.14-6.86l-8.45-2.75c-.58.96-1.03,1.99-1.34,3.06-.06-1.38-.11-2.75-.17-4.13-.02-.38-.03-.78-.22-1.11-.33-.61-1.07-.83-1.71-1.09-1.04-.41-1.98-1.05-2.75-1.86-.89-.93-1.58-2.11-2.73-2.7-.62-.32-1.32-.44-1.99-.65-1.57-.5-2.95-1.55-3.85-2.92-.07-.11-.58,1.46-.26,2.02.44.76,1.55.94,2.04,1.69.47.71.4,1.45.53,2.26.22,1.32.78,2.37,1.17,3.63Z"/>
          <path class="cls-6" d="m203.22,20.79c-.28.49-.56,1-.57,1.56s.34,1.17.9,1.24c.49-.56,1.36-.6,2.07-.38s1.34.65,2.04.9c1.36.47,2.95.18,4.06-.74.92-.77,1.46-1.88,2.1-2.88.92-1.42,2.09-2.67,3.45-3.66.97-.71,2.13-1.45,2.29-2.64.02-.16.02-.33-.07-.46-.16-.22-.5-.21-.77-.16-1.34.21-2.68.42-4.02.63-1.14.18-2.32.37-3.26,1.03-1.5,1.05-2.09,3.06-3.57,4.13.45-1.06,3.03-7-.63-5.23-1.68.81-3.13,5.1-4.02,6.67Z"/>
          <path class="cls-6" d="m196.2,57.57c-.35.67-.66,1.43-.45,2.15.18.63.72,1.1,1.29,1.42,1.66.91,3.67.8,5.54.55,2.34-.31,4.65-.81,6.9-1.5.42-.13.86-.27,1.19-.56.76-.66.77-1.84,1.33-2.68,0,.67,0,1.35,0,2.02,0,.27.04.6.28.72.16.07.34.03.51-.02,2.18-.63,4.36-1.26,6.54-1.91.36-.11.73-.22,1.02-.45.68-.55.73-1.54.72-2.41,0-.34-.02-.71-.27-.95-.13-.12-.29-.18-.46-.24-.69-.25-1.38-.49-2.07-.74-.25-.09-.51-.18-.78-.2-.27-.02-.53.03-.8.09-2.84.57-5.7,1.15-8.4,2.22-1.01.4-2,.88-2.8,1.6s-1.4,1.73-1.43,2.82c-.07-.92-.13-1.84-.2-2.76,0-.11-.02-.23-.1-.3-.08-.08-.2-.09-.31-.09-.65,0-1.27.22-1.91.34-1.01.2-2.15.08-3-.53-.56-.41-.61-.85-1.24-.37-.47.36-.84,1.28-1.11,1.79Z"/>
        </g>
      </g>
    </g>
  </g>
</svg>