<?xml version="1.0" encoding="UTF-8"?>
<svg id="Layer_2" data-name="Layer 2" xmlns="http://www.w3.org/2000/svg" viewBox="0 0 340.05 357.24">
  <defs>
    <style>
      .cls-1 {
        fill: none;
      }

      .cls-2 {
        fill: #f7d943;
      }

      .cls-3 {
        fill: #ed8c2e;
      }

      .cls-4 {
        fill: #ebbd2f;
      }

      .cls-5 {
        fill: #fff966;
      }

      .cls-6 {
        fill: #ffeb9f;
      }

      .cls-7 {
        fill: #301503;
      }

      .cls-8 {
        fill: #a77219;
      }

      .cls-9 {
        fill: #e35f25;
      }

      .cls-10 {
        fill: #3f1e08;
      }

      .cls-11 {
        fill: #9c511d;
      }

      .cls-12 {
        fill: #5a87d0;
      }

      .cls-13 {
        fill: #3d1d08;
      }

      .cls-14 {
        fill: #844619;
      }
    </style>
  </defs>
  <g id="volcano_planet_2" data-name="volcano planet 2">
    <g>
      <path class="cls-9" d="m250.58,144.15c1.8-2.63,3.84-5.13,5.12-8.05.84-1.93,1.33-4.02,2.38-5.85,2.92-5.14,9.22-7.01,14.64-9.35,9.41-4.06,17.65-10.8,23.49-19.23.67-.96,1.34-2.02.5-3.44-1.07-1.81-3.49-2.31-5.31-1.25l-36.53,21.18c-5.36,3.11-10.95,6.29-17.12,6.84-8.44.74-16.53-3.6-23.14-8.91-6.61-5.31-12.34-11.72-19.45-16.33-19.36-12.56-45.35-9.78-65.52-21.15-.76-.43-1.49-.93-2.1-1.55-5.12-5.17.23-11.56,1.28-17.71.62-3.64-.32-7.37-.23-11.06.26-9.66,7.13-16.89,14.22-24.1-1.46.05-2.92.04-4.37-.03-3.11-.16-6.23,0-9.32.41-5.11,3.91-8.88,9.61-13.93,13.84-5.19,4.34-.47,12.64-.88,19.39-.15,2.39-1,4.67-1.32,7.04-1.31,9.78,6.82,18.65,15.95,22.42s19.27,3.96,28.96,5.85c14.6,2.84,28.4,9.7,39.48,19.62,6.36,5.69,11.89,12.4,19.08,16.98s16.86,6.66,24.18,2.28c3.07-1.84,7.43-4.52,9.51-1.61-1.19,7.29-7.01,12.81-10.64,19.25-2.81,5-4.3,10.6-5.77,16.14l-5.97,22.54c-.51,1.94-.35,4.04.64,5.79,2.04,3.59,4.88.13,6.98,3.19,1.36,1.99,1.17,4.68-.33,6.57-8.94,11.3-26.52,9.75-36.79,19.28-9.28,8.61-9.29,24.14-2.75,34.97s18.11,17.67,29.89,22.3c11.93,4.68,26.55,7.19,36.71-.62,2.82-2.17,5.08-4.99,7.92-7.12.93-.69,1.96-1.31,3.04-1.78,2.45-1.06,4.57,2.02,2.7,3.93-7.82,7.99-15.93,15.68-24.33,23.06-2.54,2.24-5.24,4.51-8.52,5.35-2.68.69-5.51.35-8.27.5-10.05.55-18.47,7.38-27.65,11.53-23.36,10.55-50.22-5.37-75.83-4.52-10.16.34-15.37-12.46-24.6-16.74-2.61-1.21-5.53-1.71-7.99-3.2-3.92-2.38-6.02-6.82-9.1-10.22-6.37-7.04-17.52-10.35-20.08-19.49-.86-3.08-.54-6.35-.55-9.55-.03-7.99-2.19-15.8-4.34-23.5-1.31-4.71-3.85-10.41-8.74-10.41-.81,0-1.62.17-2.42.39-3.2.9-6.36-1.51-6.52-4.82-.36-7.45-3.64-15.12-1.37-22.25,2.95-9.27,13.64-13.31,20.23-20.47,10.52-11.44,9.5-29.47,17.47-42.81,4.27-7.15,11.07-12.83,13.87-20.68,2.67-7.51,1.2-15.99-2.24-23.18-3.44-7.19-8.69-13.33-13.88-19.37-2.14-2.49-4.42-5.09-7.53-6.16-1.16-.4-2.38-.56-3.61-.63-4.94,2.84-9.34,6.49-13.52,10.42.35.03.7.06,1.05.12,6.93,1.24,11.46,7.76,15.2,13.73,4.61,7.35,9.21,14.69,13.82,22.04,1.07,1.71,2.17,3.5,2.36,5.51.35,3.89-2.72,7.13-5.33,10.04-7.13,7.95-12.32,17.62-15,27.95-1.38,5.31-2.17,10.93-5.15,15.53-6.37,9.81-21.58,13.33-23.78,24.82-.99,5.18,1.17,10.56.34,15.77-.75,4.69-3.87,8.77-3.5,13.8.12,1.68.77,3.33,1.99,4.49,4.29,4.08,10.48-.67,15.65.86,4.95,1.47,6.46,7.62,7.14,12.74,1.38,10.45,2.63,21.71-2.79,30.89-.48.81-.82,1.7-.84,2.64-.08,4.83,6.37,4.35,10.66,5.34,9.48,2.19,11.54,16.01,20.44,19.94,4.69,2.07,10.66,1.03,14.58,4.33,3.8,3.2,3.92,9.04,6.72,13.14,2.99,4.38,8.5,6.13,13.6,7.55,28.71,7.98,60.17,14.37,87.61,2.75,5.49-2.33,10.76-5.36,16.59-6.59,3.84-.81,7.86-.82,11.59-2.03,3.92-1.27,7.3-3.78,10.52-6.35,9.7-7.71,18.75-16.24,27.01-25.48,7.82-8.74,15.3-19.45,15.14-30.88-.03-2.24-2.68-3.46-4.42-2.06-3,2.42-4.86,6.89-7.09,10.35-9.01,14.03-29.17,14.47-45.62,11.78-10.89-1.78-22.94-5.14-28.32-14.77-2.74-4.91-3.26-10.71-3.65-16.32-.37-5.31-.35-11.46,3.7-14.92,2.87-2.44,6.91-2.75,10.55-3.7,10.82-2.82,25.1-14.96,34.09-25.55,1.98-2.33-.12-5.84-3.12-5.24-5.22,1.04-10.85,1.83-11.59-.41-.49-1.47-.19-3.06.1-4.58,2.81-14.33,5.8-29.11,14.03-41.16Z"/>
      <g>
        <path class="cls-3" d="m273.11,270.89c-1.08.47-2.11,1.08-3.04,1.78-2.85,2.13-5.1,4.95-7.92,7.12-10.16,7.81-24.78,5.3-36.71.62-11.78-4.63-23.35-11.46-29.89-22.3s-6.54-26.36,2.75-34.97c10.28-9.53,27.86-7.99,36.79-19.28,1.49-1.89,1.69-4.59.33-6.57-2.1-3.06-4.94.4-6.98-3.19-.99-1.75-1.16-3.84-.64-5.79l5.97-22.54c1.47-5.54,2.96-11.15,5.77-16.14,3.62-6.44,9.45-11.96,10.64-19.25-2.08-2.91-6.44-.22-9.51,1.61-7.32,4.38-16.98,2.3-24.18-2.28s-12.73-11.29-19.08-16.98c-11.08-9.92-24.88-16.78-39.48-19.62-9.69-1.89-19.83-2.08-28.96-5.85s-17.26-12.63-15.95-22.42c.32-2.37,1.17-4.66,1.32-7.04.41-6.75-4.31-15.05.88-19.39,5.06-4.23,8.82-9.94,13.93-13.84-8.11,1.1-15.96,4.14-22.69,8.79-1.21,5.51-1.4,11.17.03,17.27,1.69,7.22,3.43,15.13,4,22.89,1.51,4.12,2.49,8.53,2.72,12.93,3.04,6.63,7.79,12.03,15.84,12.3,8.6.29,17.29-3.54,25.8-.91,4.02,1.24,7.17,4.06,10.81,6.05,3.63,1.98,7.97,2.32,11.54,4.4,3.61,2.1,5.78,5.93,8.55,8.92,3.26,3.52,7.44,6.21,11.44,8.81,4.26,2.76,8.63,5.5,13.54,6.95,3.52,1.04,7.49.92,10.7,2.88,2.97,1.81,5.14,4.78,8.01,6.75,2.34,1.6,4.02,3.17,4.26,6.17.36,4.55-3.11,7.71-4.22,11.85-1.27,4.74.11,9.88-.81,14.72-.89,4.62-3.21,8.6-4.88,12.94-1.56,4.06-2.68,8.45-5.58,11.83-5.49,6.43-15.17,6.02-21.93,10.66-6.57,4.52-7.79,13.73-9.67,21-.14.55-.57.77-1,.76-.15.62-.25,1.26-.27,1.86,0,.06-.08.06-.09,0-.24-.72-.31-1.36-.22-2.03-.37-.21-.63-.62-.5-1.15,1.58-6.82,2.1-16.62,7.5-21.65,2.85-2.66,6.32-5.78,9.7-7.64,2.5-1.38,4.42-2.46,6.17-4.79,1.5-2,2.89-3.87,4.67-5.65,3.2-3.19,6.49-6.25,8.66-10.29,2.74-5.11,3.09-10.07,3.22-15.73.11-4.46.98-7.79,2.66-11.89,1.39-3.4.87-4.99-1.45-7.44-1.11-1.18-1.77-1.76-2.58-3.18-1.82-3.2-2.61-5.3-6.47-6.43-1.86-.55-3.79-.73-5.68-1.09-3.92-.75-7.54-2.19-10.97-4.22-6.4-3.78-13.53-9.14-18.2-14.91-2.13-2.63-3.67-5.4-6.84-6.97-2.13-1.05-4.35-1.23-6.65-1.74-3.77-.84-6.57-2.73-9.85-4.67-8.45-4.99-17.3-1.41-26.32-.65-6.74.57-13.17-1.05-17.74-6.29-.55-.63-1.06-1.31-1.53-2-.66,4.13-2.1,8.1-4.52,11.63-2.84,4.15-6.15,8.01-9.5,11.74-5.46,6.09-9.76,11.55-12.51,19.39-.08.24-.5.19-.46-.08.81-5.52,3.06-10.51,6.26-15.07,3.52-5,8.78-8.96,11.76-14.32,3.27-5.88,2.03-12.98.16-19.11-1.89-6.21-4.16-12.49-7.71-17.96-2.98-4.59-7.05-8.49-11.94-11-3.19-1.64-6.6-2.66-9.88-3.96-1.05.48-2.1.97-3.12,1.51-.53.28-1.05.58-1.56.87,1.23.06,2.45.22,3.61.63,3.1,1.07,5.39,3.67,7.53,6.16,5.19,6.05,10.44,12.19,13.88,19.37,3.44,7.19,4.92,15.67,2.24,23.18-2.79,7.85-9.59,13.53-13.87,20.68-7.97,13.34-6.95,31.37-17.47,42.81-6.59,7.16-17.28,11.2-20.23,20.47-2.27,7.13,1.01,14.8,1.37,22.25.16,3.32,3.32,5.73,6.52,4.82.81-.23,1.62-.39,2.42-.39,4.89,0,7.43,5.7,8.74,10.41,2.15,7.7,4.31,15.51,4.34,23.5.01,3.2-.31,6.47.55,9.55,2.56,9.14,13.71,12.45,20.08,19.49,3.08,3.4,5.17,7.84,9.1,10.22,2.46,1.49,5.38,1.99,7.99,3.2,9.22,4.27,14.44,17.08,24.6,16.74,25.61-.85,52.47,15.07,75.83,4.52,9.17-4.14,17.6-10.98,27.65-11.53,2.76-.15,5.59.19,8.27-.5,3.28-.84,5.97-3.11,8.52-5.35,8.39-7.38,16.51-15.07,24.33-23.06,1.87-1.91-.25-4.99-2.7-3.93Zm-73.75,36.4c-5.11,3.01-10.63,3.76-16.43,4.19-6.88.51-13.78.67-20.68.34-12.99-.62-24.38-3.27-34.52-11.69-5.6-4.65-11.65-5.83-18.22-8.34-3.53-1.35-6.94-3.16-9.29-6.19-2.36-3.03-3.08-7.17-5.72-9.98-1.98-2.11-4.66-2.73-7.24-3.73-3.4-1.31-6.46-3.05-8.08-6.44-1.6-3.33-1.43-7.03-3.24-10.34-1.08-1.97-2.41-3.79-3.35-5.84-2.46-5.36-2.18-10.98-2.95-16.69-1.53-11.34-11.35-19.79-11.43-31.65-.08-12.15,12.01-17.12,15.25-27.65,1.63-5.29,1.27-10.93,2.58-16.29,1.25-5.12,3.45-8.24,7.94-11.04,1.57-.98,3.74.8,2.74,2.51-2.7,4.64-2.35,11.93-2.55,17.2-.19,4.94-.54,9.95-2.58,14.52-4.01,8.96-15.27,14.8-12.12,25.83,1.4,4.91,4.23,9.29,5.85,14.12,1.54,4.61,2.07,9.16,1.71,14-.23,3.09-.87,6.23-.63,9.34.24,3.1,1.65,5.52,2.87,8.27,1.86,4.23,1.48,10.68,4.57,14.06,2.67,2.92,7.22,3.58,10.26,6.13,3.24,2.71,4.19,6.69,6.07,10.28,4.98,9.53,16.79,9,25.32,13.62,6.32,3.42,11.06,7.78,18.49,8.93,6.06.94,12.26,1.01,18.38.85,6.47-.17,12.99-.7,19.37-1.77,4.66-.78,10.25-1.73,14.21-4.45,11.75-8.06-2.47-19.9-8.42-25.84-3.05-3.04-5-6.38-4.65-10.82.26-3.36.95-6.49.61-9.89-.36-3.53-1.32-6.95-2.26-10.35-.3-1.1,1.4-1.88,1.89-.79,2.97,6.57,4.74,12.48,5.68,19.58.91,6.88,8.77,9.48,13.13,14.36,8.53,9.57,9.46,24.54-2.55,31.62Z"/>
        <path class="cls-4" d="m188.78,261.3c-.94-7.09-2.71-13-5.68-19.58-.49-1.08-2.19-.31-1.89.79.94,3.41,1.9,6.83,2.26,10.35.35,3.4-.34,6.53-.61,9.89-.35,4.44,1.6,7.77,4.65,10.82,5.95,5.94,20.18,17.78,8.42,25.84-3.96,2.72-9.56,3.66-14.21,4.45-6.38,1.08-12.9,1.6-19.37,1.77-6.12.16-12.32.09-18.38-.85-7.43-1.15-12.17-5.51-18.49-8.93-8.54-4.62-20.34-4.08-25.32-13.62-1.88-3.6-2.84-7.57-6.07-10.28-3.04-2.55-7.59-3.21-10.26-6.13-3.09-3.38-2.71-9.83-4.57-14.06-1.21-2.76-2.62-5.17-2.87-8.27-.24-3.11.39-6.24.63-9.34.37-4.84-.16-9.39-1.71-14-1.62-4.84-4.45-9.21-5.85-14.12-3.15-11.03,8.11-16.87,12.12-25.83,2.04-4.57,2.39-9.58,2.58-14.52.2-5.26-.15-12.56,2.55-17.2.99-1.71-1.17-3.49-2.74-2.51-4.48,2.8-6.69,5.92-7.94,11.04-1.31,5.35-.95,11-2.58,16.29-3.24,10.53-15.33,15.5-15.25,27.65.08,11.86,9.89,20.32,11.43,31.65.77,5.7.49,11.32,2.95,16.69.94,2.05,2.28,3.87,3.35,5.84,1.8,3.31,1.64,7.01,3.24,10.34,1.62,3.39,4.69,5.13,8.08,6.44,2.59,1,5.26,1.62,7.24,3.73,2.65,2.81,3.36,6.95,5.72,9.98,2.36,3.02,5.77,4.84,9.29,6.19,6.57,2.51,12.62,3.69,18.22,8.34,10.14,8.42,21.53,11.06,34.52,11.69,6.9.33,13.79.17,20.68-.34,5.8-.43,11.32-1.17,16.43-4.19,12.01-7.08,11.08-22.05,2.55-31.62-4.36-4.89-12.22-7.49-13.13-14.36Z"/>
        <path class="cls-4" d="m96.32,70.22c3.55,5.47,5.82,11.75,7.71,17.96,1.86,6.13,3.1,13.23-.16,19.11-2.97,5.35-8.24,9.31-11.76,14.32-3.2,4.55-5.46,9.55-6.26,15.07-.04.27.37.32.46.08,2.75-7.84,7.05-13.3,12.51-19.39,3.35-3.73,6.66-7.59,9.5-11.74,2.41-3.53,3.86-7.5,4.52-11.63.47.69.98,1.37,1.53,2,4.57,5.24,11.01,6.86,17.74,6.29,9.02-.77,17.86-4.34,26.32.65,3.28,1.93,6.08,3.83,9.85,4.67,2.29.51,4.51.68,6.65,1.74,3.17,1.57,4.71,4.34,6.84,6.97,4.66,5.76,11.8,11.12,18.2,14.91,3.44,2.03,7.05,3.47,10.97,4.22,1.9.36,3.82.55,5.68,1.09,3.87,1.13,4.65,3.23,6.47,6.43.81,1.42,1.47,2,2.58,3.18,2.32,2.45,2.84,4.04,1.45,7.44-1.68,4.09-2.56,7.43-2.66,11.89-.13,5.66-.48,10.62-3.22,15.73-2.17,4.04-5.46,7.09-8.66,10.29-1.78,1.78-3.17,3.65-4.67,5.65-1.75,2.33-3.67,3.41-6.17,4.79-3.38,1.86-6.84,4.98-9.7,7.64-5.4,5.03-5.91,14.83-7.5,21.65-.13.54.13.94.5,1.15-.09.67-.03,1.31.22,2.03.02.05.09.05.09,0,.02-.61.12-1.25.27-1.86.43,0,.86-.21,1-.76,1.88-7.27,3.09-16.48,9.67-21,6.75-4.65,16.43-4.24,21.93-10.66,2.89-3.38,4.01-7.77,5.58-11.83,1.67-4.34,3.99-8.32,4.88-12.94.93-4.84-.46-9.98.81-14.72,1.11-4.14,4.58-7.3,4.22-11.85-.24-3-1.92-4.57-4.26-6.17-2.88-1.97-5.05-4.94-8.01-6.75-3.21-1.96-7.18-1.84-10.7-2.88-4.91-1.45-9.28-4.19-13.54-6.95-4-2.6-8.19-5.29-11.44-8.81-2.77-3-4.93-6.82-8.55-8.92-3.57-2.08-7.91-2.41-11.54-4.4-3.64-1.99-6.79-4.8-10.81-6.05-8.52-2.63-17.2,1.2-25.8.91-8.05-.27-12.8-5.67-15.84-12.3-.23-4.4-1.21-8.81-2.72-12.93-.58-7.77-2.31-15.67-4-22.89-1.43-6.1-1.25-11.76-.03-17.27-1.86,1.28-3.63,2.68-5.3,4.21-3.51,3.21-6.59,6.92-10.43,9.73-4.88,3.56-10.71,5.48-16.22,7.99,3.28,1.3,6.69,2.32,9.88,3.96,4.88,2.51,8.96,6.4,11.94,11Z"/>
      </g>
      <path class="cls-4" d="m106.84,127.38c-2.73,2.35-5.51,4.82-7.08,8.06s-1.62,7.49.81,10.14c1.12,1.23,2.66,2.01,3.8,3.22,3.77,4.03,1.76,10.83,4.32,15.72,2.2,4.22,7.34,6.06,12.09,6.3s9.51-.73,14.26-.4c6.18.43,11.96,3.04,17.67,5.44,7.47,3.15,15.05,6.03,22.73,8.63,4.77,1.62,9.69,3.14,14.72,2.97,7.16-.25,14.02-4.13,18.21-9.93s5.73-13.37,4.48-20.42c-.48-2.7-1.37-5.39-3.01-7.59-5.38-7.25-16.37-6.97-23.89-11.97-3.83-2.54-6.61-6.36-10.04-9.41-5.24-4.65-11.94-7.43-18.8-8.91-9.57-2.08-20.19-2.54-29.95-1.89-7.77.52-14.59,5.11-20.33,10.04Z"/>
      <path class="cls-2" d="m114.52,135.78c-.84.82-1.66,1.81-1.68,2.99-.03,1.47,1.24,2.69,2.61,3.24s2.88.63,4.3,1.02c7.44,2.02,10.27,11.23,16.66,15.53,6.05,4.07,13.99,3.04,21.27,3.49,7.29.45,14.47,2.58,20.84,6.16,2.13,1.2,4.22,2.58,6.59,3.19,3.68.94,7.83-.22,10.48-2.94s3.71-6.9,2.67-10.56c-1.14-4.02-4.52-7.06-8.2-9.06s-7.74-3.17-11.56-4.87c-9.86-4.39-18.04-12.3-28.34-15.5-10.91-3.39-27.23-.95-35.63,7.33Z"/>
      <path class="cls-6" d="m132.6,141.93c1.48,1.47,3.79,1.6,5.88,1.68,5.98.23,12.11.88,17.4,3.68,6.8,3.6,12.14,10.64,19.8,11.28,1.14.09,2.36.01,3.29-.66,1.85-1.34,1.5-4.38-.05-6.05s-3.85-2.38-5.99-3.18c-6.52-2.42-12.45-6.21-18.84-8.96-4.66-2-9.75-3.48-14.86-3.28-2.31.09-11,1.13-6.62,5.49Z"/>
      <g>
        <path class="cls-10" d="m177.18,248.61c-.56-.85-1.2-1.73-1.23-2.74-.04-1.54,1.28-2.73,1.87-4.16,1.04-2.52-.33-5.37-1.97-7.55s-3.64-4.29-4.06-6.98c-.53-3.4,1.49-7.43-.77-10.02-1.39-1.6-3.82-1.77-5.92-1.49-2.1.28-4.25.87-6.31.36-3.83-.96-5.73-5.22-8.89-7.6-4.34-3.28-10.43-2.59-15.69-1.21-7.43,1.96-14.69,5.03-22.47,5.22-5.65.14-10.82-1.3-14.16,4.12-2.6,4.21-.59,7.35-.86,11.81-.12,2.01-1.06,3.88-2.14,5.58-2.17,3.39-5.02,6.36-6.7,10.01-1.69,3.65-1.92,8.42.88,11.31,4,4.13,12.07,2.55,15.17,7.4,2.6,4.06-.31,9.79,1.8,14.13.38.78.9,1.45,1.51,2.04,1.15-.16,2.33.08,3.48.24,7.69,1.11,15.84-1.87,21.01-7.66-3.87,1.53-7.92,2.61-12.03,3.19-.83.12-1.86.13-2.31-.58-.68-1.09.75-2.27,1.94-2.77,3.68-1.55,7.35-3.1,11.03-4.65,1.58-.67,3.23-1.35,4.95-1.33,3.23.03,6.19,2.52,9.38,2.02,1.4-.22,3.08-.91,4.04.12.92.99.21,2.58-.57,3.68-3.74,5.3-8.47,9.8-13.18,14.27,3.26.22,6.32-1.77,8.43-4.28s3.48-5.52,5.19-8.31c1.54-2.51,3.92-5.11,6.85-4.81,2.48.26,4.27,2.54,5.21,4.86.95,2.31,1.38,4.85,2.73,6.96,2.26-2.08,1.07-5.79-.32-8.53-.76-1.49-1.53-2.97-2.32-4.45-.19-.35-.39-.75-.3-1.14.24-1.13,1.95-.69,2.86,0,2.53,1.95,4.96,4.03,7.29,6.22.01-2.49-.92-4.98-2.56-6.86-2.06-2.35-5.38-4.17-5.5-7.29-.12-3,2.82-5.09,5.41-6.59,2.6-1.5,5.54-3.57,5.45-6.57-2.73,1.95-5.47,3.89-8.2,5.84-1.59,1.13-3.27,2.3-5.2,2.54-1.94.24-4.18-.79-4.6-2.7-.28-1.3.33-2.6.92-3.79,2.04-4.13,4.09-8.25,6.13-12.38,1.17-2.36,2.37-5.05,1.52-7.55-4.63,6.56-9.25,13.12-13.88,19.69-.23.32-.46.65-.79.87-1.21.82-2.93-.4-3.22-1.83-.29-1.43.32-2.87.79-4.25,1.2-3.52,1.52-7.34.93-11.01-.79-4.99-3.24-9.85-2.55-14.86.18-1.29.89-2.81,2.19-2.82.64,0,1.21.38,1.68.82,2.1,1.94,3.07,5.13,5.68,6.31,2.11.95,4.55.24,6.81-.27s4.95-.69,6.56.97c2.09,2.15.96,5.73,1.64,8.65.89,3.79,4.83,6.27,5.77,10.04.89,3.55-1.11,7.24-.73,10.88.39,3.76,3.2,6.77,4.61,10.28,1.95,4.88.91,10.83-2.58,14.76-1.19,1.33-2.63,2.46-3.56,3.98-.58.95-.93,2.02-1.42,3.02-2.69,5.48-8.98,8.01-14.73,10.07-.8.29-1.72.57-2.48.19-1.11-.56-1.16-2.14-.85-3.34.31-1.21.83-2.51.31-3.64-1.86,1.69-1.48,4.85-3.07,6.79-1.86,2.26-5.42,1.87-8.16.83-5.56-2.11-10.4-6.03-16.18-7.39-3.13-.74-6.44-.7-9.44-1.84-1.88-.71-3.59-1.87-5.52-2.41-.66-.18-1.34-.29-2.03-.36.93.54,1.91,1.01,2.87,1.44,9.12,4.11,18.55,7.49,27.97,10.87,2.85,1.02,5.75,2.06,8.78,2.22,4.37.24,8.6-1.35,12.69-2.9,3.07-1.17,6.19-2.37,8.77-4.39,1.93-1.51,3.5-3.44,4.91-5.45,1.85-2.64,3.45-5.47,4.55-8.49,3-8.31,1.82-18.02-3.09-25.37Z"/>
        <path class="cls-11" d="m117.29,283.47c3,1.14,6.31,1.1,9.44,1.84,5.79,1.37,10.62,5.28,16.18,7.39,2.73,1.04,6.3,1.43,8.16-.83,1.6-1.94,1.21-5.1,3.07-6.79.51,1.14,0,2.44-.31,3.64-.31,1.21-.26,2.78.85,3.34.76.39,1.68.1,2.48-.19,5.75-2.06,12.04-4.59,14.73-10.07.49-1,.84-2.07,1.42-3.02.93-1.52,2.37-2.65,3.56-3.98,3.49-3.93,4.53-9.88,2.58-14.76-1.4-3.51-4.21-6.52-4.61-10.28-.38-3.64,1.61-7.33.73-10.88-.94-3.78-4.89-6.25-5.77-10.04-.68-2.92.45-6.5-1.64-8.65-1.61-1.66-4.3-1.48-6.56-.97s-4.7,1.22-6.81.27c-2.61-1.18-3.58-4.36-5.68-6.31-.47-.43-1.04-.82-1.68-.82-1.3,0-2.01,1.53-2.19,2.82-.69,5.01,1.75,9.86,2.55,14.86.59,3.67.26,7.49-.93,11.01-.47,1.38-1.08,2.82-.79,4.25.29,1.43,2.01,2.65,3.22,1.83.33-.22.56-.55.79-.87,4.63-6.56,9.25-13.12,13.88-19.69.85,2.5-.35,5.18-1.52,7.55-2.04,4.13-4.09,8.25-6.13,12.38-.59,1.19-1.2,2.5-.92,3.79.41,1.91,2.66,2.94,4.6,2.7,1.94-.24,3.61-1.41,5.2-2.54,2.73-1.95,5.47-3.89,8.2-5.84.09,3-2.85,5.07-5.45,6.57-2.6,1.5-5.54,3.6-5.41,6.59.13,3.12,3.45,4.94,5.5,7.29,1.64,1.88,2.57,4.36,2.56,6.86-2.33-2.19-4.76-4.27-7.29-6.22-.91-.7-2.63-1.13-2.86,0-.08.39.11.79.3,1.14.79,1.48,1.56,2.96,2.32,4.45,1.39,2.73,2.58,6.45.32,8.53-1.35-2.1-1.79-4.64-2.73-6.96-.95-2.31-2.73-4.6-5.21-4.86-2.93-.3-5.31,2.3-6.85,4.81-1.71,2.79-3.09,5.8-5.19,8.31s-5.16,4.5-8.43,4.28c4.71-4.46,9.45-8.96,13.18-14.27.78-1.1,1.48-2.69.57-3.68-.96-1.04-2.64-.34-4.04-.12-3.19.49-6.15-1.99-9.38-2.02-1.72-.02-3.36.66-4.95,1.33-3.68,1.55-7.35,3.1-11.03,4.65-1.19.5-2.62,1.67-1.94,2.77.45.72,1.48.7,2.31.58,4.12-.59,8.17-1.66,12.03-3.19-5.17,5.79-13.33,8.77-21.01,7.66-1.16-.17-2.33-.41-3.48-.24.73.72,1.58,1.34,2.5,1.87.69.07,1.37.17,2.03.36,1.94.54,3.64,1.7,5.52,2.41Z"/>
      </g>
      <path class="cls-11" d="m137.82,255.28c.59,1.69,2.15,2.83,3.62,3.85-2.58-.67-4.82-2.59-5.87-5.04-1.17,1.06-1.63,2.79-1.36,4.35s1.18,2.96,2.34,4.04c2.21,2.03,5.25,2.96,8.25,3.13s5.98-.34,8.94-.85c1.17-.2,2.38-.42,3.32-1.14,1.87-1.41,1.96-4.39.66-6.35s-3.59-3.02-5.87-3.56c-1.58-.37-3.23-.54-4.7-1.24-1.12-.54-2.09-1.37-3.26-1.79-2.82-1.03-7.32,1.07-6.09,4.6Z"/>
      <path class="cls-11" d="m116.03,244.79c1.41-.13,2.87-.45,4.23-.04,2.04.63,3.22,2.69,4.87,4.04,2.55,2.09,6.11,2.4,9.4,2.23.78-.04,1.69-.18,2.06-.87.29-.55.1-1.25-.27-1.74-1.39-1.82-4.21-1.21-6.45-1.69-2.99-.64-5.09-3.38-7.95-4.47-2.89-1.1-6.1-.38-9.18-.09-1.99.19-4.17-.31-6.05-.07.35,2.66,7.39,2.88,9.35,2.7Z"/>
      <g>
        <path class="cls-13" d="m89.54,199.84c3-.49,5.97-1.23,8.85-2.21,1.2-.41,2.57-1.08,2.72-2.34.15-1.35-1.36-2.4-2.73-2.35-1.36.05-2.57.82-3.78,1.45-2.25,1.18-4.73,1.93-7.25,2.22-.59-1.25.3-2.76,1.48-3.48s2.59-.92,3.89-1.4c1.29-.48,2.59-1.43,2.78-2.79.24-1.81-1.49-3.2-3.03-4.19-3.37-2.16-6.74-4.32-10.11-6.49-.77-.49-1.55-.99-2.39-1.35-2,.58-3.77,1.6-4.87,3.25-3.5,5.25-1.04,9.94,2.55,14.27,2.13,2.56,4.42,5.23,7.58,6.29.7.23,1.42.37,2.16.47.14-.84,1.25-1.22,2.15-1.37Z"/>
        <path class="cls-11" d="m100.2,201.91c2.58.11,5.77-.13,6.86-2.48.56-1.21.35-2.63.1-3.94-.64-3.45-1.41-6.87-2.3-10.26-.27-1.02-.56-2.07-1.24-2.87-.73-.87-1.82-1.35-2.87-1.8-4.05-1.73-8.15-3.48-12.51-4.08-2.41-.33-5.54-.34-8.25.45.84.36,1.62.86,2.39,1.35,3.37,2.16,6.74,4.32,10.11,6.49,1.54.99,3.27,2.38,3.03,4.19-.18,1.37-1.48,2.31-2.78,2.79-1.29.48-2.71.68-3.89,1.4s-2.07,2.23-1.48,3.48c2.53-.29,5-1.04,7.25-2.22,1.21-.63,2.42-1.4,3.78-1.45,1.36-.05,2.88.99,2.73,2.35-.14,1.26-1.52,1.93-2.72,2.34-2.88.97-5.85,1.71-8.85,2.21-.9.15-2.01.52-2.15,1.37.86.12,1.74.17,2.61.22,3.4.18,6.8.34,10.2.48Z"/>
      </g>
      <path class="cls-13" d="m127.5,193.46c1.33-.11,2.61-.49,3.92-.78,2.8-.62,5.69-.81,8.55-.56.43.04.88.08,1.26-.11.61-.3.82-1.11.67-1.78-.29-1.29-1.54-2.1-2.7-2.73-4.09-2.21-10.27-5.43-14.95-2.93-4.94,2.63-1.93,9.34,3.26,8.9Z"/>
      <path class="cls-13" d="m223.19,167.34c-.34.58-.41,1.37.01,1.9.45.56,1.26.62,1.97.62,1.22,0,2.44-.04,3.66-.14.74-.06,1.49-.14,2.17-.45.9-.41,1.57-1.17,2.18-1.94,1.25-1.58,3.9-4.49,3.76-6.64-.13-1.96-1.94-3.11-3.7-2.57s-3.3,2.92-4.55,4.19c-1.6,1.61-4.36,3.08-5.49,5.03Z"/>
      <path class="cls-13" d="m227.42,135.88c-.35,1.04.07,2.28.98,2.89.8.53,1.83.56,2.74.85,1.42.46,2.54,1.55,3.72,2.46s2.65,1.71,4.11,1.41c.98-.2,1.8-.85,2.46-1.6.18-.21.36-.44.42-.71.09-.43-.14-.86-.39-1.23-1.47-2.17-3.7-3.68-5.88-5.13-.81-.54-1.64-1.09-2.59-1.32-1.62-.39-5,.67-5.58,2.37Z"/>
      <path class="cls-13" d="m113.73,98.88c.1.18.26.31.42.43,1.68,1.24,3.91,1.56,5.99,1.29s4.04-1.07,5.96-1.9c1.22-.52,2.44-1.07,3.45-1.92s1.79-2.07,1.83-3.39c.12-4.7-6.8-5.41-9.94-3.77-2.07,1.08-9.39,6.31-7.71,9.26Z"/>
      <path class="cls-13" d="m99.97,84.69c.46-.06.94-.12,1.36-.33,1.35-.67,1.59-2.65.82-3.95-3.1-5.23-13.76-5.11-17.38-.54-5.63,7.13,12.57,5.16,15.2,4.82Z"/>
      <path class="cls-13" d="m101.69,66.88c.98.44,2.11-.06,3.04-.59,3.1-1.78,5.89-4.1,8.2-6.83.72-.84,1.4-1.75,1.74-2.81,1.89-5.89-8.11-5.3-10.95-2.92-2.4,2.01-5.81,11.47-2.03,13.15Z"/>
      <path class="cls-13" d="m184.85,212.74c.68-.19,1.37-.45,1.86-.97,2.57-2.72-3.61-3.35-5.06-3.72-1.56-.4-4.53-1.77-6.13-.95-2.19,1.12-1.07,3.62.56,4.65,2.47,1.57,6.02,1.74,8.78.98Z"/>
      <path class="cls-13" d="m80.49,223.51c.92-1.39,1.52-3.05,2.77-4.15,2.04-1.79,8.63-5.02,2.74-6.52-2.46-.63-5.03-.67-7.16.89s-4.03,4.97-4.42,7.59c-.65,4.34,3.66,5.8,6.06,2.19Z"/>
      <path class="cls-13" d="m128.47,307.02c1.66.36,3.19,1.3,4.89,1.38,1.4.07,2.75-.46,4.05-.98.58-.23,1.18-.48,1.57-.96.3-.37.44-.84.57-1.31.3-1.11.55-2.33.1-3.39-.59-1.4-2.24-2.09-3.75-2.06-2.46.04-4.79,1.35-7.19,1.8-1.82.34-4.09.17-5.81.9-1.34.57-1.99.93-1.37,2.44,1.01,2.48,4.9,1.73,6.96,2.17Z"/>
      <path class="cls-13" d="m181.61,302.52c.14,1.52.48,3.26,1.82,3.98,1.79.98,3.86-.54,5.81-1.13,3.8-1.15,7.73,1.34,11.69,1.38,3.35.04,6.44-1.64,9.36-3.28,1.06-.59,2.17-1.24,2.79-2.29s.51-2.63-.55-3.23c-.6-.34-1.33-.3-2.02-.27-6.79.26-13.29-2.11-19.96-2.93-1.71-.21-5.48-1.14-7.11-.25-2.38,1.29-2.05,5.79-1.84,8Z"/>
      <path class="cls-13" d="m199.06,275.59c1.96.71,3.92,1.42,5.89,2.13.44.16.89.32,1.34.4.21.04.42.06.64.06.68,0,1.4-.3,1.73-.9.39-.7.12-1.6-.34-2.26s-1.09-1.18-1.54-1.84c-1.7-2.48-3.59-2.74-6.46-1.49-2.03.88-4.4,2.77-1.27,3.9Z"/>
      <path class="cls-13" d="m231.6,292.38c1.23,1.21,3.23,1.11,4.92.74s3.49-.89,5.1-.26c1.03.4,1.82,1.22,2.77,1.78,2.49,1.47,6.02.78,7.78-1.51,1.13-1.47,1.53-3.41,2.73-4.82.41-.48.91-.92,1.09-1.53.58-1.99-2.7-3.36-2.51-5.43.09-.95.93-1.9.51-2.75-.16-.33-.49-.55-.81-.74-4.02-2.28-11.85-1.33-15.82,1.11-3.22,1.98-9.33,9.87-5.75,13.4Z"/>
      <g>
        <path class="cls-14" d="m147.07,28.31c-5.86,2.47-10.64,7.36-13.07,13.23-.59,1.43.62,2.97,2.16,2.75l13.25-1.84c1.28-.18,1.87,1.54.76,2.19-4,2.35-11.53,1.07-13.91,5.52-.98,1.82-.69,4.03-.93,6.09-.6,5-4.45,9.15-4.21,14.45.06,1.34.46,2.68,1.27,3.76,2.55,3.44,6.8,2.34,10.53,2.61,8.09.58,15.77,7.91,23.14,7.44,1.53-.1,2.04-2.09.73-2.89l-18.59-11.31c-.74-.45-.44-1.61.43-1.62,9.16-.11,17.13,7.6,24.93,13.11,14.98,10.56,34.02,14.2,48.83,25.01,3.95,2.88,7.91,6.39,12.79,6.7,9.03.56,14.51-9.54,17.66-18.02,1.69-4.54,3.38-9.53,1.8-14.1-2.02-5.84-8.56-8.69-14.55-10.2-5.99-1.51-12.57-2.59-16.88-7.02-.53-.55-1.05-1.18-.57-2.19.56-1.17,2.01-1.61,3.2-1.07l19,8.63c3.62,1.64,7.4,3.32,11.38,3.18,5.31-.18,11.01-4.69,8.02-11.01-1.11-2.36-3.12-4.17-5.47-5.29-14.62-6.98-31.95-7.96-47.29-2.79-2.57.86-5.24,1.91-7.91,1.45-5.49-.95-8.84-7.82-13.87-9.08-1.42-.36-1.78-2.31-.52-3.07,1.56-.95,3.93-1.11,5.67-.28,2.9,1.38,4.99,4.18,7.99,5.33,1.67.64,3.5.72,5.3.76,14.7.28,29.44-2.05,43.33-6.86,4.84-1.67,10.32-4.51,10.3-9.99,0-2.78-1.56-5.31-3.85-6.89-4.65-3.22-10.22-2.75-15.51-2.24-17.11,1.64-34.5,3.34-50.44,9.77-2.02.81-4.11,1.71-6.23,2.14-1.4.29-2.17-1.59-.98-2.4l20.63-13.94c3.19-2.16,6.72-5.55,6.78-8.98-.29-.14-.59-.27-.9-.38-2.44-.87-5.12-.52-7.68-.12-12.65,1.96-25.62,7.36-38.58,11.2-1.9,1.85-4.12,3.38-6.55,4.46-3.65,1.63-7.68,2.25-11.36,3.8Z"/>
        <path class="cls-7" d="m300.84,80.91c-.9-4.66-4.58-8.25-6.55-12.57-2.19-4.83-2.15-10.32-3.07-15.54-1.2-6.82-4.13-13.32-8.44-18.74-3.49-4.39-7.83-8.03-12.14-11.64-1.91-1.6-3.87-3.23-6.19-4.15-3.84-1.52-8.16-.92-12.24-.29-5.35.82-10.71,1.64-16.06,2.46-4.54.7-9.51,1.32-13.45-1.05-4.19-2.52-6.28-7.92-10.57-10.05-.06,3.43-3.59,6.82-6.78,8.98l-20.63,13.94c-1.19.8-.42,2.68.98,2.4,2.11-.43,4.21-1.33,6.23-2.14,15.94-6.43,33.33-8.14,50.44-9.77,5.29-.51,10.86-.98,15.51,2.24,2.28,1.58,3.84,4.11,3.85,6.89.01,5.48-5.47,8.31-10.3,9.99-13.89,4.8-28.64,7.13-43.33,6.86-1.79-.03-3.62-.11-5.3-.76-3-1.15-5.09-3.95-7.99-5.33-1.74-.83-4.11-.67-5.67.28-1.25.76-.9,2.72.52,3.07,5.04,1.26,8.38,8.13,13.87,9.08,2.67.46,5.34-.58,7.91-1.45,15.34-5.17,32.67-4.18,47.29,2.79,2.35,1.12,4.36,2.94,5.47,5.29,2.99,6.32-2.71,10.83-8.02,11.01-3.97.14-7.76-1.54-11.38-3.18l-19-8.63c-1.18-.54-2.64-.1-3.2,1.07-.48,1,.04,1.64.57,2.19,4.31,4.43,10.89,5.5,16.88,7.02,5.99,1.51,12.52,4.36,14.55,10.2,1.59,4.57-.11,9.57-1.8,14.1-3.15,8.48-8.63,18.58-17.66,18.02-4.88-.3-8.84-3.81-12.79-6.7-14.8-10.8-33.85-14.45-48.83-25.01-7.81-5.5-15.77-13.21-24.93-13.11-.87.01-1.17,1.17-.43,1.62l18.59,11.31c1.31.8.8,2.79-.73,2.89-7.37.47-15.06-6.86-23.14-7.44-3.73-.27-7.97.82-10.53-2.61-.8-1.08-1.21-2.42-1.27-3.76-.23-5.29,3.61-9.45,4.21-14.45.25-2.05-.05-4.26.93-6.09,2.39-4.45,9.91-3.17,13.91-5.52,1.12-.65.52-2.37-.76-2.19l-13.25,1.84c-1.54.21-2.75-1.32-2.16-2.75,2.43-5.87,7.2-10.76,13.07-13.23,3.68-1.55,7.71-2.18,11.36-3.8,2.43-1.08,4.64-2.61,6.55-4.46-7.41,2.2-14.83,3.88-22.17,4.12-7.1,7.22-13.97,14.45-14.22,24.1-.1,3.7.85,7.42.23,11.06-1.05,6.15-6.4,12.54-1.28,17.71.61.62,1.34,1.13,2.1,1.55,20.17,11.37,46.16,8.59,65.52,21.15,7.11,4.61,12.85,11.02,19.45,16.33,6.61,5.31,14.7,9.65,23.14,8.91,6.17-.54,11.76-3.73,17.12-6.84l36.53-21.18c1.53-.89,3.48-.67,4.7.5,1.57-1.24,3.15-2.5,4.71-3.79-.62-4,.84-8.63.04-12.78Z"/>
      </g>
      <path class="cls-12" d="m300.92,80.91c-.9-4.66-4.58-8.25-6.55-12.57-2.19-4.83-2.15-10.32-3.07-15.54-1.2-6.82-4.13-13.32-8.44-18.74-3.49-4.39-7.83-8.03-12.14-11.64-1.91-1.6-3.87-3.23-6.19-4.15-3.84-1.52-8.16-.92-12.24-.29-5.35.82-10.71,1.64-16.06,2.46-4.54.7-9.51,1.32-13.45-1.05-4.19-2.52-6.28-7.92-10.57-10.05-.29-.14-.59-.27-.9-.38-2.44-.87-5.12-.52-7.68-.12-8.95,1.39-18.06,4.49-27.21,7.55,2.81-.3,5.61-.72,8.4-1.34,8.39-1.85,18.49-4.96,27-2.19,6.53,2.12,10.31,8.81,17.3,9.78,8.59,1.19,16.96-2.89,25.57-2.38,7.6.45,13.72,4.04,18.45,9.87,4.54,5.59,11.46,9.24,14.33,16.08,3.25,7.74-2.05,16.53,2.6,23.54,4.05,6.12,8.62,11.56,7.36,19.47-.42,2.62-1.47,5.06-2.87,7.34.6.16,1.16.47,1.61.9,1.57-1.24,3.15-2.5,4.71-3.79-.62-4,.84-8.63.04-12.78Z"/>
      <g>
        <path class="cls-7" d="m307.84,155.65c-.22-1.65-.35-3.32-.48-4.97-.26,1.69-.06,3.37.48,4.97Z"/>
        <path class="cls-14" d="m324.35,139.27c-3.42-4.73-7.01-9.61-12.15-12.39-3.95-2.14-8.69-2.94-12.04-5.94,6.8,3.26,13.99,5.7,21.37,7.23-3.48-4.91-6.96-9.81-10.43-14.72-5.29-7.46-12.27-6.93-18.48-.78-2.52,2.49-4.73,5.41-7.83,7.14-2.63,1.47-5.67,1.95-8.53,2.9-5.42,1.8-10.1,5.27-14.68,8.68-.7.52-1.47,1.21-1.36,2.07.18,1.4,2.2,1.41,3.56,1.02,4.05-1.16,8.1-2.32,12.14-3.48-9.36,4.71-19.2,9.85-24.68,18.78-2.49,4.06-3.92,8.67-5.32,13.22-2.03,6.59-4.06,13.18-6.1,19.77-.3.97-.59,2.06-.1,2.95.47.85,1.5,1.2,2.46,1.33,4.19.54,8.09-1.95,12-3.57,4.15-1.71,8.68-2.48,13.16-2.24.5.03,1.02.07,1.44.34.53.34.81.97.94,1.59.57,2.7-.99,5.39-2.84,7.43-1.85,2.04-4.09,3.79-5.4,6.21-1.02,1.89-1.4,4.05-2.26,6.01-1.85,4.25-5.72,7.2-9.28,10.17-7.33,6.1-13.98,13.02-19.79,20.59-1.55,2.01-3.08,4.18-3.47,6.69-.39,2.51.75,5.44,3.15,6.27,1.53.53,3.22.13,4.76-.37,4.04-1.31,7.86-3.31,11.25-5.88,3.4-2.58,6.49-5.81,10.55-7.13,3.25-1.06,6.88-.8,9.99-2.22,5.78-2.64,7.83-10.05,13.12-13.56,2.11,4.28-.31,9.43-3.42,13.04-3.11,3.62-7.05,6.77-8.68,11.25-.67,1.84-.91,3.81-1.62,5.63-1.02,2.58-2.94,4.68-4.82,6.72-2.22,2.41-4.51,4.87-7.4,6.42-4.71,2.51-10.73,2.42-14.72,5.97,1.19,1.89,3.93,1.8,6.13,1.46,8.12-1.28,16.28-3.07,23.57-6.86,7.29-3.79,13.71-9.8,16.57-17.51,1.33-3.59,1.86-7.43,3.06-11.07,1.64-4.96,4.48-9.44,6.24-14.35,1.59-4.44,2.26-9.15,2.92-13.83.91-6.42,1.82-12.84,2.73-19.26.34-2.37.46-5.26-1.49-6.64-.97-.68-2.22-.79-3.4-.77-3.59.05-7.17,1.05-10.27,2.87,2.46-2.52,5.56-4.55,9.04-5.11,3.48-.56,7.33.57,9.5,3.34,2.36,3.03,2.34,7.27,1.69,11.06-.65,3.79-1.81,7.58-1.34,11.39.26,2.1,1.02,4.15.91,6.27-.1,2.03-.98,3.92-1.85,5.76-1.33,2.81-2.65,5.62-3.98,8.42-.93,1.97-1.88,4.01-1.97,6.19-.09,2.18.9,4.56,2.9,5.43s4.82-.54,4.79-2.72c2.54,5.03,2.71,11.01,1.4,16.49-.69,2.9-1.78,5.81-1.39,8.76.39,2.95,3.01,5.9,5.93,5.3,2.62-.54,3.99-3.6,3.88-6.27-.11-2.67-1.24-5.2-1.72-7.83-1.32-7.31,2.47-15.08.11-22.13-.24-.7-.56-1.42-1.17-1.84-2.38-1.62-4.61,2.67-7.42,3.27-.04-3.81,2.44-7.11,4.77-10.13,5.42-7.02,10.78-14.63,11.96-23.42.87-6.43-.35-13.74,3.77-18.75.73-.88,1.67-1.97,1.21-3.02-.6-1.38-2.62-.89-4.09-.55-4.54,1.03-9.2-2.11-11.45-6.19-1.45-2.63-2.13-5.56-2.52-8.55-.54-1.6-.74-3.28-.48-4.97.12,1.65.26,3.32.48,4.97,1.02,3.03,3.27,5.73,6.02,7.44,4.2,2.62,9.32,3.3,14.27,3.29,2.26,0,4.78-.26,6.27-1.95,1.85-2.1,1.24-5.35.24-7.96-2.39-6.26-6.36-11.77-10.29-17.2Z"/>
      </g>
      <g>
        <path class="cls-1" d="m324.35,139.27c-3.42-4.73-7.01-9.61-12.15-12.39-3.95-2.14-8.69-2.94-12.04-5.94,6.8,3.26,13.99,5.7,21.37,7.23-3.48-4.91-6.96-9.81-10.43-14.72-5.29-7.46-12.27-6.93-18.48-.78-2.52,2.49-4.73,5.41-7.83,7.14-2.63,1.47-5.67,1.95-8.53,2.9-5.42,1.8-10.1,5.27-14.68,8.68-.7.52-1.47,1.21-1.36,2.07.18,1.4,2.2,1.41,3.56,1.02,4.05-1.16,8.1-2.32,12.14-3.48-9.36,4.71-19.2,9.85-24.68,18.78-2.49,4.06-3.92,8.67-5.32,13.22-2.03,6.59-4.06,13.18-6.1,19.77-.3.97-.59,2.06-.1,2.95.47.85,1.5,1.2,2.46,1.33,4.19.54,8.09-1.95,12-3.57,4.15-1.71,8.68-2.48,13.16-2.24.5.03,1.02.07,1.44.34.53.34.81.97.94,1.59.57,2.7-.99,5.39-2.84,7.43-1.85,2.04-4.09,3.79-5.4,6.21-1.02,1.89-1.4,4.05-2.26,6.01-1.85,4.25-5.72,7.2-9.28,10.17-7.33,6.1-13.98,13.02-19.79,20.59-1.55,2.01-3.08,4.18-3.47,6.69-.39,2.51.75,5.44,3.15,6.27,1.53.53,3.22.13,4.76-.37,4.04-1.31,7.86-3.31,11.25-5.88,3.4-2.58,6.49-5.81,10.55-7.13,3.25-1.06,6.88-.8,9.99-2.22,5.78-2.64,7.83-10.05,13.12-13.56,2.11,4.28-.31,9.43-3.42,13.04-3.11,3.62-7.05,6.77-8.68,11.25-.67,1.84-.91,3.81-1.62,5.63-1.02,2.58-2.94,4.68-4.82,6.72-2.22,2.41-4.51,4.87-7.4,6.42-4.71,2.51-10.73,2.42-14.72,5.97,1.19,1.89,3.93,1.8,6.13,1.46,8.12-1.28,16.28-3.07,23.57-6.86,7.29-3.79,13.71-9.8,16.57-17.51,1.33-3.59,1.86-7.43,3.06-11.07,1.64-4.96,4.48-9.44,6.24-14.35,1.59-4.44,2.26-9.15,2.92-13.83.91-6.42,1.82-12.84,2.73-19.26.34-2.37.46-5.26-1.49-6.64-.97-.68-2.22-.79-3.4-.77-3.59.05-7.17,1.05-10.27,2.87,2.46-2.52,5.56-4.55,9.04-5.11,3.48-.56,7.33.57,9.5,3.34,2.36,3.03,2.34,7.27,1.69,11.06-.65,3.79-1.81,7.58-1.34,11.39.26,2.1,1.02,4.15.91,6.27-.1,2.03-.98,3.92-1.85,5.76-1.33,2.81-2.65,5.62-3.98,8.42-.93,1.97-1.88,4.01-1.97,6.19-.09,2.18.9,4.56,2.9,5.43s4.82-.54,4.79-2.72c2.54,5.03,2.71,11.01,1.4,16.49-.69,2.9-1.78,5.81-1.39,8.76.39,2.95,3.01,5.9,5.93,5.3,2.62-.54,3.99-3.6,3.88-6.27-.11-2.67-1.24-5.2-1.72-7.83-1.32-7.31,2.47-15.08.11-22.13-.24-.7-.56-1.42-1.17-1.84-2.38-1.62-4.61,2.67-7.42,3.27-.04-3.81,2.44-7.11,4.77-10.13,5.42-7.02,10.78-14.63,11.96-23.42.87-6.43-.35-13.74,3.77-18.75.73-.88,1.67-1.97,1.21-3.02-.6-1.38-2.62-.89-4.09-.55-4.54,1.03-9.2-2.11-11.45-6.19-1.45-2.63-2.13-5.56-2.52-8.55,1.02,3.03,3.27,5.73,6.02,7.44,4.2,2.62,9.32,3.3,14.27,3.29,2.26,0,4.78-.26,6.27-1.95,1.85-2.1,1.24-5.35.24-7.96-2.39-6.26-6.36-11.77-10.29-17.2Z"/>
        <path class="cls-7" d="m333.13,144.23c-4.92-9.2-9.83-18.41-14.75-27.61-2.91-5.45-5.97-11.08-10.88-14.82-1.87-1.42-4.02-2.59-5.34-4.53-.75-1.1-1.15-2.31-1.35-3.57-1.56,1.29-3.14,2.55-4.71,3.79.23.22.44.46.61.75.84,1.42.17,2.48-.5,3.44-5.84,8.42-14.08,15.16-23.49,19.23-5.42,2.34-11.72,4.21-14.64,9.35-1.04,1.83-1.53,3.92-2.38,5.85-1.27,2.92-3.32,5.42-5.12,8.05-8.24,12.06-11.23,26.83-14.03,41.16-.3,1.52-.59,3.11-.1,4.58.74,2.24,6.37,1.44,11.59.41,3-.59,5.1,2.91,3.12,5.24-8.99,10.59-23.26,22.73-34.09,25.55-3.64.95-7.68,1.26-10.55,3.7-4.05,3.46-4.08,9.6-3.7,14.92.39,5.61.91,11.41,3.65,16.32,5.38,9.63,17.43,12.99,28.32,14.77,16.45,2.69,36.62,2.25,45.62-11.78,2.23-3.47,4.09-7.93,7.09-10.35,1.74-1.41,4.39-.18,4.42,2.06.15,11.43-7.33,22.14-15.14,30.88-8.26,9.24-17.31,17.77-27.01,25.48-3.23,2.56-6.61,5.08-10.52,6.35-3.74,1.21-7.75,1.22-11.59,2.03-5.84,1.23-11.1,4.26-16.59,6.59-27.44,11.62-58.9,5.23-87.61-2.75-5.11-1.42-10.62-3.17-13.6-7.55-2.8-4.1-2.92-9.94-6.72-13.14-3.92-3.3-9.89-2.27-14.58-4.33-8.9-3.92-10.97-17.74-20.44-19.94-4.29-.99-10.74-.51-10.66-5.34.02-.94.36-1.83.84-2.64,5.42-9.18,4.17-20.44,2.79-30.89-.68-5.12-2.18-11.28-7.14-12.74-5.17-1.53-11.35,3.22-15.65-.86-1.22-1.16-1.87-2.81-1.99-4.49-.37-5.02,2.75-9.11,3.5-13.8.84-5.21-1.33-10.59-.34-15.77,2.2-11.49,17.42-15.01,23.78-24.82,2.98-4.6,3.78-10.22,5.15-15.53,2.69-10.33,7.88-20,15-27.95,2.61-2.91,5.68-6.15,5.33-10.04-.18-2.01-1.28-3.8-2.36-5.51-4.61-7.35-9.21-14.69-13.82-22.04-3.74-5.97-8.27-12.49-15.2-13.73-.35-.06-.7-.09-1.05-.12-1.31,1.23-2.6,2.5-3.87,3.77,1.59-.19,3.13.06,4.21,1.2.7.74,1.05,1.76,1.2,2.77.56,3.97-1.86,7.76-4.72,10.57-2.86,2.81-6.27,5.1-8.62,8.34-1.18,1.63-1.98,4.1-.54,5.5,1.5,1.45,4.85,1.19,4.94,3.28.03.69-.4,1.32-.47,2-.19,1.99,2.54,2.91,4.49,2.47,1.95-.44,3.97-1.51,5.83-.8,2.24.86,2.84,3.96,1.83,6.14-1.01,2.17-3.09,3.61-5.08,4.94-9.16,6.12-18.31,12.25-27.47,18.37-1.97,1.32-4.16,3.04-4.1,5.41.07,2.67,2.88,4.24,4.9,5.98,2.02,1.74,3.08,5.64.59,6.61-2.28.89-5.46-1.86-6.97.07-.35.45-.46,1.04-.5,1.6-.16,2.22.53,4.49,1.91,6.24,1.05,1.33,2.58,2.7,2.25,4.36-.22,1.08-1.17,1.83-1.69,2.8-1.41,2.66.79,6.05-.2,8.89-.37,1.05-1.14,1.91-1.91,2.72-3.76,3.95-7.89,7.55-12.2,10.89-2.58,1.99-5.51,4.48-5.28,7.73.12,1.7,1.11,3.19,2.08,4.59,4.31,6.28,8.63,12.57,12.94,18.85,1.7,2.48,3.48,5.22,3.24,8.22-.26,3.33-2.99,6.61-1.66,9.67.5,1.16,1.51,2.02,2.49,2.82,3.12,2.58,6.24,5.17,9.37,7.75,2.5,2.07,3.55,5.39,5.13,8.22.39.7.76,1.42.96,2.2.49,1.9-.08,3.89-.39,5.83-.31,1.94-.28,4.16,1.09,5.57,2.94,3.01,8.06,1.16,12.23,1.75,4.17.59,8.62,2.16,10.73,5.81,2.33,4.05,1.25,9.79,4.61,13.05,2.24,2.18,5.66,2.4,8.76,2.8,3.85.5,7.63,1.47,11.25,2.87,2.91,1.13,5.8,2.61,7.81,5,1.65,1.96,2.6,4.4,3.67,6.72,1.46,3.17,3.2,6.21,5.18,9.08.79,1.15,1.65,2.29,2.79,3.1,1.73,1.23,3.95,1.57,6.08,1.57,2.38,0,4.76-.37,7.03-1.11,18.08-5.86,36.98,8.81,55.94,10.09,6.02.4,12.39-.06,17.71,2.78,2.45,1.31,4.7,3.31,7.47,3.49,2.85.18,5.39-1.64,7.75-3.25,9.48-6.47,20.36-10.88,31.66-12.83,2.99-.52,6.13-.9,8.66-2.59,6.05-4.02,5.75-13.05,9.81-19.07,5.94-8.81,19.16-8.88,27.23-15.8,4.64-3.98,7.25-10,12.15-13.66,4.97-3.72,11.87-4.71,16.79-8.17.47-.71.86-1.47,1.14-2.32,1.69-5.07-1.27-10.39-2.03-15.68-.57-4.02.15-8.1.49-12.15.59-7.14-.06-14.37-1.9-21.29,6.03-2.49,8.96-9.37,10.32-15.75s1.76-13.18,5.11-18.78c2.79-4.67,7.48-8.19,9.35-13.31,2.63-7.2-1.08-15.02-4.69-21.78Zm1.27,20.2c-1.49,1.7-4.01,1.95-6.27,1.95-4.95,0-10.07-.68-14.27-3.29-2.75-1.71-5-4.41-6.02-7.44.4,2.99,1.07,5.93,2.52,8.55,2.25,4.07,6.91,7.21,11.45,6.19,1.47-.33,3.49-.83,4.09.55.46,1.05-.48,2.13-1.21,3.02-4.12,5.01-2.91,12.32-3.77,18.75-1.19,8.79-6.54,16.4-11.96,23.42-2.33,3.01-4.82,6.32-4.77,10.13,2.82-.61,5.04-4.89,7.42-3.27.61.42.94,1.14,1.17,1.84,2.36,7.04-1.43,14.81-.11,22.13.48,2.63,1.61,5.15,1.72,7.83.11,2.67-1.26,5.74-3.88,6.27-2.92.6-5.54-2.35-5.93-5.3-.39-2.95.7-5.87,1.39-8.76,1.31-5.48,1.14-11.46-1.4-16.49.04,2.18-2.79,3.59-4.79,2.72s-2.99-3.25-2.9-5.43c.09-2.18,1.04-4.22,1.97-6.19,1.33-2.81,2.65-5.62,3.98-8.42.87-1.83,1.75-3.73,1.85-5.76.1-2.11-.65-4.17-.91-6.27-.47-3.81.69-7.61,1.34-11.39.65-3.79.68-8.03-1.69-11.06-2.17-2.78-6.02-3.9-9.5-3.34-3.48.56-6.58,2.58-9.04,5.11,3.1-1.82,6.68-2.82,10.27-2.87,1.18-.02,2.43.09,3.4.77,1.96,1.38,1.83,4.27,1.49,6.64-.91,6.42-1.82,12.84-2.73,19.26-.66,4.67-1.33,9.38-2.92,13.83-1.76,4.92-4.6,9.4-6.24,14.35-1.2,3.64-1.73,7.48-3.06,11.07-2.86,7.71-9.28,13.71-16.57,17.51-7.29,3.79-15.45,5.58-23.57,6.86-2.2.35-4.94.43-6.13-1.46,3.99-3.54,10.01-3.46,14.72-5.97,2.9-1.54,5.18-4,7.4-6.42,1.88-2.04,3.8-4.14,4.82-6.72.72-1.82.96-3.79,1.62-5.63,1.63-4.48,5.57-7.63,8.68-11.25,3.11-3.62,5.53-8.77,3.42-13.04-5.29,3.51-7.35,10.91-13.12,13.56-3.11,1.42-6.74,1.16-9.99,2.22-4.06,1.32-7.15,4.55-10.55,7.13-3.39,2.57-7.21,4.57-11.25,5.88-1.54.5-3.23.9-4.76.37-2.4-.84-3.53-3.76-3.15-6.27.39-2.51,1.92-4.68,3.47-6.69,5.81-7.57,12.46-14.48,19.79-20.59,3.56-2.96,7.43-5.92,9.28-10.17.86-1.97,1.24-4.13,2.26-6.01,1.31-2.42,3.55-4.18,5.4-6.21,1.85-2.04,3.41-4.73,2.84-7.43-.13-.62-.4-1.25-.94-1.59-.42-.27-.94-.32-1.44-.34-4.48-.24-9.01.53-13.16,2.24-3.91,1.61-7.8,4.11-12,3.57-.96-.12-1.99-.48-2.46-1.33-.49-.89-.2-1.98.1-2.95,2.03-6.59,4.06-13.18,6.1-19.77,1.4-4.55,2.83-9.16,5.32-13.22,5.48-8.93,15.32-14.07,24.68-18.78-4.05,1.16-8.1,2.32-12.14,3.48-1.36.39-3.38.38-3.56-1.02-.11-.86.66-1.55,1.36-2.07,4.58-3.41,9.26-6.88,14.68-8.68,2.86-.95,5.9-1.43,8.53-2.9,3.1-1.73,5.31-4.64,7.83-7.14,6.21-6.15,13.19-6.69,18.48.78,3.48,4.91,6.96,9.81,10.43,14.72-7.38-1.53-14.58-3.97-21.37-7.23,3.35,3,8.08,3.81,12.04,5.94,5.13,2.78,8.73,7.66,12.15,12.39,3.93,5.43,7.9,10.94,10.29,17.2,1,2.61,1.6,5.86-.24,7.96Z"/>
        <path class="cls-14" d="m34.95,81.77s-.06.06-.1.08c.12.04.14,0,.1-.08Z"/>
        <path class="cls-14" d="m286.41,287.12c-8.06,6.93-21.28,6.99-27.23,15.8-4.06,6.02-3.76,15.05-9.81,19.07-2.53,1.68-5.67,2.07-8.66,2.59-11.31,1.95-22.19,6.35-31.66,12.83-2.36,1.61-4.9,3.43-7.75,3.25-2.77-.17-5.02-2.18-7.47-3.49-5.32-2.84-11.69-2.38-17.71-2.78-18.96-1.27-37.86-15.95-55.94-10.09-2.26.73-4.65,1.11-7.03,1.11-2.13,0-4.35-.34-6.08-1.57-1.14-.81-1.99-1.95-2.79-3.1-1.99-2.87-3.72-5.91-5.18-9.08-1.07-2.33-2.02-4.76-3.67-6.72-2.01-2.39-4.9-3.87-7.81-5-3.62-1.4-7.4-2.37-11.25-2.87-3.1-.4-6.52-.63-8.76-2.8-3.36-3.26-2.27-9-4.61-13.05-2.1-3.65-6.56-5.22-10.73-5.81-4.17-.59-9.29,1.27-12.23-1.75-1.37-1.4-1.4-3.63-1.09-5.57.31-1.94.88-3.93.39-5.83-.2-.78-.57-1.5-.96-2.2-1.58-2.83-2.63-6.16-5.13-8.22-3.12-2.58-6.24-5.17-9.37-7.75-.98-.81-1.99-1.66-2.49-2.82-1.33-3.07,1.4-6.34,1.66-9.67.24-3-1.54-5.74-3.24-8.22-4.31-6.28-8.63-12.57-12.94-18.85-.96-1.4-1.96-2.89-2.08-4.59-.23-3.25,2.71-5.74,5.28-7.73,4.32-3.34,8.44-6.94,12.2-10.89.77-.81,1.55-1.66,1.91-2.72,1-2.84-1.21-6.23.2-8.89.52-.97,1.47-1.72,1.69-2.8.33-1.66-1.2-3.03-2.25-4.36-1.38-1.75-2.07-4.02-1.91-6.24.04-.57.15-1.16.5-1.6,1.51-1.92,4.7.82,6.97-.07,2.49-.97,1.43-4.86-.59-6.61-2.02-1.74-4.83-3.31-4.9-5.98-.07-2.37,2.13-4.1,4.1-5.41,9.16-6.12,18.31-12.25,27.47-18.37,1.99-1.33,4.08-2.77,5.08-4.94,1.01-2.17.41-5.28-1.83-6.14-1.87-.71-3.88.36-5.83.8-1.95.44-4.68-.48-4.49-2.47.07-.69.5-1.31.47-2-.08-2.09-3.44-1.83-4.94-3.28-1.45-1.4-.65-3.87.54-5.5,2.35-3.25,5.77-5.53,8.62-8.34,2.86-2.81,5.28-6.61,4.72-10.57-.14-1.01-.5-2.02-1.2-2.77-1.07-1.14-2.61-1.39-4.21-1.2-1.03,1.03-2.06,2.07-3.09,3.1-8.04,8.14-16.13,16.33-22.5,25.83-4.95,7.38-8.93,15.61-15.51,21.59-3.45,3.14-7.79,5.92-8.99,10.43-.64,2.4-.26,4.95.35,7.36,2.98,11.75,11.36,23.44,7.27,34.84-2.35,6.54-8.53,11.44-9.74,18.28-1.79,10.09,7.74,18.47,10.35,28.37,1.93,7.29.1,15.56,3.81,22.12,3.18,5.61,9.74,8.63,13.05,14.17,4.01,6.71,3.09,16.66,9.7,20.82,4.18,2.63,10.3,1.98,13.36,5.85,1.24,1.56,1.7,3.6,2.73,5.31,2.1,3.48,6.2,5.12,10.01,6.53,9.43,3.5,18.87,7,28.3,10.5,7.23,2.68,5.58,13.41,10.16,19.6,3.26,4.4,9.31,5.8,14.78,5.44,5.47-.36,10.75-2.14,16.19-2.74,9.26-1.01,18.64,1.45,27.03,5.5,3.08,1.49,6.09,3.2,9.41,4.06,5.04,1.31,10.39.56,15.56,1.2,8.01,1,15.84,5.35,23.74,3.69,3.24-.68,6.18-2.34,9.22-3.68,7.45-3.29,15.6-4.72,23.2-7.66,7.6-2.94,15.05-7.88,17.99-15.48,1.32-3.41,1.65-7.16,3.17-10.49,5.81-12.79,24.79-13.11,33.73-23.94,1.56-1.88,2.76-4.05,4.45-5.82,4.39-4.58,11.84-6.4,15.16-11.39-4.92,3.46-11.82,4.45-16.79,8.17-4.89,3.66-7.51,9.68-12.15,13.66Z"/>
        <path class="cls-12" d="m77.29,301.38c-7.98-3.92-16.14-4.6-21.21-12.68-1.75-2.79-2.93-6.46-6.23-7.71-3.49-1.32-7.35-.51-10.79-2.34-7.17-3.8-6.74-12.18-7.37-19.15-.73-8.01-7.3-8.84-12.39-13.75-6.8-6.56-3.78-14.54-4.68-22.8-1.05-9.65-10.9-15.94-12.69-25.42-.56-2.96-.3-6.07.04-9.14-.8,1.54-1.43,3.16-1.74,4.89-1.79,10.09,7.74,18.47,10.35,28.37,1.93,7.29.1,15.56,3.81,22.12,3.18,5.61,9.74,8.63,13.05,14.17,4.01,6.71,3.09,16.66,9.7,20.82,4.18,2.63,10.3,1.98,13.36,5.85,1.24,1.56,1.7,3.6,2.73,5.31,2.1,3.48,6.2,5.12,10.01,6.53,5.3,1.97,10.61,3.94,15.91,5.9-.61-.34-1.23-.67-1.87-.99Z"/>
        <path class="cls-5" d="m298.55,273.45c-4.89,3.66-7.51,9.68-12.15,13.66-5.44,4.67-13.22,6.23-19.54,9.45-2.07,2.75-3.99,5.6-5.32,8.71-2.36,5.52-1.85,11.64-5.58,16.62-8.45,11.27-25.43,10.12-37.32,15.03-6.82,2.81-13.1,6.12-20.73,4.96-3.59-.54-7.01-1.8-10.59-2.43-4-.71-8.06-1.04-12.07-1.69-7.83-1.27-14.75-4.52-22.31-6.69-2.36-.68-4.66-.97-6.92-1.05,4.73.98,9.35,2.65,13.7,4.75,3.08,1.49,6.09,3.2,9.41,4.06,5.04,1.31,10.39.56,15.56,1.2,8.01,1,15.84,5.35,23.74,3.69,3.24-.68,6.18-2.34,9.22-3.68,7.45-3.29,15.6-4.72,23.2-7.66,7.6-2.94,15.05-7.88,17.99-15.48,1.32-3.41,1.65-7.16,3.17-10.49,5.81-12.79,24.79-13.11,33.73-23.94,1.56-1.88,2.76-4.05,4.45-5.82,4.39-4.58,11.84-6.4,15.16-11.39-4.92,3.46-11.82,4.45-16.79,8.17Z"/>
      </g>
      <g>
        <polygon class="cls-9" points="26.04 64.52 77.45 41.63 71.82 50.53 27.03 65.13 26.04 64.52"/>
        <polygon class="cls-9" points="68.21 32.54 76.19 12.6 73.25 32.33 68.21 32.54"/>
        <path class="cls-9" d="m76.82,0l7.87,11.13,7.24-.1c-.04-.07-.07-.14-.1-.21L76.82,0Z"/>
        <polygon class="cls-9" points="95.93 35.8 134.24 3.25 113.88 25.93 95.93 35.8"/>
        <polygon class="cls-9" points="305.42 80.16 317.75 55.69 308.95 81.98 305.42 80.16"/>
        <polygon class="cls-9" points="306.09 93.73 325.68 86.47 308.95 96.7 306.09 93.73"/>
        <path class="cls-9" d="m335.84,202.72l-16.38,21.68c.05-.05.1-.1.16-.16l20.44-18.1-4.21-3.43Z"/>
        <polygon class="cls-9" points="153.81 341.62 179.64 356.68 160.27 339.1 153.81 341.62"/>
        <polygon class="cls-9" points="139.08 336.6 119.5 357.24 143.81 339.46 139.08 336.6"/>
        <path class="cls-9" d="m82.05,312.73l-4.47-4.65s0,.06,0,.09l-25.38-.72,29.85,5.27Z"/>
      </g>
      <g>
        <path class="cls-8" d="m205.67,37.33c8.54.38,17.12,1.33,25.68,1.37,4.27.02,8.5-.68,12.76-.87,4.39-.2,7.95.38,11.05-3.25,1.58-1.84,1.43-4.33.24-6.3-5.33-8.82-19.15-.42-26.4,1.24-8.41,1.92-16.87.32-24.03,6.03-.74.59-.14,1.74.69,1.78Z"/>
        <path class="cls-8" d="m245,57.14c-3.98-.66-7.5-.61-11.12,1.11-.06.03-.06.11,0,.15,3.62,2.38,7.59,3.99,11.63,5.55,3.9,1.51,7.75,4.2,11.99,4.15,2.77-.03,3.77-3.52,1.99-5.35-3.18-3.24-10.03-4.88-14.48-5.61Z"/>
        <path class="cls-8" d="m224.73,68.43c-8.69-2.38-17.43-4.55-26.1-6.97-11.94-3.33-23.13-8.64-34.37-13.8-.09-.04-.15.1-.07.15,7.16,4.85,14.37,9.61,21.7,14.19,7.07,4.42,13.96,9.56,21.82,12.51,7.71,2.89,15.65,4.93,23.46,7.49,2.98.98,9.13,2.17,10.78,4.86,2.4,3.92,1.98,9.54.73,13.68-.69,2.28,2.63,3.02,3.49.94,2.67-6.5,7.71-16.13,2.38-22.52-5.18-6.19-16.36-8.5-23.79-10.53Z"/>
        <path class="cls-8" d="m303.66,169.01c-3.3-3.57-7.1-5.66-6.9-10.96.37-10.04,2.92-20.91-3.64-29.79-.82-1.11-2.77-1.18-3.15.4-1.32,5.56-1.49,11.56-2.4,17.23-.79,4.92-3.42,10.72-1.53,15.7,1.49,3.91,5.55,6.32,9.15,7.98,1.96.9,4.24,1.42,6.12,2.46,2.98,1.65,5.17,4.72,6.82,7.59.43.74,1.66.33,1.43-.55-1.06-4.06-3.09-7.03-5.91-10.08Z"/>
        <path class="cls-8" d="m281.82,186.21s.01.06.05.07c3.09.1,5.66-2.15,8.72-2,6.88.34,1.87,8.1.46,11.19-2.57,5.63-1.41,11.84-2.32,17.78-.57,3.74-2.43,6.8-3.85,10.25-1.26,3.06-1.62,6.22-2.23,9.45-1.05,5.56-4.02,12.38-8.29,16.25-.28.26.05.76.39.56,3.33-1.98,5.7-2.97,7.99-6.18,2.7-3.79,3.77-7.74,4.68-12.26.91-4.53,3.12-8.08,4.84-12.29,1.86-4.57,1.81-9.26,2.2-14.09.42-5.19,2.94-9.02,4.36-13.86.82-2.77.69-5.84-1.31-8.11-4.25-4.8-14.02-3.1-15.69,3.25Z"/>
        <path class="cls-8" d="m143.67,270.02c-1.9.62-2.4-1.07-3.63-1.7-.72-.37-1.9-.55-2.7-.51-1.82.1-3.1.97-4.1,2.44-1.27,1.86-1.78,3.9-3.34,5.63-1.69,1.87-3.78,3.3-5.37,5.26-.45.55.24,1.31.84,1.16,3.84-.91,7.4-3.37,10.48-5.77,2.79-2.18,5.85-3.04,8.22-5.77.25-.29.07-.89-.39-.74Z"/>
        <path class="cls-8" d="m153.14,269.78c.41,1.37-.8.6-1.31.84-.81.38-1.55.41-2.33,1-1.28.97-2.23,2.56-2.53,4.14-.7,3.69,2.97,5.09,3.61,8.26.17.84,1.27,1.09,1.85.54,1.83-1.73,2.28-3.61,2.7-6.01.19-1.09.74-2.06.92-3.12.37-2.18-1.29-3.79-1.21-5.83.05-1.26-2.05-1.02-1.69.19Z"/>
        <path class="cls-8" d="m154.6,256.88c-1.19-.42-2.38-.14-3.54-.61-1.14-.46-2.12-1.26-3.34-1.62-1.91-.57-3.88-.22-5.66.59-.44.2-.3.8.09.95,2.97,1.14,3.64,4.28,6.32,5.67,2.27,1.18,5.58,1.29,7.33-.78,1.3-1.54.65-3.55-1.2-4.19Z"/>
        <path class="cls-8" d="m165.23,246.39c1.9-2.8.13-6.73.94-9.88.09-.36-.4-.63-.62-.29-.71,1.15-2.14,2.78-3.39,3.49-.79.45-1.77.42-2.58.99-.65.46-1.06,1.07-1.51,1.72-1.85,2.66-1.29,5.03-.43,7.94,0,.03.04.05.07.03,2.69-1.47,5.56-1.13,7.5-4.01Z"/>
        <path class="cls-8" d="m172.35,258.9c-.71-.55-1.1-1.07-1.65-1.76-1.24-1.56-2.67-2.04-4.52-2.71-3.74-1.36-5.64,4.62-2.34,6.41,1.1.6,2.08,1.18,3.34,1.31,1.38.14,2.48-.02,3.89.35,1.82.47,3.95,1.7,5.81,1.33.35-.07.46-.45.34-.74-.79-1.84-3.3-2.97-4.87-4.18Z"/>
        <path class="cls-8" d="m149.38,245.81c1.48-.79,2.12-1.99,2.97-3.41.64-1.07,1.44-2.72,1.05-3.99-.06-.2-.29-.41-.52-.32-1.14.42-2,1.75-2.59,2.77-.83,1.45-1.67,2.7-1.8,4.39-.04.46.5.75.88.55Z"/>
        <path class="cls-8" d="m126.47,256.71c-2.31.03-4.54.84-6.81,1.28-2.8.54-5.59.82-8.44.88-.19,0-.25.28-.06.34,4.63,1.34,11.15,3.04,15.86,1.39,2.04-.72,1.79-3.91-.55-3.88Z"/>
      </g>
      <polygon class="cls-4" points="138.36 338.8 128.16 349.42 140.65 339.95 138.36 338.8"/>
      <polygon class="cls-4" points="156.6 341.68 170.89 351.12 160.57 340.71 156.6 341.68"/>
      <polygon class="cls-4" points="61.39 308.5 76.39 308.86 79.83 311.77 61.39 308.5"/>
    </g>
  </g>
</svg>