<?xml version="1.0" encoding="utf-8"?>
<!-- Generator: Adobe Illustrator 27.9.0, SVG Export Plug-In . SVG Version: 6.00 Build 0)  -->
<svg version="1.1" xmlns="http://www.w3.org/2000/svg" xmlns:xlink="http://www.w3.org/1999/xlink" x="0px" y="0px"
	 viewBox="0 0 281.3 274.6" enable-background="new 0 0 281.3 274.6" xml:space="preserve">
<g id="_x31_5">
</g>
<g id="_x31_4">
</g>
<g id="_x31_3">
</g>
<g id="_x31_2">
</g>
<g id="_x31_1">
</g>
<g id="_x31_0">
</g>
<g id="_x39_">
</g>
<g id="_x38_">
</g>
<g id="_x37_">
</g>
<g id="_x36_">
</g>
<g id="_x35_">
	<g>
		<path opacity="0.67" fill="#74EDE4" d="M280.2,209.7c-1.6-7.5-4.8-14.3-8.8-20.8c-1.2-2-5-1.8-4.3,1.1c1.4,5.3,3.4,10.6,4.3,16
			c1.1,6.8,0,11.7-4,17.2c-3.2,4.4-6.4,8.4-11.2,11.2c-4.9,2.9-10.6,4.5-15.9,6.5c-5.2,1.9-10.4,3.7-15.2,6.5
			c-5.6,3.3-9.8,6.6-16.7,6.5c-5.7-0.1-11-0.6-16.7,0.7c-6.4,1.5-12.3,4.5-18.7,5.8c-10.6,2.2-20.9,1.3-30.9-2.7
			c-10-3.9-18.2-11.3-29.3-12.6c-3.3-0.4-6.3,0.1-9.6,0.3c-3.5,0.2-6.7-0.6-10-1.5c-5-1.4-6.7-5.8-11.1-8.5
			c-9.8-6-22.5-10.2-33.4-14.3c-5.3-2-10.8-1.9-16.3-2.8c-4-0.6-5.1-1.7-7.1-5.2c-1.2-2.1-2.5-4.1-4.3-5.8
			c-3.6-3.5-9.2-4.5-12.3-8.5c-3.4-4.3-4-11.1-2.1-16.1c0.2-0.4-0.6-1-0.9-0.7c-7.2,6-7.5,16.1-1.5,23.3c3.5,4.1,8.6,5.2,10.9,10.4
			c2.5,5.6,5.7,10.4,11.4,12.9c4.8,2.1,10,2.2,15,3.4c6.5,1.6,11.7,5.9,17.8,8.5c6.8,3,14.2,3.3,21.3,5.1c6.3,1.6,12.2,4.6,18.6,5.9
			c6.4,1.3,12.9,1.9,18.8,5c5.6,2.9,10.5,7,16,10c11.5,6.3,25.2,8.8,38.2,7.4c7-0.8,13.3-3.1,19.7-5.7c2.8-1.1,5.6-2.3,8.5-2.8
			c4.2-0.7,8.6,0,12.9-0.4c6-0.5,11-2.7,15.8-6.2c5.5-4,11-7.4,17.5-9.7c10.8-3.9,27.3-8.3,32.7-19.8
			C282.1,223.8,281.5,215.7,280.2,209.7z"/>
		<g>
			<g>
				<path fill="#3A2A1C" d="M7.4,199.2c3.2,5.5,12.5,5.9,14.4,12c0.4,1.2,0.4,2.5,0.7,3.7c0.7,3,3,5.4,5.6,6.9
					c2.6,1.5,5.6,2.3,8.6,3.1c6.3,1.6,12.5,3.3,18.8,4.9c2.2,0.6,4.4,1.2,6.2,2.7c1.5,1.3,2.5,3.2,4.2,4.2c1.9,1.2,4.4,1.1,6.6,1.1
					c6,0.2,12,1.9,17.2,4.9c2.5,1.4,4.8,3.1,7.4,4.3c4.6,2.1,9.7,2.3,14.6,1.1c4.3-1,8.8,1,12.7,3.1c5,2.6,10.1,5.1,15.1,7.7
					c4,2,8.1,4.1,12.5,5.1c5.6,1.3,11.5,0.7,17.3,0.1c4.3-0.4,8.7-0.9,13-1.3c3.3-0.3,6.6-0.7,9.5-2.2c2-1,3.7-2.5,5.8-2.9
					c1.4-0.3,2.8-0.1,4.2-0.1c8.7,0.4,17.2-2.9,25.3-6.1c2.5-1,5-2,7.5-3c2.4-1,4.8-1.9,7.2-3c2.7-1.3,5.3-2.7,8-3.9
					c5.8-2.6,12.3-4.5,16.7-9.2c4.9-5.4,5.7-13.3,6.3-20.7c0.6-7.1,2.4-15,1.7-22.1c-0.7-6.2-1.8-12.4-3.3-18.5
					c0.4,2.5,0.9,5.1,0.5,7.5c-0.9,5.2-6.2,9.4-5.2,14.6c0.3,1.6,1.2,3,1.5,4.5c0.6,3.7-2.5,7.2-6.2,8.3c-3,0.9-6.2,0.6-9.3,0.1
					c0.1,0.2,0.2,0.4,0.4,0.5c0.2,0.2,0.4,0.4,0.7,0.5c0.3,0.1,0.5,0.3,0.8,0.4c0.8,0.3,1.6,0.6,2.3,0.9c1.3,0.5,2.5,1.1,3.4,2.1
					c0.8,0.8,1.3,1.8,1.7,2.9c0.8,2.1,0.9,4.6,0,6.7c-1,2.4-3.1,3.8-5.5,4.5c-1.6,0.9-3.3,1.6-5,2.2c-17.4,6.4-35.6,12.3-54.1,10.9
					c-3.9-0.3-7.9-0.9-11.8-0.3c-3.9,0.6-7.5,2.3-11.3,3.4c-11.4,3.4-23.7,1-35-2.5c-5.7-1.7-11.4-3.7-17.4-4.2
					c-5.6-0.4-11.3,0.6-16.9-0.3c-14.5-2.2-24.8-15.8-38.9-19.8c-4.1-1.2-8.5-1.5-11.9-3.9c-2.1-1.5-3.6-3.5-5.6-5.1
					c-2.4-2-5.4-3.2-8.3-4.3l-23.6-9.4c-4.5-1.8-9.5-4-11.5-8.5c-0.1-0.2-0.1-0.3-0.2-0.5c0.3,4,0.7,7.9,1.4,11.9
					C6.2,195.9,6.5,197.7,7.4,199.2z"/>
				<path fill="#3A2A1C" d="M7.4,199.2c3.2,5.5,12.5,5.9,14.4,12c0.4,1.2,0.4,2.5,0.7,3.7c0.7,3,3,5.4,5.6,6.9
					c2.6,1.5,5.6,2.3,8.6,3.1c6.3,1.6,12.5,3.3,18.8,4.9c2.2,0.6,4.4,1.2,6.2,2.7c1.5,1.3,2.5,3.2,4.2,4.2c1.9,1.2,4.4,1.1,6.6,1.1
					c6,0.2,12,1.9,17.2,4.9c2.5,1.4,4.8,3.1,7.4,4.3c4.6,2.1,9.7,2.3,14.6,1.1c4.3-1,8.8,1,12.7,3.1c5,2.6,10.1,5.1,15.1,7.7
					c4,2,8.1,4.1,12.5,5.1c5.6,1.3,11.5,0.7,17.3,0.1c4.3-0.4,8.7-0.9,13-1.3c3.3-0.3,6.6-0.7,9.5-2.2c2-1,3.7-2.5,5.8-2.9
					c1.4-0.3,2.8-0.1,4.2-0.1c8.7,0.4,17.2-2.9,25.3-6.1c2.5-1,5-2,7.5-3c2.4-1,4.8-1.9,7.2-3c2.7-1.3,5.3-2.7,8-3.9
					c5.8-2.6,12.3-4.5,16.7-9.2c4.9-5.4,5.7-13.3,6.3-20.7c0.6-7.1,2.4-15,1.7-22.1c-0.7-6.2-1.8-12.4-3.3-18.5
					c0.4,2.5,0.9,5.1,0.5,7.5c-0.9,5.2-6.2,9.4-5.2,14.6c0.3,1.6,1.2,3,1.5,4.5c0.6,3.7-2.5,7.2-6.2,8.3c-3,0.9-6.2,0.6-9.3,0.1
					c0.1,0.2,0.2,0.4,0.4,0.5c0.2,0.2,0.4,0.4,0.7,0.5c0.3,0.1,0.5,0.3,0.8,0.4c0.8,0.3,1.6,0.6,2.3,0.9c1.3,0.5,2.5,1.1,3.4,2.1
					c0.8,0.8,1.3,1.8,1.7,2.9c0.8,2.1,0.9,4.6,0,6.7c-1,2.4-3.1,3.8-5.5,4.5c-1.6,0.9-3.3,1.6-5,2.2c-17.4,6.4-35.6,12.3-54.1,10.9
					c-3.9-0.3-7.9-0.9-11.8-0.3c-3.9,0.6-7.5,2.3-11.3,3.4c-11.4,3.4-23.7,1-35-2.5c-5.7-1.7-11.4-3.7-17.4-4.2
					c-5.6-0.4-11.3,0.6-16.9-0.3c-14.5-2.2-24.8-15.8-38.9-19.8c-4.1-1.2-8.5-1.5-11.9-3.9c-2.1-1.5-3.6-3.5-5.6-5.1
					c-2.4-2-5.4-3.2-8.3-4.3l-23.6-9.4c-4.5-1.8-9.5-4-11.5-8.5c-0.1-0.2-0.1-0.3-0.2-0.5c0.3,4,0.7,7.9,1.4,11.9
					C6.2,195.9,6.5,197.7,7.4,199.2z"/>
			</g>
			<path fill="#8A5941" d="M270,207.2c0.1-0.7,0.5-1.3,0.9-1.9c1.4-2.5,2-5.3,2-8.1s-0.4-5.6-1-8.4c-0.6-2.7,1.3-5.5,0.4-8.2
				c-1.7,2.6-3.4,5.4-3.7,8.5c-0.3,2.8,0.6,5.6,0,8.3l-0.9-5.6c-0.4,1.2,0.1,2.5,0.5,3.8c1.3,4.8-1.5,10.3-6.1,12.2
				c0.4,0.4,0.8,0.9,1.1,1.3c0.4,0.4,0.7,0.8,0.9,1.3c0.4,0.8,0.5,1.6,0.6,2.5c0.5,4.4,0.7,8.8,0.4,13.2c-0.1-2-0.5-3.9-1-5.8
				c-1.7,1.7-3.5,3.5-5.7,4.6c-1.2,0.6-2.4,0.9-3.6,1.6c-1.1,0.7-2.1,1.8-2.2,3.1c-0.2-0.4-0.4-0.9-0.6-1.3
				c-6.8,1.5-13.3,3.8-19.5,7c-1.6,0.8-3.6,0.4-5.1,1.3c-0.8,0.5-1.3,1.4-1.8,2.3c-0.9,1.8-1.7,3.7-2.3,5.6c-0.8-1.9,0.3-4,0.9-6
				c0.1-0.3,0.2-0.8,0-1.1c-0.3-0.4-0.9-0.4-1.5-0.2c-1.4,0.3-2.7,0.6-4.1,1c-1.5,0.3-3,0.7-4.2,1.6c-1.7,1.1-2.7,2.9-3.7,4.7
				c0.3-1.2,0.6-2.4,0.8-3.7c0.1-0.3,0.1-0.6,0-0.9c-0.2-0.4-0.7-0.4-1.1-0.4c-5.3,0-10.6-0.1-15.9-0.1c-0.4,0-0.7,0-1,0.1
				c-0.7,0.3-1,1.2-1,2c0,0.8,0.1,1.6-0.1,2.4c-0.6-1.3,0-2.9-0.7-4.2c-0.9-1.7-3.3-1.6-5.1-1.2c-4.5,0.9-8.9,2.2-13.1,4
				c-0.9,0.4-1.9,0.8-2.4,1.7c-0.4,0.6-0.4,1.3-0.5,2c-0.3,3.3-0.7,6.6-1,9.8c-0.1-2.8-0.1-5.6-0.2-8.4c0-1-0.1-2.1-0.8-2.8
				c-1.2-1.1-3.2-0.4-4.6-1.3c-1.3-0.8-3.5-0.5-5-0.6c-6.9-0.6-13.8-1.2-20.6-2.5c-0.7-0.1-1.6-0.2-2.2,0.3
				c-0.3,0.3-0.4,0.7-0.6,1.1l-1.7,5.1c0-1.7,0-3.5,0-5.2c0-0.7,0-1.4-0.3-2c-0.4-0.8-1.2-1.3-2-1.7c-2.4-1.2-5-2.1-7.6-2.6
				c-0.5-0.1-1.1-0.2-1.5,0.1c-0.7,0.3-0.9,1.2-1,1.9c0,0.7,0.1,1.5,0,2.2c-0.2-1-0.4-2.1-0.6-3.1c0-0.2-0.1-0.4-0.2-0.6
				c-0.2-0.2-0.6-0.3-0.9-0.3c-4.9-0.1-9.8-0.2-14.7-0.3c-3.3-0.1-6.3-2.1-9.5-3.1c-1.6-0.5-3.2-1-4.7-1.8c-1.6-0.8-3.1-1.9-4.5-3
				c-2.4-1.8-4.9-3.6-7.3-5.4c-0.6-0.4-1.2-0.9-1.8-1.2c-0.6-0.3-1.3-0.4-1.9-0.7c-0.6-0.3-1.2-0.7-1.7-1c0.2,4.2,0.4,8.4,0.6,12.6
				c-0.6-4-1.1-8-1.7-11.9c-0.1-0.5-0.2-1-0.5-1.5c-0.3-0.4-0.8-0.7-1.4-0.9c-4.3-1.9-8.7-3.5-13.2-4.8c-2.1-0.6-4.3-1.2-5.8-2.8
				c-0.2-0.2-0.6-0.5-0.8-0.2c-0.6-0.2-1.3-0.2-1.9-0.4c-0.6-0.2-1.2-0.4-1.7-0.8c-0.6-0.4-1.1-1.1-1.5-1.7c-1.1-1.5-2.2-3-3.9-3.8
				c-0.9-0.4-1.9-0.6-2.9-1c-1.4-0.5-2.7-1.4-4-2.3c-0.3,3.3,0.2,6.6,0.8,9.8c-0.9-1.8-1.5-3.7-1.8-5.7c-0.2-1.3-0.3-2.7-1.1-3.8
				c-0.8-1.1-2.2-1.5-3.3-2.2c-1.6-0.8-2.9-2-4.5-2.8c-2.2-1.1-4.6-1.3-7-1.9c-4.6-1.1-8.9-3.7-12.2-7.1c0,2.8,0.5,5.5,1,8.2
				c0.5,2.5,1,5.1,2.8,7c1.7,1.7,4.1,2.3,6.4,2.9c-0.2-3.1-0.4-6.2-0.7-9.3c0.4,2.3,0.8,4.6,1.2,6.9c0.2,0.9,0.3,1.8,0.8,2.6
				c1,1.5,3,2.1,4,3.6c1.1,1.7,0.8,4,1.9,5.7c0-3.3-0.1-6.6-0.1-9.9c-0.1,2.7,0.3,5.3,0.8,8c0.3,1.9,0.7,3.8,1.8,5.4
				c1.2,1.8,3.3,2.9,5.3,3.4c2.1,0.5,4.3,0.6,6.4,0.6c-0.2-2.4-0.5-4.8-0.7-7.2c0.3,2.6,0.7,5.3,1.1,7.9c0.1,0.8,0.3,1.6,0.8,2.3
				c1,1.4,3,1.4,4.7,1.5c2.4,0.1,4.7,0.5,6.9,1.3c3.1,1.1,6.1,2.7,9.2,3.8c0.3,0.1,0.6,0.2,0.8,0c0.2-0.2,0.3-0.5,0.3-0.8
				c0-1.3,0-2.7-0.1-4c0.1,1.4,0.1,2.9,0.6,4.2c0.5,1.3,1.4,2.6,2.7,3.1c1.5,0.5,3.3,0.1,4.6,0.9c0.6-1.2,0.1-2.7-0.5-3.9
				c-1.6-3.9-2.8-7.9-3.5-12c2,5.3,4.1,10.5,6.4,15.7c1.7,3.8,7.5,2.8,11.4,4.3c5.2,1.9,9.3,6.5,14.8,6.9c0.7,0.1,1.4,0,1.8-0.6
				c0.2-0.4,0.2-0.9,0.1-1.3c-0.3-2.2-0.6-4.5-0.9-6.7c2,2.5,1.2,6.4,3.3,8.8c1.4,1.5,3.6,2,5.6,1.9c2-0.1,4-0.6,6.1-0.7
				c1.3,0,2.6,0.2,3.8-0.3c0.6-0.2,1.1-0.8,1.4-1.3c0.4,1.6,1.9,3,3.5,3.5c2.2,0.7,4.6,0.5,6.9,0.8c3.1,0.4,6,1.7,8.4,3.8
				c-0.1-1.9-0.2-3.8-0.3-5.7c1.1,2,0.2,4.8,1.7,6.5c0.4,0.5,1,0.8,1.6,1.1c3.1,1.6,6.1,3.2,9.2,4.8c1.3,0.7,2.6,1.3,4,1.5
				c1.4,0.2,3-0.2,3.9-1.4c0.7-0.9,0.8-2.2,0.9-3.4c0.3-3.9,0.6-7.9,0.9-11.8c0.4,4.3,0.3,8.5-0.1,12.8c-0.1,1.1-0.2,2.2,0.3,3.1
				c0.8,1.3,2.4,1.6,3.9,1.7c7.6,0.6,15.4-1.1,22-4.9c1.4-0.8,2.5-1.5,3.2-2.9s0.6-3.1,0.7-4.6c0-1.6,0.1-3.2,0.8-4.6
				c0.1,2.6,0.1,5.3,0.2,7.9c0,0.5,0,1,0.2,1.4c0.4,0.8,1.4,1.3,2.3,1.3c0.9,0,1.8-0.3,2.7-0.6c4.6-1.3,9.5-0.7,14.3-0.8
				c0.3,0,0.6,0,0.8-0.2c0.2-0.1,0.4-0.3,0.5-0.5c1.1-1.4,2.7-2.3,3.7-3.7c1.5-2,1.9-4.8,3.5-6.7c-0.5,3.9-3.5,6.9-4.5,10.7
				c0.7,0.4,1.6,0.2,2.3,0c1.2-0.3,2.4-0.6,3.6-1c0.7-0.2,1.5-0.4,2.2-0.8c0.9-0.5,1.6-1.3,2.3-2.1c2.1-2.5,3.9-5.2,5.3-8.2
				c-1.2,2.5-2.3,5-3.1,7.6c3.2-1,6.5-2.1,9.6-3.4c0.3-0.1,0.6-0.5,0.8-0.5c1-0.3,2.1-0.6,2.9-1.3c1.4-1.1,2-2.8,2.4-4.6
				c0.4-1.7,0.5-3.5,1.2-5.1c0.5,1.1,0.2,2.3,0,3.4c-0.2,1.2-0.5,2.5-0.7,3.7c-0.1,0.4-0.1,0.8,0.2,1.1c0.2,0.1,0.4,0.2,0.6,0.1
				c0.9,0,1.7-0.4,2.5-0.8c1.2-0.6,2.4-1.3,3.6-2c1.1-0.6,2.2-1.3,3-2.2c2-2.2,2.5-5.3,3.9-7.9c0.4,1.3-0.2,2.7-0.7,3.9
				c-0.3,0.7-0.4,1.7,0.2,2.1c0.4,0.3,1,0.2,1.5,0c1.2-0.4,2.3-1,3.4-1.7c0.9-0.6,1.9-1.1,2.8-1.8c1.2-1,2.3-2,3.4-3.1
				c2.3-2.6,3.6-5.9,4.1-9.3s0.2-6.9-0.7-10.2C270.1,209.1,269.8,208.1,270,207.2z"/>
			<g>
				<path fill="#8E8F37" d="M154,59.2c4.4,3.9,7.6,9.2,8.9,14.9c2.2-0.2,2.2-3.4,1.4-5.4c-2.5-6.5-7.3-12.1-13.3-15.5
					c-1.7-1-3.8-2.7-2.8-4.4c5.4-0.6,10-5.1,11.2-10.3c0,0,0,0,0,0c0.3-0.1,0.6-0.1,0.8,0c0.2,0.1,0.3,0.3,0.4,0.6c0,0,0,0.1,0,0.1
					c-0.5,4-5.7,9.1-3.1,12.7c1.4,1.9,4.4,2,6.3,0.6c1.9-1.4,2.8-3.8,3.2-6.1c0.6-3.9,0-8-1.7-11.6c-2.9-5.9-8.7-10.2-10.9-16.4
					c-0.8-2.3-1.2-4.7-0.6-7.1c0.6-2.4,1.6-4.8,1.3-7.2c-0.1-0.8-0.4-1.6-0.7-2.4c-1.2,1.3-1.7,2.9-2.4,4.5
					c-1.8,4.7-4.3,9.2-7.4,13.2c-2.6,3.4-5.7,6.8-6.4,11c-0.8,4.5,1.3,9.2,0.5,13.7c0.3,0.8,0.6,1.6,1,2.4
					C142.8,52.1,149.2,55,154,59.2z"/>
				<path fill="#8E8F37" d="M271,171.1c-0.5-2.1-1.1-4.1-1.7-6.2c-0.6-1.9-1.2-3.8-2.6-5.2c-1-1-2.4-1.6-3.5-2.6
					c-0.9-0.8-1.6-1.9-2.3-2.9c0.1,0.6,0.3,1.1,0.6,1.7c0.5,0.7,1.2,1.3,1.7,2c1.6,2.1,0.9,5.1-0.4,7.4c-1.3,2.3-3.2,4.2-4.2,6.6
					c-1.8,4.6,0.1,9.9-1.1,14.6c-0.3,1.4-1.2,3-2.6,3.2c-1.6,0.2-2.9-1.5-3.4-3.1c-0.4-1.6-0.4-3.4-1.3-4.8
					c-2.5-3.8-9.3-1.5-12.4-4.8c-1.6-1.7-1.7-4.2-2.6-6.3c-1.6-3.9-5.4-6.4-9.1-8.5c-1.7-1-3.3-2-5.2-2.5c-3.3-0.9-6.8-0.3-10.2-0.8
					c-7.3-1-13.4-7.1-20.7-7.1c-3.9,0-8.6,1.5-11.4-1.2c-1.5-1.4-1.8-3.6-2.1-5.7c-1.3-9.2-2-18.4-2.3-27.6c-0.1-4.4-0.2-9-2.4-12.7
					c-2-3.4-5.5-5.6-8.9-7.6c-15.3-9.3-30.5-18.7-45.8-28c-1-0.6-2-1.2-2.5-2.2c-0.5-1-0.3-2.5,0.7-2.9c0.7-0.3,1.6,0,2.3,0.2
					c6.9,2.6,13.9,5.2,20.8,7.8c2,1.1,4,2,6.1,2.9c0.4,0.2,0.9-0.1,0.7-0.6c-1.1-3.5-4.2-6.4-7.4-8.1c-4.2-3.4-9.3-6.4-10.7-11.5
					c-0.6-2.2-0.4-4.6-0.5-6.9c-0.3-4-1.8-7.9-4.3-11c-1.1,1-1.7,2.5-2.2,3.9c-3.9,10.3-7.8,20.6-11.7,30.9
					c-1.6,4.3-7.3,8.2-11.1,10.9c-3.1,2.2-6.2,4.4-9.3,6.6c-1.2,0.8-2.4,1.8-2.8,3.2c-0.2,0.7-0.1,1.4-0.2,2.1
					c-0.3,1.7-1.8,2.9-2.5,4.5c-0.7,1.4-0.7,2.9-0.9,4.4c-0.5,6.3-2.3,13.2-7.7,16.3c-2,1.1-4.2,1.6-6.3,2.6
					c-2.7,1.3-4.8,3.5-7.2,5.3c-7.5,5.8-17,8.1-26.3,10.1c-4.4,1-8.9,1.9-12.9,4.1c-4,2.1-7.5,5.7-8.4,10.1
					c-1.2,5.3-0.6,10.8-2.1,16.1c-0.5,2-2.9,2.7-4.3,4.1c-2.4,2.2-2.5,6-2.3,9.2c0,0.4,0.1,0.7,0.1,1.1c0.1,0.2,0.1,0.3,0.2,0.5
					c2,4.5,7,6.7,11.5,8.5l23.6,9.4c2.9,1.2,5.9,2.4,8.3,4.3c2,1.6,3.5,3.7,5.6,5.1c3.5,2.4,7.9,2.8,11.9,3.9
					c14.1,4,24.4,17.7,38.9,19.8c5.6,0.8,11.3-0.1,16.9,0.3c6,0.5,11.7,2.5,17.4,4.2c11.4,3.5,23.6,5.9,35,2.5
					c3.8-1.1,7.4-2.8,11.3-3.4c3.9-0.6,7.9,0.1,11.8,0.3c18.5,1.4,36.7-4.5,54.1-10.9c1.6-0.6,3.4-1.3,5-2.2
					c2.4-0.8,4.5-2.2,5.5-4.5c0.9-2.1,0.8-4.6,0-6.7c-0.4-1.1-0.9-2.1-1.7-2.9c-0.9-1-2.1-1.6-3.4-2.1c-0.7-0.3-1.6-0.5-2.3-0.9
					c-0.3-0.1-0.5-0.3-0.8-0.4c-0.2-0.2-0.5-0.3-0.7-0.5c-0.2-0.2-0.3-0.3-0.4-0.5c3.1,0.5,6.3,0.8,9.3-0.1c3.6-1.1,6.8-4.6,6.2-8.3
					c-0.3-1.6-1.1-3-1.5-4.5c-1-5.2,4.4-9.4,5.2-14.6C271.9,176.3,271.4,173.7,271,171.1z"/>
				<path fill="#686868" d="M127.4,54.6c1.4,5.1,6.4,8.1,10.7,11.5c3.2,1.7,6.3,4.6,7.4,8.1c0.1,0.5-0.4,0.7-0.7,0.6
					c-2.1-0.9-4.1-1.8-6.1-2.9c-6.9-2.6-13.9-5.2-20.8-7.8c-0.7-0.3-1.6-0.6-2.3-0.2c-1,0.5-1.2,1.9-0.7,2.9c0.5,1,1.5,1.6,2.5,2.2
					c15.3,9.3,30.5,18.7,45.8,28c3.4,2.1,6.8,4.2,8.9,7.6c2.2,3.8,2.3,8.4,2.4,12.7c0.3,9.2,1,18.5,2.3,27.6c0.3,2,0.7,4.2,2.1,5.7
					c2.8,2.8,7.4,1.2,11.4,1.2c7.4,0,13.4,6.1,20.7,7.1c3.4,0.5,6.9-0.2,10.2,0.8c1.9,0.5,3.5,1.5,5.2,2.5c3.6,2.2,7.5,4.6,9.1,8.5
					c0.8,2.1,1,4.6,2.6,6.3c3.2,3.3,9.9,1,12.4,4.8c0.9,1.4,0.9,3.2,1.3,4.8c0.4,1.6,1.7,3.3,3.4,3.1c1.4-0.2,2.3-1.7,2.6-3.2
					c1.1-4.8-0.7-10.1,1.1-14.6c1-2.4,2.8-4.4,4.2-6.6c1.3-2.3,2-5.3,0.4-7.4c-0.5-0.7-1.3-1.2-1.7-2c-0.3-0.5-0.5-1.1-0.6-1.7
					c-0.4-0.6-0.8-1.1-1.3-1.6c-3.2-3.2-8.9-3.3-11.2-7.2c-0.5-0.9-0.8-1.8-1.1-2.8c-1.6-5.5-3-11-4.1-16.6
					c-0.7-3.6-1.4-7.3-3.4-10.4c-3.9-6-15.9-8.6-15.2-15.7c0.1-1.3-1.3-2.3-2.5-2.5c-1.3-0.3-2.7-0.1-3.9-0.6
					c-3-1.2-3.1-5.3-2.8-8.5c0.3-3.2,0.2-7.2-2.7-8.5c-6.3-2.8-12.5-6-18.4-9.7c-2.2-1.3-4.4-2.8-6-4.9c-2.6-3.5-2.8-8.1-2.9-12.4
					c-0.3-10.1-1.5-21.4-9.1-28c-2.8-2.4-6.3-4.1-7.8-7.4c-1.4-3.2-1-7.8-4.2-8.9c-3.1-1.1-2-6.6-4.9-8.2c-1.5-0.9-3.5-0.1-4.7,1.1
					c0,0,0,0,0,0.1c0.3,0.8,0.5,1.6,0.7,2.4c0.4,2.4-0.6,4.8-1.3,7.2c-0.6,2.4-0.2,4.8,0.6,7.1c2.2,6.2,8,10.5,10.9,16.4
					c1.7,3.6,2.3,7.7,1.7,11.6c-0.4,2.3-1.3,4.7-3.2,6.1c-1.9,1.4-5,1.4-6.3-0.6c-2.6-3.6,2.7-8.7,3.1-12.7c0,0,0-0.1,0-0.1
					c-0.1-0.2-0.2-0.5-0.4-0.6c-0.2-0.1-0.5-0.1-0.8,0c0,0,0,0,0,0c-1.1,5.3-5.8,9.7-11.2,10.3c-1,1.7,1.1,3.5,2.8,4.4
					c6,3.5,10.8,9.1,13.3,15.5c0.8,2,0.7,5.2-1.4,5.4c-1.3-5.7-4.5-11-8.9-14.9c-4.8-4.3-11.2-7.1-14.2-12.8c-0.4-0.8-0.7-1.6-1-2.4
					c0,0.2-0.1,0.4-0.1,0.5c-2.2-4.6-6.8-8-11.8-8.8c-1-0.2-2.1-0.2-3,0.1c-0.5,0.2-1,0.5-1.3,0.8c2.5,3.1,4,7,4.3,11
					C127,50,126.8,52.4,127.4,54.6z"/>
				<path fill="#514C0C" d="M127.4,54.6c1.4,5.1,6.4,8.1,10.7,11.5c3.2,1.7,6.3,4.6,7.4,8.1c0.1,0.5-0.4,0.7-0.7,0.6
					c-2.1-0.9-4.1-1.8-6.1-2.9c-6.9-2.6-13.9-5.2-20.8-7.8c-0.7-0.3-1.6-0.6-2.3-0.2c-1,0.5-1.2,1.9-0.7,2.9c0.5,1,1.5,1.6,2.5,2.2
					c15.3,9.3,30.5,18.7,45.8,28c3.4,2.1,6.8,4.2,8.9,7.6c2.2,3.8,2.3,8.4,2.4,12.7c0.3,9.2,1,18.5,2.3,27.6c0.3,2,0.7,4.2,2.1,5.7
					c2.8,2.8,7.4,1.2,11.4,1.2c7.4,0,13.4,6.1,20.7,7.1c3.4,0.5,6.9-0.2,10.2,0.8c1.9,0.5,3.5,1.5,5.2,2.5c3.6,2.2,7.5,4.6,9.1,8.5
					c0.8,2.1,1,4.6,2.6,6.3c3.2,3.3,9.9,1,12.4,4.8c0.9,1.4,0.9,3.2,1.3,4.8c0.4,1.6,1.7,3.3,3.4,3.1c1.4-0.2,2.3-1.7,2.6-3.2
					c1.1-4.8-0.7-10.1,1.1-14.6c1-2.4,2.8-4.4,4.2-6.6c1.3-2.3,2-5.3,0.4-7.4c-0.5-0.7-1.3-1.2-1.7-2c-0.3-0.5-0.5-1.1-0.6-1.7
					c-0.4-0.6-0.8-1.1-1.3-1.6c-3.2-3.2-8.9-3.3-11.2-7.2c-0.5-0.9-0.8-1.8-1.1-2.8c-1.6-5.5-3-11-4.1-16.6
					c-0.7-3.6-1.4-7.3-3.4-10.4c-3.9-6-15.9-8.6-15.2-15.7c0.1-1.3-1.3-2.3-2.5-2.5c-1.3-0.3-2.7-0.1-3.9-0.6
					c-3-1.2-3.1-5.3-2.8-8.5c0.3-3.2,0.2-7.2-2.7-8.5c-6.3-2.8-12.5-6-18.4-9.7c-2.2-1.3-4.4-2.8-6-4.9c-2.6-3.5-2.8-8.1-2.9-12.4
					c-0.3-10.1-1.5-21.4-9.1-28c-2.8-2.4-6.3-4.1-7.8-7.4c-1.4-3.2-1-7.8-4.2-8.9c-3.1-1.1-2-6.6-4.9-8.2c-1.5-0.9-3.5-0.1-4.7,1.1
					c0,0,0,0,0,0.1c0.3,0.8,0.5,1.6,0.7,2.4c0.4,2.4-0.6,4.8-1.3,7.2c-0.6,2.4-0.2,4.8,0.6,7.1c2.2,6.2,8,10.5,10.9,16.4
					c1.7,3.6,2.3,7.7,1.7,11.6c-0.4,2.3-1.3,4.7-3.2,6.1c-1.9,1.4-5,1.4-6.3-0.6c-2.6-3.6,2.7-8.7,3.1-12.7c0,0,0-0.1,0-0.1
					c-0.1-0.2-0.2-0.5-0.4-0.6c-0.2-0.1-0.5-0.1-0.8,0c0,0,0,0,0,0c-1.1,5.3-5.8,9.7-11.2,10.3c-1,1.7,1.1,3.5,2.8,4.4
					c6,3.5,10.8,9.1,13.3,15.5c0.8,2,0.7,5.2-1.4,5.4c-1.3-5.7-4.5-11-8.9-14.9c-4.8-4.3-11.2-7.1-14.2-12.8c-0.4-0.8-0.7-1.6-1-2.4
					c0,0.2-0.1,0.4-0.1,0.5c-2.2-4.6-6.8-8-11.8-8.8c-1-0.2-2.1-0.2-3,0.1c-0.5,0.2-1,0.5-1.3,0.8c2.5,3.1,4,7,4.3,11
					C127,50,126.8,52.4,127.4,54.6z"/>
			</g>
			<path opacity="0.47" fill="#1C1C1C" d="M261.6,156.7c2.3,2.4,3.9,5.8,3.3,9c-0.5,2.7-2.4,4.9-2.8,7.6c-0.4,3,1.3,5.8,2,8.7
				c1.6,5.9-0.4,12.4,1.4,18.3c-5.3,2.9-11.9-0.2-17.9,0.4c-3.1,0.3-6,1.6-9,2.2c-5.9,1.1-12.3-0.8-17.9,1.4
				c-1.8,0.7-3.5,1.8-5.4,2.4c-2.1,0.6-4.3,0.6-6.5,0.5c-15.5-0.4-30.9-0.9-46.4-1.3c-2.8-0.1-6-0.3-7.8-2.5c-2.2-2.6-1-6.8,1.5-9.1
				c2.5-2.3,5.9-3.3,9.1-4.4c3.1-1.1,6.1-2.4,9-3.9c1.4-0.7,2.7-1.5,3.6-2.8c0.9-1.3,1.1-3,1.2-4.6c0.3-7.4-1.8-14.9-5.9-21.2
				c-4.6-6.9-11.6-12.5-13.4-20.6c-0.9-4.2-0.3-8.5-0.3-12.8c0-4.3-0.7-8.9-3.6-12c-2.4-2.6-6.3-3.9-7.8-7.1c-1.3-2.7-0.4-6,1.5-8.3
				s4.6-3.7,7.4-4.8c9.5-3.8,20.9-4,29.4,1.7c11.7,7.9,14.6,24.2,24.9,34c4.5,4.4,10.3,7.2,15.9,9.9c6.7,3.3,13.3,6.5,20,9.8
				C251.8,149.6,257.7,152.9,261.6,156.7z"/>
			<path fill="#605C0F" d="M157.1,13.5c-0.6,3.3,0.6,7,3.3,9c0.7,0.5,1.4,0.9,2.1,1.3c2.2,1.6,3.4,4.2,4.3,6.8
				c2.1,5.8,3.2,12,3.3,18.2c0,1.9-0.2,4.2-1.9,5.2c-1.1,0.7-2.4,0.6-3.7,0.7c-1.3,0.1-2.7,0.7-3,2c-0.2,1,0.5,2,1.3,2.7
				c0.8,0.7,1.8,1.1,2.5,1.9c1,1,1.4,2.5,1.8,3.9c0.7,2.5,1.4,5,2.1,7.4c0.5,1.9,0.9,4.4-0.7,5.6c-0.5,0.4-1.2,0.6-1.7,1
				c-1.5,1.3-0.6,3.9,0.9,5.2c1.5,1.3,3.5,2.2,4.4,4c0.4,0.8,0.6,1.8,1.1,2.5c1.4,1.9,4.5,1.4,6.5,2.7c1.8,1.1,2.5,3.6,4.4,4.4
				c1.9,0.8,4.2-0.4,5.2-2.1c1-1.8,1.1-3.9,1.1-6c-0.1-2.1-0.3-4.2,0.3-6.2c0.7-2.4,2.5-4.5,2.2-7c-0.2-2.1-1.9-3.6-3.3-5.2
				c-3.3-3.6-5.9-8-6.6-12.8c-0.4-2.6-0.3-5.3-0.4-8c-0.1-5.3-0.7-10.7-2.6-15.7s-5.2-9.5-9.8-12.2c-1.7-1-3.6-1.8-4.9-3.3
				c-1.6-2-1.8-4.7-2.4-7.2c-0.3-1.3-1.7-5.5-3.6-5.2C157.9,7.6,157.4,12.2,157.1,13.5z"/>
			<path fill="#605C0F" d="M131.2,58.7c2.6,2.9,6.9,3.5,10.2,5.5c3.7,2.3,5.9,6.6,6.5,11c0.1,0.9,0.2,1.9-0.2,2.8
				c-0.4,0.8-1.4,1.5-2.3,1.2c-0.3-0.1-0.5-0.3-0.8-0.2c-0.4,0.1-0.5,0.7-0.2,1.1c0.3,0.3,0.7,0.5,1.1,0.6c3.4,0.9,6.7,1.8,10.1,2.8
				c0.7,0.2,1.4,0.4,2.2,0.3c1.6-0.3,2.6-2,2.9-3.6c1.1-4.6-0.4-9.6-2.9-13.6s-6.1-7.3-9.7-10.4c-1.1-0.9-2.1-1.9-3.3-2.6
				c-2-1.3-4.2-2.1-5.9-3.7c-1.4-1.4-2.3-3.3-3.5-4.9c-1-1.4-3.6-4.8-5.5-4.7c-2.5,0.2-1.7,3.7-1.5,5.3
				C128.8,49.7,128,55.1,131.2,58.7z"/>
			<path fill="#605C0F" d="M211.1,119.5c-0.4,2-1.1,4-1.2,6.1c-0.2,2.1,0.3,4.3,1.7,5.8c2.5,2.5,7.1,2.1,9.4,4.9
				c1.8,2.2,1.2,5.6,2.1,8.3c1.3,4,5.6,6.3,9.7,7.3c2,0.5,4,0.9,5.8,1.8c2,1.1,3.6,2.9,5.1,4.6c0.5,0.6,1.2,1.3,2,1.3
				c0.9-0.1,1.5-1.1,1.4-2c-0.1-0.9-0.6-1.7-1.2-2.4c-2.7-3.7-5.4-7.4-8.1-11.1c-0.7-1-1.5-2.1-2.6-2.8c-1.4-0.9-3.2-1.2-4.3-2.4
				c-1.1-1.2-1.2-3-1.3-4.6c-0.1-3.6-0.3-7.5-2.4-10.4c-1.1-1.5-2.6-2.5-3.7-4.1c-1.4-2.2-1.6-4.9-2.1-7.4c-0.5-2.5-1.7-5.3-4.1-6.2
				c-2.5-0.9-5.7,0.7-6,3.4C211.1,112.9,211.9,116.1,211.1,119.5z"/>
			<path fill="#605C0F" d="M250.9,159.9c2,2,3.6,4.7,3.1,7.5c-0.3,2-1.8,4.1-1,6c0.1,0.3,0.3,0.6,0.6,0.7c0.6,0.3,1.4-0.3,1.6-0.9
				s0.1-1.4,0.1-2.1c-0.1-2,0.8-3.9,1.5-5.7s1.3-3.9,0.6-5.8c-0.5-1.5-1.7-2.6-2.9-3.6c-1-0.9-2-1.8-3.3-2.1c-1.2-0.2-3,0.7-3.2,2.1
				C248,157.4,250,158.9,250.9,159.9z"/>
			<path fill="#B3804E" d="M9.9,201c0.4-0.3,0.6-0.8,0.6-1.2c0-0.5-0.2-0.9-0.3-1.4c-0.5-1.6-0.7-3.2-0.7-4.8c0-0.2,0-0.5,0.3-0.6
				c0.2-0.1,0.5,0,0.7,0.2c0.5,0.3,0.9,0.7,1.5,0.9c0.5,0.2,1.2,0.1,1.6-0.3c-0.8-1.4-2.8-1.5-3.9-2.7c-0.3-0.4-0.5-0.8-0.7-1.2
				c-0.4-0.7-1.5-2.4-2.2-1.1c-0.5,1,0.2,3.1,0.4,4.1C7.6,195.5,8.6,198.3,9.9,201z"/>
			<path fill="#B3804E" d="M37.4,211.5c0.5,3.2,1.1,6.3,1.6,9.5c0.1,0.3,0.1,0.7,0.4,1c0.2,0.3,0.7,0.3,0.9,0.1
				c0.1-0.1,0.1-0.3,0.2-0.4c0.5-2.7-0.8-5.8,0.5-8.2c0.6-1.1,1.6-2,1.8-3.3c0.2-1.2-0.5-2.4-0.4-3.6c0-0.3,0.1-0.6,0-0.9
				c-0.1-0.3-0.4-0.5-0.6-0.6c-1.1-0.7-2.3-1.5-3.4-2.2c-2.3-1.5-1.9,1.4-1.8,2.8C36.8,207.5,37.1,209.5,37.4,211.5z"/>
			<path fill="#B3804E" d="M72.3,233.3c0.7-0.8,0.3-1.9-0.1-2.8c-0.8-2-1.5-4-2-6.1c-0.3-1.1-0.6-5-1.8-5.5c-1-0.5-2,1.2-2,2.1
				c0,1.7,1.6,4,2.4,5.5C69.9,228.7,71.1,231,72.3,233.3z"/>
			<path fill="#B3804E" d="M101.1,240.7c0.5,1.8,1.1,3.8,2.5,5c0.3,0.3,0.7,0.5,1.1,0.6c0.4,0.1,0.9-0.1,1.1-0.4
				c0.3-0.5,0.1-1.1-0.2-1.7c-1.5-2.7-3.7-5-5.1-7.8c-0.3-0.6-0.9-1.9-1.8-1.6c-0.7,0.2-0.2,0.5,0.1,0.9
				C100.1,237.3,100.6,238.9,101.1,240.7z"/>
			<path fill="#B3804E" d="M171.9,246.4c-0.2,3.2-0.4,6.4-0.6,9.5c0,0.2,0,0.5,0.1,0.7s0.4,0.4,0.6,0.2c0.1-0.1,0.2-0.2,0.2-0.3
				c1-1.8,1-4,2.2-5.6c0.6-0.8,1.3-1.3,2.1-1.9c0.9-0.6,1.8-1.3,2.8-1.6c0.8-0.2,1.6-0.3,2.3-0.7c0.6-0.4,1-1,1.4-1.6
				c1.2-1.8,2.7-3.5,4.8-3.9c0.7-0.1,1.6-0.2,1.7-0.9c0.1-0.5-0.3-0.9-0.8-1c-0.4-0.1-0.9,0-1.4,0.1c-3.4,0.8-6.9,1.6-10.2,2.6
				C174.6,242.9,172.1,243.1,171.9,246.4z"/>
			<path fill="#B3804E" d="M122.7,243c0,0.2,0,0.4,0.1,0.5c0.1,0.2,0.3,0.3,0.5,0.2c0.2,0,0.3-0.2,0.3-0.3c0.4-0.8,0.7-1.7,0.7-2.5
				c0-0.5,0.1-1.1,0.5-1.5c0.2-0.2,0.6-0.3,0.9-0.3c1-0.1,2,0.2,2.9-0.2c0.2-0.1,0.4-0.2,0.4-0.5c0-0.2-0.2-0.4-0.4-0.6
				c-1.1-0.8-4.3-3.1-5.6-1.6c-0.6,0.7-0.4,2.1-0.4,2.9C122.6,240.4,122.7,241.7,122.7,243z"/>
			<path fill="#B3804E" d="M25.5,213.9c0.4,1.2,1,2.4,2,3.1c0.3,0.2,0.6,0.3,0.8,0.1c0.1-0.1,0.2-0.2,0.3-0.3c0.4-0.9,0-1.9-0.5-2.7
				c-0.5-0.8-1.1-1.7-1.2-2.6c0-0.4,0.1-0.8,0.1-1.2c0-0.8-0.3-1.5-0.5-2.3c-0.8-2.2-1.2-4.6-2.1-6.7c-0.7,1.4,0,4.3,0.1,5.8
				C24.7,209.4,24.9,211.7,25.5,213.9z"/>
			<g>
				<g>
					<g>
						<path fill="#525E4A" d="M151.8,197.5c2.9,0.8,4.9,4.2,4.1,7.1c-0.4,1.3-1.2,2.8-0.4,3.9c0.4,0.6,1.2,0.9,1.7,1.5
							c1,1.5-1,3.3-1.2,5.1c-0.2,1.6,1.1,3.1,2.7,3.7c1.5,0.6,3.3,0.4,4.9,0.3c1.6-0.2,3.4-0.3,4.9,0.3c0.6,0.3,1.3,0.8,1.2,1.5
							c-0.2,1-1.9,0.8-2.6,1.5c-0.8,0.7-0.4,2.1,0.4,2.7c0.8,0.6,2,0.6,3,0.7c2.5,0.1,4.9,0.1,7.4,0.2c1.1,0,2.2,0,3-0.7
							c0.3-0.3,0.5-0.7,0.6-1.1c0.2-1.1,1.2-1.8,2.2-1.9c2.6-0.2,5.3-0.2,8-0.1c2.7,0,5.4,0.1,8,0.1c3.3,0.1,6.7,0.1,9.9-0.7
							c3.2-0.8,6.3-2.7,7.9-5.6c0.2-0.4,0.4-0.8,0.7-1.1c0.9-1.1,2.6-1.2,4-1.2c8.1,0,16.2-0.5,24.2-1.6c0.9-0.1,1.8-0.7,2.1-1.6
							c0.9-2.3-2.2-3.5-4-2.9c-1.1,0.3-2.2,0.4-3.3-0.1c-5.5-2.3-12-1.6-18-1.9c-0.7,0-1.5-0.1-2.1-0.6c-0.6-0.5-0.8-1.3-0.3-1.9
							c0.4-0.4,1-0.5,1.6-0.6c1.3-0.3,2.4-1.4,2.7-2.8c0.3-1.3-0.2-2.8-1.3-3.7c-0.7-0.6-1.6-0.8-2.5-1.1
							c-5.2-1.3-10.7-1.1-15.9-2.4c-4.2-1.1-8-3.1-12.1-4.4c-6.1-1.9-12.7-2.1-19.1-2.3c-4.2-0.1-8.5-0.2-12.4,1.3
							c-3.2,1.2-5.9,3.3-8.6,5.3c-1.3,1-2.7,2.4-2.2,4C151.3,196.7,151.4,197.6,151.8,197.5z"/>
					</g>
					<path fill="#D1BBAC" d="M159,207.7c0.5,0.4,1.1,0.5,1.6,0.7c2.8,0.6,5.7,0.4,8.3-0.7c0.7-0.3,1.3-0.6,2-0.8
						c0.9-0.3,1.8-0.3,2.7-0.3c2,0,4.1,0.3,6.1,0.3c2,0,4.1-0.2,6-1c0.4-0.2,0.7-0.4,1-0.6c0.9-0.9,0.9-2.5,0.1-3.5s-2-1.5-3.3-1.7
						c-1.3-0.2-2.5,0-3.8,0.1c-4,0.3-8.1-0.1-12.1-0.1c-2,0-4.1,0.1-6.1,0.6c-1.4,0.4-1.9,0.8-2.2,2.2
						C159.2,204.4,157.3,206.4,159,207.7z"/>
					<path fill="#D1BBAC" d="M171.6,211.5c1,0.1,1.9,0.5,2.8,0.5c0.8,0,1.6-0.3,2.4-0.4c0.8-0.1,1.7,0,2.2,0.6
						c0.4,0.5,0.5,1.4,1,1.9c0.4,0.4,1,0.5,1.6,0.6c1.4,0.2,2.9,0.4,4.3,0.2c1.4-0.2,2.8-0.7,4.2-1c1.4-0.2,2.8-0.2,4.2-0.1
						c1.1,0,2.4-0.1,3.1-1c0.8-1,0.3-2.6-0.7-3.3c-1-0.8-2.3-1-3.5-1.2c-2.8-0.4-5.7-0.6-8.5-0.6c-1.5,0-3,0-4.4,0.1
						c-1.6,0-3.2,0.2-4.8,0.1c-0.9-0.1-1.9-0.3-2.8-0.2c-1,0.2-2.4,0.8-2.9,1.7C168.7,211,170.5,211.3,171.6,211.5z"/>
					<path fill="#D1BBAC" d="M160.5,213.3c0,0.4,0,0.8,0.1,1.1c0.2,0.6,0.4,1.2,0.8,1.7c0.8,0.9,2,1.2,3.2,1.2c1.2,0,2.4-0.2,3.5,0
						c1.1,0.2,2.1,0.6,3.2,0.9c0.8,0.2,1.7,0.3,2.6,0.3c0.6,0,1.1,0,1.6-0.3c0.5-0.2,0.9-0.7,1.1-1.2c0.1-0.8-0.4-1.5-1-1.9
						c-0.7-0.4-1.4-0.5-2.2-0.6c-1.6-0.2-3.2-0.5-4.9-0.8c-0.5-0.1-1-0.2-1.4-0.5c-0.3-0.2-0.5-0.5-0.7-0.8
						C165.2,211.3,160.9,210.7,160.5,213.3z"/>
					<path fill="#D1BBAC" d="M189,204.6c-0.1,0.4,0.2,0.7,0.4,0.9c1.1,1,2.7,0.5,4.2,0.6c1.3,0.2,2.5,0.9,3.9,1.2
						c0.9,0.2,1.9,0.2,2.9,0c0.4-0.1,0.9-0.3,1.2-0.6s0.6-0.8,0.5-1.2c-0.1-0.3-0.3-0.6-0.5-0.8c-0.8-0.8-1.9-1.1-2.9-1.4
						c-2-0.5-4-0.5-6-0.4c-0.6,0-1.3-0.2-1.8-0.1C190.2,203,189.1,203.9,189,204.6z"/>
					<path fill="#D1BBAC" d="M217.5,198.7c-0.4-1.4-1.7-2.4-3.1-2.9c-1.4-0.5-2.9-0.6-4.3-0.8c-1.1-0.2-2.1-0.5-3.2-0.7l-3.5-0.9
						c-0.3-0.1-0.5-0.1-0.8-0.2c-1.5,0-3,0.1-4.5,0.4c-1.9,0.3-3.8,1.1-5.5,1.9l0.6,0.1c-0.2-0.1-0.5-0.1-0.7-0.1
						c-1.2,0.6-2.3,1.2-3.5,1.8c-0.3,0.3-0.6,0.6-0.8,1c-0.4,0.6-0.4,1.5,0.1,2.1c0.6,0.7,1.6,0.7,2.5,0.6c3.5-0.2,7.1-0.1,10.4,1.1
						c1.5,0.5,2.9,1.3,4.4,1.5c0.7,0.1,1.4,0.1,2.1,0.1c2.2,0,4.4-0.2,6.5-0.6c0.6-0.1,1.1-0.2,1.7-0.4
						C217.1,202.1,217.9,200.3,217.5,198.7z"/>
					<path fill="#D1BBAC" d="M207.9,206.1c-0.9,0.6-1.6,1.7-1.5,2.7c0,1.2,1,2.3,2,2.8c1.1,0.6,2.3,0.7,3.5,0.8
						c2.1,0.2,4.2,0.4,6.3,0.6c1.9,0.1,3.9,0.2,5.8,0c1.2-0.2,2.3-0.5,3.5-0.7c6-1,12.2,1,18.2,0.3c1.1-0.1,2.3-0.4,3-1.3
						c0.8-1,0.6-2.5-0.1-3.5c-0.7-1-1.9-1.6-3.1-1.9s-2.5-0.4-3.7-0.6c-1.8-0.3-3.5-0.9-5.2-1.3c-2.2-0.5-4.5-0.6-6.8-0.5
						c-1.7,0-3.3,0.1-5,0.3c-1.9,0.2-3.9,0.5-5.9,0.4c-0.8,0-1.5-0.2-2.2-0.2c-1.7-0.1-3.3,0.2-4.9,0.6
						C210.5,205.2,209,205.3,207.9,206.1z"/>
					<path fill="#D1BBAC" d="M198.7,211.5c0.5,0.4,1.2,0.6,1.8,0.7c1.8,0.2,3.7,0.1,5.5-0.2c0.2,0,0.5-0.1,0.6-0.3
						c0.1-0.2,0-0.3,0-0.5c-0.3-0.8-1.1-1.5-1.9-1.8c-1.3-0.5-3.3-0.9-4.7-0.8C198.6,208.7,197.5,210.3,198.7,211.5z"/>
					<path fill="#D1BBAC" d="M179.6,217.4c-0.9,0.1-2,0.6-2.1,1.5c0,0.7,0.6,1.2,1.2,1.5c1.8,0.9,3.9,0.3,5.8,0.3
						c0.7,0,1.5,0.1,2.2,0.1c7.7,0.6,15.7,0.9,23.1-1.5c1.2-0.4,2.5-0.9,3.3-1.9c0.3-0.4,0.6-0.8,0.6-1.3c0-0.6-0.4-1.2-0.9-1.6
						s-1.1-0.6-1.7-0.7c-5.4-1.3-11.1,0.5-16.7,0.8c-2.2,0.1-4.4,0-6.6,0.4c-0.9,0.2-1.8,0.4-2.7,0.7
						C183.2,216.2,181.6,217.2,179.6,217.4z"/>
					<path fill="#D1BBAC" d="M169.5,222.3c-0.4,0.2-0.8,0.3-1.3,0.3s-0.9,0.3-1,0.8c-0.1,0.5,0.4,1,0.9,1.2c1.1,0.5,2.4,0.4,3.7,0.3
						c2-0.2,3.9-0.3,5.9-0.5c0.5,0,1.2-0.1,1.4-0.6c0.3-0.7-0.4-1.3-1.1-1.6c-0.7-0.3-1.5-0.5-2.2-0.9c-0.5-0.4-0.8-0.9-1.3-1.2
						c-0.8-0.6-3-1.1-3.9-0.4C169.8,220.2,170.6,221.6,169.5,222.3z"/>
					<path opacity="0.47" fill="#7A7A7A" d="M223.9,226.2c-1.1-0.5-2.2-0.6-3.4-0.6c-2.7-0.2-5.4-0.4-8.1-0.2l-1.1,0.3
						c-2,0.4-3.9,1.2-5.6,2.4c-0.7,0.5-1.5,1.2-1.5,2.1c0,0.9,0.9,1.6,1.8,1.9c1.4,0.5,3,0.3,4.5,0.2c2.4-0.2,4.8,0,7.1-0.2
						c2.4-0.2,4.8-0.7,6.7-2.1c0.5-0.3,0.9-0.7,1-1.2C225.9,227.6,224.9,226.6,223.9,226.2z"/>
					<path opacity="0.47" fill="#7A7A7A" d="M227.2,224.2c0.9,0.5,1.9,0.5,2.9,0.4c2.7-0.3,5.3-1.3,8.1-1.8c0.9-0.2,1.8-0.2,2.7-0.5
						c0.9-0.3,1.7-0.8,2.1-1.6c0.6-1.2,0-2.9-1.3-3.5c-0.5-0.2-1-0.3-1.5-0.3c-0.6,0-1.2,0-1.8,0.2c-0.6,0.2-1.2,0.7-1.7,1.1
						c-2.3,1.5-4.7,1.5-7.3,1.8c-0.9,0.1-2.1,0.5-2.8,1.2C225.5,222,226,223.5,227.2,224.2z"/>
					<path opacity="0.47" fill="#7A7A7A" d="M157,231.8c-0.9,0.1-1.9,0.3-2.7,0.9c-0.8,0.6-1.2,1.6-0.8,2.5c0.3,0.7,1.1,1.1,1.9,1.3
						c4,1.3,8.4,0.9,12.6,0.2c0.8-0.2,1.7-0.3,2.5-0.4c3.1-0.3,6.4,0.8,9.1-0.5c0.6-0.3,1.2-0.7,1.4-1.4c0.3-0.9-0.3-1.8-1.1-2.3
						c-1.2-0.8-2.7-0.8-4.1-0.8c-0.9,0-1.9,0-2.8,0C167.7,231.6,162.3,231.1,157,231.8z"/>
					<path fill="#D1BBAC" d="M206.2,229.3c0,0.5,0.4,0.9,0.8,1.2c0.4,0.2,1,0.3,1.5,0.2c1.6-0.1,3.1-0.7,4.7-0.9
						c1.4-0.1,2.7,0.1,4.1,0.1c1.5,0,2.9-0.2,4.3-0.6c0.4-0.1,0.9-0.3,1.1-0.7c0.2-0.4,0-1-0.3-1.3c-0.4-0.3-0.8-0.5-1.3-0.6
						c-1.1-0.2-2.2-0.1-3.3,0c-2.4,0.2-4.9,0.6-7.4,0.7C209.2,227.4,206.2,227.5,206.2,229.3z"/>
					<path fill="#D1BBAC" d="M229,221c-0.6,0.2-1.2,0.3-1.6,0.7c-0.4,0.4-0.5,1.2-0.1,1.6c0.2,0.2,0.5,0.2,0.8,0.3
						c1.5,0.1,3-0.6,4.4-1c1.2-0.4,2.4-0.6,3.6-0.7c1.4-0.1,2.9,0,4.2-0.6c0.6-0.3,1.1-0.8,1-1.5c-0.1-0.5-0.5-0.8-1-0.9
						c-0.5-0.1-1,0-1.4,0.1c-1.9,0.4-3.7,0.8-5.6,1.2c-0.6,0.1-1.2,0.1-1.9,0.2C230.6,220.4,229.7,221,229,221z"/>
					<path fill="#D1BBAC" d="M157.5,236.2c1,0.2,1.9,0,2.9-0.1c1.8-0.3,3.7-0.6,5.5-0.9c1-0.2,1.9-0.3,2.9-0.3
						c0.6,0,1.3,0.1,1.9,0.1c2.5,0.2,4.9,0.2,7.4,0c0.3,0,0.7-0.1,0.9-0.3c0.5-0.4,0.2-1.3-0.4-1.6s-1.2-0.2-1.9-0.2
						c-3.6,0.3-7.1,0.3-10.7-0.1c-1.7-0.2-3.5-0.5-5.2-0.5c-1.6,0-3.5,0.2-4.9,1.1C154.3,234.6,156.1,236,157.5,236.2z"/>
				</g>
				<g>
					<path fill="#B09989" d="M221.9,153.4l-3.1-13.7h-43l-3.6,12.1c-0.5,1.8,0.5,3.7,2.3,4.2c7.6,2.2,27.1,6.5,45.8,0.4
						C221.5,155.9,222.2,154.7,221.9,153.4z"/>
					<ellipse fill="#C5C5C5" cx="197.3" cy="139.7" rx="21.5" ry="6.9"/>
					<g>
						<path fill="#B09989" d="M207.7,138.7c-0.1-2.7-0.4-5.4-0.7-8.1c-0.4-3.1-0.7-6.3-1.1-9.4c-0.3-2.4-0.6-4.8-0.9-7.2
							c-0.2-1.6-0.4-3.2-0.4-4.8c0.1-2.5,1-4.9,1.5-7.3l0,0c-0.2-0.3-0.5-0.6-0.8-0.8c-3-0.2-6-0.7-9-0.8c-1.7-0.1-3.3,0-5,0.2
							c-0.8,0.1-1.6,0.3-2.4,0.5c-0.3,0.1-0.7,0.2-1,0.3c-0.2,0.2-0.4,0.4-0.6,0.7l-5.4,38.2c1.1,0.8,1.6,0.8,2.9,1.2
							c4.8,1.5,10,2.2,15.1,1.8c1.9-0.2,4.2-0.4,6.3-0.9C207.3,141.4,207.8,140.5,207.7,138.7z"/>
						<g>
							<path fill="#C5C5C5" d="M206.1,101.9c0-1.3-4.5-2.4-9.6-2.4c-5.1,0-9.3,1.1-9.3,2.4s4.2,2.4,9.3,2.4
								C201.6,104.4,206.1,103.3,206.1,101.9z"/>
							<path fill="#E3C4AF" d="M185.4,123c-0.1,0.7-0.2,1.4,0,2c0.4,1.4,2.1,2.1,3.5,2.5c1.2,0.3,2.4,0.4,3.6,0.4
								c0.8,0,1.6,0,2.3-0.4c0.9-0.5,1.5-1.4,1.9-2.4c0.5-1.4,0.7-2.9,0.7-4.4c0.2-3.7,0-7.5-0.4-11.2c-0.1-0.8-0.3-1.6-0.9-2.1
								c-0.3-0.3-0.7-0.4-1.1-0.5c-1.8-0.5-4.2-1.3-6.1-1.1c-1.6,0.1-1.5,3.1-1.7,4.5C186.6,114.4,186,118.7,185.4,123z"/>
							<path fill="#E3C4AF" d="M184.1,136.7c-0.1,0.7-0.2,1.5,0.3,2.1c0.2,0.2,0.5,0.4,0.7,0.5c3.9,1.8,8.4,2,12.7,1.9
								c1.1,0,2.3-0.1,3.1-0.8c1.1-0.9,1.2-2.5,1.1-3.9c0-1.2-0.1-2.5-1-3.3c-0.6-0.5-1.4-0.6-2.2-0.7c-3.8-0.4-7.7-0.5-11.3-1.7
								c-1.5-0.5-2.2-0.1-2.5,1.3C184.7,133.6,184.4,135.2,184.1,136.7z"/>
							<g>
								<path fill="#4F4F4F" d="M206.1,101.9c-0.4,2.4-1.3,4.8-1.5,7.3c-0.1,1.6,0.1,3.2,0.4,4.8c0.3,2.4,0.6,4.8,0.9,7.2
									c0.4,3.1,0.7,6.3,1.1,9.4c0.3,2.7,0.6,5.4,0.7,8.1c0.1,1.7-0.4,2.7-1.5,3.5c1.4-0.4,2.6-0.9,3.7-1.7L206.1,101.9z"/>
								<path fill="#C7AF9F" d="M206.1,101.9c-0.4,2.4-1.3,4.8-1.5,7.3c-0.1,1.6,0.1,3.2,0.4,4.8c0.3,2.4,0.6,4.8,0.9,7.2
									c0.4,3.1,0.7,6.3,1.1,9.4c0.3,2.7,0.6,5.4,0.7,8.1c0.1,1.7-0.4,2.7-1.5,3.5c1.4-0.4,2.6-0.9,3.7-1.7L206.1,101.9z"/>
							</g>
						</g>
						<ellipse fill="#303030" cx="196.6" cy="101.7" rx="7.5" ry="1.4"/>
					</g>
					<path fill="#E3C4AF" d="M183.8,151.6c0.4,0.9,0.8,1.9,1.5,2.6c0.4,0.4,0.9,0.6,1.4,0.8c5.5,2.5,11.9,2.3,17.7,1
						c0.7-0.1,1.3-0.3,2-0.6c1-0.5,1.8-1.4,2.4-2.3c0.8-1.1,1.5-2.4,1.4-3.8c0-0.6-0.2-1.3-0.7-1.7c-0.5-0.4-1.2-0.5-1.9-0.5
						c-2.6,0-5.1,0.4-7.6,0.6c-4.7,0.3-9.4-0.4-14.1-1.1c-1.1-0.2-4-1.5-4.3,0C181.4,148.2,183.3,150.3,183.8,151.6z"/>
				</g>
				<g>
					<g>
						<path fill="#9E5833" d="M224.7,176.8l-1.9-0.9l-0.3,27.5c0.6,0.7,3.4,1.1,4.7,0.1l0.3-26.7L224.7,176.8z"/>
						<path fill="#4C2E1E" d="M229.3,171.1l-0.2,13.7c0.6,0.7,3.4,1.1,4.7,0.1l0.2-13.8H229.3z"/>
						<path fill="#9E5833" d="M259.8,176.9l-0.3,23.5c0.5,0.6,3,0.9,4.2,0.1L264,177C262.6,177,261.2,177,259.8,176.9z"/>
						<g>
							<path opacity="0.47" fill="#4F4F4F" d="M265.5,173.3v-0.1l-35.1-14.7c-12.2-1.4-24.4-2.1-36.7-2.2l0,0.2l30.7,14.5
								L265.5,173.3z"/>
							<polygon fill="#403423" points="224.4,170.9 193.7,156.4 193.6,161.6 224.7,176.8 265.5,177.5 265.5,173.3 							"/>
							<path fill="#9E5833" d="M265.5,173.3v-0.1l-35.1-14.7c-12.2-1.4-24.4-2.1-36.7-2.2l0,0.2l30.7,14.5L265.5,173.3z"/>
						</g>
						<polygon fill="#4C2E1E" points="194.5,162 194.5,170.1 197.6,175.5 197.6,163.5 						"/>
					</g>
					<polygon fill="#5E2F1B" points="224.4,170.9 224.7,176.8 265.5,177.5 265.5,173.3 					"/>
				</g>
				<g>
					<path fill="#A1A091" d="M194.2,40.6c-0.7,0.2-1.4,0.6-1.9,1.2c-2.6,2.4-2.8,6.5-2.4,10c0.4,3.5,1.4,7.2,0.4,10.6
						c-0.3,1-0.7,1.9-0.6,2.9c0.1,0.7,0.4,1.3,0.5,1.9c0.2,0.6,0.2,1.4-0.3,1.9c-0.8,0.9-2.3,0.4-3.3,1.1c-0.7,0.5-0.9,1.4-1,2.3
						c-0.2,1.2-0.1,2.7,0.8,3.5c0.5,0.4,1.2,0.6,1.5,1.1c0.8,1.1-0.7,2.5-0.7,3.9c0,0.9,0.8,1.8,0.5,2.6c-0.1,0.6-0.7,0.9-1,1.4
						c-0.7,0.9-0.7,2.1-0.3,3.1c0.4,1,1.2,1.9,2.1,2.5c0,0.2,0,0.3,0,0.5c0,0.8-0.7,0.8-1.3,1.4c-0.9,1-0.6,2.8,0.6,3.3
						c0.5,0.2,1,0.3,1.4,0.6c0.5,0.5,0.5,1.4,0.6,2.1c0.3,1.2,1.3,2.2,2.4,2.7c1.2,0.5,2.4,0.6,3.7,0.7c1.3,0.1,2.7,0.2,4-0.3
						c1.3-0.5,2.4-1.7,3.8-1.9c0.4-0.1,0.9,0,1.3-0.1c2.2-0.3,3.6-2.8,3.1-4.9c-0.2-1-0.8-2-1-3.1c0-0.4,0-0.8-0.1-1.3
						c-0.3-1.4-2-2.3-3.3-1.7c-0.8,0.3-1.7,1-2.3,0.5c-0.5-0.5-0.1-1.3,0.4-1.7c0.5-0.4,1.1-0.7,1.4-1.3c0.4-0.7,0-1.6-0.2-2.4
						c-0.2-0.8-0.3-1.8,0.4-2.2c0.4-0.2,0.9-0.2,1.3-0.3c0.9-0.3,1.6-1.1,2-1.9c0.7-1.2,1.2-2.6,1.2-4s-0.6-2.9-1.7-3.7
						c-0.9-0.7-2.3-1.3-2.2-2.4c0-0.7,0.7-1.2,1.3-1.5c0.7-0.3,1.4-0.4,2-0.8c1.2-0.8,1.6-2.3,1.8-3.8c0.1-0.6,0.2-1.3-0.1-1.9
						c-0.5-1-1.9-1.2-3-1c-1.1,0.1-2.4,0.4-3.3-0.3c-0.8-0.5-1.2-1.7-0.8-2.6c0.1-0.3,0.3-0.6,0.4-1c0-0.3-0.1-0.6-0.2-0.9
						c-0.1-0.8,0.4-1.5,0.6-2.2c0.4-1.3-0.4-2.8-1.7-3.3c-1.3-0.5-2.8,0.2-3.4,1.4c-0.5,1-0.3,2.2-0.6,3.3c-0.3,1.1-1.7,2-2.5,1.3
						c-0.4-0.3-0.5-0.9-0.5-1.4c-0.1-1.2,0.1-2.4,0.6-3.4c0.2-0.5,0.5-1,0.6-1.6c0.1-1.2-0.8-2.4-0.4-3.5c0.3-1,1.5-1.5,1.8-2.5
						C197,42.1,195.2,41.3,194.2,40.6z"/>
					<path fill="#D6D2C1" d="M190.5,71.1c0.2,1.3-1.3,2.3-1.6,3.6c-0.5,2.1,2.3,3.8,2.2,5.9c0,0.7-0.4,1.4-0.1,2
						c0.1,0.3,0.3,0.5,0.5,0.8c0.6,0.9,0.4,2.2,0.1,3.2c-0.3,1.1-0.6,2.2-0.2,3.3c0.1,0.3,0.3,0.6,0.6,0.7c0.4,0.1,0.7-0.2,0.9-0.5
						c0.2-0.3,0.2-0.7,0.2-1.1c0.1-0.9,0.1-1.9,0.2-2.8c0-0.3,0.1-0.7,0.2-1c0.3-0.4,0.7-0.6,1.1-1c1.4-1.2,0.6-3.6,1.6-5.1
						c0.6-0.9,1.6-1.3,2.3-2c1.6-1.5,1.5-4.4-0.2-5.8c-0.3-0.3-0.7-0.5-1-0.8c-0.9-0.9-1-2.3-0.6-3.5c0.4-1.2,1.2-2.1,2.1-3.1
						c0.7-0.8,1-1.9,0.9-2.9c-0.2-1-0.9-2-1.8-2.5c-0.9-0.5-2.1-0.6-2.8-1.4c-0.4-0.4-0.7-1-1.1-1.5c-0.4-0.5-1-0.8-1.3-1.2
						c-0.8-1.2-0.1-2.8-0.2-4.3c0-0.2-0.1-0.5-0.2-0.7c-0.3-0.3-0.9-0.2-1.2,0.1s-0.4,0.8-0.4,1.2c-0.1,2.5,1.2,4.9,1,7.4
						c-0.1,1-0.4,2-0.3,3c0.2,1.5,1.3,3,0.8,4.4c-0.1,0.4-0.4,0.7-0.6,1.1c-0.3,0.7-0.2,1.4-0.2,2.2S189.9,70,190.5,71.1z"/>
					<path fill="#D6D2C1" d="M201.3,35.7c0.4-1.3,0.4-2.8,0-4.1c-0.1-0.3-0.3-0.7-0.6-0.8c-0.5-0.2-0.9,0.2-1.2,0.6
						c-0.2,0.2-0.4,0.4-0.5,0.7c-0.2,0.4-0.2,0.8-0.2,1.2c-0.1,1.4-0.4,2.8-0.9,4.2c-0.1,0.4-0.3,0.7-0.3,1.1c0,0.4,0.2,0.8,0.3,1.1
						c0.5,1.3,0.5,2.8,0,4.1l-0.2,1.6c-0.4,0.8-0.2,1.8,0.3,2.5c0.6-0.2,0.7-1,0.8-1.7c0.3-1.4,1.6-2.4,1.9-3.8
						c0.3-1.3-0.4-2.6-0.3-3.9C200.6,37.5,201.1,36.6,201.3,35.7z"/>
					<path fill="#D6D2C1" d="M205.5,54.2c-0.3,1.2-0.6,2.5-0.3,3.7c0.1,0.3,0.2,0.6,0.5,0.7c0.3,0.1,0.6-0.2,0.7-0.4
						c0.1-0.3,0.1-0.6,0.1-0.8c0-0.4-0.1-0.9-0.1-1.3c0-0.3,0-0.6,0-0.9c0.1-0.3,0.3-0.6,0.4-0.9c0.5-1.1,0.7-2.3,0.5-3.5
						c0-0.2-0.1-0.5-0.3-0.6c-0.9-0.5-0.8,1-0.9,1.4C206.1,52.4,205.7,53.3,205.5,54.2z"/>
					<path fill="#D6D2C1" d="M195.5,95.5c-0.2-1-0.6-2-0.7-3.1c-0.2-1.5,0.2-2.9,0.6-4.3c0.2-0.6,0.3-1.2,0.7-1.8
						c0.4-0.6,1-0.9,1.5-1.4c1-1,1.5-2.3,1.5-3.7c0-0.9-0.3-1.8,0-2.6c0.2-0.7,0.8-1.2,1.3-1.8c1.3-1.7,1.4-4,1-6
						c-0.1-0.3-0.1-0.6,0-0.9c0.1-0.3,0.3-0.6,0.6-0.6c0.3,0,0.6,0.3,0.7,0.6c0.6,1,0.5,2.3,0.2,3.4c-0.2,1.1-0.5,2.3-0.3,3.4
						c0.1,0.8,0.5,1.5,0.5,2.3c-0.1,1.7-1.9,2.8-2.1,4.5c0,0.2,0,0.5,0.1,0.7c0.3,0.4,1,0.3,1.3-0.1c0.3-0.4,0.4-0.9,0.4-1.4
						c0.1-0.7,0.1-1.3,0.2-2c0.1-0.6,0.3-1.5,1-1.5c0.4,0,0.7,0.3,0.8,0.6c0.1,0.3,0.1,0.7,0.1,1.1c-0.1,1.4-0.1,2.9-0.2,4.3
						c0,1-0.1,2.1-0.6,2.9c-0.6,1.1-1.8,1.8-2.8,2.5s-2,1.8-1.9,3.1c0,0.4,0.1,0.7,0.2,1.1c0.2,1,0.1,1.9-0.1,2.9
						c-0.1,1.1-0.4,2.4-1.3,3.1c-0.9,0.7-2,0.6-3.1,0.5c-0.6-0.1-1.2-0.2-1.6-0.5c-0.5-0.3-0.8-1-0.5-1.5c0,0,1.1-0.4,1.3-0.5
						c0.2-0.2,0.5-0.3,0.7-0.6C195.6,97.5,195.6,96.4,195.5,95.5z"/>
				</g>
				<g>
					<g>
						<path fill="#403423" d="M175.6,139l-23.1-10.8c-4.1,2.2-8.2,5.5-11.3,8.9c-5,5.5-8.7,12.8-10.3,19.8c-1,4.7-0.9,7.6-1.6,10.1
							c0.5,0.2,1.1,0.4,1.6,0.6c3.3,1.1,5.8,3.4,5.7,6.9c-0.1,1.2-0.4,2.5,0,3.6c0.5,1.2,1.8,2,2.5,3.1c1.2,1.8,0.7,4.1,0.7,6.3
							c5.8-13.9,10.4-20.9,17.2-30.5C162.9,148.6,170.6,142.5,175.6,139z"/>
						<path fill="#364751" d="M129,168.7C129,169.4,129.8,168.9,129,168.7L129,168.7z"/>
						<path fill="#686868" d="M141.2,137.1c3.1-3.4,7.2-6.8,11.3-8.9l23.1,10.8c0.1-0.1,0.3-0.2,0.4-0.3l-0.2-36.8
							c1,0,1.9,0.5,2.9,0.5c0.1-0.8,0.4-2.3,0.5-3.1l-0.7-0.4c-1.7,0.1-3.4,0.3-5,0.6c-4.1,0.8-8.1,2.3-12.1,3.8
							c-4.8,1.9-9.6,3.8-14.1,6.5c-7.5,4.6-13.5,11.2-19.5,17.7l0.1,38.9c0.4,0.2,0.8,0.3,1.3,0.5c0.7-2.5,0.6-5.3,1.6-10.1
							C132.5,150,136.2,142.7,141.2,137.1z"/>
						<path fill="#364751" d="M141.2,137.1c3.1-3.4,7.2-6.8,11.3-8.9l23.1,10.8c0.1-0.1,0.3-0.2,0.4-0.3l-0.2-36.8
							c1,0,1.9,0.5,2.9,0.5c0.1-0.8,0.4-2.3,0.5-3.1l-0.7-0.4c-1.7,0.1-3.4,0.3-5,0.6c-4.1,0.8-8.1,2.3-12.1,3.8
							c-4.8,1.9-9.6,3.8-14.1,6.5c-7.5,4.6-13.5,11.2-19.5,17.7l0.1,38.9c0.4,0.2,0.8,0.3,1.3,0.5c0.7-2.5,0.6-5.3,1.6-10.1
							C132.5,150,136.2,142.7,141.2,137.1z"/>
						<path fill="#686868" d="M146.3,197.6c3.2,2.4,7,4.1,9.8,6.8l45.6-7.6c1.6-0.3,2.7-1.6,2.6-3.2c-0.1-1.6-0.2-3.1-0.5-4.7
							c-1.3-6.5-3.8-12.6-6.5-18.7c-5.2-11.7-11.2-23.6-21.4-31.2v0c-0.1,0-0.2,0-0.3,0l-0.1,0c-5,3.4-12.7,9.6-18.6,18
							c-6.8,9.6-11.4,16.6-17.2,30.5c0,0,0,0,0,0C139.9,191.7,143,195.2,146.3,197.6z"/>
						<path fill="#364751" d="M146.3,197.6c3.2,2.4,7,4.1,9.8,6.8l45.6-7.6c1.6-0.3,2.7-1.7,2.6-3.3c-0.1-1.6-0.2-3.1-0.5-4.7
							c-1.3-6.5-3.8-12.6-6.5-18.7c-5.2-11.7-11.2-23.6-21.4-31.2v0c-0.1,0-0.2,0-0.3,0l-0.1,0c-5,3.4-12.7,9.6-18.6,18
							c-6.8,9.6-11.4,16.6-17.2,30.5c0,0,0,0,0,0C139.9,191.7,143,195.2,146.3,197.6z"/>
						<path fill="#686868" d="M175.6,139L175.6,139c0.2,0,0.3,0,0.4,0l0-0.3C175.8,138.8,175.7,138.9,175.6,139z"/>
						<path fill="#364751" d="M175.6,139L175.6,139c0.2,0,0.3,0,0.4,0l0-0.3C175.8,138.8,175.7,138.9,175.6,139z"/>
						<path fill="#364751" d="M175.6,139L175.6,139c0.2,0,0.3,0,0.4,0l0-0.3C175.8,138.8,175.7,138.9,175.6,139z"/>
					</g>
					<path fill="#545776" d="M162.2,160.1c-5.4,6.8-9.8,14.4-12.2,22.8c-0.7,2.3-1.1,4.9-0.2,7.2c0.7,1.9,2.3,3.2,3.6,4.8
						c1,1.3,1.9,2.8,3.2,3.7c1.9,1.4,4.4,1.4,6.7,1.3c2.8-0.2,5.7-0.5,8.5-0.9c2.3-0.3,4.5-0.6,6.8-0.9c6.4-0.9,12.9-1.8,19-3.9
						c0.7-0.2,1.3-0.5,1.9-0.9c1.5-1.1,1.8-3.3,1.5-5.1c-0.3-1.8-1.2-3.6-1.7-5.4c-0.3-1.1-0.5-2.2-0.8-3.3c-0.8-3-2.6-5.7-4.2-8.3
						c-3.2-5-6.4-9.9-9.5-14.9c-2-3.2-6.2-10.5-10.9-8.1c-2.3,1.2-4.1,3.7-5.8,5.5C166,155.6,164,157.8,162.2,160.1z"/>
					<g>
						<path fill="#B09989" d="M188.5,175.7c0-5.9-3-11-7.6-13.8c6.2,2.2,10.6,8.2,10.6,15.3c0,9-7.1,16.2-15.8,16.2
							c-3,0-5.8-0.9-8.2-2.4c1.6,0.6,3.4,0.9,5.2,0.9C181.5,191.9,188.5,184.7,188.5,175.7z"/>
						<path fill="#2B1724" d="M160,177.2c0-9,7.1-16.2,15.8-16.2c1.8,0,3.6,0.3,5.2,0.9c4.5,2.9,7.6,8,7.6,13.8
							c0,9-7.1,16.2-15.8,16.2c-1.8,0-3.6-0.3-5.2-0.9C163,188.2,160,183,160,177.2z"/>
						<path fill="#844A0F" d="M182,164.3c0.8,0.5,1.6,1.3,1.8,2.3L166,167l18.2,0.6c1.1,0.8,1.8,2,2.1,3.3c0.1,0.4,0,1-0.3,1.2
							l-23,0.1c-0.4-0.5-0.5-1.2-0.3-1.8c0.1-0.6,0.5-1.2,0.9-1.7c1.7-2.3,4.2-3.9,6.9-4.7c2-0.6,4.2-0.8,6.3-0.8
							C178.5,163.2,180.3,163.3,182,164.3z"/>
						<path fill="#844A0F" d="M186.7,172.9c0.4,0.4,0.6,0.9,0.7,1.4c0.1,0.6,0.2,1.3,0,2c-0.2,0.6-0.6,1.2-1.2,1.4l-24.3,0.6
							l24.6,0.1c0.3-0.1,0.6,0.2,0.7,0.5c0.1,0.3,0.1,0.6,0,0.9c-0.1,0.3-0.1,0.5-0.2,0.8c-0.4,1.2-1.1,2.3-1.9,3.1l-19.2,0.2
							l18.7,0.7c0.2,0.4,0,0.9-0.3,1.3c-0.9,1.3-2.2,2.3-3.6,2.8l-12.9,0.3l12.3,0.4c-2.8,1.2-5.8,1.9-8.8,1.5
							c-0.7-0.1-1.4-0.2-2.1-0.4c-4.1-1.3-7.3-5.7-7.5-10.4l23.3-0.7l-23.7-0.1c-0.3-0.4-0.4-1-0.5-1.5c-0.1-0.4-0.1-0.9-0.1-1.3
							c0-0.3,0.1-0.6,0.2-0.9c0.1-0.5,0.3-1,0.6-1.4c0.3-0.4,0.7-0.7,1.2-0.7L186.7,172.9z"/>
						<ellipse fill="#3F1E16" cx="165.1" cy="178.3" rx="2" ry="2.5"/>
					</g>
					<g>
						<path fill="#B09989" d="M70.5,97.6l0.2,0.1v17.8c1.7-1.3,3.9-2.1,6-1.6c2,0.5,3.5,2.1,4.7,3.8c2.7,3.8,4.2,8.4,7.8,11.4
							c3,2.5,6.9,3.4,10.5,4.8c3.6,1.4,7.3,3.7,8.4,7.4c0.5,1.8,0.4,4,1.6,5.5c0.7,0.9,1.8,1.5,2.7,2.1c2.7,1.7,4.8,4.2,6.1,7.1
							c0.8,1.9,1.4,3.9,2.5,5.6c1.6,2.5,4.3,4,7.1,5.1l-0.1-38.7L70.5,97.6L70.5,97.6z"/>
						<path fill="#686868" d="M147.4,109.9c4.4-2.7,9.2-4.6,14.1-6.5c3.9-1.5,7.9-3,12.1-3.8c1.6-0.3,3.3-0.5,5-0.6l-68.6-33.5
							c-8.5,1.4-16.2,5.6-23.7,9.9c-7,4.1-14.2,8.4-19.2,14.8L66.9,96l3.6,1.6l0,0l57.4,30.3l0-0.2
							C133.9,121.1,139.9,114.5,147.4,109.9z"/>
						<path fill="#403423" d="M147.4,109.9c4.4-2.7,9.2-4.6,14.1-6.5c3.9-1.5,7.9-3,12.1-3.8c1.6-0.3,3.3-0.5,5-0.6l-68.6-33.5
							c-8.5,1.4-16.2,5.6-23.7,9.9c-7,4.1-14.2,8.4-19.2,14.8L66.9,96l3.6,1.6l0,0l57.4,30.3l0-0.2
							C133.9,121.1,139.9,114.5,147.4,109.9z"/>
					</g>
					<path fill="#C56030" d="M74,85c-1.2,1.1-2.4,2.2-3.1,3.6s-1,3.2-0.2,4.6c1.1,1.9,3.7,2.5,5.8,1.9c2.1-0.6,3.9-2,5.7-3.4
						c5.2-3.9,11.1-7,17.2-9.1c-6.3,3.1-12.3,7-17.7,11.4c-1,0.8-2.1,2.1-1.6,3.2c0.3,0.5,0.8,0.9,1.3,1.2c1.3,0.8,2.5,1.5,3.8,2.3
						c0.8,0.5,1.6,1,2.5,1.1c1.9,0.3,3.7-0.8,5.4-1.8c6-3.6,12.5-6.5,19.3-8.6c-5.4,2.7-10.5,5.8-15.4,9.3c-1.4,1-3,2.8-2.2,4.3
						c0.3,0.7,1,1,1.6,1.4c1.8,1,3.6,2.1,5.4,3.1c1,0.6,2,1.1,3.2,1.2c1.3,0,2.5-0.6,3.7-1.3c4.7-2.7,9.3-5.3,14-8
						c-4,2.5-7.7,5.3-11.2,8.3c-0.7,0.6-1.4,1.3-1.3,2.2c0,0.7,0.6,1.3,1.2,1.8c2.9,2.4,7.1,3,10.6,1.7c4.7-1.8,7.7-6.5,12.4-8.2
						c-3.3,2.9-6.6,5.8-9.9,8.7c-0.7,0.6-1.5,1.4-1.3,2.4c0.1,0.6,0.5,1,0.9,1.4c1.2,1.2,2.7,2.5,4.3,2.2c1.3-0.2,2.2-1.3,3-2.3
						c9.7-11.8,25-17.2,39.9-20.6c0.7-0.2,2.9-0.5,1.6-1c-3.5-2.2-7.4-4.5-11.5-4.2c-3.7,0.2-6.9,2.4-10,4.5c1.9-2.1,4.3-3.7,7-4.8
						c0.5-0.2,1-0.4,1.2-0.8c0.6-0.9-0.4-2-1.3-2.6c-6.6-4.1-15.8-3.5-21.8,1.4c2.1-1.9,4.6-3.3,7.3-4.2c0.7-0.2,1.5-0.5,1.9-1.2
						c0.6-1.2-0.7-2.5-1.9-3.2c-5.8-3.4-11.7-6.4-17.8-9.2c-3.2-1.4-6.4-2.8-9.9-3.3s-7.2-0.1-10.1,1.8c0.8-1.2,2.3-1.5,3.6-2.1
						c1.3-0.5,2.7-1.7,2.3-3.1c-1.5-0.7-2.1-1-3.7-0.6c-1.3,0.4-2.7,0.7-4,1.2c-2.7,0.9-5.3,1.9-7.9,3c-5.1,2.3-10,5-14.5,8.2
						C79,80.8,76.4,82.8,74,85z"/>
					<path fill="#D8AF96" d="M126,131.9c0-0.8-0.5-1.6-1.2-2.1c-2.1-1.3-4.1-3.2-6.3-3.9c-2.5-0.8-5.1-1.4-7.5-2.5
						c-2.5-1.2-4.5-3.9-7-4.8c-2.4-0.8-4.7-2.1-6.9-3.4l-25-14.6v9.7c3.9,0,8.1,0.7,10.4,3.7c2,2.5,2.7,6,5.2,8
						c1.3,1,2.8,1.5,4.2,2.3c1.9,1.2,3.3,3.1,5.2,4.2c3,1.8,6.8,1.5,9.9,2.9c4.7,2.1,6.9,7.4,8,12.4c0.2,0.9,0.4,1.8,0.8,2.6
						c0.8,1.3,2.2,2.1,3.2,3.2c1.7,1.8,2.1,4.4,3,6.7c0.6,1.5,1.5,3.1,2.7,4c0.5,0.4,1.1,0,1.1-0.6V131.9z"/>
					<path fill="#545776" d="M132.4,132.6c0-1.5-0.1-3,0.6-4.4c0.3-0.7,0.8-1.4,1.4-2c7.6-8.9,18.1-14.9,29-19.2
						c2.1-0.8,4.2-1.6,6.4-2c0.5-0.1,1.1-0.1,1.6,0.1c0.7,0.4,0.8,1.4,0.8,2.2c0.1,7.3,0.2,14.6,0.4,21.8c0,1.3-0.2,2.8-1.4,3.2
						c-1.1,0.4-2.1-0.6-3-1.3c-0.8-0.7-1.8-1.4-2.7-1.9c-1-0.5-2-0.9-3.1-1.4c-1.4-0.6-2.8-1.1-4.3-1.7c-0.9-0.3-1.8-0.7-2.7-0.9
						c-1.6-0.3-3.3-0.2-4.8,0.3c-1.7,0.6-3.2,1.8-4.7,3c-3,2.4-6,4.8-8.7,7.5c-0.9,0.9-1.8,1.9-2.2,3.1c-0.2,0.7,0,3.1-0.6,3.5
						c-0.7,0.5-1.2-0.6-1.4-1.2C132.1,138.9,132.5,135.4,132.4,132.6z"/>
					<g>
						<path fill="#B09989" d="M167.1,111.7c1.3,1.3,2.1,3.1,2.1,5.1c0,3.8-3,6.9-6.6,6.9c-1.1,0-2.2-0.3-3.1-0.8
							c1.2,1.2,2.8,1.9,4.5,1.9c3.7,0,6.6-3.1,6.6-6.9C170.6,115.1,169.2,112.8,167.1,111.7z"/>
						<path fill="#49241A" d="M169.2,116.7c0-2-0.8-3.8-2.1-5.1c-0.9-0.5-2-0.8-3.1-0.8c-3.7,0-6.6,3.1-6.6,6.9c0,2,0.8,3.8,2.1,5.1
							c0.9,0.5,2,0.8,3.1,0.8C166.2,123.7,169.2,120.6,169.2,116.7z"/>
						<path fill="#2C0B20" d="M169.2,116.7c0-2-0.8-3.8-2.1-5.1c-0.9-0.5-2-0.8-3.1-0.8c-3.7,0-6.6,3.1-6.6,6.9c0,2,0.8,3.8,2.1,5.1
							c0.9,0.5,2,0.8,3.1,0.8C166.2,123.7,169.2,120.6,169.2,116.7z"/>
						<g opacity="0.43">
							<path fill="#467F97" d="M166.6,112.4c0.2-0.2,0.4-0.4,0.6-0.7c0,0,0,0,0,0c0,0-0.1,0-0.1,0c-2.2,1.7-4.4,3.3-6.7,4.9
								c-1,0.7-2,1.4-3,2.1c0.1,1,0.4,1.9,0.9,2.7C161.2,118.4,163.9,115.5,166.6,112.4z"/>
							<path fill="#467F97" d="M165.1,111c-0.4-0.1-0.7-0.1-1.1-0.1c-0.5,0-1,0.1-1.5,0.2c-1.1,1.4-2.2,2.9-3.3,4.3
								C161.2,113.9,163.2,112.4,165.1,111z"/>
							<path fill="#467F97" d="M169,118.3c0.1-0.4,0.1-0.7,0.2-1.1c-1.5,1.4-3,2.8-4.4,4.3c-0.8,0.7-1.5,1.5-2.3,2.2
								c0,0,0.1,0,0.1,0c0.6,0,1.3-0.1,1.8-0.3c1.2-1.3,2.4-2.7,3.7-4C168.4,119,168.7,118.6,169,118.3z"/>
						</g>
					</g>
					<path fill="#C56030" d="M171.5,139c-0.2-0.2-0.4-0.4-0.7-0.5c-2.4-1.1-4.7-2.2-7.1-3.3c-0.3-0.1-0.6-0.3-0.9-0.2
						c-0.3,0.1-0.5,0.3-0.7,0.4c-1.3,1.2-2.5,2.5-3.6,3.9c0.8-1.3,1.7-2.6,2.5-3.9c0.3-0.4,0.6-1,0.3-1.4c-0.1-0.2-0.4-0.4-0.6-0.5
						c-1.7-0.9-3.4-1.6-5.2-2.3c-0.7-0.3-1.6-0.4-2.2-0.1c0.2-0.3,0.4-0.6,0.4-0.9c0.2-1.9-1.5-0.6-2-0.1c-1.2,1-2.5,2-3.7,2.9
						c-2,1.6-4,3.2-5.7,5.1c-0.7,0.8-1.4,1.7-2,2.5c-4,5.5-6.4,12-7.1,18.7c-0.1,0.7-0.1,1.6,0.5,2c0.5,0.5,1.4,0.3,2-0.1
						c0.6-0.4,0.9-1.1,1.2-1.7c2.2-4.4,4.7-8.8,7.5-12.9c-0.5,0.9-0.9,1.9-1.4,2.8c-1.1,1.9-2.4,3.6-3.6,5.5s-2,4-1.8,6.2
						c0,0.2,0,0.4,0.2,0.6c0.3,0.4,0.9,0.3,1.4,0.1c1.7-0.8,2.7-2.5,3.6-4.1c3.4-5.6,7.4-10.8,12-15.5c-2.5,2.5-4.4,5.6-6.1,8.6
						c-1.9,3.3-3.8,6.7-5.2,10.4c-1.3,3.6-2.1,7.5-1.7,11.4c0,0.2,0,0.3,0.1,0.5c0.3,0.6,1.3,0.2,1.8-0.3c0.9-1,1.5-2.2,2-3.4
						c1.8-3.8,4.3-7.3,6.7-10.8c4.7-6.7,9.6-13.6,16.6-17.8c-3.1,2.5-5.9,5.5-8,8.9c3.5-2.8,6.8-5.8,9.9-9
						C171.3,140.4,171.9,139.6,171.5,139z"/>
				</g>
				<g>
					<g>
						<g>
							<g>
								<path fill="#3A2A1C" d="M159.7,223.1c-0.3-1-1-1.8-1.3-2.8c-0.3-1.3,0.2-2.6,0.5-3.9c1.8-6.5-0.7-13.9-6.1-17.9
									c-3.8-2.9-9.1-4.6-10.6-9.1c-0.2-0.7-0.4-1.5-0.4-2.3c-2.2,2.8-6.5,4.1-9.4,2c-0.8-0.6-1.5-1.5-2.3-2.1
									c-4.7-3.8-13,0.9-17.3-3.3c-0.8-0.8-1.4-1.8-2.2-2.5c-3.6-3-10.1,0.8-13.4-2.6c-1.3-1.3-1.6-3.4-3.2-4.4
									c-3.5-2.3-8.1,3.5-11.9,1.8c-1.6-0.7-2.4-2.6-4-3.3c-1.2-0.6-2.6-0.3-3.9-0.2c-3.5,0.4-7.2,0-10.6-0.9
									c-0.9-0.2-1.8-0.5-2.3-1.2c-0.5-0.6-0.7-1.5-1.2-2.2c-1.3-2.2-4.3-2.6-6.9-2.5s-5.4,0.2-7.3-1.5c-0.8-0.7-1.3-1.7-2.1-2.5
									c-2.7-2.9-7.2-2.6-10.9-4c0.5,1.2-0.5,2.4-1.4,3.4c-4.3,5.3-4.2,13.9-10,17.6c-2,1.3-4.9,2.5-4.5,4.8c0.3,1.4,1.7,2.2,3,2.7
									c2.9,1.1,6,1.9,9.1,2.2c-0.4,0.4-0.5,1-0.4,1.6c0.4,1.1,1.7,1.7,2.9,1.9c1.4,0.3,2.9,0.4,4.3,0.5c1.1,0.1,2.3,0.3,3.3,0.7
									c1.2,0.4,2.5,0.9,3.8,1c1.7,0.1,4.8-0.3,5.2,2c0.1,0.9,0.3,1.7,0.6,2.6c1.3,1.5,3.2,2.5,5.2,3.3c0.8,0.2,1.6,0.3,2.3,0.4
									c0.7,0.1,1.3,0.2,1.9,0.5c0.6,0.2,1.1,0.6,1.7,0.8l0.9,0.2c1.1,0.2,2.3,0.2,3.4,0.3c1.7,0.2,3.3,0.6,4.9,0.9
									c1.6,0.3,3.2-0.1,4.8,0.1c0.8,0.1,1.6,0.5,1.9,1.4c0.2,0.8,0,1.6-0.2,2.4c-0.3,1-0.5,2-0.1,3.1c0.1,0.2,0.2,0.5,0.4,0.7
									c3.9,2.5,9.5,1.5,14.3,2c0.9,0.1,1.8,0.2,2.5,0.8c1.3,0.9,1.7,2.7,2.3,4.1c1.5,3.4,4.8,5.7,8.3,6.8
									c3.5,1.1,7.2,1.2,10.9,1.3c12.2,0.3,24.3,0.7,36.5,1c2,0.1,4.1,0.1,5.9-0.8C158.8,227,160.2,225,159.7,223.1z"/>
								<path opacity="0.63" fill="#2A2A2A" d="M46.1,164.1c1.9,1.7,4.8,1.5,7.3,1.5s5.6,0.3,6.9,2.5c0.4,0.7,0.6,1.6,1.2,2.2
									c0.6,0.7,1.5,1,2.3,1.2c3.4,1,7,1.3,10.6,0.9c1.3-0.1,2.7-0.3,3.9,0.2c1.6,0.7,2.4,2.6,4,3.3c3.8,1.8,8.4-4,11.9-1.8
									c1.5,1,1.9,3.1,3.2,4.4c3.3,3.4,9.8-0.4,13.4,2.6c0.9,0.7,1.4,1.7,2.2,2.5c4.4,4.2,12.6-0.5,17.3,3.3
									c0.8,0.6,1.4,1.5,2.3,2.1c2.8,2.1,7.1,0.8,9.4-2c-0.2-2.3,0-4.7-1.4-6.5c-0.8-1.1-2-1.8-2.6-2.9c-1.2-2.2,0.1-5.1-0.6-7.5
									c-0.9-2.9-4.3-4-7.2-4.5c-2.9-0.5-6.3-1-8-3.5c-1.5-2.1-1.2-5.1-2.4-7.4c-2.2-4.1-8.5-5.4-9.2-10c-0.2-1.3,0.1-2.6,0-3.9
									c-0.3-2.7-2.5-4.8-4.9-5.9c-2.4-1.2-5.1-1.7-7.6-2.5c-4.6-1.6-8.7-4.7-11.5-8.8c-2.6-3.7-4.9-10.4-9.9-11.3
									c-5.4-1-8.1,4.6-12.4,6.3c-2.1,0.8-4.7,0.5-6.5,1.8c-3.3,2.3-2,7.6-4.1,11c-2.2,3.4-7.2,3.9-9.9,6.9
									c-2.2,2.4-2.5,6.2-4.8,8.5c-1.6,1.6-3.8,2.3-5.6,3.6c-1.8,1.3-3,4-1.5,5.7c0.5,0.6,1.2,0.9,1.5,1.6c0,0,0,0,0,0
									c3.7,1.4,8.2,1.1,10.9,4C44.8,162.4,45.3,163.4,46.1,164.1z"/>
								<path fill="#605C0F" d="M46.1,164.1c1.9,1.7,4.8,1.5,7.3,1.5s5.6,0.3,6.9,2.5c0.4,0.7,0.6,1.6,1.2,2.2
									c0.6,0.7,1.5,1,2.3,1.2c3.4,1,7,1.3,10.6,0.9c1.3-0.1,2.7-0.3,3.9,0.2c1.6,0.7,2.4,2.6,4,3.3c3.8,1.8,8.4-4,11.9-1.8
									c1.5,1,1.9,3.1,3.2,4.4c3.3,3.4,9.8-0.4,13.4,2.6c0.9,0.7,1.4,1.7,2.2,2.5c4.4,4.2,12.6-0.5,17.3,3.3
									c0.8,0.6,1.4,1.5,2.3,2.1c2.8,2.1,7.1,0.8,9.4-2c-0.2-2.3,0-4.7-1.4-6.5c-0.8-1.1-2-1.8-2.6-2.9c-1.2-2.2,0.1-5.1-0.6-7.5
									c-0.9-2.9-4.3-4-7.2-4.5c-2.9-0.5-6.3-1-8-3.5c-1.5-2.1-1.2-5.1-2.4-7.4c-2.2-4.1-8.5-5.4-9.2-10c-0.2-1.3,0.1-2.6,0-3.9
									c-0.3-2.7-2.5-4.8-4.9-5.9c-2.4-1.2-5.1-1.7-7.6-2.5c-4.6-1.6-8.7-4.7-11.5-8.8c-2.6-3.7-4.9-10.4-9.9-11.3
									c-5.4-1-8.1,4.6-12.4,6.3c-2.1,0.8-4.7,0.5-6.5,1.8c-3.3,2.3-2,7.6-4.1,11c-2.2,3.4-7.2,3.9-9.9,6.9
									c-2.2,2.4-2.5,6.2-4.8,8.5c-1.6,1.6-3.8,2.3-5.6,3.6c-1.8,1.3-3,4-1.5,5.7c0.5,0.6,1.2,0.9,1.5,1.6c0,0,0,0,0,0
									c3.7,1.4,8.2,1.1,10.9,4C44.8,162.4,45.3,163.4,46.1,164.1z"/>
							</g>
							<path fill="#8A5941" d="M142.6,211.1c-0.2-1.9-0.5-3.9-1.7-5.4c-1.2-1.5-3.4-2.3-5.1-1.3c-1.3,0.8-2,2.5-3.4,2.9
								c-1.8,0.5-3.3-1.3-5.1-1.6c-1.3-0.2-3,0.3-3.9-0.7c-0.6-0.6-0.6-1.7-0.6-2.6c0.3-3.5,1.1-7,2.3-10.3
								c-2.2,2.6-3.9,5.6-5.2,8.8c1.1-3.4,2.1-6.9,3.2-10.3c0.1-0.4,0.3-0.9,0.2-1.4c-0.2-0.9-1.4-1.2-2.4-1.3c-2.5-0.2-5.5,0-7.6-1
								c-0.5-0.1-1-0.1-1.5,0.1c-0.6,0.2-1.1,0.6-1.6,0.9c-1.9,5.2-3.7,10.4-5.6,15.6c1.2-5.4,2.4-10.8,3.6-16.2
								c0.2-0.8,0.4-1.6,0.2-2.4c-0.5-2.3-3.5-3-5.8-2.9c-3.7,0.3-7.7,1.9-9.2,5.2c1.1-2,2-4.3,1.5-6.5s-2.5-4.2-4.8-3.9
								c-1.5,0.2-2.7,1.3-4.1,1.5c-2.7,0.4-5-2.5-7.8-2.4c-2,5.7-4.4,11.3-6.9,16.8c1.3-4.8,2.6-9.6,3.9-14.4c0.3-0.9,0.5-2-0.1-2.8
								c-0.3-0.4-0.8-0.7-1.2-0.9c-4-1.7-9.1,0-12.9-2.3c-1.7-1-2.9-2.7-4.6-3.7c-2.6-1.4-5.9-0.8-8.5-2.1c-1.4-0.7-2.5-1.9-3.7-3
								s-2.6-2-4.2-2.1c-1,0-2,0.4-2.6,1.2c0.1-0.8-0.1-1.6-0.6-2.2c-0.8-1-2.2-1.4-3.3-1c-0.4,0.3-0.8,0.7-1.2,1
								c-0.3,0.5-0.6,1-0.9,1.5c-0.8,1.8-1.2,3.7-1.6,5.5c-0.4,1.8-0.8,3.6-1.6,5.3c-1,2.2-2.4,4.5-4.3,6.1
								c-0.5,0.7-1.2,1.3-1.9,1.8c-0.7,0.5-1.7,1.1-1.8,2c-0.1,1,0.8,1.9,1.8,2.3c2.3,1,5.1,0.9,7.4-0.1c2.3-1,4.2-2.8,5.7-4.9
								c2.3-3.4,3.4-7.6,6-10.7c-1.2,5.3-3.5,10.4-6.7,14.7c-0.7,0.9-1.4,1.8-1.7,2.9c-0.3,1.1-0.1,2.4,0.9,3.1
								c0.5,0.4,1.2,0.4,1.9,0.5c3.1,0.3,6.1,0.5,9.2,0.7c0.6,0,1.3,0.1,1.8-0.2c0.6-0.3,1.1-0.8,1.5-1.4c2-2.6,3.7-5.5,4.8-8.6
								c-0.4,2.2-1.3,4.3-2.2,6.4c-1.1,2.4-2,5.5-0.3,7.5c0.6,0.7,1.3,1.1,2.1,1.6c2.4,1.4,4.9,2.7,7.4,3.9c1,0.5,2.2,0.9,3.1,0.2
								c0.7-0.5,0.8-1.5,0.8-2.3c0.2-3.3,0.8-6.7,1.7-9.9c-0.3,3.8-0.6,7.7-0.8,11.5c0,0.5-0.1,0.9,0.2,1.4c0.3,0.5,0.8,0.7,1.4,0.9
								c2.2,0.8,4.6,1.6,6.8,0.7c2.7-1.1,3.8-4.2,4.6-6.9c1.6-5.3,3.1-10.6,4.5-15.9c-0.9,4.9-1.6,9.9-2.1,15c-0.1,0.8,0,1.8,0.8,2
								c0.9,0.2,1.4-1,1.9-1.9c1.3-2.6,5-3.1,6.4-5.7c0.6-1.1,0.7-2.4,1.1-3.5c0.7-2,2.6-3.7,2.5-5.8c0.6,4.1-2.8,8-2,12.1
								c-0.4,0.5,0.8,1.1,1.4,1.1c3-4.7,8.9-7.4,14.5-6.7c-3.6,0.1-6.9,2.5-8.2,5.8c-0.3,0.7-0.5,1.5-1,2c-1,0.9-2.5,0.5-3.8,0.4
								c-3-0.2-6,1.4-8,3.6c-2.1,2.2-3.4,5-4.7,7.8c-0.5,1.1-1.1,2.5-0.5,3.6c0.4,0.8,1.3,1.3,2.2,1.6c3.3,1,7-0.5,10.2,0.5
								c3.2,1,5.3,4.1,7.8,6.3c3.1,2.7,7.3,4.2,11.4,4.1c0.5,0,1,0,1.4-0.3c1.1-0.7,0.9-2.3,0.4-3.5s-1.4-2.3-1.2-3.6
								c1.9,1.6,3.8,3.1,5.7,4.7c1.1,0.9,2.6,1.9,3.9,1.4c0.8-0.3,1.3-1.1,1.8-1.9c0.7-1.1,1.3-2.2,1.9-3.3c0.5-0.9,1-1.8,0.3-2.8
								c-0.4-0.6-1.1-0.9-1.8-0.9c-1.5,0-2.7,1-3.8,1.9c1.1-1.6,2.2-3.2,3.9-4.2c2.2-1.4,5.4-1.6,7.1,0.9c0.8,1.1,2,1.9,3.3,1.9
								c3.8,0.1,2.6-4.8,5.1-6.2c1.6,1,1.5,3.4,1.1,5.2c-0.4,1.5-0.9,3.1-0.6,4.5c0.1,0.6,0.8,0.7,1.2,0.3
								C142.7,215.4,142.8,213,142.6,211.1z"/>
							<path fill="#8E8F37" d="M73.7,130.5c2.7-0.3,5.8-1.1,6.8-3.6c0.9-2.4-0.7-5.2-3-6.2s-5-0.8-7.5-0.2c-2.6,0.6-5.2,1.7-7.6,3
								c-2,1.1-3.9,2.6-4.9,4.5c-1.1,2-1.2,4.7,0.3,6.4c-2.9,0.6-5.7,1.6-8.3,3c-1.6,0.8-3.1,1.8-3.9,3.4c-0.8,1.6-0.6,3.8,0.8,4.7
								c1.2,0.8,2.8,0.5,4.1-0.1s2.3-1.6,3.6-2.3c3.4-1.9,7.5-1.7,11.3-1.4c-4.6,0.7-9.9,1.9-12.2,6c-0.4,0.7-0.6,1.4-1.2,1.9
								c-1.6,1.5-4.1,0.5-6.3,0c-3.2-0.7-6.7-0.1-9.3,1.8c-1,0.7-1.9,1.7-1.8,2.9c0.2,1.7,2.4,2.3,4.1,2.2c1.7-0.2,3.6-0.7,5.1,0.2
								c1.2,0.8,1.7,2.2,2.6,3.3c3.3,4,10.4,1.4,14.6,4.5c1.5,1.1,2.4,2.7,4,3.6c4.1,2.5,10-1.3,14,1.3c0.9,0.6,1.5,1.4,2.3,2
								c1.7,1.3,3.9,1.8,6,1.4c2.9-0.6,5.9-3,8.5-1.5c1.4,0.8,2,2.4,3.2,3.4c3.8,3.2,10.7-0.7,14.2,2.8c0.4,0.4,0.7,0.9,1.1,1.2
								c2.8,2.5,7.3-1,10.9,0c1.2,0.3,2.2,1.2,3.3,1.5c1.2,0.4,2.7,0.1,3.1-1.1c0.5-1.4-1-2.6-2.4-3.2c-1.3-0.6-2.9-1.4-3-2.8
								c0-0.5,0.2-1.1,0.3-1.6c0.2-1.7-1.3-3-2.8-3.7c-1.5-0.7-3.2-1.2-4.3-2.4c-1.5-1.6-1.6-4.2-2.9-5.9c-1.5-2.1-4.4-2.6-6.9-2.8
								c-5.2-0.3-10.4,0.3-15.3,1.7c2.2-2.3,5.4-3.7,8.6-3.8c1.4,0,2.7,0.2,4.1,0s2.7-0.9,3.2-2.2c0.6-1.5-0.3-3.2-1.5-4.3
								c-1.2-1.1-2.7-1.9-3.8-3c-1.3-1.3-1.9-3.1-3.1-4.5c-1.7-2-4.5-3-7-2.6c-0.7,0.1-1.5,0.3-2.1-0.1c-0.5-0.3-0.7-0.9-1-1.4
								c-1.7-3.3-5.9-4.3-9.5-4.6c-7.6-0.6-15.2,0.7-22.2,3.6C64.7,133.8,68.3,131,73.7,130.5z"/>
						</g>
						<path fill="#605C0F" d="M78.3,141.7c-1.3,0.5-2.7,1.1-3.8,1.9c-1.2,0.8-2.1,2-2.4,3.4c3.2-3,7.6-4.2,11.8-5
							c0.5-0.1,2.4-0.1,2.6-0.6c0.3-0.6-0.8-1.3-1.3-1.4C83.2,139.6,80.1,141.1,78.3,141.7z"/>
						<path fill="#605C0F" d="M85,146.5c-3.8,0-7.6,1.4-10.4,3.9c-1.6,1.5-2.8,3.3-4.3,4.9c-0.1,0.2-0.3,0.3-0.5,0.4
							c-0.3,0.1-0.7,0.1-1,0c-5-1.1-10.8-0.1-14.4,3.6c2.6-1.2,5.3-2.2,8.2-2.4c2.9-0.2,5.8,0.3,8.3,1.8c1.3,0.8,2.4,1.8,3.8,2.3
							c2-3.5,5.2-6.3,8.8-8.2c1.7-0.9,3.4-1.6,5.2-2.2c1.1-0.3,4.2-0.5,4.9-1.4c0.8-1.1-2.4-1.7-3.3-2
							C88.5,146.7,86.8,146.5,85,146.5z"/>
						<path fill="#B3804E" d="M43.6,167.1c-1.1,3.7-2.3,7.4-3.8,11c0,0.1-0.1,0.1-0.1,0.1c-0.1,0-0.1-0.1-0.1-0.1
							c-1.9,2.9-3.4,5.6-5.3,8.4c-0.2,0.3-0.5,0.7-0.4,1.1c0,0.3,0.3,0.6,0.6,0.9c0.7,0.5,1.8,0.5,2.6,0.1c0.8-0.4,1.5-1.1,2.1-1.8
							c0.9-1.1,1.8-2.2,2.5-3.5c0.1,0.6,1,0.7,1.4,0.3s0.6-0.9,0.7-1.5c0.7-3.3,1-6.6,1.3-9.9c0.1-1.4,0.2-2.8,0.3-4.1
							c0-0.6,0.1-1.2-0.2-1.7C44.9,166.1,43.8,166.6,43.6,167.1z"/>
						<path fill="#B3804E" d="M28.2,173.2c-1.1,3.1-2.8,6.2-5.6,8c-0.4,0.2-0.8,0.4-1,0.8c-0.2,0.4-0.2,0.9,0.1,1.1
							c0.3,0.2,0.7,0.1,1-0.1c1.2-0.5,2.4-1.2,3.4-2c0,0.7,0.1,1.4,0.3,2c1.8-0.8,2.6-2.8,3.2-4.6c0.9-2.9,1.4-5.8,2-8.7
							c0.1,0.4,0.3,0.8,0.6,1.1c1.3-1.7,0.8-4,1.2-6c0.2-1.2,2-3.1,0-3.3C30.1,161.2,29,170.9,28.2,173.2z"/>
						<path fill="#B3804E" d="M51.4,188.4c-0.8,1.7-1.8,3.7-0.8,5.3c0.3,0.5,0.9,0.9,1.3,1.4c0.5,0.7,0.9,1.8,1.8,1.8
							c0.8,0,1.2-1.1,1-1.9c-0.2-0.8-0.7-1.5-1-2.2c-0.8-2.4,1.4-4.6,2.1-7.1c0.4-1.3,0.3-2.7,0.3-4.1c0-2.5,1.1-5.2,0.9-7.6
							c-0.2-1.9-1.6,0.2-2,1.2C53.3,179.5,53.4,184.2,51.4,188.4z"/>
						<path fill="#B3804E" d="M66,198.9c0,0.4,0.1,0.8,0.4,0.9c0.8-0.8,0.9-2,1-3.2c0.2-3.9,0.7-7.9,1.5-11.7c0,0.7,1,0.9,1.5,0.4
							s0.5-1.2,0.5-1.9c0-1.9,0.1-3.7,0.1-5.6c0-1.8-2-2.7-3.3-1.3c-1.2,1.3-1.1,4.4-1.4,6.1C65.8,188.1,65.6,193.5,66,198.9z"/>
						<path fill="#B3804E" d="M83.3,203.1c-0.5,1.1-0.8,2.2-1.1,3.4c-0.2,0.6-0.3,1.3,0,1.9c0.5,0.9,1.8,0.8,2.6,0.2
							c0.8-0.6,1.2-1.5,1.8-2.3c0.6-0.8,1.5-1.5,2.5-1.2c1.5,0.4,1.8,2.6,3.2,3.2c0.4,0.1,0.8,0.2,1.1,0.4c0.8,0.5,0.8,2,1.7,2.2
							c0.4,0.1,0.8-0.1,1.1-0.3c1-0.6,1.5-1.8,1.4-3c-0.2-1.6-1.5-2.9-1.9-4.5c-0.5-1.9,0.7-4.1,2.6-4.7c0.5-0.2,1-0.2,1.5-0.5
							c2-1.1,1.1-4.4,2.7-6c0.4-0.4,0.9-0.7,1.2-1.2c0.3-0.5,0.2-1.3-0.4-1.4c-0.2,0-0.4,0-0.6,0.1c-1.2,0.6-2,1.8-2.7,3
							c-0.6,1.2-1.2,2.5-2.3,3.4c-1.4,1.2-2.3,0.7-3.8,0.4c-1.4-0.3-2.9,0.2-4.2,0.7C87,198,84.6,200.2,83.3,203.1z"/>
						<path fill="#B3804E" d="M107.4,202.1c-0.5,1.4-1,2.9-1.2,4.4c-0.1,0.5,0,1.2,0.5,1.2c0.2,0,0.4-0.1,0.6-0.2
							c1.5-1,1.4-3.3,2.5-4.7c0.3-0.4,0.8-0.8,1.1-1.2c1.1-1.4,1.2-3.7,2.7-4.5c0.3,0.9,1.3,1.3,2.1,1c1.1-0.5,1.3-1.8,1.4-3
							c0.1-1.2,0.2-2.5,1.3-3.1c0.2-0.1,0.5-0.2,0.7-0.4c0.3-0.3,0.3-0.9,0-1.2c-0.3-0.4-0.7-0.6-1.1-0.7c-1.3-0.5-3.2-1.1-4.6-0.9
							c-1.5,0.2-1.7,1.2-2.2,2.5C109.9,194.9,108.6,198.5,107.4,202.1z"/>
					</g>
					<path fill="#B5A348" d="M71.6,122.5c-3-0.1-6.2,0.2-8.8,1.7c-2.7,1.5-4.7,4.3-4.5,7.3c0,0.4,0.3,1,0.7,0.8
						c2,0.2,3.8-1.6,4.9-3.2c0.7-1,1.4-2.1,2.6-2.3c0.1,0.4,0.2,0.8,0.4,1.3c0,0.1,0.1,0.3,0.2,0.4c0.1,0.1,0.2,0,0.4,0
						c1-0.3,1.1-1.6,1.7-2.4c0.6-0.8,1.7-1.1,2.8-1.3c0.7-0.1,1.6-0.2,1.8-0.9c0.1-0.5-0.3-1-0.8-1.2
						C72.4,122.5,72.1,122.5,71.6,122.5z"/>
					<path fill="#B5A348" d="M83,134c-3.4-0.9-7.1-0.7-10.6-0.4c-4.2-0.2-8.3,0.8-12.4,1.8c-3.3,0.8-6.8,1.7-9.3,3.9
						c-0.5,0.5-1.1,1-1.4,1.7c-0.1,0.1-0.1,0.3-0.1,0.4c0.1,0.2,0.3,0.3,0.5,0.4c0.7,0.1,1.5-0.2,2.2-0.6c1.3-0.6,2.5-1.2,3.8-1.9
						c0.3-0.1,0.6-0.3,0.8-0.2c0.2,0.1,0.4,0.2,0.6,0.3c1.1,0.8,2.6,0.2,3.8-0.3c0.7-0.3,1.4-0.6,2.1-0.5c0.9,0.2,1.5,1.1,2.4,1.5
						c1.3,0.6,2.7-0.1,4-0.7c3.8-1.8,7.8-3.1,11.9-3.8c1-0.2,2-0.3,2.9-0.7C84.2,134.5,83.6,134.2,83,134z"/>
					<path fill="#B5A348" d="M80.8,157.5c-0.9,0.8-1.7,1.7-1.7,2.9c0,0.3,0.1,0.6,0.3,0.8c0.1,0.1,0.3,0.2,0.5,0.2
						c1.2,0.2,2.4-0.3,3.4-1.1c0.9-0.8,1.6-1.8,2.5-2.7c0.7-0.8,1.5-1.5,2.3-2.2c0.2-0.2,0.4-0.3,0.7-0.4c0.4-0.1,0.7,0.1,1.1,0.2
						c1.6,0.3,2.9-1.1,4.2-1.9c0.9-0.6,1.8-1,2.9-1.2c0.2-0.3,0.1-0.8-0.2-1.1c-0.3-0.3-0.7-0.4-1.1-0.5c-2.9-0.6-4.8,0.7-7.3,2
						C85.6,153.9,83.1,155.4,80.8,157.5z"/>
					<path fill="#B5A348" d="M40.9,150.8c-1.2,0.2-2.4,0.4-3.3,1.2c-0.2,0.2-0.4,0.4-0.4,0.6c-0.2,0.6,0.2,1.3,0.9,1.6
						s1.3,0.1,1.9-0.1c0.6-0.2,1.2-0.6,1.8-0.8c1.9-0.6,4,0.2,6.1,0.2c0.5,0,1-0.1,1.2-0.6c0.2-0.6-0.4-1-1-1.3
						c-0.7-0.4-1.4-0.7-2.1-1.1C44.1,149.8,42.7,150.5,40.9,150.8z"/>
					<path fill="#B5A348" d="M56.9,159.1c-0.4,0.4-0.8,1.1-0.5,1.6c0.1,0.2,0.3,0.3,0.5,0.4c1.4,0.7,3,0.2,4.6,0
						c2.6-0.4,5.2-0.1,7.6,0.8c1.4,0.5,2.8,1.2,4.3,1c0-1.1-1-1.9-1.9-2.4c-2.4-1.5-5.3-2.5-8.1-2.7
						C61.5,157.6,58.5,157.7,56.9,159.1z"/>
					<path fill="#B5A348" d="M105.1,158.5c2,0,4,0.1,5.9,0.8s3.6,1.9,4.4,3.7c0.3,0.7,0.5,1.5,0.9,2.2c0.2,0.4,0.5,0.8,0.6,1.3
						c0,0.6-0.5,1.1-1,1.3c-0.9,0.3-2-0.1-2.8-0.7c-0.8-0.6-1.4-1.4-2.3-1.9c-2.1-1.4-5-1.1-7.4-0.3c-2.2,0.7-4.5,1.6-6.8,1.2
						c-1-0.2-2.1-0.7-3.1-0.6c-0.6,0.1-1.2,0.4-1.8,0.7c-0.8,0.4-1.7,0.6-2.6,0.8c-0.7,0.1-1.5,0.1-2.2-0.2
						c-3.7-1.7,2.8-5.3,4.4-5.9C95.7,159.2,100.5,158.5,105.1,158.5z"/>
				</g>
			</g>
		</g>
	</g>
</g>
<g id="_x31_">
</g>
</svg>
