<?xml version="1.0" encoding="utf-8"?>
<!-- Generator: Adobe Illustrator 27.9.0, SVG Export Plug-In . SVG Version: 6.00 Build 0)  -->
<svg version="1.1" xmlns="http://www.w3.org/2000/svg" xmlns:xlink="http://www.w3.org/1999/xlink" x="0px" y="0px"
	 viewBox="0 0 412.442 216.989" enable-background="new 0 0 412.442 216.989" xml:space="preserve">
<g id="_x31_8">
</g>
<g id="_x31_7">
</g>
<g id="_x31_5">
</g>
<g id="_x31_4">
</g>
<g id="_x31_3">
</g>
<g id="_x31_2">
</g>
<g id="_x31_1">
</g>
<g id="_x31_0">
</g>
<g id="_x38_">
</g>
<g id="_x37_">
	<g>
		<path opacity="0.67" fill="#74EDE4" d="M412.386,147.872c0.469-5.098-2.086-9.61-3.448-14.372
			c-3.103-10.845,0.407-23.429-8.059-32.206c-1.332-1.38-5.248-1.723-5.489,0.876c-0.392,4.224-0.165,8.428-0.655,12.647
			c-0.521,4.489-1.492,8.95-1.49,13.489c0.003,4.442,1.325,8.483,2.235,12.774c0.833,3.929,1.15,6.615-2.72,8.749
			c-7.828,4.317-17.865,5.842-26.543,7.549c-4.846,0.954-9.694,1.918-14.544,2.855c-2.318-2.909-5.181-5.365-8.366-7.103
			c-4.825-2.633-12.792-1.29-11.419,5.622c0.719,3.618,1.998,5.987,3.716,9.2c1.261,2.359,2.982,5.563,2.61,8.348
			c-0.837,6.272-8.644,6.73-13.491,6.927c-7.291,0.296-14.359,0.617-21.577,1.8c-6.991,1.146-13.937,2.623-20.987,3.38
			c-6.525,0.7-12.926,0.571-19.236-1.372c-8.091-2.49-14.711-3.651-22.915-0.674c-6.157,2.234-11.975,4.845-18.472,6.02
			c-7.704,1.393-15.375,1.5-23.149,0.765c-7.381-0.698-14.744-1.807-22.146-2.25c-8.2-0.491-16.362,0.109-24.557,0.297
			c-13.821,0.318-26.608-2.619-37.632-11.33c-5.563-4.396-10.243-8.465-17-10.981c-5.812-2.164-7.491-4.909-10.056-10.415
			c-2.657-5.704-5.698-10.078-9.875-14.78c-3.762-4.234-5.17-9.344-6.772-14.674c-3.771-12.546-10.328-22.387-24.742-22.733
			c-8.478-0.203-17.222,1.356-25.657,2.135c-3.513,0.324-10.925,2.372-12.357-2.474c-0.845-2.86,0.828-7.905,1.605-10.683
			c0.241-0.862-1.115-1.742-1.813-1.205c-4.729,3.635-9.275,8.572-6.577,14.95c2.387,5.643,8.66,7.525,14.28,7.706
			c8.339,0.269,16.813-0.547,25.151-0.814c3.366-0.108,7.888-0.741,10.991,0.965c2.297,1.262,3.332,3.889,4.099,6.247
			c1.768,5.433,2.103,11.275,4.214,16.604c2.597,6.554,7.991,10.524,11.424,16.435c3.289,5.662,4.91,12.089,9.695,16.832
			c5.485,5.437,13.224,5.923,19.175,10.417c6.167,4.657,11.78,9.193,18.819,12.552c2.295,1.095,4.671,2.067,7.092,2.929
			c-0.88,0.014-1.759,0.023-2.639,0.039c-4.943,0.094-9.907,0.33-14.85,0.226c-4.383-0.092-9.601-1.065-13.646,0.934
			c-0.045,0.022,0.001,0.086,0.03,0.098c3.907,1.525,8.208,1.117,12.339,1c4.664-0.131,9.323,0.015,13.988,0.102
			c4.608,0.086,9.209,0.156,13.81,0.197c2.1,0.461,4.212,0.838,6.326,1.106c8.836,1.12,17.767,0.583,26.643,0.552
			c8.579-0.03,16.885,1.379,25.325,2.74c16.861,2.72,34.622,1.625,50.545-4.854c2.945-1.198,6.514-3.471,9.753-2.949
			c3.907,0.629,7.63,2.93,11.586,3.749c8.206,1.698,16.564,1.518,24.851,0.482c9.124-1.141,18.108-3.242,27.265-4.137
			c9.093-0.888,18.491,0.38,27.124-3.308c7.872-3.363,13.534-10.22,13.361-19.063c-0.011-0.578-0.046-1.154-0.101-1.727
			c6.229-0.006,12.557-0.559,18.661-0.814c9.284-0.388,18.462-0.821,27.693-1.887c0.056-0.006,0.03-0.079-0.014-0.083
			c-7.978-0.864-15.913-1.313-23.907-1.672c8.503-2.071,16.838-5.572,24.328-9.79C408.797,157.24,411.898,153.171,412.386,147.872z"
			/>
		<g>
			<path fill="#8E8F37" d="M10.43,85.252c2.536,1.409,5.629,1.494,8.208,2.822c1.291,0.665,2.411,1.622,3.675,2.336
				c3.348,1.89,7.389,1.932,11.233,1.926c3.717-0.006,7.434-0.012,11.148-0.151c2.509-0.094,5.191-0.31,7.164-1.863
				c2.106-1.657,2.904-4.421,3.955-6.886c2.904-6.812,8.647-12.361,15.555-15.028c-6.533,4.052-11.194,11-12.466,18.581
				c-0.213,1.268-0.323,2.63,0.24,3.787c1.239,2.547,4.763,2.666,7.584,2.415c7.078-0.631,14.156-1.261,21.235-1.892
				c-3.894,1.239-8.03,1.493-12.008,2.43c-3.978,0.938-8.017,2.747-10.241,6.175c-0.22,0.339-0.427,0.747-0.3,1.131
				c0.103,0.31,0.398,0.511,0.689,0.659c2.258,1.147,5.2,0.404,7.316,1.796c1.86,1.224,2.455,3.682,3.987,5.299
				c1.76,1.857,4.48,2.357,7.006,2.759c5.528,0.879,11.056,1.758,16.584,2.637c-6.286,0.126-12.572,0.253-18.858,0.379
				c-1.49,0.03-3.127,0.116-4.217,1.134c-0.928,0.866-1.223,2.196-1.473,3.441c-0.519,2.591-1.038,5.182-1.557,7.773
				c-0.347,1.731-0.689,3.551-0.156,5.234c0.702,2.214,2.801,3.724,4.989,4.506c2.187,0.782,4.533,0.992,6.789,1.543
				c5.613,1.37,10.656,4.948,13.802,9.794c0.417,0.642,0.842,1.342,1.537,1.662c0.608,0.28,1.31,0.216,1.976,0.147
				c1.795-0.188,3.589-0.375,5.384-0.562c-1.859,0.567-3.717,1.133-5.576,1.7c1.604,2.381,4.378,3.932,7.246,4.052
				c16.189,0.679,31.22,7.587,47.33,9.321c3.68,0.396,8.495-0.078,9.836-3.247c0.041-0.274,0.119-0.552,0.267-0.835
				c-0.061,0.3-0.156,0.574-0.267,0.835c-0.357,2.391,3.064,4.384,5.818,4.771c11.237,1.58,22.622-0.922,33.969-0.951
				c8.962-0.023,17.857,1.499,26.811,1.867c8.824,0.364,17.651-0.394,26.45-1.151c15.899-1.367,31.798-2.734,47.697-4.102
				c9.539-0.82,19.307-1.7,27.98-5.755c4.091-1.913,8.322-6.871,5.42-10.332c-0.978-1.166-2.506-1.685-3.954-2.152
				c-9.567-3.085-19.134-6.17-28.701-9.255c25.085,0.644,50.646,1.229,74.733-5.802c4.056-1.184,8.163-2.643,11.338-5.431
				s5.249-7.192,4.202-11.286c-0.601-2.349-0.326-4.923,0.236-7.282c0.562-2.359,1.471-4.66,1.609-7.081
				c0.246-4.29-1.927-8.279-3.981-12.074c-3.034-3.235-6.721-5.817-10.547-8.078c-3.708-2.191-7.571-4.119-11.552-5.763
				c1.721-2.812,3.411-6.915,4.047-10.15c0.636-3.235-0.066-6.941-2.588-9.065c-1.361-1.146-3.108-1.732-4.551-2.771
				c-3.08-2.219-4.373-6.15-6.894-8.989c-3.755-4.227-9.761-5.566-15.391-6.084c-5.63-0.519-11.484-0.493-16.625-2.846
				c-2.584-1.183-4.868-2.919-7.25-4.469c-16.211-10.554-36.651-12.296-55.945-10.913c-5.701-10.745-21.405-14.547-31.389-7.599
				c-3.185-3.729-8.211-5.803-13.098-5.406s-9.513,3.254-12.056,7.447c-0.799,1.317-1.651,2.934-3.182,3.102
				c-0.766,0.084-1.51-0.24-2.225-0.529c-8.149-3.298-17.764-2.742-25.479,1.473c-3.798-4.844-10.673-4.644-16.806-4.119
				c-6.169,0.528-12.197,2.636-17.351,6.067c-0.539,0.359-1.102,0.744-1.747,0.797c-0.676,0.056-1.318-0.262-1.93-0.555
				c-10.167-4.874-22.275-4.886-32.97-1.316c-10.695,3.569-20.052,10.495-27.717,18.765c-0.736,0.794-1.487,1.623-2.471,2.075
				c-1.265,0.58-2.721,0.456-4.11,0.538c-5.412,0.319-10.042,3.83-14.237,7.264c-4.449,3.642-8.981,7.567-11.225,12.861
				c-1.023,2.414-1.872,5.402-4.365,6.216c-0.756,0.247-1.567,0.243-2.361,0.251c-10.816,0.113-21.593,2.938-31.074,8.145
				c-3.761,2.066-7.664,5.381-8.564,9.269C7.161,82.532,8.537,84.201,10.43,85.252z"/>
			<path fill="#514C0C" d="M339.948,42.042c-0.733-0.599-1.768-0.609-2.715-0.585c-3.493,0.089-6.994,0.249-10.478-0.019
				c-7.39-0.568-14.693-3.055-22.058-2.229c-12.29,1.379-22.766,11.762-35.104,10.914c-4.332-0.298-9.182-2.87-9.521-7.199
				c-0.343-4.381,4.108-8.207,3.371-12.539c-1.526,1.92-3.053,3.841-4.579,5.762c1.43-3.43,0.55-8.388,2.552-11.845
				c0.719-1.241,1.755-2.185,2.955-2.942c-0.012-0.157-0.008-0.318-0.012-0.477c-0.253,0.167-0.507,0.336-0.757,0.474
				c-5.503,3.034-12.295-3.567-18.287-1.676c1.551-1.64,4.072-1.867,6.322-1.679c2.25,0.188,4.554,0.677,6.73,0.078
				c2.177-0.599,4.144-2.81,3.483-4.969c-0.273-0.89-0.937-1.608-1.655-2.2c-2.906-2.396-7.075-3.161-10.642-1.951
				c-3.408,1.156-6.835,3.986-10.153,2.592c-1.505-0.633-2.531-2.016-3.721-3.133c-2.899-2.722-7.128-3.956-11.037-3.22
				c-7.75,1.46-11.93,9.939-9.793,17.282c1.014,3.484,3.137,6.519,4.769,9.76c1.632,3.24,2.791,7.012,1.7,10.473
				c-0.609,1.931-1.871,3.594-2.566,5.495c-0.962,2.629-0.782,5.528-0.423,8.304c1.096,8.472,4.398,17.548,11.941,21.558
				c1.657,0.881,3.467,1.484,5.013,2.548c1.546,1.064,2.842,2.76,2.744,4.634c-0.062,1.196-0.677,2.288-1.338,3.286
				c-2.261,3.414-5.431,7.111-4.292,11.045c0.643,2.222,2.542,3.813,4.344,5.264c7.366,5.929,15.513,12.151,24.968,12.24
				c1.546,0.014,3.179-0.172,4.423-1.089c1.244-0.917,1.909-2.764,1.085-4.072c-0.247-0.392-0.601-0.705-0.867-1.083
				c-1.176-1.673-0.263-4.111,1.3-5.43c1.563-1.32,3.601-1.895,5.443-2.784c1.842-0.89,3.661-2.342,3.948-4.367
				c0.161-1.134-0.188-2.271-0.521-3.367c-1.692-5.585-3.049-11.271-4.061-17.019c-0.167-0.95-0.298-2.024,0.28-2.796
				c0.579-0.772,2.137-0.671,2.22,0.291c1.662,0.805,2.289,2.879,2.284,4.726c-0.005,1.847-0.459,3.699-0.19,5.527
				c3.345-2.739,1.909-8.12,3.266-12.225c0.681-2.06,2.092-3.796,3.61-5.347c6.437-6.579,15.025-10.528,23.406-14.334
				c-1.552,0.067-3.104,0.134-4.655,0.201c9.241-5.563,20.289-8.069,31.026-7.037c1.775,0.171,3.676,0.412,5.25-0.427
				S341.329,43.171,339.948,42.042z"/>
			<path fill="#8E8F37" d="M168.047,161.061c0.111-0.262,0.206-0.536,0.267-0.835C168.166,160.509,168.088,160.787,168.047,161.061z
				"/>
			<path fill="#8E8F37" d="M168.047,161.061c0.111-0.262,0.206-0.536,0.267-0.835C168.166,160.509,168.088,160.787,168.047,161.061z
				"/>
			<path fill="#49241A" d="M6.041,84.074c1.194,4.697-0.834,10.022-0.68,14.866c0.072,2.269,0.29,4.638,1.5,6.559
				c2.459,3.902,7.824,4.458,12.434,4.605c8.623,0.275,17.247,0.55,25.87,0.824c4.951,0.158,10.392,0.512,13.961,3.947
				c3.694,3.556,4.145,9.189,5.831,14.031c1.891,5.43,5.497,10.105,7.685,15.423c1.808,4.394,2.616,9.148,4.416,13.545
				c4.064,9.927,13.414,17.504,23.967,19.422c2.235,0.406,4.545,0.584,6.637,1.469c4.087,1.728,6.904,5.963,11.222,6.988
				c6.487,1.54,12.739,5.198,19.376,5.827c9.515,0.902,19.175,1.799,28.574,0.07c3.394-0.624,6.84-1.591,10.241-1.004
				c3.456,0.597,6.43,2.728,9.712,3.966c4.996,1.884,10.508,1.638,15.841,1.365c9.381-0.48,18.762-0.959,28.143-1.439
				c5.085-0.26,10.411-0.591,14.755-3.247c1.853-1.133,4.404-2.614,5.877-1.018c0.373,0.404,0.572,0.944,0.936,1.356
				c0.756,0.857,2.023,0.984,3.164,1.053c5.262,0.316,10.524,0.633,15.785,0.949c16.479,0.991,33.593-2.937,49.967-5.047
				c7.353-0.948,14.915-2.003,21.343-5.698c0.805-0.462,1.611-0.987,2.122-1.761c0.627-0.948,0.73-2.138,0.796-3.273
				c0.253-4.312,0.248-8.638-0.016-12.949c13.197,0.91,26.502,0.234,39.538-2.01c1.789-0.308,3.608-0.657,5.199-1.532
				c4.801-2.637,5.962-8.894,6.6-14.334c1.472-12.554,3.627-25.729,6.217-38.101c0.672-3.21,1.402-6.457,1.228-9.731
				c-0.26-4.873-2.543-9.488-5.726-13.187c-0.285-0.331-0.584-0.647-0.882-0.965c2.054,3.795,4.226,7.784,3.981,12.074
				c-0.139,2.421-1.048,4.722-1.609,7.081c-0.561,2.359-0.837,4.932-0.236,7.282c1.048,4.094-1.026,8.498-4.202,11.286
				s-7.282,4.247-11.338,5.431c-24.088,7.031-49.649,6.446-74.733,5.802c9.567,3.085,19.134,6.17,28.701,9.255
				c1.448,0.467,2.976,0.986,3.954,2.152c2.901,3.461-1.329,8.419-5.42,10.332c-8.673,4.055-18.441,4.935-27.98,5.755
				c-15.899,1.367-31.798,2.734-47.697,4.102c-8.799,0.757-17.626,1.514-26.45,1.151c-8.954-0.369-17.849-1.89-26.811-1.867
				c-11.348,0.029-22.732,2.531-33.969,0.951c-2.754-0.387-6.174-2.381-5.818-4.771c-1.341,3.169-6.156,3.643-9.836,3.247
				c-16.11-1.734-31.141-8.641-47.33-9.321c-2.869-0.12-5.642-1.671-7.246-4.052c1.859-0.567,3.717-1.133,5.576-1.7
				c-1.795,0.188-3.589,0.375-5.384,0.562c-0.665,0.069-1.368,0.133-1.976-0.147c-0.695-0.32-1.12-1.02-1.537-1.662
				c-3.146-4.846-8.189-8.424-13.802-9.794c-2.257-0.551-4.602-0.76-6.789-1.543c-2.187-0.782-4.286-2.292-4.989-4.506
				c-0.534-1.683-0.191-3.503,0.156-5.234c0.519-2.591,1.038-5.182,1.557-7.773c0.249-1.245,0.545-2.575,1.473-3.441
				c1.09-1.017,2.727-1.104,4.217-1.134c6.286-0.126,12.572-0.253,18.858-0.379c-5.528-0.879-11.056-1.758-16.584-2.637
				c-2.527-0.402-5.247-0.902-7.006-2.759c-1.532-1.617-2.126-4.075-3.987-5.299c-2.116-1.392-5.057-0.649-7.316-1.796
				c-0.291-0.148-0.586-0.35-0.689-0.659c-0.127-0.383,0.08-0.792,0.3-1.131c2.224-3.428,6.263-5.238,10.241-6.175
				c3.978-0.937,8.113-1.191,12.008-2.43c-7.078,0.631-14.156,1.261-21.235,1.892c-2.821,0.251-6.345,0.132-7.584-2.415
				c-0.563-1.156-0.453-2.518-0.24-3.787c1.272-7.581,5.933-14.529,12.466-18.581c-6.908,2.667-12.651,8.216-15.555,15.028
				c-1.051,2.465-1.849,5.229-3.955,6.886c-1.974,1.552-4.655,1.769-7.164,1.863c-3.714,0.138-7.432,0.145-11.148,0.151
				c-3.844,0.006-7.885-0.036-11.233-1.926c-1.265-0.714-2.384-1.67-3.675-2.336c-2.578-1.329-5.672-1.414-8.208-2.822
				c-1.892-1.051-3.269-2.72-4.405-4.588C5.771,81.761,5.743,82.901,6.041,84.074z"/>
			<path fill="#3A2A1C" d="M6.041,84.074c1.194,4.697-0.834,10.022-0.68,14.866c0.072,2.269,0.29,4.638,1.5,6.559
				c2.459,3.902,7.824,4.458,12.434,4.605c8.623,0.275,17.247,0.55,25.87,0.824c4.951,0.158,10.392,0.512,13.961,3.947
				c3.694,3.556,4.145,9.189,5.831,14.031c1.891,5.43,5.497,10.105,7.685,15.423c1.808,4.394,2.616,9.148,4.416,13.545
				c4.064,9.927,13.414,17.504,23.967,19.422c2.235,0.406,4.545,0.584,6.637,1.469c4.087,1.728,6.904,5.963,11.222,6.988
				c6.487,1.54,12.739,5.198,19.376,5.827c9.515,0.902,19.175,1.799,28.574,0.07c3.394-0.624,6.84-1.591,10.241-1.004
				c3.456,0.597,6.43,2.728,9.712,3.966c4.996,1.884,10.508,1.638,15.841,1.365c9.381-0.48,18.762-0.959,28.143-1.439
				c5.085-0.26,10.411-0.591,14.755-3.247c1.853-1.133,4.404-2.614,5.877-1.018c0.373,0.404,0.572,0.944,0.936,1.356
				c0.756,0.857,2.023,0.984,3.164,1.053c5.262,0.316,10.524,0.633,15.785,0.949c16.479,0.991,33.593-2.937,49.967-5.047
				c7.353-0.948,14.915-2.003,21.343-5.698c0.805-0.462,1.611-0.987,2.122-1.761c0.627-0.948,0.73-2.138,0.796-3.273
				c0.253-4.312,0.248-8.638-0.016-12.949c13.197,0.91,26.502,0.234,39.538-2.01c1.789-0.308,3.608-0.657,5.199-1.532
				c4.801-2.637,5.962-8.894,6.6-14.334c1.472-12.554,3.627-25.729,6.217-38.101c0.672-3.21,1.402-6.457,1.228-9.731
				c-0.26-4.873-2.543-9.488-5.726-13.187c-0.285-0.331-0.584-0.647-0.882-0.965c2.054,3.795,4.226,7.784,3.981,12.074
				c-0.139,2.421-1.048,4.722-1.609,7.081c-0.561,2.359-0.837,4.932-0.236,7.282c1.048,4.094-1.026,8.498-4.202,11.286
				s-7.282,4.247-11.338,5.431c-24.088,7.031-49.649,6.446-74.733,5.802c9.567,3.085,19.134,6.17,28.701,9.255
				c1.448,0.467,2.976,0.986,3.954,2.152c2.901,3.461-1.329,8.419-5.42,10.332c-8.673,4.055-18.441,4.935-27.98,5.755
				c-15.899,1.367-31.798,2.734-47.697,4.102c-8.799,0.757-17.626,1.514-26.45,1.151c-8.954-0.369-17.849-1.89-26.811-1.867
				c-11.348,0.029-22.732,2.531-33.969,0.951c-2.754-0.387-6.174-2.381-5.818-4.771c-1.341,3.169-6.156,3.643-9.836,3.247
				c-16.11-1.734-31.141-8.641-47.33-9.321c-2.869-0.12-5.642-1.671-7.246-4.052c1.859-0.567,3.717-1.133,5.576-1.7
				c-1.795,0.188-3.589,0.375-5.384,0.562c-0.665,0.069-1.368,0.133-1.976-0.147c-0.695-0.32-1.12-1.02-1.537-1.662
				c-3.146-4.846-8.189-8.424-13.802-9.794c-2.257-0.551-4.602-0.76-6.789-1.543c-2.187-0.782-4.286-2.292-4.989-4.506
				c-0.534-1.683-0.191-3.503,0.156-5.234c0.519-2.591,1.038-5.182,1.557-7.773c0.249-1.245,0.545-2.575,1.473-3.441
				c1.09-1.017,2.727-1.104,4.217-1.134c6.286-0.126,12.572-0.253,18.858-0.379c-5.528-0.879-11.056-1.758-16.584-2.637
				c-2.527-0.402-5.247-0.902-7.006-2.759c-1.532-1.617-2.126-4.075-3.987-5.299c-2.116-1.392-5.057-0.649-7.316-1.796
				c-0.291-0.148-0.586-0.35-0.689-0.659c-0.127-0.383,0.08-0.792,0.3-1.131c2.224-3.428,6.263-5.238,10.241-6.175
				c3.978-0.937,8.113-1.191,12.008-2.43c-7.078,0.631-14.156,1.261-21.235,1.892c-2.821,0.251-6.345,0.132-7.584-2.415
				c-0.563-1.156-0.453-2.518-0.24-3.787c1.272-7.581,5.933-14.529,12.466-18.581c-6.908,2.667-12.651,8.216-15.555,15.028
				c-1.051,2.465-1.849,5.229-3.955,6.886c-1.974,1.552-4.655,1.769-7.164,1.863c-3.714,0.138-7.432,0.145-11.148,0.151
				c-3.844,0.006-7.885-0.036-11.233-1.926c-1.265-0.714-2.384-1.67-3.675-2.336c-2.578-1.329-5.672-1.414-8.208-2.822
				c-1.892-1.051-3.269-2.72-4.405-4.588C5.771,81.761,5.743,82.901,6.041,84.074z"/>
		</g>
		<path fill="#514C0C" d="M131.657,98.408c-0.965,1.227-1.953,2.476-3.254,3.339c-1.301,0.863-2.992,1.291-4.448,0.727
			c-1.456-0.564-2.463-2.323-1.867-3.766c0.465-1.126,1.67-1.74,2.437-2.687c1.316-1.625,1.167-4,0.525-5.99
			c-0.641-1.99-1.703-3.857-2.033-5.921c-0.263-1.641-0.098-3.479-1.124-4.786c-1.492-1.901-4.56-1.541-6.485-3.002
			c-1.65-1.251-2.09-3.567-1.918-5.63c0.172-2.063,0.825-4.075,0.855-6.146c0.084-5.92-4.751-10.633-6.913-16.145
			c-0.46-1.174-0.804-2.446-0.594-3.689c0.21-1.244,1.097-2.443,2.336-2.679c1.264-0.241,2.831,0.449,3.716-0.486
			c0.895-0.946,0.003-2.572-1.17-3.138c-1.173-0.566-2.568-0.596-3.682-1.271c-0.853-0.517-1.456-1.362-2.255-1.959
			c-1.628-1.216-3.905-1.25-5.828-0.594s-3.575,1.911-5.189,3.145c-2.536,1.938-5.071,3.876-7.607,5.814
			c-1.466,1.121-3.547,2.256-4.996,1.114c-0.561-1.551,0.777-3.091,2.017-4.179c3.483-3.056,7.138-5.918,10.941-8.566
			c1.078-0.751,2.227-1.507,3.533-1.644c1.746-0.184,3.54,0.768,5.22,0.259c1.869-0.566,2.749-2.629,3.96-4.162
			c1.548-1.96,3.835-3.179,6.11-4.21c3.609-1.636,7.499-2.962,11.452-2.692c1.837,0.126,3.631,0.593,5.451,0.872
			c6.926,1.062,13.947-0.621,20.752-2.293c2.762-0.678,5.077-3.853,7.73-4.878c2.344-0.906,5.147,0.422,6.442,2.576
			c1.295,2.153,1.297,4.885,0.61,7.303c-0.687,2.417-1.994,4.602-3.231,6.789c-5.479,9.687-9.874,20.147-11.367,31.175
			c-0.711,5.25-0.853,10.867-3.803,15.267c-2.846,4.244-8.094,6.983-9.357,11.935c-0.403,1.58-0.353,3.28-0.999,4.778
			C136.448,95.714,134.441,97.38,131.657,98.408z"/>
		<path fill="#514C0C" d="M299.346,83.793c-0.65,0.187-1.322,0.423-1.776,0.924s-0.601,1.343-0.146,1.843
			c0.229,0.252,0.564,0.376,0.89,0.473c3.195,0.948,6.601,0.034,9.921-0.252c4.53-0.391,9.065,0.405,13.586,0.891
			c4.541,0.488,9.115,0.663,13.679,0.524c3.144-0.096,6.412-0.378,9.122-1.975c2.289-1.349,3.988-3.528,6.237-4.942
			c5.252-3.3,12.395-1.846,17.83-4.834c3.578-1.968,6.019-5.861,6.231-9.939c-1.115-0.455-2.391,0.268-3.138,1.213
			s-1.177,2.11-1.934,3.047c-1.198,1.484-3.061,2.231-4.839,2.919c-3.046,1.178-6.157,2.369-9.419,2.532
			c-3.206,0.16-6.525-0.674-9.575,0.326c-2.386,0.782-4.275,2.585-6.439,3.859c-6.365,3.747-14.097,2.582-21.125,2.51
			c-3.363-0.034-6.797,0.818-10.117,0.596C305.136,83.296,302.586,82.863,299.346,83.793z"/>
		<path fill="#B5A348" d="M272.608,25.99c-0.822,1.09-1.33,2.379-1.824,3.652c-1.017,2.622-2.004,5.612-0.798,8.153
			c0.808,1.702,2.51,2.865,4.331,3.349c1.82,0.484,3.752,0.358,5.603,0.008c4.413-0.834,8.492-2.887,12.433-5.04
			c1.828-0.998,3.663-2.032,5.667-2.598c4.739-1.338,9.775,0.079,14.461,1.591c4.686,1.511,9.599,3.145,14.436,2.223
			c0.606-0.116,1.252-0.301,1.627-0.791c0.789-1.03-0.163-2.515-1.253-3.219c-1.853-1.197-4.112-1.529-6.265-2.013
			c-4.21-0.946-8.234-2.563-12.237-4.173c-1.956-0.787-3.932-1.584-5.657-2.797c-1.066-0.749-2.025-1.65-3.137-2.329
			C292.389,17.365,278.264,18.483,272.608,25.99z"/>
		<path fill="#B5A348" d="M345.44,46.467c-0.58,1.492-2.187,2.307-3.723,2.759c-6.004,1.77-12.426,0.036-18.684,0.181
			c-6.012,0.139-11.971,2.078-16.914,5.503c-1.451,1.005-2.82,2.137-4.364,2.994c-1.566,0.869-3.279,1.437-4.894,2.21
			c-3.664,1.755-6.801,4.594-8.913,8.065c-0.481,0.79-0.919,1.643-0.985,2.566c-0.067,0.923,0.32,1.932,1.14,2.361
			c0.588,0.308,1.294,0.278,1.949,0.165c6.117-1.056,9.934-8.241,16.115-8.809c2.334-0.215,4.718,0.579,7.006,0.072
			c2.128-0.472,3.88-2.009,5.975-2.612c3.211-0.924,6.679,0.47,9.971-0.097c1.63-0.281,3.203-1.041,4.854-0.93
			c1.651,0.111,3.38,1.696,2.765,3.232c-0.469,1.171-1.951,1.552-2.758,2.521c-0.376,0.452-0.59,1.013-0.888,1.52
			c-1.394,2.369-4.34,3.206-6.956,4.051c-2.504,0.809-4.947,1.805-7.303,2.978c-0.675,0.336-1.439,0.835-1.436,1.589
			c2.282,0.868,4.654-0.762,6.867-1.793c4.615-2.151,10.159-1.824,14.582-4.345c0.856-0.488,1.663-1.08,2.593-1.406
			c0.997-0.35,2.074-0.373,3.13-0.402c3.362-0.091,7.151-0.48,9.246-3.111c1.664-2.091,1.742-5.054,1.165-7.663
			c-0.266-1.202-0.656-2.397-0.635-3.629c0.037-2.215,1.394-4.253,1.402-6.468c0.011-3.136-2.607-5.601-5.157-7.426
			c-1.167-0.835-2.423-1.65-3.847-1.826c-1.572-0.195-3.736,0.661-3.216,2.409c0.164,0.553,1.155,1.075,1.47,1.59
			C345.645,43.78,345.899,45.284,345.44,46.467z"/>
		<path fill="#B5A348" d="M51.571,62.12c-0.246,0.733-0.478,1.492-0.95,2.104c-1.099,1.426-3.121,1.658-4.915,1.794
			c-10.969,0.827-22.336,2.465-31.464,8.603c-1.622,1.09-3.325,2.706-3.034,4.639c0.269,1.79,2.166,2.877,3.947,3.197
			s3.652,0.151,5.369,0.724c1.844,0.616,3.312,2.021,5.057,2.879c2.87,1.411,6.479,1.183,9.149-0.577
			c1.544-1.018,2.858-2.535,4.669-2.904c2.209-0.45,4.406,0.963,6.657,0.86c2.188-0.1,4.033-1.588,5.703-3.005
			c2.134-1.81,4.321-3.686,5.602-6.173c0.855-1.661,1.26-3.512,1.965-5.242c1.909-4.68,6.4-8.437,11.45-8.655
			c1.626-0.07,3.268,0.209,4.875-0.048c1.899-0.304,4.047-1.29,5.572-0.117c1.109,0.853,1.249,2.556,0.666,3.828
			c-0.583,1.271-1.718,2.194-2.861,3c-3.951,2.788-8.444,4.762-12.279,7.706s-7.092,7.253-7.027,12.088
			c0.023,1.697,0.723,3.667,2.365,4.097c1.826,0.478,3.473-1.217,5.32-1.606c1.169-0.246,2.385,0.045,3.575-0.064
			c3.215-0.296,5.396-3.305,7.085-6.055c1.265-2.059,2.528-4.165,4.303-5.804c1.775-1.639,4.174-2.777,6.571-2.468
			c0.897,0.116,1.763,0.427,2.665,0.507c1.997,0.177,4.051-0.912,5.027-2.663c0.932-1.674,0.951-3.855,2.298-5.218
			c0.819-0.829,2.003-1.206,2.856-2.001c1.567-1.459,1.63-3.974,0.929-5.997s-2.012-3.775-2.906-5.721
			c-0.754-1.641-1.334-3.569-2.916-4.44c-1.074-0.592-2.383-0.546-3.542-0.946c-1.16-0.4-2.128-1.231-3.269-1.683
			c-2.46-0.975-5.3-0.023-7.464,1.499c-1.279,0.9-2.466,2.019-3.967,2.458s-3.468-0.138-3.869-1.65
			c-0.806-3.041,3.912-5.018,2.06-8.031c-1.735-2.824-5.123-0.879-7.264,0.24C64.22,44.07,59.555,48.189,56.104,53.15
			C54.185,55.909,52.641,58.932,51.571,62.12z"/>
		<path fill="#B5A348" d="M78.604,89.165c2.33,1.588,5.404-0.071,8.207-0.376c3.398-0.37,6.633,1.357,9.614,3.028
			c0.877,0.491,1.835,1.086,2.078,2.061c0.248,0.994-0.401,2.05-1.299,2.543c-0.898,0.493-1.977,0.526-2.995,0.412
			c-2.281-0.255-4.438-1.177-6.703-1.547c-2.9-0.474-5.863-0.031-8.768,0.413c-1.003,0.153-2.049,0.323-2.872,0.917
			s-1.334,1.753-0.869,2.655c0.269,0.521,0.794,0.851,1.296,1.156c2.44,1.484,4.879,2.968,7.319,4.452
			c1.496,0.91,3.025,1.834,4.733,2.221c3.819,0.865,7.794-1.086,11.672-0.536c1.018,0.144,2.011,0.46,3.038,0.52
			c1.918,0.112,3.762-0.67,5.524-1.436c1.529-0.665,3.177-1.441,3.914-2.937c1.171-2.379-0.535-5.305,0.216-7.847
			c0.398-1.345,1.452-2.444,1.728-3.819c0.45-2.242-1.275-4.306-3.004-5.802s-3.731-3.046-4.12-5.3
			c-0.496-2.871,1.845-5.964,0.536-8.567c-0.994-1.977-4.125-2.379-5.586-0.716c-0.964,1.098-1.137,2.701-2.005,3.876
			c-1.214,1.644-3.447,2.074-5.467,2.381c-3.625,0.551-7.693,0.615-10.573,3.137c-1.232,1.079-2.609,2.281-3.609,3.571
			C80.154,84.211,77.65,88.515,78.604,89.165z"/>
		<path fill="#B5A348" d="M193.973,158.176c-0.805-0.417-1.366-1.173-1.98-1.84c-2.123-2.307-5.182-3.727-8.315-3.859
			c-2.32-0.098-4.63,0.478-6.95,0.364c-4.087-0.2-7.738-2.486-11.178-4.703c-1.101-0.709-2.273-1.504-2.716-2.737
			c-0.271-0.754-0.239-1.607-0.61-2.317c-1.184-2.269-4.753-1.094-7.048-2.227c-1.715-0.847-2.47-2.879-3.91-4.137
			c-1-0.873-2.284-1.334-3.536-1.776c-2.609-0.922-5.284-1.855-8.051-1.822c-3.153,0.037-6.485,1.301-9.339-0.039
			c-2.793-1.311-3.831-4.428-5.277-6.912c-1.652-2.836-4.258-4.826-6.277-7.347c-1.8-2.249-3.572-2.546-6.266-1.976
			c-3.771,0.798-7.356,1.452-11.237,1.66c-5.13,0.275-10.284,0.115-15.387-0.484c-1.152-0.135-2.363-0.286-3.438,0.15
			c-2.811,1.139-2.982,5.352-3.203,7.871c-0.114,1.298-0.061,2.612,0.282,3.869c1.224,4.491,4.491,4.338,7.427,4.633
			c6.023,0.606,11.778,3.56,15.781,8.101c2.399,2.721,4.635,6.253,8.239,6.672c1.139,0.133,2.374-0.062,3.368,0.508
			c0.851,0.489,1.319,1.427,1.973,2.157c1.566,1.75,4.116,2.222,6.465,2.216c8.183-0.02,15.671-4.477,23.714-5.98
			c-3.562,1.308-6.954,3.077-10.064,5.249c-0.464,0.324-0.97,0.745-0.968,1.312c0.001,0.471,0.361,0.859,0.729,1.152
			c3.414,2.72,8.385,1.323,12.715,1.874c4.59,0.583,9.486,3.424,13.484,1.097c1.48-0.861,2.738-2.407,4.451-2.381
			c0.616,0.01,1.206,0.233,1.781,0.453c1.949,0.746,3.899,1.493,5.848,2.239c3.409,1.305,6.857,2.62,10.477,3.093
			c3.41,0.445,6.867,0.128,10.291-0.189c0.889-0.083,1.794-0.169,2.618-0.512c0.009-0.004,0.018-0.007,0.026-0.011
			c1.43-0.606,1.001-2.776-0.548-2.881C196.198,158.641,194.959,158.688,193.973,158.176z M112.119,131.89
			c-1.384,1.46-3.461,1.467-5.334,1.425c-1.036-0.023-2.075-0.121-3.111-0.102c-1.174,0.021-2.337,0.172-3.514,0.087
			c-1.183-0.085-2.26-0.401-3.35-0.858c-0.851-0.357-1.787-0.841-2.712-0.907c-1.164-0.083-3.068,0.331-3.346-1.304
			c-0.303-1.786,1.86-2.139,3.116-2.491c3.835-1.075,7.814-0.609,11.73-0.515c1.939,0.046,5.637,0.03,6.618,2.168
			c0.234,0.17,0.42,0.4,0.513,0.722C112.92,130.775,112.561,131.425,112.119,131.89z M123.543,135.919
			c-0.105,0.199-0.337,0.365-0.551,0.423c-0.236,0.065-0.498,0.025-0.71-0.093c-0.01-0.006-0.021-0.01-0.031-0.015
			c-0.09-0.033-0.182-0.055-0.275-0.074c-0.151-0.011-0.301-0.009-0.451,0.006c-0.262,0.045-0.521,0.104-0.777,0.177
			c-0.496,0.142-0.981-0.172-1.133-0.643c-0.072-0.221-0.023-0.512,0.093-0.71c0.118-0.202,0.326-0.359,0.551-0.423
			c0.453-0.129,0.913-0.235,1.386-0.264c0.544-0.032,1.092,0.092,1.568,0.356C123.663,134.908,123.772,135.485,123.543,135.919z
			 M141.47,138.085c-1.425,0.623-2.995,0.925-4.544,1.008c-1.454,0.078-3.246-0.041-4.324-1.152
			c-0.278-0.286-0.364-0.769-0.144-1.116c0.779-1.23,2.401-1.472,3.736-1.567c1.231-0.087,2.462,0.002,3.69,0.09
			c0.274,0.02,0.511,0.147,0.678,0.337c0.1,0.003,0.2-0.001,0.306,0.019c0.264,0.051,0.492,0.217,0.653,0.425
			c0.138,0.179,0.232,0.385,0.272,0.609c0.007,0.04,0.004,0.075,0.009,0.113C142.02,137.276,141.953,137.874,141.47,138.085z
			 M155.834,146.101c-0.083,0.09-0.182,0.153-0.297,0.191c-0.11,0.058-0.228,0.084-0.355,0.079c-0.186-0.025-0.369-0.04-0.544-0.108
			c-0.157-0.061-0.319-0.123-0.459-0.219c-0.285-0.194-0.507-0.416-0.692-0.708c-0.139-0.218-0.244-0.474-0.296-0.727
			c-0.035-0.169-0.06-0.345-0.066-0.518c-0.006-0.175,0.024-0.345,0.047-0.518c0.044-0.156,0.123-0.292,0.237-0.406
			c0.062-0.048,0.124-0.096,0.186-0.144c0.129-0.083,0.279-0.109,0.431-0.111c0.132-0.022,0.266-0.021,0.38,0.019
			c0.318,0.109,0.555,0.252,0.811,0.467c0.07,0.059,0.134,0.124,0.193,0.195c0.099,0.12,0.198,0.244,0.28,0.377
			c0.27,0.438,0.409,0.969,0.412,1.482C156.106,145.698,155.999,145.921,155.834,146.101z"/>
		<path fill="#B5A348" d="M327.516,152.383c-1.155-0.081-2.305-0.204-3.453-0.353c-0.122,0.009-0.247,0.017-0.366,0.025
			c-2.08,0.13-4.965,0.633-6.581-1.058c-0.089-0.094-0.148-0.209-0.191-0.332c-0.104-0.027-0.209-0.047-0.313-0.074
			c0.091-0.02,0.185-0.029,0.276-0.048c-0.095-0.46,0.114-0.993,0.634-1.085c3.622-0.643,7.108,0.679,10.714,0.404
			c1.089-0.083,2.663-0.317,3.28-1.354c0.531-0.892,0.223-1.742-0.407-2.344c-0.107,0.012-0.217,0.009-0.328-0.029
			c-0.506-0.174-0.938-0.463-1.323-0.812c-0.238-0.1-0.475-0.2-0.713-0.3c-0.787-0.241-1.594-0.441-2.357-0.676
			c-2.021-0.624-4.075-1.146-6.067-1.864c-1.882-0.678-3.72-1.523-5.385-2.637c-0.767-0.513-1.509-1.057-2.26-1.585
			c-1.806-0.76-3.611-1.52-5.417-2.28c-0.819-0.345-1.753-0.83-1.886-1.709c-0.11-0.729,0.396-1.402,0.507-2.131
			c0.211-1.387-1.1-2.617-2.473-2.906c-1.373-0.289-2.786,0.08-4.17,0.312c-3.19,0.535-6.502,0.335-9.604-0.581
			c-1.911-0.564-4.268-1.254-5.957-0.633c-0.013,0.053-0.025,0.109-0.037,0.15c-0.078,0.275-0.133,0.556-0.185,0.836
			c-0.059,0.313-0.118,0.621-0.194,0.924c0.233,0.793-0.071,1.968-0.75,2.593c-1.078,0.994-2.684,1.761-2.797,3.223
			c-0.097,1.261,1.055,2.279,2.227,2.752c1.173,0.473,2.482,0.639,3.539,1.331c2.556,1.675,2.444,5.504,1.338,8.353
			c-0.339,0.874-0.769,1.755-1.506,2.334c-0.596,0.468-1.34,0.697-2.07,0.896c-5.689,1.55-11.717,1.845-17.531,0.857
			c-3.364-0.572-6.891-1.554-10.101-0.395c-3.288,1.188-5.548,4.419-8.878,5.485c-2.849,0.912-5.92,0.076-8.907-0.1
			c-5.508-0.324-11.077,1.634-16.488,0.553c-4.134-0.826-11.404-3.822-13.895,2.027c-0.938,2.202,0.214,1.87,2.233,1.663
			c4.033-0.414,7.878-0.083,11.907,0.252c8.656,0.718,17.361,0.241,26.032-0.236c3.44-0.189,6.88-0.379,10.32-0.568
			c11.463-0.631,22.948-1.265,34.29-3.044c6.12-0.96,12.23-2.256,18.425-2.261c5.151-0.004,10.448,0.869,15.361-0.677
			c0.956-0.301,1.998-1.166,2.122-1.999C328.049,152.91,327.863,152.602,327.516,152.383z M293.921,138.766
			c-1.278,0.642-2.54,0.141-3.71-0.506c-0.593-0.103-1.184-0.364-1.553-0.829c-0.128-0.162-0.196-0.327-0.228-0.507
			c-0.01-0.039-0.006-0.079-0.011-0.119c-0.002-0.051-0.022-0.092-0.014-0.148c0.001-0.007,0.004-0.014,0.005-0.021
			c0.007-0.146,0.034-0.291,0.104-0.423c0.176-0.333,0.558-0.484,0.916-0.441c0.699-0.217,1.44-0.314,2.169-0.324
			c0.889-0.013,1.863,0.113,2.563,0.708c0.398,0.338,0.829,0.747,0.831,1.312C294.994,138.128,294.449,138.5,293.921,138.766z
			 M309.786,148.572c-2.651,1.643-5.911,1.609-8.926,1.678c-1.216,0.028-3.053,0.172-4.032-0.71
			c-0.386-0.348-0.534-0.859-0.427-1.346c-0.072-0.502,0.208-1.082,0.863-1.115c0.133-0.007,0.269-0.016,0.403-0.024
			c0.325-0.074,0.668-0.099,0.985-0.111c0.14-0.005,0.279,0.003,0.419,0.003c1.721-0.171,3.471-0.499,5.009-1.192
			c1.243-0.559,1.697-1.54,2.281-2.703c0.552-1.099,1.408-2.175,2.645-2.52c2.11-0.589,3.6,1.318,3.608,3.271
			C312.623,145.821,311.464,147.532,309.786,148.572z"/>
		<path fill="#B5A348" d="M315.754,130.459c6.128-0.238,12.256-0.476,18.383-0.715c3.259-0.127,6.519-0.253,9.778-0.38
			c10.638-0.414,21.306-0.83,31.818-2.513c2.026-0.324,4.531-1.212,4.631-3.262c-0.758-0.29-1.516-0.58-2.275-0.87
			c3.646-1.643,7.851-1.198,11.799-1.841c3.947-0.644,8.261-3.226,8.345-7.225c0.047-2.235-1.273-4.298-1.406-6.529
			c-0.175-2.943,1.722-5.687,1.683-8.634c-0.025-1.891-0.847-3.674-1.741-5.341c-1.222-2.28-2.684-4.547-4.871-5.928
			c-2.187-1.382-5.266-1.645-7.26,0.004c-0.889,0.735-1.49,1.772-2.384,2.5c-2.398,1.951-5.899,1.108-8.987,1.256
			c-2.717,0.13-5.341,1.109-8.059,1.234c-1.931,0.088-3.854-0.258-5.785-0.325c-2.056-0.072-4.108,0.173-6.15,0.417
			c-5.867,0.701-11.733,1.401-17.6,2.102c-0.122,1.057,0.833,1.986,1.863,2.254c1.03,0.268,2.114,0.059,3.169-0.079
			c2.574-0.335,5.205-0.229,7.743,0.312c4.244,0.905,8.362,3.025,12.677,2.573c1.077-0.113,2.15-0.386,3.228-0.291
			c1.079,0.095,2.214,0.676,2.544,1.707c0.439,1.375-0.767,2.784-2.109,3.314c-1.342,0.53-2.841,0.514-4.218,0.945
			c-2.244,0.701-3.939,2.493-5.764,3.975c-7.491,6.078-17.747,7.201-27.382,7.676c-1.407,0.069-2.85,0.138-4.145,0.694
			s-2.429,1.716-2.529,3.121c-0.073,1.015,0.384,2.078,0.009,3.024c-0.503,1.272-2.13,1.56-3.482,1.762
			c-1.428,0.213-8.841,1.47-9.01,3.266C308.046,130.995,314.679,130.501,315.754,130.459z"/>
		<path fill="#605C0F" d="M113.919,47.179c0.574,2.606,1.978,4.938,3.097,7.36c1.994,4.314,3.116,9.029,3.278,13.778
			c0.041,1.195,0.04,2.459,0.656,3.483c0.895,1.486,2.821,2.03,3.909,3.381c1.093,1.357,1.235,3.397,2.598,4.482
			c0.24,0.191,0.541,0.349,0.841,0.289c0.298-0.06,0.512-0.317,0.674-0.574c1.04-1.651,0.867-3.792,0.343-5.671
			c-0.524-1.88-1.363-3.689-1.562-5.63c-0.227-2.221,0.402-4.457,0.229-6.683c-0.247-3.187-2.094-6.016-2.872-9.116
			c-0.792-3.16-0.422-6.597,1.024-9.516c1.025-2.068,2.605-4.01,2.65-6.318c0.018-0.948-0.334-2.015-1.202-2.397
			c-0.316-0.139-0.668-0.172-1.013-0.161c-1.331,0.039-2.56,0.683-3.734,1.311c-1.312,0.702-2.625,1.404-3.937,2.107
			C115.188,39.291,112.98,42.914,113.919,47.179z"/>
		<path fill="#605C0F" d="M255.119,60.973c-0.436,3.021-0.473,6.618,1.921,8.511c1.124,0.889,2.589,1.209,4.009,1.399
			c3.855,0.515,7.766,0.258,11.646,0c1.953-0.13,4.057-0.319,5.535-1.602c0.84-0.729,1.379-1.735,1.9-2.717
			c1.074-2.025,2.148-4.05,3.222-6.076c0.476-0.898,0.955-1.802,1.247-2.775c0.175-0.584,0.281-1.212,0.125-1.801
			c-0.436-1.644-2.505-2.12-4.201-2.254c-3.389-0.269-6.79-0.38-10.189-0.333c-1.342,0.018-2.709,0.058-3.997-0.318
			c-1.8-0.526-3.159-1.789-4.313-3.214c-0.736-0.908-2.048-3.308-3.539-2.309c-1.191,0.798-1.628,4.879-1.958,6.228
			C255.942,56.107,255.471,58.531,255.119,60.973z"/>
		<path fill="#605C0F" d="M246.181,98.776c-0.127,0.774-0.234,1.599,0.08,2.318c0.89,2.038,4.179,1.633,5.55,3.385
			c1.284,1.64,0.306,4.442,1.86,5.83c0.517,0.462,1.215,0.652,1.885,0.828c1.51,0.397,3.02,0.793,4.529,1.19
			c0.699,0.184,1.423,0.369,2.136,0.252c1.789-0.293,2.761-2.385,2.627-4.193c-0.134-1.807-1.029-3.456-1.59-5.18
			c-1.453-4.47-0.59-9.471,1.578-13.643c0.779-1.5,1.724-2.925,2.282-4.521c0.557-1.596,0.681-3.448-0.164-4.911
			c-0.848-1.468-2.491-2.272-4.091-2.833c-2.439-0.855-5.005-0.996-7.5-0.244c-2.181,0.656-2.794,2.337-3.738,4.327
			C249.009,86.887,247.168,92.76,246.181,98.776z"/>
		<path fill="#605C0F" d="M237.935,22.746c-1.366,0.563-2.588,2.117-1.93,3.441c0.26,0.523,0.757,0.881,1.229,1.225
			c5.008,3.651,9.356,8.204,12.771,13.376c0.457,0.692,1.02,1.471,1.848,1.523c0.719,0.045,1.361-0.519,1.653-1.177
			c0.293-0.658,0.316-1.399,0.364-2.118c0.158-2.37,0.632-4.718,1.405-6.964c0.445-1.293,0.996-2.664,0.64-3.985
			c-0.209-0.777-0.715-1.439-1.261-2.029C250.498,21.541,243.519,20.444,237.935,22.746z"/>
		<path opacity="0.47" fill="#1C1C1C" d="M281.304,81.578c-0.84-2.701-0.076-5.633-0.406-8.442
			c-0.78-6.644-7.952-11.26-14.626-10.799c-1.434,0.099-2.901,0.379-4.288,0.002c-1.313-0.357-2.398-1.264-3.414-2.17
			c-11.574-10.314-20.559-23.877-34.042-31.448c-3.125-1.493-6.208-3.155-9.754-1.969c-0.744,0.249-1.616,0.739-2.566,1.329
			c-2.17,4.951-0.357,10.978,2.627,15.589c3.153,4.872,7.507,8.924,10.305,14.008c4.067,7.388,4.458,16.379,2.626,24.611
			c-1.093,4.911-2.785,10.575,0.292,14.556c1.363,1.764,3.451,2.818,4.989,4.432c1.211,1.27,2.045,2.848,3.14,4.219
			c3.477,4.354,9.144,6.191,14.475,7.808c2.726,0.827,5.597,1.662,8.382,1.063c3.895-0.838,6.649-4.23,10.095-6.229
			c2.361-1.37,5.119-2.122,7.126-3.972c3.086-2.844,3.647-7.552,6.26-10.837c0.593-0.745,1.297-1.426,1.68-2.298
			C285.576,87.911,282.316,84.833,281.304,81.578z"/>
		<g>
			<g>
				<path fill="#525E4A" d="M139.528,115.846c2.037,0.907,2.719,3.405,4.102,5.154c3.124,3.952,9.081,3.517,13.993,4.637
					c1.038,0.237,2.126,0.604,2.767,1.453c0.485,0.641,0.646,1.469,1.054,2.161c1.76,2.985,6.423,1.843,9.632,2.372
					c0.728,0.12,1.335,0.704,1.411,1.437c0.096,0.924-0.656,1.138-1.091,1.633c-1.239,1.411,0.76,3.377,2.514,4.048
					c6.08,2.326,12.842,2.837,19.202,1.451c1.895-0.413,3.871-0.989,5.733-0.446c1.329,0.388,2.427,1.304,3.624,2
					c6.282,3.656,14.237,0.957,21.456,1.806c4.851,0.571,10.393,2.607,14.166-0.494c0.581-0.478,1.074-1.054,1.641-1.548
					c3.447-2.999,8.606-2.337,13.166-2.043c5.503,0.355,11.058-0.094,16.433-1.331c1.019-0.234,1.847-1.077,1.934-2.119
					c0.106-1.266-0.894-1.805-1.816-2.195c-5.522-2.334-11.636-2.753-17.619-3.141l-3.66-0.238
					c-0.946-0.061-1.061-1.416-0.137-1.631c0.719-0.167,1.548-0.172,2.262-0.108c4.841,0.428,9.737,0.236,14.529-0.571
					c1.463-0.246,2.684-1.393,2.878-2.864c0.286-2.156-1.796-3.179-3.624-3.513c-1.547-0.283-3.254-0.367-4.433-1.409
					c-0.558-0.493-0.943-1.164-1.532-1.619c-0.743-0.575-1.716-0.739-2.647-0.869c-12.029-1.681-24.271-0.791-36.377-1.778
					c-10.724-0.874-21.266-3.212-31.85-5.147c-9.667-1.767-19.393-3.2-29.138-4.464c-4.897-0.635-9.8-1.228-14.705-1.799
					c-1.503-0.175-3.851-0.949-5.101,0.253c-0.934,0.897-1.087,2.609-1.663,3.73c-0.8,1.554-3.321,3.704-1.851,5.56
					C135.84,115.554,138.093,115.207,139.528,115.846z"/>
				<g>
					<path fill="#D1BBAC" d="M137.344,109.971c-0.684,0.455-1.32,1.14-1.323,1.961c-0.001,0.293,0.08,0.583,0.208,0.846
						c0.384,0.795,1.168,1.339,2.002,1.628c0.835,0.288,1.727,0.352,2.608,0.414c1.562,0.109,3.123,0.219,4.685,0.328
						c4.779,0.334,9.654,0.661,14.299-0.513c0.515-0.13,1.044-0.289,1.437-0.645c0.86-0.78,0.716-2.251-0.002-3.163
						c-0.718-0.912-1.837-1.397-2.917-1.824c-3.045-1.203-6.232-2.24-9.506-2.219c-1.768,0.011-3.582,0.327-5.275-0.183
						c-0.396-0.119-0.829-0.281-1.206-0.111c-0.341,0.154-0.514,0.526-0.725,0.834c-0.482,0.706-1.214,0.997-1.963,1.331
						C138.862,109.015,138.079,109.482,137.344,109.971z"/>
					<path fill="#D1BBAC" d="M145.409,117.119c-0.3,0.008-0.615,0.024-0.873,0.176c-0.65,0.383-0.576,1.365-0.23,2.035
						c0.617,1.197,1.77,2.022,2.95,2.67c3.373,1.855,7.327,2.634,11.151,2.196c0.737-0.084,1.474-0.212,2.214-0.171
						c0.778,0.043,1.532,0.271,2.303,0.382c2.247,0.322,4.518-0.367,6.787-0.308c1.099,0.028,2.192,0.232,3.29,0.183
						c1.456-0.065,2.873-0.572,4.331-0.569c1.122,0.003,2.309,0.298,3.326-0.177c0.948-0.442,1.523-1.566,1.327-2.593
						c-0.167-0.876-0.826-1.599-1.604-2.036c-0.778-0.436-1.669-0.624-2.55-0.761c-1.791-0.279-3.636-0.382-5.321-1.049
						c-0.752-0.298-1.459-0.703-2.225-0.961c-1.231-0.415-2.561-0.431-3.856-0.332c-2.833,0.215-5.596,0.953-8.388,1.481
						c-2.222,0.42-4.501,0.71-6.763,0.488c-0.847-0.083-1.51-0.47-2.315-0.608C147.832,116.972,146.552,117.087,145.409,117.119z"/>
					<path fill="#D1BBAC" d="M184.251,119.793c0.155,0.421,0.31,0.841,0.464,1.262c0.081,0.219,0.163,0.452,0.119,0.681
						c-0.051,0.271-0.263,0.477-0.434,0.694c-0.382,0.487-0.584,1.111-0.561,1.729c0.011,0.282,0.071,0.572,0.242,0.796
						c0.275,0.361,0.763,0.473,1.213,0.537c1.607,0.23,3.238,0.176,4.861,0.162c4.494-0.036,9.042,0.242,13.438-0.692
						c0.985-0.21,2.013-0.512,2.695-1.253c0.756-0.821,0.931-2.093,0.527-3.134c-0.404-1.041-1.33-1.837-2.388-2.193
						c-1.017-0.343-2.116-0.306-3.188-0.279c-1.276,0.031-2.552,0.043-3.828,0.054c-2.511,0.022-5.051,0.04-7.493-0.545
						c-1.355-0.325-2.885-0.881-4.297-0.833C183.875,116.839,183.779,118.509,184.251,119.793z"/>
					<path fill="#D1BBAC" d="M209.741,121.773c-0.059,0.416-0.326,0.769-0.499,1.153c-0.474,1.057-0.145,2.415,0.759,3.138
						c0.618,0.494,1.425,0.685,2.213,0.766c3.349,0.347,6.632-1.023,9.992-1.233c3.074-0.193,6.218,0.584,9.208-0.152
						c0.338-0.083,0.681-0.19,0.952-0.41c0.594-0.483,0.671-1.404,0.364-2.106c-0.358-0.818-1.133-1.395-1.968-1.711
						c-0.835-0.316-1.736-0.406-2.625-0.492c-4.37-0.425-8.741-0.849-13.111-1.274c-1.269-0.123-2.537-0.246-3.806-0.37
						c-0.631-0.061-1.918-0.129-2.076,0.744C209.023,120.49,209.846,121.033,209.741,121.773z"/>
					<path fill="#D1BBAC" d="M198.659,126.528c-1.222,0.037-2.444,0.185-3.665,0.121c-0.729-0.038-1.453-0.151-2.182-0.155
						c-1.562-0.01-3.124,0.491-4.388,1.409c-0.111,0.081-0.227,0.175-0.257,0.309c-0.026,0.116,0.019,0.236,0.071,0.343
						c0.413,0.86,1.248,1.434,2.09,1.881s1.743,0.816,2.462,1.443c0.434,0.378,0.791,0.842,1.256,1.181
						c0.482,0.351,1.056,0.551,1.632,0.707c1.16,0.316,2.362,0.475,3.565,0.473c1.603-0.003,3.19-0.292,4.784-0.459
						c2.15-0.226,4.317-0.23,6.477-0.334c0.498-0.024,1.01-0.057,1.462-0.268c0.452-0.211,0.836-0.643,0.841-1.142
						c0.004-0.352-0.175-0.679-0.369-0.973c-2.217-3.368-6.036-3.599-9.629-4.233C201.44,126.588,200.048,126.486,198.659,126.528z"
						/>
					<path fill="#D1BBAC" d="M175.138,125.166c-2.758-0.071-5.513,0.166-8.261,0.402c-0.902,0.077-1.803,0.155-2.705,0.232
						c-0.58,0.05-1.232,0.138-1.579,0.605c-0.382,0.513-0.196,1.283,0.243,1.749c0.438,0.466,1.062,0.701,1.662,0.921
						c0.902,0.331,1.804,0.661,2.706,0.992c0.948,0.347,1.907,0.698,2.91,0.808c0.926,0.102,1.869-0.002,2.787,0.155
						c0.753,0.129,1.467,0.43,2.217,0.573c2.585,0.492,5.155-0.936,7.786-0.969c0.551-0.007,1.275-0.074,1.395-0.612
						c0.082-0.37-0.208-0.711-0.485-0.971C181.455,126.839,178.395,125.249,175.138,125.166z"/>
					<path fill="#D1BBAC" d="M182.627,132.848c-0.337,0.16-0.662,0.35-1.016,0.469c-0.307,0.103-0.629,0.152-0.951,0.184
						c-2.333,0.231-4.831-0.379-6.948,0.629c-0.396,0.189-0.783,0.449-0.98,0.84c-0.197,0.392-0.138,0.937,0.226,1.181
						c0.151,0.101,0.334,0.141,0.497,0.219c0.32,0.154,0.549,0.444,0.82,0.673c0.491,0.414,1.118,0.625,1.736,0.799
						c2.064,0.58,4.2,0.845,6.327,1.108c0.732,0.091,1.463,0.181,2.195,0.272c0.924,0.114,1.849,0.229,2.779,0.259
						c0.776,0.026,1.553-0.007,2.326-0.069c1.367-0.109,2.728-0.308,4.069-0.595c0.214-0.046,0.434-0.096,0.617-0.217
						c0.51-0.335,0.557-1.079,0.377-1.662c-0.486-1.574-2.076-2.507-3.58-3.179C188.38,132.535,185.552,131.456,182.627,132.848z"/>
					<path fill="#D1BBAC" d="M202.816,137.451c-0.537,0.45-1.016,1.235-0.61,1.806c0.124,0.175,0.313,0.292,0.506,0.384
						c0.639,0.302,1.369,0.369,2.008,0.671c0.632,0.299,1.139,0.81,1.752,1.146c0.572,0.313,1.218,0.462,1.864,0.551
						c3.514,0.483,7.055-0.752,10.599-0.591c2.302,0.104,4.533,0.794,6.808,1.16c2.368,0.381,4.792,0.411,7.169,0.087
						c1.05-0.143,2.278-0.515,2.579-1.531c0.276-0.933-0.421-1.885-1.222-2.437s-1.754-0.902-2.424-1.607
						c-0.381-0.401-0.65-0.898-1.031-1.3c-0.688-0.723-1.678-1.072-2.649-1.302c-2.212-0.525-4.507-0.563-6.78-0.599
						c-1.072-0.017-2.144-0.034-3.216-0.049c-1.173-0.016-2.475,0.017-3.325,0.825c-0.274,0.261-0.482,0.588-0.777,0.824
						c-0.329,0.263-0.744,0.395-1.155,0.486C209.585,136.716,205.665,135.066,202.816,137.451z"/>
					<path fill="#D1BBAC" d="M227.323,127.32c-0.251,0.013-0.509,0.022-0.747-0.06c-0.174-0.059-0.329-0.164-0.494-0.245
						c-0.525-0.256-1.132-0.262-1.716-0.262c-1.013,0-2.033,0-3.03,0.179c-1.678,0.3-3.263,1.098-4.966,1.175
						c-0.826,0.037-1.817-0.025-2.294,0.65c-0.419,0.595-0.137,1.475,0.424,1.938c0.561,0.464,1.312,0.611,2.032,0.718
						c3.559,0.529,7.206,0.461,10.743-0.202c0.851-0.16,1.706-0.354,2.571-0.324c0.522,0.018,1.038,0.118,1.55,0.219
						c2.621,0.518,5.257,1.087,7.928,1.068c1.448-0.01,2.957-0.217,4.154-1.032c0.45-0.306,0.872-0.75,0.892-1.294
						c0.016-0.441-0.241-0.851-0.561-1.154c-1.043-0.987-2.636-1.042-4.071-0.994c-1.435,0.049-2.998,0.107-4.158-0.74
						c-0.25-0.183-0.477-0.405-0.763-0.524c-0.61-0.252-1.236,0.034-1.837,0.158c-0.53,0.11-1.065,0.123-1.598,0.223
						C230.04,127.07,228.689,127.25,227.323,127.32z"/>
					<path fill="#D1BBAC" d="M232.67,133.984c-0.083,0.768,0.652,1.391,1.388,1.626c0.736,0.235,1.542,0.242,2.24,0.573
						c0.848,0.402,1.419,1.223,2.207,1.732c1.428,0.924,3.285,0.685,4.963,0.411c2.445-0.398,4.909-0.798,7.384-0.701
						c2.277,0.089,4.518,0.597,6.789,0.788c2.271,0.192,4.664,0.038,6.643-1.092c0.48-0.274,0.988-0.758,0.828-1.287
						c-0.066-0.217-0.235-0.385-0.398-0.544c-0.687-0.665-1.386-1.34-2.234-1.783c-1.024-0.535-2.196-0.697-3.344-0.835
						c-3.897-0.468-7.815-0.754-11.739-0.858c-0.733-0.019-1.468-0.032-2.198,0.032c-1.06,0.094-2.097,0.348-3.144,0.535
						c-1.913,0.342-3.902,0.487-5.842,0.339C235.108,132.838,232.864,132.189,232.67,133.984z"/>
					<path fill="#D1BBAC" d="M234.36,122.767c0.411,0.473,1.004,0.848,1.147,1.458c0.05,0.212,0.039,0.435,0.085,0.648
						c0.13,0.593,0.695,1.011,1.285,1.157c0.59,0.146,1.208,0.073,1.813,0.015c2.006-0.195,4.027-0.229,6.038-0.103
						c2.442,0.154,4.868,0.544,7.315,0.575c2.352,0.03,4.702-0.271,7.052-0.174c1.3,0.054,2.597,0.229,3.897,0.189
						c0.41-0.013,0.838-0.053,1.183-0.274c0.636-0.407,0.771-1.348,0.429-2.021c-0.343-0.673-1.048-1.097-1.775-1.302
						c-0.727-0.205-1.491-0.225-2.242-0.298c-0.833-0.081-1.674-0.234-2.416-0.621c-0.565-0.294-1.055-0.714-1.607-1.031
						c-0.924-0.532-1.996-0.761-3.061-0.832c-1.694-0.113-3.387,0.155-5.078,0.303c-2.937,0.258-5.889,0.157-8.833,0.271
						c-1.446,0.056-2.866,0.219-4.302,0.38C234.303,121.219,233.393,121.654,234.36,122.767z"/>
				</g>
			</g>
			<g>
				<path fill="#514E4D" d="M138.636,89.958c-0.393,0.483-0.781,1.003-0.905,1.613c-0.119,0.582,0.015,1.182,0.147,1.761
					c0.163,0.711,0.326,1.422,0.489,2.133c0.081,0.353,0.16,0.733,0.024,1.069c-0.124,0.304-0.402,0.514-0.667,0.708
					c-1.186,0.866-2.373,1.732-3.559,2.598c-0.271,0.197-0.555,0.413-0.67,0.728c-0.105,0.288-0.048,0.606,0.01,0.907
					c0.252,1.306,0.505,2.612,0.757,3.918c0.045,0.234,0.1,0.485,0.276,0.645c0.151,0.137,0.363,0.181,0.564,0.218
					c1.81,0.341,3.608,0.753,5.417,1.094l29.383,6.959c0.037,0.037,0.074,0.074,0.11,0.11l52.473,4.078
					c1.028,0.08,2.059,0.121,3.09,0.117c10.07-0.032,20.137-0.348,30.2,0.011c0.473,0.017,0.77-0.505,0.514-0.902
					c-1.46-2.265-3.865-3.868-6.416-4.804c-2.892-1.062-5.997-1.369-9.063-1.668c1.089-1.718,0.43-4.081-0.901-5.619
					c-1.331-1.538-3.195-2.486-4.91-3.579c-2.108-1.344-4.046-2.953-5.754-4.779c-0.367-0.392-0.733-0.802-1.207-1.054
					c-0.486-0.258-1.047-0.33-1.593-0.396c-17.814-2.169-35.705-3.657-53.503-5.969c-6.699-0.87-13.383-1.857-20.034-3.04
					c-2.638-0.469-6.183-1.881-8.856-1.438C141.878,85.737,139.927,88.372,138.636,89.958z"/>
				<g>
					<path fill="#D1BBAC" d="M142.177,87.577l-1.767,1.767c-0.507,0.324-0.773,0.997-0.709,1.595
						c0.065,0.598,0.476,1.179,1.04,1.387l17.674,6.407c0.277,0.275,0.822,0.141,1.112-0.121c0.29-0.262,0.422-0.652,0.526-1.028
						c0.541-1.96,0.607-4.05,0.19-6.041c-1.248-0.395-2.495-0.789-3.743-1.184c-0.445-0.141-0.953-0.276-1.358-0.043
						c-0.361,0.207-0.516,0.638-0.643,1.034c-0.343,1.064-0.686,2.128-1.029,3.192c-0.06-1.161-0.121-2.322-0.181-3.484
						c-0.021-0.407-0.139-0.927-0.543-0.982c-0.3,0.522-0.544,1.076-0.726,1.649c0.232-1.002-0.435-2.038-1.319-2.564
						c-0.884-0.526-1.939-0.658-2.961-0.777c-0.973-0.114-1.945-0.228-2.918-0.342C143.979,87.941,142.711,88.236,142.177,87.577z"
						/>
					<path fill="#D1BBAC" d="M162.717,98.79c0.022,0.29,0.046,0.585,0.155,0.854c0.155,0.382,0.468,0.676,0.793,0.931
						c1.816,1.427,4.155,1.964,6.41,2.463c8.033,1.775,16.148,3.56,24.374,3.509c0.477-0.003,1.041-0.061,1.278-0.475
						c0.262-0.458-0.056-1.02-0.374-1.44c-1.668-2.199-3.651-4.136-5.625-6.064c-1.123-1.096-2.292-2.223-3.766-2.761
						c-0.688-0.251-1.419-0.364-2.146-0.458c-2.198-0.283-4.418-0.405-6.634-0.365c-0.243,0.462-0.414,0.961-0.504,1.475
						c0.382-1.361-0.778-2.756-2.12-3.198c-1.342-0.442-2.799-0.209-4.205-0.065s-2.93,0.165-4.108-0.616
						c-0.276,1.015-0.553,2.031-0.829,3.046c0.015-0.752,0.026-1.523-0.221-2.234c-0.247-0.71-0.812-1.36-1.553-1.489
						C161.118,91.464,162.612,97.427,162.717,98.79z"/>
					<path fill="#D1BBAC" d="M200.448,105.678c1.799,0.658,3.768,0.595,5.684,0.587c4.277-0.017,8.556,0.285,12.788,0.903
						c1.875,0.274,3.78,0.61,5.654,0.325c0.176-0.027,0.369-0.069,0.477-0.211c0.239-0.314-0.127-0.726-0.457-0.943
						c-2.846-1.876-5.877-3.476-9.049-4.723c-1.126-0.443-2.273-0.843-3.35-1.395c-1.964-1.007-3.668-2.507-5.724-3.312
						c-4.133-1.618-9.104-0.699-13.44-1.513c-4.165-0.782,1.073,5.137,1.959,6.058C196.58,103.106,198.241,104.871,200.448,105.678z
						"/>
					<path fill="#D1BBAC" d="M226.411,105.583c1.259,0.669,2.523,1.341,3.862,1.831c2.533,0.928,5.31,1.183,7.97,0.731
						c0.673-0.114,1.499-0.467,1.471-1.149c-0.012-0.307-0.21-0.573-0.414-0.803c-1.191-1.339-2.847-2.154-4.46-2.936
						c-2.007-0.974-4.013-1.947-6.02-2.921c-1.974-0.958-3.98-1.926-6.142-2.301c-1.15-0.199-2.323-0.226-3.49-0.252
						c-1.098-0.025-4.484-0.683-5.34-0.054c-1.447,1.061,1.71,2.086,2.455,2.482C219.673,102.001,223.042,103.792,226.411,105.583z"
						/>
					<path fill="#D1BBAC" d="M134.887,100.943c0.002,0.001,34.574,9.61,34.574,9.61c1.912,0,3.714-1.291,4.605-2.984
						c0.113-0.214,0.205-0.49,0.034-0.662l-30.819-8.616c-0.587-0.242-1.192-0.409-1.826-0.434c-1.02-0.041-2.032,0.813-2.934,1.218
						C137.927,99.341,135.392,101.083,134.887,100.943z"/>
					<path fill="#D1BBAC" d="M173.659,111.657l15.796,1.105c1.119,1.113,2.861,1.581,4.418,1.326l28.941,2.43
						c1.737,0,3.203-1.45,4.882-1.897c1.137-0.302,2.337-0.191,3.507-0.078c5.385,0.519,10.769,1.038,16.154,1.557
						c0.928,0.089,2.199-0.084,2.286-1.012c0.072-0.774-0.802-1.254-1.533-1.521c-2.016-0.736-4.059-1.479-6.195-1.679
						c-1.496-0.14-3.127-0.608-4.626-0.509c-2.261,0.149-4.805-0.138-7.069-0.059c-2.802,0.097-5.411-0.865-8.213-0.768
						c-3.904,0.135-8.331-0.152-12.227-0.442c-7.333-0.545-13.708-0.132-20.858-1.718c-3.241-0.719-7.13-1.969-10.472-1.719
						C177.003,106.781,172.689,110.137,173.659,111.657z"/>
				</g>
			</g>
			<g>
				<path fill="#6B4343" d="M203.254,0c-0.037,0.003-0.067,0.017-0.096,0.033c0.002,0.009-0.006,0.017-0.003,0.026
					C203.195,0.155,203.357-0.009,203.254,0z"/>
				<path fill="#6B4343" d="M245.763,56.381c-6.767-8.517-13.176-17.318-19.206-26.373c-3.008-4.517-5.928-9.106-9.318-13.344
					c-1.755-2.193-3.631-4.286-5.506-6.377c-2.643-2.948-6.287-5.443-8.93-8.391c-0.05,0.036-0.1,0.072-0.15,0.107
					c-0.075,0.162-0.162,0.318-0.276,0.451l-19.506,29.039c2.678,3.479,5.503,5.054,8.657,8.109
					c1.853,1.795,5.484,5.563,7.452,7.232c4.146,3.517,6.605,6.832,10.542,10.581c1.746,1.662,3.48,3.339,5.104,5.12
					c7.208,7.909,11.928,17.872,19.201,25.721l10.612-27.895C244.279,58.73,244.391,57.054,245.763,56.381z"/>
				<path fill="#4C3534" d="M245.763,56.381c-6.767-8.517-13.176-17.318-19.206-26.373c-3.008-4.517-5.928-9.106-9.318-13.344
					c-1.755-2.193-3.631-4.286-5.506-6.377c-2.643-2.948-6.287-5.443-8.93-8.391c-0.05,0.036-0.1,0.072-0.15,0.107
					c-0.075,0.162-0.162,0.318-0.276,0.451l-19.506,29.039c2.678,3.479,5.503,5.054,8.657,8.109
					c1.853,1.795,5.484,5.563,7.452,7.232c4.146,3.517,6.605,6.832,10.542,10.581c1.746,1.662,3.48,3.339,5.104,5.12
					c7.208,7.909,11.928,17.872,19.201,25.721l10.612-27.895C244.279,58.73,244.391,57.054,245.763,56.381z"/>
			</g>
			<g>
				<path fill="#5B3024" d="M222.006,83.677c-1.44-1.223-2.822-2.528-4.186-3.829c-7.165-6.834-14.332-13.671-21.199-20.804
					c-2.631-2.733-5.324-5.585-8.819-7.061c-0.904-0.382-1.89-0.668-2.86-0.518c-1.068,0.165-1.981,0.832-2.838,1.491
					c-9.116,7.019-17.113,15.489-23.597,24.993c-2.001,2.933-3.929,6.219-3.738,9.765c0.025,0.459,0.095,0.909,0.193,1.352
					c23.983,4.195,48.257,6.728,72.59,7.559c0.018-0.265,0.046-0.53,0.045-0.797c-0.015-3.082-1.431-5.984-3.086-8.585
					C223.731,86.016,222.887,84.832,222.006,83.677z"/>
				<path fill="#5B3024" d="M158.508,77.949c6.484-9.504,14.481-17.974,23.597-24.993c0.856-0.659,1.77-1.326,2.838-1.491
					c0.97-0.15,1.955,0.136,2.86,0.518c3.495,1.476,6.188,4.328,8.819,7.061c6.867,7.134,14.034,13.97,21.199,20.804
					c1.364,1.301,2.745,2.606,4.186,3.829c-2.331-3.058-4.951-5.903-7.564-8.732c-6.124-6.629-12.247-13.259-18.371-19.888
					c-4.186-4.532-8.517-9.172-14.094-11.811c-0.417-0.197-0.862-0.387-1.323-0.353c-0.564,0.042-1.044,0.408-1.484,0.764
					c-9.964,8.063-18.347,16.715-26.221,26.828c-2.161,2.775-3.959,7.213-4.838,10.619c-0.559,2.168-0.812,4.827-2.278,6.285
					c3.038,0.587,6.082,1.143,9.13,1.676c-0.098-0.443-0.168-0.893-0.193-1.352C154.579,84.168,156.507,80.882,158.508,77.949z"/>
			</g>
			<g>
				<path fill="#5B3024" d="M167.969,71.359c0-6.106,3.439-11.439,8.574-14.408c-6.989,2.298-12.013,8.561-12.013,15.948
					c0,9.333,8.007,16.898,17.883,16.898c3.415,0,6.595-0.921,9.309-2.49c-1.841,0.605-3.811,0.951-5.87,0.951
					C175.975,88.258,167.969,80.692,167.969,71.359z"/>
				<path fill="#5B3024" d="M200.297,72.899c0-9.333-8.007-16.898-17.883-16.898c-2.059,0-4.029,0.345-5.87,0.951
					c-5.135,2.969-8.574,8.303-8.574,14.408c0,9.333,8.007,16.898,17.883,16.898c2.059,0,4.029-0.345,5.87-0.951
					C196.858,84.337,200.297,79.004,200.297,72.899z"/>
				<path fill="#5B3024" d="M200.297,72.899c0-9.333-8.007-16.898-17.883-16.898c-2.059,0-4.029,0.345-5.87,0.951
					c-5.135,2.969-8.574,8.303-8.574,14.408c0,9.333,8.007,16.898,17.883,16.898c2.059,0,4.029-0.345,5.87-0.951
					C196.858,84.337,200.297,79.004,200.297,72.899z"/>
			</g>
			<path fill="#B16410" d="M175.332,59.504c-0.953,0.523-1.823,1.321-2.033,2.387l20.187,0.379l-20.567,0.607
				c-1.193,0.817-2.081,2.061-2.351,3.481c-0.088,0.462-0.044,1.017,0.378,1.224l26.031,0.152c0.439-0.497,0.514-1.278,0.351-1.921
				c-0.163-0.643-0.545-1.207-0.962-1.723c-1.953-2.412-4.789-4.008-7.778-4.843c-2.312-0.645-4.721-0.86-7.115-0.847
				C179.36,58.413,177.231,58.463,175.332,59.504z"/>
			<path fill="#B16410" d="M170.041,68.5c-0.427,0.372-0.623,0.941-0.745,1.494c-0.148,0.676-0.21,1.39-0.012,2.053
				c0.198,0.663,0.69,1.276,1.358,1.455l27.549,0.607l-27.852,0.152c-0.295-0.099-0.645,0.202-0.753,0.494s-0.057,0.616,0.008,0.921
				c0.06,0.275,0.13,0.548,0.216,0.816c0.404,1.262,1.2,2.362,2.199,3.233l21.781,0.228l-21.174,0.759
				c-0.214,0.424,0.022,0.923,0.298,1.309c1.001,1.397,2.472,2.4,4.103,2.941l14.571,0.304l-13.964,0.455
				c3.2,1.292,6.608,1.93,10.016,1.52c0.789-0.095,1.575-0.237,2.339-0.456c4.696-1.348,8.277-5.897,8.516-10.777l-26.334-0.683
				l26.79-0.152c0.354-0.44,0.48-0.998,0.557-1.557c0.062-0.457,0.125-0.921,0.059-1.378c-0.044-0.31-0.147-0.609-0.249-0.906
				c-0.169-0.492-0.343-0.993-0.654-1.41c-0.311-0.417-0.786-0.745-1.307-0.745L170.041,68.5z"/>
			<ellipse fill="#3F1E16" cx="191.903" cy="74.76" rx="2.234" ry="2.631"/>
			<g>
				<path fill="#252525" d="M237.465,93.219c2.187-5.3,3.715-10.844,5.237-16.372c1.353-4.912,2.717-10.005,1.93-15.039
					c-0.072-0.458-0.145-0.95-0.193-1.446l-10.612,27.895c-0.169-0.182-0.33-0.372-0.497-0.556
					c-0.062,0.872-0.096,1.747-0.086,2.626c0.024,2.009,0.251,4.023,0.056,6.022c-0.087,0.891-0.275,1.787-0.581,2.631
					c0.277-0.091,0.545-0.207,0.795-0.347C235.504,97.522,236.596,95.325,237.465,93.219z"/>
				<path fill="#364751" d="M237.465,93.219c2.187-5.3,3.715-10.844,5.237-16.372c1.353-4.912,2.717-10.005,1.93-15.039
					c-0.072-0.458-0.145-0.95-0.193-1.446l-10.612,27.895c-0.169-0.182-0.33-0.372-0.497-0.556
					c-0.062,0.872-0.096,1.747-0.086,2.626c0.024,2.009,0.251,4.023,0.056,6.022c-0.087,0.891-0.275,1.787-0.581,2.631
					c0.277-0.091,0.545-0.207,0.795-0.347C235.504,97.522,236.596,95.325,237.465,93.219z"/>
			</g>
			<g>
				<path fill="#B09989" d="M233.244,90.327c-0.011-0.878,0.024-1.753,0.086-2.626c-6.991-7.76-11.664-17.439-18.704-25.165
					c-1.624-1.782-3.358-3.458-5.104-5.12c-3.937-3.749-6.396-7.064-10.542-10.581c-1.967-1.669-5.599-5.437-7.452-7.232
					c-3.153-3.055-5.979-4.63-8.657-8.109l0.422-0.629c-2.429,1.295-4.84,2.621-7.168,4.086c-5.796,3.648-11.038,8.1-16.198,12.602
					c-6.211,5.42-12.509,11.19-15.989,18.621c0.063,2.448-1.132,4.897-1.899,7.298c-1.114,3.484-1.328,7.252-0.618,10.84
					c0.159,0.801,0.401,1.656,1.047,2.156c0.453,0.35,1.037,0.472,1.598,0.582c0.588,0.116,1.178,0.225,1.766,0.338
					c1.465-1.458,1.718-4.117,2.278-6.285c0.879-3.406,2.677-7.844,4.838-10.619c7.875-10.114,16.257-18.765,26.221-26.829
					c0.44-0.356,0.92-0.722,1.484-0.764c0.461-0.034,0.906,0.155,1.323,0.353c5.577,2.639,9.908,7.279,14.094,11.811
					c6.124,6.629,12.247,13.259,18.371,19.888c3.6,3.897,7.221,7.822,10.069,12.298c1.655,2.6,3.071,5.502,3.086,8.585
					c0.001,0.267-0.027,0.531-0.045,0.797c0.02,0.001,0.039,0.002,0.059,0.002c0.071,0.002,0.04,0.033-0.035,0.079
					c0.024,0.068,0.039,0.139,0.067,0.206c0.131,0.293,0.272,0.579,0.393,0.877c0.004,0.016,0.003,0.032,0.006,0.047
					c0.886,1.344,3.016,1.692,4.676,1.144c0.305-0.844,0.494-1.741,0.581-2.631C233.495,94.349,233.269,92.336,233.244,90.327z"/>
				<path fill="#8B8B8B" d="M159.928,47.554c5.16-4.503,10.402-8.955,16.198-12.602c2.328-1.465,4.739-2.792,7.168-4.086
					l19.083-28.41c0.115-0.133,0.202-0.289,0.276-0.451c-4.89,3.502-9.781,7.004-14.671,10.506
					c-2.468,1.767-5.184,3.613-8.217,3.497c-5.19-0.199-10.386,2.64-13.022,7.115c-2.144,3.639-6.059,6.178-10.256,6.652
					c-4.999,0.565-9.033,5.628-8.466,10.626c-1.981-0.223-3.914,0.942-5.146,2.51c-1.232,1.568-1.895,3.496-2.536,5.384
					c-0.982,2.891-1.966,6.052-0.94,8.927c0.982,2.753,3.653,4.714,4.358,7.549c0.116,0.468,0.17,0.936,0.182,1.404
					C147.419,58.745,153.717,52.974,159.928,47.554z"/>
				<path fill="#B0AD32" d="M159.928,47.554c5.16-4.503,10.402-8.955,16.198-12.602c2.328-1.465,4.739-2.792,7.168-4.086
					l19.083-28.41c0.115-0.133,0.202-0.289,0.276-0.451c-4.89,3.502-9.781,7.004-14.671,10.506
					c-2.468,1.767-5.184,3.613-8.217,3.497c-5.19-0.199-10.386,2.64-13.022,7.115c-2.144,3.639-6.059,6.178-10.256,6.652
					c-4.999,0.565-9.033,5.628-8.466,10.626c-1.981-0.223-3.914,0.942-5.146,2.51c-1.232,1.568-1.895,3.496-2.536,5.384
					c-0.982,2.891-1.966,6.052-0.94,8.927c0.982,2.753,3.653,4.714,4.358,7.549c0.116,0.468,0.17,0.936,0.182,1.404
					C147.419,58.745,153.717,52.974,159.928,47.554z"/>
			</g>
			<path fill="#514C0C" d="M185.353,19.56c-0.882,0.652-1.789,1.316-2.843,1.617c-1.03,0.294-2.126,0.22-3.184,0.382
				c-3.092,0.472-5.603,2.982-6.758,5.889c-0.401,1.011-0.637,2.245,0.01,3.119c-2.543-0.878-5.451-0.635-7.814,0.652
				c-2.362,1.287-4.143,3.599-4.785,6.212c-2.798-1.342-6.328-0.58-8.673,1.453c-2.344,2.033-3.579,5.14-3.81,8.234
				c-2.802-0.007-5.076,2.657-5.446,5.435c-0.37,2.777,0.744,5.547,2.181,7.952c0.421,0.705,0.888,1.447,0.867,2.268
				c6.525-8.733,14.24-16.576,22.864-23.244c-2.821,0.185-5.668,0.688-8.191,1.965s-4.704,3.402-5.596,6.085
				c-0.685-0.555-1.68-0.598-2.516-0.316c-0.836,0.283-1.544,0.846-2.21,1.424c0.659-1.435,1.786-2.65,3.166-3.417
				c0.33-0.183,0.679-0.345,0.949-0.608c0.27-0.263,0.442-0.608,0.636-0.931c1.738-2.899,5.232-4.129,8.422-5.246
				c0.581-0.203,1.171-0.415,1.662-0.786c0.514-0.387,0.891-0.926,1.365-1.361c1.264-1.16,3.063-1.47,4.637-2.151
				c1.865-0.807,3.437-2.152,4.978-3.477c2.616-2.251,5.233-4.503,7.782-6.83c2.372-2.166,5.536-4.536,7.267-7.245
				C189.283,15.859,186.208,18.928,185.353,19.56z"/>
			<path fill="#514C0C" d="M182.995,15.145c-0.621,0.244-1.26,0.48-1.927,0.511c-0.793,0.038-1.566-0.214-2.342-0.379
				c-1.72-0.365-3.563-0.293-5.17,0.42c-1.607,0.713-2.945,2.109-3.383,3.812c-2.686-0.777-5.59,0.937-7.086,3.3
				s-1.905,5.231-2.277,8.002c-1.791-0.239-3.632-0.378-5.387,0.046c-1.756,0.424-3.434,1.493-4.206,3.127
				c-0.418,0.884-0.549,1.901-0.371,2.862c-0.697,0.05-1.264,0.78-1.141,1.468c-2.349,0.577-4.294,2.56-4.825,4.92
				c1.132-1.638,2.666-2.996,4.428-3.922c0.367-0.193,0.747-0.37,1.066-0.634c0.409-0.339,0.693-0.802,0.972-1.254
				c0.928-1.5,1.92-3.007,3.313-4.09c1.393-1.083,3.274-1.685,4.955-1.15c0.602,0.192,1.248,0.523,1.829,0.274
				c0.449-0.193,0.691-0.67,0.92-1.101c1.234-2.319,3.128-4.282,5.4-5.6c0.283-0.164,0.576-0.322,0.805-0.555
				c0.191-0.195,0.329-0.433,0.477-0.662c1.24-1.914,3.348-3.241,5.61-3.531c0.466-0.06,0.947-0.081,1.376-0.271
				c0.587-0.26,0.994-0.796,1.438-1.259c1.354-1.413,3.273-2.268,5.229-2.329c0.334-0.01,0.679-0.001,0.99-0.123
				c0.286-0.113,0.517-0.327,0.742-0.536c2.599-2.402,5.396-4.589,8.354-6.532c-0.731,0.48-1.594,0.646-2.324,1.22
				c-0.512,0.402-0.951,0.85-1.504,1.202C187.144,13.536,184.992,14.361,182.995,15.145z"/>
			<path fill="#6B4343" d="M190.999,22.93c-1.537,2.19-2.914,4.491-4.119,6.879c-0.264,0.523-0.527,1.086-0.468,1.67
				c0.07,0.689,0.568,1.247,1.043,1.75c5.574,5.901,11.44,11.528,17.567,16.853c4.53,3.936,9.224,7.728,13.189,12.233
				c5.294,6.015,9.206,13.213,14.992,18.756c0.189,0.181,0.402,0.37,0.663,0.385c0.354,0.02,0.634-0.282,0.845-0.567
				c1.684-2.28,2.458-5.084,3.258-7.803c1.517-5.158,3.24-10.255,5.166-15.275c0.252-0.657,0.508-1.395,0.236-2.044
				c-0.125-0.297-0.348-0.54-0.567-0.776c-0.971-1.045-1.942-2.09-2.913-3.136c1.717,2.912,2.049,6.603,0.879,9.775
				c-0.652,1.767-1.729,3.347-2.466,5.081c-0.769,1.809-1.156,3.759-1.869,5.592c-0.634,1.629-1.518,3.148-2.399,4.658
				c-0.201,0.345-0.47,0.733-0.869,0.743c-0.34,0.009-0.613-0.265-0.841-0.518c-1.585-1.766-3.171-3.532-4.756-5.299
				c-2.941-3.276-5.89-6.563-8.4-10.179c-2.753-3.966-5.019-8.373-8.635-11.573c-3.786-3.351-8.824-5.158-12.253-8.874
				c-2.219-2.405-3.656-5.504-6.142-7.631c-0.789-0.675-1.696-1.269-2.198-2.177c-1.01-1.828-0.008-4.073,0.986-5.91
				c0.369-0.682,0.971-1.475,1.722-1.286c0.277,0.07,0.502,0.268,0.714,0.46c4.894,4.416,9.817,8.8,14.711,13.216l15.833,14.098
				l-29.715-27.871c-0.305-0.22-0.615-0.488-0.833-0.793s-0.333-0.711-0.204-1.063c0.112-0.305,0.381-0.519,0.59-0.767
				c0.453-0.536,0.634-1.242,0.926-1.879c0.401-0.878,1.018-1.637,1.627-2.386c0.453-0.556,0.977-1.163,1.689-1.245l32.318,31.342
				l-32.209-32.426c-0.478-0.532-0.216-1.424,0.207-2c0.423-0.576,1.014-1.041,1.295-1.698c0.153-0.359,0.214-0.776,0.486-1.057
				c0.297-0.307,0.781-0.366,1.193-0.257c0.413,0.109,0.807,0.321,1.157,0.566l8.025,7.049l-9.001-8.567
				c-0.255-0.449-0.913-0.501-1.369-0.258c-0.456,0.243-0.74,0.689-1.017,1.125l-0.325,0.434c-0.673,1.057-1.387,2.088-2.061,3.145
				L190.999,22.93z"/>
			<path fill="#6B4343" d="M214.039,22.207l19.954,20.714c0.323,0,0.582,0.282,0.868,0.434l1.084,0.868l-5.097-5.639
				c-0.108-0.145-0.217-0.289-0.325-0.434l-11.062-11.604L214.039,22.207z"/>
			<path fill="#DED63D" d="M181.642,26.692c-2.093,2.16-4.169,4.366-6.619,6.111c-1.079,0.769-2.222,1.442-3.364,2.114
				c-2.014,1.186-4.028,2.372-6.042,3.558c1.228,0.087,2.396-0.479,3.505-1.012c4.258-2.048,8.674-3.844,12.56-6.531
				c0.504-0.349,1-0.713,1.434-1.147c1.203-1.205,1.835-2.846,2.643-4.344c0.408-0.757,0.867-1.485,1.325-2.212
				c0.581-0.922,1.162-1.844,1.743-2.767c-0.717,0.194-1.361,0.606-1.846,1.166c-0.501,0.578-1.079,1.023-1.673,1.53
				C184.016,24.263,182.823,25.474,181.642,26.692z"/>
			<path fill="#DED63D" d="M193.908,8.957c-0.188,0.154-0.38,0.311-0.512,0.515c-0.086,0.132-0.144,0.28-0.212,0.422
				c-0.663,1.376-2.193,2.059-3.377,3.024c-0.998,0.813-1.774,1.859-2.636,2.815c-0.863,0.956-1.864,1.853-3.096,2.226
				c-0.465,0.14-0.951,0.202-1.418,0.335c-1.245,0.355-2.286,1.192-3.29,2.01c-0.089,0.073-0.188,0.168-0.171,0.281
				c0.027,0.189,0.3,0.188,0.483,0.135c0.542-0.157,1.084-0.314,1.627-0.472c1.219-0.354,2.459-0.716,3.523-1.409
				c1.16-0.755,2.049-1.862,3.159-2.688c0.703-0.524,1.657-0.936,2.432-0.527c0.305,0.161,0.574,0.444,0.918,0.441
				c0.216-0.002,0.412-0.121,0.585-0.251c0.864-0.65,1.395-1.637,1.939-2.572c1.303-2.236,2.832-4.34,4.556-6.27
				c0.263-0.295,2.203-1.989,1.347-2.367c-0.563-0.249-1.86,1.091-2.233,1.395C196.323,6.985,195.116,7.971,193.908,8.957z"/>
			<path fill="#B16410" d="M163.632,74.134c0.054-0.146,0.016-0.323-0.075-0.45c-0.567,0.385-1.088,0.839-1.547,1.348
				c-0.485,0.538-0.9,1.135-1.331,1.718c-0.318,0.429-0.645,0.851-0.981,1.266c-0.059,0.21-0.12,0.42-0.17,0.632
				c-0.112,0.478-0.2,0.962-0.279,1.447l0.228,8.8c0.364,0.58,3.852,1.432,5.882,1.244c0.246-0.023,0.508-0.075,0.659-0.271
				l0.088-7.955L163.632,74.134z"/>
			<path fill="#B16410" d="M167.139,83.287l0.036,7.012c0.129,0.414,0.628,0.56,1.054,0.642c1.54,0.297,3.084,0.577,4.63,0.839
				c0.662,0.112,1.334,0.222,2.003,0.164c0.145-0.013,0.305-0.041,0.395-0.156c0.078-0.1,0.081-0.237,0.081-0.363
				c0-0.911,0.03-1.825,0.03-2.736l-5.652-2.969c-0.885-0.707-1.607-1.617-2.162-2.605c-0.037-0.066-0.075-0.135-0.135-0.182
				s-0.149-0.065-0.212-0.022c-0.076,0.052-0.08,0.163-0.057,0.252C167.173,83.251,167.148,83.195,167.139,83.287z"/>
			<path fill="#B16410" d="M195.981,85.264c1.432-1.271,2.621-2.833,3.356-4.601c0.246,0.058,0.279,0.391,0.257,0.643
				c-0.078,0.899-0.145,1.797-0.223,2.696l0.036,10.339c-0.105,0.197-0.3,0.317-0.522,0.333c-0.222,0.016-0.443-0.041-0.66-0.091
				c-1.89-0.434-3.862-0.387-5.76-0.784c-0.546-0.114-1.123-0.289-1.467-0.728c-0.348-0.444-0.377-1.053-0.374-1.618
				c0.002-0.43,0.013-0.859,0.025-1.289c0.012-0.471-0.157-1.421,0.204-1.789c0.314-0.321,1.08-0.463,1.48-0.666
				C193.643,87.048,194.883,86.24,195.981,85.264z"/>
			<path fill="#B16410" d="M187.973,89.319c-2.193,0.662-4.514,0.736-6.803,0.805c-0.722,0.022-1.447,0.043-2.163-0.052
				c-0.214-0.028-0.424-0.077-0.633-0.128c-0.669-0.087-1.316-0.252-1.934-0.492l-0.035,2.278c0.725,0.577,1.704,0.61,2.63,0.655
				c2.947,0.142,5.844,1.014,8.792,0.911c0.276-0.01,0.555-0.029,0.817-0.115c0.674-0.222,1.172-0.921,1.141-1.629l0.036-2.504
				C189.189,88.954,188.584,89.135,187.973,89.319z"/>
			<path fill="#B16410" d="M200.946,65.793l-0.537,28.226c0.093,0.334,0.393,0.57,0.724,0.67c0.332,0.1,0.683,0.095,1.029,0.081
				l5.259,0.429c0.324,0,0.602-0.212,0.755-0.498c0.375-0.698,0.357-1.537,0.318-2.329l0.394-18.567c0,0.012,0,0.024,0,0.036
				l0.595,20.431c0.009,0.322,0.199,0.615,0.491,0.75c0.412,0.19,0.877,0.282,1.33,0.324c0.64,0.059,1.284,0.013,1.926,0.014
				c1.011,0.002,2.019,0.123,3.016,0.286c0.294,0.048,0.59,0.09,0.885,0.101c0.407,0.016,0.74-0.327,0.744-0.734l0.131-11.793
				c-0.132-0.346-0.25-0.656-0.382-1.002l-8.056-8.841l-7.978-8.014c-0.048-0.036-0.096-0.071-0.143-0.107l-0.322,0.036
				C200.992,65.45,200.922,65.588,200.946,65.793z"/>
			<path fill="#B16410" d="M182.379,55.669c0.027,0,0.048,0.024,0.072,0.036l1.017,0.02c0.366-0.055,0.729-0.102,1.087-0.124
				c1.532-0.093,3.065,0.298,4.506,0.784c1.103,0.372,2.343,0.828,3.418,1.482l-0.197-2.239c-0.016-0.179-0.032-0.361-0.108-0.524
				c-0.071-0.151-0.188-0.275-0.307-0.391c-1.433-1.397-3.39-2.106-5.315-2.653c-0.809-0.23-2.005-0.54-2.705-0.075l-1.503,1.145
				c-0.071,0.316-0.104,0.643-0.072,0.966L182.379,55.669z"/>
			<path fill="#B16410" d="M226.619,93.595c-0.311-1.119-0.877-2.15-1.507-3.125c-1.329-2.06-2.965-3.922-4.837-5.506
				c-0.115-0.097-0.258-0.191-0.4-0.212c0.035,0.568,0.014,1.144-0.007,1.715l0.143,9.25c0.254,0.294,0.699,0.331,1.086,0.356
				c1.432,0.091,2.866,0.153,4.3,0.187c0.31,0.007,0.631,0.011,0.913-0.117C226.778,95.454,226.842,94.396,226.619,93.595z"/>
		</g>
		<path fill="#8A5941" d="M7.185,84.749c1.221,3.472,1.635,7.225,1.199,10.879c-0.257,2.153-0.804,4.326-0.426,6.461
			c0.468,2.649,2.453,4.976,4.996,5.855c1.609,0.556,3.35,0.556,5.053,0.55c2.587-0.009,5.174-0.018,7.762-0.028
			c0.478-0.002,1.009-0.025,1.345-0.364c0.3-0.303,0.351-0.766,0.383-1.192c0.215-2.888,0.34-5.782,0.373-8.677
			c0.08,2.901,0.376,5.797,0.884,8.655c0.061,0.345,0.132,0.704,0.347,0.98c0.297,0.383,0.803,0.527,1.275,0.637
			c6.618,1.545,13.524,0.93,20.292,0.308c0.639-0.059,1.319-0.134,1.818-0.537c0.707-0.572,0.813-1.591,0.851-2.499
			c0.1-2.441,0.091-4.887-0.026-7.328c0.319,2.682,0.637,5.365,0.956,8.047c0.127,1.067,0.268,2.177,0.853,3.079
			c1.689,2.608,6.347,2.52,7.204,5.506c0.894-0.277,1.094-1.431,1.134-2.366c0.127-2.913,0.255-5.826,0.382-8.739
			c0.599,0.641,1.197,1.282,1.796,1.923c-0.568,1.324-0.434,2.831-0.289,4.264c0.271,2.692,0.542,5.383,0.813,8.075
			c0.092,0.916,0.181,1.862-0.098,2.739c-0.244,0.766-0.762,1.449-0.839,2.249c-0.062,0.644,0.171,1.276,0.404,1.879
			c1.15,2.986,2.379,5.941,3.684,8.862c1.28,2.864,3.915,4.96,5.231,7.808c0.228-2.121-0.404-4.225-0.826-6.317
			c-1.432-7.107-0.382-14.689,2.927-21.139c0.305-0.596,0.639-1.26,0.456-1.904c-0.156-0.548-0.648-0.923-1.11-1.257
			c-3.178-2.299-6.356-4.598-9.535-6.897c-1.454-1.052-3.05-2.358-3.109-4.151c-0.045-1.384,0.861-2.596,1.722-3.68
			c-1.69-0.03-3.353-0.821-4.442-2.114c-0.679-0.806-1.138-1.786-1.867-2.547s-1.888-1.278-2.839-0.823
			c-0.355,0.17-0.638,0.455-0.932,0.716c-2.668,2.374-6.49,2.967-10.058,2.827c-3.568-0.14-7.105-0.906-10.675-0.818
			c-0.123,1.218-0.247,2.437-0.37,3.655c0.147-2.176-2.329-3.641-4.507-3.754c-2.178-0.114-4.383,0.556-6.521,0.13
			c-1.384-0.276-2.633-0.992-3.855-1.697c-2.243-1.294-4.486-2.589-6.728-3.883C10.575,87.142,8.462,86.236,7.185,84.749z"/>
		<path fill="#8A5941" d="M76.347,145.724c-0.129,1.405-0.376,2.817-0.205,4.217c0.149,1.218,0.608,2.372,1.063,3.511
			c1.281,3.207,2.562,6.414,3.844,9.621c0.647-1.804,0.936-3.736,0.845-5.651c-0.034,2.427-0.029,4.999,1.232,7.073
			c0.528,0.868,1.249,1.598,1.964,2.319c1.644,1.659,3.306,3.333,5.279,4.583c2.783,1.762,6.04,2.592,9.235,3.395
			c0.786,0.198,1.794,0.318,2.247-0.355c0.215-0.32,0.226-0.731,0.218-1.116c-0.054-2.586-0.634-5.127-1.057-7.678
			c-0.485-2.93-0.765-5.894-0.835-8.863c-0.038-1.607-0.016-3.219-0.205-4.816c-0.097-0.821-0.258-1.657-0.688-2.364
			c-0.321-0.529-0.778-0.96-1.229-1.384c-1.564-1.472-3.127-2.943-4.691-4.415c-0.485,1.004-0.53,2.157-0.558,3.271
			c-0.137,5.478-0.07,10.962,0.202,16.435c-1.361-6.104-2.246-12.314-2.644-18.555c-0.068-1.058-0.152-2.198-0.831-3.012
			c-0.6-0.719-1.544-1.033-2.437-1.315c-1.673-0.528-3.347-1.055-5.02-1.583c-1.45-0.457-3.608-1.619-5.123-1.609
			c-1.8,0.012-0.84,1.674-0.678,3.041C76.482,142.216,76.507,143.979,76.347,145.724z"/>
		<path fill="#8A5941" d="M103.307,155.799c-0.381,1.811-0.155,3.688,0.072,5.524c0.464,3.742,0.927,7.483,1.391,11.225
			c0.117,0.944,0.249,1.93,0.791,2.713c0.981,1.417,2.929,1.708,4.369,2.655c1.208,0.794,2.032,2.038,3.037,3.078
			c2.988,3.09,7.402,4.237,11.579,5.253c0.191-2.227-0.137-4.496-0.951-6.577c1.031,1.58,1.741,3.369,2.071,5.226
			c0.117,0.656,0.194,1.34,0.535,1.912c0.449,0.752,1.276,1.182,2.076,1.539c2.599,1.158,5.364,1.941,8.184,2.318
			c0.272,0.036,0.575,0.061,0.794-0.104c0.192-0.145,0.263-0.395,0.323-0.628c0.206-0.799,0.412-1.599,0.618-2.398
			c-0.173,1.061,0.555,2.106,1.488,2.64s2.034,0.671,3.103,0.796c1.55,0.181,3.099,0.363,4.649,0.544
			c-0.042,0.229-0.083,0.457-0.125,0.686c4.277-0.477,8.71-1.71,13.008-1.495c1.727,0.086,3.453,0.285,5.181,0.213
			c2.565-0.107,5.064-0.805,7.536-1.499c0.944-0.265,1.978-0.596,2.482-1.436c0.312-0.52,0.364-1.151,0.398-1.757
			c0.301-5.34-0.173-10.724-1.402-15.93c-0.123-0.521-0.277-1.079-0.695-1.413c-0.336-0.269-0.782-0.343-1.208-0.408
			c-1.597-0.245-3.194-0.491-4.791-0.736c0.018,6.159,0.035,12.318,0.053,18.477c-0.221-5.51-0.442-11.021-0.663-16.531
			c-0.032-0.797-0.092-1.667-0.63-2.256c-0.493-0.541-1.266-0.709-1.99-0.817c-5.903-0.881-12.196,0.26-17.695-2.059
			c-0.452-0.191-0.927-0.409-1.413-0.339c-1.22,0.174-1.466,1.811-1.401,3.042c0.29,5.515,0.58,11.029,0.87,16.544
			c-0.86-3.724-1.251-7.555-1.161-11.376c0.064-2.701,0.355-5.489-0.544-8.037c-0.143-0.405-0.326-0.815-0.655-1.09
			c-0.345-0.289-0.805-0.391-1.246-0.483c-3.522-0.731-7.073-1.323-10.641-1.774c-0.466-0.059-0.977-0.106-1.372,0.148
			c-0.608,0.391-0.63,1.257-0.581,1.978c0.276,4.107,0.615,8.209,1.016,12.305c-0.425-3.507-0.941-7.003-1.547-10.484
			c-0.398-2.285-1.036-4.854-3.067-5.974c-1.327-0.732-2.929-0.647-4.444-0.685c-2.571-0.064-5.112-0.537-7.64-1.009
			c-2.537-0.473-5.165-0.984-7.263-2.487c-0.565-0.405-1.148-0.9-1.843-0.89C103.268,153.949,102.797,155.326,103.307,155.799z"/>
		<path fill="#6B3B28" d="M395.202,125.297c-0.774,0.583-1.572,1.195-2.019,2.055c-0.528,1.017-0.487,2.223-0.432,3.368
			c0.257,5.401,0.515,10.802,0.772,16.204c-0.874-4.066-1.754-8.197-1.458-12.345c0.149-2.086,0.584-4.25-0.121-6.219
			c-1.689-0.484-3.395,0.524-4.976,1.289c-2.092,1.012-4.355,1.645-6.65,2.009c-1.342,0.213-2.696,0.334-4.049,0.456
			c-7.585,0.681-15.169,1.362-22.754,2.044c-0.507,3.379-0.773,6.795-0.793,10.212c-0.752-1.85-1.19-3.828-1.288-5.823
			c-0.048-0.973-0.018-1.963-0.281-2.901c-0.262-0.938-0.887-1.843-1.817-2.131c-0.595-0.184-1.236-0.097-1.853-0.008
			c-1.089,0.157-2.178,0.315-3.266,0.472c-0.381,0.055-0.793,0.125-1.057,0.405c-0.314,0.333-0.314,0.851-0.244,1.304
			c0.525,3.403,3.616,5.692,5.858,8.305c3.121,3.637,4.807,8.473,4.623,13.261c-0.033,0.866-0.115,1.78,0.277,2.553
			c0.313,0.617,0.894,1.059,1.511,1.372c2.243,1.138,4.92,0.776,7.404,0.387c0.586-0.092,1.191-0.191,1.692-0.509
			c1.088-0.692,1.335-2.145,1.479-3.426c0.547-4.866,1.094-9.732,1.641-14.597c0.531,4.599,1.063,9.215,0.97,13.843
			c-0.027,1.351,0.055,3,1.254,3.623c0.482,0.25,1.047,0.264,1.59,0.272c3.618,0.048,7.237,0.022,10.853-0.078
			c1.73-0.048,3.719-0.246,4.707-1.668c0.579-0.833,0.663-1.903,0.728-2.915c0.141-2.188,0.281-4.375,0.422-6.563
			c0.407,2.147,0.814,4.293,1.222,6.44c0.157,0.828,0.391,1.764,1.136,2.156c0.781,0.411,1.792-0.019,2.321-0.726
			c0.529-0.707,0.695-1.612,0.845-2.482c0.938-5.411,1.876-10.822,2.814-16.233c0.464-2.679,0.929-5.358,1.393-8.036
			c0.422-2.434,1.556-5.624,1.299-8.059C397.66,123.076,396.323,124.452,395.202,125.297z"/>
		<path fill="#8A5941" d="M343.772,152.637c-0.773,2.763-3.143,4.852-5.772,6c-2.629,1.147-5.527,1.492-8.377,1.823
			c-9.378,1.092-18.756,2.183-28.134,3.275c-0.458,0.053-0.955,0.125-1.278,0.454c-0.364,0.37-0.392,0.945-0.399,1.464
			c-0.042,3.35-0.085,6.7-0.128,10.051c-1.28-3.744-2.025-7.671-2.204-11.624c-15.777,1.492-31.558,2.984-47.377,3.929
			c-11.615,0.694-23.388,1.082-34.776-1.304c-0.589,4.842-0.285,9.791,0.893,14.525c-0.913-4.014-1.826-8.027-2.739-12.041
			c-0.151-0.664-0.339-1.386-0.888-1.789c-0.511-0.375-1.199-0.371-1.833-0.35c-8.831,0.281-17.661,0.562-26.492,0.843
			c0.145,2.425,0.29,4.85,0.435,7.274c-0.151-1.445-0.445-2.86-1.097-4.15c-1.081-2.136-3.433-3.83-5.78-3.356
			c-1.139,0.23-2.241,1.091-2.351,2.248c-0.063,0.657,0.193,1.296,0.417,1.917c1.068,2.957,1.516,6.137,1.305,9.274
			c-0.133,1.978-0.52,4-0.014,5.917c0.506,1.917,2.3,3.701,4.249,3.338c-0.026-0.636-0.052-1.272-0.077-1.908
			c0.431,1.121,1.177,2.15,2.099,2.918c1.887,1.57,4.35,2.25,6.766,2.683c5.572,0.999,11.339,0.896,16.871-0.301
			c0.823-0.178,1.699-0.415,2.24-1.059c0.497-0.592,0.61-1.406,0.703-2.172c0.362-2.981,0.724-5.962,1.085-8.943
			c-0.137,2.51-0.267,5.082,0.475,7.483s2.549,4.636,5.008,5.156c2.896,0.612,6.063-1.679,6.388-4.621
			c-0.494,2.63,2.812,5.082,5.185,3.846c0.183-4.863,0.122-9.735-0.183-14.591l3.053,14.514c3.927,0.159,8.009,0.29,11.614-1.276
			c2.732-1.187,5.089-3.657,5.749-6.464c0.012,0.096,0.018,0.192,0.033,0.288c0.286,1.814,1.689,3.253,3.48,3.659l1.945,1.587
			c6.065,0,12.656,0.136,18.72,0.253c3.412,0.066,6.832,0.132,10.232-0.17c2.886-0.257,5.756-0.779,8.654-0.767
			c1.877,0.008,4.14,0.06,5.155-1.519c0.534-0.831,0.533-1.884,0.513-2.872c-0.079-4.021-0.157-8.042-0.236-12.062
			c0.485,2.633,0.97,5.266,1.455,7.898c0.454,2.465,1.187,5.3,3.48,6.311c1.528,0.674,3.291,0.299,4.921-0.065
			c7.122-1.588,14.339-2.746,21.6-3.465c1.689-0.167,3.462-0.339,4.869-1.29c0.877-0.594,1.536-1.602,1.685-2.625
			c0.115,0.586,0.229,1.172,0.344,1.759c2.385,0.358,4.648-1.021,6.666-2.341c0.475-0.311,0.964-0.635,1.278-1.108
			c0.459-0.692,0.47-1.578,0.465-2.408c-0.043-7.265-0.085-14.53-0.128-21.795C343.538,154.244,344.413,152.597,343.772,152.637z"/>
		<path opacity="0.48" fill="#282828" d="M303.52,215.356c3.217,0.306,6.433,0.613,9.65,0.919c5.764,0.549,11.587,1.097,17.329,0.35
			c1.848-0.24,3.708-0.624,5.356-1.493c1.649-0.869,3.079-2.277,3.643-4.053c0.206-0.65,0.292-1.358,0.108-2.015
			c-0.112-0.399-0.319-0.765-0.545-1.112c-2.546-3.898-7.413-5.499-11.974-6.439c-7.996-1.648-16.184-2.097-24.336-2.542
			c-5.46-0.298-11.037-0.584-16.299,0.9c-0.923,0.26-1.846,0.581-2.632,1.13c-1.479,1.032-2.706,3.058-3.059,4.826
			c-0.375,1.877,0.836,3.067,2.286,4.085c3.698,2.596,8.303,3.793,12.7,4.516C298.323,214.851,300.923,215.109,303.52,215.356z"/>
		<path opacity="0.48" fill="#282828" d="M295.658,212.578c5.011,0.431,10.066,0.162,15.069,0.679
			c1.464,0.151,2.926,0.37,4.398,0.38c0.943,0.006,1.883-0.073,2.823-0.151c2.08-0.172,4.167-0.336,6.251-0.229
			c2.093,0.108,4.373,0.446,6.132-0.694c1.996-1.294,2.509-4.102,1.884-6.397c-0.261-0.958-0.724-1.919-1.556-2.46
			c-0.572-0.371-1.261-0.508-1.936-0.605c-2.302-0.329-4.639-0.279-6.964-0.236c-11.088,0.203-22.179,0.212-33.267,0.025
			c-2.655-0.045-7.258,0.375-6.905,4.132c0.127,1.352,1.511,1.94,2.586,2.517c1.662,0.892,3.446,1.543,5.27,2.018
			C291.477,212.086,293.565,212.398,295.658,212.578z"/>
		<g>
			<path fill="none" d="M271.136,189.675c-0.016-0.229-0.037-0.452-0.049-0.687C271.087,188.988,271.053,189.238,271.136,189.675z"
				/>
			<polygon fill="#755129" points="328.186,210.504 327.359,207.194 330.986,199.379 330.986,203.224 			"/>
			<path fill="#542709" d="M293.43,189.816c-14.896-3.31-22.343-0.828-22.343-0.828c0.011,0.217,0.03,0.423,0.045,0.634
				c2.576-0.254,7.883-0.631,14.516-0.291c7.404,0.38,33.447,8.611,44.326,12.14l0.962-2.106
				C325.635,197.917,306.196,192.653,293.43,189.816z"/>
			<g>
				<path fill="#BA813F" d="M303.603,193.391c-1.654,3.174-3.307,6.349-4.96,9.523c2.479,0.506,4.979,0.968,7.419,1.384
					c1.462-2.995,2.967-5.975,4.658-8.838C308.336,194.749,305.938,194.049,303.603,193.391z"/>
				<path fill="#BA813F" d="M313.529,196.304c-1.406,2.892-2.955,5.712-4.62,8.464c4.301,0.689,8.279,1.231,11.436,1.626
					c0.986-2.355,1.909-4.746,2.967-7.056C320.333,198.394,316.988,197.352,313.529,196.304z"/>
				<path fill="#BA813F" d="M300.223,192.454c-6.305-1.711-11.774-2.979-14.575-3.123c-6.632-0.34-11.939,0.036-14.516,0.291
					c0.001,0.018,0.003,0.035,0.004,0.053c0.317,1.675,2.372,6.132,14.846,10.071c2.568,0.811,5.403,1.554,8.346,2.233
					c0.744-1.369,1.573-2.692,2.406-4.009C297.897,196.131,299.06,194.293,300.223,192.454z"/>
				<path fill="#BA813F" d="M329.973,201.472c-1.126-0.365-2.421-0.783-3.834-1.235c-0.908,2.176-1.816,4.352-2.724,6.527
					c2.459,0.285,3.944,0.43,3.944,0.43L329.973,201.472z"/>
				<path opacity="0.7" fill="#282828" d="M300.223,192.454c-1.163,1.839-2.325,3.677-3.488,5.516
					c-0.833,1.318-1.662,2.64-2.406,4.009c1.419,0.327,2.862,0.639,4.314,0.935c1.654-3.174,3.307-6.349,4.96-9.523
					C302.457,193.067,301.327,192.754,300.223,192.454z"/>
				<path fill="#664420" d="M300.223,192.454c-1.163,1.839-2.325,3.677-3.488,5.516c-0.833,1.318-1.662,2.64-2.406,4.009
					c1.419,0.327,2.862,0.639,4.314,0.935c1.654-3.174,3.307-6.349,4.96-9.523C302.457,193.067,301.327,192.754,300.223,192.454z"/>
				<path opacity="0.7" fill="#282828" d="M310.719,195.459c-1.691,2.864-3.196,5.843-4.658,8.838
					c0.962,0.164,1.911,0.32,2.848,0.47c1.665-2.751,3.214-5.572,4.62-8.464C312.599,196.022,311.661,195.74,310.719,195.459z"/>
				<path fill="#664420" d="M310.719,195.459c-1.691,2.864-3.196,5.843-4.658,8.838c0.962,0.164,1.911,0.32,2.848,0.47
					c1.665-2.751,3.214-5.572,4.62-8.464C312.599,196.022,311.661,195.74,310.719,195.459z"/>
				<path opacity="0.7" fill="#282828" d="M323.313,199.338c-1.058,2.309-1.981,4.7-2.967,7.056
					c1.139,0.143,2.169,0.266,3.069,0.371c0.908-2.176,1.816-4.352,2.724-6.527C325.244,199.95,324.299,199.65,323.313,199.338z"/>
				<path fill="#664420" d="M323.313,199.338c-1.058,2.309-1.981,4.7-2.967,7.056c1.139,0.143,2.169,0.266,3.069,0.371
					c0.908-2.176,1.816-4.352,2.724-6.527C325.244,199.95,324.299,199.65,323.313,199.338z"/>
			</g>
			<path fill="#542709" d="M293.43,139.336l-1.529,55.924c-0.016,0.572,0.444,1.044,1.016,1.044h0.379
				c0.568,0,1.025-0.465,1.016-1.032L293.43,139.336z"/>
			<polygon fill="#542709" points="271.136,189.675 243.778,178.23 244.606,178.23 272.742,188.988 			"/>
			<g>
				<path fill="none" d="M274.475,201.151c-0.051-0.085-0.099-0.176-0.149-0.262c-0.634-0.461-1.253-0.943-1.85-1.455
					C273.12,200.029,273.79,200.598,274.475,201.151z"/>
				<path fill="none" d="M267.377,190.201c1.308,2.16,2.973,4.07,4.857,5.754c-0.094-0.318-0.185-0.64-0.27-0.973
					C270.305,193.525,268.761,191.939,267.377,190.201z"/>
				<path fill="#542709" d="M330.936,199.365l-3.577,7.828c0,0-25.653-2.483-41.377-7.448c-12.475-3.939-14.529-8.397-14.846-10.071
					c0.047,0.668,0.117,1.306,0.198,1.93c2.499,3.229,5.477,6.02,8.856,7.313c2.771,1.061,5.342,2.035,8.275,2.483
					c4.509,0.687,7.87,2.085,12.413,2.483c2.994,0.262,6.442,0.69,9.398,1.231c4.671,0.854,9.267,2.562,14.008,2.314
					c-10.294,0.498-20.729,0.54-30.761-1.824c-7.869-1.854-15.523-5.325-21.559-10.623c0.084,0.333,0.176,0.655,0.27,0.973
					c1.789,1.6,3.776,2.995,5.854,4.194c4.267,2.459,8.924,4.156,13.582,5.754c4.655,1.597,9.413,3.122,14.331,3.305
					c-5.918-0.359-11.865-0.79-17.632-2.166c-5.003-1.193-9.896-3.139-14.043-6.153c0.05,0.087,0.098,0.178,0.149,0.262
					c5.893,4.751,13.244,7.848,20.771,8.331c-5.582-0.443-11.255-1.347-16.461-3.318c2.535,2.059,4.715,2.686,4.715,2.686
					c14.068,2.483,44.687,1.655,44.687,1.655l2.8-7.28v-3.845C330.969,199.374,330.953,199.37,330.936,199.365z"/>
				<path fill="#7C3C11" d="M293.523,205.604c10.032,2.364,20.467,2.322,30.761,1.824c-4.742,0.248-9.338-1.46-14.008-2.314
					c-2.956-0.541-6.404-0.969-9.398-1.231c-4.543-0.398-7.904-1.795-12.413-2.483c-2.933-0.447-5.505-1.422-8.275-2.483
					c-3.379-1.294-6.357-4.085-8.856-7.313c0.155,1.202,0.366,2.33,0.631,3.377C278,200.28,285.654,203.75,293.523,205.604z"/>
				<path fill="#7C3C11" d="M288.369,207.041c5.768,1.376,11.714,1.807,17.632,2.166c-4.918-0.182-9.676-1.708-14.331-3.305
					c-4.658-1.598-9.315-3.295-13.582-5.754c-2.079-1.198-4.065-2.594-5.854-4.194c0.56,1.899,1.282,3.532,2.092,4.933
					C278.473,203.902,283.366,205.848,288.369,207.041z"/>
				<path fill="#7C3C11" d="M274.475,201.151c1.331,2.227,2.877,3.848,4.31,5.012c5.205,1.971,10.879,2.876,16.461,3.318
					C287.719,208.999,280.368,205.902,274.475,201.151z"/>
			</g>
			<g>
				<path fill="#7C3C11" d="M293.189,139.159c-1.335,1.663-2.487,3.477-3.78,5.175c-1.232,1.617-2.512,3.198-3.837,4.739
					c-2.706,3.145-5.61,6.12-8.686,8.904c-6.176,5.591-13.029,10.403-20.359,14.357c-4.127,2.226-8.404,4.087-12.772,5.784
					c-0.178,0.069,0.035,0.291,0.181,0.242c3.956-1.324,7.803-3.078,11.514-4.975c3.733-1.909,7.337-4.073,10.795-6.443
					c6.886-4.719,13.171-10.316,18.687-16.582c1.548-1.759,3.035-3.572,4.451-5.439c1.376-1.814,2.821-3.666,3.9-5.675
					C293.314,139.189,293.24,139.095,293.189,139.159L293.189,139.159z"/>
			</g>
			<g>
				<path fill="#7C3C11" d="M293.597,140.064c-0.544,1.003-0.909,2.087-1.322,3.15c-0.437,1.125-0.89,2.245-1.345,3.363
					c-0.884,2.171-1.812,4.325-2.798,6.452c-1.839,3.967-3.809,7.826-6.683,11.156c-2.694,3.122-5.872,5.785-9.107,8.326
					c-3.292,2.587-6.759,5.023-10.631,6.665c-2.242,0.951-4.619,1.596-7.046,1.829c-2.581,0.248-5.132-0.062-7.619-0.77
					c-0.228-0.065-0.493,0.284-0.219,0.398c3.982,1.662,8.719,1.168,12.729-0.137c4.152-1.351,7.89-3.712,11.357-6.324
					c3.396-2.558,6.722-5.282,9.636-8.387c1.443-1.538,2.769-3.189,3.915-4.961c1.251-1.935,2.28-4,3.266-6.079
					c1.126-2.374,2.202-4.772,3.222-7.193c0.525-1.245,1.028-2.497,1.513-3.758c0.462-1.201,0.966-2.396,1.226-3.658
					C293.699,140.092,293.634,139.996,293.597,140.064L293.597,140.064z"/>
			</g>
			<g>
				<path fill="#7C3C11" d="M293.359,138.669c-0.255,2.678-0.223,5.405-0.119,8.091c0.103,2.69,0.34,5.374,0.72,8.039
					c0.745,5.234,1.976,10.414,3.694,15.414c1.621,4.717,3.778,9.151,6.9,13.064c2.966,3.718,6.56,6.88,10.459,9.589
					c4.765,3.31,9.964,6.01,15.288,8.295c0.24,0.103,0.483-0.217,0.21-0.348c-4.617-2.197-9.212-4.453-13.503-7.248
					c-4.04-2.631-7.816-5.717-11-9.348c-3.209-3.658-5.602-7.837-7.328-12.38c-1.87-4.924-3.158-10.115-3.997-15.311
					c-0.47-2.908-0.792-5.842-0.953-8.783c-0.166-3.022-0.068-6.02,0.017-9.041C293.753,138.523,293.377,138.481,293.359,138.669
					L293.359,138.669z"/>
			</g>
			<g>
				<path fill="#7C3C11" d="M293.209,138.464c0.477,5.172,1.769,10.327,3.218,15.303c1.437,4.936,3.172,9.78,5.09,14.549
					c1.933,4.807,4.035,9.55,6.221,14.247c2.138,4.594,4.536,9.014,7.73,12.968c3.483,4.312,7.585,8.127,11.648,11.882
					c0.18,0.166,0.526-0.088,0.311-0.283c-3.651-3.314-7.303-6.604-10.527-10.349c-3.325-3.862-5.911-8.149-8.112-12.733
					c-4.447-9.261-8.46-18.843-11.454-28.677c-0.83-2.725-1.561-5.476-2.207-8.25c-0.667-2.865-1.163-5.759-1.678-8.654
					C293.424,138.333,293.194,138.297,293.209,138.464L293.209,138.464z"/>
			</g>
			<g>
				<path fill="#7C3C11" d="M293.688,141.662c-0.872,1.663-1.001,3.527-1.014,5.372c-0.016,2.205,0.055,4.383-0.482,6.542
					c-0.561,2.254-1.55,4.366-2.416,6.512c-0.34,0.843-0.736,1.699-0.209,2.553c0.529,0.857,1.428,1.51,2.203,2.126
					c1.318,1.047,2.919,2.235,3.337,3.977c0.233,0.968,0.013,1.932-0.495,2.773c-0.486,0.804-1.176,1.469-1.855,2.108
					c-0.619,0.583-1.444,1.171-1.837,1.942c-0.899,1.765,1.525,2.697,2.44,3.689c1.776,1.924-1.74,3.355-0.862,5.311
					c0.051,0.113,0.119,0.217,0.197,0.314c0.32,0.395,0.585,0.877,0.187,1.294c-0.352,0.368-0.84,0.597-1.134,1.023
					c-0.475,0.687-0.382,1.626-0.106,2.369c0.381,1.029,1.202,1.801,1.775,2.715c0.685,1.094,0.77,2.303,0.792,3.56
					c0.001,0.08,0.156,0.184,0.178,0.067c0.186-0.984,0.092-2.007-0.282-2.94c-0.42-1.046-1.248-1.834-1.829-2.782
					c-0.524-0.855-0.854-2.058-0.207-2.942c0.355-0.486,1.133-0.837,1.213-1.488c0.03-0.241-0.073-0.445-0.201-0.64
					c-0.128-0.195-0.309-0.342-0.391-0.568c-0.131-0.362-0.066-0.758,0.055-1.111c0.33-0.958,1.226-1.666,1.358-2.703
					c0.253-1.987-2.484-2.367-3.054-3.951c-0.403-1.12,0.845-2.01,1.556-2.674c0.679-0.635,1.373-1.271,1.922-2.025
					c1.066-1.463,1.141-3.112,0.237-4.681c-1.035-1.795-2.946-2.76-4.344-4.22c-0.439-0.458-0.842-0.965-0.745-1.642
					c0.08-0.559,0.364-1.104,0.577-1.621c0.468-1.134,0.958-2.259,1.395-3.405c0.444-1.164,0.836-2.353,1.08-3.576
					c0.241-1.205,0.294-2.427,0.286-3.653c-0.017-2.544-0.22-5.153,0.755-7.567C293.789,141.668,293.72,141.601,293.688,141.662
					L293.688,141.662z"/>
			</g>
			<g>
				<path fill="#7C3C11" d="M243.771,178.129c0.704,0.265,1.334,0.617,1.793,1.235c0.276,0.372,0.394,1.065,0.932,1.139
					c1.283,0.177,1.558-1.879,2.76-1.862c-0.043-0.049-0.086-0.098-0.129-0.147c-0.096,0.952-0.25,1.898-0.351,2.85
					c-0.011,0.101,0.101,0.217,0.208,0.17c0.437-0.193,0.851-0.421,1.225-0.72c0.039-0.031,0.494-0.48,0.522-0.476
					c0.168,0.026,0.23,0.376,0.25,0.501c0.009,0.056-0.01,0.118-0.005,0.175c0.021,0.219,0.098,0.425,0.328,0.483
					c0.199,0.05,0.382-0.037,0.426-0.239c-0.079-0.02-0.157-0.041-0.236-0.061c0.193,1.251,0.405,2.479,0.464,3.746
					c0.063,1.344-0.039,2.65-0.168,3.985c-0.017,0.17,0.342,0.237,0.366,0.059c0.165-1.255,0.169-2.562,0.11-3.825
					c-0.061-1.315-0.188-2.687-0.532-3.962c-0.027-0.099-0.239-0.189-0.242-0.033c-0.271-0.049-0.398-0.172-0.383-0.368
					c-0.002-0.07-0.004-0.14-0.007-0.21c-0.007-0.054-0.013-0.113-0.029-0.166c-0.049-0.156-0.116-0.237-0.246-0.326
					c-0.016-0.011-0.04-0.009-0.054,0.004c-0.573,0.513-1.219,0.913-1.934,1.196c0.069,0.057,0.138,0.114,0.208,0.17
					c0.118-0.958,0.183-1.922,0.305-2.88c0.009-0.069-0.059-0.145-0.128-0.147c-0.436-0.014-0.766,0.185-1.077,0.478
					c-0.354,0.333-0.745,1.033-1.227,1.179c-0.508,0.154-0.747-0.41-1.012-0.738c-0.204-0.254-0.439-0.485-0.697-0.684
					c-0.421-0.323-0.909-0.577-1.432-0.675C243.69,177.965,243.709,178.106,243.771,178.129L243.771,178.129z"/>
			</g>
			<path opacity="0.48" fill="#282828" d="M293.191,197.199c2.247,1.208,4.844,1.542,7.376,1.856
				c1.952,0.242,3.903,0.484,5.855,0.726c0.86,0.107,1.82,0.27,2.325,0.974c0.296,0.413,0.414,0.989,0.86,1.233
				c0.261,0.143,0.576,0.133,0.874,0.127c2.599-0.054,5.173,0.445,7.725,0.943c0.946,0.184,1.994,0.434,2.523,1.241
				c0.19,0.29,0.295,0.631,0.497,0.914c0.373,0.522,1.014,0.767,1.617,0.984c0.207,0.075,0.425,0.15,0.642,0.115
				c0.217-0.035,0.427-0.222,0.404-0.441c-0.024-0.238-0.281-0.367-0.487-0.488c-1.229-0.719-1.521-2.394-2.562-3.365
				c-0.851-0.794-2.075-1.008-3.225-1.188c-1.866-0.292-3.733-0.583-5.599-0.875c-0.375-0.059-0.778-0.131-1.041-0.405
				c-0.374-0.39-0.314-1.017-0.529-1.512c-0.22-0.506-0.722-0.844-1.249-1.004s-1.087-0.168-1.638-0.186
				c-2.917-0.093-5.823-0.495-8.656-1.195c-0.132-0.033-0.273-0.071-0.365-0.171c-0.121-0.132-0.125-0.334-0.223-0.483
				c-0.151-0.232-0.468-0.272-0.744-0.288c-0.806-0.049-1.613-0.089-2.42-0.122c-0.845-0.035-2.434-0.113-3.042,0.655
				C291.497,196.015,292.557,196.858,293.191,197.199z"/>
		</g>
		<path fill="#B3804E" d="M106.068,172.806c0.051,0.284,0.138,0.613,0.405,0.722c0.439,0.178,0.796-0.386,0.927-0.841
			c0.54-1.873,0.883-3.803,1.021-5.748c0.054-0.765,0.08-1.546,0.345-2.266s0.825-1.383,1.575-1.54
			c0.533-0.112,1.085,0.041,1.628,0.007c1.063-0.066,1.943-0.818,2.936-1.203c1.8-0.698,3.822-0.151,5.747-0.304
			c0.732-0.058,1.633-0.424,1.62-1.158c-0.012-0.689-0.824-1.044-1.503-1.159c-2.538-0.429-5.167,0.117-7.701-0.336
			c-1.416-0.253-2.757-0.811-4.084-1.365c-0.903-0.377-3.709-2.153-4.653-1.446c-0.91,0.681-0.012,4.169,0.1,5.211
			C104.829,165.083,106.068,169.109,106.068,172.806z"/>
		<path fill="#B3804E" d="M126.431,184.616c0.224,0.758,0.514,1.599,1.223,1.949c0.117,0.058,0.245,0.1,0.376,0.096
			c0.372-0.012,0.638-0.407,0.645-0.779c0-0.017,0-0.034,0-0.051c-0.009-0.353-0.181-0.683-0.35-0.995
			c-0.508-0.936-1.088-2.471-1.913-3.112C125.882,182.525,126.172,183.738,126.431,184.616z"/>
		<path fill="#B3804E" d="M145.47,167.422c-0.282,3.383,1.734,6.622,1.569,10.013c-0.059,1.218-0.401,2.41-0.458,3.628
			c-0.057,1.218,0.236,2.552,1.182,3.321c2.008-2.717,0.871-6.571,1.66-9.856c0.097-0.405,0.23-0.813,0.489-1.139
			c0.625-0.786,1.78-0.878,2.779-0.771s2.043,0.341,2.981-0.019c1.212-0.466,1.908-1.802,3.1-2.318
			c1.557-0.674,3.562,0.216,4.965-0.738c0.202-0.137,0.387-0.32,0.454-0.554c0.227-0.802-0.921-1.222-1.754-1.248
			c-3.37-0.107-7.305,0.328-10.566-0.588C150.305,166.713,145.47,164.238,145.47,167.422z"/>
		<path fill="#B3804E" d="M178.534,179.974c-0.098,1.698-0.265,3.511,0.561,4.998c0.107,0.192,0.242,0.387,0.446,0.467
			c0.511,0.201,0.96-0.41,1.122-0.936c1.059-3.451-0.71-7.211-0.044-10.76c0.283-1.505,0.369-3.522-1.321-4.305
			c-0.763-0.353-2.179-0.248-2.444,0.712c-0.267,0.967,1.241,3.335,1.447,4.422C178.636,176.348,178.637,178.177,178.534,179.974z"
			/>
		<path fill="#B3804E" d="M191.971,168.856c-1.122-0.107-2.255-0.276-3.369-0.107c-1.114,0.169-2.236,0.744-2.738,1.752
			c-0.578,1.16-0.213,2.54,0.08,3.802c0.454,1.951,0.711,3.947,0.767,5.949c0.016,0.586,0.022,1.199,0.299,1.716
			s0.926,0.889,1.459,0.645c0.286-0.131,0.479-0.405,0.628-0.682c1.218-2.272,0.319-5.226,1.481-7.527
			c0.206-0.408,0.49-0.799,0.897-1.007c0.356-0.182,0.767-0.205,1.16-0.278c1.565-0.289,2.873-1.368,4.402-1.811
			c1.564-0.453,3.264-0.169,4.811-0.675c1.32-0.432,2.365-1.973,0.47-2.483c-1.015-0.273-2.796,0.634-3.857,0.735
			C196.319,169.088,194.112,169.06,191.971,168.856z"/>
		<path fill="#B3804E" d="M301.825,169.52c0.245,3.303,0.49,6.606,0.734,9.909c0.035,0.476,0.145,1.053,0.597,1.205
			c0.335,0.113,0.7-0.084,0.947-0.336c0.889-0.908,0.785-2.355,0.721-3.624c-0.078-1.55-0.006-3.108,0.215-4.644
			c0.134-0.933,0.335-1.887,0.869-2.663c1.268-1.845,3.913-2.094,5.635-3.525c0.193-0.16,0.381-0.346,0.455-0.585
			c0.128-0.41-0.127-0.864-0.489-1.095c-0.362-0.231-0.806-0.287-1.235-0.319c-1.945-0.145-4.473,0.011-6.346,0.584
			C301.706,165.107,301.676,167.509,301.825,169.52z"/>
		<path fill="#B3804E" d="M216.927,179.545c0.08,0.528,0.334,1.196,0.867,1.163c0.227-0.014,0.422-0.167,0.575-0.335
			c1.018-1.12,0.831-3.052,2.004-4.008c1.425-1.162,3.718-0.025,5.337-0.899c0.58-0.313,1.005-0.855,1.564-1.204
			c0.882-0.55,1.983-0.562,3.021-0.576c1.039-0.014,2.148-0.068,2.989-0.678c0.841-0.61,1.196-1.988,0.428-2.688
			c-0.61-0.556-1.55-0.431-2.372-0.358c-2.396,0.213-4.755-0.332-7.079-0.843c-1.724-0.38-4.327-1.377-6.055-0.567
			C214.979,170.063,216.539,176.971,216.927,179.545z"/>
		<path fill="#EAF4F3" d="M292.943,140.502c-0.669,1.165-1.076,2.561-1.651,3.792c-5.065,10.849-14.641,18.827-24.181,26.061
			c-4.097,3.106-8.307,6.155-12.983,8.262c0.014,0.015,0.032,0.027,0.046,0.043c2.409-0.766,5.106-0.631,7.4,0.441
			c2.773,1.296,4.89,3.917,5.575,6.9c4.078-3.515,7.911-7.316,11.459-11.366c1.852-2.113,3.63-4.299,5.145-6.665
			c3.421-5.344,5.405-11.459,7.354-17.498C291.907,147.992,294.098,143.043,292.943,140.502z"/>
	</g>
</g>
<g id="_x36_">
</g>
<g id="_x35_">
</g>
<g id="_x31_">
</g>
</svg>
