<?xml version="1.0" encoding="utf-8"?>
<!-- Generator: Adobe Illustrator 27.9.0, SVG Export Plug-In . SVG Version: 6.00 Build 0)  -->
<svg version="1.1" xmlns="http://www.w3.org/2000/svg" xmlns:xlink="http://www.w3.org/1999/xlink" x="0px" y="0px"
	 viewBox="0 0 234.516 255.123" enable-background="new 0 0 234.516 255.123" xml:space="preserve">
<g id="_x31_8">
</g>
<g id="_x31_7">
</g>
<g id="_x31_5">
</g>
<g id="_x31_4">
</g>
<g id="_x31_3">
</g>
<g id="_x31_2">
</g>
<g id="_x31_1">
</g>
<g id="_x31_0">
	<g>
		<g>
			<path opacity="0.67" fill="#74EDE4" d="M234.516,235.848c-4.772-0.025-9.581-0.191-14.309,1.008
				c-9.558,2.425-18.115,4.201-28.052,3.264c-9.309-0.877-17.47-3.053-25.543-7.94c-8.181-4.952-15.882-11.433-16.295-21.576
				c-0.398-9.765,0.554-19.786-6.975-27.352c-7.613-7.652-17.599-5.461-26.894-8.447c-8.719-2.8-16.019-8.942-23.526-13.959
				c-8.238-5.507-17.13-9.749-26.996-11.232c-12.772-1.92-25.884-0.159-38.532-3.075c-6.191-1.427-11.808-3.992-16.405-8.446
				c-4.598-4.455-9.357-12.267-8.254-18.951c0.06-0.363-0.577-0.732-0.72-0.312c-1.527,4.488-2.662,7.69-1.6,12.478
				c1.016,4.579,3.71,8.787,7.038,12.057c7.879,7.741,19.631,10.32,30.252,11.317c12.299,1.154,25.329,0.589,36.735,6.035
				c9.549,4.559,17.346,12.287,26.18,18.012c4.143,2.685,8.58,5.084,13.256,6.696c5.153,1.776,10.787,1.808,15.857,3.619
				c4.048,1.446,4.359,6.131,4.466,9.927c0.174,6.127-0.729,12.194,0.823,18.232c0.579,2.25,1.484,4.371,2.612,6.381
				c-3.141,0.035-6.29,0.217-9.529,0.41c-6.989,0.417-14.033,0.562-20.941,1.732c-0.067,0.011-0.008,0.102,0.034,0.109
				c6.883,1.071,13.851,1.258,20.8,1.665c4.264,0.25,8.427,0.554,12.601,0.51c0.677,0.859,1.399,1.689,2.147,2.499
				c-1.299,0.159-2.576,0.365-3.794,0.663c-0.136,0.033-0.013,0.2,0.068,0.217c1.713,0.368,3.5,0.609,5.318,0.768
				c3.537,3.492,7.597,6.514,11.489,9.114c9.583,6.401,21.166,10.745,32.467,12.832c11.936,2.205,24.289,0.658,35.8-2.894
				c2.793-0.862,5.467-1.815,8.416-1.9c0.671-0.019,1.339-0.009,2.008,0.012V235.848z"/>
			<path opacity="0.67" fill="#74EDE4" d="M96.658,210.651c4.679-0.13,8.42,0.674,12.913,1.477
				c4.322,0.772,8.457-0.686,12.774-0.815c3.307-0.099,3.842-3.89,0.841-5.264c-4.977-2.279-8.291,0.235-13.33,0.489
				c-1.58,0.08-3.155-0.15-4.738-0.314c-0.059-0.14-0.135-0.279-0.228-0.416c0.037-0.733-1.104-1.697-1.783-1.573
				c-0.73,0.133-1.438,0.288-2.135,0.463c-4.615,0.014-9.207,0.332-13.794,0.676c3.256-0.34,6.5-1.299,8.902-3.65
				c1.599-1.565,2.414-2.423,4.527-3.243c1.926-0.747,2.111-0.326,3.563-2.112c1.593-1.959-2.038-4.113-3.633-3.929
				c-1.9,0.219-4.013,0.04-5.847,0.579c-2.391,0.703-3.189,2.728-5.224,3.958c-4.708,2.844-11.051,0.453-16.178,1.05
				c-2.659,0.31-4.434,0.856-7.057,0.11c-2.455-0.698-4.483-1.143-7.077-0.989c-2.483,0.147-4.861,0.753-7.26,1.375
				c-2.13,0.552-6.874,2.477-5.855-1.778c0.034-0.144-0.107-0.308-0.248-0.324c-2.761-0.315-4.393,1.854-4.005,4.191
				c-7.116-0.036-14.223,0.308-21.082,1.373c-0.296,0.046-0.155,0.409,0.08,0.443c7.469,1.071,15.192,1.398,22.903,1.329
				c4.861,4.192,14.015-1.151,19.408,0.229c3.626,0.928,5.683,2.443,9.604,1.922c4.124-0.547,8.168-0.192,12.271-0.371
				c-3.2,0.238-6.4,0.459-9.605,0.558c-0.063,0.002-0.021,0.083,0.026,0.085c6.237,0.188,12.459,0.799,18.699,1.153
				C92.744,208.578,95.115,210.694,96.658,210.651z"/>
			<path opacity="0.67" fill="#74EDE4" d="M135.586,252.21c-9.342,0.268-18.669,0.009-28.01,0.238
				c-0.063,0.002-0.021,0.084,0.026,0.085c9.392,0.226,18.77-0.026,28.163,0.238c9.406,0.265,18.741,0.609,28.143,0.167
				c0.684-0.032,0.195-0.873-0.292-0.896C154.248,251.617,144.958,251.941,135.586,252.21z"/>
		</g>
		<g>
			<g>
				<path fill="#3A2A1C" d="M5.938,98.414c-6.158,8.584-4.628,20.276-2.829,30.686c0.419,2.423,0.878,4.943,2.341,6.92
					c1.491,2.015,3.83,3.198,6.116,4.227c10.858,4.886,22.55,7.912,34.414,8.906c5.743,0.481,11.545,0.493,17.204,1.58
					c23.781,4.563,41.359,27.119,65.338,30.489c5.249,0.738,11.393,0.9,14.538,5.167c2.95,4.002,1.687,9.537,1.591,14.508
					c-0.201,10.333,5.404,20.164,13.139,27.018c7.735,6.854,17.427,11.095,27.211,14.423c6.257,2.129,12.949,3.946,19.41,2.556
					c6.927-1.49,12.892-6.541,19.963-6.994c3.285-0.21,6.942,0.486,10.14,0.149v-95.846c-5.859-0.25-11.721-0.208-17.474,0.848
					c-4.612,0.847-9.101,2.333-13.75,2.948c-14.846,1.964-29.12-5.027-42.296-12.446c-1.797-1.012-2.018-3.477-0.478-4.849
					c4.698-4.188,12-5.318,18.553-5.668c7.943-0.424,16.767-0.716,22.426-6.306c-13.156,5.698-28.231,3.426-42.459,5.188
					c-21.423,2.654-42.908,14.56-63.452,7.933c-2.604-0.84-5.628-3.011-4.739-5.599c0.622-1.813,3.07-2.99,2.327-5.013
					c-0.416-1.131-1.611-1.783-2.814-1.706c-5.385,0.344-10.77,0.687-16.156,1.031c-3.963,0.253-8.561,0.277-10.682-3.63
					c-1.058-1.949-1.016-4.298-0.172-6.348c0.627-1.524,1.547-2.779,2.628-3.873c-7.049,4.205-14.719,7.372-22.691,9.326
					c-4.695,1.151-10.052,1.774-14.017-0.989c-1.586-1.105-2.86-2.705-4.661-3.407c-4.58-1.783-9.945,3.081-14.408-0.894
					c-1.717-1.529-2.551-3.824-2.464-6.121c0.171-4.539,3.072-8.07,6.091-11.229C10.788,93.291,8.018,95.515,5.938,98.414z"/>
			</g>
			<path fill="#8A5941" d="M5.214,106.193c-1.82,9.113-0.741,18.784,3.043,27.272c1.951,4.377,6.714,6.077,11.217,7.717
				c11.552,4.209,23.894,5.685,36.121,6.973c2.121,0.223,4.499,0.37,6.142-0.991c1.753-1.452,1.96-4.018,2.032-6.293
				c0.129-4.101,0.258-8.202,0.387-12.303c0.774,3.876,1.239,7.814,1.389,11.764c0.122,3.217,0.187,6.82,2.483,9.076
				c2.058,2.022,5.24,2.259,8.124,2.194c2.884-0.065,5.956-0.269,8.456,1.171c1.348,0.777,2.947,2.029,4.238,1.158
				c0.858-0.579,0.96-1.781,0.965-2.816c0.03-7.468-0.622-14.938-1.944-22.288c-0.148-0.822-0.324-1.684-0.872-2.313
				c-0.457-0.524-1.119-0.821-1.774-1.054c-3.126-1.116-6.52-1.151-9.84-1.149c-3.319,0.001-6.706,0.016-9.863-1.01
				s-6.104-3.299-7.035-6.485c-0.329-1.126-0.468-2.442-1.402-3.151c-0.94-0.714-2.319-0.474-3.333,0.131
				c-1.014,0.605-1.813,1.512-2.781,2.189c-2.017,1.41-4.583,1.708-7.031,1.964c-4.951,0.518-10.13,1.007-14.757-0.829
				c-4.14-1.643-7.735-5.1-12.189-5.147c-2.964-0.031-6.271,1.421-8.682-0.303C6.564,110.422,5.48,108.321,5.214,106.193z"/>
			<path fill="#8A5941" d="M93.066,152.527c0.141,2.166,0.294,4.38,1.153,6.373c0.821,1.903,2.241,3.489,3.788,4.868
				c4.456,3.973,10.021,6.437,15.486,8.838c3.3,1.45,7.267,2.847,10.422,1.48c0.782-0.339,1.694-0.19,2.387,0.306
				c5.007,3.582,11.375,5.237,17.491,4.496c1.066-0.129,2.17-0.347,3.019-1.005c1.98-1.535,1.691-4.554,1.208-7.012
				c-1.385-7.053-2.77-14.107-4.155-21.16c-0.582-2.964-1.164-6.021-0.561-8.98c0.446-2.19,1.54-4.388-0.361-6.594
				c-0.776-0.9-1.85-1.516-3.007-1.788c-2.651-0.623-5.269,0.265-7.778,1.129c-6.861,2.364-13.966,4.694-21.207,4.197
				c-5.415-0.372-10.602-2.315-15.514-4.629c-5.008-2.358-3.405,3.636-3.207,6.676C92.509,143.992,92.788,148.259,93.066,152.527z"
				/>
			<path fill="#8A5941" d="M234.516,144.401c-1.298,0.032-2.607,0.17-3.88,0.327c-3.723,0.46-7.436,1.002-11.136,1.624
				c-4.227,0.711-8.994,1.921-10.988,5.716c-1,1.902-1.096,4.133-1.172,6.281c-0.484,13.789-0.969,27.578-1.453,41.367
				l-1.228-33.309c-0.139-3.779-0.433-7.934-3.08-10.634c-2.528-2.578-6.446-3.049-10.042-3.373
				c-2.984-0.269-6.405-0.387-8.496,1.757c-1.461,1.497-1.85,3.712-2.103,5.789c-0.719,5.898-0.903,11.86-0.548,17.791
				c-0.309-5.296-0.617-10.592-0.926-15.888c-0.194-3.328-0.404-6.731-1.687-9.808c-1.283-3.078-3.863-5.824-7.152-6.374
				c-1.734-0.29-3.525,0.04-5.261-0.233c-4.755-0.749-13.963-12.446-17.064-3.71c-2.803,7.896,3.092,17.788,3.47,25.786
				c0.245,5.193-1.09,10.314-1.681,15.479c-0.864,7.55-0.135,15.182,0.594,22.746c0.376,3.9,0.769,7.867,2.273,11.484
				c2.308,5.548,7.109,9.812,12.543,12.376c0.88,0.415,1.825,0.799,2.795,0.714c2.477-0.217,3.676-3.294,3.347-5.758
				s-1.592-4.76-1.702-7.244c-0.086-1.932,0.532-3.814,0.981-5.695c2.127-8.913,0.505-18.351,2.228-27.351
				c-1.002,13.715-0.313,27.553,2.044,41.101c0.281,1.615,0.591,3.242,1.25,4.743c2.082,4.739,7.139,7.312,11.823,9.516
				c1.846,0.868,3.935,1.753,5.858,1.073c3.073-1.087,3.556-5.163,3.493-8.422c-0.212-11.122-0.576-22.241-1.091-33.354
				c0.779,8.428,1.559,16.857,2.338,25.285c0.389,4.206,1.451,9.301,5.475,10.587c1.605,0.513,3.343,0.255,5.007-0.009
				c2.443-0.386,4.973-0.806,7.028-2.183c3.993-2.676,5.003-8.035,5.422-12.823c1.764-20.154-0.779-40.434-0.333-60.66
				c3.325,19.16,6.661,38.448,6.473,57.893c-0.029,3.012-0.121,6.141,1.105,8.893c0.991,2.225,3.143,4.107,5.474,4.357V144.401z"/>
			<g>
				<path fill="none" d="M65.978,104.712c2.544-1.517,5.012-3.161,7.378-4.944C70.732,101.156,68.042,102.624,65.978,104.712z"/>
				<path fill="#B5A348" d="M232.725,116.794c-3.78,0.632-8.049,0.56-10.949-1.946c-2.995-2.588-3.523-7.565-1.14-10.725
					c1.287-1.705,3.258-2.885,4.208-4.798c0.951-1.913-0.347-5.617-2.215-4.581c-2.822,1.564-6.46,1.538-9.259-0.066
					c-2.799-1.604-4.662-4.729-4.74-7.954c-2.792-2.977-7.329-3.754-11.342-3.013c-4.013,0.741-7.652,2.77-11.233,4.728
					c-8.027,4.389-16.193,8.58-24.781,11.734c-5.817,2.136-12.327,3.774-18.111,1.551c-0.617-0.237-1.238-0.531-1.67-1.032
					c-1.896-2.202,1.266-5.816-0.052-8.406c-1.608-3.159-7.33-0.916-9.501-3.718c-0.897-1.158-0.848-2.839-1.721-4.015
					c-1.595-2.15-4.908-1.36-7.483-0.628c-4.044,1.149-8.286,1.6-12.481,1.327c-2.599-0.169-5.534-0.851-6.788-3.134
					c-0.792-1.442-0.728-3.247-1.579-4.655c-1.69-2.799-5.756-2.565-8.972-1.978c-2.942,0.537-5.913,0.049-8.67,1.208
					c-4.203,1.767-8.789,3.408-13.233,2.388c-1.468-0.337-3.161-1.79-2.315-3.036c0.192-0.283,0.486-0.477,0.779-0.653
					c1.906-1.148,4.103-1.877,5.704-3.422c0.637-0.615,1.158-1.341,1.789-1.963c2.026-1.997,2.929-5.842,5.668-6.59
					c-21.143,4.725-40.967,14.203-60.533,23.598c-2.795,1.342-5.637,2.741-8.278,4.386c-3.019,3.16-5.92,6.69-6.091,11.229
					c-0.087,2.298,0.747,4.592,2.464,6.121c4.463,3.975,9.828-0.889,14.408,0.894c1.801,0.701,3.075,2.302,4.661,3.407
					c3.966,2.764,9.323,2.14,14.017,0.989c7.973-1.954,15.642-5.122,22.691-9.326c-1.082,1.094-2.001,2.35-2.628,3.873
					c-0.844,2.05-0.885,4.399,0.172,6.348c2.121,3.907,6.719,3.883,10.682,3.63c5.385-0.344,10.77-0.687,16.156-1.031
					c1.203-0.077,2.398,0.575,2.814,1.706c0.743,2.023-1.704,3.2-2.327,5.013c-0.888,2.588,2.135,4.759,4.739,5.599
					c20.544,6.627,42.029-5.279,63.452-7.933c14.228-1.762,29.304,0.51,42.459-5.188c-5.659,5.59-14.484,5.881-22.426,6.306
					c-6.553,0.35-13.856,1.48-18.553,5.668c-1.54,1.373-1.319,3.837,0.478,4.849c13.176,7.418,27.449,14.409,42.296,12.446
					c4.649-0.615,9.138-2.101,13.75-2.948c5.753-1.056,11.615-1.098,17.474-0.848v-25.744
					C233.919,116.578,233.322,116.694,232.725,116.794z"/>
				<path fill="#727024" d="M223.991,3.281c-6.631,2.035-13.111,4.563-19.37,7.553c-7.001,3.345-13.725,7.271-20.071,11.736
					c-13.937,9.807-26.264,22.275-41.891,29.072c-17.51,7.616-37.296,7.322-56.044,10.939c-1.331,0.257-2.656,0.537-3.977,0.832
					c-2.738,0.748-3.642,4.593-5.668,6.59c-0.631,0.622-1.152,1.348-1.789,1.963c-1.601,1.545-3.798,2.274-5.704,3.422
					c-0.293,0.176-0.587,0.371-0.779,0.653c-0.846,1.246,0.847,2.699,2.315,3.036c4.444,1.02,9.03-0.622,13.233-2.388
					c2.757-1.159,5.728-0.671,8.67-1.208c3.217-0.587,7.282-0.821,8.972,1.978c0.85,1.408,0.787,3.213,1.579,4.655
					c1.254,2.283,4.19,2.965,6.788,3.134c4.195,0.273,8.437-0.178,12.481-1.327c2.575-0.732,5.888-1.521,7.483,0.628
					c0.873,1.176,0.823,2.857,1.721,4.015c2.171,2.802,7.893,0.559,9.501,3.718c1.318,2.59-1.844,6.204,0.052,8.406
					c0.432,0.501,1.053,0.795,1.67,1.032c5.784,2.224,12.294,0.585,18.111-1.551c8.588-3.153,16.754-7.345,24.781-11.734
					c3.581-1.958,7.22-3.987,11.233-4.728c4.013-0.741,8.55,0.037,11.342,3.013c0.078,3.225,1.94,6.35,4.74,7.954
					c2.799,1.604,6.437,1.63,9.259,0.066c1.869-1.035,3.166,2.668,2.215,4.581c-0.95,1.913-2.922,3.092-4.208,4.798
					c-2.384,3.16-1.855,8.137,1.14,10.725c2.899,2.506,7.169,2.578,10.949,1.946c0.597-0.1,1.194-0.216,1.792-0.335V0
					C230.568,0.791,226.246,2.589,223.991,3.281z"/>
			</g>
			<path opacity="0.65" fill="#424B0C" d="M234.516,5.266c-7.947,2.022-15.475,5.067-21.806,10.223
				c-3.026,2.464-5.716,5.368-9.02,7.445c-7.147,4.491-16.617,4.778-22.942,10.367c-4.89,4.321-7.04,11.123-11.96,15.411
				c-7.089,6.176-18.288,5.792-25.2,12.165c-1.089,1.003-2.031,2.814-0.945,3.82c0.367,0.339,0.878,0.469,1.371,0.545
				c2.545,0.395,5.133-0.296,7.708-0.228s5.489,1.294,6.089,3.799c0.308,1.286-0.064,2.664,0.267,3.944
				c0.849,3.285,5.275,3.765,8.65,3.416c5.121-0.53,10.21-1.375,15.228-2.528c1.439-0.331,3.014-0.673,4.337-0.018
				c1.41,0.699,2.099,2.321,3.323,3.308c3.477,2.803,8.71-0.703,13.043,0.377c3.788,0.945,6.257,5.27,10.153,5.531
				c2.933,0.196,5.411-2.004,8.138-3.101c2.727-1.098,6.962-0.036,6.781,2.898c-0.083,1.353-1.156,2.507-1.181,3.862
				c-0.05,2.71,3.709,3.758,4.898,6.194c1.776,3.637-2.912,7.237-3.303,11.265c-0.287,2.962,1.971,5.74,4.736,6.839
				c0.532,0.212,1.08,0.358,1.635,0.475V5.266z"/>
			<path fill="#727024" d="M113.173,96.579c-2.071,1.222-4.263,2.577-5.25,4.77c-0.428,0.952-0.601,2.015-1.128,2.917
				c-1.07,1.831-3.287,2.563-5.252,3.362c-1.964,0.799-4.082,2.121-4.332,4.226c-0.029,0.242-0.023,0.511,0.133,0.698
				c0.17,0.204,0.462,0.249,0.726,0.265c5.146,0.304,9.18-4.878,14.317-5.318c2.005-0.172,4.022,0.404,6.025,0.201
				c1.933-0.196,3.724-1.109,5.34-2.188c2.213-1.478,4.328-3.548,4.617-6.193c0.346-3.176-2.653-6.084-5.715-6.357
				C119.515,92.682,115.759,95.052,113.173,96.579z"/>
			<path fill="#727024" d="M176.955,103.588c-2.901,1.034-6.193,2.074-7.614,4.806c-0.385,0.74-0.594,1.651-0.229,2.401
				c0.658,1.354,2.58,1.322,4.051,1c2.157-0.472,4.274-1.128,6.32-1.959c2.909-1.181,5.846-2.748,8.977-2.517
				c1.412,0.105,2.768,0.575,4.133,0.95c4,1.099,8.527,1.323,12.068-0.839c3.54-2.163,5.385-7.328,2.929-10.674
				c-3.902-5.312-7.72-7.979-13.175-3.357C189.2,97.821,183.414,101.287,176.955,103.588z"/>
			<path fill="#727024" d="M35.908,88.52c-1.85,0.988-3.911,1.576-5.658,2.735c-0.328,0.217-0.657,0.472-0.81,0.834
				c-0.314,0.747,0.306,1.627,1.079,1.872c0.773,0.246,1.611,0.033,2.381-0.221c5.432-1.794,9.962-5.6,15.186-7.93
				c2.538-1.132,5.234-1.91,7.986-2.305c2.761-0.396,5.882-0.551,7.746-2.626c0.656-0.73,1.097-1.765,0.786-2.695
				c-1.385-4.15-11.741-0.837-14.467,0.431C44.778,81.111,41.027,85.788,35.908,88.52z"/>
			<path fill="#727024" d="M90.761,95.237c-0.222,0.233-0.451,0.493-0.49,0.813c-0.043,0.353,0.158,0.691,0.402,0.95
				c1.129,1.202,3.081,1.171,4.625,0.591c1.544-0.58,2.894-1.6,4.445-2.16c1.329-0.48,2.776-0.612,4.056-1.212
				c4.693-2.2,0.681-6.382-3.13-5.59C97.139,89.363,93.168,92.709,90.761,95.237z"/>
			<path fill="#B3804E" d="M150.396,154.955c0.732,3.206,1.464,6.411,2.196,9.617c0.315,1.38,0.631,2.763,0.791,4.169
				c0.418,3.672-0.233,7.369-0.675,11.038c-0.935,7.76-0.94,15.598-0.942,23.413c-0.001,2.69,0.024,5.495,1.24,7.895
				c-1.065-8.879-0.926-17.902,0.412-26.744c0.24,1.198,0.569,2.528,1.604,3.176c0.205-5.262,0.41-10.524,0.616-15.786
				c0.074-1.904,0.148-3.81,0.054-5.713c-0.124-2.492-0.536-4.959-0.947-7.42c-0.33-1.977-0.661-3.953-0.991-5.93
				c-0.223-1.336-0.447-2.674-0.579-4.022c-0.166-1.691-0.187-3.396-0.064-5.09c0.087-1.195,0.002-3.79-1.944-3.367
				c-1.294,0.281-1.559,2.447-1.759,3.512C148.705,147.447,149.563,151.306,150.396,154.955z"/>
			<path fill="#B3804E" d="M182.296,161.037c-2.467,15.921-0.904,32.158,0.663,48.193c-0.561-5.228-0.507-10.522,0.16-15.737
				c-0.025,2.235,0.417,4.475,1.289,6.533c1.583-12.849-0.036-25.953,1.808-38.767c-0.219,3.791,0.127,7.613,1.023,11.303
				c0.449-4.784,0.899-9.568,1.348-14.352c0.198-2.111-1.623-3.846-3.794-2.936C182.828,156.097,182.571,159.261,182.296,161.037z"
				/>
			<path fill="#B3804E" d="M95.115,156.131c0.452-0.83,0.779-1.727,0.965-2.653c0.414,1.834,0.902,3.651,1.46,5.446
				c0.524,1.684,1.144,3.404,2.361,4.681c-1.056-7.253-1.404-14.609-1.035-21.928c0.513,1.281,1.026,2.563,1.538,3.844
				c0.154-1.328,0.307-2.655,0.461-3.983c0.093-0.806,0.185-1.632-0.007-2.42c-0.329-1.345-1.457-2.381-2.719-2.949
				c-5.225-2.353-4.461,2.356-4.298,6.069C94.048,146.885,94.473,151.523,95.115,156.131z"/>
			<path fill="#B3804E" d="M9.091,131.93c0.202-0.736,0.404-1.473,0.606-2.209c0.889,3.031,2.306,5.906,4.168,8.457
				c-0.77-6.134-1.328-12.294-1.674-18.466c-0.051-0.915,0.073-2.089,0.951-2.351c0.554-0.165,1.122,0.148,1.661,0.36
				c1.54,0.606,3.385,0.365,4.718-0.616c0.142-0.105,0.286-0.227,0.339-0.396c0.056-0.178,0-0.372-0.074-0.544
				c-0.468-1.082-1.608-1.736-2.755-2.008s-2.342-0.235-3.514-0.357c-1.319-0.137-2.615-0.483-3.83-1.012
				c-0.994-0.432-2.15-1.675-3.12-1.919c-2.059-0.517-1.116,3.507-1.093,4.933c0.046,2.83,0.39,5.656,1.02,8.415
				c0.303,1.325,0.671,2.634,1.105,3.922C7.848,128.885,9.272,131.269,9.091,131.93z"/>
			<g>
				<path fill="#8A5941" d="M77.752,200.016c0.65-1.761-0.336-3.764-1.762-4.986s-3.229-1.889-4.884-2.775
					c-0.549-0.294-1.099-0.627-1.465-1.13c-0.682-0.939-0.565-2.212-0.51-3.372c0.311-6.613-2.472-13.096-6.702-18.212
					c-0.701-0.181-1.426-0.224-2.193,0.005c-2.085,0.622-3.277,3.183-4.119,4.987c-3.435,7.353-6.869,14.706-10.304,22.059
					c-0.573,1.227-1.084,2.854-0.104,3.789c0.593,0.566,1.499,0.605,2.319,0.612c4.584,0.036,9.168,0.071,13.752,0.107
					c0.693,0.005,1.404,0.014,2.048,0.271c0.526,0.21,0.975,0.573,1.471,0.846c1.993,1.096,4.439,0.632,6.678,0.234
					c1.447-0.258,2.901-0.475,4.36-0.652C76.964,201.33,77.479,200.755,77.752,200.016z"/>
				<path fill="#49241A" d="M89.529,201.296c1.484,0.067,3.016,0.168,4.412-0.339c1.396-0.508,2.625-1.817,2.518-3.298
					c-0.084-1.161-0.927-2.106-1.726-2.954c2.418,0.092,4.848-0.159,7.196-0.742c0.637-0.158,1.33-0.386,1.662-0.952
					c0.165-0.281,0.219-0.614,0.232-0.94c0.12-3.057-3.021-5.284-6.018-5.899c-2.997-0.615-6.17-0.256-9.081-1.199
					c-3.776-1.223-6.512-4.411-9.233-7.301c-2.721-2.89-5.969-5.772-9.93-6.032c-0.81-0.053-1.632,0.007-2.425-0.166
					c-1.594-0.348-3.087-1.514-4.705-1.933c4.229,5.116,7.012,11.599,6.702,18.212c-0.054,1.16-0.172,2.432,0.51,3.372
					c0.366,0.504,0.916,0.837,1.465,1.13c1.655,0.886,3.458,1.553,4.884,2.775s2.412,3.225,1.762,4.986
					c-0.273,0.739-0.787,1.315-1.416,1.781C80.71,201.266,85.128,201.098,89.529,201.296z"/>
				<path fill="#49241A" d="M89.529,201.296c1.484,0.067,3.016,0.168,4.412-0.339c1.396-0.508,2.625-1.817,2.518-3.298
					c-0.084-1.161-0.927-2.106-1.726-2.954c2.418,0.092,4.848-0.159,7.196-0.742c0.637-0.158,1.33-0.386,1.662-0.952
					c0.165-0.281,0.219-0.614,0.232-0.94c0.12-3.057-3.021-5.284-6.018-5.899c-2.997-0.615-6.17-0.256-9.081-1.199
					c-3.776-1.223-6.512-4.411-9.233-7.301c-2.721-2.89-5.969-5.772-9.93-6.032c-0.81-0.053-1.632,0.007-2.425-0.166
					c-1.594-0.348-3.087-1.514-4.705-1.933c4.229,5.116,7.012,11.599,6.702,18.212c-0.054,1.16-0.172,2.432,0.51,3.372
					c0.366,0.504,0.916,0.837,1.465,1.13c1.655,0.886,3.458,1.553,4.884,2.775s2.412,3.225,1.762,4.986
					c-0.273,0.739-0.787,1.315-1.416,1.781C80.71,201.266,85.128,201.098,89.529,201.296z"/>
			</g>
			<g>
				<path fill="#8A5941" d="M101.775,208.219c1.547,0.1,3.12,0.288,4.634-0.046c2.15-0.473,3.927-1.931,5.615-3.344
					c2.992-2.504,4.581-5.435,2.695-8.266c-1.038-0.508-2.159-0.837-3.278-0.632c-1.153,0.211-2.124,0.957-3.046,1.681
					c-3.896,3.056-8.724,5.918-12.113,9.522c-0.534,0.568-0.799,0.968-0.864,1.26c0.427-0.107,0.878-0.163,1.302-0.189
					C98.404,208.106,100.093,208.11,101.775,208.219z"/>
				<path fill="#49241A" d="M98.151,209.261c2.72,0.171,5.447,0.273,8.169,0.41c6.136,0.308,12.377,0.607,18.341-0.866
					c0.411-0.588,0.141-1.395-0.171-2.041c-1.912-3.965-4.994-7.357-8.758-9.64c-0.326-0.198-0.665-0.389-1.013-0.559
					c1.886,2.831,0.297,5.761-2.695,8.266c-1.688,1.413-3.466,2.871-5.615,3.344c-1.514,0.333-3.087,0.146-4.634,0.046
					c-1.682-0.109-3.372-0.113-5.054-0.012c-0.423,0.025-0.874,0.082-1.302,0.189C95.25,209.152,96.465,209.155,98.151,209.261z"/>
			</g>
			<path fill="#B3804E" d="M64.611,184.619c-0.281-2.539-1.076-5.424-1.087-8.082c-0.121-0.758-0.143-1.529-0.031-2.29
				c0.087-0.587,0.338-1.126,0.454-1.705c0.1-0.498,0.01-0.985-0.164-1.456c-0.046-0.123-0.111-0.242-0.168-0.364
				c-1.514-1.194-3.805-1.045-5.387,0.651c-2.699,2.893-3.999,8.004-5.607,11.577c-0.897,1.994-1.804,4.021-2.118,6.186
				c-0.086,0.592-0.059,1.325,0.462,1.617c0.794,0.444,1.577-0.595,1.901-1.445c0.908-2.384,1.816-4.768,2.723-7.152
				c0.184-0.484,0.399-1.005,0.847-1.265c0.053-0.031,0.11-0.04,0.165-0.062c0,0,0.001,0,0.002-0.001
				c0.089-0.035,0.177-0.071,0.27-0.086c0.213-0.061,0.44-0.099,0.687-0.104c0.639-0.013,1.323,0.022,1.786-0.489
				c0.228-0.252,0.393-0.565,0.653-0.785c0.188-0.159,0.393-0.214,0.595-0.193c0.243-0.011,0.457,0.095,0.618,0.268
				c0.162,0.131,0.294,0.308,0.398,0.485c0.557,0.951,0.644,2.093,0.651,3.168c0.008,1.27,0.075,2.798,0.71,3.926
				c0.072,0.072,0.141,0.151,0.219,0.213c0.226,0.18,0.559,0.358,0.832,0.164c0.323-0.229,0.475-0.861,0.538-1.221
				C64.647,185.674,64.628,185.136,64.611,184.619z"/>
			<path fill="#B3804E" d="M102.438,202.596c-0.449,0.346-0.918,0.729-1.087,1.27c0.155,0.277,0.51,0.39,0.825,0.352
				c0.315-0.038,0.601-0.197,0.877-0.352c1.548-0.871,3.096-1.743,4.644-2.614c0.145,0.391,0.29,0.782,0.434,1.173
				c0.042,0.114,0.089,0.234,0.187,0.306c0.114,0.084,0.271,0.081,0.408,0.045c0.992-0.256,1.148-1.751,2.087-2.16
				c0.357-0.155,0.778-0.125,1.12-0.311c0.944-0.516,2.565-4.555,0.358-4.074c-2.073,0.451-4.146,2.246-5.835,3.421
				C105.093,200.599,103.753,201.581,102.438,202.596z"/>
		</g>
	</g>
</g>
<g id="_x38_">
</g>
<g id="_x37_">
</g>
<g id="_x36_">
</g>
<g id="_x35_">
</g>
<g id="_x31_">
</g>
</svg>
