<?xml version="1.0" encoding="utf-8"?>
<!-- Generator: Adobe Illustrator 27.9.0, SVG Export Plug-In . SVG Version: 6.00 Build 0)  -->
<svg version="1.1" xmlns="http://www.w3.org/2000/svg" xmlns:xlink="http://www.w3.org/1999/xlink" x="0px" y="0px"
	 viewBox="0 0 1061.6 729.7" enable-background="new 0 0 1061.6 729.7" xml:space="preserve">
<g id="_x31_5">
</g>
<g id="_x31_4">
</g>
<g id="_x31_3">
</g>
<g id="_x31_2">
</g>
<g id="_x31_1">
</g>
<g id="_x31_0">
</g>
<g id="_x39_">
</g>
<g id="_x38_">
</g>
<g id="_x37_">
</g>
<g id="_x36_">
</g>
<g id="_x35_">
</g>
<g id="_x31_">
	<g>
		<g>
			<g>
				<path opacity="0.67" fill="#74EDE4" d="M639.9,91.8c-1.1,0-0.3,1.4,0.5,1.5c22.8,0.9,45.7,0.9,68.4-0.7c0.1,0,0-0.1,0-0.1
					C685.9,90.9,662.8,90.8,639.9,91.8z"/>
				<path opacity="0.67" fill="#74EDE4" d="M741.1,94.2c-5.4-0.1-10.5,0-15.9,0.6c-0.1,0,0,0.1,0,0.1c5.2,0.5,10.1,0.7,15.3,0.6
					c5.7-0.1,11.4,0.4,17.1,0.2c1.3-0.1,0.3-1.6-0.6-1.7C751.7,93.8,746.4,94.3,741.1,94.2z"/>
				<path opacity="0.67" fill="#74EDE4" d="M210.7,34c-4.2,0-10-0.9-13.8,1.1c-0.1,0,0,0.2,0.1,0.2c4.1,1.7,9.3,1,13.6,1.1
					c5.5,0.1,11.1-0.6,16.6-1c0.3,0,0.1-0.4-0.1-0.4C221.6,34.6,216.1,34,210.7,34z"/>
				<path opacity="0.67" fill="#74EDE4" d="M21.4,0.4C14.4,0,6.9-0.4,0,0.7c-0.1,0,0,0.1,0,0.1c7,1,14.5,0.7,21.5,0.3
					C22.1,1,21.8,0.4,21.4,0.4z"/>
				<path opacity="0.67" fill="#74EDE4" d="M68.9,406.6c7.7-1,15.4-1.9,23.1-1.7c1.8,0.1,0.5-2.2-0.6-2.5c-6.5-1.5-13.2-2.7-20-2.5
					c-6.1,0.2-12.8,2.6-18.9,1.8c-3.6-0.4-5.1-2.8-7.1-4.9c1.5-0.7,2.9-1.6,3.8-3c0.2-0.3-0.1-0.5-0.4-0.6
					c-3.8-1.1-7.9-0.6-11.8-0.4c-5.4,0.2-10.7,0.3-16.1-0.5c-2-0.3-2.9,2.2-1.3,3.4c5.5,4,10,3.5,16.4,3.5c2.6,0,4,0.3,5.7,2.3
					c0.7,0.8,1.1,1.6,1.8,2.4c1.7,1.7,4,2.9,6.3,3.5C56.2,409.1,62.7,407.3,68.9,406.6z"/>
				<path opacity="0.67" fill="#74EDE4" d="M34.7,405.4c-8-0.2-15.9,0.1-23.8,0.5c-0.1,0,0,0.1,0,0.1c8.1,0.4,16.1,0.7,24.2,0.5
					C35.9,406.4,35.3,405.4,34.7,405.4z"/>
				<path opacity="0.67" fill="#74EDE4" d="M43.6,407.4c-1.7,0.1-3.5,0.1-5.2,0.2c-0.1,0,0,0.1,0,0.1c1.8,0.1,3.6,0.1,5.3,0.2
					C44.1,407.9,43.9,407.4,43.6,407.4z"/>
				<path opacity="0.67" fill="#74EDE4" d="M69.3,424.9c-5.1-0.2-10.1,0-15.2,0.2c-0.3,0-0.1,0.4,0.1,0.4c5.1,0.2,10.2,0.4,15.3,0.2
					C70.1,425.6,69.7,424.9,69.3,424.9z"/>
				<path opacity="0.67" fill="#74EDE4" d="M1043.1,604c-6.5-1.9-14.4-1.2-21.1-1.3c-2.2,0-4.5-0.1-6.7-0.1c2.2-3,3.7-6.4,4.5-10.2
					c0.6-3.4,0.7-6.9,1.8-10.2c1-2.9,2.7-5.3,4.4-7.8c3.4-5,5.2-9.5,5.3-15.5c0-3.6,0.1-6.5,1.8-9.8c1.5-2.8,3.3-5.3,4.3-8.3
					c2.2-6.3,2.5-12.1,2.3-18.6c0-1.3-0.1-2.7,0.2-4.1c-0.7-2.4-1.5-4.8-3.3-6.9c-1.8-2.1-3.6-3.9-4.7-6.4
					c-4.7,2.7-7.8,7.1-7.5,14.3c0.1,2.6,0.5,5.5,1.2,8c0.7,2.5,2.3,4.9,2.6,7.5c0.6,5.9-5.5,11.2-6.2,17.3
					c-0.4,3.4,0.7,6.9-0.5,10.2c-0.8,2.4-2.6,4.3-4.2,6.2c-4.1,4.8-6.5,9.4-7.8,15.6c-1.5,6.7-4.8,11.1-10.6,14.6
					c-2.4,1.4-5.6,2.3-8.5,3.5c-1.5-2.2-3.6-4.1-6.2-5.4c-2.4-1.2-5.5-2.1-7.9-0.5c-2,1.3-2.8,4.2-1.3,6.3c2.7,3.7,5.2,7.3,5.3,12
					c0.1,4.9-1.7,9.5-3.7,13.8c-2.1,4.5-4.8,8.8-6.4,13.5c-1.9,5.2-1.7,10.5-1.7,15.9c-0.1,7.8-3.1,15.8-9,21.2
					c-6.9,6.3-16.5,4.8-24.5,8.7c-3.5,1.7-6.6,4-10.1,5.6c-4.7,2.1-8.6-0.1-13.1-1.5c-10.2-3.3-18.7-0.7-28.7,1.6
					c-8.3,1.8-16.8,1.3-25.3,1.9c-5.1-2.4-11.2-2.7-17.2-2.2c-0.1-4.8-7.6-8.9-12.2-5.6c-10.7,7.7-24.5,3.9-36.7,4.8
					c-0.9,0.1-1.7,0.2-2.6,0.3c-3.5-1.2-6.9-2.2-10.8-2.4c-5.4-0.4-11.3,0.9-16.6-0.5c-4.2-1.1-7.2-4.8-10.3-7.7
					c-4.4-4.2-9.3-7.7-14.7-10.6c-10.1-5.5-21.5-11.3-33-12.4c-5.5-0.5-10.9-0.4-16.2-2.3c-5.2-1.9-9-5.4-13.7-8.2
					c-5-2.9-10.2-3.8-15.9-4.3c-6.5-0.7-12.5-3-19-3.8c-5.3-0.7-10.6-0.2-15.4,2.2c-5.2,2.6-9.5,6.7-14.2,10.1
					c-6.8,4.9-14.5,9.2-22.7,11.7c0-0.4,0-0.7,0-1.1c-0.4-3.4-3.7-5.2-6.7-5.9c-10.3-2.4-21,2.4-27.3,10.6c-0.4,0.5-0.8,1.1-1.2,1.6
					c-0.5,0.1-1.1,0.2-1.6,0.4c-6.6,2.6-13.3,5.2-19.4,8.9c-1.4,0.3-2.8,0.7-4.2,1.4c-9.8,4.3-15,14.2-23.7,20.1
					c-8.8,6-19.7,8.6-30.3,7.7c-11.4-1-21.7-5.3-31.2-11.5c-4.7-3.1-9.3-6.2-14.6-8c-5.5-2-11.3-2-17.1-2.5
					c-5.5-0.5-8.6-1.8-12.5-5.7c-3.8-3.8-7.5-7.2-12-10.1c-8.8-5.7-12.5-15.7-20.3-22.6c7.2,0.1,14.3,0.1,21.4-0.3
					c5.8-0.4,2.9-6.9-1.6-7.2c-10-0.6-20-0.4-30-0.1c-1-0.7-2.1-1.4-3.1-2c3.3-0.1,6.6-0.3,9.9-0.6c3.7-0.3,0.9-4.9-1.6-5.1
					c-5.5-0.5-10.9-0.6-16.3-0.6c1.1-2.4,0.4-5.4-3.2-7.4c-8.5-4.7-17.5-5.2-27-5.5c-7.7-0.2-16.5-0.1-22.1-6.3
					c-5.3-5.7-5-13.5-7.2-20.5c1.9,1.2,4,2.3,6.4,3.2c8.6,3.2,14.1-7.1,6-12c-5.1-3.1-8.7-7.9-12.9-12c-4.7-4.6-10.6-8.6-17.1-10.1
					c-6.8-1.5-13.7-0.4-19.2,3.9c-4.5,3.4-7.2,8.5-13.2,9.5c-6.4,1-12.9-0.1-19.4,1.3c-6.9,1.5-13.4,5.1-20.5,5.9
					c-5.1,0.6-10.5-0.6-14.1-4.5c-2.1-2.3-3.4-5.4-3.7-8.4c-0.4-3.7,0.8-7.2-0.2-10.8c-1.5-5.3-5.8-7.4-8.4-11.8
					c-2.5-4.3,0-10.9,0.4-15.5c1.2-12.8-7.5-20.9-19.7-22.6c-4.1-0.6-9.5,0.4-13.3-1.3c-4.3-1.9-6.1-8.7-8-12.6
					c-2.9-5.8-7.6-10.5-10.3-16.3c-2.8-5.8-3.3-12.5-3.4-18.9c-0.2-10.4,0.1-20.8-1.1-31c2.3,0,4.6-0.1,6.9-0.2
					c1.8-0.1,0.7-2.5-0.6-2.6c-2.2-0.1-4.5-0.2-6.7-0.2c-0.6-4.2-1.5-8.3-2.8-12.4c-1.1-3.3-2.4-6.6-4-9.6c2.5-0.4,4.6-2.1,4-5.2
					c-1.4-8-5.4-13.9-11.7-18.9c-2.8-2.2-5.8-4-8.8-5.9c-3.3-2.1-4.8-4.7-6.4-8.2c-3.5-7.6-7.5-15.6-9.4-23.8
					c-2.1-8.8,0.9-17.4,0.9-26.3c0-8.4-2.1-16.6-1.9-25c0.3-9.1,2.3-18,4.7-26.8c1.1-3.8,2.1-7.7,3.4-11.4c1.5-4.5,4.1-5.5,7.9-7.9
					c6.4-4.1,9.1-10.9,12.6-17.3c3.4-6.3,8-12.1,14.2-15.7c6.6-3.9,14.1-4.7,19.2-11c2.3-2.8,3.7-5.4,7.6-5.9
					c4.3-0.5,8.8,0.2,13.2,0.3c8.7,0.1,17.8-1.4,26-4.6c6.6-2.5,13.5-7.9,13.6-15.6c0.1-7.6-7-13.1-13.7-15c-3.8-1.1-7.6-1-11.5-0.9
					c-4.6,0-8.4-1.1-12.8-2.1c-8.3-1.8-15.6,0-23,3.7c-8.4,4.3-16.6,7.8-26.2,8.4c-5.5,0.3-10.7-1-16.2-1.3
					c-2.3-0.1-4.6-0.1-6.9,0.1c1.8-0.2,3.6-0.5,5.4-0.9c3-0.6,0.8-3.8-1.2-4.1c-8.3-1.5-16.8-1.2-25.2-1.2c-2.4,0-4.8,0-7.2,0
					c-0.2-0.2-0.3-0.4-0.5-0.6c-5.8-8.6,2.3-18,6.6-25.3c0.5-0.8-0.8-1.8-1.5-1.3c-6.4,5.2-12.5,13.2-13.5,21.6
					c-3.9-0.1-8,0.7-11.7,1.2c-0.1,0-0.1,0.2,0,0.2c3.6,0.4,7.7,1.3,11.6,1.2c0,1,0.1,2.1,0.3,3.1c-2.5,0.1-5,0.2-7.5,0.4
					c-0.6,0-1.5,0.6-1.7,1.2c-0.4,1.1-9.1,0.5-10.2,0.6c-3.5,0.2-7,0.7-10.6,0.9c-0.2,0-0.1,0.3,0.1,0.3c6.1,0.3,12.1,0.9,18.3,1.1
					c2.7,0.1,2.9,0.7,5.2,1.5c2.6,0.9,6.2,0.5,9.1,0.5c0,0,0,0,0,0c4.2,6.8,11.7,11.5,19.6,12.5c8.8,1.2,17.4-1.5,26.2-0.5
					c8.6,1,16.9,0.8,25.3-1.7c8.5-2.6,16-8.1,24.8-9.8c4.2-0.8,7.4,0.3,11.4,1.5c4.9,1.6,9.7,2,14.9,1.9c1.3,0,5.6-0.7,6.5,0.5
					c1.3,1.8-3.5,4.4-4.8,5c-7.7,3.9-16.7,5.3-25.2,5.3c-8.3,0-16,0.1-21.7,7c-2.3,2.8-3.9,5.7-7.1,7.5c-3.6,2-7.8,2.9-11.5,4.9
					c-6.3,3.4-11.2,9-15.2,14.8c-4,5.8-6.7,14.3-12.7,18.3c-2.9,1.9-6.2,2.9-8.6,5.5c-2.8,3-3.9,7.2-5.1,11.1
					c-5.3,17.3-8.9,33.9-6.7,52.1c1.2,10.2-0.8,19.6-1.4,29.7c-0.6,10,1.6,19.5,5.4,28.6c4,9.5,8,17.4,17.1,23
					c4.2,2.6,7.9,5.7,11.5,9.1c1.3,2.4,2.4,4.8,3.4,7c2.9,6.4,4.7,13.1,5.4,20.1c0.2,1.5,0.3,3,0.3,4.5c-8.2,0.2-16.4,0.8-24.5,1.4
					c-0.2,0,0,0.2,0.1,0.2c8.2,0.6,16.4,1.1,24.5,1.4c0.1,11.1-1.7,22.1-1.4,33.2c0.1,4.4,0.5,9,1.6,13.4c-2.4,0-4.7,0.2-7,0.3
					c-4.1,0.2-7.9,1.3-11.9,1.7c-0.4,0-0.1,0.5,0.2,0.6c6.7,0.5,13.3,2,20.1,2c0,0.1,0,0.1,0.1,0.2c2.4,6.5,7.2,11.7,9.7,18.1
					c2.1,5.2,3.8,10.7,7.2,15.2c1.9,2.5,4.3,4.5,6.9,5.9c-4.8,0.1-9.5,0.2-14.3,0c-10-0.3-20-0.1-29.9,0.9c-0.1,0,0,0.2,0.1,0.2
					c9.5,0.9,19.1,1.1,28.6,1c6.9-0.1,13.7,0.1,20.6,0.1c2,0.6,4,1,6,1.3c2.2,0.2,4.4,0.3,6.6,0.4c1.4,0,5.2-0.4,6.3,0.7
					c0.4,0.4,0.6,0.9,0.7,1.6c-3,7-3.4,13.9-1.4,21.7c1.1,4.1,3,7.9,5,11.7c2.8,5,3.4,9.2,4,14.8c1.4,13.1,8.1,23.9,18.2,29.9
					c-8.3-0.1-16.6,0.1-24.6,1.5c-0.2,0,0,0.3,0.1,0.4c10.4,1.7,21.3,1.6,32,1.4c3.8,1.2,7.9,1.7,12.3,1.6c3.3-0.1,6.4-0.7,9.3-1.6
					c3.1,0,6.1,0,9.2,0c7.5,0,14.8-0.7,22.2-1.1c0.9-0.1,0.2-1.1-0.4-1.1c-7.4-0.4-14.7-1.1-22.2-1.1c-0.3,0-0.5,0-0.8,0
					c2.9-1.5,5.8-3.1,8.9-4.7c8.3-4.4,17.2-1.9,25.9-4.7c5.4-1.7,14.6-11.6,19.1-3.4c1.5,2.7,1.7,6,1.9,9.2
					c-3.4-0.1-6.9,0.7-10.3,0.8c-4.7,0.1-9.4,0.3-14.1,0.9c-0.1,0,0,0.1,0,0.1c4.3,0.5,8.5,0.7,12.8,0.8c3.9,0.1,8.1,1.1,12.1,0.9
					c0.8,4.9,2.4,9.3,5.3,13.4c6.5,9.3,16.6,13.9,27.5,15.5c5.1,0.7,10.2,0.7,15.4,0.9c-11.7,0.5-23.3,1.2-35,2.2
					c-0.1,0,0,0.2,0.1,0.2c13.2,1.1,26.4,1.9,39.7,2.4c3.3,0.1,6.5,0.3,9.7,0.4c1.7,1.1,3.4,2.2,5,3.4c-1.9,0.2-3.9,0.5-5.8,0.6
					c-6.8,0.5-13.3,0.8-20,1.8c-0.2,0,0,0.3,0.1,0.3c6,0.9,11.9,1.4,18,1.7c5.3,0.2,10.6,1.1,15.9,1.5c0.9,0.7,1.9,1.4,2.8,2
					c4.5,3.3,8.6,6.9,11.6,11.6c2.8,4.5,4.8,9.4,8.7,13.1c3.9,3.8,9,6,12.9,9.8c4.1,3.9,7.4,8.2,12.4,11c8.3,4.6,17.9,2.9,26.6,5.1
					c3.8,3,7.1,6.5,10.9,9.8c12.5,10.6,28.8,17.3,45.2,17.7c15.4,0.3,30.7-4.5,42-15.3c4.5-4.3,7.8-9.8,11.8-14.5
					c6.4-0.2,12.9-1.2,19.2-1.5c0.1,0,0-0.2-0.1-0.2c-5.3-0.2-10.8-1-16.3-1.4c0.4-0.4,0.9-0.8,1.3-1.2c1.1-1,2.3-1.8,3.5-2.7
					c0.2,0,0.3-0.1,0.5-0.1c14.5,0.7,29.4-1.5,43.8-2.6c0.2,0,0.1-0.3-0.1-0.3c-8.4-0.6-16.9-1.6-25.5-2.2c3.2-2.5,5.4-5.9,8-9.3
					c0.2-0.3,0.4-0.6,0.7-0.8c4.9,0.4,9.8,1.3,14.8,1c10.7-0.6,20.7-4.4,29.9-9.7c4.5-2.6,8.7-5.5,12.8-8.6
					c4.7-3.6,8.8-7.1,15.1-6.2c5.3,0.7,10.3,2.8,15.5,3.6c5.3,0.9,9.5,0.9,13.9,3.6c-2.9-0.1-5.9-0.2-8.8-0.3
					c-4.7-0.1-9.2,0.5-13.8,1c-4.6,0.5-9.5,0.1-14,1.5c-0.2,0.1,0,0.2,0.1,0.3c5.1,1.4,10.5,1.1,15.8,1.6c5.3,0.6,10.4,1,15.8,0.8
					c4-0.1,8-0.3,12-0.4c7.3,4.3,15.2,6.7,24,7.3c5.6,0.4,11,1.7,16.1,3.6c0.5,0.4,0.9,0.7,1.3,1.1c5,4.3,8.7,10,12.8,15.1
					c2,2.5,4.2,4.7,6.6,6.8c-2.8,0-5.7,0.1-8.5,0.1c-10.1,0.1-19.8,0.4-29.8,1.8c-0.2,0-0.1,0.3,0.1,0.3c10.3,1.3,20.4,1.7,30.8,1.8
					c4.3,0,8.6,0.1,13,0.1c2.3,1.5,4.7,2.7,7.2,3.8c-8.2,0.2-16.4,0.4-24.7,1c-0.2,0-0.1,0.3,0.1,0.3c10.5,0.7,20.9,0.9,31.4,1.1
					c1.7,0.5,3.5,0.8,5.3,1.1c5.6,0.8,11.1,0.3,16.5-0.5c1.6,0,3.2,0.1,4.7,0.1c0.5,0.1,0.9,0.1,1.4,0.2c6.4,1.2,12.5,3.5,18.6,5.4
					c-0.4,1.2-0.7,2.9-0.7,3.2c0,1.9,0.8,3.6,2,5c2.8,3.1,7.1,3.7,11,4.3c11,1.7,22.3,2.5,33.4,2.2c9.8-0.3,21.2-0.6,30.6-3.7
					c4.1-1.4,5.3-4.9,8.6-7.1c3.2-2.2,8.6-2.2,12.4-2.3c1.7,0,0.7-2-0.2-2.4c-6.9-3.1-15-5.4-21.3,0.3c-1.7,1.5-2.6,3.1-4.9,3.9
					c-2.5,0.8-5.3,1-7.8,1.3c-5.6,0.7-11.2,0.8-16.8,0.6c-4.1-0.1-8.1-0.4-12.1-0.7c-0.4-0.8-1.3-1.6-2.2-1.6
					c-3.8,0-7.8-0.3-11.6,0.1c-0.5,0-1,0.1-1.5,0.2c-1.3-0.1-2.7-0.2-4-0.3c-1.4-0.1-3-0.4-4.4-0.3c-0.1,0-0.3,0-0.4,0
					c0-0.2,0.1-0.4,0.1-0.6c0.7,0.1,1.4,0.2,2.1,0.2c11.5,0.8,21.6-4,32.2-7.5c11.6-3.8,23.3-2,35.2-3.1c5.6-0.5,10.9-2.2,16.5-3.1
					c2.1-0.3,3.9-0.4,5.8-0.2c-3.4,0.6-6.4,2.1-5.8,5.6c1.1,6,12.1,4.9,16.2,5.2c7.1,0.5,15,1.3,21.4-2.6c3.8-2.3,8.2-7.4,6.4-11.9
					c0.1-0.1,0.3-0.2,0.4-0.2c4.7-2.4,9.9-2.3,15-3.6c4.5-1.2,8.7-3.5,12.2-6.5c7.3-6.2,11.7-15.2,12.9-24.6
					c0.8-6.6-0.2-12.7,2.5-19.1c2.4-5.6,5.7-10.8,7.5-16.7c1.2-3.6,1.8-7.7,1.7-11.8c0.9,0,1.7-0.2,2.3-0.3c5.3-1.5,10.9-5,15-8.6
					c0.2-0.2,0.3-0.3,0.5-0.5c2.7,0,5.4-0.1,8.1-0.1c7.2-0.1,16.1,1,23-1.3C1043.7,604.5,1043.4,604,1043.1,604z M75.8,167
					c-3.4,0.5-6.8,0.5-9.9-0.3c5,0.1,10,0,14.9-0.4C79.1,166.5,77.5,166.7,75.8,167z M933.5,703.3c-3.4,3.2-8.4,3.8-12.9,3.7
					c-4.3,0-8.6-0.5-12.8-0.8c-0.6,0-1.3-0.1-1.9-0.1c-2.5,0.1-2.5-0.2-0.1-0.7c1.3-1.1,2.5-2,3.9-2.7c1.5,0.4,3,0.9,4.6,1.3
					c5.1,1.4,10.1,1.8,15.2,0.3c1.7-0.5,3.2-1.2,4.7-2C934.1,702.7,933.8,703,933.5,703.3z"/>
				<path opacity="0.67" fill="#74EDE4" d="M799.1,716.6c-6.5-0.5-12.9,0-19.3,0.5c-0.2,0-0.1,0.3,0.1,0.3c6.5,0.5,13,1.1,19.5,0.5
					C800.3,717.8,799.8,716.6,799.1,716.6z"/>
				<path opacity="0.67" fill="#74EDE4" d="M201.5,624.3c-5.8-0.1-11.6,0.2-17.4,0.4c-0.1,0,0,0.2,0.1,0.2
					c5.9,0.1,11.7,0.4,17.7,0.4C202.5,625.2,202,624.3,201.5,624.3z"/>
				<path opacity="0.67" fill="#74EDE4" d="M232.1,624.1c-6.4-0.5-12.9,0.4-19.3,0.6c-0.1,0,0,0.1,0,0.1c6.5,0.2,13,1.2,19.5,0.6
					C233.3,625.4,232.8,624.1,232.1,624.1z"/>
				<path opacity="0.67" fill="#74EDE4" d="M353.6,658.6c-7.2-0.2-14.4,0.4-21.6,0.2c-7-0.2-13.9-0.5-20.9-0.4
					c-14,0.2-28.1,0.3-42.1,0.8c-0.3,0-0.1,0.4,0.1,0.4c14.2,0.5,28.5,0.6,42.7,0.8c6.9,0.1,13.7-0.2,20.6-0.4
					c7.3-0.2,14.5,0.4,21.8,0.2C355.2,660,354.4,658.6,353.6,658.6z"/>
				<path opacity="0.67" fill="#74EDE4" d="M134.7,527.3c-7.9,0.2-15.8,0.3-23.7,0.8c-0.1,0,0,0.2,0.1,0.2
					c8.1,0.4,16.2,0.6,24.3,0.8C136.5,529.1,135.7,527.3,134.7,527.3z"/>
				<path opacity="0.67" fill="#74EDE4" d="M95.5,182c1.1-0.1,0.5-1.6-0.3-1.6c-11.9-1-23.8-0.2-35.7,0.7c-0.1,0,0,0.2,0.1,0.2
					C71.4,182.2,83.5,183.1,95.5,182z"/>
				<path opacity="0.67" fill="#74EDE4" d="M114.7,189.4c0.8,0,0.2-1.1-0.4-1.1c-5.2-0.2-10.4,0.2-15.6,0.5c-0.1,0,0,0.2,0.1,0.2
					C104.1,189.2,109.3,189.6,114.7,189.4z"/>
				<path opacity="0.67" fill="#74EDE4" d="M669.1,667c-7.6-0.5-15.1-0.4-22.7,0.4c-0.2,0-0.1,0.3,0.1,0.3
					c7.7,0.7,15.3,0.9,22.9,0.4C670.2,667.9,669.6,667,669.1,667z"/>
			</g>
			<g>
				<g>
					<path fill="#727024" d="M192.4,167.7c1-4-0.4-8.3,0.7-12.2c1.9-6.3,10-10.3,9.3-16.8c-0.2-2-1.3-3.8-1.5-5.7
						c-0.3-2.1,0.4-4.2,0.7-6.2c1.1-9.2-7.2-19.4-16.4-19.2c-0.7-1-2-1.2-3.2-1.3c-4.7-0.3-9.5,0.3-14.2-0.1
						c-4.7-0.4-9.7-2-12.6-5.8c-1.1-1.4-1.9-3.1-3.4-4.1c-2.5-1.7-6.5-1.1-8.2-3.7c2.6-2.8,7.1-2.3,10.3-4.2c0.6-0.4,1.2-1,1-1.7
						c-0.3-0.6-1.2-0.6-1.9-0.5c-5.1,0.8-10.3,1.5-15.4,2.3c-1.9,0.3-3.8,0.6-5.3,1.7c-1.6,1.2-2.4,3.2-3.8,4.8
						c-4.2,4.7-12.4,4-16.5,8.8c-0.5,0.6-1.1,1.4-1.9,1.5c-0.5,0.1-1-0.1-1.5-0.3c-3.3-1.3-7-1.7-10.5-1c-3.6,0.6-7.1,2.3-10.7,1.8
						c-2-0.2-3.9-1.1-5.8-1.6c-4.5-1.2-9.3-0.4-14-0.6c-1.9-0.1-4-0.4-5.3-1.8c-1.3-1.3-1.6-3.2-2.2-4.9c-1.3-3.7-4-6.7-5.1-10.5
						c-1.5-5.2,0.5-10.6,2.2-15.9c-6.8,9.4-0.5,22.9,1.4,34.7c1.6,10.1-0.4,20.4-3.2,30.2c-1.8,6.3-3.9,12.7-3.4,19.2
						c0.5,6.5,4.3,13.3,10.6,15c3.9,1,8,0,12,0c3.7,0,7.2,0.8,10.8,1.4c17.4,2.7,35.6-0.5,51-9.2c2.8-1.6,5.6-3.4,8.8-4
						c6.9-1.4,13.7,3,20.7,3.1c6.1,0.1,12.9-2.8,17.8,0.7c4.2,3,4.4,9.5,1.6,13.8C188.8,173.8,191.5,171.2,192.4,167.7z"/>
					<path fill="#3A2A1C" d="M192.4,167.7c1-4-0.4-8.3,0.7-12.2c1.9-6.3,10-10.3,9.3-16.8c-0.2-2-1.3-3.8-1.5-5.7
						c-0.3-2.1,0.4-4.2,0.7-6.2c1.1-9.2-7.2-19.4-16.4-19.2c-0.7-1-2-1.2-3.2-1.3c-4.7-0.3-9.5,0.3-14.2-0.1
						c-4.7-0.4-9.7-2-12.6-5.8c-1.1-1.4-1.9-3.1-3.4-4.1c-2.5-1.7-6.5-1.1-8.2-3.7c2.6-2.8,7.1-2.3,10.3-4.2c0.6-0.4,1.2-1,1-1.7
						c-0.3-0.6-1.2-0.6-1.9-0.5c-5.1,0.8-10.3,1.5-15.4,2.3c-1.9,0.3-3.8,0.6-5.3,1.7c-1.6,1.2-2.4,3.2-3.8,4.8
						c-4.2,4.7-12.4,4-16.5,8.8c-0.5,0.6-1.1,1.4-1.9,1.5c-0.5,0.1-1-0.1-1.5-0.3c-3.3-1.3-7-1.7-10.5-1c-3.6,0.6-7.1,2.3-10.7,1.8
						c-2-0.2-3.9-1.1-5.8-1.6c-4.5-1.2-9.3-0.4-14-0.6c-1.9-0.1-4-0.4-5.3-1.8c-1.3-1.3-1.6-3.2-2.2-4.9c-1.3-3.7-4-6.7-5.1-10.5
						c-1.5-5.2,0.5-10.6,2.2-15.9c-6.8,9.4-0.5,22.9,1.4,34.7c1.6,10.1-0.4,20.4-3.2,30.2c-1.8,6.3-3.9,12.7-3.4,19.2
						c0.5,6.5,4.3,13.3,10.6,15c3.9,1,8,0,12,0c3.7,0,7.2,0.8,10.8,1.4c17.4,2.7,35.6-0.5,51-9.2c2.8-1.6,5.6-3.4,8.8-4
						c6.9-1.4,13.7,3,20.7,3.1c6.1,0.1,12.9-2.8,17.8,0.7c4.2,3,4.4,9.5,1.6,13.8C188.8,173.8,191.5,171.2,192.4,167.7z"/>
					<path opacity="0.45" fill="#363636" d="M76.6,234.5c-1.6,0.6-3.3,1-4.8,1.9c-3,2-3.7,6-4.2,9.6c-0.9,6.6-1.7,13.1-2.6,19.7
						c-0.1,0.8-0.4,1.9-1.2,2c-0.3,0.9-1,2-1.3,2.9c-2.3,7-2,14.6-1.1,21.9c0.9,7.3,2.3,14.6,2.3,22c0,4.9-0.6,10.1,1.5,14.6
						c1.8,3.7,5.6,6.7,5.7,10.8c0.2,5.5,1.2,11,2.1,16.4c0.7,4.1,1.6,8.3,4.2,11.5c2.4,3,6,4.8,9.4,6.5c1.6,0.8,3.3,1.6,4.9,2.4
						c0.7,17.3,12.1,32.9,15.4,49.9c2.2,11.3,0.9,23,1.2,34.5s2.6,23.7,10.5,32.1c2.5,2.7,5.5,4.8,8.2,7.3c2.4,2.2,4.6,4.7,7.3,6.5
						c3.5,2.2,7.7,3,11.8,3.8c3.4,0.7,6.8,1.3,10.3,2c3.6,3.8,5.4,9.6,5.7,14.8s0,10.5,1.5,15.6c1.4,4.9,4.5,9.2,5.9,14.1
						c1.7,5.8,0.9,12.4,3.9,17.7c2.6,4.6,7.7,7.3,12.9,8.4c5.2,1,10.5,0.5,15.8,0c2.8-0.3,5.8-0.6,8.3-2c1.6-0.9,2.9-2.2,4.4-3.1
						c2.4-1.4,5.2-1.7,7.9-2.1c8.3-1,17-2.3,23.3-7.7c2.8-2.3,5.2-5.5,8.8-6.3c4.4-0.9,9.9,1.8,12.8-1.6c0.9,2.9,2.6,5.8,3.6,8.7
						c3.7,11.4,7.4,23,13,33.6c1.4,2.7,3,5.4,5.3,7.4c1.9,1.7,4.2,2.9,6.6,4c7.8,3.5,16.2,5.6,24.7,6.4c4.3,0.4,9.2,0.7,12.1,3.9
						c1.2,1.4,1.9,3.1,2.8,4.7c4,6.5,12.2,9,19.6,10.9c4.8,1.2,8,5.7,10.3,10.1s4.2,9.2,8.1,12.3c2.6,2.1,6,3.1,8.3,5.6
						c2,2.1,3,4.9,4.5,7.4c3.1,5,8.3,8.3,13.8,10.2c5.5,1.9,11.4,2.4,17.2,2.7c2.5,0.1,5.1,0.2,7.5,1c5.2,1.7,8.8,6.2,13.2,9.4
						c10.3,7.5,24.1,7.3,36.8,6.8c6.3-0.2,12.8-0.5,18.8-2.5c14-4.7,23.9-18.1,38.1-22.2c3.2-0.9,6.5-1.3,9.5-2.8
						c3.9-1.8,6.8-5.2,10.1-8s7.4-5.2,11.7-4.4c20.9,3.8,43.3-3.7,61.3-15.1c1.6-1,3.2-2.1,5-3.1c4.1-2.2,8.9-3.4,13.6-3
						c5.9,0.5,11.6,3.5,17.5,2.9c1.6,1.6,3.3-1.7,5.4-0.9c1.3,0.5,1.6,2.2,2.1,3.5c1.5,3.4,5.5,4.6,9.1,5.6c7.9,2,15.8,4,23.7,6
						c3.6,0.9,7.5,1.8,11.1,0.8c1.9-0.5,4-1.6,5.7-0.5c1.1,0.6,1.5,1.9,2.3,2.8c3,3.5,9.4,1.6,12.9,4.7c0.9,0.8,1.5,1.8,2.3,2.7
						c1.3,1.5,2.9,2.6,4.6,3.7c8,5.5,16.1,11,25,15c3.6,1.6,7.6,3.1,11.4,2.1c2.4-0.6,4.6-2.1,7-1.8c1.8,0.3,3.2,1.5,4.6,2.5
						c5.6,4,12.7,5.7,19.6,4.9c6.8-0.8,13.9-4.1,20.3-1.5c14.7,5.9,31.5,4.9,47,1.7c6.6-1.3,13.2-3.4,19.9-3.2
						c3.5,0.1,6.9,0.8,10.4,0.9c3.5,0.2,7.1-0.2,10.1-1.9c6.7-4,14.9-4.4,22.6-5.3c2.1-0.2,4.3-0.6,5.9-2.1c0.7-0.7,1.3-1.6,2.1-2.1
						c1.5-1,3.4-0.6,5.1-0.6c5.1,0,9.6-3.7,12.6-7.8c3-4.1,5.1-8.9,8.1-13.1c1.4-1.9,1.7-4.2,2.7-6.4c0.7-1.4,1.4-2.8,1.9-4.3
						c2.2-6.7,0.5-14.1,2.4-20.9c1.8-6.5,6.9-12.2,6.3-18.9c-0.3-2.7-1.4-5.9,0.5-7.9c0.8-0.8,1.9-1.3,2.9-1.6
						c3.2-1.2,6.4-2.3,9.7-3.5c1.5-0.5,3.4-1.1,4.7-2c4.6-3.1,9.3-6.5,11.5-11.6c2.2-5.3,1.4-11.8,4.9-16.3c2.3-2.9,6.1-4.7,7.5-8.1
						c0.5-1.3,0.6-2.8,0.7-4.3c0.1-3.3,0-6.6-0.2-9.9c-0.4-5.5,2.1-10.9,3.7-16.2c1.6-5,2.5-10.7,0.2-15.4c1,6-0.8,12.3-4.8,16.9
						c-0.7,0.8-1.4,1.5-2.4,2c-1.6,0.8-3.5,0.7-5.4,0.6c-3.2-0.2-6.3-0.4-9.5-0.5c-3.1-0.2-6.2-0.3-9.2-1c-2.2-0.5-4.4-1.3-6.6-1.8
						c-4.5-1-9.1-0.8-13.7-0.7c7.3,0.7,14.7,1.6,21.9,2.9c1.8,0.3,3.6,0.6,5.1,1.7c1,0.7,1.9,1.9,1.7,3.1c-0.3,1.8-2.5,2.4-4.3,2.9
						c-5.9,1.5-10.2,5-14,9.7c-3.1,3.8-6.4,8.1-6.3,13.1c0.1,3.2,1.6,6.3,1.8,9.5c0.2,4.4-2.2,8.5-3.1,12.8
						c-0.7,3.3-0.5,6.8-2.3,9.7c-0.6,1-1.4,1.8-2.1,2.7c-2.2,2.8-3.4,6.3-5.3,9.4c-1.8,3.1-6,6-9.5,6.8c-3.7,0.9-6.1,4.3-9.3,6.4
						c-3.2,2.2-7.2,2.9-11,3.6c-2.3,0.4-4.7,0.8-7,0.8c-2.9,0-5.8-0.7-8.6-0.8c-3.3-0.1-6.6,0.7-9.9,1.1c-9.2,1.2-18.5-0.5-27.4-3.3
						c-3.4-1-6.7-2.2-10.2-2.7c-3.6-0.5-7.3-0.2-10.9,0c-8.4,0.6-16.9,1.2-24.9,3.8c-3.6,1.1-8,3.1-10.7,0.5c-0.9-0.8-2-1.4-3.1-1.6
						c-1.6-0.3-3.2,0.7-3.4,2.3c-0.1,0.7-0.5,1.4-1,1.9c-1.1,0.9-2.6,1.1-4.1,1.3c-2.5,0.3-5.1,0.6-7.7,0.4
						c-3.5-0.2-6.9-1.3-10.3-2.2c-5.7-1.4-11.6-1.9-17.4-2.8c-12-2-23.6-5.9-35.1-9.8c-3.1-1-6.2-2.1-8.8-4.1
						c-3.5-2.7-5.6-6.7-8.5-9.9c-1.4-1.5-2.9-2.9-4.5-4.2c-6.6-5.6-13.4-10.9-20.4-16c-6.8-4.9-14.2-10.1-22.7-10.8
						c-6.8-0.6-14,0.7-20.5,3c-2.9-0.9-6.2-0.1-8.9,1.4c-2.7,1.4-5.1,3.5-7.6,5.2c-8.2,5.6-18.1,8-27.7,10.4l-14.6,3.5
						c-1.7,0.4-3.5,0.3-5-0.4c-4.7-2.2-3.5-7.6-1.2-11.2c1.9-3,4.5-5.9,4.6-9.5c-3.4,1.8-5.3,5.4-6.9,8.9c-1.5,3.2-3.1,6.5-4.6,9.7
						c-0.9,1.9-1.9,3.9-3.6,5.1c-1.4,1-3.1,1.4-4.7,2c-11.4,3.8-19.4,14.5-30.5,18.9c-9,3.6-20,3.2-28.2,8.3
						c-5.4,3.4-10.9,6.8-16.3,10.3c-2.5,1.6-5.1,3.2-7.9,3.8c-2.9,0.6-6.2,0-8.1-2.2c-1.2-1.3-2-3.3-3.7-3.5
						c-2.3,1.3,2.1,5.2,0.4,7.2c-0.3,0.3-0.7,0.5-1.1,0.7c-15,6.6-32.3,2.1-47.9-2.7c-8-2.4-16.1-5-23-9.6c-1.5-1-1.4-3.2,0.1-4
						c2.2-1.2,5.7-2.5,8.6-2.9c0.6-0.1,0.7-1,0.1-1.1c-2.5-0.6-5.7-0.6-8-0.4c-9,0.6-18.2,1.1-26.9-1.1c-7.4-1.9-14.2-5.7-20.7-9.7
						c-2.5-1.5-5-3-7-5.1c-2.3-2.4-3.9-5.5-5.5-8.4l-13.3-25.8c-1.4-2.7-3.2-5.3-5.3-7.5c-5.8-5.9-13.6-9-21.7-7.5
						c-6,1.1-12.1,2.2-18.1,1.6c-4.2-0.4-8.3-1.6-12.4-2.4c-3.8-0.7-7.6-1.1-11.3-2.1c-3.7-1-7.3-2.7-9.9-5.6
						c-1.9-2.1-3-5.4-1.5-7.7c4.6,0.9,9.1,1.8,13.7,2.7c1.3,0.2,3.1,0.2,3.3-1.1c-4.7-4.3-12.1-3.8-17.8-6.7c-4.9-2.5-8.2-7.6-9-13
						s0.5-11,3.3-15.8c0.7-1.1,1.4-2.2,1.6-3.5c0.1-1.1-0.1-2.2-0.3-3.2c-0.7-3.8-0.9-8.8-5.6-9.3c-1-0.1-1.9,0-2.9,0.3
						c-3.5,1.1-7.3,2-11,0.9c-1.5-0.5-2.8-1.5-4-2.7c-2.6-2.7-6.6-3.8-10.2-2.9c-2.2,0.6-4.2,1.8-6.1,2.9
						c-11.8,6.9-25.4,10.6-39.1,10.8c-3.2,0-6.4-1.2-8.6-3.5c-0.5-0.5-1-1.1-1.1-1.8c-0.3-1.8,1.7-3.2,3.5-3.7
						c1.8-0.5,3.9-0.9,4.8-2.6c0.7-1.3,0.3-2.9,0.3-4.4c0-4.9,4.2-8.6,8.2-11.4c4-2.8,8.5-5.7,9.8-10.4c0.9-3.2-0.1-6.7-1.7-9.6
						c-1.7-2.9-4-5.3-6.2-7.8c-5.2-5.8-10.2-12.5-17.5-15c-2.8-1-5.8-1.3-8.8-1.6c-5.9-0.6-12-1.1-17.9-2.1
						c-3.3-0.6-6.6-1.1-9.9-1.7c-2.6-0.4-5.4-0.9-7.5-2.7c-5.9-4.9-2.2-15.8-7.8-20.9c-1.9-1.7-4.4-2.4-6.7-3.6
						c-5.2-2.8-8.1-8.6-9.2-14.4c-1.1-5.8-0.6-11.7-0.4-17.6c0.2-5.4,0.3-11.6,4.4-15.2c1.3-1.2,3-2,4.3-3.2
						c3.2-3.2,4.5-7.3,3.3-11.6c-1-3.8,1.6-8.2,5.5-9.1c1.9-0.5,4.1-0.1,5.8-1.2c0.6-0.4,1.2-0.9,0.9-1.8c-0.2-0.7-0.9-1.3-1.7-1.5
						c-7.3-1.8-14.9-1.1-22.4-1.9c-7.2-0.7-14.8-3.1-18.9-9c-2.4-3.4-3.5-7.7-6-11c-3.5-4.6-9.6-7.1-12.2-12.3
						c-1.8-3.6-1.5-7.8-1.2-11.8c0.6-7,1.1-14.1,1.7-21.1c0.4-4.6,1-9.8,4.5-12.8c3.9-3.3,9.6-2.6,14.7-3.2c0.4-0.1,0.9-0.1,1.2-0.4
						c0.8-0.9-0.5-2.2-1.7-2.3c-1.4-0.1-3.1,0.4-4-1.2c-0.4-0.8-0.3-1.9,0.1-2.7l2.2-3.7c-0.1,0.1-0.2,0.3-0.3,0.4
						C82.8,230.3,80.1,233.1,76.6,234.5z"/>
					<path fill="#3A2A1C" d="M76.6,234.5c-1.6,0.6-3.3,1-4.8,1.9c-3,2-3.7,6-4.2,9.6c-0.9,6.6-1.7,13.1-2.6,19.7
						c-0.1,0.8-0.4,1.9-1.2,2c-0.3,0.9-1,2-1.3,2.9c-2.3,7-2,14.6-1.1,21.9c0.9,7.3,2.3,14.6,2.3,22c0,4.9-0.6,10.1,1.5,14.6
						c1.8,3.7,5.6,6.7,5.7,10.8c0.2,5.5,1.2,11,2.1,16.4c0.7,4.1,1.6,8.3,4.2,11.5c2.4,3,6,4.8,9.4,6.5c1.6,0.8,3.3,1.6,4.9,2.4
						c0.7,17.3,12.1,32.9,15.4,49.9c2.2,11.3,0.9,23,1.2,34.5s2.6,23.7,10.5,32.1c2.5,2.7,5.5,4.8,8.2,7.3c2.4,2.2,4.6,4.7,7.3,6.5
						c3.5,2.2,7.7,3,11.8,3.8c3.4,0.7,6.8,1.3,10.3,2c3.6,3.8,5.4,9.6,5.7,14.8s0,10.5,1.5,15.6c1.4,4.9,4.5,9.2,5.9,14.1
						c1.7,5.8,0.9,12.4,3.9,17.7c2.6,4.6,7.7,7.3,12.9,8.4c5.2,1,10.5,0.5,15.8,0c2.8-0.3,5.8-0.6,8.3-2c1.6-0.9,2.9-2.2,4.4-3.1
						c2.4-1.4,5.2-1.7,7.9-2.1c8.3-1,17-2.3,23.3-7.7c2.8-2.3,5.2-5.5,8.8-6.3c4.4-0.9,9.9,1.8,12.8-1.6c0.9,2.9,2.6,5.8,3.6,8.7
						c3.7,11.4,7.4,23,13,33.6c1.4,2.7,3,5.4,5.3,7.4c1.9,1.7,4.2,2.9,6.6,4c7.8,3.5,16.2,5.6,24.7,6.4c4.3,0.4,9.2,0.7,12.1,3.9
						c1.2,1.4,1.9,3.1,2.8,4.7c4,6.5,12.2,9,19.6,10.9c4.8,1.2,8,5.7,10.3,10.1s4.2,9.2,8.1,12.3c2.6,2.1,6,3.1,8.3,5.6
						c2,2.1,3,4.9,4.5,7.4c3.1,5,8.3,8.3,13.8,10.2c5.5,1.9,11.4,2.4,17.2,2.7c2.5,0.1,5.1,0.2,7.5,1c5.2,1.7,8.8,6.2,13.2,9.4
						c10.3,7.5,24.1,7.3,36.8,6.8c6.3-0.2,12.8-0.5,18.8-2.5c14-4.7,23.9-18.1,38.1-22.2c3.2-0.9,6.5-1.3,9.5-2.8
						c3.9-1.8,6.8-5.2,10.1-8s7.4-5.2,11.7-4.4c20.9,3.8,43.3-3.7,61.3-15.1c1.6-1,3.2-2.1,5-3.1c4.1-2.2,8.9-3.4,13.6-3
						c5.9,0.5,11.6,3.5,17.5,2.9c1.6,1.6,3.3-1.7,5.4-0.9c1.3,0.5,1.6,2.2,2.1,3.5c1.5,3.4,5.5,4.6,9.1,5.6c7.9,2,15.8,4,23.7,6
						c3.6,0.9,7.5,1.8,11.1,0.8c1.9-0.5,4-1.6,5.7-0.5c1.1,0.6,1.5,1.9,2.3,2.8c3,3.5,9.4,1.6,12.9,4.7c0.9,0.8,1.5,1.8,2.3,2.7
						c1.3,1.5,2.9,2.6,4.6,3.7c8,5.5,16.1,11,25,15c3.6,1.6,7.6,3.1,11.4,2.1c2.4-0.6,4.6-2.1,7-1.8c1.8,0.3,3.2,1.5,4.6,2.5
						c5.6,4,12.7,5.7,19.6,4.9c6.8-0.8,13.9-4.1,20.3-1.5c14.7,5.9,31.5,4.9,47,1.7c6.6-1.3,13.2-3.4,19.9-3.2
						c3.5,0.1,6.9,0.8,10.4,0.9c3.5,0.2,7.1-0.2,10.1-1.9c6.7-4,14.9-4.4,22.6-5.3c2.1-0.2,4.3-0.6,5.9-2.1c0.7-0.7,1.3-1.6,2.1-2.1
						c1.5-1,3.4-0.6,5.1-0.6c5.1,0,9.6-3.7,12.6-7.8c3-4.1,5.1-8.9,8.1-13.1c1.4-1.9,1.7-4.2,2.7-6.4c0.7-1.4,1.4-2.8,1.9-4.3
						c2.2-6.7,0.5-14.1,2.4-20.9c1.8-6.5,6.9-12.2,6.3-18.9c-0.3-2.7-1.4-5.9,0.5-7.9c0.8-0.8,1.9-1.3,2.9-1.6
						c3.2-1.2,6.4-2.3,9.7-3.5c1.5-0.5,3.4-1.1,4.7-2c4.6-3.1,9.3-6.5,11.5-11.6c2.2-5.3,1.4-11.8,4.9-16.3c2.3-2.9,6.1-4.7,7.5-8.1
						c0.5-1.3,0.6-2.8,0.7-4.3c0.1-3.3,0-6.6-0.2-9.9c-0.4-5.5,2.1-10.9,3.7-16.2c1.6-5,2.5-10.7,0.2-15.4c1,6-0.8,12.3-4.8,16.9
						c-0.7,0.8-1.4,1.5-2.4,2c-1.6,0.8-3.5,0.7-5.4,0.6c-3.2-0.2-6.3-0.4-9.5-0.5c-3.1-0.2-6.2-0.3-9.2-1c-2.2-0.5-4.4-1.3-6.6-1.8
						c-4.5-1-9.1-0.8-13.7-0.7c7.3,0.7,14.7,1.6,21.9,2.9c1.8,0.3,3.6,0.6,5.1,1.7c1,0.7,1.9,1.9,1.7,3.1c-0.3,1.8-2.5,2.4-4.3,2.9
						c-5.9,1.5-10.2,5-14,9.7c-3.1,3.8-6.4,8.1-6.3,13.1c0.1,3.2,1.6,6.3,1.8,9.5c0.2,4.4-2.2,8.5-3.1,12.8
						c-0.7,3.3-0.5,6.8-2.3,9.7c-0.6,1-1.4,1.8-2.1,2.7c-2.2,2.8-3.4,6.3-5.3,9.4c-1.8,3.1-6,6-9.5,6.8c-3.7,0.9-6.1,4.3-9.3,6.4
						c-3.2,2.2-7.2,2.9-11,3.6c-2.3,0.4-4.7,0.8-7,0.8c-2.9,0-5.8-0.7-8.6-0.8c-3.3-0.1-6.6,0.7-9.9,1.1c-9.2,1.2-18.5-0.5-27.4-3.3
						c-3.4-1-6.7-2.2-10.2-2.7c-3.6-0.5-7.3-0.2-10.9,0c-8.4,0.6-16.9,1.2-24.9,3.8c-3.6,1.1-8,3.1-10.7,0.5c-0.9-0.8-2-1.4-3.1-1.6
						c-1.6-0.3-3.2,0.7-3.4,2.3c-0.1,0.7-0.5,1.4-1,1.9c-1.1,0.9-2.6,1.1-4.1,1.3c-2.5,0.3-5.1,0.6-7.7,0.4
						c-3.5-0.2-6.9-1.3-10.3-2.2c-5.7-1.4-11.6-1.9-17.4-2.8c-12-2-23.6-5.9-35.1-9.8c-3.1-1-6.2-2.1-8.8-4.1
						c-3.5-2.7-5.6-6.7-8.5-9.9c-1.4-1.5-2.9-2.9-4.5-4.2c-6.6-5.6-13.4-10.9-20.4-16c-6.8-4.9-14.2-10.1-22.7-10.8
						c-6.8-0.6-14,0.7-20.5,3c-2.9-0.9-6.2-0.1-8.9,1.4c-2.7,1.4-5.1,3.5-7.6,5.2c-8.2,5.6-18.1,8-27.7,10.4l-14.6,3.5
						c-1.7,0.4-3.5,0.3-5-0.4c-4.7-2.2-3.5-7.6-1.2-11.2c1.9-3,4.5-5.9,4.6-9.5c-3.4,1.8-5.3,5.4-6.9,8.9c-1.5,3.2-3.1,6.5-4.6,9.7
						c-0.9,1.9-1.9,3.9-3.6,5.1c-1.4,1-3.1,1.4-4.7,2c-11.4,3.8-19.4,14.5-30.5,18.9c-9,3.6-20,3.2-28.2,8.3
						c-5.4,3.4-10.9,6.8-16.3,10.3c-2.5,1.6-5.1,3.2-7.9,3.8c-2.9,0.6-6.2,0-8.1-2.2c-1.2-1.3-2-3.3-3.7-3.5
						c-2.3,1.3,2.1,5.2,0.4,7.2c-0.3,0.3-0.7,0.5-1.1,0.7c-15,6.6-32.3,2.1-47.9-2.7c-8-2.4-16.1-5-23-9.6c-1.5-1-1.4-3.2,0.1-4
						c2.2-1.2,5.7-2.5,8.6-2.9c0.6-0.1,0.7-1,0.1-1.1c-2.5-0.6-5.7-0.6-8-0.4c-9,0.6-18.2,1.1-26.9-1.1c-7.4-1.9-14.2-5.7-20.7-9.7
						c-2.5-1.5-5-3-7-5.1c-2.3-2.4-3.9-5.5-5.5-8.4l-13.3-25.8c-1.4-2.7-3.2-5.3-5.3-7.5c-5.8-5.9-13.6-9-21.7-7.5
						c-6,1.1-12.1,2.2-18.1,1.6c-4.2-0.4-8.3-1.6-12.4-2.4c-3.8-0.7-7.6-1.1-11.3-2.1c-3.7-1-7.3-2.7-9.9-5.6
						c-1.9-2.1-3-5.4-1.5-7.7c4.6,0.9,9.1,1.8,13.7,2.7c1.3,0.2,3.1,0.2,3.3-1.1c-4.7-4.3-12.1-3.8-17.8-6.7c-4.9-2.5-8.2-7.6-9-13
						s0.5-11,3.3-15.8c0.7-1.1,1.4-2.2,1.6-3.5c0.1-1.1-0.1-2.2-0.3-3.2c-0.7-3.8-0.9-8.8-5.6-9.3c-1-0.1-1.9,0-2.9,0.3
						c-3.5,1.1-7.3,2-11,0.9c-1.5-0.5-2.8-1.5-4-2.7c-2.6-2.7-6.6-3.8-10.2-2.9c-2.2,0.6-4.2,1.8-6.1,2.9
						c-11.8,6.9-25.4,10.6-39.1,10.8c-3.2,0-6.4-1.2-8.6-3.5c-0.5-0.5-1-1.1-1.1-1.8c-0.3-1.8,1.7-3.2,3.5-3.7
						c1.8-0.5,3.9-0.9,4.8-2.6c0.7-1.3,0.3-2.9,0.3-4.4c0-4.9,4.2-8.6,8.2-11.4c4-2.8,8.5-5.7,9.8-10.4c0.9-3.2-0.1-6.7-1.7-9.6
						c-1.7-2.9-4-5.3-6.2-7.8c-5.2-5.8-10.2-12.5-17.5-15c-2.8-1-5.8-1.3-8.8-1.6c-5.9-0.6-12-1.1-17.9-2.1
						c-3.3-0.6-6.6-1.1-9.9-1.7c-2.6-0.4-5.4-0.9-7.5-2.7c-5.9-4.9-2.2-15.8-7.8-20.9c-1.9-1.7-4.4-2.4-6.7-3.6
						c-5.2-2.8-8.1-8.6-9.2-14.4c-1.1-5.8-0.6-11.7-0.4-17.6c0.2-5.4,0.3-11.6,4.4-15.2c1.3-1.2,3-2,4.3-3.2
						c3.2-3.2,4.5-7.3,3.3-11.6c-1-3.8,1.6-8.2,5.5-9.1c1.9-0.5,4.1-0.1,5.8-1.2c0.6-0.4,1.2-0.9,0.9-1.8c-0.2-0.7-0.9-1.3-1.7-1.5
						c-7.3-1.8-14.9-1.1-22.4-1.9c-7.2-0.7-14.8-3.1-18.9-9c-2.4-3.4-3.5-7.7-6-11c-3.5-4.6-9.6-7.1-12.2-12.3
						c-1.8-3.6-1.5-7.8-1.2-11.8c0.6-7,1.1-14.1,1.7-21.1c0.4-4.6,1-9.8,4.5-12.8c3.9-3.3,9.6-2.6,14.7-3.2c0.4-0.1,0.9-0.1,1.2-0.4
						c0.8-0.9-0.5-2.2-1.7-2.3c-1.4-0.1-3.1,0.4-4-1.2c-0.4-0.8-0.3-1.9,0.1-2.7l2.2-3.7c-0.1,0.1-0.2,0.3-0.3,0.4
						C82.8,230.3,80.1,233.1,76.6,234.5z"/>
				</g>
				<g>
					<path fill="#B5A348" d="M1047.6,307.7c-0.2-8.4-0.5-16.8-0.7-25.2c-0.2-7.6-1.4-14.8-2.4-22.3c-0.9-7.5,0.7-15.2-0.7-22.6
						c-1.1-6-4.4-11.1-8.3-15.7c-4.1-4.9-8.7-9.4-11.3-15.3c-2.3-5.1-3-10.8-5.4-15.9c-6.2-13.4-18.2-20.7-31.5-25.7
						c-11.2-4.2-22.4-7.9-31.4-16.1c-6.8-6.2-11.7-13.6-18.7-19c-20.3-7.5-39.6-18.5-61-20.7c-10.2-1.1-20.6-0.1-30.8,1.1
						c-26.2,3.1-52.2,7.9-77.9,14.2c-36.8,0-74-0.3-110.7-2.9c-7.2-0.5-14.5-1-21.7-0.8c-21.8,0.9-42.7,9.3-64.4,10.8
						c-7.4,0.5-15,0.2-22.3,1.4c-6,1-11.9,1.5-17.9,2.3c-5.4,0.7-10.8,1.4-16.2,1.5c-3.4,0.1-6.7,0-10.1-0.1
						c-9.4-0.4-18.7-1.2-27.9-3c-4.3-0.9-8.6-2-13-2.3c-3.9-0.3-7.8,0.1-11.8-0.2c-11.5-0.9-20.2-5.9-31.7-6.1
						c-16.5-0.2-33.3-0.5-48.8-6.1c-9.8-3.6-18.9-9.2-29.2-11.2c-16.3-3.1-33.8,3.3-49.3-2.6c-5.7-2.2-10.6-5.9-15.5-9.6
						c-10.2-7.7-20.5-15.4-30.7-23.1c-6.6-5-13.3-10-20.9-13c-5.6-2.2-11.6-3.4-17.1-6c-4.3-2.1-8.3-5.1-12.8-6.7
						c-5.2-1.8-10.9-1.7-16.4-2.1c-15.5-1-30.5-5.9-45.8-7.9c-14.6-1.8-29.6-0.9-43.9,2.7c-6.4,1.6-13.3,4.2-16.2,10.1
						c-1.5,2.9-1.8,6.3-3.4,9.1c-2.6,4.5-8.1,6.5-11.5,10.5c-0.3,0.3-0.5,0.7-0.8,1c-1.8,5.4-3.7,10.7-2.2,15.9
						c1.1,3.7,3.8,6.8,5.1,10.5c0.6,1.7,0.9,3.6,2.2,4.9c1.3,1.4,3.4,1.7,5.3,1.8c4.7,0.2,9.5-0.6,14,0.6c1.9,0.5,3.8,1.4,5.8,1.6
						c3.6,0.4,7.1-1.2,10.7-1.8c3.5-0.6,7.2-0.3,10.5,1c0.5,0.2,1,0.4,1.5,0.3c0.8-0.1,1.4-0.9,1.9-1.5c4.1-4.8,12.3-4.1,16.5-8.8
						c1.4-1.5,2.2-3.5,3.8-4.8c1.5-1.1,3.4-1.5,5.3-1.7c5.1-0.8,10.3-1.5,15.4-2.3c0.7-0.1,1.6-0.1,1.9,0.5c0.3,0.6-0.4,1.3-1,1.7
						c-3.3,1.9-7.8,1.5-10.3,4.2c1.7,2.6,5.7,1.9,8.2,3.7c1.5,1,2.3,2.7,3.4,4.1c2.9,3.8,7.8,5.4,12.6,5.8c4.7,0.4,9.5-0.2,14.2,0.1
						c1.2,0.1,2.5,0.3,3.2,1.3c9.3-0.2,17.6,10,16.4,19.2c-0.3,2.1-0.9,4.2-0.7,6.2c0.3,2,1.3,3.8,1.5,5.7
						c0.7,6.5-7.4,10.5-9.3,16.8c-1.2,3.9,0.3,8.2-0.7,12.2c-0.9,3.5-3.6,6.1-7,7.6c-0.2,0.3-0.5,0.7-0.7,1
						c-3.5,4.3-9.2,6.1-14.7,6.8c-5.5,0.6-11.1,0.3-16.6,1.4c-5.9,1.2-11.5,4.1-15.9,8.3c-2,1.9-3.9,4.2-6.4,5.4
						c-3.1,1.5-6.7,1.1-10.1,1.4c-15.3,1.4-25.3,15.8-35.4,27.5l-2.2,3.7c-0.5,0.8-0.6,1.8-0.1,2.7c0.9,1.6,2.5,1.1,4,1.2
						c1.2,0.1,2.5,1.5,1.7,2.3c-0.3,0.3-0.8,0.4-1.2,0.4c-5.1,0.6-10.8,0-14.7,3.2c-3.6,3-4.2,8.1-4.5,12.8
						c-0.6,7-1.1,14.1-1.7,21.1c-0.3,4-0.6,8.2,1.2,11.8c2.6,5.2,8.6,7.7,12.2,12.3c2.5,3.3,3.6,7.6,6,11c4.2,5.9,11.8,8.3,18.9,9
						c7.5,0.7,15.1,0.1,22.4,1.9c0.8,0.2,1.4,0.7,1.7,1.5c0.3,0.9-0.3,1.5-0.9,1.8c-1.7,1-3.9,0.7-5.8,1.2c-3.9,0.9-6.5,5.3-5.5,9.1
						c1.2,4.4-0.1,8.5-3.3,11.6c-1.3,1.3-2.9,2-4.3,3.2c-4.1,3.6-4.2,9.8-4.4,15.2c-0.2,5.9-0.7,11.8,0.4,17.6
						c1.1,5.8,4.1,11.5,9.2,14.4c2.2,1.2,4.8,1.9,6.7,3.6c5.7,5.1,2,16,7.8,20.9c2.1,1.7,4.8,2.2,7.5,2.7c3.3,0.6,6.6,1.1,9.9,1.7
						c5.8,1,12,1.5,17.9,2.1c3,0.3,5.9,0.6,8.8,1.6c7.4,2.5,12.4,9.2,17.5,15c2.2,2.5,4.5,4.9,6.2,7.8c1.7,2.9,2.6,6.4,1.7,9.6
						c-1.3,4.7-5.8,7.6-9.8,10.4c-4,2.8-8.2,6.5-8.2,11.4c0,1.5,0.4,3.1-0.3,4.4c-0.9,1.6-3,2-4.8,2.6c-1.8,0.5-3.8,1.9-3.5,3.7
						c0.1,0.7,0.6,1.3,1.1,1.8c2.2,2.3,5.4,3.6,8.6,3.5c13.7-0.2,27.3-4,39.1-10.8c2-1.1,3.9-2.4,6.1-2.9c3.6-0.9,7.7,0.2,10.2,2.9
						c1.1,1.2,2.4,2.2,4,2.7c3.6,1.1,7.5,0.2,11-0.9c0.9-0.3,1.9-0.4,2.9-0.3c4.7,0.5,4.9,5.4,5.6,9.3c0.2,1.1,0.5,2.1,0.3,3.2
						c-0.2,1.3-0.9,2.4-1.6,3.5c-2.8,4.7-4.2,10.3-3.3,15.8c0.9,5.4,4.2,10.5,9,13c5.7,2.9,13.1,2.4,17.8,6.7
						c-0.2,1.3-2,1.4-3.3,1.1c-4.6-0.9-9.1-1.8-13.7-2.7c-1.5,2.4-0.4,5.6,1.5,7.7c2.5,2.9,6.2,4.6,9.9,5.6c3.7,1,7.5,1.4,11.3,2.1
						c4.1,0.8,8.2,2,12.4,2.4c6.1,0.6,12.1-0.5,18.1-1.6c8.1-1.5,15.9,1.7,21.7,7.5c2.2,2.2,3.9,4.8,5.3,7.5l13.3,25.8
						c1.5,3,3.1,6,5.5,8.4c2,2.1,4.5,3.6,7,5.1c6.6,3.9,13.3,7.7,20.7,9.7c8.7,2.3,17.9,1.7,26.9,1.1c2.3-0.2,5.5-0.2,8,0.4
						c0.6,0.1,0.6,1-0.1,1.1c-3,0.4-6.5,1.7-8.6,2.9c-1.5,0.8-1.6,3-0.1,4c6.9,4.6,15,7.1,23,9.6c15.7,4.7,32.9,9.3,47.9,2.7
						c0.4-0.2,0.8-0.4,1.1-0.7c1.7-2-2.7-5.9-0.4-7.2c1.7,0.3,2.6,2.2,3.7,3.5c1.9,2.2,5.3,2.8,8.1,2.2s5.4-2.2,7.9-3.8
						c5.4-3.4,10.9-6.8,16.3-10.3c8.2-5.2,19.1-4.8,28.2-8.3c11.2-4.4,19.1-15.1,30.5-18.9c1.6-0.5,3.4-1,4.7-2
						c1.7-1.2,2.7-3.2,3.6-5.1c1.5-3.2,3.1-6.5,4.6-9.7c1.6-3.4,3.5-7.1,6.9-8.9c-0.1,3.6-2.7,6.5-4.6,9.5c-2.2,3.6-3.4,9,1.2,11.2
						c1.6,0.7,3.4,0.8,5,0.4l14.6-3.5c9.6-2.3,19.5-4.8,27.7-10.4c2.5-1.7,4.9-3.8,7.6-5.2c2.7-1.4,5.9-2.3,8.9-1.4
						c6.4-2.3,13.7-3.6,20.5-3c8.5,0.7,15.9,5.9,22.7,10.8c7,5.1,13.8,10.4,20.4,16c1.6,1.3,3.1,2.7,4.5,4.2c2.9,3.2,5,7.3,8.5,9.9
						c2.6,2,5.7,3,8.8,4.1c11.5,3.9,23.1,7.8,35.1,9.8c5.8,1,11.7,1.5,17.4,2.8c3.4,0.8,6.8,1.9,10.3,2.2c2.6,0.2,5.1-0.1,7.7-0.4
						c1.4-0.2,3-0.4,4.1-1.3c0.5-0.5,0.9-1.2,1-1.9c0.2-1.6,1.8-2.6,3.4-2.3c1.2,0.2,2.3,0.8,3.1,1.6c2.7,2.6,7.1,0.7,10.7-0.5
						c8-2.5,16.5-3.2,24.9-3.8c3.6-0.3,7.3-0.5,10.9,0c3.5,0.5,6.9,1.7,10.2,2.7c8.8,2.7,18.2,4.4,27.4,3.3c3.3-0.4,6.6-1.2,9.9-1.1
						c2.9,0.1,5.8,0.8,8.6,0.8c2.4,0,4.7-0.4,7-0.8c3.8-0.7,7.8-1.4,11-3.6c3.2-2.1,5.6-5.5,9.3-6.4c3.5-0.8,7.6-3.7,9.5-6.8
						c1.8-3.1,3.1-6.6,5.3-9.4c0.7-0.9,1.5-1.7,2.1-2.7c1.8-2.8,1.6-6.4,2.3-9.7c0.9-4.3,3.3-8.4,3.1-12.8c-0.1-3.2-1.7-6.3-1.8-9.5
						c-0.1-4.9,3.2-9.2,6.3-13.1c3.8-4.7,8.1-8.2,14-9.7c1.8-0.4,3.9-1.1,4.3-2.9c0.2-1.2-0.6-2.4-1.7-3.1c-1.5-1-3.3-1.4-5.1-1.7
						c-7.3-1.2-14.6-2.2-21.9-2.9c4.6-0.2,9.2-0.3,13.7,0.7c2.2,0.5,4.4,1.3,6.6,1.8c3,0.7,6.1,0.8,9.2,1c3.2,0.2,6.3,0.4,9.5,0.5
						c1.8,0.1,3.7,0.2,5.4-0.6c0.9-0.5,1.7-1.2,2.4-2c4-4.5,5.8-10.9,4.8-16.9c-0.1-0.2-0.2-0.4-0.3-0.6c-0.4-0.8-0.9-1.5-1.3-2.3
						c-2.5-2.8-5.5-5.2-8.9-6.9c-2.8-1.4-5.8-2.4-8.2-4.3c-2.4-1.9-4.2-5.2-3.2-8.1c0.8-2.5,3.5-4.1,6.1-4.7s5.3-0.6,8-1.2
						c2.5-0.6,4.9-1.7,7.4-2c1.2-0.1,2.4,0,3.5,0.1c0.2-0.3,0.3-0.5,0.5-0.8c2.3-3.6,4.3-7.5,3.7-11.8c-0.6-4.5-3.8-7.9-6.4-11.4
						c-5.1-6.8-6.7-14.9-3.6-23c3.4-8.9,10.9-15.1,13.6-24.4c0.5-1.6,0.8-3.2,1.1-4.8c-0.1-4.2-0.2-8.4-1-12.6
						c-1.5-8-3.8-15.8-6.8-23.3c-2.4-5.9-6.9-11.9-8.1-18.2c-1.2-6.2,3.2-10.8,8.2-13.6c2.8-1.6,5.8-2.5,7.8-5.2
						c2.1-2.8,3-6.7,3.7-10C1048.1,320.8,1047.8,314.3,1047.6,307.7z"/>
					<path fill="#727024" d="M1030.8,499.6c-0.4-1.8-0.6-3.7-0.4-5.5c0.3-2.8,1.7-5.1,3.5-7.4c0,0,0.1-0.1,0.1-0.1
						c-1.2-0.1-2.4-0.2-3.5-0.1c-2.5,0.2-4.9,1.4-7.4,2c-2.6,0.6-5.4,0.6-8,1.2s-5.2,2.2-6.1,4.7c-1,2.9,0.8,6.2,3.2,8.1
						c2.4,1.9,5.4,2.9,8.2,4.3c3.4,1.7,6.4,4,8.9,6.9c-0.3-0.6-0.5-1.3-0.5-2c0-1.8,1.5-3.4,3.2-4.1c0.5-0.2,1-0.3,1.5-0.4
						c-0.9-1.3-1.7-2.7-2.1-4.4C1031,501.7,1030.9,500.7,1030.8,499.6z"/>
					<path fill="#3A2A1C" d="M1030.8,499.6c-0.4-1.8-0.6-3.7-0.4-5.5c0.3-2.8,1.7-5.1,3.5-7.4c0,0,0.1-0.1,0.1-0.1
						c-1.2-0.1-2.4-0.2-3.5-0.1c-2.5,0.2-4.9,1.4-7.4,2c-2.6,0.6-5.4,0.6-8,1.2s-5.2,2.2-6.1,4.7c-1,2.9,0.8,6.2,3.2,8.1
						c2.4,1.9,5.4,2.9,8.2,4.3c3.4,1.7,6.4,4,8.9,6.9c-0.3-0.6-0.5-1.3-0.5-2c0-1.8,1.5-3.4,3.2-4.1c0.5-0.2,1-0.3,1.5-0.4
						c-0.9-1.3-1.7-2.7-2.1-4.4C1031,501.7,1030.9,500.7,1030.8,499.6z"/>
				</g>
				<path fill="#8A5941" d="M61,127.3c-0.3,1.9-0.6,3.9-1.5,5.6c-0.7,1.2-1.7,2.3-2.5,3.5c-1.8,2.8-2.3,6.2-2.6,9.5
					c-0.3,3.2-0.6,6.5,0.2,9.6c0.9,3.7,3.4,7,6.6,8.9c-0.1-6.8-0.3-13.6-0.4-20.4c0.6,5.5,1.2,10.9,1.8,16.4
					c0.1,1.2,0.3,2.4,0.9,3.5c1.4,2.7,5.1,3.4,8.1,3c0.2-4.4,0.4-8.9,0.6-13.3c0.4,3,0.8,6.1,1.1,9.1c0.2,1.6,0.4,3.4,1.7,4.6
					c0.8,0.8,1.9,1.1,2.9,0.7c2-0.8,1.7-3.7,1-5.8c-0.1,2.8,2.1,5.4,4.7,6.5c2.6,1.1,5.5,1.2,8.4,1.2c2.3,0,4.6,0.1,7,0.1
					c3.6,0.1,7.9-0.3,9.6-3.4c0.7-1.3,0.8-2.7,0.8-4.1c0.3-5.6,0.6-11.3,0.9-16.9c1.1,4.4,2.1,8.9,1.7,13.4c-0.2,2-0.6,4.1,1.3,5.8
					c1.2,1,2.8,1.3,4.3,1.1c3.6-0.5,6.1-3.2,9.3-4.5c4.1-1.7,9.7-1.4,12-5.2c-2.1-8-5.4-15.7-9.7-22.8l9.5,13.8
					c0.8-2.4,0.7-5.1,0.6-7.7c-0.4-8.4-0.7-16.7-1.1-25.1c-1,3.1-2.3,6.1-3.8,8.9l4.9-26.5c1.4,16.9,2.7,33.7,4.1,50.6
					c0.1,1.1,0.2,2.2,0.8,3.2c1,1.6,3.1,2.1,5,2.5c5.1,1,10.2,2.1,15.3,3.1c2.2,0.4,4.4,0.9,6.6,0.7c4.1-0.3,8-2.6,12-1.6
					c1.2,0.3,2.3,0.9,3.6-0.4c0.9-0.9,1.2-2.3,1-3.6l-2.7-15.5c-1.5,1.2-1.3,3.4-1.4,5.3c0,1.3-0.4,2.8-1.3,3.6
					c-0.5,0.5-1.5,0.2-1.5-0.6l-0.6-18.6c-0.1-1.8-0.1-3.7-1-5.3c-0.8-1.6-2.7-2.9-4.4-2.4c-1.7,0.4-3.2,2.2-4.7,2.7
					c-1.2,0.4-2.1,1.3-2.4,2.5c-1,4-1.9,8-2.6,12.1c-1.1-3.8-0.5-7.8-0.7-11.8c-0.2-3.9-1.5-8.3-5-10.1c-1.5-0.8-3.3-1-4.8-1.7
					c-2.3-1.1-3.9-3.3-5.4-5.5c-2.7-3.8-5.4-7.6-8.1-11.5c-0.3-0.5-0.7-1-1.2-1.3c-1.1-0.6-2.6,0-3.3,1.1s-0.9,2.4-1.1,3.6
					c-0.3,2.5-0.7,5.1-1,7.6c-0.8,0.4-1.7-0.5-1.9-1.4c-0.2-1.4,0.6-2.8-0.7-4.1c-1.3-1.3-3.5-1.3-4.9-0.2c-2,1.5-2.6,4.1-3.1,6.5
					c-1.8,8.6-3,17.3-3.7,26.1c-3-8.2,1.4-17.4-0.1-26c-0.1-0.4-0.1-0.8-0.4-1.1c-0.5-0.8-1.6-0.8-2.5-0.5c-2.2,0.6-3.8,2.7-4.5,4.9
					c-0.7,2.2-0.7,4.5-0.7,6.8c0.1,5.1,0.1,10.1,0.2,15.2c-3.4-5.8-0.8-13.3-1.9-19.9c-0.1-0.8-0.4-1.6-0.9-2.2
					c-0.8-0.8-2.1-0.7-3.2-0.7c-4.8,0.3-9.6,0.6-14.4,1c-1.7,0.1-3.6,0.3-4.8,1.4c-1.1,1-1.5,2.5-1.9,3.9c-0.7,2.6-1.4,5.1-1.5,7.8
					c-0.1,2.7,0.3,5.4,0.7,8.1c0.8,5.3,1.3,11-0.6,16c-1-9.8-2-19.6-3-29.3c-0.3-3.4-1.2-7.4-4.3-8.6c-2.5-1-5.9-0.8-8.6-1.4
					c-1.8-0.4-4.3-0.8-5.2,1.3c-0.5,1.1,0.1,2.8,0.2,3.9c0.1,2.1,0,4.2-0.2,6.3C61.9,121.8,61.5,124.6,61,127.3z"/>
				<path fill="#8A5941" d="M73.7,352.4c-0.4-5,0.8-10.2-0.8-14.9c-1.7-5.3-6.4-9.3-7.3-14.8c-0.6-3.6,0.6-7.3,0.8-11
					c0.4-7.2-3-14.5-1-21.4c1.6,2.8,3.1,5.7,5.2,8.1c1.7,1.9,3.7,3.6,4.9,5.9c1.1,2,1.4,4.3,1.6,6.6c0.6,5,1.3,10.1,1.5,15.2
					c0.1,3.7,0.1,7.4,0.5,11.1c0.6,5.6,2.4,11.1,4.1,16.4c-0.2-4.9-0.4-9.8-0.6-14.7c0-1.1-0.1-2.2,0.1-3.3c0.2-1.3,0.7-2.6,1-3.9
					c1.2-5.6-2.1-11.6-0.1-16.9c0.1-0.4,0.3-0.7,0.6-1c0.8-0.7,1.9-0.3,2.8,0.3c3.3,2.1,5.2,6.1,8.7,7.9c2.1,1.1,4.5,1.3,6.8,1.9
					s4.6,1.9,5.3,4.2c0.8,2.5-0.8,5.2-2.8,7c-2,1.8-4.4,3.1-6,5.2c-1.6,2.1-2.3,4.8-2.6,7.4c-0.1,1.3-0.2,2.6-0.7,3.8
					c-0.4,0.9-1,1.6-1.5,2.4c-1.8,3-1.7,6.6-1.5,10c0.1,2.4,1.1,7.7-1.7,8.9c-4.8,2.2-12.2-7-14.1-10.4
					C75.1,359.4,74,355.9,73.7,352.4z"/>
				<path fill="#8A5941" d="M95.6,376.7c-0.7,6.6,0.1,13.3,2.2,19.5c2.1,6.1,5.5,11.6,7.8,17.6c3.7,9.8,4.4,20.4,5,30.9
					c0.2,3.8,0.4,7.6,0.4,11.4c0,9.5-1.2,19.9,4.3,27.6c3,4.1,7.6,6.8,10.7,10.9c1.9,2.4,3.2,5.3,5.4,7.5c3.4,3.3,8.2,4.4,12.8,5.4
					c0.5,0.1,1,0.2,1.5,0c0.9-0.5,0.8-1.8,0.5-2.8c-1.6-5.4-4.1-10.5-7.4-15.1c-0.9-1.2-1.8-2.4-2.4-3.8c-0.8-2-0.9-4.2-0.9-6.3
					c-0.2-8.6-0.4-17.1-0.6-25.7c3.8,4.3,3.1,10.9,2.3,16.6c-0.8,5.7-1.4,12.3,2.6,16.5c1.1,1.2,2.5,2.1,3.6,3.3
					c3.7,4.3,2.3,11.5,6.1,15.7c0.3,1.6,3.6,1.6,4.5,0.2s0.5-3.2,0.1-4.7c-2.8-11.5-6.3-23.3-4.6-35.1c2.5,11.4,5,22.7,7.5,34.1
					c0.1,0.3,0.1,0.6,0.4,0.8c0.7,0.6,1.6-0.3,2.1-1.1c2.1-3.7,4.2-7.3,6.3-11c1-1.8,2.1-3.6,2.5-5.7c1-4.9-1.9-10.2,0-14.9
					c1.4,5.6,2,11.3,1.8,17.1c0.8,0.6,1.9-0.2,2.4-1c2.5-3.9,1.4-9.7,4.9-12.6c1-0.8,2.2-1.3,2.8-2.4c1.2-2-0.2-5.1,1.6-6.5
					c0.5-0.4,1.3-0.5,1.9-0.8c3.4-1.2,4.7-5.5,4.3-9.1c-0.6-4.7-3.7-9-7.9-11.1c-0.2-0.1-0.4-0.2-0.6-0.1c-0.4,0.1-0.5,0.6-0.5,1.1
					c0.1,6.4,0.3,12.9,0.4,19.3c-1-5.6-1.9-11.1-2.9-16.7c-0.4-2.3-0.8-4.6-2.3-6.4c-2.1-2.7-5.8-3.3-9.2-3.8
					c-1.6-0.2-3.3-0.4-4.2,1.7c-0.4,0.8-0.5,1.7-0.5,2.6l0.6,19.1c0.1,2.7,0.1,5.7-1.6,7.9c-1.4-2.8-1.7-6.1-1.9-9.2
					c-0.4-5-0.8-10.1-1.2-15.1c-0.2-3-0.7-6.3-3-8.3c-2.3-1.9-5.7-1.7-8.7-2.2c-4.4-0.7-8.4-3.1-12.3-5.1c-0.7-0.4-1.5-0.6-2.2-0.5
					c-2.9,0.2-3.4,3.2-3.4,5.6c-0.3,13.8-0.6,27.7-0.8,41.5c-1.7-2.8-1.5-6.3-1.4-9.5c0.1-14.2-5.5-28.1-4.8-42.3
					c0.1-3.3,0.6-6.7,0-10c-1.2-6.6-6.4-11.6-11.2-16.4s-9.5-10.5-9.4-17.2c0-1.8,0.2-3.9-0.3-5.5c-0.4-1.2-2.1-1.1-2.4,0
					C96.1,374.1,95.7,375.5,95.6,376.7z"/>
				<path fill="#8A5941" d="M159.9,513c0.3,1.7,1.1,3.4,1.6,5c3,9.2,0.4,19.9,5,28.5c1.3,2.3,3,4.4,3.9,6.9c0.8,2.2,1,4.6,1.3,6.9
					c1.1,8.4,4.7,17.3,12.3,21c5.1,2.4,11.1,2.1,16.6,1.1c1.5-0.3,3-0.6,4.2-1.6c1.8-1.4,2.3-3.9,2.1-6.2c-0.2-2.2-1.1-4.4-1.7-6.5
					c-1.1-3.8-1.4-7.8-1.7-11.8c-0.7-9.9-1.5-19.8-2.2-29.6c2.3,7.7,0.9,16.2,3.3,23.9c0.6,2,1.4,3.9,1.8,5.9
					c0.7,3.3,0.1,6.8,0.5,10.2c0.4,3.4,2.3,7,5.7,7.7c1.4,0.3,2.9,0,4.3-0.3c6.1-1.2,12.1-2.5,18.2-3.7c1.6-0.3,3.3-0.7,4.5-1.8
					c1.6-1.5,1.9-4,2-6.2c0.2-5.6,0-11.3-0.7-16.9c1.4,3.8,2.3,7.9,2.5,12c0,0.9,0.1,1.8,0.5,2.5c0.6,1.1,2,1.7,3.3,1.4
					c1.2-0.3,2.1-1.6,2.1-2.9c1.2,0.7,2.7-0.5,3.2-1.7c0.6-1.6,0.3-3.5,1.5-5c0.6-0.8,1.7-1.2,2.6-0.7c1.8,1,0.4,4.2,2.7,5.1
					c1.1,0.4,2.3,0.1,3.1-0.8c1.3-1.4,1.2-3.5,0.7-5.3c-1.3-4.6-5-8.1-6.3-12.7c-0.9-3.1-0.6-6.5-1.5-9.7c-0.5-1.6-1.3-3.2-1.8-4.8
					c-1.1-3.5-0.6-7.3-0.5-11c0-3.7-0.6-7.7-3.4-10.2c-0.8,1.1-0.7,2.6-0.6,4c0.5,4.6,1,9.3,1.5,13.9c-3.5-7.3-1.5-16.4-5.6-23.4
					c-1-1.7-2.6-3.4-4.6-3.3c-0.8,0-1.6,0.4-2.4,0.4c-1.9,0.1-3.5-1.2-5.4-1.2c-2.2,0-4.1,1.9-4.7,4c-0.7,2.1-0.4,4.4-0.1,6.6
					c1,8,1.9,16,2.9,23.9c-1.2-0.1-1.7-1.6-1.9-2.8l-3.8-25c-0.2-1.5-0.9-2.9-2-3.8c-2.2-1.9-4.3-0.7-6.1,0.4
					c-2.2,1.3-4.4,2.7-5.4,5c-2,4.8,2.5,10.4,0.6,15.2c-0.4-5.3-1.2-10.5-2.4-15.7c-0.2-0.8-0.9-1.4-1.7-1.3c-3,0.2-5.9,1.6-7.8,3.8
					c-0.4,0.5-0.9,1.1-1.4,1.4c-2.7,1.7-5.8-1.9-8.9-1.9c-2.4-0.1-4.4,2.4-4.2,4.7c0.1,0.8-0.5,1.6-1.3,1.5c-0.6,0-1.3-0.3-1.7-0.8
					c-0.9-0.9-1.3-2.1-2-3.1c-0.8-1.3-2-2.3-3.5-2.8c-1-0.4-2.1,0.3-2.2,1.4c-0.1,1.7,0.2,3.4,0.5,5.1c1.4,7.7,2.8,15.3,4.2,23
					c-3.5-8.7-5.4-18.1-5.6-27.5c0-1.5-0.4-2.9-1.1-4.2c-2.7-4.6-6.7-1.6-8.9,1.3C160.8,504.1,159,508.5,159.9,513z"/>
				<path fill="#8A5941" d="M1027.4,536.2c-3.3,2.4-4.9,6.5-5.6,10.4s-0.9,8.1-2.2,11.9c0-4.4-0.1-8.9-0.1-13.3c0-1.4-0.1-3-1.4-3.9
					c-1.3-0.9-3.1-0.5-4.2,0.7c-1.8,1.8-1.9,4.4-1.9,6.8c-0.1,7-0.2,14.1-0.3,21.1c-0.5-7.1-1-14.1-1.5-21.2
					c-0.1-1.3-0.3-2.9-1.4-3.7c-0.7-0.5-1.6-0.6-2.4-0.6c-2.9,0.1-5.5,1.7-7.8,3.4c-2.7,1.9-5.2,4.1-7,6.8c-3.8,6-3.2,13.8-5.3,20.6
					c-1.5,4.8-2.5,9.5-3.7,14.4c-0.8,3.4-0.4,6.2-2.9,11.2c-2.7,5.4-5.3,10-10.3,13.4c-2.9,2-6.4,3.5-8.2,6.6c-0.6,1-1,2.2-1.8,3.2
					c-1.4,1.7-3.6,2.2-5.5,3.3c-1.8,1.1-3.4,3.4-2.4,5.3c-1.1-0.4-0.7-2.1-1.4-3.1c-1-1.6-3.5-0.4-5.1,0.5
					c-4.5,2.4-9.9,1.4-14.9,0.5c-5-0.9-10.6-1.5-14.8,1.5c-3.8,2.7-4.4,9.3-5.8,13.8c-2.3-4.1,0.5-10.2-2.8-13.6
					c-3-3.1-8.3-1.2-12.5-2c-2.8-0.6-5.2-2.4-7.8-3.5c-9.1-3.8-19.2,1.5-29,1.5c-2.5,0-5-0.4-7.5-0.2c-3.6,0.2-7.1,1.6-10.5,2.9
					c-1.7,0.7-3.4,1.4-4.6,2.8c-1.3,1.6-1.7,3.8-1.9,5.9c-1.7,13.3-3.4,26.6-5.1,39.9c-2.4-13.2-1.4-27,3-39.7
					c0.6-1.7,1.2-3.6-0.6-5.1c-0.9-0.7-2-1-3.2-1c-10.4,0.3-20.8,0-31.2-1c-1.8-0.2-3.6-0.4-5.3-0.9c-1.8-0.6-3.5-1.7-5.3-2.4
					c-4.8-2-10.1-1.8-15.3-1.6c-9.9-1.6-20-5.7-28.1-11.7c-2.5-1.9-5-4-6.4-6.8c-1.5-3.1-2-7.3-5.2-8.7c-1.6-0.7-3.6-0.4-5-1.6
					c-0.8-0.7-1.3-1.9-2.8-1.7c-1.1,0.2-1.9,1.1-2.1,2.1l-3.7,17.1c0.2-6,0.4-12,0.6-18c0.1-2.6,0.2-5.2-0.6-7.7s-2.4-4.8-4.9-5.6
					c-1.2-0.4-2.7-0.3-3.7,0.5c-0.8,0.8-1.1,2-1.3,3.1c-0.9,4.4-1.7,8.8-2.6,13.2c1.6-9.9,2.5-21.8-7.9-26.7
					c-4.5-2.1-9.6-2-14.2-0.2c-0.4,0.1-0.7,0.3-1,0.6c-0.9,0.8-1.2,2.1-1.4,3.3c-1.8,9.9-2.6,19.9-2.4,30
					c-1.3-7.5-1.7-15.2-1.2-22.7c0.1-2,0.3-4-0.2-6c-1.2-4.5-6.2-7.3-10.8-6.6c-4.5,0.7-8.3,4.6-9.4,9.1c-0.9,3.2-0.5,6.7-0.8,10
					c-0.5,5-2.4,9.7-4.4,14.3c-2.6,6.3-5.3,12.6-7.9,18.9c1.1-10.4,2.2-20.7,3.3-31.1c0.2-1.9,0.3-4-2.1-5c-0.8-0.3-1.7-0.3-2.6-0.2
					c-10.5,1.4-20.9,3.5-31.1,6.5c-3.5,1-7,2.1-10.6,2c-1.4,0-2.8,0.7-3.6,1.9c-1.7,2.7-2.3,6.2-2.4,9.4c-0.1,4.2,0.3,8.5-1,12.5
					l-1.7-19.9c-2-0.6-4.2-0.5-6.1,0.3c-2.6,1-4.6,3.8-6.9,5.5c-1.6,1.2-3.3,2.5-4.4,4.2c-1.1,1.7-1.5,3.8-1.8,5.9
					c-1.6,9.7-2.4,19.6-2.4,29.5c-3.1-9.4-1.3-19.7-3.4-29.3c-0.2-1.1-0.6-2.2-2.4-2.2c-0.8,0-1.5,0.3-2.1,0.8
					c-6.9,5.3-16.4,3.9-24.6,6.5c-4.3,1.3-8.2,3.7-12,6c-0.9,0.6-1.9,1.2-2.5,2.1c-0.7,1-0.8,2.3-0.9,3.5c-0.5,4.5-1,8.9-1.4,13.4
					l-1.3-12.6c-0.1-0.8-0.5-1.6-1.2-2.1c-1.5-1-3,0.2-4.2,1.2c-4.1,3.5-9.1,6.1-14.3,7.4c-0.5,0.1-1,0.2-1.4,0.6
					c-0.6,0.5-0.7,1.4-0.7,2.2c-0.3,5.3-0.6,10.5-0.9,15.8c-1.3-2.8-0.3-5.9,0-9c0.5-4.9-4.5-8.6-9-6.6c-2,0.9-4,1.7-5.9,0.8
					c-9.2,0.6-18.6,1.1-27.6-0.9c-3.1-0.7-6.1-1.7-9.1-2.8c-10.9-3.9-21.5-9-31.4-15c-0.7-0.4-1.6-0.9-2.5-0.3
					c-0.6,0.4-0.9,1.2-0.9,1.9l0,8.1c-0.5-2.8-1-5.6-1.5-8.4c-0.1-0.7-0.3-1.5-0.6-2.1c-0.7-1.4-2.2-2.2-3.8-2.4
					c-1.5-0.3-3.1-0.1-4.6,0c-8.4,0.5-17-1.7-24-6.4c-0.6-0.4-2.6-1.5-2.1-2c-2.1-2.8-4.5-5.6-7.3-7.7c-8.5-6.4-12.5-17-16.1-27
					c-1.2-3.4-2.6-7-5.3-9.5c-2.9-2.7-6.9-3.7-9.9-6.2c-1.2-1-2.2-2.2-3.6-3.1c-1.3-0.8-3.1-1.2-4.4-0.3c-1,0.7-1.5,1.9-1.7,3.1
					c-0.7,2.8-0.6,5.7,0,8.4c1.7,7.6,3.5,15.1,5.6,22.6c-4.3-10.2-8.6-20.4-12.9-30.6c-0.6-1.4-1.3-2.9-2.7-3.4
					c-0.9-0.3-1.9-0.2-2.9,0c-7.7,1.1-15.4-0.6-23-2.3c-5.1-1.1-10.5-2.4-14.4-5.9c-0.4-0.4-0.9-0.8-1.4-0.9
					c-0.8-0.2-1.5,0.5-1.7,1.2c-0.4,2.5,0.2,5,0.9,7.4c2.5,8.7,6,17,9.5,25.3c1.7,4,3.3,7.9,5,11.9c1.4,3.3,2.8,6.7,5.2,9.4
					c3.7,4.2,9.1,6.4,14.6,7.6c5.5,1.2,11.1,1.4,16.5,2.6c2,0.4,4,1,5.8,2.1c5.2,3,7.5,9.4,12.2,13c3.4,2.5,7.7,3.5,11.9,3.9
					c2.5,0.3,5.6,0.8,6.3,3.2c4.1,3.7,7.8,8.2,10.9,12.7c1.5,2.1,2.8,4.4,4.8,6c2.4,1.8,5.6,2.3,8.6,2.6c4.1,0.5,8.2,1.1,12.3,1.6
					c-2.6,1.8-5.6,3-8.7,3.5c-1,0.2-2.1,0.3-2.5,1.5c-0.3,1,0.1,2.1,0.8,2.8c3.3,3.3,6.7,6.7,10.7,9.2c2.5,1.5,5.3,2.7,8.3,2.7
					c2.9,0,6-1.4,7.4-4c-1.2,1.5,0,3.9,1.8,4.6c1.7,0.8,3.7,0.5,5.7,0.5c6.6-0.2,13.3,2.5,17.9,7.2c3.4,3.5,7.5,7.8,12.1,9.5
					c4.6,1.7,9.5,2.1,14.4,2.2c8.5,0.2,17.1-0.4,25.5-1.8c0.3-0.1,0.7-0.1,0.9-0.4c0.4-0.3,0.3-0.9,0.3-1.4
					c-0.1-1.8-0.3-3.6-0.4-5.4c-0.5-6.6-1-13.2-1.6-19.9c1.7,7,3.4,14.1,5.1,21.1c0.3,1.2,0.6,2.5,2.3,2.9c1,0.2,2.1,0,3-0.5
					c5.4-3.1,7.7-10.9,13.8-12c1.5-0.3,3.2-0.1,4.5-1c3.4-2.3,0.2-8.6,3.1-11.5c2,1.5,1,5.3,3.1,6.5c1.2,0.7,2.7,0.1,4,0.6
					c2.9,1.1,6.3-1.4,8.7-3.3c2.5-2,4.5-4.4,7-6.3c2.7-2,6-3.2,9.1-4.5c1.9-0.7,3.9-1.5,5.8-2.2c3.6-1.4,7.5-2.8,11.4-2.2
					c1.8,0.3,3.5,1,5.4,1.3c2.9,0.4,5.8-0.4,8.6-1.3c2.3-0.7,4.9-1.6,6-3.7c0.9-1.5,0.8-3.4,0.8-5.2c0.1-2.6,0.5-5.2,1.3-7.8
					c2.5,1.6,1.8,5.5,3,8.1c1.3,2.7,4.6,4,7.5,3.8s5.7-1.6,8.4-3c1.4-0.7,2.9-1.5,4.3-2.2c1-0.5,1.9-1,2.7-1.8
					c1.2-1.2,1.6-2.9,1.8-4.6c0.5-4.2-0.3-8.4,0.1-12.6c0.2-2,0.6-3.9,0.9-5.9c0.3-2.1,0.4-4.2,0-6.2c-0.3-1.7-0.5-4.1,1.1-4.4
					c0.9,6.2,1.2,12.4,1,18.6c-0.1,2.2-0.2,4.5,0.9,6.5c0.3,0.6,0.8,1.2,1.4,1.5c2.2,1.4,4.3,0.2,6.2-1c5.6-3.5,13.8-1.6,19.5,0.1
					c3.1,1,6.4,0.8,9.2-0.7c6.4-3.3,5-10.3,4.3-16.2c-0.7-5.3-0.5-10.7,0.4-15.9c3,7.6,2.4,16.1,3.3,24.2s4.3,17,11.7,20.3
					c3.2,1.4,6.8,1.7,10.2,2.2c4.8,0.8,9.6,2.3,14.5,2.2c4.9-0.1,10.2-2.5,12-7c1.5-3.8,0.3-8.5,2.7-11.8c1.4,3.8,0.8,8,1.1,12
					c0.2,4,1.8,8.6,5.6,10c3.4,1.3,7.7-0.9,8.6-4.4c0.7-2.6,0.5-6.4,3.1-6.8c-0.2,5,0.3,10,1.4,14.9c0.4,1.9,1,3.7,2.1,5.3
					c1,1.4,2.5,2.5,3.9,3.5c6.8,4.9,13.8,9.6,21.6,12.5c2,0.7,4,1.3,6.1,1.1c5.4-0.5,8.9-6.1,10-11.4c1.1-5.3,0.7-10.9,2.6-16
					c2,3.5,1.5,7.7,1.5,11.7c0,6.1,1.1,12.1,3.3,17.8c1.1,2.8,4.3,5.4,7.3,5.6c2.6,0.2,5.3-0.5,7.8-1.2c1-0.3,2-0.6,2.6-1.3
					c0.9-1,1-2.5,1.1-3.8c0.2-4,0.4-8,0.5-12.1c2.4,2,2.4,5.4,2.9,8.6c0.4,2.2,1.3,4.2,2.8,5.9c5.2,6.1,11,2.8,16.5,3.6
					c2.4,0.3,4.5,1.4,6.8,2c3.1,0.9,6.3,1,9.5,1c3.4,0,7.1-0.1,9.7-2.4c2.2-1.9,3-4.9,3.6-7.7c1.8-8.5,2.9-17.2,3.1-25.9
					c0.1-2.1,0.1-4.2,1.1-6c1.6,2.1,1.7,4.9,1.8,7.5c0.3,8.7,1.2,17.4,2.7,25.9c0.2,1.2,0.5,2.5,1.2,3.5c1,1.4,2.7,2.1,4.4,2.3
					c8.2,1.4,16.3-4.8,24.5-3.5c1,0.2,2,0.4,3.1,0.3c1.7-0.2,3.2-1.6,3.9-3.2c0.7-1.6,0.9-3.4,0.9-5.2c0.4-11.6-1.9-23.6,1.7-34.7
					c2,1.4,1.9,4.4,1.7,6.8c-0.8,8.8-0.7,17.7,0.1,26.6c0.2,2-0.1,4-0.5,6c-0.2,0.9,0.5,2,0.5,2.9c1.1,0.9,2.8,0.1,3.6-1.1
					c0.8-1.2,1-2.6,1.8-3.8c2-3,6.5-2.8,10.1-2.5c3.4,0.3,6.9,0.4,10.2-0.5c3.3-0.8,6.5-2.7,8.4-5.6c1.6-2.4,2.1-5.4,2.5-8.3
					c0.3-2.5,0.5-5,0.6-7.5c0.4-8.3,0.6-16.6,0.5-24.9c1.3,0.1,1.8,1.8,2,3.1c0.8,6.9,1.1,13.9,0.9,20.8c-0.1,3.1-0.3,6.3,0.8,9.2
					c0.4,1.2,1.1,2.3,2.2,2.9c1.5,0.8,3.4,0.3,4.7-0.8c1.3-1.1,2.2-2.6,3-4.1c2.3-4.2,4.6-8.4,6.9-12.6c0.3-0.5,0.6-1,1-1.4
					c0.5-0.4,1-0.5,1.5-0.7c2.1-0.9,3.3-3.2,3.7-5.4c0.4-2.2,0.1-4.5,0-6.8c-0.2-3.6-0.2-7.3,1-10.7c0.8-2.3,1.6-6.2,1.6-8.7
					c0-1.2,0.3-2.3,0.8-3.4c0.6-1.5,1.6-2.9,2.2-4.4c0.8-2,0.9-4.2,0.4-6.3c-0.5-1.8-1.4-3.6-1.1-5.4c0.2-1.3,1.1-2.4,1.7-3.6
					c2.1-4.3,1.4-8.7,3.2-13.1c0.7-4.1,0.6,2.8,0.6,4.9c-0.1,2.6-0.5,5.3,1.2,7.6c0.9,1.2,2.3,1.8,3.7,1.4c2.3-0.7,2.6-3.4,2.6-5.6
					c0.2-9,0.3-18,0.5-27c0.6,7.5,1.1,15,1.7,22.5c0.2,2.2,0.6,4.7,2.9,5.3c1,0.3,2,0,2.8-0.5c2.2-1.3,3.2-3.7,4.7-5.6
					c2.3-2.9,6-4.7,7.7-8c1.9-3.8,0.7-8.8,3.2-12.4c1.4-2,3.4-3.7,5-5.6c1.9-2.1,2.8-4.9,2.7-7.7
					C1024.4,549.1,1025.4,542.4,1027.4,536.2z"/>
				<path fill="#6B3B28" d="M1030.8,499.6c-0.4-1.8-0.6-3.7-0.4-5.5c0.2-1.5,0.7-2.9,1.4-4.3c0,0,0-0.1-0.1-0.1
					c-0.2-0.1-0.4-0.2-0.6-0.2c-2.1-0.1-4.1,0.2-6.1,0.8c-0.2,0.1-0.5,0.2-0.6,0.4c-0.1,0.2-0.1,0.4-0.1,0.6c0,2.2,1.1,4.2,2.4,6
					s2.7,3.4,3.7,5.4c0.3,0.6,0.6,1.3,1.1,1.6c0.2,0.1,0.3,0.2,0.5,0.2c-0.2-0.6-0.5-1.2-0.6-1.8
					C1031,501.7,1030.9,500.7,1030.8,499.6z"/>
				<path fill="#8E8F37" d="M1035.1,374.3c-2.4-5.9-6.9-11.9-8.1-18.2c-1.2-6.2,3.2-10.8,8.2-13.6c2.8-1.6,5.8-2.5,7.8-5.2
					c2.1-2.8,3-6.7,3.7-10c1.3-6.5,1.1-13.1,0.9-19.6c-0.2-7.9-0.5-15.8-0.7-23.6c-1.4-0.2-2.8-0.5-4.1-0.7
					c-8.5-1.5-16.7-2-25.3-0.3c-7.9,1.6-15.5,4.3-23.2,6.4c-9.8,2.7-20.8,4.9-30.9,2.5c-1.8-0.4-3.5-1.1-5.1-1.8
					c-2.3-1.1-4.7-2-7.1-2.7c-3-0.9-5.7-2.8-7.5-5.6c-1.2-1.9-3-3.4-5-4.3c-4.7-2.1-10-1.8-15.1-2.5c-16.5-2.2-30.4-14.3-46.9-16
					c-12.4-1.2-24.6,3.6-37,3.3c-14.2-0.4-27.4-7.4-41.5-9c-19-2.1-38.5,5.8-57.1-0.3c-3.3-1.1-5.3-4.6-4.3-7.9
					c1.3-4.5,6.7-4.3,11-4.4c15.4-0.4,27.9-12.5,42.8-16.8c19.2-5.5,40,2.5,59.5-1.9c9.2-2.1,17.8-7,27.2-8
					c16.5-1.8,33.2,8.6,49.2,4c3.8-1.1,7.4-3,11.4-1.9c1.8,0.5,3.4,1.8,4,3.6c1.1,3.5-2.1,5.7-3.1,8.7c-1.8,5.3,4.2,10.2,9.8,10.8
					c5.6,0.6,11.2-1.2,16.7-0.2c6.9,1.3,12.2,6.7,18.5,9.8c8.5,4.2,18.4,4,27.9,3.7c10.9-0.4,21.8-0.7,32.6-1.1
					c0.1-4.7,0.4-9.4-0.4-13.9c-1.1-6-4.4-11.1-8.3-15.7c-4.1-4.9-8.7-9.4-11.3-15.3c-2.3-5.1-3-10.8-5.4-15.9
					c-6.2-13.4-18.2-20.7-31.5-25.7c-11.2-4.2-22.4-7.9-31.4-16.1c-0.8-0.8-1.6-1.5-2.4-2.3c-4.1-0.3-8.3-0.6-12.4-0.9
					c-15.8-1.3-31.7-2.9-46.6-8.2c-13-4.7-25.6-12.2-39.4-12.1c-15.2,0.1-30.3,9.6-44.7,4.8c-7-2.3-15.9,1.6-21.5,6.4
					c-3.5,3-6.2,7-10.3,9.1c-5.2,2.6-11.5,1.6-17.1-0.3c-5.5-1.9-10.8-4.8-16.5-5.8c-8-1.3-16.2,1-23.7,4.2c-2.4,1-4.9,2.1-7.5,2.2
					c-3.5,0.2-6.8-1.4-10-2.8c-16.3-6.8-34.3-7.8-51.9-8.8c-12.2-0.7-25.2-1.1-35.7,5.1c-4.1,2.5-7.8,5.9-12.3,7.6
					c-12.1,4.6-25.4-4.8-38.3-3c-8.1,1.1-15.1,6.6-23.1,8c-15.9,2.7-31.3-11-47.2-8c-10.4-3.7-21.8-4.7-32.8-5
					c-10.7-0.3-21.5,1-31.9-1.5c-9.2-2.2-17.7-7.4-27.1-8.4c-8-0.9-16.1,1.2-24.1,0.3c-13.6-1.5-24.7-11.5-37.8-15.5
					c-16-4.9-33.2-0.5-50-0.9c-6.1-0.1-12.5-1-17.6-4.3c-4.2-2.7-7.2-6.8-10.8-10.4c-5.1-5.2-11.3-9.3-18.1-11.9
					c-4.3-1.7-9-2.8-12.7-5.7c-3.6-2.9-5.9-7.2-9.3-10.2c-4.1-3.6-9.5-5.1-14.7-6.5c-15.5-4.2-35.9-9.9-51.5-13.7
					c-11.7-2.9-24.1-3.4-36-1.5c-6.2,1-12.2,2.6-18.2,4.2c-4.9,1.3-9.8,2.6-14.2,5.2c-7.9,4.6-13.1,12.6-18,20.2
					c-1.5,2.3-3,4.9-1.5,7.7c0.9,1.8,2.7,2.9,4.6,3.3c4.5,1,8.7-1,13.1-1.1c4.1,0,8.1,1.6,12.2,1.9c6.5,0.4,12.6-2.8,18.5-5.3
					c10.7-4.5,22.3-6.9,33.9-7.1c3.9-0.1,8.1,0.3,10.9,3c1.7,1.6,2.2,4.4,1.5,6.5c-0.6,2.1,0.6,4.3,2.6,5l3.4,1.3
					c0.2,0,0.3,0.1,0.5,0.1c3.6,0.4,6.8,2.2,10.2,3.4c1.6,0.5,3.2,1,4.8,1.4c1.6,0.5,3.3,1,4.9,1.1c3.2,0.1,6.3-1.5,9.5-1.4
					c2.3,0.1,4.6,0.7,6.2,2.5c1.7,1.9,1.9,4.6,1.2,7c-0.5,1.6-1,3-0.8,4.7c0.2,1.4,0.7,2.8,1.1,4.1c0.5,1.7,0.9,3.5,0.9,5.3
					c0,0.2,0,0.4-0.1,0.7c0.4,1.6,0.9,3,2.1,4c2,1.7,4.8,1.5,7.3,2.1c6.5,1.7,9.8,10.6,6.1,16.2c-1.4,2.1-3.5,3.6-4.9,5.7
					c-6,8.9,2.9,23.5-5,30.8c-4.1,3.7-10.6,3-15.5,5.6c-4.2,2.2-6.8,6.6-10.8,9.1c-7.5,4.6-17.6,1.4-25.7,4.9
					c-3.6,1.6-6.6,4.4-10.2,6c-6.5,2.8-14,1.3-20.8,2.9c-6.7,1.5-12.6,6-15.8,11.9c-4.2,7.8-3.8,17.2-6.8,25.6c-2.9,8-8.6,17.6-3,24
					c6.3,7,20.1,1.3,26,8.6c3.4,4.2,2.2,10.8,5.4,15.2c1.7,2.4,4.6,4,5.8,6.6c2.5,5.4-2.7,11.9-0.6,17.5c0.5,1.5,1.6,2.8,2.2,4.2
					c2.1,4.5,0.3,9.9-2.6,13.9c-2.9,4-6.8,7.2-9.6,11.3c-5.6,7.9-6.6,18.8-2.6,27.5c4,8.8,12.9,15.1,22.5,16.1
					c4.5,0.4,9.1-0.2,13.5,1c5.2,1.5,9.3,5.5,14,8.2c8.6,5,19.5,5.8,28.7,2c2.7-1.1,5.8-0.2,7.5,2.2c1.8,2.5,2.6,5.6,4.6,7.8
					c2.1,2.3,5.3,3.4,8.4,3.8c6.7,1,13.4-0.5,20-1.5c7.7-1.1,16.1-1.2,22.5,3.8c3.3,2.6,5.4,6.6,5.3,10.8
					c-0.2,7.2-6.6,9.7-10.7,14.2c-6,6.6-5.5,18,0.9,24.2c4.8,4.6,11.7,6,17.6,9c8.9,4.5,15.9,13.4,16.3,23.4
					c0.2,3.4-0.4,6.8-0.2,10.1c0.6,9.3,7.6,17.8,16.6,20.1c6.1,1.6,12.7,0.5,18.9,2c3.3,0.8,6.4,2.3,9.6,3.5
					c4.9,1.9,10.1,3.1,14.3,6.2c4.8,3.5,8,10.5,3.8,15.7c-0.7,0.8-1.2,1.7-1.5,2.7c-2.2,5.9,3.7,6.9,6.2,10.1
					c2.2,2.8,1.6,6.9,2.9,10.3c1.3,3.5,4.7,6,8.3,7.2c11.5,3.7,23.6-4.2,35.6-3.3c4.5,0.3,8.9,1.9,13.4,2.1
					c4.5,0.2,9.6-1.6,11.4-5.7c-0.2,0.4,0.9-0.8,0.8-0.4c1-1.4,2.5-1.8,4-1.5c2.7,0.6,2.5,4.6-0.3,5.1c-8.1,1.5-14.6,9.7-22.7,13
					c-3.4,1.3-7.4,2-8.6,6c-0.7,2.1-0.3,4.3,0.8,6.2c2.4,4.1,6.8,5.8,10.9,7.4c9.6,3.7,19.9,7.5,29.9,5c5-1.2,9.7-4,14.9-4.2
					c4-0.1,7.9,1.5,11.8,2.5c12.8,3.4,27.1,0.8,37.9-6.9c2.5-1.8,4.8-3.8,6.3-6.5c3.6-6.2,2.3-14.8,7.3-19.9
					c5.1-5,14.6-4.2,18.3-10.3c4.5-7.4-3.6-19,2.7-25.1c5.1-2.9,11.7-0.9,16.8,2s9.8,6.9,15.6,8.1c5.1,1.1,10.3-0.1,15.4-0.3
					c9.1-0.3,18.1,2.4,27.1,1.8c12.5-0.8,24.1-7.7,36.6-7.5c6.9,0.1,13.6,2.5,20.5,3.3c7.2,0.8,14.5-0.1,21.6,1
					c6.6,1,14.3,6.9,17.4,12.8c10.8,20.2,43.9,14.7,67.5,11.8c17.8-2.2,35.7-6.3,53.6-5c8.4,0.6,16.9,2.4,25.2,1.1
					c8.3-1.3,16.8-6.8,18.2-15.1c1.6-9.8-7-18.4-15.9-22.7c-8.9-4.3-19.1-6.5-26.6-13c-2.7-2.4-5.1-5.5-8.6-6.7
					c-3.5-1.3-7.4-0.5-10.9-1.7s-6-6.4-2.9-8.4c16.3-9.3,36.3-8.4,55-6.7c28,2.5,56.4,6.2,84.2,1.8c13.8-2.2,30.3-10.1,29.3-24.4
					c-0.4-5.3-3.2-10.1-7.3-13.5c-7.9-6.6-18-7.8-27.7-9l-43.4-5.2c-1.7-0.2-3.3-1.1-4.3-2.5c-3.5-5.3,6.4-10.2,6-16.4
					c-0.4-6-9.1-6.8-13.4-11c-2.5-2.5-3.3-6.2-4.9-9.4c-4.3-8.1-14.2-11.5-23.3-12.3c-9.1-0.9-18.5,0.1-27.3-2.6
					c-9.8-3-17.7-10.2-27.4-13.7c-11-4-23.1-2.8-34.7-4.5c-17.9-2.7-33.9-12.4-49.5-21.6c-1-0.6-1.8-1.3-2.5-2.2
					c-3.9-5.7,3.5-11,9.6-12.7c27.1-7.9,55.8-10.1,83.8-6.6c8,1,18.5,1.3,21.7-6.1c2.9-6.6-1.4-17,6.2-19.3c2.5-0.8,5.1-0.3,7.4,0.9
					c11,5.7,22.5-5.9,33.3-2.4c6.2,2,9.8,8.4,14.8,12.6c12.3,10.5,30.7,7.3,46.7,9.5c12.2,1.7,23.6,6.9,34.7,12.1
					c10.5,4.8,21.4,9.9,28.9,18.8c3.6,4.2,6.5,9.4,11.3,12c1.9,1,3.9,1.6,6,2C1037,379.3,1036.1,376.8,1035.1,374.3z"/>
				<path fill="#727024" d="M1035.3,342.5c2.8-1.6,5.8-2.5,7.8-5.2c2.1-2.8,3-6.7,3.7-10c1.3-6.5,1.1-13.1,0.9-19.6
					c-0.1-4.7-0.3-9.4-0.4-14c-33.6-5.5-70.4,13.8-101.2-0.9c-8.7-4.2-16.4-10.9-25.9-12.6c-7.6-1.4-15.6,0.7-23.1-1.1
					c-4.7-1.1-9.1-3.7-13.9-3.9c-7.9-0.3-14.6,5.9-22.4,6.9c-9.3,1.2-17.9-4.8-27.1-6.1c-8-1.1-16,1.4-24.1,1
					c-11.3-0.6-21.4-6.7-32.2-9.9c-28.1-8.1-59.4,4.6-87.1-4.8c-5.3-1.8-11.2-7.2-8.1-11.8c2.7-4.1,9.1-2.2,13.8-3.3
					c7.9-1.9,10.6-11.9,17-16.8c11.4-8.8,28.7,1.2,42.2-4c8-3.1,13.5-11.3,21.8-13.6c12.5-3.4,28.3,7.6,37.7-1.4
					c2.8-2.6,4.1-6.5,6.7-9.3c5-5.4,13.2-6,20.6-5.6c25.1,1.2,49.8,8.6,74.8,6.6c12-1,27-2.8,33.3,7.5c2.3,3.7,2.7,8.3,5.2,11.9
					c6.1,9,19.8,6.8,30.1,10.3c5.1,1.7,9.5,4.9,14.3,7.2c13.9,6.6,29.2,5,44.7,2.8c-0.1-1.7-0.2-3.4-0.5-5.1
					c-1.1-6-4.4-11.1-8.3-15.7c-4.1-4.9-8.7-9.4-11.3-15.3c-2.3-5.1-3-10.8-5.4-15.9c-6.2-13.4-18.2-20.7-31.5-25.7
					c-7.2-2.7-14.4-5.2-21-8.8c-15.8,1.4-31.6,2.8-47.4,4.2c-5,0.4-10.1,0.9-15-0.1c-11.7-2.3-20.4-12-30.9-17.7
					c-15.5-8.5-34.2-7.8-51.9-7c-11.3,0.5-23,1.2-32.8,6.9c-6.2,3.6-11.3,9-18.1,11.4c-8.1,2.9-17.9,0.4-23.6-6
					c-4.4-4.9-12.2-5-18.5-3.5c-6.4,1.5-12.5,4.6-19,4.8c-5.3,0.2-10.5-1.6-15.8-2c-14.7-1.2-28.9,7.6-43.6,6
					c-7.3-0.8-14.3-4.2-21.6-4.3c-13.3-0.2-24.9,10.2-38.2,10.2c-6.7,0-13.2-2.5-19.8-2.2c-8,0.4-15.1,4.8-22.6,7.5
					c-31.1,11.3-64.8-7.2-97.9-7.4c-9.2-0.1-19,1.1-26.8-3.6c-3.6-2.2-6.5-5.4-10.1-7.6c-8.9-5.4-20.3-3.1-30.7-4.6
					c-17.5-2.5-32.9-16.1-50.5-14.3c-9.2-4.5-20.4-1.8-30.5-3.2c-12.1-1.6-23-8.6-35.2-9.2c-5.8-0.3-12,0.7-16.9-2.4
					c-5.5-3.6-6.9-11.3-12.1-15.3c-6.7-5.3-18-2.9-23.3-9.6c-2-2.5-2.7-5.7-4.4-8.4c-2.2-3.3-5.7-5.5-9.1-7.5
					c-12.2-7-25.4-13.3-39.4-13.2c-1.7,0-3.5,0.1-5.1-0.4c-2.3-0.7-4.1-2.6-6.2-3.8c-7.5-4.2-18.4-0.1-26.9,0.8
					c-11.9,1.3-19.7,6-30.7,10.7c-1.9,0.8-3.9,1.7-4.9,3.5c-1.7,2.9,0.2,6.8,3,8.8c6.6,4.9,16,2.9,23.6-0.3
					c7.6-3.2,15.5-7.3,23.6-5.9c3.1,0.6,6.1,1.9,9.3,2.2c6.2,0.4,13.6-3.3,18,1.1c2.2,2.2,2.5,5.5,4,8.2c4,7.3,14.1,7.6,22.4,8.2
					c7.8,0.7,16.5,3.3,20,10.4c3.2,6.5,1.4,15.7,7.3,20.1c5.5,4.1,14.7,0.9,19.3,5.9c5.1,5.5-0.1,14.9,3.2,21.6
					c2.4,4.9,8.4,6.7,13.7,8.2c3.1,0.9,7,3.6,5.6,6.6c-1.4,3-5.9,1.7-9.2,2.1c-5.3,0.7-8.1,6.7-13,8.8c-2.3,1-4.8,1-7.1,1.8
					s-4.6,2.8-4.4,5.2c0.2,2,2,3.7,1.9,5.7c-0.2,4.2-7,4-9.6,7.3c-1.8,2.3-1,5.7-1.7,8.5c-1.5,6.3-9.3,8.3-15.6,9.2
					c-17.1,2.5-34.3,4.9-51.4,7.4c-5.9,0.8-13.2,3.2-13.5,9.1c-0.2,3.9,3,7.2,3.4,11.1c0.4,3.6-1.8,6.9-2.7,10.5
					c-1.7,6.4,1.2,13.8,6.8,17.3c4.8,3.1,11.1,3.5,15.1,7.5c2.1,2.1,3.3,4.8,5,7.2c4,5.5,10.7,8.9,17.6,8.8c3.5-0.1,6.1,3.9,6.7,7.3
					s-0.9,7-3.1,9.6c-2.2,2.7-5.1,4.7-7.8,6.9c-7.1,5.7-13.4,12.8-15.8,21.6c-2.4,8.8,0.1,19.3,7.6,24.4c8.3,5.6,19.7,3.3,28.8,7.4
					c7.3,3.3,12.3,10.2,19.3,14.1c8.5,4.7,18.9,4.3,28.6,4.9s20.5,2.9,26.1,11c1.6,2.3,2.6,4.9,4.6,6.8c2.9,2.8,7.2,3.4,10.6,5.6
					c3.9,2.4,6.4,6.9,6.5,11.5c0.1,7-4.9,13.3-4.9,20.3c0,7.4,5.9,13.8,12.7,16.6c4.2,1.7,9.3,2.9,11,7.1c2.6,1.3,1.6,4.2,1.5,7.1
					c-0.1,2.9-0.7,5.9,0.6,8.6c2.3,4.8,8.9,5.1,14.2,5.2c4.9,0.1,9.9,0.7,14.2,2.9c4.3,2.3,7.8,6.6,8,11.5c0.1,2.2-0.5,4.4-0.2,6.5
					c0.8,6.2,7.9,9.3,14,10.7c6.1,1.4,13.3,3,16,8.7c2.3,5,0.1,11.1,2.2,16.2c1.5,3.7,5.1,6.2,8.8,7.4c3.8,1.2,7.8,1.3,11.8,1.4
					c6.1,0.1,12.2,0.2,18.3,0.3c2.1,0,4,0.8,5.8,2.1s2.9,3.7,1.8,5.6c-1.5,2.7-6,2.4-7.5,5.1c-1.2,2.3,0.9,5.1,3.3,5.8
					c2.5,0.7,5.1-0.1,7.6-0.7c11.4-2.8,23.5-2.5,34.7,0.9c1.6,0.5,3.5,1.4,3.7,3.1c0.2,1.7-1.5,3-2.4,4.4c-2.2,3.5,0.5,8.5,4.3,10.1
					c3.8,1.6,8.2,1,12.3,0.4s8.5-1.1,12.2,0.7c2.1,1.1,3.8,2.9,5.9,4.1c7.1,4.2,16.6,0.4,22.1-5.7c2.6-2.9,4.8-6.3,8.1-8.4
					c3.6-2.3,8.4-2.9,10.9-6.3c3.2-4.3,0.9-10.4-1.4-15.4c-2.3-4.9-4.2-11.3-0.6-15.2c4.3-4.6,11.8-1.8,18.2-1.5
					c5.9,0.3,11.9-2.1,17.6-0.3c4.6,1.4,8,5.3,12.3,7.3c5.5,2.5,11.8,1.9,17.8,1.2c5.9-0.7,12.8-2.2,14.9-7.7c0.7-1.9,0.7-4.1,1.6-6
					c2.4-4.7,9-4.5,14.1-3.6c5.3,0.9,10.5,1.7,15.8,2.6c7.9,1.3,16,1.2,24,0.3c3.5-0.4,6.9-1.1,10.4-1.2
					c13.6-0.7,26.3,6.3,37.9,13.6c11.5,7.3,23.2,15.4,36.7,17.3c13.8,1.9,27.6-2.9,41.5-2.9c7.1,0,14.4,1.2,21.2-0.9
					c6.8-2.1,12.9-9.1,10.8-15.9c-0.4-1.3-1.1-2.6-2.3-3.4c-1.8-1.3-4.2-1.2-6.5-1.2c-5.7-0.1-11.7-1.7-15.7-5.9
					c-2.9-3.1-4.5-7.5-7.9-10.1c-2.5-2-5.6-2.8-8.4-4.2c-2.8-1.4-5.5-3.8-5.8-6.9c-0.3-3.6,2.9-6.7,6.3-7.9s7.2-1.2,10.8-1.9
					c3.6-0.7,7.3-2.6,8.5-6.1c4.1-11.9,23.2-13.8,35.7-11.9c12.4,2,24.5,6.9,37.1,6.8c4.4,0,8.8-0.7,13.2-0.2
					c5.2,0.6,10,2.9,15.1,4.1c4.2,1,8.4,1.2,12.7,1.5c10.5,0.6,21.4,1.1,31.2-2.8c5-2,10.1-6.1,9.9-11.5c-0.2-5.4-5.7-9.3-11-10.1
					c-5.4-0.8-10.8,0.4-16.2,0.5c-11.9,0.2-23-5.4-34.6-8c-5.4-1.2-10.9-1.8-16.1-3.6c-5.2-1.8-10.2-5.1-12.5-10.1
					c-2.7-5.9-1.4-13.6-5.8-18.3c-4.7-5-12.7-3.8-19.5-4.7c-6.5-0.8-12.7-4-17.2-8.9c-1.9-2-3.5-4.4-5.6-6.2c-7-5.9-19.3-3.2-23.3,5
					c-0.6,1.2-1,2.5-1.9,3.5c-1,1.2-2.5,1.8-4.1,2.1c-5,1.1-10.5-0.7-13.9-4.5c-2.6-3-4.1-7-7.4-9.2c-2.6-1.7-5.8-1.9-8.5-3.4
					c-2.9-1.6-4.9-4.5-7.3-6.8c-6.5-6-16.1-6.9-24.9-7.4c-1.2,1.6-3.4-0.6-5.1-1.7c-5.4-3.5-11.6-8.5-10.6-14.9
					c0.2-1.1,0.6-2.3,0.5-3.4c-0.3-2.2-2.5-3.7-4.5-4.6c-6.6-3-14.7-4.2-18.9-10.1c-4.5-6.3-1.7-16.4,5.4-19.5
					c3.7-1.6,7.8-1.4,11.6-2.7c6.6-2.3,10.7-8.9,16.9-12.2c8.3-4.4,18.4-2.1,27.7-0.3c12,2.3,24.9,3.4,36-1.6c3-1.4,5.8-3.1,8.8-4.6
					c7.6-3.9,18.7,2.5,25.7-2.3c3.3-2.3,4.3-6.8,7.2-9.5c7.2-6.7,18.5,1.5,28.4,1.4c6.3-0.1,12.3-3.9,18.6-3.3
					c2.9,0.3,5.6,1.4,8.2,2.6c16.2,7.5,31.8,17.3,49.4,20.3c17,2.9,35.7-0.3,50.4,8.7c5.8,3.5,10.4,8.8,16.2,12.2
					c4.3,2.5,9.1,4,14,5C1027,348.7,1030.9,344.9,1035.3,342.5z"/>
				<path fill="#8E8F37" d="M545.4,192.2c-0.1-1.2-0.3-2.4-0.5-3.6c-0.8-4.1-3.7-7.5-7.6-9.1c0,0,0,0,0,0c-2.7-1-5.5-2-8.4-2.4
					c-5-0.8-10.2,0.2-15.2,1.1c-1.7,0.4-3.5,0.7-5.2,0.8c-2.4,0.3-4.8,0.4-7.2,0.2c-2.9-0.2-5.7-0.7-8.5-1.4
					c-5.3-1.3-10.4-3.1-15.8-3.6c-2.8-0.3-5.5,0-8.3-0.3c-2.5-0.3-4.8-1.1-7.1-2.1c-4.3-1.9-8.2-4.5-12.9-5.6
					c-2.8-0.6-5.7-0.7-8.5-0.9c-2.9-0.2-5.8-0.5-8.7-1.2c-3.1-0.7-6-1.9-9.1-2.6c-2.9-0.6-5.9-1-8.9-1.1c-3.8-0.1-8.3-0.1-10.6,3.4
					c-1.3,2.1-2.1,4.5-3.3,6.7c-1.1,2.1-2.5,4.1-3.9,6.1c-1.7,2.4-3.5,4.4-3.7,7.4c-0.2,2.7,0,5.4-1,8c-2.1,5-8.3,6.5-12.6,7.6
					c-0.8,0.2-1.7,0.4-2.5,0.6c-2.3,0.5-4.5,1.2-6.7,1.6c-2.5,0.5-5.1,0.9-7.5,1.8c-1,0.4-1.9,0.9-2.7,1.6c-0.4,0.3-0.7,0.7-1,1
					c0,0.1-0.2,0.3-0.3,0.5c0.2,0.1,0.5,0.3,0.8,0.4c1,0.4,2.1,0.5,3.1,0.6c1.8,0.1,3.6,0.1,5.4-0.1c7.3-0.6,14.3-1.8,21.5-0.6
					c6.3,1,12.4,3,18.8,3.2c2.8,0.1,5.6,0.1,8.3,0.8c2.1,0.5,4,1.5,5.8,2.8c2.8,1.9,5.6,4,7.6,6.7c0.1,0.1,0.1,0.1,0.2,0.2
					c2,1.9,3.2,4.2,2,6.7c-0.4,0.9-1.1,1.6-1.8,2.2c-9.9,8.1-23.4,9-36,9.5c-5.9,0.3-11.9,0.5-17.8-0.3c-12-1.7-23.1-7.8-35.1-9.4
					c-1.5-0.2-3-0.3-4.3,0.5c-1.4,0.9-1.9,2.8-2.6,4.3c-2.5,5.5-9,8.1-15,8.6s-12.1-0.6-18.1-0.1c-5.6,0.5-11,2.3-16.6,3.2
					c-17.4,2.6-34.7-4.8-52.2-4.8c-4.6,0-9.5,0.7-12.7,4c-2.4,2.5-3.4,6.1-5.9,8.6c-2.6,2.5-6.3,3.4-9.8,4.2l-11.4,2.5
					c-1.8,0.4-3.9,1-4.4,3c-0.4,1.5,0.4,3.2,1.8,4c2.8,1.7,5.9,0.7,8.8,0c16.1-4.1,34-0.1,46.7,10.6c0.8,0.7,1.4,1.5,1.8,2.5
					c2.1,5.8-7.1,8-10.7,12.7c-1.3,2.4,1.6,5.2,4.3,5.6s5.6-0.5,8.3,0.2c4.8,1.3,6.8,6.9,10.2,10.5c6,6.3,16.2,6,24.6,3.6
					c8.4-2.4,16.5-6.6,25.3-6.4c3.5,0.1,7,0.8,10.5,0.1c4-0.8,7.3-3.5,11.2-4.8c8.4-2.8,17.6,1.5,26.5,0.9c4.2-0.3,8.2-1.7,12.4-1.8
					c4.3,0,8.4,1.4,12.2,3.4c1.2,0.6,2.4,1.1,3.6,1.6c3.9,1.5,7.1,4.8,10.3,8.1c1.6,1.4,3.1,2.8,4.5,4.4c1.4,1.2,2.8,2.2,4.4,3
					c1.7,0.8,3.9,1.3,6.1,1.3c0.1,0,0.1,0,0.2,0c1.1-0.2,1.8-0.6,2.5-1.3c0.5-0.6,0.9-1.7,1.1-2.7c0.2-1.4,0-2.8-0.4-4.2
					c-0.3-0.3-0.6-0.7-0.9-1c-1.5-1.7-2.7-3.4-4-5.2c-1-1.4-2-2.7-3.2-3.9c-1.3-1.2-2.8-2.1-3.9-3.5c-1.6-1.9-3.3-4.3-3.8-6.7
					c-0.2-1.2,0.1-2.5,1.2-3.1c0.2-0.1,0.4-0.2,0.6-0.2c1-0.2,2-0.7,3-1.2c1-0.5,2-1,2.9-1.5c4.4-2.7,7.8-6.6,11.9-9.7
					c4.5-3.4,9.4-4.7,15-4.7c8.2,0,16.4-0.8,24.5-1.9c3.5-1.4,6.3-3.5,6.2-7.2c-0.1-2.1-1.2-4-1.3-6.1c-0.3-5.2,5.6-8.5,10.8-9
					s10.7,0.5,15.3-1.8c3.9-1.9,6.4-5.8,9.8-8.5c3.7-3,8.4-4.5,12.8-6.4c8.9-3.8,16.9-9.2,24.8-14.6c3.1-2.1,6.4-4.4,8.4-7.6
					C546.8,205.4,546.2,198.5,545.4,192.2z"/>
				<path fill="#8E8F37" d="M489.6,282.7c0.1,5,3,9.9,1.9,14.7c-1.1,5-6,8.2-8.5,12.7c-1.5,2.7-2.1,5.9-3.7,8.7
					c-4.4,7.9-14.8,9.6-22.5,14.3c-6.4,3.9-11.4,10.3-18.4,13.1c-3.5,1.4-7.4,1.8-10.4,4.1c-3,2.2-4.3,7.4-1.2,9.5
					c2,1.4,4.9,0.9,6.7,2.6c1.8,1.7,1.4,4.7,2.3,7c1,2.4,3.4,4,4.7,6.2c2.4,4.1,0.1,10.2-4.5,11.6c-1.5,0.5-3.1,0.5-4.4,1.3
					c-1.3,0.8-2.1,2.7-1.1,3.8c0.3,0.3,0.8,0.5,1.3,0.7c10.2,3.7,22.6,2.4,30.5,9.8c2.2,2.1,3.8,4.6,6.1,6.6c7,6.2,18,5.2,26,10.2
					c3.6,2.2,6.3,5.6,9.6,8.3c7,5.9,16.4,8.9,25.5,8c1.9-0.2,3.7-0.5,5.6-0.1c6.9,1.6,9.1,12.3,16.2,12.8c6.2,0.4,9.5-7.6,15.4-9.5
					c2.6-0.9,5.4-0.4,8.1-0.3c12.7,0.8,25.7-4.2,34.6-13.3c1-1,1.9-2.1,2.4-3.4c0.5-1.4,0.4-2.8,0.4-4.3c-0.3-7.7-0.7-15.3-1-23
					c-0.1-2.2-0.2-4.4-1.1-6.4c-3.3-7.4-15.9-9-16.1-17.1c-0.1-5,4.9-8.4,9.4-10.5c4.5-2.1,9.7-4.6,10.8-9.4
					c0.9-4.2-1.7-8.7-0.4-12.8c2.5-8.1,16.5-6.8,19.8-14.6c1.8-4.2-0.7-9.3-4.7-11.6s-8.8-2.3-13.3-1.6c-4.5,0.8-8.9,2.3-13.5,2.3
					h-10c-4.4-1.1-8.9-1.7-13.2-0.2c-3,1-5.7,2.6-8.7,3.3c-8,2-16.3-1.9-24.5-2.9c-3-0.4-6.1-0.3-9.1-1.2c-2.9-0.8-5.8-2.8-6.6-5.7
					c-0.7-2.5,0.1-5.4-1-7.7c-1.6-3.3-6.3-4.4-7.3-7.9c-0.6-2.1,0.5-4.5,2.3-5.8s4-1.8,6.2-2c1.6-0.1,3.3-0.1,4.8-0.7
					c1.1-0.4,2-1.2,3-1.9c4.1-3,9-4.9,14.1-5.5c1-0.1,2.1-0.2,3-0.7c0.9-0.6,1.5-1.6,2-2.5c2-3.5,4.7-7.3,8.8-7.8
					c2.5-0.4,5,0.6,7.5,0.5c3.3-0.1,6.3-2,9.6-1.7c2.7,0.2,5.1,1.9,7.8,2.5c3,0.7,6.2,0,9.2-0.7c6.2-1.4,12.7-3,17.4-7.3
					c0.5-0.4,0.9-0.9,1.1-1.5c0.3-1.4-1.1-2.4-2.1-3.4c-1.2-1.2-2.1-2.9-2.3-4.6c-0.2-1.3,0-2.8-0.6-4c-0.6-1.3-2-2.1-3.2-2.7
					c-3.1-1.7-6.4-3.4-9.9-3.6c-5.3-0.3-10.1,3-15.4,3.6c-6.6,0.8-13.1-2.5-19.7-1.8c-8.4,0.9-14.7,7.9-22.1,11.9
					c-8.8,4.8-19.2,5.3-28.6,9C505.3,263.6,489.3,271.2,489.6,282.7z"/>
				<path fill="#8E8F37" d="M880.2,524.8c-3.4,1.5-6.3,5.4-4.7,8.7c0.9,2,3.2,3,5.4,3.2c2.2,0.3,4.4-0.1,6.5-0.1
					c6.9,0,13.2,3.4,19.8,5.2c18.4,5.3,37.9-1.2,56.9-3.5c1.9-0.2,3.8-0.4,5.4-1.3c1.6-0.9,2.9-2.7,2.6-4.6c-0.4-2.5-3.4-3.7-6-4
					c-5-0.6-10.1,0-14.8-1.5c-6.5-2.1-10.7-5-17.8-5c-4.6,0-9.1,0.5-13.7,1.2c-6.2,0.9-12.5,1.8-18.8,1.3
					C894.2,523.9,886.9,521.8,880.2,524.8z"/>
				<path fill="#8E8F37" d="M948.4,422.1c-2.1,0.1-4.2,0.4-6,1.4c-1.8,1-3.3,2.9-3.2,5c0.1,2.6,2.6,4.6,5.1,5.2
					c2.5,0.6,5.2,0.3,7.8,0.3c9,0,18,4.3,26.8,2.4c4.7-1,9-3.8,13.9-4c3.1-0.2,6.2,0.8,9.4,0.8c3.1,0,6.7-1.1,7.9-4
					c1.3-3.1-0.8-6.8-3.7-8.4c-7.6-4.1-18.1-0.6-25.9,1C969.8,423.9,959,421.4,948.4,422.1z"/>
				<path fill="#8E8F37" d="M957.4,397.6c-0.5,3.9,3.9,6.9,7.8,7.2c4,0.3,7.9-1,11.8-0.8c3.3,0.2,6.4,1.5,9.7,2
					c10.3,1.4,19.7-5.9,30-7.3c0.8-0.1,1.6-0.2,2.2-0.7c6.5-5-12.7-5.7-14-5.8c-5-0.2-9.9-0.8-14.8-1.2
					C983,390.5,958.7,387.8,957.4,397.6z"/>
				<path fill="#8E8F37" d="M884.2,225.4c-5,0.8-9.7,3-14.7,4c-6,1.2-12.2,0.6-18.3,0.4c-15.1-0.6-30.1,1.3-45,3.2
					c-2.3,0.3-4.7,0.6-6.8,1.8c-0.2,0.1-0.4,0.3-0.6,0.4c-4.1,2.8-2.6,9.3,2.3,10.2c5.4,1,11,0.8,16.4-0.5c2.3-0.6,4.6-1.4,7-1.3
					c2.9,0.2,5.6,1.8,8.3,3c14,6.4,30.2,3,45.6,2.6c3.6-0.1,7.4,0,10.7,1.4c3.5,1.5,6.2,4.3,9.5,6.1c4.3,2.3,9.4,2.5,14.3,2.6
					c5.3,0.1,10.9,0.2,15.5,2.8c3.4,2,6.1,5.2,9.6,7c7.3,3.7,16.2,0.5,24.2,2.4c2.9,0.7,5.6,2.1,8.6,2.8c3.7,0.9,8.2,0.3,10-3.7
					c0.8-1.8,0.8-4,0-5.8c-1.6-4.1-5.6-6.4-9.6-7.6c-3.4-1-7-1.5-10.4-2.5c-7-2.1-13.1-6.6-20.2-8.3c-2.4-0.6-4.9-0.9-6.9-2.2
					c-2-1.3-3-4.2-2.3-6.4c2.8-9.6-7.9-9.3-15.3-9.2C905.3,228.7,894.9,223.8,884.2,225.4z"/>
				<path fill="#727024" d="M219.6,428.5c-1.7,0.1-3.4,0.2-4.8,1c-1.5,0.8-2.6,2.4-2.2,4c0.4,1.7,2.3,2.7,4.1,3
					c3.8,0.7,7.7-0.5,11.6-0.7c6.3-0.3,12.5,1.9,18.7,1.3c2.9-0.3,5.9-1.3,8.8-0.9c1.5,0.2,2.9,0.8,4.4,0.6c1.4-0.2,2.7-1,3.7-2
					c1-1,1.8-2.3,1.7-3.7c0-2.6-2.9-4.4-5.5-4.8c-4.1-0.7-8.3,0.4-12.5-0.1c-2.7-0.3-5.4-1.2-8.2-1.5c-3.3-0.3-5.6,0.7-8.5,1.8
					C227.5,427.9,223.3,428.2,219.6,428.5z"/>
				<path fill="#727024" d="M239.4,443.1c-1.6,0.2-3.2,0.9-4.8,0.9c-0.8,0-1.7-0.2-2.5-0.1c-1.3,0.1-2.4,1-3.4,1.8
					c-0.4,0.3-0.9,0.7-1,1.2c-0.2,0.6,0.2,1.4,0.7,1.8c0.5,0.4,1.2,0.6,1.8,0.8c4.7,1,9.5-0.1,14.3,0.3c1.5,0.1,3,0.4,4.4,0.1
					c1.5-0.3,2.9-1.4,2.9-2.9C252.1,442.8,242.2,442.7,239.4,443.1z"/>
				<path fill="#727024" d="M102.4,285.7c-1.6,0.3-3.3,0.9-4.5,2c-1.2,1.2-1.8,3.1-0.9,4.5c1.2,2,4,1.8,6.3,1.6
					c4.5-0.3,9.1,0.3,13.5,1.2c2.4,0.5,4.8,1.1,7.3,1s5-1,6.4-3c1.2-1.7,1.5-4.1,0.5-6.1c-0.9-1.9-2.9-3.2-5-3.1
					c-0.9,0.1-1.8,0.4-2.7,0.7C116.7,286.4,109.2,284.3,102.4,285.7z"/>
				<path fill="#B3804E" d="M69.4,129.9c-0.1-2.4-0.3-4.9-0.9-7.2c-0.2-0.9-0.5-1.7-0.7-2.6c-0.3-2,0.1-4,0-6
					c-0.1-1.7-1.3-5.5-3.7-4.8c-2.4,0.7-1.6,5.4-1.4,7c0.6,5.2,0.2,10.4-1.1,15.4c-0.5,1.9-1.2,3.9-2.1,5.6c-0.9,1.5-2,2.9-2.8,4.5
					c-2.4,4.5-2.5,10.1-0.7,14.9c0.4,0.9,1.3,2,2.2,1.5c0.3-0.2,0.4-0.4,0.6-0.7c0.7-1.5,0.6-3.3,0.6-4.9c0-3.5,0.4-7,1.2-10.5
					c0,0,0-0.1,0-0.1c0.1-1,0.3-2.1,0.8-3c0,0,0,0,0,0c0,0,0,0,0,0c0.2-0.4,0.4-0.7,0.7-1c0.2-0.3,0.6-0.1,0.8,0.1
					c0.9,1.3,1,3,0.9,4.5c-0.1,1.4-0.4,2.8-0.5,4.2c-0.2,1.4-0.2,2.9-0.2,4.3c0.1,1,0.2,2.1,0.3,3.1c0.1,1.6,0.3,3.2,0.9,4.7
					c0.2,0.4,0.4,0.7,0.7,0.9c0.9,0.4,1.8-0.6,2.1-1.6c1.8-4.9,0.6-10.3,1.4-15.4c0.2-1.4,0.6-2.8,0.8-4.2
					C69.8,135.8,69.6,132.8,69.4,129.9z"/>
				<path fill="#B3804E" d="M86.7,132.9c-0.6-3.8-1.9-7.5-1.3-11.3c0.2-1.5,0.8-2.9,1.1-4.4c0.3-1.5,0.5-3.1,1.4-4.3
					c0.9-1.2,2.5-1.7,4-1.8c1.3-0.1,2.7,0.2,3.5,1.2c0.7,0.8,0.8,2,0.7,3.1c-0.4,3.9-3.1,7.2-3.5,11.1c-0.2,1.5,0.1,3.1-0.2,4.6
					c-0.2,1.1-0.6,2.2-0.9,3.3c-0.7,2.9-0.7,5.9-0.6,8.9c-0.4-0.3-0.6-0.6-0.9-1c-0.4-0.6-1.3-0.5-1.3,0.2l-1,8
					c-0.1,0.9-1.4,1-1.7,0.2c-0.2-0.8-0.2-1.8-0.1-2.6C86.9,143.2,87.5,137.9,86.7,132.9z"/>
				<path fill="#B3804E" d="M128.7,140.5c-1-3.5-3.4-6.6-4-10.3c-0.5-3.3-0.9-7.4-0.6-12.8c0.2-4,0.3-4.9,0.5-8.5
					c0-0.2-0.1-0.4-0.1-0.6c0-0.1-0.1-0.4-0.3-0.5c-0.1,0-0.3,0-0.4,0.1c0,0,0,0,0,0c-0.3,0.5-0.4,1.3-0.5,1.8
					c-0.3,1.1-0.4,2.2-0.6,3.2c-0.3,2.3-0.2,4.7-0.3,7.1c-0.3,5.2-1,10.4-2,15.6c-0.3,1.2-2.1,1.3-2.3,0c-0.4-2-0.3-4.4-1.1-6.4
					c-0.2-0.5-0.6-0.9-1.1-0.9c-0.2,0-0.4,0.2-0.6,0.3c-0.8,0.7-1.2,1.8-1.3,2.8c-0.4,3.9-0.2,7.8,0,11.8c0.2,4.9,0.5,9.9,0.7,14.8
					c0.1,1.1,0.2,2.2,1.2,2.8c0.7,0.3,1.5,0.2,2.1-0.2c1.1-0.7,1.6-2,2.1-3.2c0.8-2,1.8-4,2.9-5.9c0.4-0.7,0.8-1.4,1.5-2
					c0.8-0.7,1.9-1.1,2.8-1.7C129.3,146.1,129.5,143,128.7,140.5z"/>
				<path fill="#B3804E" d="M145.6,142.9c0.1,0.8,0.2,1.7,0.7,2.4c0.5,0.7,1.4,1.1,2.2,0.7c0.4-0.2,0.6-0.7,0.8-1.1
					c0.7-1.9,0.5-4,0.9-6c0.8-3.5,3.9-6.6,3.2-10.2c-0.3-1.5-1.3-2.8-2.1-4.1c-1.3-2-2.1-4.3-2.6-6.7c-0.5-2.4-0.6-5-2.1-6.9
					c-0.4-0.5-0.9-1-1.2-1.6c-0.3-0.7-0.3-1.4-0.4-2.1c-0.1-2.1-0.6-4.2-1.3-6.2c-0.1-0.4-0.3-0.7-0.6-0.9c-0.5-0.3-1.2-0.1-1.6,0.4
					s-0.5,1.1-0.5,1.7c-0.3,3,0.8,5.3,1.1,8.1c0.4,3.6,0.7,7.1,1.1,10.7C143.9,128.4,144.7,135.7,145.6,142.9z"/>
				<path fill="#B3804E" d="M68,307.3c0.3,5.3-2.5,10.7-1,15.8c1,3.5,3.7,6.2,5.4,9.4c2.8,5.1,2.7,11.3,2.6,17.1
					c0.3,0.3,0.8,0.1,1-0.2c0.2-0.3,0.3-0.7,0.3-1.1c0.2-2.5,0.5-5,0.7-7.5c0.2-1.8,0.3-3.7,0.1-5.6c-0.3-2.7-1.5-5.2-2.6-7.7
					c-0.9-2-1.8-4.2-1.6-6.4c0.1-2.2,1.2-4.4,1-6.6c-0.1-1.3-0.7-2.5-1-3.8c-0.6-2.4-0.1-5.1-1.3-7.3c-0.5-0.9-1.2-1.6-1.6-2.5
					c-0.4-0.8-0.6-3.1-1.5-3.6c-0.8-0.4-1.7,0.4-1.9,1.2c-0.3,1.2,0.4,3.1,0.7,4.3C67.5,304.3,67.9,305.8,68,307.3z"/>
				<path fill="#B3804E" d="M84,318.7c-0.1,4.7,1.3,9.5,0.5,14.2c-0.3,1.9-1,3.7-1.1,5.6c-0.3,3.6,1.4,7,1.4,10.6c0,2-0.6,4-0.1,5.9
					c0.1,0.5,0.5,1.1,1,1.1c0.2,0,0.4-0.1,0.6-0.2c1-0.7,1.3-1.9,1.5-3c0.2-1.5,0.4-2.9,0.4-4.4c0-1.2-0.1-2.5,0.2-3.6
					c0.3-1,0.9-1.9,1.4-2.9c1.4-2.7,1.8-5.9,1.7-9c0-1.7-0.2-3.4,0.3-5c0.3-0.9,0.8-1.8,0.9-2.7c0.2-1.8-0.8-3.5-2.2-4.7
					c-0.5-0.4-1-0.7-1.3-1.3c-0.5-0.7-0.6-1.6-1-2.3c-0.6-0.9-2-1.5-3-1.1C84.2,316.2,84,317.7,84,318.7z"/>
				<path fill="#B3804E" d="M99.7,397.3c2.2,4.6,4.9,9,6.8,13.7c1.3,3.3,2.1,6.8,2.8,10.3c1.8,8.7,3.2,17.4,4.2,26.3
					c1.2-0.8,1.8-2.2,2.1-3.5c0.7-3.4-0.3-6.9-1-10.3c-0.9-4.3-1.2-8.6-1.9-12.9c-1.1-6.5-3.1-12.8-5.1-19c-0.6-2-1.3-4-2.6-5.7
					c-0.7-0.9-1.7-1.7-2.4-2.6c-1.5-1.9-1.9-4.2-2.5-6.5c-0.3-1.3-0.6-4.9-2.4-3.6C94.2,385.6,98.5,394.7,99.7,397.3z"/>
				<path fill="#B3804E" d="M128.8,441.3c0.1,3.7-0.5,7.3-0.7,11c-0.3,5,0.1,10.1,0.6,15.1c0,0.4,0.1,0.8,0.4,1.1
					c0.4,0.4,1.2,0.2,1.5-0.3c0.4-0.5,0.4-1.1,0.5-1.6c0.8-7.4,1.8-14.7,2.9-22c0.1-0.5,0.2-1.2,0.7-1.4c0.3-0.1,0.8,0,1.1,0.2
					c1.3,0.9,1.1,2.7,1.3,4.3c0.4,2.2,1.9,3.9,2.8,5.9c1.6,3.9,0.5,8.4,1.4,12.6c0.2,1.2,1,2.6,2.2,2.5c1.3-0.1,1.8-1.7,2-3
					c0.5-3.3,1-6.7,1.5-10c0.2-1,0.3-2.1,0.1-3.2c-0.4-1.6-1.6-2.9-2.2-4.5c-1-2.9,0.6-6.4-0.6-9.2c-1.1-2.7-4.1-3.9-6.4-5.7
					c-1.9-1.5-5.3-5.6-8.1-3.3C127,432.1,128.7,438.4,128.8,441.3z"/>
				<path fill="#B3804E" d="M162.2,442.2c0.1,6.1,1.5,12.3,1,18.4c-0.2,2.4-0.7,4.9-0.3,7.3c0.1,0.7,0.5,1.5,1.1,1.5
					c0.8,0,1.1-1,1.3-1.8c0.9-6.9,1.5-13.9,1.9-20.8c0.8-0.5,1.9,0.4,2.2,1.3s0.5,2.1,1.2,2.7c0.1,0.1,0.3,0.2,0.5,0.2
					c0.3,0,0.5-0.4,0.6-0.7c0.7-2.5-0.2-5.1-1.1-7.5c-0.6-1.6-1.3-3.3-2.6-4.5C164.4,434.8,162.1,438.6,162.2,442.2z"/>
				<path fill="#B3804E" d="M162.1,514.4c0.7,4.4,2.6,8.7,3.2,13.1c0.6,4.7-0.2,9.6,1.6,13.9c1.1,2.8,3.2,5.1,4.6,7.8
					c3.1,5.7,3,12.5,4.6,18.8c0.3,1.4,0.8,2.8,1.6,4c0.8,1.2,2.1,2.1,3.6,2.1c1.1-0.8,2-1.9,2.6-3.1c0.3-0.7,0.5-1.4,1-2
					c0.6-0.7,1.5-1,2.4-1.3c2.1-0.7,4.3-1.4,6.4-2.1c1.1-0.4,2.2-0.7,2.9-1.6c0.7-0.8,1-1.8,1.2-2.8c0.6-2.2,1.1-4.7,0-6.7
					c-1.2-2.2-4-3-5.7-4.9c-1.1-1.3-1.7-2.9-2.2-4.5c-0.5-1.6-1.1-3.2-2.2-4.5c-1.1-1.3-2.9-2-4.5-1.5c-0.7,0.3-1.3,0.8-2,1
					c-2,0.7-4.1-0.9-5.2-2.7s-1.5-4-2.6-5.8c-0.8-1.1-1.8-2.1-2.2-3.5c-0.4-1.5,0.1-3.1,0.1-4.7c0-3.2-2.3-5.9-2.6-9.1
					c-0.2-2.3,0.6-4.5,0.6-6.8c0-3.1-2.9-7.2-5.3-3.5C161.7,507.2,161.5,511,162.1,514.4z"/>
				<path fill="#B3804E" d="M176.9,511.3c2.4,6.9,1.3,14.8,4.6,21.2c1.3-0.5,1.6-2.2,1.5-3.6c-0.1-2-0.5-4-0.8-5.9
					c-0.8-4.4-1.5-8.8-2.3-13.2c-0.2-1.2-0.4-2.5-1-3.6c-0.8-1.5-2.7-3-3.2-0.6C175.2,507.5,176.3,509.6,176.9,511.3z"/>
				<path fill="#B3804E" d="M213.8,499.1c-2,3-1,7-0.3,10.5c1.1,5.4,1.3,10.9,0.7,16.4c-0.2,1.8-0.5,3.7-0.3,5.5
					c0.2,1.4,0.7,2.7,1,4c0.7,3.2,0.1,6.5,0.3,9.8c0.3,4.2,1.7,8.4,1,12.6c-0.3,1.4-0.8,2.7-0.7,4.1c0,1.4,0.8,2.9,2.2,3.2
					c1.5,0.3,2.9-1,3.5-2.5c0.6-1.4,0.6-3,1.3-4.4c1.1-2.4,3.7-3.9,4.7-6.3c1.2-2.6,0.3-5.7-0.4-8.4c-1.1-4.5-1.9-9-2.6-13.5
					c-0.5-3.1-1-6.2-1.9-9.2c-0.5-1.7-1.2-3.3-1.5-5c-0.3-1.6-0.2-3.2-0.2-4.8c0.1-2.8,0.1-5.7,0.2-8.5c0-1.3,0.1-2.7-0.4-3.9
					C219,495.1,215.4,496.6,213.8,499.1z"/>
				<path fill="#B3804E" d="M229.9,496.5c-0.5,5.9,1.8,11.6,2.2,17.5c0.1,1.8,0,3.5,0.2,5.3c0.2,1.3,0.5,2.6,0.9,3.9
					c0.7,2.4,1.3,4.8,2,7.1c0.1,0.2,0.1,0.4,0.3,0.5c0.5,0.4,1.1-0.2,1.4-0.7c1.5-3.3-0.9-7-1.1-10.6c-0.2-2.6,0.8-5.1,0.6-7.6
					c-0.1-1.6-0.7-3.2-0.7-4.8c-0.1-1.6,0.5-3.4,1.9-4.1c0.8-0.4,1.7-0.4,2.4-0.9c0.7-0.6,0.9-1.7,0.6-2.6s-0.9-1.6-1.5-2.4
					C236.9,494.7,230.4,490.6,229.9,496.5z"/>
				<path fill="#B3804E" d="M277.8,567.5c3.4,9.3,6.8,18.7,10.3,28c1.1,3.1,2.3,6.3,4.1,9.1s4.4,5.2,7.5,6.3
					c4.4,1.5,9.4,0.1,13.8,1.7c1.4,0.5,2.7,1.3,4.1,1.8c3,1.1,6.5,0.8,9.2,2.6c0.9,0.6,1.7,1.5,2.7,2c1,0.6,2.2,0.8,3.2,0.3
					c1.6-1,1.1-3.5,0-5c-2.5-3.5-7-5.3-8.9-9.2c-0.8-1.5-1-3.3-1.6-4.9c-1-2.6-2.7-4.8-4.5-7c-3.9-4.8-7.9-9.6-13-13
					c-2.5-1.7-5.3-3-7.9-4.6c-3.2-2.1-5.9-4.8-8.5-7.5c-1.7-1.7-3.4-3.5-4.7-5.5c-0.9-1.6-1.6-3.3-3.1-4.4c-1.5-1.2-4.5-0.9-5,1.2
					C274.9,561.5,277,565.3,277.8,567.5z"/>
				<path fill="#B3804E" d="M327.5,575.6c1.1,3.2,2.7,6.3,3.5,9.6c0.7,2.8,0.7,5.8,1.5,8.6c0.8,2.8,2.3,5.3,3.8,7.8
					c0.1,0.2,0.2,0.4,0.4,0.5c0.7,0.4,1.3-0.7,1.3-1.5c0-9.7-6.5-18.7-5.8-28.3c0.1-1.2,0.3-2.5,0.2-3.7c-0.1-1.2-0.6-2.5-1.7-3.2
					c-2.1-1.3-3.9,0.2-4.2,2.2C326,570.1,326.6,573,327.5,575.6z"/>
				<path fill="#B3804E" d="M412,635.3c0.1,6,0.5,12,0.1,17.9c-0.2,2.4-0.5,4.8-0.2,7.1c0.3,1.9,0.9,3.8,0.8,5.7
					c-0.1,1.9-1,3.8-0.3,5.6c0.1,0.3,0.2,0.5,0.5,0.6c0.2,0.1,0.5,0.1,0.7,0c1.9-0.5,3-2.5,3.5-4.3c1-3.6,0.8-7.5,1.7-11.2
					c0.9-3.7,3.4-7.5,7.2-7.9c2.2-0.2,4.7,0.6,6.3-0.9c1.5-1.4,0.9-4.1-0.7-5.6c-1.5-1.5-3.6-2.1-5.4-3.2c-2.4-1.3-4.3-3.3-6.4-5
					c-1.6-1.2-3.3-2.3-5.3-2.8C411.7,630.9,411.9,633.1,412,635.3z"/>
				<path fill="#B3804E" d="M498.9,674.9c0.1,0.6,0.3,1.3,0.8,1.5c0.8,0.3,1.5-0.7,1.7-1.5c2-5.9,1.2-12.5,3-18.5
					c0.8-2.8,2.2-5.5,4-7.8c1.1-1.4,2.4-3,1.8-4.6c-0.2-0.6-0.7-1.1-1.2-1.4c-2.3-1.5-6.5-1.1-8.5,0.9c-1.6,1.7-1.5,5.3-1.8,7.5
					C497.7,658.9,497.8,667,498.9,674.9z"/>
				<path fill="#B3804E" d="M574,614.2c-0.5,1.4-0.6,3-0.7,4.5c-0.2,4.1-0.5,8.2-0.7,12.3c-0.2,2.9-0.3,5.8-0.2,8.7
					c0,0.9,0.3,2.1,1.2,2.3c1,0.2,1.7-0.9,2-1.9c1.8-5.5,0.9-11.6,2.6-17.2c0.9-2.8,2.4-5.3,4.4-7.4c1.4-1.4,3.2-3.2,2.5-5
					c-0.8-2.4-4.4-2.4-6.4-1.7C576.7,609.6,574.8,612.2,574,614.2z"/>
				<path fill="#B3804E" d="M623.9,628.6c0,3.1-0.2,6.2,0.2,9.3c0.2,1.2,0.5,2.4,1.3,3.3s2.3,1.2,3.2,0.4c0.5-0.4,0.7-1,0.8-1.6
					c0.6-2.2,0.5-4.6-0.2-6.8c-0.3-1-0.8-1.9-1-2.9c-0.2-1.3-0.1-2.5-0.1-3.8c0-2.4-0.8-4.8-1.5-7.1c-1.6-5.2-3.2-10.5-4.8-15.7
					c-1.9,2.5-0.2,8,0.3,10.9C623,619.2,623.8,623.9,623.9,628.6z"/>
				<path fill="#B3804E" d="M664.2,600.7c0.3,5.7,2.8,11,4.2,16.5c1.6,6.3,1.8,12.8,2.1,19.3c0.1,1.7,0.2,3.5,0.9,5.1
					c1,2.1,3.1,3.6,5.5,3.8c0.5,0,1.1,0,1.6-0.2c0.7-0.3,1.2-0.9,1.6-1.6c1.7-3,1.5-7-0.4-9.8c-0.6-0.9-1.4-1.7-1.8-2.7
					c-0.4-1-0.4-2.2-0.6-3.3c-0.5-3.4-2.4-6.5-3.6-9.7c-0.5-1.4-0.9-2.8-1.7-4c-0.6-1.1-1.5-2.1-2.2-3.2c-1.1-1.7-1.8-3.7-2.4-5.7
					c-1.5-5.3-2.1-10.9-2.7-16.4c-0.2,4.8-0.4,9.5-0.5,14.3"/>
				<path fill="#B3804E" d="M750.7,670.4c-0.8-4.7-4.5-8.5-5.2-13.3c-0.2-1.6-0.1-3.2-0.2-4.8c-0.1-3.5-1-6.9-1.8-10.3
					c-1-4.3-1.6-8.7-2-13.1c-0.2,2.1-0.5,4.1-0.7,6.2c-0.2,1.9-0.4,3.9-0.6,5.8c0,6.9,0.2,13.8,0.7,20.7c0.1,1.5,0.2,3.1,0.9,4.4
					c0.8,1.7,2.2,2.9,3.1,4.5c0.5,0.9,0.8,1.8,1.4,2.6c0.6,0.8,1.5,1.4,2.5,1.3C750.5,674.4,751,672.1,750.7,670.4z"/>
				<path fill="#B3804E" d="M788.8,677.4c0,1.5,0,3,0.2,4.5c0.4,2.6,1.8,4.9,3.1,7.1c0.6,1,1.2,2,2.2,2.6s2.3,0.7,3.2,0
					c0.4-0.4,0.6-0.9,0.8-1.4c0.6-2,0.2-4.3-1.1-5.9c-0.7-0.9-1.6-1.6-2.2-2.4c-0.9-1.1-1.4-2.5-1.8-3.9c-2.9-9-3.7-18.5-6.5-27.5
					c0,4.2,0.7,8.6,1.2,12.8C788.4,667.9,788.8,672.6,788.8,677.4z"/>
			</g>
			<g>
				<g>
					<path fill="#DCB65C" d="M519.7,145.5c-13.1-2.7-26.7-3-40.1-3.6c-14.5-0.7-29-0.7-43.4-1.5c-7.4-0.4-14.8-1-22.1-2.3
						c-8.8-1.5-16.9-3.7-25.4-6.5c-16-5.2-32.7-8.1-49.6-8.1c-8.5,0-16.8,0.4-25.4-0.4c-8.4-0.8-16.4-2.4-24.6-4.5
						c-16.3-4.2-33-9.6-47.7-18c-0.1,0-0.1,0,0,0.1c13.1,7.1,26.3,14.1,40.6,18.2c13.5,3.8,27.3,5.8,41.2,7.4
						c7.7,0.9,15.2,2.3,22.9,2.9c7.5,0.6,15,1.4,22.5,2.6c15.6,2.5,30.1,9,45.4,12.5c14,3.2,28.4,4.5,42.8,5.1
						c14,0.6,28.3,0.4,42.1,3c21.9,4.1,56.4,12.8,55,40.9c-0.5,10.6-5.7,22.1-12.5,30.1c-8.7,10.2-21.4,17.1-33.5,22.5
						c-10.8,4.8-23.4,7.9-31.8,16.7c-3.5,3.6-6,8.3-5.8,13.4c0.2,7.4,4.5,13.1,2.6,20.7c-3,12.2-15.1,21.8-26.1,26.7
						c-6.4,2.9-13.6,4.8-20.5,6.2c-7.2,1.4-14.2,5.3-20.3,9.3c-10,6.5-17.7,16.3-19.9,28.2c-2.3,12.8,2.5,24.6,13.4,32
						c10.7,7.3,23.7,7.3,35.3,12.1c6.1,2.5,10.3,7.6,15.2,11.9c5.2,4.7,10.8,8,17.1,10.9c5,2.3,10.8,4.2,15.2,7.7
						c5.2,4.2,5.8,10.5,5.6,16.8c-0.4,13.5-3.1,29,8.4,38.8c-1.8,3-7,3.2-10,3.7c-12,2.1-47.5,9.4-31.4,28.6
						c6.1,7.3,17,8.6,25.3,12.2c8,3.5,16.4,8.2,22.7,14.4c4.4,4.4,6.1,10.9,2.8,15.6c-0.1,0.1-0.2,0.1-0.3,0.2
						c-4.6,3.5-9.7,5.8-15,7.6c-4.7,1.4-9.6,2.4-14.1,3.3c-19.6,4.1-41.6,7.9-55.2,24c-4.7,2-2.8,8.7,0.9,11
						c7.8,5,17.4,4.5,25.4,0.1c7.9-4.3,13.5-11.9,21.7-16.1c2.3-1.2,4.6-2.1,7-3c1.8-0.2,3.6-0.5,5.4-0.7
						c11.2-1.6,28.3-4.5,37.6-13.1c3.6-2.4,6.7-5.5,9-9.2c1.8-2.8,3.1-5.9,4-9.2c0,0,0,0,0,0c3.4-9,2.5-19.4-3-27.5
						c-7-10.1-18.6-15.2-30.3-17.4c-5.6-1-11.6-0.5-17.2-1.7c-1.2-0.3-1.8-0.6-1.9-0.9c1.4-0.1,2.9-0.2,4.4-0.3
						c5.3-0.5,10.6-1.2,15.7-2.7c10.1-3.1,19.4-12.5,13.3-23.4c-1.8-3.2-4.6-4.9-7.2-7.1c-4.5-8.4-0.6-21.3-1.2-29.9
						c-1-13.4-8.6-22.8-20.3-28.7c-4.7-2.4-9.7-4.2-14.3-6.7c-5.7-3.1-9.8-7.7-14.6-12.1c-9.7-8.9-20.9-12-33.3-15.3
						c-9.1-2.4-17.9-5.8-17.8-16.7c0.1-11,8.5-21.4,17.3-27.1c4.9-3.2,10.1-5.4,14.7-8.9c5.3-4,11.9-7.1,17.8-10.3
						c10.7-5.9,20.3-14.3,24.7-26c1.8-4.6,2.4-9.4,2-14.3c-0.6-7.3-3-13.6,2.8-19.4c4-4,9.5-6.3,14.6-8.6c6.7-2.9,13.4-5.7,20.1-8.5
						c24.5-10.1,50.8-26.2,53.7-55.1C575.3,167.7,545.7,150.9,519.7,145.5z"/>
				</g>
				<path fill="#C59E4B" d="M543.9,160c-17.4-11-39.2-12.2-59.2-13.7c-25.5-1.9-50.8-2.1-75.9-7.6c-12.2-2.7-24.2-6.5-36.3-9.4
					c-11.6-2.8-23.6-3.9-35.5-3.4c0,0,0,0.1,0,0.1c22.4,0.9,44.8,7.7,66.4,13.3c21.2,5.5,42.5,7.4,64.3,8.5
					c21.9,1.1,45.3,1.3,65.7,10.3c19.6,8.7,33,28.2,23.9,49.4c-3.8,8.7-9.4,17.6-17.2,23.2c-8.2,5.9-18,9.6-27.1,13.8
					c-9.1,4.2-17.8,9.7-26.4,14.9c-6.5,3.9-12,9.2-12.6,17.2c-0.3,4.4,0.9,8.5,1.6,12.8c0.9,5.7,0.4,11.4-2.5,16.4
					c-4.5,7.9-13.3,13.7-20.7,18.6c-8.5,5.7-18,10.9-27.3,15.3c-7.2,3.5-15.7,4.8-21.7,10.5c-12,11.4-14.6,34.3-0.8,45.3
					c7.3,5.8,16.8,6.9,25.7,8.6c5.4,1,11.1,2.3,15.7,5.6c4.4,3.2,7,8.2,10.9,11.9c0.5,0.5,1.2,0.8,1.9,0.9c2.4,2.7,5.3,5,9,7
					c6.7,3.5,14.9,5.5,20.2,11.2c11.7,12.4,2.3,30.6,7.9,44.7c2.4,6.1,11.4,14.5,3.5,20.5c-3.4,2.6-8.3,2-12.3,2
					c-3.9-0.1-7.7,0-11.5,1.1c-5.8,1.7-14,6.8-12.8,13.9c1.3,7.8,10.2,8.7,16.5,9.4c9.1,1,17,6.1,24.4,11c7.1,4.7,11,9.9,11.8,17.6
					c-0.3,2.5-0.6,5-1.3,7.4c-0.8,2.5-1.9,5.1-3.8,7c-0.7,0.7-1.5,1.2-2.3,1.7c-0.2,0.1-0.4,0.3-0.6,0.4c-6.3,3.7-13.4,7.5-20.3,9.8
					c-5.7,1.9-11.7,2.8-17.5,4c-1.6,0.3-3.3,0.7-4.9,1.1c-2,0.5-4.1,1.1-6,1.8c-6.3,1.6-12.6,3.6-18,7c-0.1,0-0.1,0.1-0.2,0.1
					c0,0,0,0,0,0c0,0,0,0,0,0c-2.1,1-3.8,2.2-5.3,3.6c-0.5,0.1-0.9,0.2-1.3,0.5c-2.3,1.4-4,3.6-4.6,6.1c0,0,0,0,0,0
					c-0.8,1.2-0.6,2.6,0.1,3.7c0.9,2.7,4.4,3.8,6.9,2.7c3.7-0.1,6.5-2.3,8.5-5.7c1.1-0.9,2.1-1.9,3.2-2.9c2.4-2.2,5.1-4.1,7.9-5.7
					c6.5-2.6,13.1-4.7,19.8-6.9c0.4-0.1,0.8-0.3,1.1-0.6c7.4-1.4,14.9-2.6,21.4-6.5c4.3-2.6,8.1-5.8,12.4-8.3
					c3.2-1.9,6.4-3.8,9.1-6.4c3.6-3.3,5.5-7.8,4.9-12.2c1.2-13.4-10.6-22.1-21.3-28.8c-6.8-4.3-14.1-7.9-22.2-9.1
					c-3.3-0.5-12-0.2-7.2-5.5c3.3-3.6,8.7-3.9,13.2-3.9c7,0.1,15.2,0.5,20.3-5.2c4.3-4.9,4.2-11.9,1.3-17.4
					c-1.9-3.6-4.6-6.5-5.6-10.6c-1-4.3-0.5-8.9-0.4-13.3c0.1-7.1-0.2-14.5-2.7-21.3c-2.7-7.4-7.9-13-14.8-16.7
					c-8-4.3-16-7.6-23.6-12.2c-3.5-3.1-5.9-7.1-9.3-10.3c-3-2.8-6.6-4.8-10.5-6.2c-8.6-3.1-18-3.1-26.6-6.1
					c-20.4-7.2-20.8-36.6-3.1-47.1c3.8-2.3,7.9-3.7,12-5.4c4-1.7,7.6-4.1,11.5-6.1c9.2-5,18.7-9.2,27.3-15.2
					c6.8-4.7,13.3-11.5,15.9-19.5c3.1-9.5-2.3-19.5,0.7-28.8c3.1-9.4,14.2-13.9,22.7-16.7c10.4-3.5,20.1-8.5,29.9-13.6
					c8.4-4.3,16.4-9.3,22.2-16.9c5.7-7.4,10.5-16.4,12.2-25.7C567.7,184.3,557.5,168.7,543.9,160z"/>
			</g>
			<g>
				<g>
					<path opacity="0.35" fill="#0A0A0A" d="M810.6,719.8c1.4,1.8,3.7,2.5,5.9,3c7,1.7,14.2,2.2,21.3,2.8c6.7,0.5,13.5,1,20.2,1.6
						c3.5,0.3,7,0.5,10.4,1.1c2.8,0.4,5.5,1,8.3,1.3c3,0.3,6,0.1,9.1-0.1c5.4-0.3,10.9-0.6,16.3-0.9c3.5-0.2,7.4-0.6,9.4-3.5
						c1.8-2.5,1.3-6-0.4-8.5c-1.7-2.5-4.5-4.1-7.3-5.2c-5.7-2.3-11.8-3-17.9-3.7c-4.9-0.6-9.7-1.2-14.6-1.7c-4-0.5-8-1-12-1.4
						c-2.5-0.3-5-0.6-7.5-0.8c-3.4-0.3-6.9-0.4-10.3-0.2C836.5,703.7,803.5,710.8,810.6,719.8z"/>
					<path opacity="0.35" fill="#0A0A0A" d="M813.1,719.4c1.4,2,4.2,2.3,6.6,2.4c18,0.9,35.9,1.9,53.9,2.8
						c5.6,0.3,11.4,0.6,16.6-1.5c2.8-1.1,5.8-3.7,5.1-6.7c-0.3-1.6-1.6-2.8-3-3.5c-1.4-0.7-3-0.9-4.6-1.1c-21.8-3-44.2-3.6-65.9,0.2
						C818.8,712.7,809.1,713.7,813.1,719.4z"/>
				</g>
				<g>
					<path fill="#8A5941" d="M822.8,715.5c3.8-0.7,7.3-2.6,11.1-2.8c2.9-0.1,5.8,0.8,8.7,1c2.9,0.2,6.2-0.4,7.8-2.8
						c2-2.9,0.6-6.9-1.2-9.9c-1.8-3-4.1-6.2-3.8-9.7c0.1-0.8,0.3-1.7,1.1-2.1c1.6-0.7,2.6,1.6,4,2.7c1.8,1.3,4.5,0.2,5.6-1.7
						c1.1-1.9,1.1-4.2,1.1-6.4c-0.1-7-0.2-14-0.3-21c0-1.2-0.1-2.4-0.5-3.5c-0.4,0-0.7,0.1-1.1,0.2c-2.4,0.7-4.1,2.7-5.6,4.6
						c-9.7,12.1-19.2,24.3-28.4,36.8c-2.3,3.1-4.5,6.3-6.9,9.3c-0.2,0.2-0.7,0.7-1.3,1.3c0,0,0,0,0,0
						C814.3,715,819,716.2,822.8,715.5z"/>
					<path fill="#8A5941" d="M824.1,720.7c7.6,0.2,15.3,0.4,22.9,0.5c9.6,0.2,19.3,0.4,28.6-2.1c2.4-0.7,5.1-1.8,5.9-4.2
						c0.5-1.4,0.2-2.9-0.1-4.3c-3-14.5-7.8-28.6-14-42c-1.2-2.5-2.4-5-4.4-6.9c-1.7-1.6-4.1-2.7-6.4-2.5c0.4,1.1,0.4,2.3,0.5,3.5
						c0.1,7,0.2,14,0.3,21c0,2.2,0,4.5-1.1,6.4c-1.1,1.9-3.8,3-5.6,1.7c-1.4-1-2.5-3.4-4-2.7c-0.8,0.3-1,1.3-1.1,2.1
						c-0.2,3.5,2,6.6,3.8,9.7c1.8,3,3.1,7,1.2,9.9c-1.6,2.4-4.9,3.1-7.8,2.8c-2.9-0.2-5.7-1.1-8.7-1c-3.8,0.2-7.3,2.1-11.1,2.8
						c-3.8,0.7-8.5-0.4-9.7-4c0,0,0,0,0,0c-1.6,1.4-4,3.5-4.1,4.1C808.2,720.6,820.9,720.6,824.1,720.7z"/>
					<path fill="#3A2A1C" d="M824.1,720.7c7.6,0.2,15.3,0.4,22.9,0.5c9.6,0.2,19.3,0.4,28.6-2.1c2.4-0.7,5.1-1.8,5.9-4.2
						c0.5-1.4,0.2-2.9-0.1-4.3c-3-14.5-7.8-28.6-14-42c-1.2-2.5-2.4-5-4.4-6.9c-1.7-1.6-4.1-2.7-6.4-2.5c0.4,1.1,0.4,2.3,0.5,3.5
						c0.1,7,0.2,14,0.3,21c0,2.2,0,4.5-1.1,6.4c-1.1,1.9-3.8,3-5.6,1.7c-1.4-1-2.5-3.4-4-2.7c-0.8,0.3-1,1.3-1.1,2.1
						c-0.2,3.5,2,6.6,3.8,9.7c1.8,3,3.1,7,1.2,9.9c-1.6,2.4-4.9,3.1-7.8,2.8c-2.9-0.2-5.7-1.1-8.7-1c-3.8,0.2-7.3,2.1-11.1,2.8
						c-3.8,0.7-8.5-0.4-9.7-4c0,0,0,0,0,0c-1.6,1.4-4,3.5-4.1,4.1C808.2,720.6,820.9,720.6,824.1,720.7z"/>
				</g>
			</g>
			<path fill="#B3804E" d="M837.1,675.7c-2.7,3.7-5.1,7.6-7.4,11.6c-3.8,6.3-7.5,12.6-11.3,18.9c-0.4,0.7-0.8,1.8-0.1,2.2
				c0.2,0.1,0.5,0.2,0.8,0.2c3.1,0.2,6.1-1.5,8.3-3.7c2.2-2.2,3.9-4.9,5.7-7.4c0.7-0.9,1.4-1.8,2.5-2.3c1-0.5,2.4-0.3,3.1,0.7
				c0.5,0.7,0.4,1.7,0.4,2.6c0.1,0.9,0.5,1.9,1.4,2c0.5,0,0.9-0.2,1.3-0.6c1.5-1.4,1.7-3.7,1.4-5.7c-0.3-2-0.9-4-0.6-6
				c0.2-1.5,0.9-3,1.6-4.3c0.2-0.5,0.5-0.9,0.9-1.2c1.9-1.3,4.3,1.9,6.4,1c0.6-0.3,1-0.9,1.3-1.5c1.1-2.4,0.9-5.2,0.8-7.9
				c0-3,3.7-16.3-3.3-12.1C845.2,665.3,840.7,670.9,837.1,675.7z"/>
			<g>
				<g>
					<path opacity="0.35" fill="#0A0A0A" d="M904.7,707.8c0.7,1.3,2,1.9,3.2,2.3c3.9,1.3,8,1.9,12.1,2.4c3.9,0.5,7.7,1,11.6,1.5
						c2,0.3,4,0.5,6,1c1.6,0.4,3.1,0.8,4.7,1.1c1.7,0.2,3.5,0.2,5.2,0.1c3.1-0.1,6.3-0.3,9.4-0.4c2-0.1,4.3-0.4,5.6-2.4
						c1.1-1.8,1.1-4.4,0.2-6.2c-0.9-1.8-2.4-3-4-3.9c-3.2-1.7-6.7-2.4-10.1-3c-2.8-0.5-5.5-1-8.3-1.5c-2.3-0.4-4.6-0.8-6.9-1.2
						c-1.4-0.3-2.8-0.5-4.3-0.7c-2-0.3-3.9-0.4-5.9-0.3C920.3,696.4,901.1,701,904.7,707.8z"/>
					<path opacity="0.35" fill="#0A0A0A" d="M906.2,707.6c0.7,1.5,2.3,1.8,3.7,1.9c10.3,1,20.6,2,30.8,2.9c3.2,0.3,6.5,0.6,9.6-0.8
						c1.7-0.8,3.5-2.6,3.3-4.8c-0.1-1.1-0.8-2.1-1.6-2.6s-1.7-0.7-2.6-0.9c-12.4-2.5-25.2-3.3-37.9-0.9
						C909.8,702.7,904.1,703.3,906.2,707.6z"/>
				</g>
				<g>
					<path fill="#8A5941" d="M906.3,705.6c1,1,2.6,0.8,4,0.3c1.3-0.5,2.6-1.2,4-1c1.5,0.1,2.7,1.2,4.1,1.6c2.8,0.8,5.6-0.8,7.9-2.4
						c0.5-0.4,1.1-0.8,1.4-1.4c0.5-1,0.1-2.1-0.2-3.2c-0.9-2.8-1.9-5.5-2.8-8.3c-0.2-0.5-0.3-1.1-0.1-1.5c0.6-1,2.2-0.2,2.8,0.8
						c0.5,1,1,2.4,2.1,2.7c1.6,0.3,2.4-1.9,2-3.4c-0.3-1.3-1-2.4-1.9-3.3c-0.8-0.8-1.8-1.4-2.2-2.4c-0.3-0.8-0.2-1.7-0.2-2.6
						c-0.1-2.3-1.3-4.5-3.3-5.8c0.5-1.1,0.8-2.3,1-3.4c-2.6,3.7-5.2,7.4-7.7,11.1c-2.8,4.2-5.7,8.4-8.4,12.6c-0.8,1.3-2,2.7-3,4.2
						C905.7,702.1,904.9,704.3,906.3,705.6z"/>
					<path fill="#8A5941" d="M905.2,707.5c2,2.3,4.8,2.6,7.7,3c4.9,0.6,10.1,1,15,0.3c4.5-0.7,9-2.4,12.4-5.4c0.9-0.9,1.8-1.8,2.2-3
						c0.7-1.9,0.3-4.1-0.2-6.1c-2.3-9.3-5.7-18.4-10-26.9c-0.4-0.7-0.8-1.4-1.5-1.8c-1.6-0.8-3.3,0.8-4.3,2.3
						c-0.6,0.8-1.2,1.7-1.7,2.5c-0.2,1.2-0.6,2.3-1,3.4c2,1.2,3.2,3.5,3.3,5.8c0,0.9-0.1,1.8,0.2,2.6c0.4,1,1.4,1.6,2.2,2.4
						c0.9,0.9,1.6,2.1,1.9,3.3c0.4,1.5-0.5,3.7-2,3.4c-1.2-0.2-1.6-1.6-2.1-2.7c-0.5-1-2.2-1.9-2.8-0.8c-0.3,0.5-0.1,1,0.1,1.5
						c0.9,2.8,1.9,5.5,2.8,8.3c0.3,1,0.7,2.2,0.2,3.2c-0.3,0.6-0.9,1-1.4,1.4c-2.4,1.6-5.2,3.2-7.9,2.4c-1.4-0.4-2.6-1.4-4.1-1.6
						c-1.4-0.1-2.7,0.6-4,1c-1.3,0.5-2.9,0.6-4-0.3c-1.4-1.3-0.6-3.5-0.6-5.5C904.1,702.5,903.1,705.1,905.2,707.5z"/>
					<path fill="#3A2A1C" d="M905.2,707.5c2,2.3,4.8,2.6,7.7,3c4.9,0.6,10.1,1,15,0.3c4.5-0.7,9-2.4,12.4-5.4c0.9-0.9,1.8-1.8,2.2-3
						c0.7-1.9,0.3-4.1-0.2-6.1c-2.3-9.3-5.7-18.4-10-26.9c-0.4-0.7-0.8-1.4-1.5-1.8c-1.6-0.8-3.3,0.8-4.3,2.3
						c-0.6,0.8-1.2,1.7-1.7,2.5c-0.2,1.2-0.6,2.3-1,3.4c2,1.2,3.2,3.5,3.3,5.8c0,0.9-0.1,1.8,0.2,2.6c0.4,1,1.4,1.6,2.2,2.4
						c0.9,0.9,1.6,2.1,1.9,3.3c0.4,1.5-0.5,3.7-2,3.4c-1.2-0.2-1.6-1.6-2.1-2.7c-0.5-1-2.2-1.9-2.8-0.8c-0.3,0.5-0.1,1,0.1,1.5
						c0.9,2.8,1.9,5.5,2.8,8.3c0.3,1,0.7,2.2,0.2,3.2c-0.3,0.6-0.9,1-1.4,1.4c-2.4,1.6-5.2,3.2-7.9,2.4c-1.4-0.4-2.6-1.4-4.1-1.6
						c-1.4-0.1-2.7,0.6-4,1c-1.3,0.5-2.9,0.6-4-0.3c-1.4-1.3-0.6-3.5-0.6-5.5C904.1,702.5,903.1,705.1,905.2,707.5z"/>
				</g>
			</g>
			<g>
				<path opacity="0.45" fill="#0B0B0B" d="M86.9,398c2.6,0.6,5.2,1.9,6.9,4c1.4,1.7,2.1,3.9,2.1,6c0,0.6-0.1,1.1-0.3,1.6
					c-0.5,0.9-1.5,1.4-2.5,1.7c-2.8,0.8-5.8,0.8-8.8,0.7c-10-0.2-20.1-0.5-29.8-2.9c-1.6-0.4-3.3-0.9-4.7-1.8
					c-1.4-0.9-2.6-2.3-2.9-4c-0.2-1.1,0-2.3,0.2-3.5c0-0.2,0.1-0.4,0-0.6c-0.1-0.2-0.3-0.3-0.5-0.4c-1.2-0.5-2.6-0.6-4-0.8
					c-1.3-0.2-2.7-0.5-3.7-1.4c-1-0.9-1.5-2.5-0.7-3.7c0.7-1.1,2.2-1.3,3.5-1.4c3.7-0.2,7.4,0.2,11.1,0.9c1.7,0.3,3.5,0.8,5.1,1.4
					c1,0.4,2,0.9,3.1,1.2c1,0.2,2.1,0.2,3.2,0.3c3.6,0.3,7.3,0.9,10.8,1.5C78.8,397.5,82.9,397.1,86.9,398z"/>
				<path opacity="0.45" fill="#0B0B0B" d="M39.8,396.3c1.1,0.4,2.3,0.7,3.5,0.8c0.8,0.1,1.7,0.2,2.4,0.6c1.6,1.1,1.3,3.6,2.3,5.3
					c0.9,1.5,2.7,2.2,4.3,2.8c1.6,0.5,3.2,0.9,4.9,1.3c2.5,0.6,5,1.3,7.5,1.3c2.2,0,3.7,0.1,6,0.2c2.3,0.1,5.3,0.2,7.5-0.1
					c1-0.1,1.9-0.4,2.8-0.5c1.3-0.2,2.6,0,4,0c1.3,0,2.7-0.4,3.6-1.4c1.3-1.5,0.7-4-0.7-5.4c-1.4-1.4-3.5-1.9-5.4-2.2
					c-7.6-1.3-15.5-0.6-23.2-1.4c-1.3-0.1-2.6-0.3-3.8-0.9c-0.9-0.4-1.7-1.1-2.6-1.6c-2.3-1.4-4.9-1.9-7.5-2c-1.3-0.1-2.7,0-4,0.1
					c-0.7,0.1-3.4-0.1-3.8,0.5C36.8,394.7,39.2,396.1,39.8,396.3z"/>
				<g>
					<path fill="#8A5941" d="M49.6,387.4c0-1.1-0.5-2.2-0.9-3.2c-0.9-2.2-1.8-4.3-2.7-6.5c-0.6,0.5-1,1.2-1.4,1.9
						c-0.9,1.6-1.4,3.5-2.5,4.9c-1.4,1.8-2.7,3.6-3.7,5.6c-0.1,0.2-0.2,0.4-0.3,0.6c-0.1,0.4-0.2,0.9-0.4,1.3
						c-0.4,1.3-0.2,2.1,0.4,2.7c0.1,0.1,0.3,0.1,0.4,0.2c2.4,0.9,5.1,0.7,7.7,0.5c1.6-0.1,3.5-0.5,4.1-1.7c0.7-1.4-0.7-3-0.8-4.6
						C49.5,388.6,49.6,388,49.6,387.4z"/>
					<path fill="#3A2A1C" d="M51.8,382.8c-0.6-0.8-1.2-1.6-1.8-2.3c-0.6-0.8-1.2-1.7-1.9-2.4c-0.5-0.5-1.2-1-1.9-0.5
						c-0.1,0-0.1,0.1-0.2,0.2c0.9,2.2,1.8,4.3,2.7,6.5c0.4,1,0.9,2.1,0.9,3.2c0,0.6-0.1,1.2,0,1.7c0.2,1.6,1.6,3.1,0.8,4.6
						c-0.6,1.3-2.5,1.6-4.1,1.7c-2.6,0.2-5.3,0.5-7.7-0.5c-0.1-0.1-0.3-0.1-0.4-0.2c0.8,0.8,2.2,1.1,4,1.4c3.1,0.6,6.2,0.7,9.3,0.3
						c1.8-0.2,3.8-0.9,4.1-2.4c0.1-0.6-0.1-1.1-0.2-1.7C54.3,389.2,53.1,385.9,51.8,382.8z"/>
				</g>
				<g>
					<path fill="#8A5941" d="M62.7,404.3c2.9-0.3,6.4-1,7.5-3.7c1.4-3.1-1.2-6.4-1.5-9.7c-0.1-1.2,0.1-2.5,0.1-3.7
						c0-2.4-0.8-4.6-1.6-6.8c-2.1-5.7-4.1-11.4-6.2-17.2c-0.8-2.2-1.9-4.7-4.2-5.4c-0.4,0.7-0.7,1.6-0.9,2.4
						c-3,12.3-5.9,24.6-8.9,36.9c-0.7,2.7-0.3,4.5,0.7,5.8c0.3,0.1,0.5,0.3,0.8,0.4C52.9,405.3,58,404.8,62.7,404.3z"/>
					<path fill="#3A2A1C" d="M55,406c5.6,1.2,11.5,1.4,17.2,0.5c3.2-0.5,7-1.9,7.5-5.1c0.2-1.2-0.1-2.4-0.4-3.6
						c-3-11-6.7-21.9-10.9-32.5c-0.8-1.9-1.6-3.8-3-5.3c-1.2-1.2-2.8-2-4.3-2.8c-0.8-0.4-1.7-0.8-2.6-0.7c-0.8,0.1-1.3,0.6-1.7,1.3
						c2.2,0.6,3.4,3.2,4.2,5.4c2.1,5.7,4.1,11.4,6.2,17.2c0.8,2.2,1.6,4.5,1.6,6.8c0,1.2-0.2,2.5-0.1,3.7c0.3,3.3,2.9,6.7,1.5,9.7
						c-1.2,2.7-4.6,3.3-7.5,3.7c-4.8,0.5-9.8,1-14.2-1c-0.3-0.1-0.5-0.3-0.8-0.4C49.1,404.7,51.9,405.4,55,406z"/>
				</g>
			</g>
			<path fill="#B3804E" d="M917.1,682.3c-1.8,2.9-3.5,5.7-5.3,8.6c-2.2,3.6-4.4,7.2-6.1,11.1c0.8,1,2.6,0.7,3.5-0.2
				c1-0.9,1.5-2.2,2.3-3.2c0.8-1,2.3-1.8,3.5-1.1c0.9,0.5,1.5,1.8,2.5,1.7c0.5,0,0.9-0.4,1.2-0.8c2.1-2.8,1-6.8,1-10.3
				c0-0.7,0.1-1.4,0.5-2c0.4-0.6,1.2-1,1.8-0.7c0.4,0.2,0.7,0.5,1.1,0.7c0.7,0.4,1.6,0,2.1-0.6c0.5-0.7,0.5-1.5,0.4-2.3
				c-0.3-2-1.5-3.7-1.8-5.7c-0.4-2.3,4.2-8.3,5.2-10.1C924.6,668.1,918.3,680.2,917.1,682.3z"/>
		</g>
		<g>
			<path fill="#8A5941" d="M1031.9,368c-1.2-1.3-2.5-3-3.8-4.8c1.6,3.8,3,7.8,2.9,11.7c0,0.8-0.1,1.5-0.3,2.3
				c0.1,0.2,0.1,0.5,0.1,0.7c0.3,2.1,0.5,4.2,0.5,6.3c1,11.9-4.7,22.9-2,35c0,0-0.1,0.1-0.1,0c-1.4-4.1-2-8.1-2.4-12.4
				c-0.1-1.3-0.3-2.7-0.4-4c-1.5,3.9-2.8,7.8-2.6,12.1c0.2,5.4,1.2,11.1,3,16.2c0.2,0.7,0.5,1.3,0.7,2c0.1-0.3,0.2-0.7,0.4-1
				c2-4.9,6.1-8.4,8-13.3c1.8-4.6,1.8-9.9,1.5-14.8c0-0.1,0.2-0.2,0.2,0c0.8,3.5,1.1,7.2,1,10.8c2-5,3.5-10.2,3.6-15.5
				c-0.1-0.6-0.2-1.1-0.3-1.7c-1.2-6.6-3-13-5.3-19.3c-0.1-0.1-0.1-0.3-0.2-0.4c-0.4-1.2-0.9-2.4-1.4-3.6c-0.9-2.2-2-4.4-3.2-6.6
				C1031.9,367.8,1031.9,367.9,1031.9,368C1031.9,368,1031.9,368,1031.9,368z"/>
			<path fill="#8A5941" d="M1023.7,352.1c0.2-3.4,2.4-6.6,4.8-8.8c0.6-0.6,1.2-1.1,1.9-1.6c-0.3-0.4-0.5-0.9-0.8-1.4
				c-1.4-3.2-0.7-7-1.7-10.4c-0.9-3-1.9-5.7-2.2-8.8c-0.7-7.4,1.5-15-0.5-22.3c0,0,0-0.1,0.1,0c3.7,9,0.1,18.7,4.4,27.7
				c1.1,2.3,2.4,4.6,3.1,7.1c0.6,1.9,0.8,3.7,2,5c2.5-1.7,4.8-3.5,6.5-6c1.7-2.7,2.6-5.7,3.4-8.8c0-6.6-1.8-13-2.4-19.7
				c-0.6-7.5,1.4-14.9,0.4-22.4c-1.1-7.7-1.8-15.2-1.7-23c0-3.4,0.2-7.1,0.2-10.7c-1.2,2.4-2.5,4.7-3,7.6c-0.5,2.7-1.3,5.1-2.3,7.3
				c0.2,0.3,0.4,0.7,0.5,1.1c0.3,1.5,0.3,2.7,0.2,4.2c-0.4,3.3-0.2,5.4,0.9,8.6c1,3,0.8,5.8,0.2,8.9c-0.1,0.5-0.9,0.3-0.9-0.2
				c-0.1-2.4-0.1-4.8-1.1-7c-0.6-1.3-1.6-2.4-2.3-3.7c-0.8-1.6-0.6-3.5-0.7-5.3c-1.2,1.2-2.5,2.3-3.8,3.2c-0.1,0.7-0.6,1.4-1.6,1.7
				c-2.4,0.8-3.2,2.7-3.3,5c0.6,2,0.9,4.2,1,5.8c0,0.4,0,0.7,0,1c0.3,1,0.5,1.9,0.7,2.7c0.1,0.3-0.5,0.5-0.6,0.2
				c-1.7-4.8-2.1-10-8.7-9.7c-2.1,0.1-3.6,0.7-5.7,0.3c-2.6-0.5-4.9-1.8-7.4-2.4c-0.4-0.1-0.7-0.2-1.1-0.2c0,0.4,0,0.7,0,1.1
				c-0.1,4.1,0,7.9,1.5,11.7c1.2,2.9,3.1,5.3,4.1,8.4c0.7,2.3,0.7,4.3,0.9,6.7c0,0-0.1,0.1-0.1,0c-1.1-7-6.3-11.9-7.9-18.7
				c-0.6-2.7-1.6-5.4-2.5-8c-2.7,1.6-4.6,3.5-8.5,3.3c-1.6-0.1-3.2-0.5-4.7-1.1c0.8,1,1.5,2,2.1,2.8c4.4,5.8,9.2,11.8,12.6,18.3
				c0.2,0.4-0.3,0.7-0.6,0.4c-4.5-4-8.9-8.1-13.4-12.1c-1.9-1.6-3.7-3.2-5.5-5c-0.6-0.6-4.3-4.2-5.1-3.6c-1.4,1.2,0.9,4.6,1.7,5.6
				c2.8,4,6.6,6,10.5,8.6c3.8,2.5,5.2,5.3,6.4,9.5c2.9,9.9,12.5,15.2,17.5,24c2,3.5,3.7,7.3,5.1,11.2c0.7,1.3,1.4,2.6,2.1,3.9
				c1.8,3.6,3.8,7.1,5.7,10.6C1023.7,353.6,1023.6,352.9,1023.7,352.1z"/>
			<path fill="#302929" d="M1023.8,354.4c0.5,2.9,2.3,6.1,4.2,8.8c-0.7-1.6-1.4-3.1-2.1-4.6C1025.3,357.2,1024.6,355.8,1023.8,354.4
				z"/>
			<path fill="#3A2A1C" d="M1047.6,307.7c-0.1-4.7-0.3-9.4-0.4-14c-0.1-3.2-0.2-6.4-0.3-9.6c0-0.5,0-1,0-1.6
				c-0.2-7.6-1.4-14.8-2.4-22.3c-0.4-2.9-0.3-5.8-0.3-8.7c0-0.7,0-1.5,0.1-2.2c0-0.2,0-0.4,0-0.7c0-0.3,0-0.6,0-0.9c0-0.3,0-0.7,0-1
				c0-0.2,0-0.4,0-0.6c0-0.5,0-1.1,0-1.6c0-0.1,0-0.2,0-0.3c0-0.4,0-0.9,0-1.3c0-0.2,0-0.4,0-0.5c0-0.3,0-0.6-0.1-1c0,0,0-0.1,0-0.1
				c0-0.2,0-0.4,0-0.6c0-0.2,0-0.4,0-0.6c0-0.2,0-0.3-0.1-0.5c0,0,0,0,0,0c0-0.2,0-0.3-0.1-0.5c0-0.1,0-0.2,0-0.3
				c-0.1-0.4-0.1-0.9-0.2-1.3c-0.5-2.9-1.6-5.6-3-8.1c0.3,1,0.5,2.1,0.6,3.1c0.4,2.5,0.5,5-0.3,7.5c-0.6,2.2-1.8,4.2-2.8,6.3
				c-0.6,1.1-1.1,2.2-1.4,3.5c-0.3,1.3-0.5,2.6-0.6,3.9c-0.4,2.7-0.9,5.3-2.3,7.7c-4.2,7.6-10.9,14.2-20.1,14.1
				c-2.7,0-5.3-0.6-7.9-0.9c-2.6-0.3-5-0.2-7.5,0.4c-2.6,0.6-5.2,1.1-7.8,1.3c-2.5,0.2-5-0.1-7.5-0.5c-3.7-0.7-7.9-1.7-11.6-0.5
				c-0.8,0.3-1.5,0.7-2.1,1.2c-0.6,0.6-1.1,1.2-1.6,1.9c-0.4,0.6-0.9,1.5-1.2,2.1c-0.1,0.3-0.2,0.7-0.3,1c0,0.1-0.1,0.3-0.1,0.4
				c0,0.1,0,0.1,0,0.1c0,0,0,0,0,0c0,0.4,0,0.7,0,1c0,0.1,0,0.2,0,0.2c0,0.1,0,0.2,0.1,0.3c0.2,0.8,0.2,0.8,0.5,1.3
				c0.6,1.1,1.2,1.7,2.3,2.7c0,0,0,0,0,0c2.1,1.8,4.9,3.4,7.5,4.9c2.6,1.5,5.3,3,7.5,5.1c1.8,1.7,3,3.8,3.8,6.1
				c0.8,2.2,1.2,4.4,2.1,6.5c2,4.4,5.3,7.6,8.9,10.7c3.7,3.2,7.5,6.6,10.8,10.2c2.4,2.7,4.5,5.5,6.2,8.5c-1.4-3.9-3.1-7.6-5.1-11.2
				c-5-8.8-14.6-14.1-17.5-24c-1.2-4.2-2.6-7-6.4-9.5c-3.9-2.6-7.7-4.6-10.5-8.6c-0.7-1.1-3.1-4.4-1.7-5.6c0.8-0.7,4.5,2.9,5.1,3.6
				c1.7,1.8,3.6,3.4,5.5,5c4.5,4,8.9,8.1,13.4,12.1c0.3,0.3,0.9,0,0.6-0.4c-3.4-6.5-8.1-12.5-12.6-18.3c-0.6-0.8-1.3-1.8-2.1-2.8
				c1.5,0.6,3,1,4.7,1.1c3.9,0.2,5.8-1.7,8.5-3.3c0.9,2.7,1.8,5.3,2.5,8c1.6,6.8,6.8,11.7,7.9,18.7c0,0,0.1,0,0.1,0
				c-0.1-2.4-0.1-4.4-0.9-6.7c-1-3.1-2.9-5.5-4.1-8.4c-1.5-3.8-1.6-7.6-1.5-11.7c0-0.4,0-0.7,0-1.1c0.4,0.1,0.7,0.1,1.1,0.2
				c2.5,0.6,4.8,1.9,7.4,2.4c2.1,0.4,3.7-0.2,5.7-0.3c6.6-0.3,7,4.9,8.7,9.7c0.1,0.3,0.6,0.2,0.6-0.2c-0.2-0.8-0.4-1.7-0.7-2.7
				c0-0.3,0-0.6,0-1c-0.1-1.7-0.4-3.9-1-5.8c0.1-2.3,0.9-4.2,3.3-5c1-0.3,1.4-1,1.6-1.7c1.4-0.9,2.6-2,3.8-3.2
				c0.1,1.8,0,3.7,0.7,5.3c0.6,1.3,1.6,2.4,2.3,3.7c1,2.2,1,4.7,1.1,7c0,0.5,0.8,0.7,0.9,0.2c0.6-3.1,0.9-5.9-0.2-8.9
				c-1.1-3.2-1.3-5.2-0.9-8.6c0.2-1.5,0.1-2.7-0.2-4.2c-0.1-0.4-0.3-0.8-0.5-1.1c1.1-2.2,1.8-4.6,2.3-7.3c0.6-2.9,1.8-5.2,3-7.6
				c0,3.7-0.2,7.3-0.2,10.7c-0.1,7.8,0.7,15.3,1.7,23c1,7.5-1,14.9-0.4,22.4c0.6,6.7,2.4,13.1,2.4,19.7c-0.8,3.1-1.7,6.2-3.4,8.8
				c-1.6,2.6-4,4.4-6.5,6c-1.3-1.3-1.5-3.1-2-5c-0.8-2.5-2-4.7-3.1-7.1c-4.4-8.9-0.7-18.6-4.4-27.7c0,0-0.1,0-0.1,0
				c2,7.3-0.2,14.9,0.5,22.3c0.3,3.1,1.3,5.9,2.2,8.8c1,3.4,0.3,7.2,1.7,10.4c0.2,0.5,0.5,1,0.8,1.4c-0.6,0.5-1.3,1-1.9,1.6
				c-2.4,2.3-4.6,5.5-4.8,8.8c0,0.7,0,1.5,0.2,2.3c0.7,1.4,1.5,2.8,2.1,4.2c0.7,1.5,1.4,3,2.1,4.6c1.3,1.8,2.7,3.5,3.8,4.8
				c0,0,0.1,0,0.1,0c0-0.1,0-0.2-0.1-0.2c-2-3.8-4.1-7.6-4.9-11.6c-0.2-0.8-0.2-1.6-0.2-2.4c0-0.5,0.1-1,0.2-1.6
				c0-0.1,0-0.2,0.1-0.3c0-0.2,0.1-0.4,0.2-0.6c0-0.1,0.1-0.2,0.1-0.4c0.1-0.2,0.1-0.4,0.2-0.5c0-0.1,0.1-0.2,0.1-0.4
				c0.1-0.2,0.2-0.3,0.2-0.5c0.1-0.1,0.1-0.2,0.2-0.4c0.1-0.2,0.2-0.3,0.3-0.5c0.1-0.1,0.1-0.2,0.2-0.3c0.1-0.2,0.2-0.3,0.3-0.5
				c0.1-0.1,0.2-0.2,0.3-0.3c0.2-0.2,0.4-0.5,0.5-0.7c0.1-0.1,0.3-0.3,0.4-0.4c0.1-0.1,0.2-0.2,0.3-0.3c0.1-0.1,0.2-0.2,0.4-0.4
				c0.1-0.1,0.2-0.2,0.4-0.3c0.1-0.1,0.3-0.2,0.4-0.4c0.1-0.1,0.2-0.2,0.4-0.3c0.1-0.1,0.3-0.2,0.4-0.3c0.1-0.1,0.2-0.2,0.4-0.3
				c0.2-0.1,0.3-0.2,0.5-0.4c0.1-0.1,0.2-0.2,0.3-0.2c0.2-0.1,0.4-0.2,0.6-0.4c0.1-0.1,0.2-0.1,0.3-0.2c0.3-0.2,0.6-0.3,0.9-0.5
				c2.8-1.6,5.8-2.5,7.8-5.2c2.1-2.8,3-6.7,3.7-10C1048.1,320.8,1047.8,314.3,1047.6,307.7z"/>
			<path fill="#3A2A1C" d="M1037.5,404c0-0.1-0.2-0.1-0.2,0c0.3,4.9,0.3,10.2-1.5,14.8c-1.9,4.9-6,8.4-8,13.3
				c-0.1,0.3-0.3,0.7-0.4,1c-0.2-0.7-0.5-1.3-0.7-2c-1.8-5.1-2.8-10.8-3-16.2c-0.1-4.3,1.1-8.2,2.6-12.1c0.2,1.3,0.3,2.7,0.4,4
				c0.4,4.3,1,8.3,2.4,12.4c0,0,0.1,0,0.1,0c-2.7-12.1,3-23.1,2-35c0-2.1-0.2-4.2-0.5-6.3c0,0.2,0,0.3-0.1,0.5
				c-2.5,7-5.4,14-7.4,21.2c-1.8,6.2-2.9,12.5-2.6,18.9c0.2,3.3,0.7,6.5,1.7,9.7c0.5,1.8,1.3,3.5,1.7,5.4c0.3,1.5,0.6,2.9,0.8,4.4
				c0.4,2.3,0.7,4.7,1.8,6.8c0.2-1.8,0.7-3.5,1.3-5.3c3.4-8.9,10.9-15.1,13.6-24.4c0.5-1.6,0.8-3.2,1.1-4.8c-0.1-3.7-0.2-7.3-0.7-11
				c-0.1,5.4-1.6,10.6-3.6,15.5C1038.7,411.2,1038.4,407.6,1037.5,404z"/>
		</g>
	</g>
</g>
</svg>
