<?xml version="1.0" encoding="UTF-8" standalone="no"?>
<!-- Generator: Adobe Illustrator 27.9.0, SVG Export Plug-In . SVG Version: 6.00 Build 0)  -->

<svg
   version="1.1"
   x="0px"
   y="0px"
   viewBox="0 0 613.949 324.593"
   enable-background="new 0 0 613.949 324.593"
   xml:space="preserve"
   id="svg57"
   sodipodi:docname="Mountains.svg"
   inkscape:version="1.3 (0e150ed6c4, 2023-07-21)"
   xmlns:inkscape="http://www.inkscape.org/namespaces/inkscape"
   xmlns:sodipodi="http://sodipodi.sourceforge.net/DTD/sodipodi-0.dtd"
   xmlns="http://www.w3.org/2000/svg"
   xmlns:svg="http://www.w3.org/2000/svg"><defs
   id="defs57" /><sodipodi:namedview
   id="namedview57"
   pagecolor="#ffffff"
   bordercolor="#999999"
   borderopacity="1"
   inkscape:showpageshadow="2"
   inkscape:pageopacity="0"
   inkscape:pagecheckerboard="0"
   inkscape:deskcolor="#d1d1d1"
   inkscape:zoom="2.0864926"
   inkscape:cx="306.97449"
   inkscape:cy="162.23398"
   inkscape:window-width="1920"
   inkscape:window-height="1057"
   inkscape:window-x="-8"
   inkscape:window-y="-8"
   inkscape:window-maximized="1"
   inkscape:current-layer="svg57" />&#10;&#10;&#10;&#10;<g
   id="_x31_4">&#10;	<g
   id="g57">&#10;		<path
   opacity="0.65"
   fill="#424B0C"
   d="M40.78,122.857c2.413-0.296,3.102,0.383,5.477,1.192c2.661,0.907,5.482,1.226,8.279,1.27    c6.303,0.098,12.587-0.599,18.908-0.509c5.097,0.073,3.193-5.747,0.036-7.104c-5.621-2.417-11.323-1.237-17.189-0.631    c-3.628,0.375-6.39,0.284-9.766-1.056c-2.274-0.902-4.058-1.462-6.552-1.042c-3.118,0.526-5.881,2.076-9.059,2.497    c-3.205,0.425-6.559,0.379-9.786,0.28c-5.665-0.174-11.328-0.613-16.991-0.939c-0.136-0.187-0.341-0.352-0.492-0.388    c-1.809-0.424-1.43-0.472-3.109,0.28c-1.241,0.555-0.045,1.908,0.807,2.065C14.069,121.123,27.767,124.454,40.78,122.857z"
   id="path1" />&#10;		<g
   id="g56">&#10;			<g
   id="g8">&#10;				<path
   opacity="0.65"
   fill="#424B0C"
   d="M260.896,133.866c-0.018,0.213-0.028,0.428-0.026,0.645      c0.062,6.277,5.708,9.207,11.147,11.112c0.865,0.445,1.771,0.837,2.697,1.18c0.437,0.635,1.114,1.213,2.068,1.626      c10.223,4.429,21.044,7.17,31.263,11.684c8.734,3.858,18.831,8.446,27.88,2.825c1.4-0.87,1.636-2.71,0.794-4.048      c-3.79-6.025-10.449-4.175-16.368-5.748c-6.673-1.774-11.593-7.362-18.212-9.481c-6.666-2.133-13.685-1.81-20.479-3.193      c-4.188-0.853-8.735-2.299-5.448-7.187c0.084-0.125,0.18-0.238,0.268-0.359c1.211-0.514,2.385-1.164,3.619-1.92      c6.488-3.972,15.104,0.064,22.559-1.904c6.152-1.623,7.118-6.943,2.366-11.111c-5.134-4.503-12.514-6.142-19.164-6.113      c-0.605,0.003-1.133,0.173-1.573,0.442c-0.47-0.074-0.903-0.149-1.28-0.231c-0.808-0.174-0.704,0.9-0.085,1.111      c0.143,0.049,0.278,0.099,0.419,0.148c-0.346,0.697-0.376,1.556,0.084,2.415c1.014,1.895,2.275,3.535,3.76,4.914      c-0.395,0.113-0.803,0.198-1.22,0.261c-3.371-0.349-6.504-0.255-9.592,1.377c-3.666,1.938-4.963,3.781-9.321,3.431      c-3.723-0.299-6.813-0.451-10.154,1.419C252.875,129.412,257.811,133.999,260.896,133.866z"
   id="path2" />&#10;				<path
   opacity="0.65"
   fill="#424B0C"
   d="M472.704,298.663c9.227,2.732,18.467,3.205,27.816,5.009      c1.094,0.211,1.974,0.078,2.643-0.271c2.504,1.1,5.186,1.601,8.138,1.184c2.33-0.329,4.52-1.325,6.84-1.674      c3.188-0.48,5.941,0.929,9.109,0.72c1.864-0.123,3.671-1.862,2.401-3.79c-4.879-7.404-13.92-3.601-20.883-2.994      c-3.64,0.317-6.287-3.471-9.22-5.216c-3.348-1.991-7.05-2.659-10.885-2.885c-3.968-0.234-7.869-0.368-11.449-2.323      c-3.035-1.658-4.842-4.428-7.383-6.664c-2.487-2.188-5.544-3.629-8.866-3.898c-2.071-0.167-4.969,1.207-5.621-1.633      c-0.13-0.565-0.053-1.193,0.151-1.845c3.538,0.671,7.237,0.686,10.827,0.748c1.374,0.024,2.82-0.126,4.281-0.29      c3.16,0.244,6.235,0.725,9.412,0.002c3.001-0.683,1.044-3.852-0.88-4.452c-4.951-1.542-10.332-1.351-15.43-2.23      c-1.357-0.234-2.801-0.619-4.236-0.881c-0.109-0.184-0.26-0.357-0.437-0.51c2.299,0.125,4.619,0.461,6.903,0.571      c5.557,0.269,11.548,0.628,17.047-0.435c3.933-0.76,7.888-3.063,8.638-7.321c0.773-4.386-2.76-7.552-6.24-9.509      c-9.388-5.279-21.051-2.66-30.251-8.078c-4.365-2.571-8.184-5.643-12.975-7.466c-5.413-2.06-10.994-2.929-15.538-6.806      c-4.157-3.547-5.477-8.367-8.558-12.627c-2.72-3.76-6.822-6.116-11.12-7.664c-4.955-1.784-10.257-2.381-15.181-4.27      c-5.369-2.06-10.253-5.519-14.186-9.693c-7.054-7.487-10.232-18.229-20.219-22.667c-0.561-0.249-1.007,0.388-0.537,0.808      c6,5.373,6.267,15.136,10.753,21.777c3.818,5.652,8.941,10.238,14.804,13.617c-0.536,1.542,0.056,3.416,2.532,4.925      c3.693,2.253,7.649,3.602,11.619,5.257c4.616,1.925,8.027,4.638,11.366,8.345c6.031,6.696,11.642,12.513,19.673,16.872      c8.273,4.489,17.041,8.839,26.13,12.069c-1.659,0.456-3.26,1.172-4.77,2.23c-2.329,1.631-4.044,3.479-6.756,4.518      c-2.464,0.944-5.113,0.937-7.607,1.717c-3.831,1.198-7.594,4.598-5.577,8.985c2.345,5.1,9.921,7.048,16.238,5.782      c0.146,1.872,0.841,3.705,2.023,5.154c2.308,2.832,5.171,3.462,8.259,3.7c2,2.842,4.016,5.729,6.375,8.178      C464.793,295.77,468.728,297.486,472.704,298.663z"
   id="path3" />&#10;				<path
   opacity="0.65"
   fill="#424B0C"
   d="M598.962,307.87c-5.87-0.546-11.749-0.989-17.635-1.329      c-5.207-0.301-11.079-1.163-16.338-0.486c-1.583,0.007-3.166,0.036-4.749,0.117c-0.529,0.027-0.308,0.684,0.048,0.809      c0.357,0.126,0.716,0.241,1.074,0.363c-1.047,1.078-0.877,2.651,0.09,3.915c-0.214,0.026-0.428,0.04-0.642,0.07      c-1.234,0.177-2.074,0.623-2.618,1.207c-0.52,0.147-0.674,0.53-0.602,0.961c-0.475,1.367,0.141,3.067,1.402,4.287      c-8.124,0.69-16.248,1.355-24.414,1.274c-11.255-0.111-22.462,0.667-33.712,0.051c-3.751-0.205-5.993-2.821-9.71-3.394      c-5.65-0.871-11.848-0.549-17.544-0.325c-4.81,0.189-2.217,5.68,1.453,5.849c4.589,0.211,9.165-0.091,13.749,0.038      c3.658,0.103,6.129,1.964,9.575,2.412c3.965,0.516,8.209-0.266,12.186-0.336c4.656-0.081,9.327,0.174,13.982,0.279      c8.611,0.194,17.222-0.571,25.836-0.075c8.129,0.468,16.351,0.862,24.499,0.889c2.499,0.008,12.469,0.554,20.982-0.509      c6.515-0.004,13.535-0.988,16.928-6.14C618.159,309.665,603.235,308.268,598.962,307.87z"
   id="path4" />&#10;				<path
   opacity="0.65"
   fill="#424B0C"
   d="M344.041,257.404c2.017,0.333,4.036,0.536,6.055,0.701      c-1.138,1.089-2.312,2.137-2.775,2.855c-1.56,2.418-2.43,5.185-3.656,7.767c-2.293,4.829-8.171,9.004-8.327,14.566      c-0.066,2.352,3.309,4.403,5.362,3.056c4.028-2.644,8.543-6.654,10.998-10.843c2.646-4.513,4.142-8.759,7.766-12.683      c2.731-2.957,5.621-7.045,2.246-10.598c-3.62-3.811-9.637-2.167-14.299-2.28c-5.794-0.14-11.259-2.173-17.016-2.519      c-2.482-0.149-4.955,0.179-7.437,0.059c-3.412-0.166-6.446-1.277-9.642-2.37c-5.177-1.77-10.337-2.091-15.772-1.785      c-3.175,0.179-6.355,0.539-9.533,0.281c-5.531-0.448-7.933-2.787-9.83-7.998c-0.053-0.146-0.222-0.234-0.365-0.162      c-4.87,2.475-2.034,9.21,1.679,11.407c7.102,4.202,16.937,1.257,24.681,1.756c4.985,0.321,9.084,2.936,13.841,4.142      c4.58,1.161,9.141,0.114,13.633,0.976c2.022,0.388,3.958,1.659,5.958,2.251C339.704,256.605,341.886,257.049,344.041,257.404z"
   id="path5" />&#10;				<path
   opacity="0.65"
   fill="#424B0C"
   d="M405.841,296.851c2.706-0.964-0.286-4.557-2.208-4.404      c-14.511,1.16-28.809,1.04-43.368,0.777c-2.706-0.049-7.743,0.566-9.237-1.773c-0.894-1.4-0.371-2.418-2.035-3.404      c-4.163-2.467-10.933,0.012-15.571-1.287c-0.713-0.2-1.46,0.305-0.96,1.062c1.148,1.736,2.228,2.213,4.335,2.626      c1.884,0.369,6.338-0.102,8.662,0.518c0.037,2.927,0.415,4.792,4.253,6.108c5.239,1.797,11.764,1.222,17.19,1.04      c6.302-0.212,12.521-0.399,18.817,0.134C392.459,298.819,399.384,299.151,405.841,296.851z"
   id="path6" />&#10;				<path
   opacity="0.65"
   fill="#424B0C"
   d="M441.235,302.303c-4.996,0.292-10.011,1.45-14.933,2.341      c-4.93,0.892-9.694,0.653-14.597,1.329c-1.739,0.24-3.329,0.704-4.979,1.286c-2.51,0.885-4.587,0.695-7.087,0.311      c-4.322-0.665-9.748,1.262-13.754-0.683c-0.443-0.215-1.008,0.031-0.994,0.552c0.085,3.041,4.159,3.43,6.525,3.704      c2.736,0.317,5.641-0.264,8.32,0.203c2.058,0.359,3.203,0.58,5.39,0.391c3.277-0.282,6.527-1.216,9.842-0.842      c2.539,0.287,4.914,1.036,7.506,1.129c6.821,0.246,14.649-0.484,21.31-1.956C450.049,308.683,446.353,302.003,441.235,302.303z"
   id="path7" />&#10;				<path
   opacity="0.65"
   fill="#424B0C"
   d="M291.989,217.365c2.475-2.371-1.518-6.002-3.876-6.064      c-1.174-0.031-7.89,1.577-11.709,1.967c0.393-0.354,0.764-0.72,1.078-1.114c1.354-1.7,2.265-3.643,3.109-5.633      c1.262-2.975-2.938-5.971-5.44-5.904c-2.996,0.081-6.345,0.332-9.112-1.031c-2.914-1.435-4.924-3.547-8.223-4.346      c-5.955-1.444-12.586,0.333-18.666,0.053c-7.006-0.322-12.496-3.486-19.096-5.32c-5.946-1.652-12.034-1.8-18.15-1.223      c-3.329,0.314-6.635,0.828-9.956,1.215c-2.479,0.289-8.614,1.967-10.671,0.19c-1.111-0.959-1.031-3.266-2.698-4.434      c-1.549-1.085-3.491-1.48-5.337-1.596c-2.848-0.179-5.761,0.244-8.617,0.279c-1.631,0.02-3.658,0.32-5.275,0.025      c-1.99,0.35-2.252,0.161-0.788-0.567c0.696-0.357,1.281-0.848,1.753-1.474c0.901-1.029,1.533-2.266,1.759-3.518      c2.615-0.103,5.214-0.365,7.762-0.911c4.328-0.926,13.969-4.259,11.391-10.454c-2.712-6.516-10.71-2.747-15.498-2.206      c-4.052,0.458-8.347-0.663-12.442-0.681c-4.23-0.018-8.431,0.36-12.626,0.87c-7.818,0.952-15.552,2.149-23.415,2.053      c-2.059-0.565-4.011-1.396-5.811-2.566c-0.233-0.542-0.594-1.069-1.084-1.593c-2.464-2.632-5.751-2.874-9.152-3.021      c-4.83-0.209-9.669-0.33-14.503-0.42c-9.746-0.18-19.459-0.05-29.166,0.908c-0.456,0.045-0.842,0.14-1.197,0.255      c-1.381-1.208-2.587-2.417-4.575-3.013c-2.644-0.793-5.305-0.356-7.992-0.07c-1.957,0.208-23.013,1.709-22.992,1.48      c0.094-0.995-1.304-1.81-2.01-0.982c-4.528,5.312,9.271,6.019,11.465,6.197c5.436,0.441,10.846,0.248,16.268-0.281      c4.72-0.46,6.868,3.811,11.072,5.419c8.461,3.235,19.015,1.792,27.886,1.852c3.219,0.022,6.438-0.006,9.658-0.042      c5.542,0.959,11.022,1.962,16.526,2.664c10.694,4.155,23.654,2.714,34.867,3.782c3.204,0.305,6.472,0.602,9.747,0.739      c-1.497,0.927-2.979,1.792-3.522,2.58c-1.218,1.769-1.388,3.843-0.383,5.732c2.55,4.79,10.452,3.822,14.907,3.647      c1.755-0.069,3.502-0.219,5.254-0.322c0.247-0.027,0.495-0.043,0.743-0.059c-0.043,0.171-0.001,0.421,0.141,0.762      c-0.295,1.966,2.356,3.865,3.778,4.592c5.258,2.686,12.818,1.05,18.419,0.511c7.174-0.691,15.046-1.879,22.08,0.318      c3.486,1.089,6.345,3.548,9.69,4.977c2.894,1.236,5.963,1.881,9.073,2.316c3.447,0.482,6.938,0.627,10.413,0.507      c3.152-0.108,7.124-1.26,10.111-0.099c3.138,1.219,5.268,3.482,8.679,4.352c-1.011,1.077-1.859,2.206-2.16,3.522      c-0.85,3.717,2.467,6.568,5.414,8.036C275.555,223.541,286.547,222.579,291.989,217.365z"
   id="path8" />&#10;			</g>&#10;			<g
   id="g55">&#10;				<g
   id="g11">&#10;					<path
   fill="#A49B79"
   d="M61.457,67.494c3.219,0.001,6.43,1.019,9.062,2.872c-14.676,0.364-29.129,6.552-39.522,16.92       c-6.826,6.81-11.821,15.172-16.552,23.601c-0.844,1.503,0.072,3.41,1.779,3.649c13.869,1.944,27.57-6.892,39.24-15.316       c10.375-7.489,20.75-14.977,31.125-22.466C72.939,86.843,59.037,97.19,48.942,110.757c-1.087,1.461-0.222,3.556,1.574,3.858       c9.542,1.605,19.643-0.172,28.022-5.026c3.754-2.175,7.142-4.917,10.544-7.61c16.772-13.275,34.444-25.713,54.09-34.17       c-24.693,11.509-43.54,32.631-66.799,46.818c-4.067,2.481-8.314,4.783-11.739,8.094c-3.525,3.408-6.06,7.775-9.805,10.94       c-6.297,5.321-15.266,6.633-21.502,12.026c-0.924,0.799-1.852,1.826-1.205,3.261c0.532,1.18,1.824,1.823,3.115,1.729       c11.652-0.849,23.721-1.555,34.327-6.541c6.207-2.918,11.661-7.191,17.055-11.426c18.942-14.874,37.884-29.749,56.826-44.623       c-2.973,5.406-7.517,9.937-12.932,12.895l17.834-4.174c-7.039,4.677-16.05,5.293-23.537,9.211       c-3.33,1.743-6.29,4.103-9.227,6.449c-15.39,12.292-30.78,24.584-46.17,36.876c-1.22,0.974-2.505,2.263-3.254,3.636       c-0.94,1.721,0.747,3.682,2.624,3.117c8.766-2.635,17.83-4.279,26.964-4.887c-1.663,2.071-2.929,4.458-3.721,6.993       c-0.414,1.326,0.567,2.688,1.956,2.662c8.452-0.158,16.094-6.189,22.126-12.424c6.639-6.863,13.149-14.746,22.344-17.32       c-6.918,6.25-13.836,12.499-20.754,18.748c-1.747,1.578-3.686,3.838-2.182,6.054c0.776,1.144,2.162,1.719,3.544,1.659       l59.31-2.559c-2.542-3.544-2.919-8.52-0.938-12.406c0.914-1.793,2.302-3.417,2.599-5.407c0.793-5.308-5.827-8.109-9.841-11.672       c-3.203-2.843-5.013-6.895-6.732-10.818c-3.763-8.589-7.608-17.911-5.584-27.067c1.4-6.332,5.52-12.91,2.77-18.783       c-1.441-3.078-4.552-5.171-5.811-8.328c-1.745-4.376,0.258-10.227-3.151-13.479c-1.297-1.237-3.118-1.759-4.558-2.826       c-3.497-2.591-3.938-7.563-4.071-11.913c-0.329-10.771-0.658-21.543-0.988-32.315c-0.507,0.042-1.005,0.222-1.427,0.556       c-6.135,4.854-12.355,9.644-19.224,13.375c-2.767,1.503-5.652,2.842-8.134,4.779c-3.353,2.617-5.802,6.188-8.358,9.588       c-8.445,11.234-18.647,21.124-30.072,29.306C71.335,61.991,66.701,65.477,61.457,67.494z"
   id="path9" />&#10;					<path
   fill="#A49B79"
   d="M31.641,79.617c-1.397,1.302-2.294,3.038-3.207,4.716c-6.687,12.292-15.668,23.331-26.343,32.379       c-0.365,0.31,0.049,0.655,0.387,0.994c0.338,0.339,0.859,0.397,1.336,0.434c13.004,1,26.119,0.554,39.026-1.327       c-0.496,0.392-0.306,1.252,0.203,1.627c0.509,0.375,1.187,0.402,1.819,0.409c7.501,0.088,14.907,0.31,22.298-0.965       c-2.542,0.558-4.429,2.7-5.77,4.931c-1.34,2.231-2.346,4.696-4.075,6.642c-3.81,4.289-10.085,5.08-15.332,7.401       c-5.055,2.236-9.261,5.985-13.376,9.675c-3.468,3.109-7.018,6.324-8.967,10.582c-0.394,0.861-0.516,1.854-0.155,2.729       c0.487,1.179,1.43,1.23,2.315,1.267c8.659,0.355,17.387,0.706,25.944-0.666c0.852-0.137,1.864-0.238,2.443,0.401       c0.36,0.398,0.434,0.973,0.693,1.443c0.557,1.011,1.828,1.349,2.968,1.537c12.171,2.006,24.605-1.934,36.903-0.971       c5.164,0.405,10.425,2.122,15.002-0.303c-0.935,1.555,0.072,3.691,1.639,4.608c1.566,0.917,3.478,0.947,5.293,0.951       c15.299,0.036,30.597,0.072,45.896,0.108c9.167,0.022,19.267-0.299,26.042-6.474c3.208-2.925,5.276-6.856,7.796-10.391       c4.477-6.282,10.417-11.349,16.293-16.346c9.013-7.666,18.026-15.333,27.039-22.999c1.114-0.947,2.396-1.952,3.853-1.831       c0.843,0.07,1.602,0.516,2.328,0.951c8.506,5.092,12.508,8.443,17.615,16.94c3.91,1.172,12.835,1.087,14.705-2.489       c0.46-0.879,1.38-1.405,2.372-1.418c4.136-0.055,8.269-0.382,12.362-0.978c2.022-0.294,3.237-2.442,2.415-4.313       c-2.624-5.975-7.067-11.12-11.915-15.562c-5.818-5.331-12.326-9.874-18.066-15.289c-8.209-7.743-14.763-17.235-19.088-27.658       c-0.411-0.991-1.083-1.875-2.012-2.412c-1.826-1.056-2.833,0.087-4.027,0.744c-3.967,2.181-8.567-1.212-12.006-4.155       c-11.166-9.555-24.509-16.551-38.718-20.303c-1.946-0.514-3.959-0.99-5.609-2.143c-1.239-0.866-2.199-2.065-3.169-3.225       c-9.317-11.145-21.256-19.659-32.915-28.346c-0.535-0.398-1.179-0.562-1.809-0.509c0.329,10.771,0.658,21.543,0.988,32.315       c0.133,4.35,0.574,9.322,4.071,11.913c1.441,1.067,3.261,1.589,4.558,2.826c3.409,3.252,1.406,9.103,3.151,13.479       c1.259,3.157,4.37,5.25,5.811,8.328c2.75,5.873-1.37,12.451-2.77,18.783c-2.024,9.156,1.821,18.478,5.584,27.067       c1.718,3.923,3.529,7.975,6.732,10.818c4.014,3.563,10.634,6.364,9.841,11.672c-0.297,1.99-1.685,3.614-2.599,5.407       c-1.98,3.886-1.604,8.862,0.938,12.406l-59.31,2.559c-1.381,0.06-2.767-0.515-3.544-1.659       c-1.504-2.216,0.435-4.476,2.182-6.054c6.918-6.249,13.836-12.499,20.754-18.748c-9.195,2.574-15.706,10.457-22.344,17.32       c-6.031,6.235-13.674,12.266-22.126,12.424c-1.389,0.026-2.371-1.336-1.956-2.662c0.792-2.535,2.058-4.923,3.721-6.993       c-9.133,0.608-18.197,2.252-26.964,4.887c-1.878,0.564-3.564-1.397-2.624-3.117c0.75-1.373,2.034-2.662,3.254-3.636       c15.39-12.292,30.78-24.584,46.17-36.876c2.937-2.346,5.896-4.706,9.227-6.449c7.488-3.918,16.499-4.534,23.537-9.211       l-17.834,4.174c5.415-2.958,9.959-7.488,12.932-12.895c-18.942,14.874-37.884,29.749-56.826,44.623       c-5.394,4.236-10.848,8.509-17.055,11.426c-10.607,4.985-22.675,5.692-34.327,6.541c-1.291,0.094-2.583-0.55-3.115-1.729       c-0.647-1.435,0.282-2.462,1.205-3.261c6.236-5.393,15.205-6.705,21.502-12.026c3.745-3.164,6.28-7.532,9.805-10.94       c3.425-3.311,7.672-5.613,11.739-8.094c23.258-14.187,42.105-35.309,66.799-46.818c-19.646,8.458-37.319,20.895-54.09,34.17       c-3.402,2.693-6.79,5.435-10.544,7.61c-8.379,4.855-18.48,6.631-28.022,5.026c-1.796-0.302-2.662-2.396-1.574-3.858       C59.037,97.19,72.939,86.843,86.587,76.755c-10.375,7.489-20.75,14.977-31.125,22.466c-11.67,8.423-25.371,17.26-39.24,15.316       c-1.707-0.239-2.622-2.146-1.779-3.649c4.732-8.429,9.726-16.791,16.552-23.601C41.39,76.918,55.843,70.73,70.519,70.366       c-2.632-1.853-5.843-2.871-9.062-2.872c5.243-2.017,9.878-5.503,13.394-9.88c-11.175,8.003-23.521,14.37-36.555,18.737       C35.934,77.142,33.464,77.919,31.641,79.617z"
   id="path10" />&#10;					<path
   fill="#404333"
   d="M31.641,79.617c-1.397,1.302-2.294,3.038-3.207,4.716c-6.687,12.292-15.668,23.331-26.343,32.379       c-0.365,0.31,0.049,0.655,0.387,0.994c0.338,0.339,0.859,0.397,1.336,0.434c13.004,1,26.119,0.554,39.026-1.327       c-0.496,0.392-0.306,1.252,0.203,1.627c0.509,0.375,1.187,0.402,1.819,0.409c7.501,0.088,14.907,0.31,22.298-0.965       c-2.542,0.558-4.429,2.7-5.77,4.931c-1.34,2.231-2.346,4.696-4.075,6.642c-3.81,4.289-10.085,5.08-15.332,7.401       c-5.055,2.236-9.261,5.985-13.376,9.675c-3.468,3.109-7.019,6.324-8.968,10.582c-0.394,0.861-0.516,1.854-0.155,2.729       c0.487,1.179,1.43,1.23,2.315,1.267c8.659,0.355,17.387,0.706,25.944-0.666c0.852-0.137,1.864-0.238,2.443,0.401       c0.36,0.398,0.434,0.973,0.693,1.443c0.557,1.011,1.828,1.349,2.968,1.537c12.171,2.006,24.605-1.934,36.903-0.971       c5.164,0.405,10.425,2.122,15.002-0.303c-0.935,1.555,0.072,3.691,1.639,4.608c1.566,0.917,3.478,0.947,5.293,0.951       c15.299,0.036,30.597,0.072,45.896,0.108c9.167,0.022,19.267-0.299,26.042-6.474c3.208-2.925,5.276-6.856,7.796-10.391       c4.477-6.282,10.417-11.349,16.293-16.346c9.013-7.666,18.026-15.333,27.039-22.999c1.114-0.947,2.396-1.952,3.853-1.831       c0.843,0.07,1.602,0.516,2.328,0.951c8.506,5.092,12.508,8.443,17.615,16.94c3.91,1.172,12.835,1.087,14.705-2.489       c0.46-0.879,1.38-1.405,2.372-1.418c4.136-0.055,8.268-0.382,12.362-0.978c2.022-0.294,3.237-2.442,2.415-4.313       c-2.624-5.975-7.067-11.12-11.915-15.562c-5.818-5.331-12.326-9.874-18.066-15.289c-8.209-7.743-14.763-17.235-19.088-27.659       c-0.411-0.991-1.083-1.875-2.012-2.412c-1.826-1.056-2.833,0.087-4.027,0.744c-3.967,2.181-8.567-1.212-12.006-4.155       c-11.166-9.555-24.509-16.551-38.718-20.303c-1.946-0.514-3.959-0.99-5.609-2.143c-1.239-0.866-2.199-2.065-3.169-3.225       c-9.317-11.145-21.256-19.659-32.915-28.346c-0.535-0.398-1.179-0.562-1.809-0.509c0.329,10.771,0.658,21.543,0.988,32.315       c0.133,4.35,0.574,9.322,4.071,11.913c1.441,1.067,3.261,1.589,4.558,2.826c3.409,3.252,1.406,9.103,3.151,13.479       c1.259,3.157,4.37,5.25,5.811,8.328c2.75,5.873-1.37,12.451-2.77,18.783c-2.024,9.156,1.821,18.478,5.584,27.067       c1.718,3.923,3.529,7.975,6.732,10.818c4.014,3.563,10.634,6.364,9.841,11.672c-0.297,1.99-1.685,3.614-2.599,5.407       c-1.238,2.429-1.555,5.283-0.998,7.948c0.49,2.344-1.134,4.591-3.527,4.694l-53.847,2.324c-1.381,0.06-2.767-0.515-3.543-1.659       c-1.504-2.216,0.435-4.476,2.181-6.054c6.918-6.249,13.836-12.499,20.754-18.748c-9.195,2.574-15.706,10.457-22.344,17.32       c-6.031,6.235-13.674,12.266-22.126,12.424c-1.389,0.026-2.371-1.335-1.956-2.662c0.792-2.535,2.058-4.923,3.721-6.993       c-9.133,0.608-18.197,2.252-26.964,4.887c-1.878,0.564-3.564-1.397-2.624-3.118c0.75-1.373,2.034-2.662,3.254-3.636       c15.39-12.292,30.78-24.584,46.17-36.876c2.937-2.346,5.896-4.706,9.227-6.449c7.488-3.918,16.499-4.534,23.537-9.211       l-17.834,4.174c5.415-2.958,9.959-7.488,12.932-12.895c-18.942,14.874-37.884,29.749-56.826,44.623       c-5.394,4.236-10.848,8.509-17.055,11.426c-10.607,4.985-22.675,5.692-34.327,6.541c-1.291,0.094-2.583-0.55-3.115-1.729       c-0.647-1.435,0.282-2.462,1.205-3.261c6.236-5.393,15.205-6.705,21.502-12.026c3.745-3.164,6.28-7.532,9.805-10.94       c3.425-3.311,7.672-5.613,11.739-8.094c23.258-14.187,42.105-35.309,66.799-46.818c-19.646,8.458-37.319,20.895-54.09,34.17       c-3.402,2.693-6.79,5.435-10.544,7.61c-8.379,4.855-18.48,6.631-28.022,5.026c-1.796-0.302-2.662-2.397-1.574-3.858       C59.037,97.19,72.939,86.842,86.587,76.755c-10.375,7.489-20.75,14.977-31.125,22.466c-11.67,8.423-25.371,17.26-39.24,15.316       c-1.707-0.239-2.622-2.146-1.778-3.649c4.732-8.429,9.726-16.791,16.553-23.601C41.39,76.918,55.843,70.73,70.519,70.366       c-2.632-1.853-5.843-2.871-9.062-2.872c5.243-2.017,9.878-5.503,13.394-9.88c-11.175,8.003-23.521,14.37-36.555,18.737       C35.934,77.142,33.464,77.919,31.641,79.617z"
   id="path11" />&#10;				</g>&#10;				<path
   fill="#A49B79"
   d="M205.871,71.982c1.442-1.482,2.853-3.031,4.592-4.15c1.739-1.119,3.892-1.775,5.896-1.266      c1.525,0.388,2.917,1.425,4.488,1.348c2.433-0.119,3.842-2.682,5.498-4.468c2.874-3.099,7.254-4.189,11.374-5.133      c0.543-0.124,1.121-0.247,1.646-0.063c0.836,0.294,1.245,1.304,1.123,2.182s-0.648,1.642-1.196,2.339      c-2.073,2.635-4.694,4.837-7.645,6.427c-0.865,0.466-1.832,0.957-2.195,1.87s0.469,2.233,1.381,1.864      c0.106,1.399-1.447,2.251-2.702,2.879c-3.008,1.506-5.621,3.795-7.509,6.58c-0.169,0.249-0.338,0.521-0.336,0.821      c0.006,1.103,2.014,1.172,2.204,2.259c0.114,0.651-0.517,1.167-1.074,1.524c-4.472,2.872-8.943,5.744-13.415,8.616      c-0.527,0.338-1.12,0.691-1.737,0.583c-0.338-0.059-0.636-0.253-0.914-0.453c-2.082-1.5-3.585-3.586-5.022-5.676      c-1.422-2.068-3.635-4.226-4.769-6.405c-1.443-2.771,1.85-3.975,3.859-5.669C201.667,76.095,203.821,74.089,205.871,71.982z"
   id="path12" />&#10;				<path
   fill="#BDB48D"
   d="M119.331,17.519c-4.238,2.945-8.008,6.561-11.126,10.672c-2.166,2.855-4.013,5.938-6.124,8.833      c-2.891,3.965-6.261,7.557-9.71,11.048c-5.2,5.263-10.605,10.324-16.198,15.168c-0.743,0.643-1.515,1.318-1.889,2.227      c-0.374,0.909-0.205,2.123,0.638,2.629c0.813,0.488,1.854,0.148,2.724-0.228c3.459-1.497,6.721-3.448,9.676-5.788      c2.051-1.624,4.012-3.467,6.457-4.396c2.2-0.835,4.613-0.86,6.917-1.339c8.011-1.667,13.996-8.611,21.949-10.717      c0.769-0.204,1.631,0.076,2.063,0.745c0.492,0.762,0.1,1.394-0.305,1.934c-4.113,5.478-11.389,7.606-16.198,12.484      c-1.981,2.01-3.495,4.441-5.477,6.449c-2.562,2.595-5.84,4.418-8.288,7.121c-2.61,2.883-4.134,6.611-6.707,9.527      c-2.639,2.992-6.216,4.954-9.45,7.29s-6.322,5.343-7.166,9.241c1.584,1.886,4.699,1.381,6.723-0.023      c2.024-1.404,3.539-3.489,5.689-4.691c1.403-0.784,2.994-1.146,4.531-1.612c3.381-1.026,6.577-2.59,9.654-4.326      c6.19-3.493,11.969-7.714,17.18-12.547c2.78-2.579,5.416-5.345,8.525-7.517c4.445-3.104,9.83-4.978,13.491-8.977      c2.285-2.496,4.243-5.987,7.615-6.279c1.377-0.119,2.879,0.339,3.95-0.958c0.774-0.937,0.798-2.277,0.263-3.367      c-1.118-2.277-3.525-3.102-5.425-4.529c-2.016-1.514-3.467-3.763-4.015-6.224c-0.509-2.283-0.259-4.682-0.348-6.978      c0.025-3.398,0.05-6.792,0.075-10.19c0.117-3.455-0.141-7.051,0.723-10.448c0.331-1.3,0.827-2.579,0.865-3.92      c0.021-0.719-0.126-1.499-0.472-2.137c-0.401-0.741-1.409-0.806-1.95-0.16c-2.019,2.411-5.994,4.277-8.451,5.73      C126.255,13.322,122.659,15.204,119.331,17.519z"
   id="path13" />&#10;				<path
   fill="#BDB48D"
   d="M135.006,76.735c-4.395,2.698-9.347,4.389-13.74,7.091c-6.908,4.248-12.145,10.808-19,15.14      c-1.519,0.96-3.112,1.807-4.571,2.856c-1.893,1.362-3.529,3.043-5.176,4.693c-3.943,3.951-8.112,7.85-13.195,10.156      c-1.669,0.757-3.431,1.34-4.97,2.334c-3.117,2.014-5.022,5.513-8.091,7.599c-1.445,0.982-3.157,1.661-4.238,3.033      c-1.081,1.372-1.07,3.825,0.548,4.483c0.949,0.386,2.026-0.001,2.944-0.457c3.453-1.712,6.336-4.383,9.657-6.337      c6.905-4.061,15.55-4.947,21.706-10.073c3.006-2.503,5.617-6.089,9.505-6.516c1.098-0.121,2.249,0.027,3.276-0.38      c1.926-0.765,2.615-3.075,3.868-4.725c2.255-2.97,6.35-3.752,9.385-5.919c1.952-1.394,3.45-3.356,5.427-4.714      c2.145-1.472,4.734-2.152,6.984-3.457c4.778-2.773,7.693-8.152,12.645-10.598c2.096-1.035,4.553-1.548,6.154-3.251      c2.125-2.261,1.997-5.771,1.612-8.85c-0.197-1.58-0.536-3.733-2.142-4.536c-1.398-0.698-2.785,0.459-3.898,1.214      c-3.249,2.203-6.177,4.809-9.228,7.268C138.718,74.198,136.923,75.558,135.006,76.735z"
   id="path14" />&#10;				<path
   fill="#BDB48D"
   d="M135.712,103.788c-2.445,1.082-4.722,2.504-6.99,3.921c-3.081,1.924-6.177,3.861-8.901,6.263      c-3.266,2.881-5.947,6.389-9.31,9.157c-3.699,3.043-8.148,5.128-11.612,8.437c-1.879,1.795-3.435,3.922-5.436,5.579      c-1.704,1.412-3.696,2.453-5.348,3.925c-0.608,0.542-1.209,1.261-1.103,2.069c0.18,1.371,2.088,1.653,3.412,1.251      c2.389-0.724,4.336-2.418,6.367-3.871c2.031-1.452,4.412-2.743,6.892-2.458c2.024,0.232,3.909,1.5,5.934,1.286      c1.097-0.116,2.098-0.66,3.042-1.231c1.77-1.069,3.46-2.27,5.052-3.59c1.117-0.925,2.204-1.922,3.514-2.543      c2.902-1.376,6.358-0.695,9.468-1.495c5.891-1.515,9.815-8.092,15.882-8.527c0.759-0.054,1.6,0.026,2.137,0.565      c0.794,0.796,0.5,2.214-0.265,3.038c-0.765,0.824-1.855,1.245-2.841,1.785c-5.566,3.053-7.828,9.939-12.696,14.014      c-2.407,2.015-5.538,3.451-6.863,6.296c-0.397,0.851-0.575,1.929-0.01,2.679c1.02,1.351,3.142,0.443,4.554-0.492      c1.632-1.081,3.396-2.104,5.347-2.269c1.4-0.119,2.807,0.215,4.207,0.109c2.385-0.18,4.547-1.612,6.934-1.753      c2.162-0.128,4.276,0.818,6.44,0.727c1.895-0.08,3.704-0.952,5.601-0.923c1.398,0.021,2.745,0.531,4.138,0.644      c1.759,0.142,3.612-0.411,4.841-1.677s1.718-3.274,0.996-4.884c-0.778-1.734-2.701-2.709-3.594-4.387      c-1.373-2.58,0.111-5.69,0.221-8.611c0.112-2.952-1.231-5.779-2.923-8.2c-1.395-1.995-3.108-3.958-3.373-6.378      c-0.176-1.613,0.314-3.333-0.334-4.821c-0.343-0.788-0.975-1.421-1.33-2.204c-0.506-1.117-0.396-2.401-0.316-3.625      c0.08-1.224,0.098-2.534-0.551-3.574c-1.13-1.809-2.601-1.061-3.968-0.242c-1.742,1.043-3.766,1.712-5.691,2.324      C143.393,101.325,139.412,102.15,135.712,103.788z"
   id="path15" />&#10;				<path
   fill="#BDB48D"
   d="M202.944,78.511c-0.943,0.613-1.998,1.111-2.711,1.98s-0.941,2.288-0.124,3.061      c0.713,0.675,1.85,0.57,2.751,0.962c1.94,0.844,2.289,3.682,4.17,4.652c1.107,0.571,2.44,0.332,3.66,0.08      c1.051-0.217,2.102-0.435,3.154-0.652c1-0.207,2.034-0.429,2.853-1.038c0.819-0.609,1.358-1.722,0.985-2.672      c-0.831-2.114-4.765-1.306-5.556-3.436c-0.459-1.236,0.632-2.573,1.874-3.018c1.242-0.444,2.607-0.314,3.913-0.497      c3.006-0.42,5.505-2.445,7.833-4.392c0.45-0.376,0.947-0.888,0.8-1.455c-0.118-0.509-0.765-0.635-1.279-0.729      s-1.14-0.469-0.983-0.967c0.119-0.376,0.594-0.473,0.983-0.533c3.554-0.545,6.389-3.153,8.986-5.64      c0.22-0.21,0.454-0.451,0.471-0.755c0.014-0.256-0.136-0.496-0.321-0.673c-0.636-0.607-1.664-0.621-2.475-0.281      c-0.81,0.34-1.459,0.968-2.106,1.563c-1.406,1.294-2.898,2.494-4.463,3.591c-2.3,1.613-4.173,2.073-6.817,1.062      c-2.069-0.791-3.405-1.254-5.385-0.029C209.071,71.226,206.951,75.903,202.944,78.511z"
   id="path16" />&#10;				<path
   fill="#505244"
   d="M147.615,27.77c-0.699,2.895-1.581,6.091-0.18,8.719c0.666,1.249,1.778,2.196,2.926,3.023      c4.249,3.064,9.791,5.494,11.131,10.559c0.784,2.962-0.118,6.286,1.187,9.059c1.746,3.712,6.442,4.699,10.451,5.564      c6.678,1.441,13.651,4.165,17.274,9.956c0.822,1.313,1.795,2.962,3.342,2.873c1.28-0.074,2.129-1.367,2.524-2.587      c0.395-1.22,0.594-2.579,1.473-3.513c0.968-1.028,2.551-1.297,3.503-2.34c1.357-1.487,0.887-3.861,0.041-5.687      c-0.847-1.826-2.019-3.667-1.821-5.671c0.051-0.515,0.216-1.055,0.619-1.379c0.532-0.428,1.302-0.355,1.965-0.195      c1.605,0.387,3.09,1.15,4.603,1.812c4.853,2.125,10.138,3.259,15.435,3.313c1.276,0.013,3.043-0.659,2.668-1.878      c-0.138-0.448-0.551-0.746-0.938-1.01c-0.921-0.628-1.842-1.256-2.763-1.885c-4.69-3.2-9.403-6.413-14.528-8.856      c-1.717-0.819-3.481-1.551-5.118-2.519c-3.359-1.986-6.174-4.95-9.85-6.259c-2.01-0.716-4.164-0.892-6.266-1.253      c-2.031-0.349-4.031-0.876-5.971-1.574c-1.761-0.633-3.514-1.435-4.834-2.762c-1.054-1.059-1.775-2.395-2.642-3.611      c-1.553-2.178-3.576-3.97-5.581-5.743c-2.944-2.603-5.889-5.206-8.833-7.809c-1.224-1.082-6.597-7.209-8.159-6.846      c-1.82,0.424-0.347,6.421-0.329,7.716C148.996,20.62,148.466,24.247,147.615,27.77z"
   id="path17" />&#10;				<path
   fill="#505244"
   d="M165.179,82.272c-0.637,3.118-3.146,5.572-3.943,8.654c-0.79,3.055,0.238,6.351,2.023,8.952      c1.785,2.602,4.264,4.634,6.708,6.629c4.854,3.962,9.709,7.925,14.563,11.887c-3.821-0.573-6.94-3.26-9.768-5.893      c-4.244-3.951-8.362-8.037-12.346-12.249c-0.353-0.373-0.768-0.775-1.281-0.768c-1.112,0.016-1.223,1.656-0.863,2.708      c1.204,3.514,3.382,6.597,5.531,9.627c2.204,3.106,4.408,6.212,6.612,9.319c0.887,1.25,1.792,2.519,3.003,3.458      c1.432,1.11,3.196,1.686,4.801,2.527c3.656,1.917,6.651,5.801,6.1,9.893c-0.145,1.075-0.523,2.113-0.594,3.195      c-0.071,1.082,0.25,2.291,1.169,2.866c1.228,0.768,2.851,0.06,3.97-0.86c3.344-2.749,4.909-7.173,8.11-10.087      c3.118-2.837,7.392-3.916,11.358-5.344c3.966-1.428,8.093-3.612,9.713-7.504c0.255-0.612,0.442-1.27,0.389-1.931      c-0.09-1.124-0.849-2.075-1.647-2.872c-4.546-4.549-11.157-6.488-15.904-10.827c-3.772-3.447-6.094-8.147-8.701-12.541      c-2.207-3.721-4.667-7.284-7.125-10.844c-2.678-3.88-5.53-7.915-9.737-10.043c-2.983-1.509-6.383-1.915-9.704-2.299      C160.829,67.14,165.891,78.791,165.179,82.272z"
   id="path18" />&#10;				<path
   fill="#505244"
   d="M211.645,96.682c-0.943,0.404-2.094,1.071-1.933,2.085c0.064,0.405,0.341,0.739,0.611,1.047      c4.748,5.406,10.952,9.522,17.779,11.794c1.063,0.354,2.178,0.667,3.29,0.534c1.112-0.133,2.228-0.816,2.554-1.888      c0.427-1.407-0.581-2.805-1.488-3.963c-3.707-4.738-6.717-10.02-8.903-15.625c-1.286-3.298-3.119,0.517-4.63,1.7      C216.697,94.109,214.247,95.567,211.645,96.682z"
   id="path19" />&#10;				<path
   fill="#505244"
   d="M224.797,83.251c0.073,0.946,0.62,1.779,1.139,2.573c3.408,5.22,6.295,10.779,8.606,16.568      c0.411,1.031,0.846,2.125,1.734,2.79c1.144,0.856,2.715,0.773,4.079,1.199c2.546,0.794,4.131,3.242,6.075,5.07      c4.076,3.832,10.23,5.253,13.493,9.797c0.824,1.147,1.455,2.485,2.592,3.322c1.601,1.179,3.776,1.075,5.758,0.919      c0.768-0.06,1.61-0.154,2.142-0.712c0.566-0.594,0.581-1.555,0.256-2.309c-0.325-0.753-0.925-1.347-1.512-1.921      c-5.881-5.754-11.763-11.509-17.644-17.263c4.983,2.756,9.694,6.003,14.043,9.68c0.877,0.741,1.743,1.504,2.715,2.116      c3.536,2.229,8.025,2.239,11.885,3.843c2.171,0.903,4.631,2.316,6.679,1.161c0.882-2.723-0.707-5.599-2.447-7.872      c-2.934-3.835-6.46-7.169-9.969-10.485c-1.374-1.298-2.773-2.615-4.456-3.475c-0.952-0.487-1.976-0.818-2.94-1.279      c-1.638-0.784-3.074-1.93-4.447-3.119c-8.85-7.672-15.684-17.649-19.641-28.673c-0.339-0.945-0.975-2.101-1.965-1.938      c-0.344,0.057-0.639,0.278-0.885,0.525c-1.485,1.496-1.595,4.006-3.157,5.421c-0.459,0.416-1.025,0.716-1.413,1.198      c-0.704,0.875-0.652,2.173-0.18,3.192c0.472,1.019,1.291,1.827,2.077,2.629c5.658,5.773,10.416,12.425,14.051,19.645      c-1.467-2.914-4.866-5.738-7.053-8.159c-2.431-2.69-4.877-5.421-7.497-7.929c-1.943-1.86-3.486-2.742-6.15-1.858      C228.521,78.655,224.574,80.34,224.797,83.251z"
   id="path20" />&#10;				<g
   id="g23">&#10;					<path
   fill="#A49B79"
   d="M164.777,178.615c-0.611,0.707-1.206,1.744-0.661,2.503c0.291,0.405,0.812,0.558,1.294,0.686       c4.796,1.271,10.017,2.519,14.588,0.59c5.166-2.18,8.22-7.934,13.479-9.876c-4.152,3.722-8.168,7.596-12.037,11.612       c-1.259,1.307-2.405,3.689-0.852,4.627c0.458,0.277,1.022,0.294,1.558,0.303c5.226,0.091,10.453,0.181,15.679,0.272       c5.625,0.098,11.64,0.087,16.331-3.019c4.235-2.805,6.599-7.624,8.772-12.215c-1.228,3.278-2.457,6.555-3.685,9.833       c-0.252,0.673-0.508,1.361-0.529,2.08c-0.096,3.294,4.166,4.614,7.448,4.909c8.025,0.72,16.051,1.44,24.076,2.161       c2.59,0.232,5.234,0.478,7.611,1.531c2.843,1.259,5.081,3.572,7.775,5.126c2.694,1.553,6.395,2.193,8.723,0.131       c3.194-2.828,1.464-8.029-0.485-11.824c-3.123-6.082-6.246-12.164-9.369-18.246c-1.787-3.48-3.607-7.073-3.939-10.971       c-0.505-5.931,2.463-12.186,0.156-17.673c-1.292-3.073-4.012-5.258-6.435-7.548c-4.973-4.699-9.051-10.343-11.952-16.54       c-1.296-2.768-2.376-5.661-4.029-8.226c-0.761,0.248-1.435,0.708-2.091,1.17c-13.894,9.78-27.595,20.018-39.262,32.371       c-5.585,5.914-10.731,12.333-16.091,18.492c-1.981,3.186-4.206,6.195-6.837,8.881       C171.029,172.804,167.57,175.386,164.777,178.615z"
   id="path21" />&#10;					<path
   fill="#A49B79"
   d="M346.512,239.757c-0.151-1.525-1.04-2.889-1.293-4.401c-0.846-5.054,5.091-8.255,8.001-12.472       c2.408-3.489,2.742-7.958,2.998-12.19c0.387-6.401,0.774-12.802,1.161-19.203c-1.37,11.726-3.121,24.31-11.171,32.945       c-1.988,2.133-4.495,4.382-4.337,7.293c0.105,1.939,1.421,3.619,1.733,5.535c0.489,3.001-1.673,5.944-4.4,7.287       c-2.728,1.343-5.89,1.42-8.93,1.326c-3.929-0.122-7.851-0.487-11.735-1.091c-1.702-0.265-3.623-0.732-4.438-2.25       c-0.753-1.404-0.238-3.123,0.305-4.621c4.803-13.26,10.814-26.082,17.935-38.256c-9.699,10.443-13.982,24.62-19.736,37.658       c-0.624,1.415-1.33,2.894-2.619,3.748c-1.262,0.836-2.86,0.923-4.372,0.984c-5.519,0.222-11.037,0.444-16.556,0.666       c-1.757,0.071-3.579,0.131-5.204-0.542c-1.625-0.673-2.997-2.297-2.786-4.043c0.211-1.751,1.874-3.568,0.867-5.016       c-0.395-0.568-1.098-0.834-1.586-1.324c-1.954-1.96,0.624-5.01,2.788-6.735c4.608-3.676,8.22-8.426,11.781-13.124       c6.901-9.102,13.801-18.205,20.701-27.307c-6.884,7.567-13.767,15.134-20.651,22.701c-1.054,1.159-2.144,2.345-3.551,3.034       c-1.774,0.869-3.836,0.848-5.811,0.809c-3.455-0.069-6.91-0.137-10.365-0.206c0.7-3.017,4.326-4.234,6.239-6.67       c1.121-1.427,1.613-3.233,2.424-4.856c2.781-5.563,8.928-8.444,13.432-12.733c2.819-2.685,5.008-5.95,7.173-9.185       c1.452-2.171,2.904-4.342,4.356-6.512c1.944-2.907,3.945-6.075,4.656-9.415c-1.193-0.561-2.365-1.182-3.524-1.782       c-15.525-8.039-33.326-13.23-44.932-26.305c-7.342-8.272-12.163-19.616-22.289-24.065c-1.371-0.602-2.913-1.06-4.352-0.646       c-0.044,0.013-0.084,0.033-0.127,0.047c1.653,2.566,2.733,5.458,4.029,8.226c2.9,6.197,6.978,11.841,11.952,16.54       c2.423,2.289,5.143,4.475,6.435,7.548c2.307,5.487-0.661,11.742-0.156,17.673c0.332,3.898,2.152,7.491,3.939,10.971       c3.123,6.082,6.246,12.164,9.369,18.246c1.949,3.795,3.679,8.996,0.485,11.824c-2.328,2.061-6.03,1.422-8.723-0.131       c-2.694-1.553-4.932-3.866-7.775-5.126c-2.378-1.053-5.021-1.299-7.611-1.531c-8.025-0.72-16.051-1.44-24.076-2.161       c-3.282-0.295-7.545-1.614-7.448-4.909c0.021-0.718,0.276-1.407,0.529-2.08c1.228-3.278,2.457-6.555,3.685-9.833       c-2.173,4.591-4.537,9.41-8.772,12.215c-4.691,3.107-10.706,3.117-16.331,3.019c-5.226-0.091-10.453-0.181-15.679-0.272       c-0.535-0.009-1.099-0.026-1.558-0.303c-1.553-0.938-0.407-3.32,0.852-4.627c3.869-4.016,7.884-7.89,12.037-11.612       c-5.26,1.943-8.313,7.696-13.479,9.876c-4.571,1.929-9.792,0.681-14.588-0.59c-0.482-0.128-1.003-0.281-1.294-0.686       c-0.546-0.758,0.05-1.796,0.661-2.503c2.793-3.229,6.251-5.812,9.239-8.862c2.631-2.686,4.856-5.695,6.837-8.881       c-6.871,7.895-14.096,15.364-23.051,20.794c-1.238,0.751-1.928,2.244-1.45,3.611c0.513,1.47,1.976,1.592,3.257,1.624       c5.974,0.152,11.954,0.048,17.919-0.311c0.117,1.776-2.362,2.862-1.521,4.431c0.434,0.808,1.524,0.925,2.44,0.942       c10.994,0.206,22.051,0.408,32.925-1.23c1.867-0.281,3.776-0.616,5.627-0.246c2.86,0.571,5.119,2.713,7.763,3.945       c2.267,1.056,4.784,1.425,7.259,1.783c7.88,1.138,15.924,2.273,23.759,0.855c0.784-0.142,1.601-0.308,2.364-0.08       c1.306,0.39,2.002,1.758,2.796,2.866c2.742,3.826,13.099,4.034,17.368,2.05c0,6.061-7.919,6.242-8.945,8.992       c-0.452,1.211,0.381,2.525,1.665,2.673l17.661,0.249c-1.357,5.533-7.737,8.123-10.335,12.109       c-2.623,4.025-2.97,9.118-1.773,13.771c0.34,1.321,0.726,2.722,1.739,3.638c1.109,1.002,2.711,1.192,4.201,1.302       c6.461,0.475,12.967,0.337,19.403-0.411c2.904-0.338,5.913-0.79,8.7,0.096c2.716,0.864,4.911,2.91,7.572,3.929       c4.889,1.872,10.389,0.007,15.589,0.614c3.915,0.458,7.849,2.026,11.715,3.4c-1.213-0.623-2.379-1.339-3.477-2.148       C342.737,246.36,346.889,243.566,346.512,239.757z"
   id="path22" />&#10;					<path
   fill="#404333"
   d="M346.512,239.757c-0.151-1.525-1.04-2.889-1.293-4.401c-0.846-5.054,5.091-8.255,8.001-12.472       c2.408-3.489,2.742-7.958,2.998-12.19c0.387-6.401,0.774-12.802,1.161-19.203c-1.37,11.726-3.121,24.31-11.171,32.945       c-1.988,2.133-4.495,4.382-4.337,7.293c0.105,1.939,1.421,3.619,1.733,5.535c0.489,3.001-1.673,5.944-4.4,7.287       c-2.728,1.343-5.89,1.42-8.93,1.326c-3.929-0.122-7.851-0.487-11.735-1.091c-1.702-0.265-3.623-0.732-4.438-2.25       c-0.753-1.404-0.238-3.123,0.305-4.621c4.803-13.26,10.814-26.082,17.935-38.256c-9.699,10.443-13.982,24.62-19.736,37.658       c-0.624,1.415-1.33,2.894-2.619,3.748c-1.262,0.836-2.86,0.923-4.372,0.984c-5.519,0.222-11.037,0.444-16.556,0.666       c-1.757,0.071-3.579,0.131-5.204-0.542c-1.625-0.673-2.997-2.297-2.786-4.043c0.211-1.751,1.874-3.568,0.867-5.016       c-0.395-0.568-1.098-0.834-1.586-1.324c-1.954-1.96,0.624-5.01,2.788-6.735c4.608-3.676,8.22-8.426,11.781-13.124       c6.901-9.102,13.801-18.205,20.701-27.307c-6.884,7.567-13.767,15.134-20.651,22.701c-1.054,1.159-2.144,2.345-3.551,3.034       c-1.774,0.869-3.836,0.848-5.811,0.809c-3.455-0.069-6.91-0.137-10.365-0.206c0.7-3.017,4.326-4.234,6.239-6.67       c1.121-1.427,1.613-3.233,2.424-4.856c2.781-5.563,8.928-8.444,13.432-12.733c2.819-2.685,5.008-5.95,7.173-9.185       c1.452-2.171,2.904-4.342,4.356-6.512c1.944-2.907,3.945-6.075,4.656-9.415c-1.193-0.561-2.365-1.182-3.524-1.782       c-15.525-8.039-33.326-13.23-44.932-26.305c-7.342-8.272-12.163-19.616-22.289-24.065c-1.371-0.602-2.913-1.06-4.352-0.646       c-0.044,0.013-0.084,0.033-0.127,0.047c1.653,2.566,2.733,5.458,4.029,8.226c2.9,6.197,6.978,11.841,11.952,16.54       c2.423,2.289,5.143,4.475,6.435,7.548c2.307,5.487-0.661,11.742-0.156,17.673c0.332,3.898,2.152,7.491,3.939,10.971       c3.123,6.082,6.246,12.164,9.369,18.246c1.949,3.795,3.679,8.996,0.485,11.824c-2.328,2.061-6.03,1.422-8.723-0.131       c-2.694-1.553-4.932-3.866-7.775-5.126c-2.378-1.053-5.021-1.299-7.611-1.531c-8.025-0.72-16.051-1.44-24.076-2.161       c-3.282-0.295-7.545-1.614-7.448-4.909c0.021-0.718,0.276-1.407,0.529-2.08c1.228-3.278,2.457-6.555,3.685-9.833       c-2.173,4.591-4.537,9.41-8.772,12.215c-4.691,3.107-10.706,3.117-16.331,3.019c-5.226-0.091-10.453-0.181-15.679-0.272       c-0.535-0.009-1.099-0.026-1.558-0.303c-1.553-0.938-0.407-3.32,0.852-4.627c3.869-4.016,7.884-7.89,12.037-11.612       c-5.26,1.943-8.313,7.696-13.479,9.876c-4.571,1.929-9.792,0.681-14.588-0.59c-0.482-0.128-1.003-0.281-1.294-0.686       c-0.546-0.758,0.05-1.796,0.661-2.503c2.793-3.229,6.251-5.812,9.239-8.862c2.631-2.686,4.856-5.695,6.837-8.881       c-6.871,7.895-14.096,15.364-23.051,20.794c-1.238,0.751-1.928,2.244-1.45,3.611c0.513,1.47,1.976,1.592,3.257,1.624       c5.974,0.152,11.954,0.048,17.919-0.311c0.117,1.776-2.362,2.862-1.521,4.431c0.434,0.808,1.524,0.925,2.44,0.942       c10.994,0.206,22.051,0.408,32.925-1.23c1.867-0.281,3.776-0.616,5.627-0.246c2.86,0.571,5.119,2.713,7.763,3.945       c2.267,1.056,4.784,1.425,7.259,1.783c7.88,1.138,15.924,2.273,23.759,0.855c0.784-0.142,1.601-0.308,2.364-0.08       c1.306,0.39,2.002,1.758,2.796,2.866c2.742,3.826,13.099,4.034,17.368,2.05c0,6.061-7.919,6.242-8.945,8.992       c-0.452,1.211,0.381,2.525,1.665,2.673l17.661,0.249c-1.357,5.533-7.737,8.123-10.335,12.109       c-2.623,4.025-2.97,9.118-1.773,13.771c0.34,1.321,0.726,2.722,1.739,3.638c1.109,1.002,2.711,1.192,4.201,1.302       c6.461,0.475,12.967,0.337,19.403-0.411c2.904-0.338,5.913-0.79,8.7,0.096c2.716,0.864,4.911,2.91,7.572,3.929       c4.889,1.872,10.389,0.007,15.589,0.614c3.915,0.458,7.849,2.026,11.715,3.4c-1.213-0.623-2.379-1.339-3.477-2.148       C342.737,246.36,346.889,243.566,346.512,239.757z"
   id="path23" />&#10;				</g>&#10;				<path
   fill="#BDB48D"
   d="M204.091,140.16c-4.396,4.204-9.219,8.208-12.002,13.617c-1.179,2.291-1.964,4.792-3.401,6.931      c-2.735,4.072-7.696,6.653-9.203,11.32c-0.129,0.399-0.168,0.951,0.214,1.125c0.228,0.104,0.492,0.007,0.721-0.095      c6.297-2.805,10.315-8.993,15.703-13.293c1.9-1.516,4.002-2.823,5.577-4.675c2.021-2.377,3.062-5.526,5.353-7.644      c1.953-1.805,4.622-2.672,6.606-4.442c1.216-1.085,2.169-2.5,3.258-3.715c1.528-1.705,4.256,0.235,3.168,2.25      c-0.104,0.193-0.222,0.378-0.351,0.55c-1.09,1.455-2.76,2.332-4.228,3.405c-7.481,5.466-9.522,15.789-15.686,22.707      c-0.741,0.831-1.563,1.648-1.922,2.702s-0.069,2.435,0.946,2.893c0.499,0.225,1.083,0.189,1.608,0.034      c1.267-0.374,2.242-1.362,3.176-2.296c0.94-0.939,1.971-1.899,3.274-2.165c0.825-0.169,1.711,0.056,2.352,0.602      c0.909,0.775,0.718,1.603,0.557,2.399c-0.65,3.2-0.858,6.49-0.616,9.746c0.035,0.465,0.093,0.964,0.405,1.31      c0.577,0.639,1.659,0.382,2.341-0.143c3.184-2.454,1.472-7.807,3.594-11.221c0.511-0.822,1.226-1.493,1.849-2.234      c1.922-2.286,2.957-5.3,2.843-8.285c-0.029-0.768-0.126-1.568,0.164-2.279c0.211-0.517,0.607-0.933,0.993-1.336      c1.549-1.613,3.099-3.226,4.648-4.839c0.931-0.241,1.432,1.119,1.233,2.061c-0.199,0.942-0.606,2.059,0.055,2.761      c0.547,0.582,1.482,0.493,2.086-0.029c0.909-0.786,1.038-1.983,1.362-3.069c0.874-2.937,3.231-5.193,5.291-7.395      c0.544-0.581,1.247-1.021,2.037-1.113c2.308-0.267,2.931,2.043,2.404,3.697c-0.408,1.28-1.301,2.344-1.885,3.554      c-1.527,3.169-0.803,6.977-1.837,10.34c-0.775,2.52-2.545,4.886-2.201,7.5c0.219,1.662,1.278,3.101,1.656,4.735      c0.414,1.787-0.015,3.647-0.06,5.48c-0.045,1.833,0.468,3.915,2.078,4.793c1.641,0.894,3.678,0.162,5.312-0.745      c1.634-0.907,3.327-2.024,5.189-1.869c1.437,0.12,2.812,1.003,4.228,0.73c0.908-0.175,1.653-0.8,2.355-1.402      c1.042-0.895,2.083-1.79,3.125-2.685c0.501-0.431,1.017-0.88,1.299-1.477c0.949-2.008-1.109-4.042-1.967-6.091      c-1.313-3.137,0.287-6.802-0.516-10.107c-0.393-1.617-1.345-3.065-1.655-4.7c-0.725-3.824,2.186-7.575,1.723-11.44      c-0.564-4.707-5.715-7.476-7.524-11.859c-0.477-1.156-0.724-2.433-1.47-3.437c-0.617-0.83-1.517-1.394-2.306-2.062      c-3.033-2.566-4.358-6.582-5.352-10.428c-0.711-2.75-1.618-6.379-4.918-5.409c-3.006,0.883-6.021,3.051-8.548,4.842      c-5.504,3.903-10.252,8.75-14.926,13.584C209.593,134.646,206.906,137.467,204.091,140.16z"
   id="path24" />&#10;				<path
   fill="#505244"
   d="M276.902,185.966c-1.808-5.625-7.261-9.505-9.034-15.141c-0.662-2.104-0.775-4.365-1.58-6.418      c-0.532-1.356-1.352-2.586-1.876-3.945c-0.773-2.005-0.868-4.198-0.955-6.345c-0.034-0.834-0.061-1.703,0.28-2.465      s1.171-1.375,1.983-1.182c0.455,0.108,0.819,0.439,1.156,0.763c1.887,1.808,3.633,3.759,5.273,5.794      c0.547,0.679,1.097,1.38,1.833,1.847c0.624,0.396,1.346,0.601,2.057,0.801c2.445,0.687,4.907,1.378,7.437,1.595      c1.722,0.148,3.47,0.077,5.161,0.433c2.727,0.573,5.108,2.213,7.222,4.029c2.113,1.816,4.049,3.851,6.331,5.45      c0.756,0.53,1.612,1.1,1.816,2c0.13,0.576-0.042,1.179-0.287,1.717c-1.316,2.896-4.457,4.406-6.851,6.501      c-2.71,2.372-4.523,5.586-6.904,8.289c-1.919,2.179-5.653,5.31-8.858,4.803C277.692,193.952,277.712,188.486,276.902,185.966z"
   id="path25" />&#10;				<path
   fill="#505244"
   d="M247.378,121.597c1.477,2.622,2.966,5.262,4.919,7.551c2.998,3.514,7.083,6.206,9.109,10.357      c0.877,1.797,1.333,3.811,2.493,5.44c1.183,1.662,2.982,2.759,4.73,3.811c2.923,1.758,5.845,3.516,8.768,5.274      c2.361,1.42,4.776,2.862,7.467,3.45c1.442,0.315,2.925,0.376,4.385,0.592c4.641,0.686,9.025,2.996,12.215,6.435      c1.583,1.707,3.481,3.901,5.73,3.299c1.386-0.371,2.253-1.708,2.988-2.94c0.289-0.485,0.586-0.996,0.611-1.56      c0.019-0.444-0.135-0.881-0.348-1.272c-1.344-2.473-4.544-3.048-7.256-3.802c-2.76-0.767-5.373-1.98-7.968-3.195      c-7.322-3.429-12.719-6.714-19.98-10.27c-2.505-1.227-5.13-3.643-7.252-5.452c-1.349-1.15-3.945-4.22-5.089-5.574      c-1.913-2.264-3.917-4.786-5.331-7.391c-1.147-2.113-2.228-1.522-3.606-3.493c-1.744-2.496-4.276-4.311-6.758-6.076      c-0.947-0.673-3.295-2.187-2.636-0.166C245.122,118.305,246.502,120.041,247.378,121.597z"
   id="path26" />&#10;				<g
   id="g30">&#10;					<path
   fill="#A49B79"
   d="M431.267,265.466c0.014,0.002,0.029,0.004,0.043,0.007c-0.019-0.006-0.039-0.011-0.059-0.018       C431.255,265.461,431.265,265.457,431.267,265.466z"
   id="path27" />&#10;					<path
   fill="#404333"
   d="M431.199,265.44c0.017,0.005,0.035,0.01,0.052,0.016C431.239,265.44,431.224,265.433,431.199,265.44z"
   id="path28" />&#10;					<path
   fill="#A49B79"
   d="M326.117,165.709c0.153,0.985-0.497,1.896-1.112,2.681c-3.44,4.393-6.88,8.786-10.32,13.179       c1.568,0.061,2.827-1.222,3.828-2.43c7.21-8.694,12.783-18.891,21.72-25.884c0.817-0.639,1.876-0.963,2.895-0.771       c2.65,0.501,2.661,3.611,3.356,5.923c0.529,1.76,1.674,3.383,1.66,5.221c-0.01,1.263-0.572,2.447-1.122,3.584       c-2.891,5.968-5.783,11.936-8.674,17.905c3.36-5.408,6.72-10.815,10.08-16.223c1.142-1.838,2.519-3.858,5.007-3.65       c1.481,0.123,2.753,1.092,3.494,2.38c1.542,2.678,0.996,5.71,0.67,8.616c-0.807,7.188-0.19,14.533,1.806,21.486l1.863-3.19       c1.077,5.009,1.213,10.218,0.399,15.276c-0.359,2.231-0.743,4.892,0.373,6.669c0.329,0.524,1.132,0.414,1.348-0.165       l5.898-15.866c0.095-0.255,0.202-0.526,0.429-0.677c0.451-0.3,1.041,0.047,1.467,0.382c9.293,7.309,18.88,14.97,24.165,25.546       c3.12,6.242,4.882,13.646,9.973,18.236c0.6,0.541,1.549,0.401,1.984-0.28c0.072-0.113,0.209-0.158,0.337-0.118       c0.373,0.117,0.761,0.184,1.152,0.202c0.75,0.034,1.185,0.856,0.772,1.483c-1.969,2.993-6.752,4.242-8.234,7.725       c4.861-2.055,8.756-5.961,11.661-10.367c3.191-4.839,5.303-10.302,7.496-15.657c0.327-0.798,0.949-1.473,1.768-1.744       c1.432-0.472,2.237,0.573,2.589,1.619c0.921,2.74-0.354,6.103,1.337,8.448c0.624,0.866,1.566,1.438,2.482,1.987       c1.657,0.993,3.314,1.986,4.971,2.979c1.461,0.876,2.948,1.772,4.073,3.051s1.851,3.027,1.5,4.694       c-0.322,1.532-1.504,2.856-1.478,4.421c0.054,3.353,5.374,4.858,4.522,8.594c-0.236,1.036-0.962,1.901-1.873,2.448       c-3.067,1.842-6.74,0.597-9.877,1.809c0.231,0.075,0.467,0.136,0.699,0.21c0.025-0.007,0.04,0.001,0.052,0.016       c0.02,0.006,0.039,0.011,0.059,0.018c2.539,0.394,5.137,0.783,7.661,0.308c2.539-0.477,5.035-2.003,5.959-4.416       c0.393-1.027,0.438-2.302-0.297-3.12c7.613,0.665,15.293,0.546,22.882-0.354c0.941-0.112,2.08-0.401,2.318-1.318       c0.125-0.481-0.057-0.985-0.264-1.438c-2.486-5.454-8.492-8.407-14.317-9.818c-2.61-0.632-5.378-1.089-7.523-2.704       c-2.265-1.705-3.472-4.423-4.956-6.839c-1.484-2.416-3.634-5.103-6.469-5.103l-9.498-6.95       c-0.475-1.226-2.115-1.797-3.407-1.552c-1.292,0.245-2.361,1.2-3.049,2.322c-1.291,2.104-1.559,4.893-3.505,6.411       l-12.973-12.741c-1.706-2.358-3.842-4.406-6.101-6.241c-8.039-6.53-19.202-9.425-25.066-17.963       c-2.955-4.302-4.161-9.522-5.72-14.503c-1.56-4.981-3.713-10.09-7.888-13.222c-2.167-1.626-4.864-2.716-6.337-4.989       c-0.712-1.098-1.069-2.382-1.449-3.634c-0.994-3.277-2.208-6.486-3.632-9.6c-0.21-0.46-0.466-0.957-0.935-1.144       c-0.41-0.163-0.872-0.043-1.292,0.096c-1.056,0.349-2.089,0.78-3.003,1.413c-3.889,2.691-6.809,6.493-10.283,9.679       c-2.743,2.515-6.057,4.705-9.672,5.288C324.068,163.689,325.879,164.177,326.117,165.709z"
   id="path29" />&#10;					<path
   fill="#404333"
   d="M326.117,165.709c0.153,0.985-0.497,1.896-1.112,2.681c-3.44,4.393-6.88,8.786-10.32,13.179       c1.568,0.061,2.827-1.222,3.828-2.43c7.21-8.694,12.783-18.891,21.72-25.884c0.817-0.639,1.876-0.963,2.895-0.771       c2.65,0.501,2.661,3.611,3.356,5.923c0.529,1.76,1.674,3.383,1.66,5.221c-0.01,1.263-0.572,2.447-1.122,3.584       c-2.891,5.968-5.783,11.936-8.674,17.905c3.36-5.408,6.72-10.815,10.08-16.223c1.142-1.838,2.519-3.858,5.007-3.65       c1.481,0.123,2.753,1.092,3.494,2.38c1.542,2.678,0.996,5.71,0.67,8.616c-0.807,7.188-0.19,14.533,1.806,21.486l1.863-3.19       c1.077,5.009,1.213,10.218,0.399,15.276c-0.359,2.231-0.743,4.892,0.373,6.669c0.329,0.524,1.132,0.414,1.348-0.165       l5.898-15.866c0.095-0.255,0.202-0.526,0.429-0.677c0.451-0.3,1.041,0.047,1.467,0.382c9.293,7.309,18.88,14.97,24.165,25.546       c3.12,6.242,4.882,13.646,9.973,18.236c0.6,0.541,1.549,0.401,1.984-0.28c0.072-0.113,0.209-0.158,0.337-0.118       c0.373,0.117,0.761,0.184,1.152,0.202c0.75,0.034,1.185,0.856,0.772,1.483c-1.969,2.993-6.752,4.242-8.234,7.725       c4.861-2.055,8.756-5.961,11.661-10.367c3.191-4.839,5.303-10.302,7.496-15.657c0.327-0.798,0.949-1.473,1.768-1.744       c1.432-0.472,2.237,0.573,2.589,1.619c0.921,2.74-0.354,6.103,1.337,8.448c0.624,0.866,1.566,1.438,2.482,1.987       c1.657,0.993,3.314,1.986,4.971,2.979c1.461,0.876,2.948,1.772,4.073,3.051s1.851,3.027,1.5,4.694       c-0.322,1.532-1.504,2.856-1.478,4.421c0.054,3.353,5.374,4.858,4.522,8.594c-0.236,1.036-0.962,1.901-1.873,2.448       c-3.067,1.842-6.74,0.597-9.877,1.809c0.231,0.075,0.467,0.136,0.699,0.21c0.025-0.007,0.04,0.001,0.052,0.016       c0.02,0.006,0.039,0.011,0.059,0.018c2.539,0.394,5.137,0.783,7.661,0.308c2.539-0.477,5.035-2.003,5.959-4.416       c0.393-1.027,0.438-2.302-0.297-3.12c7.613,0.665,15.293,0.546,22.882-0.354c0.941-0.112,2.08-0.401,2.318-1.318       c0.125-0.481-0.057-0.985-0.264-1.438c-2.486-5.454-8.492-8.407-14.317-9.818c-2.61-0.632-5.378-1.089-7.523-2.704       c-2.265-1.705-3.472-4.423-4.956-6.839c-1.484-2.416-3.634-5.103-6.469-5.103l-9.498-6.95       c-0.475-1.226-2.115-1.797-3.407-1.552c-1.292,0.245-2.361,1.2-3.049,2.322c-1.291,2.104-1.559,4.893-3.505,6.411       l-12.973-12.741c-1.706-2.358-3.842-4.406-6.101-6.241c-8.039-6.53-19.202-9.425-25.066-17.963       c-2.955-4.302-4.161-9.522-5.72-14.503c-1.56-4.981-3.713-10.09-7.888-13.222c-2.167-1.626-4.864-2.716-6.337-4.989       c-0.712-1.098-1.069-2.382-1.449-3.634c-0.994-3.277-2.208-6.486-3.632-9.6c-0.21-0.46-0.466-0.957-0.935-1.144       c-0.41-0.163-0.872-0.043-1.292,0.096c-1.056,0.349-2.089,0.78-3.003,1.413c-3.889,2.691-6.809,6.493-10.283,9.679       c-2.743,2.515-6.057,4.705-9.672,5.288C324.068,163.689,325.879,164.177,326.117,165.709z"
   id="path30" />&#10;				</g>&#10;				<g
   id="g34">&#10;					<path
   fill="#A49B79"
   d="M334.592,282.965c-0.476,1.454-0.209,3.278,1.048,4.149c0.98,0.679,2.272,0.625,3.461,0.545       c2.175-0.147,4.349-0.294,6.524-0.441c2.082-0.141,4.251-0.308,6.044-1.375c3.053-1.818,4.259-5.772,7.205-7.759       c-2.165,3.612-4.33,7.224-6.495,10.837c-0.441,0.735-0.896,1.605-0.594,2.407c0.409,1.084,1.846,1.254,3.004,1.244       c6.002-0.048,12.004-0.095,18.006-0.143c0.887-0.007,1.82-0.026,2.587-0.47c1.644-0.951,1.736-3.277,1.41-5.148       c-0.671-3.854-2.119-8.254,0.279-11.345c1.339-1.725,3.655-2.607,4.652-4.549c0.65-1.266,0.616-2.76,0.568-4.182       c-0.076-2.22-0.152-4.44-0.228-6.66c-0.078-2.269-0.213-4.704-1.606-6.496c-0.929-1.195-2.357-2.008-2.997-3.379       c-1.16-2.486,0.767-5.202,1.89-7.705c1.421-3.169,1.551-6.896,0.354-10.157c2.208,0.275,3.763,2.362,4.48,4.468       c0.718,2.107,0.877,4.385,1.736,6.439c1.675,4.007,5.66,6.469,9.406,8.665c3.027,1.775,6.053,3.55,9.08,5.325       c2.12,1.243,4.303,2.51,6.729,2.897c2.155,0.344,4.355-0.031,6.537,0.024c4.886,0.123,9.434,2.375,13.797,4.577       c0.092,0.046,0.184,0.093,0.276,0.139c2.834-0.581,5.963,0.153,8.632-1.45c0.911-0.547,1.636-1.413,1.873-2.448       c0.852-3.736-4.468-5.24-4.522-8.594c-0.025-1.565,1.156-2.889,1.478-4.421c0.351-1.667-0.375-3.415-1.5-4.694       s-2.612-2.175-4.073-3.051c-1.657-0.993-3.314-1.986-4.971-2.979c-0.916-0.549-1.858-1.121-2.482-1.987       c-1.69-2.345-0.416-5.708-1.337-8.448c-0.352-1.046-1.157-2.092-2.589-1.619c-0.819,0.27-1.441,0.946-1.768,1.744       c-2.193,5.354-4.305,10.818-7.496,15.657c-2.905,4.406-6.801,8.312-11.661,10.367c1.482-3.483,6.265-4.732,8.234-7.725       c0.413-0.627-0.021-1.449-0.772-1.483c-0.391-0.018-0.779-0.085-1.152-0.202c-0.128-0.04-0.264,0.005-0.337,0.118       c-0.435,0.681-1.384,0.821-1.984,0.28c-5.091-4.59-6.853-11.993-9.973-18.236c-5.286-10.576-14.872-18.237-24.165-25.546       c-0.426-0.335-1.015-0.682-1.467-0.382c-0.226,0.15-0.334,0.422-0.429,0.677l-5.898,15.866       c-0.215,0.58-1.019,0.689-1.348,0.165c-1.116-1.777-0.732-4.438-0.373-6.669c0.814-5.058,0.678-10.267-0.399-15.276       l-1.863,3.19c-1.996-6.953-2.613-14.298-1.806-21.486c0.326-2.907,0.872-5.938-0.67-8.616c-0.741-1.288-2.013-2.257-3.494-2.38       c-2.489-0.208-3.865,1.812-5.007,3.65c-3.36,5.408-6.72,10.815-10.08,16.223c2.891-5.968,5.783-11.936,8.674-17.905       c0.551-1.136,1.113-2.321,1.122-3.584c0.014-1.838-1.131-3.461-1.66-5.221c-0.695-2.311-0.706-5.422-3.356-5.923       c-1.019-0.193-2.079,0.132-2.895,0.771c-8.937,6.992-14.509,17.189-21.72,25.884c-1.002,1.208-2.26,2.491-3.828,2.43       c3.44-4.393,6.88-8.786,10.32-13.179c0.615-0.785,1.265-1.696,1.112-2.681c-0.238-1.532-2.049-2.02-3.625-2.368       c-0.691,0.111-1.392,0.171-2.103,0.155c-2.404-0.052-4.672-0.872-6.868-1.905c-0.711,3.339-2.712,6.508-4.656,9.415       c-1.452,2.171-2.904,4.342-4.356,6.512c-2.165,3.236-4.353,6.501-7.173,9.185c-4.504,4.289-10.651,7.17-13.432,12.733       c-0.811,1.623-1.304,3.429-2.424,4.856c-1.913,2.436-5.539,3.653-6.239,6.67c3.455,0.069,6.91,0.137,10.365,0.206       c1.975,0.039,4.037,0.06,5.811-0.809c1.407-0.689,2.496-1.875,3.551-3.034c6.884-7.567,13.767-15.134,20.651-22.701       c-6.9,9.102-13.801,18.205-20.701,27.307c-3.561,4.698-7.173,9.448-11.781,13.124c-2.163,1.726-4.741,4.776-2.788,6.735       c0.489,0.49,1.191,0.756,1.586,1.324c1.007,1.448-0.656,3.265-0.867,5.016c-0.211,1.746,1.162,3.371,2.786,4.043       c1.625,0.673,3.447,0.613,5.204,0.542c5.519-0.222,11.037-0.444,16.556-0.666c1.513-0.061,3.11-0.148,4.372-0.984       c1.289-0.854,1.995-2.333,2.619-3.748c5.755-13.038,10.038-27.216,19.736-37.658c-7.121,12.173-13.132,24.996-17.935,38.256       c-0.542,1.498-1.057,3.217-0.305,4.621c0.814,1.518,2.736,1.985,4.438,2.25c3.884,0.604,7.806,0.969,11.735,1.091       c3.039,0.094,6.202,0.017,8.93-1.326c2.728-1.343,4.89-4.286,4.4-7.287c-0.312-1.916-1.628-3.596-1.733-5.535       c-0.158-2.912,2.348-5.16,4.337-7.293c8.05-8.635,9.801-21.22,11.171-32.945c-0.387,6.401-0.774,12.802-1.161,19.203       c-0.256,4.232-0.59,8.701-2.998,12.19c-2.911,4.217-8.847,7.418-8.001,12.472c0.253,1.512,1.142,2.875,1.293,4.401       c0.377,3.809-3.775,6.603-4.487,10.364c1.098,0.809,2.264,1.525,3.477,2.148c5.506,1.957,10.873,3.519,15.844,0.908       c-3.51,6.599-12.372,12.964-19.816,20.152c-1.381,2.014-2.85,3.968-4.426,5.833       C336.117,280.33,335.068,281.511,334.592,282.965z"
   id="path31" />&#10;					<path
   fill="#A49B79"
   d="M386.974,304.913c6.729,0.444,13.459,0.888,20.189,1.333c2.355,0.155,5.623-0.501,5.552-2.86       c4.384,1.881,9.405,2.241,14.012,1.004c0.325-2.582-1.855-4.805-4.121-6.083c-2.267-1.278-4.876-2.129-6.598-4.08       c-2.4-2.718-2.377-6.691-2.067-10.356c-0.184,0.084-0.363,0.188-0.529,0.297c-5.876,3.846-11.303,8.593-17.91,10.974       c-0.507,0.183-1.066,0.334-1.608,0.374c-2.61,2.781-5.22,5.562-7.83,8.344c-0.214,0.228-0.431,0.468-0.629,0.72       c0.039,0.021,0.071,0.049,0.111,0.067C385.989,304.846,386.487,304.881,386.974,304.913z"
   id="path32" />&#10;					<path
   fill="#A49B79"
   d="M439.666,308.882c4.202,0.823,8.537,0.417,12.799,0.008c1.531-0.147,3.292-0.434,4.069-1.761       c0.466-0.797,0.456-1.808,0.937-2.596c0.517-0.847,1.515-1.299,2.067-2.123c1.295-1.93-0.453-4.596,0.192-6.829       c0.545-1.888,2.691-3.057,3.009-4.997c0.111-0.673-0.013-1.302-0.289-1.885c-3.3-3.177-6.227-8.257-10.1-6.33       c-6.298-6.657-13.464-12.097-21.377-16.718c0.02-0.078,0.145-0.189,0.225-0.211c-0.232-0.074-0.468-0.134-0.699-0.21       c0.407-0.157,0.823-0.272,1.245-0.358c-0.092-0.046-0.184-0.093-0.276-0.139c-4.363-2.203-8.911-4.454-13.797-4.577       c-2.182-0.055-4.382,0.32-6.537-0.024c-2.427-0.387-4.61-1.654-6.729-2.897c-3.027-1.775-6.053-3.55-9.08-5.325       c-3.746-2.197-7.731-4.659-9.406-8.665c-0.858-2.053-1.018-4.332-1.736-6.439c-0.718-2.107-2.272-4.194-4.48-4.468       c1.197,3.261,1.067,6.987-0.354,10.157c-1.123,2.503-3.05,5.219-1.89,7.705c0.64,1.371,2.068,2.184,2.997,3.379       c1.393,1.792,1.529,4.227,1.606,6.496c0.076,2.22,0.152,4.44,0.228,6.66c0.049,1.422,0.082,2.916-0.568,4.182       c-0.997,1.942-3.313,2.824-4.652,4.549c-2.398,3.091-0.95,7.491-0.279,11.345c0.326,1.871,0.234,4.197-1.41,5.148       c-0.768,0.444-1.7,0.463-2.587,0.47c-6.002,0.048-12.004,0.095-18.006,0.143c-1.158,0.009-2.595-0.161-3.004-1.244       c-0.303-0.802,0.153-1.672,0.594-2.407c2.165-3.612,4.33-7.224,6.495-10.837c-2.946,1.987-4.152,5.942-7.205,7.759       c-1.793,1.067-3.962,1.234-6.044,1.375c-2.175,0.147-4.349,0.294-6.524,0.441c-1.189,0.08-2.482,0.134-3.461-0.545       c-1.257-0.871-1.524-2.695-1.048-4.149s1.525-2.635,2.512-3.804c1.576-1.865,3.045-3.819,4.426-5.833       c-3.635,3.511-6.934,7.217-9.102,11.245c-0.324,0.603-0.502,1.294-0.408,1.971c0.22,1.571,1.646,1.903,2.898,2.085       c4.037,0.587,8.136,0.751,12.208,0.488c0.489-0.032,0.844,0.449,0.663,0.904l-0.853,2.143c-0.413,1.037,0.337,2.168,1.453,2.19       l45.737,0.911c-0.078,0.083-0.156,0.166-0.234,0.249c0.542-0.039,1.101-0.191,1.608-0.374       c6.607-2.381,12.034-7.128,17.91-10.974c0.166-0.109,0.345-0.213,0.529-0.297c-0.31,3.665-0.333,7.638,2.067,10.356       c1.722,1.95,4.332,2.802,6.598,4.08c2.267,1.278,4.447,3.501,4.121,6.083c-4.608,1.237-9.628,0.878-14.012-1.004       c0.071,2.359-3.196,3.016-5.552,2.86c-6.729-0.444-13.459-0.888-20.189-1.333c-0.487-0.032-0.985-0.067-1.43-0.266       c-0.041-0.018-0.072-0.047-0.111-0.067c-0.639,0.812-1.068,1.751-0.454,2.866c0.557,1.012,1.706,1.552,2.861,1.498       l31.593-1.472c3.289-0.153,6.669-0.294,9.787,0.765c0.036,0.012,0.07,0.03,0.106,0.043c0.62-0.247,1.255-0.449,1.918-0.562       C434.058,307.239,436.865,308.334,439.666,308.882z"
   id="path33" />&#10;					<path
   fill="#404333"
   d="M439.666,308.882c4.202,0.823,8.537,0.417,12.799,0.008c1.531-0.147,3.292-0.434,4.069-1.761       c0.466-0.797,0.456-1.808,0.937-2.596c0.517-0.847,1.515-1.299,2.067-2.123c1.295-1.93-0.453-4.596,0.192-6.829       c0.545-1.888,2.691-3.057,3.009-4.997c0.111-0.673-0.013-1.302-0.289-1.885c-3.3-3.177-6.227-8.257-10.1-6.33       c-6.298-6.657-13.464-12.097-21.377-16.718c0.02-0.078,0.145-0.189,0.225-0.211c-0.232-0.074-0.468-0.134-0.699-0.21       c0.407-0.157,0.823-0.272,1.245-0.358c-0.092-0.046-0.184-0.093-0.276-0.139c-4.363-2.203-8.911-4.454-13.797-4.577       c-2.182-0.055-4.382,0.32-6.537-0.024c-2.427-0.387-4.61-1.654-6.729-2.897c-3.027-1.775-6.053-3.55-9.08-5.325       c-3.746-2.197-7.731-4.659-9.406-8.665c-0.858-2.053-1.018-4.332-1.736-6.439c-0.718-2.107-2.272-4.194-4.48-4.468       c1.197,3.261,1.067,6.987-0.354,10.157c-1.123,2.503-3.05,5.219-1.89,7.705c0.64,1.371,2.068,2.184,2.997,3.379       c1.393,1.792,1.529,4.227,1.606,6.496c0.076,2.22,0.152,4.44,0.228,6.66c0.049,1.422,0.082,2.916-0.568,4.182       c-0.997,1.942-3.313,2.824-4.652,4.549c-2.398,3.091-0.95,7.491-0.279,11.345c0.326,1.871,0.234,4.197-1.41,5.148       c-0.768,0.444-1.7,0.463-2.587,0.47c-6.002,0.048-12.004,0.095-18.006,0.143c-1.158,0.009-2.595-0.161-3.004-1.244       c-0.303-0.802,0.153-1.672,0.594-2.407c2.165-3.612,4.33-7.224,6.495-10.837c-2.946,1.987-4.152,5.942-7.205,7.759       c-1.793,1.067-3.962,1.234-6.044,1.375c-2.175,0.147-4.349,0.294-6.524,0.441c-1.189,0.08-2.482,0.134-3.461-0.545       c-1.257-0.871-1.524-2.695-1.048-4.149s1.525-2.635,2.512-3.804c1.576-1.865,3.045-3.819,4.426-5.833       c-3.635,3.511-6.934,7.217-9.102,11.245c-0.324,0.603-0.502,1.294-0.408,1.971c0.22,1.571,1.646,1.903,2.898,2.085       c4.037,0.587,8.136,0.751,12.208,0.488c0.489-0.032,0.844,0.449,0.663,0.904l-0.853,2.143c-0.413,1.037,0.337,2.168,1.453,2.19       l45.737,0.911c-0.078,0.083-0.156,0.166-0.234,0.249c0.542-0.039,1.101-0.191,1.608-0.374       c6.607-2.381,12.034-7.128,17.91-10.974c0.166-0.109,0.345-0.213,0.529-0.297c-0.31,3.665-0.333,7.638,2.067,10.356       c1.722,1.95,4.332,2.802,6.598,4.08c2.267,1.278,4.447,3.501,4.121,6.083c-4.608,1.237-9.628,0.878-14.012-1.004       c0.071,2.359-3.196,3.016-5.552,2.86c-6.729-0.444-13.459-0.888-20.189-1.333c-0.487-0.032-0.985-0.067-1.43-0.266       c-0.041-0.018-0.072-0.047-0.111-0.067c-0.639,0.812-1.068,1.751-0.454,2.866c0.557,1.012,1.706,1.552,2.861,1.498       l31.593-1.472c3.289-0.153,6.669-0.294,9.787,0.765c0.036,0.012,0.07,0.03,0.106,0.043c0.62-0.247,1.255-0.449,1.918-0.562       C434.058,307.239,436.865,308.334,439.666,308.882z"
   id="path34" />&#10;				</g>&#10;				<g
   id="g37">&#10;					<path
   fill="#A49B79"
   d="M500.037,316.54c0.461,0.517,0.543,1.263,0.854,1.882c0.746,1.484,2.602,1.963,4.244,2.208       c17.363,2.595,34.937-2.984,52.484-2.432c2.256,0.071,4.636,0.218,6.645-0.812c2.009-1.03,3.344-3.75,2.071-5.614       c-0.808-1.183-2.318-1.613-3.693-2.015c-8.723-2.552-16.783-7.334-23.203-13.767c-1.052-1.054-2.101-2.18-3.47-2.763       c-1.37-0.583-3.175-0.454-4.084,0.724c-0.524,0.679-0.664,1.569-0.787,2.417c-0.247,1.703-0.494,3.405-0.741,5.108       c-0.157,1.083-0.328,2.204-0.928,3.119c-1.143,1.746-3.564,2.243-5.603,1.801s-3.826-1.62-5.652-2.631       c-3.48-1.926-7.262-3.303-11.166-4.065c-1.898-0.37-4.577-0.048-4.768,1.876c-0.086,0.869,0.447,1.67,1.009,2.338       c5.093,6.053,14.341,8.103,17.976,15.128c-8.062-5.509-16.359-10.674-24.862-15.473c-1.925-1.087-4.022-2.19-6.221-1.957       c-4.829,0.512-7.577,7.071-12.432,6.947c1.422-2.914,5.97-3.804,6.394-7.018c0.318-2.408-2.038-4.323-4.312-5.178       c-2.274-0.855-4.865-1.282-6.533-3.048c-0.255-0.27-0.478-0.553-0.69-0.839c-3.271-0.443-6.56-0.863-9.074-2.852       c-0.353-0.279-0.699-0.596-1.042-0.926c0.276,0.584,0.4,1.212,0.289,1.885c-0.318,1.94-2.464,3.108-3.009,4.997       c-0.645,2.233,1.103,4.899-0.192,6.829c-0.552,0.824-1.55,1.276-2.067,2.123c-0.481,0.788-0.471,1.799-0.937,2.596       c-0.777,1.327-2.538,1.614-4.069,1.761c-4.263,0.409-8.597,0.816-12.799-0.008c-2.801-0.549-5.608-1.643-8.422-1.165       c-0.663,0.113-1.298,0.314-1.918,0.562c4.052,1.415,7.197,4.672,11.054,6.566c4.681,2.298,10.088,2.442,15.301,2.541       c0.766,0.015,1.531,0.029,2.296,0.044c13.13-0.526,26.26-1.052,39.39-1.578C498.318,315.813,499.404,315.829,500.037,316.54z"
   id="path35" />&#10;					<path
   fill="#A49B79"
   d="M502.623,322.005c19.757-0.359,39.514-0.718,59.271-1.077c1.954-0.036,4.006-0.097,5.692-1.087       c1.685-0.989,2.8-3.241,1.868-4.958c6.093,0.747,12.262,0.865,18.379,0.354c1.081-0.09,1.561-1.423,0.756-2.149       c-7.048-6.359-16.412-9.737-25.445-12.905c-9.988-3.504-19.976-7.007-29.965-10.511c-1.718-0.603-3.594,0.435-3.951,2.221       c-1.095,5.476-3.7,11.003-8.926,10.991c-6.481-0.014-12.171-9.314-17.575-5.737c-1.147,0.759-1.999,2.047-3.34,2.357       c-1.753,0.406-3.422-1.053-5.221-1.092c-2.121-0.046-3.892,1.864-6.013,1.891c-2.83,0.037-4.49-3.045-6.656-4.868       c-2.44-2.053-5.677-2.517-8.93-2.957c0.212,0.286,0.435,0.568,0.69,0.839c1.668,1.766,4.259,2.193,6.533,3.048       c2.274,0.855,4.63,2.769,4.312,5.178c-0.424,3.214-4.972,4.105-6.394,7.018c4.855,0.124,7.603-6.435,12.432-6.947       c2.199-0.233,4.295,0.87,6.221,1.957c8.503,4.8,16.801,9.964,24.862,15.473c-3.635-7.026-12.883-9.075-17.976-15.128       c-0.562-0.668-1.095-1.47-1.009-2.338c0.191-1.924,2.87-2.247,4.768-1.876c3.904,0.762,7.686,2.139,11.166,4.065       c1.826,1.011,3.613,2.189,5.652,2.631s4.46-0.055,5.603-1.801c0.599-0.915,0.77-2.037,0.928-3.119       c0.247-1.703,0.494-3.405,0.741-5.108c0.123-0.849,0.263-1.739,0.787-2.417c0.91-1.178,2.715-1.307,4.084-0.724       c1.37,0.583,2.419,1.709,3.47,2.763c6.42,6.433,14.48,11.215,23.203,13.767c1.375,0.402,2.886,0.832,3.693,2.015       c1.272,1.865-0.062,4.584-2.071,5.614c-2.009,1.03-4.388,0.883-6.645,0.812c-17.547-0.552-35.121,5.027-52.484,2.432       c-1.642-0.245-3.499-0.724-4.244-2.208c-0.311-0.619-0.393-1.365-0.854-1.882c-0.633-0.711-1.719-0.727-2.67-0.689       c-13.13,0.526-26.26,1.052-39.39,1.578c12.863,0.245,25.727,0.49,38.591,0.734       C495.976,320.871,499.853,322.055,502.623,322.005z"
   id="path36" />&#10;					<path
   fill="#404333"
   d="M502.623,322.005c19.757-0.359,39.514-0.718,59.271-1.077c1.954-0.036,4.006-0.097,5.692-1.087       c1.685-0.989,2.8-3.241,1.868-4.958c6.093,0.747,12.262,0.865,18.379,0.354c1.081-0.09,1.561-1.423,0.756-2.149       c-7.048-6.359-16.412-9.737-25.445-12.905c-9.988-3.504-19.976-7.007-29.965-10.511c-1.718-0.603-3.594,0.435-3.951,2.221       c-1.095,5.476-3.7,11.003-8.926,10.991c-6.481-0.014-12.171-9.314-17.575-5.737c-1.147,0.759-1.999,2.047-3.34,2.357       c-1.753,0.406-3.422-1.053-5.221-1.092c-2.121-0.046-3.892,1.864-6.013,1.891c-2.83,0.037-4.49-3.045-6.656-4.868       c-2.44-2.053-5.677-2.517-8.93-2.957c0.212,0.286,0.435,0.568,0.69,0.839c1.668,1.766,4.259,2.193,6.533,3.048       c2.274,0.855,4.63,2.769,4.312,5.178c-0.424,3.214-4.972,4.105-6.394,7.018c4.855,0.124,7.603-6.435,12.432-6.947       c2.199-0.233,4.295,0.87,6.221,1.957c8.503,4.8,16.801,9.964,24.862,15.473c-3.635-7.026-12.883-9.075-17.976-15.128       c-0.562-0.668-1.095-1.47-1.009-2.338c0.191-1.924,2.87-2.247,4.768-1.876c3.904,0.762,7.686,2.139,11.166,4.065       c1.826,1.011,3.613,2.189,5.652,2.631s4.46-0.055,5.603-1.801c0.599-0.915,0.77-2.037,0.928-3.119       c0.247-1.703,0.494-3.405,0.741-5.108c0.123-0.849,0.263-1.739,0.787-2.417c0.91-1.178,2.715-1.307,4.084-0.724       c1.37,0.583,2.419,1.709,3.47,2.763c6.42,6.433,14.48,11.215,23.203,13.767c1.375,0.402,2.886,0.832,3.693,2.015       c1.272,1.865-0.062,4.584-2.071,5.614c-2.009,1.03-4.388,0.883-6.645,0.812c-17.547-0.552-35.121,5.027-52.484,2.432       c-1.642-0.245-3.499-0.724-4.244-2.208c-0.311-0.619-0.393-1.365-0.854-1.882c-0.633-0.711-1.719-0.727-2.67-0.689       c-13.13,0.526-26.26,1.052-39.39,1.578c12.863,0.245,25.727,0.49,38.591,0.734       C495.976,320.871,499.853,322.055,502.623,322.005z"
   id="path37" />&#10;				</g>&#10;				<path
   fill="#BDB48D"
   d="M300.885,187.344c-4.078,3.98-9.274,6.975-12.202,11.863c-0.376,0.627-0.634,1.591-0.004,1.962      c0.517,0.304,1.15-0.108,1.602-0.502c2.968-2.586,5.812-5.314,8.519-8.172c0.477-0.503,0.957-1.017,1.55-1.376      c0.624-0.377,1.34-0.564,2.036-0.78c3.285-1.018,6.337-2.778,8.863-5.112c-1.216,1.833-2.557,3.583-4.012,5.233      c1.932-1.074,3.659-2.515,5.061-4.224c1.374-1.675,3.106-3.859,5.171-3.202c0.273,0.876-0.138,1.806-0.565,2.618      c-4.805,9.143-12.713,16.289-18.073,25.118c-0.496,0.817-0.865,2.089-0.027,2.549c0.68,0.373,1.471-0.218,2.017-0.769      c7.061-7.12,13.801-14.559,20.191-22.288c1.249,0.833,1.014,2.718,0.534,4.14c-4.854,14.405-19.449,24.513-22.127,39.475      c1.054,0.355,2.055-0.604,2.757-1.466c7.952-9.772,15.939-19.595,22.252-30.497c1.186-2.049,2.328-4.155,3.94-5.889      c1.052-1.131,2.652-2.141,4.059-1.504c1.808,0.818,1.626,3.412,1.133,5.335c-1.068,4.166-2.209,8.313-3.35,12.46      c-0.562,2.043-1.124,4.086-1.686,6.13c-0.265,0.963-0.523,2.025-0.099,2.93c0.576,1.226,2.238,1.613,3.519,1.173      c1.281-0.44,2.251-1.484,3.113-2.529c1.944-2.356,3.636-4.92,5.038-7.633c0.921-1.782,1.743-3.665,3.144-5.1      c1.401-1.435,3.577-2.335,5.445-1.605c0.428,0.167,0.841,0.417,1.3,0.429c1.146,0.031,1.761-1.316,2.029-2.431      c0.939-3.902,1.354-7.931,1.23-11.943c-0.078-2.512-0.365-5.026-0.18-7.533c0.329-4.438,2.133-8.809,1.485-13.212      c-0.265-1.799-1.35-3.843-3.168-3.871c-1.707-0.027-2.843,1.724-3.506,3.298c-1.356,3.221-2.199,6.646-3.653,9.824      c-1.454,3.178-3.664,6.205-6.857,7.625c-0.458-7.931,5.388-14.779,7.168-22.52c0.143-0.622,0.259-1.275,0.099-1.892      c-0.199-0.764-0.79-1.364-1.084-2.097c-0.812-2.026,0.701-4.79-0.865-6.311c-0.966-0.939-2.638-0.71-3.7,0.119      c-1.062,0.829-1.671,2.093-2.283,3.294c-3.988,7.83-9.585,14.836-16.339,20.456c-1.787,1.487-3.761,2.924-6.061,3.263      c-0.561,0.083-1.262,0.025-1.507-0.486c-0.194-0.405,0.009-0.879,0.215-1.278c0.857-1.657,1.817-3.261,2.872-4.799      c0.991-1.446,2.079-2.856,2.702-4.494c0.868-2.281,0.485-6.542-2.787-6.626c-2.63-0.068-3.507,4.334-4.316,6.185      C308.833,176.728,305.654,182.69,300.885,187.344z"
   id="path38" />&#10;				<path
   fill="#BDB48D"
   d="M363.112,222.751c-0.323,0.909-0.661,1.845-1.31,2.559c-0.649,0.714-1.695,1.158-2.599,0.821      c-0.159-1.257-0.318-2.515-0.476-3.772c-0.023-0.182-0.059-0.387-0.21-0.492c-0.181-0.125-0.428-0.043-0.626,0.053      c-1.555,0.75-2.796,2.126-3.381,3.75c-0.418,1.159-0.538,2.476-1.331,3.419c-0.515,0.613-1.259,0.991-1.817,1.566      c-1.729,1.779-1.176,4.681-0.507,7.07c0.35,1.248,0.7,2.496,1.049,3.744c0.294,1.048,0.675,2.208,1.639,2.712      c0.824,0.431,1.864,0.23,2.65-0.268c0.786-0.497,1.371-1.249,1.939-1.985c1.491-1.93,2.981-3.86,4.472-5.79      c0.304-0.394,0.627-0.803,1.083-1.004c0.389-0.172,0.831-0.17,1.256-0.154c2.867,0.109,6.035,0.669,8.369-1      c1.392-0.996,2.185-2.602,3.19-3.988c1.005-1.386,2.504-2.681,4.207-2.512c1.948,0.194,3.193,2.158,4.949,3.025      c1.697,0.838,3.791,0.605,5.439,1.535c0.564,0.318,1.058,0.764,1.658,1.006c0.601,0.242,1.387,0.215,1.783-0.297      c0.139-0.18,0.215-0.401,0.269-0.622c0.336-1.399-0.176-2.882-0.97-4.082c-0.794-1.2-1.856-2.195-2.788-3.291      c-3.796-4.465-5.385-10.554-9.486-14.741c-1.955-1.996-4.405-3.473-6.253-5.569c-0.945-1.071-2.611-3.625-4.342-2.668      c-1.398,0.773-1.969,4.392-2.449,5.744C366.716,212.596,364.914,217.674,363.112,222.751z"
   id="path39" />&#10;				<path
   fill="#BDB48D"
   d="M419.489,234.079c-0.557,1.44-1.118,2.89-1.932,4.203c-1.227,1.977-2.988,3.578-4.234,5.543      c-1.169,1.844-1.933,4.063-3.71,5.332c-0.393,0.281-0.831,0.51-1.161,0.864c-0.329,0.354-0.532,0.885-0.335,1.326      c0.228,0.51,0.859,0.679,1.411,0.767c0.878,0.141,1.809,0.23,2.63-0.11c0.486-0.201,0.899-0.538,1.329-0.841      c1.075-0.758,2.276-1.315,3.47-1.868c0.344-0.159,0.702-0.322,1.081-0.326c0.308-0.003,0.607,0.099,0.898,0.2      c1.27,0.44,2.539,0.881,3.809,1.321c0.371,0.129,0.75,0.262,1.055,0.509c0.338,0.274,0.556,0.664,0.766,1.045      c0.398,0.721,0.796,1.443,1.195,2.164c0.367,0.664,0.741,1.338,1.284,1.868c0.543,0.529,1.289,0.902,2.043,0.82      c1.12-0.122,1.928-1.221,2.108-2.333c0.18-1.112-0.121-2.239-0.403-3.329c-0.156-0.602-0.307-1.219-0.253-1.838      c0.054-0.619,0.353-1.251,0.9-1.546c0.898-0.484,2.066,0.084,3.007-0.31c0.946-0.396,1.268-1.601,1.169-2.622      c-0.159-1.641-1.122-3.185-2.526-4.05c-0.771-0.475-1.648-0.747-2.461-1.147c-1.365-0.671-2.524-1.688-3.665-2.694      c-1.017-0.896-2.053-1.815-2.715-2.997c-0.515-0.92-0.732-1.917-0.876-2.95c-0.104-0.745-0.116-1.333-1.012-1.404      C420.49,229.529,419.973,232.827,419.489,234.079z"
   id="path40" />&#10;				<path
   fill="#BDB48D"
   d="M367.627,244.259c-1.483,1.62-2.909,3.333-3.83,5.327c-0.644,1.393-1.026,2.891-1.569,4.326      c-0.869,2.295-2.156,4.431-3.78,6.271c-1.229,1.394-2.643,2.613-4.092,3.776c-4.228,3.394-8.983,6.565-11.335,11.45      c-0.866,1.798-1.372,3.775-2.455,5.451c-0.481,0.744-1.081,1.44-1.317,2.295c-0.236,0.854,0.049,1.948,0.882,2.25      c0.634,0.23,1.326-0.067,1.94-0.346c1.226-0.557,2.536-1.076,3.877-0.954c0.704,0.064,1.393,0.304,2.1,0.28      c1.262-0.043,2.332-0.907,3.243-1.782c1.887-1.813,3.546-3.864,4.924-6.09c0.613-0.99,1.213-2.058,2.213-2.654      c0.614-0.366,1.327-0.521,2.001-0.758c2.855-1.003,4.939-3.446,6.703-5.905c1.764-2.459,3.416-5.101,5.885-6.852      c-1.7,4.59-5,8.371-8.046,12.203c-3.045,3.833-5.983,8.024-6.723,12.863c-0.071,0.467-0.119,0.962,0.064,1.397      c0.492,1.173,2.142,1.141,3.392,0.91c1.804-0.333,3.608-0.666,5.412-1c0.483-0.089,0.973-0.181,1.411-0.402      c0.54-0.273,0.969-0.73,1.306-1.233c2.124-3.167,0.681-7.634,2.312-11.081c0.485-1.024,1.22-1.905,1.872-2.832      c2.421-3.438,3.743-7.638,3.729-11.844c-0.003-0.928-0.077-1.885-0.493-2.715c-0.571-1.141-1.701-1.884-2.49-2.887      c-1.749-2.222-1.597-5.438-0.624-8.093c0.623-1.698,5.303-7.608,1.894-8.274c-1.621-0.316-3.103,1.658-4.158,2.633      C370.402,241.353,368.983,242.778,367.627,244.259z"
   id="path41" />&#10;				<path
   fill="#BDB48D"
   d="M399.367,295.584c-2.836,1.577-5.95,2.895-8.04,5.379c-0.447,0.531-0.821,1.381-0.312,1.853      c0.18,0.167,0.431,0.233,0.673,0.271c2.401,0.376,4.662-1.387,7.093-1.411c1.851-0.018,3.62,0.98,5.466,0.846      c2.319-0.168,4.303-2.087,6.626-1.993c1.704,0.069,3.449,1.218,4.999,0.507c0.677-0.311,1.182-0.972,1.303-1.707      c0.17-1.032-0.385-2.058-1.102-2.82c-0.716-0.762-1.601-1.351-2.322-2.109c-1.313-1.378-1.922-3.188-1.929-5.067      c-0.008-1.926,0.099-3.302-1.827-1.594C406.687,290.675,403.248,293.426,399.367,295.584z"
   id="path42" />&#10;				<path
   fill="#BDB48D"
   d="M481.599,308.735c-0.525,0.507-1.074,1.318-0.616,1.887c0.192,0.238,0.508,0.335,0.81,0.381      c1.525,0.232,3.003-0.51,4.447-1.053c0.384-0.144,0.791-0.278,1.197-0.219c0.416,0.06,0.775,0.314,1.16,0.484      c1.568,0.692,3.399-0.049,5.093,0.213c1.886,0.292,3.439,1.799,5.338,1.977c0.261,0.024,0.555,0.011,0.74-0.175      c0.18-0.181,0.197-0.464,0.184-0.719c-0.081-1.627-0.973-3.193-2.331-4.093c-1.024-0.679-2.326-1.033-3.027-2.041      c-0.344-0.495-0.5-1.094-0.779-1.628C490.729,297.851,483.935,306.478,481.599,308.735z"
   id="path43" />&#10;				<path
   fill="#BDB48D"
   d="M531.45,302.476c-0.221,1.705-1.003,3.276-1.619,4.882c-0.203,0.529-0.385,1.143-0.118,1.643      c0.321,0.601,1.128,0.733,1.806,0.667c0.678-0.066,1.382-0.255,2.025-0.028c0.63,0.223,1.056,0.793,1.521,1.274      c1.043,1.077,2.45,1.795,3.935,2.007c0.65,0.093,1.392,0.06,1.852-0.409c0.576-0.588,0.436-1.55,0.209-2.341      c-0.406-1.41-0.968-2.776-1.672-4.064c-0.437-0.799-0.946-1.695-0.68-2.566c0.106-0.349,0.33-0.651,0.445-0.997      c0.311-0.937-0.238-1.948-0.923-2.658c-0.685-0.711-1.533-1.283-2.048-2.125c-0.814-1.331-1.993-4.137-3.854-2.093      C530.836,297.305,531.709,300.482,531.45,302.476z"
   id="path44" />&#10;				<g
   id="g47">&#10;					<path
   fill="#A49B79"
   d="M461.42,270.065c2.395,0.011,4.803,0.021,7.166-0.369c0.408-0.067,0.827-0.152,1.168-0.384       c0.342-0.233,0.589-0.651,0.501-1.055c-0.111-0.51-0.66-0.769-1.124-1.008c-0.953-0.49-1.797-1.192-2.454-2.039       c-0.442-0.57-0.814-1.219-1.406-1.63c-0.697-0.484-1.611-0.565-2.444-0.406c-0.078,0.015-0.153,0.04-0.23,0.059       c-1.582,1.782-3.019,3.737-4.677,5.43c-0.403,0.412-1,0.703-1.165,1.266c0.388,0.11,0.811,0.12,1.22,0.121       C459.123,270.054,460.271,270.059,461.42,270.065z"
   id="path45" />&#10;					<path
   fill="#A49B79"
   d="M459.759,271.19c5.159,0.249,10.34,0.049,15.464-0.598c0.192-0.024,0.397-0.055,0.537-0.187       c0.404-0.379-0.095-1.014-0.554-1.325c-2.303-1.558-4.605-3.116-6.908-4.673c-1.074-0.726-2.15-1.455-3.301-2.052       c-0.3-0.156-0.626-0.306-0.962-0.269c-0.426,0.048-0.757,0.382-1.047,0.698c-0.134,0.145-0.26,0.3-0.391,0.448       c0.077-0.019,0.152-0.044,0.23-0.059c0.833-0.159,1.748-0.078,2.444,0.406c0.592,0.411,0.964,1.06,1.406,1.63       c0.657,0.847,1.501,1.548,2.454,2.039c0.464,0.239,1.013,0.498,1.124,1.008c0.088,0.404-0.159,0.822-0.501,1.055       c-0.342,0.233-0.76,0.317-1.168,0.384c-2.363,0.39-4.771,0.38-7.166,0.369c-1.149-0.005-2.297-0.01-3.446-0.016       c-0.409-0.002-0.832-0.011-1.22-0.121c-0.025,0.084-0.041,0.173-0.044,0.27C456.664,271.498,458.749,271.141,459.759,271.19z"
   id="path46" />&#10;					<path
   fill="#404333"
   d="M459.759,271.19c5.159,0.249,10.34,0.049,15.464-0.598c0.192-0.024,0.397-0.055,0.537-0.187       c0.404-0.379-0.095-1.014-0.554-1.325c-2.303-1.558-4.605-3.116-6.908-4.673c-1.074-0.726-2.15-1.455-3.301-2.052       c-0.3-0.156-0.626-0.306-0.962-0.269c-0.426,0.048-0.757,0.382-1.047,0.698c-0.134,0.145-0.26,0.3-0.391,0.448       c0.077-0.019,0.152-0.044,0.23-0.059c0.833-0.159,1.748-0.078,2.444,0.406c0.592,0.411,0.964,1.06,1.406,1.63       c0.657,0.847,1.501,1.548,2.454,2.039c0.464,0.239,1.013,0.498,1.124,1.008c0.088,0.404-0.159,0.822-0.501,1.055       c-0.342,0.233-0.76,0.317-1.168,0.384c-2.363,0.39-4.771,0.38-7.166,0.369c-1.149-0.005-2.297-0.01-3.446-0.016       c-0.409-0.002-0.832-0.011-1.22-0.121c-0.025,0.084-0.041,0.173-0.044,0.27C456.664,271.498,458.749,271.141,459.759,271.19z"
   id="path47" />&#10;				</g>&#10;				<path
   fill="#BDB48D"
   d="M459.061,268.099c-0.146,0.198-0.296,0.421-0.278,0.666c0.022,0.306,0.318,0.541,0.623,0.576      c0.305,0.035,0.607-0.09,0.865-0.257c0.756-0.491,1.295-1.374,2.179-1.551c0.41-0.082,0.867-0.001,1.225-0.218      c0.398-0.241,0.519-0.76,0.539-1.225s-0.022-0.955,0.186-1.371c0.072-0.143,0.172-0.274,0.21-0.429      c0.122-0.492-0.471-0.919-0.972-0.841c-0.872,0.135-1.626,1.304-2.211,1.893C460.572,266.203,459.781,267.125,459.061,268.099z"
   id="path48" />&#10;				<g
   id="g51">&#10;					<path
   fill="#A49B79"
   d="M489.438,280.72c0.149,0.374,0.621,0.475,1.021,0.523c1.626,0.195,3.252,0.391,4.878,0.586       c1.995,0.24,4.011,0.479,6.008,0.256c1.212-0.136,2.424-0.442,3.636-0.306c0.646,0.072,1.283,0.27,1.932,0.228       s1.345-0.417,1.475-1.054c0.114-0.557-0.231-1.094-0.567-1.552c-1.721-2.345-3.663-4.528-5.791-6.51       c-1.178-1.098-2.61-2.2-4.212-2.04c-0.292,0.029-0.571,0.104-0.844,0.199c-0.474,0.389-0.899,0.843-1.309,1.301       c-1.659,1.85-3.261,3.751-4.804,5.699c-0.5,0.632-0.994,1.278-1.397,1.973c-0.002,0.008-0.004,0.016-0.006,0.024       C489.404,280.269,489.354,280.508,489.438,280.72z"
   id="path49" />&#10;					<path
   fill="#404333"
   d="M488.913,281.502c0.093,0.415,0.592,0.573,1.011,0.638c3.312,0.512,5.964,0.765,9.312,0.624       c1.7-0.072,4.415-0.019,6.116,0.039c2.312,0.079,3.877-0.073,6.19,0.005c0.538,0.018,1.397-0.248,1.927-0.341       c0.365-0.063,0.854-0.553,1.188-0.713c0.113-0.054,0.229-0.118,0.298-0.224c0.172-0.266-0.042-0.608-0.258-0.84       c-1.439-1.542-3.35-2.539-5.113-3.696c-2.864-1.88-5.385-4.227-7.921-6.53c-0.469-0.426-0.958-0.862-1.558-1.064       c-0.601-0.202-1.348-0.108-1.739,0.39l-0.664,0.744c-0.26,0.147-0.498,0.325-0.727,0.513c0.273-0.095,0.552-0.17,0.844-0.199       c1.602-0.16,3.034,0.943,4.212,2.04c2.129,1.982,4.07,4.165,5.791,6.51c0.336,0.458,0.681,0.995,0.567,1.552       c-0.13,0.637-0.826,1.011-1.475,1.054s-1.286-0.155-1.932-0.228c-1.212-0.136-2.424,0.17-3.636,0.306       c-1.997,0.224-4.013-0.016-6.008-0.256c-1.626-0.195-3.252-0.391-4.878-0.586c-0.4-0.048-0.872-0.149-1.021-0.523       c-0.084-0.212-0.034-0.451,0.019-0.673c0.002-0.008,0.004-0.016,0.006-0.024c-0.164,0.282-0.316,0.571-0.442,0.872       C488.94,281.088,488.868,281.298,488.913,281.502z"
   id="path50" />&#10;					<path
   fill="#404333"
   d="M488.913,281.502c0.093,0.415,0.592,0.573,1.011,0.638c3.312,0.512,5.964,0.765,9.312,0.624       c1.7-0.072,4.415-0.019,6.116,0.039c2.312,0.079,3.877-0.073,6.19,0.005c0.538,0.018,1.397-0.248,1.927-0.341       c0.365-0.063,0.854-0.553,1.188-0.713c0.113-0.054,0.229-0.118,0.298-0.224c0.172-0.266-0.042-0.608-0.258-0.84       c-1.439-1.542-3.35-2.539-5.113-3.696c-2.864-1.88-5.385-4.227-7.921-6.53c-0.469-0.426-0.958-0.862-1.558-1.064       c-0.601-0.202-1.348-0.108-1.739,0.39l-0.664,0.744c-0.26,0.147-0.498,0.325-0.727,0.513c0.273-0.095,0.552-0.17,0.844-0.199       c1.602-0.16,3.034,0.943,4.212,2.04c2.129,1.982,4.07,4.165,5.791,6.51c0.336,0.458,0.681,0.995,0.567,1.552       c-0.13,0.637-0.826,1.011-1.475,1.054s-1.286-0.155-1.932-0.228c-1.212-0.136-2.424,0.17-3.636,0.306       c-1.997,0.224-4.013-0.016-6.008-0.256c-1.626-0.195-3.252-0.391-4.878-0.586c-0.4-0.048-0.872-0.149-1.021-0.523       c-0.084-0.212-0.034-0.451,0.019-0.673c0.002-0.008,0.004-0.016,0.006-0.024c-0.164,0.282-0.316,0.571-0.442,0.872       C488.94,281.088,488.868,281.298,488.913,281.502z"
   id="path51" />&#10;				</g>&#10;				<path
   fill="#BDB48D"
   d="M499.727,272.223c-0.315-0.263-0.651-0.501-1.004-0.709c-0.846-0.499-1.69,0.028-2.336,0.612      c-0.868,0.783-1.649,1.571-2.326,2.53c-0.396,0.56-0.762,1.141-1.126,1.723c-0.422,0.673-0.844,1.347-1.192,2.061      c-0.045,0.091-0.087,0.204-0.033,0.289c0.028,0.045,0.078,0.072,0.128,0.091c0.324,0.126,0.701,0.003,0.975-0.212      c0.274-0.214,0.472-0.509,0.688-0.781c0.319-0.403,0.693-0.76,1.098-1.075c0.033-0.032,0.066-0.063,0.105-0.089      c0.009-0.007,0.016-0.015,0.025-0.021c0.025-0.019,0.052-0.035,0.079-0.052c0.026-0.018,0.046-0.044,0.073-0.058      c0.135-0.069,0.27-0.092,0.418-0.111c0.042-0.005,0.085-0.01,0.127-0.015c0.021-0.004,0.041-0.008,0.061-0.014      c0.038-0.01,0.075-0.023,0.112-0.037c0.013-0.007,0.04-0.02,0.058-0.03c0.184-0.101,0.335-0.231,0.535-0.305      c0.331-0.122,0.661-0.034,0.914,0.171c0.148,0.095,0.282,0.211,0.39,0.352c0.27,0.354,0.42,0.579,0.561,0.986      c0.15,0.167,0.257,0.571,0.373,0.763c0.183,0.301,0.307,0.634,0.491,0.935c0.183,0.301,0.445,0.577,0.786,0.665      c0.085,0.022,0.178,0.031,0.258-0.006c0.063-0.029,0.111-0.084,0.152-0.141c0.279-0.389,0.307-0.911,0.2-1.377      c-0.108-0.466-0.336-0.893-0.54-1.326c-0.296-0.628-0.544-1.278-0.792-1.927c-0.209-0.548-0.422-1.132-0.311-1.707      c0.017-0.09,0.048-0.185,0.123-0.237c0.09-0.061,0.21-0.04,0.316-0.015c0.475,0.108,0.95,0.217,1.425,0.325      C501.56,273.51,500.12,272.552,499.727,272.223z"
   id="path52" />&#10;				<path
   fill="#505244"
   d="M360.203,181.145c-0.304,3.112-0.198,6.49,1.638,9.021c0.56,0.772,1.266,1.441,1.722,2.278      c1.591,2.915-0.191,7.088,2.016,9.569c0.322,0.362,0.827,0.677,1.267,0.476c0.326-0.149,0.476-0.522,0.585-0.864      c0.589-1.846,0.863-3.792,0.807-5.729c-0.013-0.439-0.033-0.915,0.22-1.275c0.156-0.223,0.397-0.369,0.593-0.558      c0.593-0.573,0.718-1.499,0.547-2.306c-0.171-0.807-0.591-1.535-0.962-2.272c-2.225-4.427-2.781-9.514-4.73-14.069      c-0.479-1.12-2.451-4.683-3.062-1.82C360.342,175.943,360.439,178.731,360.203,181.145z"
   id="path53" />&#10;				<path
   fill="#505244"
   d="M397.954,222.439c0.769,1.896,1.393,3.852,2.247,5.712c0.568,1.238,1.236,2.426,1.903,3.614      c1.454,2.587,2.908,5.175,4.361,7.762c0.451,0.803,0.918,1.625,1.626,2.215c0.708,0.589,1.721,0.904,2.57,0.546      c0.586-0.248,1.008-0.77,1.355-1.304c1.212-1.866,1.798-4.058,2.366-6.21c0.271-1.026,0.541-2.116,0.234-3.132      c-0.184-0.606-0.56-1.133-0.951-1.631c-2.895-3.685-6.853-6.361-10.259-9.58c-2.072-1.958-3.939-4.12-5.788-6.29      c-1.241-1.457-2.627-3.061-4.47-3.751c-1.299-0.486-3.11-0.667-1.998,1.047c1.051,1.62,2.475,2.987,3.523,4.637      C395.955,218.091,397.055,220.224,397.954,222.439z"
   id="path54" />&#10;				<path
   fill="#505244"
   d="M379.469,250.108c0.55,1.283,1.809,2.083,2.808,3.058c2.209,2.155,3.196,5.26,3.802,8.286      c0.606,3.026,0.925,6.15,2.137,8.988c2.451,5.742,8.228,9.589,10.746,15.251c0.239,0.538-0.273,1.102-0.844,0.96      c-0.712-0.177-1.41-0.709-1.963-1.236c-5.567-5.304-9.492-12.307-11.122-19.82c-0.116-0.535-0.737-0.836-1.187-0.524      c-0.448,0.31-0.784,0.904-0.816,1.47c-0.054,0.967,0.372,1.908,0.35,2.876c-0.055,2.419-2.656,3.835-4.137,5.748      c-1.334,1.723-1.782,4.002-1.672,6.178s0.731,4.29,1.348,6.38c0.385,1.306,0.815,2.683,1.836,3.584      c1.199,1.058,2.923,1.211,4.52,1.314c2.436,0.156,4.871,0.312,7.307,0.469c1.386,0.089,2.789,0.177,4.154-0.084      c5.339-1.019,8.317-6.781,12.963-9.551c1.029-0.614,2.212-0.978,3.408-0.906c2.883,0.173,3.265,2.235,4.126,3.93      c1.13,2.226,3.235,3.935,5.646,4.583c0.882,0.237,1.823,0.348,2.597,0.833c0.749,0.47,1.261,1.242,1.978,1.76      c1.398,1.009,3.534,0.801,4.71-0.46c1.065-1.142,1.386-2.976,3.706-2.839c1.191,0.07,2.306,0.614,3.174,1.432      c1.58,1.488,4.283,3.597,6.291,2.208c0.975-0.674,1.341-1.924,1.164-3.097c-0.385-2.542-2.573-4.237-3.244-6.607      c-0.4-1.413-0.217-2.925-0.468-4.372c-0.428-2.471-2.108-4.581-4.119-6.079s-4.354-2.473-6.655-3.47      c-1.36-0.59-2.728-1.2-3.907-2.098c-0.79-0.602-1.483-1.323-2.27-1.929c-3.095-2.386-7.246-2.748-11.145-3.019      c-0.743-0.052-1.613-0.051-2.076,0.533c-0.247,0.312-0.317,0.731-0.31,1.129c0.031,1.658,1.197,3.041,2.23,4.338      c2.332,2.926,4.282,6.155,5.785,9.58c-1.813-1.381-3.394-3.065-4.659-4.962c-0.88-1.321-1.622-2.761-2.768-3.86      c-0.783-0.751-1.723-1.312-2.625-1.914c-2.016-1.347-3.865-2.925-5.71-4.499c-1.434-1.224-2.867-2.447-4.301-3.671      c-3.271-2.792-6.542-5.584-9.813-8.375c-1.045-0.892-2.094-1.788-2.991-2.827c-1.404-1.627-2.413-3.593-2.915-5.683      c-0.156-0.651-0.662-3.907-1.638-3.919c-0.827-0.01-1.097,2.773-1.365,3.418C380.592,244.884,378.357,247.515,379.469,250.108z"
   id="path55" />&#10;			</g>&#10;		</g>&#10;	</g>&#10;</g>&#10;&#10;&#10;&#10;&#10;&#10;&#10;&#10;&#10;&#10;</svg>
