<?xml version="1.0" encoding="utf-8"?>
<!-- Generator: Adobe Illustrator 27.9.0, SVG Export Plug-In . SVG Version: 6.00 Build 0)  -->
<svg version="1.1" xmlns="http://www.w3.org/2000/svg" xmlns:xlink="http://www.w3.org/1999/xlink" x="0px" y="0px"
	 viewBox="0 0 1080 1920" enable-background="new 0 0 1080 1920" xml:space="preserve">
<g id="_x31_8">
	<path fill="#0F6593" d="M1040.425,1142.74c0.571,14.833,9.765,28.692,8.457,43.478c-0.692,7.819-4.282,15.055-6.214,22.663
		c-4.135,16.279,1.454,36.399,16.841,43.138c6.388,2.798,13.435,2.964,20.491,2.824v-175.193
		c-7.618,8.332-16.093,15.915-23.398,24.538C1047.38,1115.074,1039.876,1128.485,1040.425,1142.74z"/>
	<path fill="#0F6593" d="M133.531,1901.542c-7.149-4.698-12.229-12.027-19.269-16.887c-16.047-11.079-40.366-8.232-52.815-23.24
		c-10.366-12.497-8.13-32.993-20.514-43.496c-8.78-7.447-21.514-6.931-32.809-9.164c-2.524-0.499-5.325-1.417-8.125-2.663v113.911
		h226.232c-9.978-5.531-20.309-10.007-31.594-11.511C174.026,1905.743,150.91,1912.961,133.531,1901.542z"/>
	<path fill="#0F6593" d="M1071.903,534.99c2.135,5.961,4.599,11.925,8.097,17.16V364.997c-2.558,6.293-5.188,12.562-7.526,18.937
		C1054.781,432.174,1054.575,486.618,1071.903,534.99z"/>
	<path fill="#0F6593" d="M11.803,381.351c-0.441-21.7-0.912-43.628-6.301-64.653c-1.838-7.173-4.262-14.362-3.993-21.762
		c0.501-13.737,9.963-25.205,16.581-37.254c6.618-12.049,10.951-31.723,0.734-40.92C7.791,206.83,2.481,190.941,5.326,176.373
		c3.996-20.467,22.493-37.284,21.35-58.106c-0.352-6.42-2.61-12.574-3.638-18.921C19.34,76.517,33.88,52.08,55.71,44.435
		c9.714-3.402,20.477-3.798,29.56-8.64c7.708-4.109,13.478-11.041,20.506-16.227c17.565-12.961,41.58-13.862,62.806-8.76
		c9.593,2.306,19.11,5.739,28.973,5.532c8.123-0.17,15.965-2.807,23.959-4.256c43.357-7.859,87.906,19.359,130.842,9.453
		c8.073-1.863,15.793-4.999,23.759-7.276c26.496-7.576,53.975,5.32,81.41,7.916c6.608,0.625,12.96,2.798,19.465,4.119
		c40.24,8.171,82.374-16.557,122.061-6.025c9.965,2.644,19.38,7.459,29.605,8.784c15.379,1.993,30.502-4.083,45.063-9.418
		c20.865-7.645,43.482-14.044,65.072-8.786c12.098,2.946,23.426,9.477,35.868,9.972c13.31,0.529,25.815-5.914,38.9-8.404
		c12.084-2.3,24.525-1.198,36.776-0.088c10.956,0.993,22.16,2.049,32.151,6.653c9.998,4.607,18.145,12.484,27.869,17.645
		c22.876,12.142,51.709,8.008,74.7,19.931c22.106,11.465,38.81,37.374,63.677,36.033c6.505-0.351,14.878,2.41,17.726,8.268
		c2.848,5.858,3.319,12.732,6.676,18.314c1.777,2.954,4.247,5.352,6.866,7.622V0.002H0v419.94c2.986-3.476,5.909-6.984,7.936-11.072
		C12.094,400.486,11.993,390.708,11.803,381.351z"/>
	<path fill="#0F6593" d="M19.881,1564.531c2.109-5.26,5.702-9.763,8.68-14.585c8.173-13.233,16.058-31.693,9.594-45.84
		c-3.028-6.626-2.595-14.263-4.206-21.367c-2.861-12.623-12.142-23.447-13.105-36.355c-0.675-9.042,2.847-17.79,4.825-26.639
		c3.871-17.321,1.695-35.932-6.068-51.893c-3.349-6.885-7.73-13.37-9.673-20.776c-5.042-19.218,7.284-38.388,9.869-58.088
		c1.485-11.316-0.292-22.788-2.363-34.011c-1.368-7.412-2.953-15.018-7.15-21.279c-2.801-4.179-6.603-7.521-10.284-10.98v402.096
		c6.228-6.556,12.123-13.325,14.811-21.83C18.726,1590.598,15.046,1576.589,19.881,1564.531z"/>
	<path fill="#0F6593" d="M24.636,1062.485c6.654-13.767,20.196-23.862,24.405-38.562c2.371-8.281,1.388-17.471-2.681-25.063
		c-3.431-6.402-8.9-11.619-11.764-18.294c-6.685-15.578,2.387-34.731-4.798-50.084c-3.385-7.232-9.972-12.555-13.515-19.711
		c-3.936-7.95-3.734-17.346-6.919-25.626c-1.899-4.937-5.238-10.71-9.363-15.373v266.77c1.718-2.326,3.523-4.558,5.405-6.664
		C21.174,1112.231,14.338,1083.792,24.636,1062.485z"/>
	<path fill="#0F6593" d="M12.306,687.24c-1.25-14.303-7.405-30.244,1.8-41.264c8.89-10.643,17.865-21.416,24.004-33.85
		c6.139-12.434,9.262-26.882,5.79-40.307c-2.649-10.245-9.024-19.726-8.809-30.305c0.187-9.163,5.38-18.026,3.821-27.057
		c-1.062-6.148-5.099-11.302-9.003-16.169c-6.147-7.664-12.547-15.541-21.249-20.102c-2.814-1.475-5.824-2.583-8.66-3.997v262.664
		c2.359-3.984,4.547-8.054,6.364-12.313C11.353,712.841,13.413,699.908,12.306,687.24z"/>
	<path fill="#0F6593" d="M1069.095,1728.487c-5.877,16.688,5.862,34.778,3.832,52.353c-2.471,21.396-24.624,37.308-24.791,58.845
		c-0.104,13.439,8.602,26.934,4.146,39.614c-3.012,8.573-11.41,14.146-19.97,17.197c-8.56,3.051-17.714,4.21-26.22,7.407
		c-9.55,3.59-17.732,9.488-25.521,16.099H1080v-206.494C1075.239,1717.735,1071.222,1722.446,1069.095,1728.487z"/>
	<path fill="#0F6593" d="M739.976,1906.568c-10.987,0.228-22.556,6.486-32.372,1.546c-3.26-1.641-5.83-4.348-8.66-6.653
		c-11.706-9.533-28.811-11.903-42.669-5.913c-6.757,2.921-12.692,7.617-19.654,10.008c-11.55,3.967-24.298,1.112-36.378,2.907
		c-9.957,1.479-18.705,5.888-26.959,11.54h201.16c-4.096-2.594-8.263-5.065-12.586-7.269
		C755.037,1909.255,747.631,1906.409,739.976,1906.568z"/>
	<path fill="#2599BD" d="M1055.719,1740.914c-1.615,13.091,5.782,27.131,0.226,39.094c-2.734,5.885-8.317,10.307-10.061,16.557
		c-1.29,4.623-0.28,9.63-1.417,14.293c-2.341,9.597-13.008,15.369-15.498,24.928c-2.294,8.806,3.049,17.869,2.607,26.957
		c-0.707,14.505-15.39,24.13-29.194,28.644c-13.805,4.514-29.239,6.928-39.51,17.196c-3.388,3.387-5.994,7.446-8.701,11.418h26.401
		c7.789-6.611,15.971-12.509,25.521-16.099c8.506-3.197,17.661-4.356,26.22-7.407c8.56-3.051,16.958-8.625,19.97-17.197
		c4.456-12.679-4.25-26.175-4.146-39.614c0.167-21.537,22.32-37.45,24.791-58.845c2.03-17.575-9.709-35.666-3.832-52.353
		c2.127-6.04,6.144-10.752,10.905-14.979v-8.977C1069.904,1715.959,1057.542,1726.137,1055.719,1740.914z"/>
	<path fill="#2599BD" d="M351.028,1902.457c-24.606-3.351-51.298,9.571-73.607-1.334c-10.911-5.334-18.563-15.527-28.403-22.646
		c-18.815-13.611-44.705-12.043-67.548-16.227l-42.615-7.806c-15.336-2.809-32.319-6.651-41.04-19.573
		c-4.364-6.466-5.993-14.394-9.754-21.229c-5.837-10.604-16.247-17.72-25.672-25.316s-18.689-16.962-20.496-28.93
		c-1.327-8.787,1.603-17.748,0.685-26.588c-1.804-17.37-18.09-32.163-15.194-49.385c1.814-10.785,10.701-18.743,16.398-28.079
		c9.657-15.823,9.711-37.021,0.135-52.893c-2.533-4.199-5.757-8.246-6.409-13.106c-1.416-10.547,9.185-18.145,16.555-25.822
		c11.575-12.058,16.864-29.844,13.758-46.266c-2.116-11.188-7.772-21.349-11.511-32.105c-3.738-10.756-7.472-25.193-1.214-34.707
		c1.258-1.913,2.349-3.931,3.623-5.833c4.666-6.966,11.753-12.338,15.028-20.056c2.847-6.712,2.422-14.315,1.671-21.565
		c-0.754-7.282-6.965-15.513-13.669-18.456c-15.425-6.771-25.575-24.846-22.265-41.54c1.59-8.017,5.759-15.275,8.171-23.085
		c3.474-11.252,3.155-23.638-0.894-34.696c-2.162-5.904-5.374-11.528-6.162-17.766c-1.135-8.995,2.921-17.803,3.6-26.844
		c1.193-15.87-7.904-30.406-15.38-44.457c-7.475-14.051-13.623-31.129-6.669-45.445c3.835-7.895,11.271-13.866,13.874-22.248
		c2.506-8.068,0.056-16.722-0.475-25.154c-1.384-21.971,11.822-44.103,31.737-53.492c4.24-1.999,8.757-3.478,12.676-6.049
		c4.749-3.116,8.686-8.309,7.358-14.291c-0.872-3.926-4.135-6.78-8.033-7.774c-8.441-2.152-13.611-10.989-13.642-19.527
		c-0.029-7.943,3.724-15.506,8.759-21.649c3.342-4.078,7.327-7.756,9.571-12.527c6.251-13.286-4.077-29.476-17.519-35.389
		c-6.437-2.831-13.855-4.291-18.664-9.421c-8.213-8.762-4.966-23.908-12.413-33.33c-3.352-4.24-8.441-6.72-12.31-10.495
		c-7.413-7.234-9.435-19.402-4.761-28.645c6.782-13.412,25.283-19.968,27.348-34.854c1.919-13.829-12.031-27.965-5.851-40.485
		c2.477-5.017,7.638-8.108,11.036-12.553c9.946-13.01,2.397-33.179,10.867-47.194c2.318-3.836,5.702-6.929,8.132-10.695
		c3.547-5.496,4.892-12.372,3.676-18.799c-1.175-6.213-4.618-12.535-2.515-18.498c1.935-5.487,7.774-8.336,12.289-12.006
		c6.542-5.317,9.025-12.296,12.538-19.958c4.183-9.124,12.12-16.458,21.545-19.911c2.539-0.93,5.285-1.654,7.218-3.544
		c3.089-3.022,3.083-7.908,2.866-12.224c-0.14-2.784-0.3-5.651-1.494-8.171c-4.08-8.607-17.595-8.858-20.369-19.394
		c-1.429-5.425,0.153-11.135,4.325-14.886c3.933-3.536,9.337-5.531,13.392-9.075c7.114-6.217,9.16-17.511,4.677-25.827
		c-5.346-9.919-17.891-14.438-22.874-24.544c-2.269-4.603-2.701-9.882-4.396-14.726c-4.226-12.079-15.759-20.097-27.509-25.17
		c-11.75-5.073-24.43-8.091-35.484-14.542c-8.73-5.095-16.72-13.252-17.417-23.335c-0.662-9.568,5.309-18.327,6.648-27.823
		c1.747-12.39-4.476-24.402-6.184-36.798c-2.863-20.771,5.124-44.268-3.9-63.194c-3.48-7.3-3.551-16.14-0.189-23.495
		c4.446-9.724,14.414-16.802,16.295-27.327c1.099-6.15-0.817-12.394-2.71-18.348c-1.176-3.696-2.815-6.584-3.35-10.426
		c-2.116-15.2-6.66-16.988,2.881-29.009c2.767-3.486,6.143-6.445,8.973-9.879c7.459-9.047,8.166-19.249,8.451-30.871
		c0.259-10.556,1.267-21.088,3.211-31.467c1.853-9.897,4.874-20.611,12.959-26.735c5.975-4.525,13.791-5.803,20.309-9.504
		c8.599-4.882,14.324-13.59,22.247-19.506c12.566-9.382,29.419-10.838,45.014-9.181c15.595,1.657,30.843,6.051,46.495,7.028
		c13.005,0.812,26.866-1.145,37.63-8.101c1.434-0.608,2.83-1.325,4.203-2.135c6.146-3.629,11.95-7.857,18.386-10.981
		c6.646-3.225,14.097-5.011,21.457-3.561c4.126,0.813,8.13,2.129,12.301,2.734c0.249,0.036,0.499,0.056,0.748,0.089
		c9.688,3.293,19.087,7.574,29.088,9.731c16.738,3.61,34.225,1.075,51.179,3.472c32.864,4.647,62.9,27.587,95.872,23.782
		c12.096-1.396,23.561-6.386,35.662-7.732c33.236-3.695,63.957,20.241,97.393,20.816c26.367,0.453,52.338-14.723,77.705-10.823
		c4.085,0.628,8.221,0.612,12.317,0.06c13.019-1.756,26.653,7.266,40.371,9.152c22.324,3.068,43.473-13.109,65.983-12.077
		c13.109,0.601,25.243,7.016,36.096,14.393s21.021,15.907,32.808,21.676c13.887,6.798,29.49,9.471,44.944,9.98
		c6.049,0.199,12.197,0.091,18.026,1.723c8.087,2.264,14.906,7.687,22.685,10.852c6.858,2.79,14.321,3.769,21.31,6.214
		c6.989,2.445,13.896,6.876,16.445,13.827c2.382,6.495,0.494,13.753,1.496,20.597c1.441,9.844,10.278,21.542,20.019,23.569
		c4.121-0.722,8.276,1.792,10.69,5.21c2.413,3.418,3.428,7.603,4.325,11.689c2.544,11.588,4.492,23.962,0.365,35.085
		c-1.502,4.049-3.785,7.84-4.619,12.077c-2.164,10.991,5.778,21.265,13.858,29.025c8.08,7.76,17.39,15.77,19.131,26.836
		c2.174,13.809-8.235,26.132-12.148,39.552c-2.556,8.766-2.326,18.188-5.161,26.868c-4.172,12.776-14.74,22.746-26.79,28.701
		c-12.386,6.12-28.498,10.585-31.992,23.95c-2.409,9.216,2.653,18.526,4.553,27.861c1.787,8.78,0.756,17.949,2.547,26.728
		c2.478,12.146,10.082,22.487,16.432,33.134c6.35,10.647,11.735,23.016,9.106,35.13c-1.167,5.378-3.874,10.406-4.3,15.901
		c-0.434,5.592,3.676,11.613,8.995,13.394c8.203,2.748,10.878,14.161,8.828,22.907c-2.162,9.225-7.546,17.747-7.785,27.219
		c-0.361,14.27,10.734,25.867,20.621,36.165c7.884,8.211,15.563,16.835,20.724,26.98c5.161,10.146,7.621,22.08,4.59,33.052
		c-1.814,6.566-5.476,12.477-7.621,18.942c-3.556,10.715-2.775,22.299-2.835,33.588c-0.029,5.407-0.292,10.96-2.452,15.917
		c-2.565,5.888-7.539,10.343-12.545,14.367c-23.984,19.281-52.676,33.359-83.205,37.239c-16.686,2.121-33.605,1.198-50.386,2.35
		c-16.781,1.152-33.997,4.63-47.676,14.418c-7.086,5.071-13.007,11.686-20.363,16.357c-8.172,5.19-17.911,7.849-25.344,14.052
		c-7.433,6.203-14.36,20.941-7.784,28.046c1.936-1.361,4.128,1.342,4.959,3.557c3.407,9.078,6.861,18.4,6.871,28.096
		c0.011,9.579-3.352,18.9-3.555,28.477c-0.269,12.718,5.899,25.964,17.116,31.967c6.214,3.326,13.399,4.265,20.421,4.87
		c20.169,1.737,41.973,1.657,58.317,13.6c8.664,6.331,14.899,15.511,23.452,21.992c15.335,11.619,35.797,13.088,54.025,19.248
		c8.957,3.027,18.546,8.549,20.266,17.844c0.938,5.072-0.722,10.214-1.355,15.333c-1.274,10.296,1.823,21.062,8.374,29.107
		c3.237,3.976,7.318,7.386,9.495,12.028c1.73,3.691,2.104,7.862,2.203,11.936c0.261,10.75,1.133,24.192-5.239,32.854
		c-7.831,10.647-16.064,22.708-14.52,35.834c1.785,15.172,15.767,25.533,28.692,33.678c9.354,5.895,18.869,11.665,29.175,15.671
		c5.756,2.237,11.89,4.023,17.965,5.897v-30.935c-7.056,0.14-14.103-0.026-20.491-2.824c-15.388-6.739-20.977-26.859-16.841-43.138
		c1.932-7.608,5.522-14.844,6.214-22.663c1.308-14.786-7.886-28.646-8.457-43.478c-0.549-14.255,6.955-27.666,16.177-38.551
		c7.305-8.623,15.78-16.206,23.398-24.538V552.15c-3.498-5.235-5.961-11.2-8.097-17.16c-17.328-48.372-17.122-102.816,0.571-151.056
		c2.338-6.375,4.968-12.644,7.526-18.937V126.799c-2.619-2.271-5.089-4.668-6.866-7.622c-3.357-5.582-3.828-12.456-6.676-18.314
		c-2.848-5.858-11.221-8.619-17.726-8.268c-24.867,1.341-41.571-24.568-63.677-36.033c-22.991-11.923-51.824-7.79-74.7-19.931
		c-9.724-5.161-17.871-13.038-27.869-17.645c-9.991-4.604-21.195-5.661-32.151-6.653c-12.251-1.11-24.692-2.212-36.776,0.088
		c-13.085,2.49-25.59,8.934-38.9,8.404c-12.442-0.495-23.77-7.026-35.868-9.972c-21.591-5.257-44.207,1.142-65.072,8.786
		c-14.561,5.335-29.684,11.411-45.063,9.418c-10.224-1.325-19.64-6.139-29.605-8.784C559.364,9.74,517.229,34.468,476.99,26.297
		c-6.505-1.321-12.857-3.494-19.465-4.119c-27.435-2.597-54.914-15.492-81.41-7.916c-7.966,2.278-15.686,5.414-23.759,7.276
		c-42.936,9.906-87.484-17.312-130.842-9.453c-7.994,1.449-15.836,4.086-23.959,4.256c-9.864,0.206-19.381-3.226-28.973-5.532
		c-21.226-5.102-45.241-4.201-62.806,8.76c-7.028,5.186-12.798,12.118-20.506,16.227c-9.082,4.841-19.846,5.237-29.56,8.64
		C33.88,52.08,19.34,76.517,23.038,99.346c1.028,6.347,3.286,12.501,3.638,18.921c1.143,20.822-17.354,37.639-21.35,58.106
		c-2.844,14.568,2.466,30.457,13.498,40.389c10.217,9.198,5.883,28.872-0.734,40.92c-6.618,12.049-16.08,23.517-16.581,37.254
		c-0.27,7.4,2.154,14.589,3.993,21.762c5.389,21.025,5.86,42.953,6.301,64.653c0.19,9.357,0.292,19.135-3.866,27.52
		c-2.027,4.088-4.95,7.596-7.936,11.072v54.246c2.836,1.414,5.847,2.523,8.66,3.997c8.702,4.561,15.103,12.438,21.249,20.102
		c3.904,4.867,7.941,10.021,9.003,16.169c1.56,9.031-3.634,17.894-3.821,27.057c-0.216,10.58,6.159,20.061,8.809,30.305
		c3.472,13.425,0.349,27.873-5.79,40.307c-6.139,12.434-15.115,23.207-24.004,33.85c-9.205,11.02-3.049,26.961-1.8,41.264
		c1.107,12.669-0.954,25.602-5.942,37.299c-1.816,4.259-4.005,8.329-6.364,12.313v132.92c4.126,4.663,7.465,10.437,9.363,15.373
		c3.185,8.279,2.983,17.676,6.919,25.626c3.543,7.156,10.13,12.479,13.515,19.711c7.185,15.353-1.886,34.506,4.798,50.084
		c2.864,6.675,8.333,11.892,11.764,18.294c4.069,7.592,5.052,16.782,2.681,25.063c-4.209,14.7-17.751,24.795-24.405,38.562
		c-10.299,21.307-3.462,49.746-19.231,67.393c-1.882,2.106-3.687,4.338-5.405,6.664v86.177c3.681,3.459,7.483,6.801,10.284,10.98
		c4.197,6.261,5.782,13.866,7.15,21.279c2.071,11.224,3.847,22.695,2.363,34.011c-2.585,19.699-14.911,38.87-9.869,58.088
		c1.943,7.406,6.324,13.891,9.673,20.776c7.763,15.961,9.939,34.572,6.068,51.893c-1.978,8.849-5.5,17.597-4.825,26.639
		c0.964,12.907,10.244,23.731,13.105,36.355c1.61,7.104,1.178,14.742,4.206,21.367c6.465,14.146-1.421,32.606-9.594,45.84
		c-2.978,4.822-6.571,9.325-8.68,14.585c-4.835,12.057-1.155,26.067-5.07,38.454c-2.688,8.505-8.582,15.273-14.811,21.83v181.277
		c2.799,1.246,5.6,2.164,8.125,2.663c11.295,2.233,24.028,1.717,32.809,9.164c12.383,10.502,10.148,30.999,20.514,43.496
		c12.449,15.008,36.768,12.161,52.815,23.24c7.04,4.86,12.119,12.19,19.269,16.887c17.379,11.419,40.495,4.202,61.108,6.949
		c11.285,1.504,21.615,5.98,31.594,11.511h163.489C377.77,1911.597,365.342,1904.407,351.028,1902.457z"/>
	<path fill="#2599BD" d="M798.622,1916.581c-8.811-9.62-20.879-16.204-33.739-18.406c-7.257-1.243-14.781-1.144-21.788-3.402
		c-13.621-4.389-23.537-17.084-37.405-20.618c-18.688-4.762-37.27,8.474-56.548,8.99c-11.695,0.313-23.527-4.085-34.907-1.371
		c-18.266,4.355-28.599,25.2-46.561,30.678c-9.338,2.848-19.833,1.197-28.136,7.552h33.746c8.254-5.652,17.002-10.061,26.959-11.54
		c12.08-1.794,24.828,1.06,36.378-2.907c6.962-2.391,12.897-7.087,19.654-10.008c13.858-5.99,30.963-3.62,42.669,5.913
		c2.83,2.305,5.4,5.012,8.66,6.653c9.816,4.94,21.385-1.318,32.372-1.546c7.656-0.158,15.062,2.687,21.883,6.165
		c4.323,2.204,8.49,4.675,12.586,7.269h27.593C800.868,1918.906,799.72,1917.779,798.622,1916.581z"/>
	<path fill="#4EB1DA" d="M1032.86,1264.211c-12.925-8.146-26.907-18.507-28.692-33.678c-1.544-13.126,6.688-25.187,14.52-35.834
		c6.372-8.662,5.5-22.105,5.239-32.854c-0.099-4.075-0.473-8.246-2.203-11.936c-2.176-4.642-6.258-8.052-9.495-12.028
		c-6.551-8.046-9.648-18.811-8.374-29.107c0.633-5.119,2.293-10.261,1.355-15.333c-1.719-9.296-11.309-14.817-20.266-17.844
		c-18.227-6.16-38.69-7.629-54.025-19.248c-8.553-6.48-14.788-15.661-23.452-21.992c-16.343-11.943-38.148-11.863-58.317-13.6
		c-7.022-0.605-14.207-1.544-20.421-4.87c-11.217-6.003-17.385-19.25-17.116-31.967c0.203-9.576,3.566-18.898,3.555-28.477
		c-0.011-9.696-3.464-19.018-6.871-28.096c-0.831-2.215-3.023-4.917-4.959-3.557c-6.576-7.105,0.352-21.842,7.784-28.046
		c7.433-6.203,17.172-8.861,25.344-14.052c7.356-4.672,13.276-11.287,20.363-16.357c13.678-9.788,30.895-13.266,47.676-14.418
		c16.781-1.152,33.7-0.229,50.386-2.35c30.53-3.881,59.221-17.958,83.205-37.239c5.006-4.024,9.98-8.479,12.545-14.367
		c2.16-4.957,2.423-10.511,2.452-15.917c0.06-11.289-0.72-22.873,2.835-33.588c2.145-6.465,5.807-12.376,7.621-18.942
		c3.031-10.972,0.571-22.906-4.59-33.052c-5.161-10.146-12.84-18.769-20.724-26.98c-9.887-10.297-20.983-21.895-20.621-36.165
		c0.24-9.472,5.623-17.994,7.785-27.219c2.05-8.747-0.625-20.159-8.828-22.907c-5.319-1.782-9.429-7.802-8.995-13.394
		c0.427-5.495,3.133-10.523,4.3-15.901c2.629-12.115-2.756-24.484-9.106-35.13c-6.35-10.647-13.954-20.988-16.432-33.134
		c-1.791-8.779-0.76-17.948-2.547-26.728c-1.9-9.335-6.962-18.645-4.553-27.861c3.494-13.365,19.606-17.83,31.992-23.95
		c12.051-5.955,22.618-15.924,26.79-28.701c2.835-8.68,2.605-18.102,5.161-26.868c3.912-13.42,14.321-25.743,12.148-39.552
		c-1.742-11.065-11.052-19.076-19.131-26.836c-8.08-7.76-16.022-18.034-13.858-29.025c0.834-4.237,3.117-8.029,4.619-12.077
		c4.127-11.123,2.178-23.497-0.365-35.085c-0.897-4.086-1.912-8.271-4.325-11.689c-2.413-3.418-6.568-5.932-10.69-5.21
		c-9.742-2.027-18.578-13.725-20.019-23.569c-1.002-6.844,0.886-14.103-1.496-20.597c-2.549-6.951-9.456-11.382-16.445-13.827
		c-6.989-2.445-14.451-3.424-21.31-6.214c-7.779-3.165-14.597-8.588-22.685-10.852c-5.828-1.631-11.977-1.523-18.026-1.723
		c-15.454-0.509-31.057-3.182-44.944-9.98c-11.786-5.77-21.955-14.299-32.808-21.676s-22.986-13.792-36.096-14.393
		c-22.51-1.032-43.659,15.145-65.983,12.077c-13.718-1.885-27.352-10.908-40.371-9.152c-4.096,0.552-8.232,0.568-12.317-0.06
		c-25.366-3.901-51.338,11.276-77.705,10.823c-33.436-0.575-64.157-24.511-97.393-20.816c-12.101,1.345-23.566,6.336-35.662,7.732
		c-32.972,3.805-63.008-19.135-95.872-23.782c-16.954-2.397-34.441,0.138-51.179-3.472c-10.001-2.157-19.401-6.439-29.088-9.731
		c-0.249-0.033-0.499-0.053-0.748-0.089c-4.171-0.605-8.175-1.921-12.301-2.734c-7.36-1.45-14.811,0.336-21.457,3.561
		c-6.436,3.123-12.24,7.352-18.386,10.981c-1.373,0.811-2.769,1.528-4.203,2.135c-10.764,6.956-24.625,8.913-37.63,8.101
		c-15.652-0.977-30.9-5.371-46.495-7.028c-15.595-1.657-32.448-0.201-45.014,9.181c-7.924,5.916-13.648,14.623-22.247,19.506
		c-6.518,3.701-14.334,4.978-20.309,9.504c-8.085,6.124-11.106,16.838-12.959,26.735c-1.944,10.379-2.952,20.911-3.211,31.467
		c-0.285,11.622-0.993,21.824-8.451,30.871c-2.831,3.434-6.207,6.393-8.973,9.879c-9.541,12.021-4.997,13.809-2.881,29.009
		c0.535,3.842,2.175,6.729,3.35,10.426c1.893,5.954,3.809,12.198,2.71,18.348c-1.881,10.525-11.85,17.603-16.295,27.327
		c-3.362,7.355-3.291,16.195,0.189,23.495c9.024,18.927,1.038,42.423,3.9,63.194c1.708,12.396,7.93,24.407,6.184,36.798
		c-1.339,9.497-7.31,18.256-6.648,27.823c0.698,10.082,8.687,18.24,17.417,23.335c11.054,6.451,23.734,9.469,35.484,14.542
		c11.75,5.073,23.284,13.091,27.509,25.17c1.694,4.844,2.126,10.123,4.396,14.726c4.983,10.106,17.528,14.625,22.874,24.544
		c4.482,8.316,2.437,19.61-4.677,25.827c-4.055,3.544-9.46,5.538-13.392,9.075c-4.172,3.752-5.754,9.461-4.325,14.886
		c2.774,10.536,16.289,10.787,20.369,19.394c1.194,2.519,1.354,5.386,1.494,8.171c0.217,4.316,0.224,9.202-2.866,12.224
		c-1.933,1.89-4.679,2.614-7.218,3.544c-9.426,3.453-17.362,10.787-21.545,19.911c-3.513,7.663-5.996,14.641-12.538,19.958
		c-4.515,3.67-10.354,6.519-12.289,12.006c-2.103,5.963,1.34,12.286,2.515,18.498c1.216,6.427-0.129,13.303-3.676,18.799
		c-2.431,3.766-5.814,6.859-8.132,10.695c-8.47,14.015-0.921,34.184-10.867,47.194c-3.398,4.445-8.559,7.536-11.036,12.553
		c-6.18,12.52,7.77,26.656,5.851,40.485c-2.065,14.886-20.566,21.442-27.348,34.854c-4.674,9.243-2.651,21.411,4.761,28.645
		c3.868,3.775,8.958,6.254,12.31,10.495c7.447,9.421,4.201,24.568,12.413,33.33c4.808,5.13,12.227,6.59,18.664,9.421
		c13.442,5.913,23.77,22.102,17.519,35.389c-2.245,4.771-6.229,8.449-9.571,12.527c-5.035,6.143-8.788,13.707-8.759,21.649
		c0.031,8.538,5.201,17.375,13.642,19.527c3.898,0.994,7.161,3.848,8.033,7.774c1.328,5.982-2.608,11.175-7.358,14.291
		c-3.919,2.571-8.436,4.05-12.676,6.049c-19.915,9.389-33.121,31.521-31.737,53.492c0.531,8.432,2.981,17.085,0.475,25.154
		c-2.603,8.382-10.039,14.353-13.874,22.248c-6.954,14.316-0.806,31.395,6.669,45.445c7.475,14.051,16.573,28.587,15.38,44.457
		c-0.68,9.04-4.736,17.849-3.6,26.844c0.787,6.237,4,11.862,6.162,17.766c4.049,11.058,4.369,23.444,0.894,34.696
		c-2.412,7.809-6.581,15.068-8.171,23.085c-3.31,16.694,6.839,34.769,22.265,41.54c6.704,2.943,12.915,11.174,13.669,18.456
		c0.751,7.25,1.176,14.854-1.671,21.565c-3.274,7.719-10.361,13.091-15.028,20.056c-1.274,1.902-2.365,3.921-3.623,5.833
		c-6.257,9.514-2.524,23.951,1.214,34.707c3.738,10.756,9.394,20.916,11.511,32.105c3.106,16.422-2.183,34.209-13.758,46.266
		c-7.37,7.677-17.972,15.275-16.555,25.822c0.653,4.86,3.876,8.907,6.409,13.106c9.576,15.872,9.522,37.07-0.135,52.893
		c-5.698,9.335-14.585,17.294-16.398,28.079c-2.896,17.222,13.39,32.014,15.194,49.385c0.918,8.84-2.012,17.801-0.685,26.588
		c1.807,11.969,11.071,21.334,20.496,28.93s19.835,14.711,25.672,25.316c3.762,6.834,5.39,14.762,9.754,21.229
		c8.721,12.922,25.704,16.764,41.04,19.573l42.615,7.806c22.843,4.184,48.733,2.616,67.548,16.227
		c9.84,7.118,17.492,17.312,28.403,22.646c22.309,10.905,49.001-2.017,73.607,1.334c14.314,1.949,26.742,9.139,38.693,17.545
		h149.817c8.303-6.355,18.798-4.704,28.136-7.552c17.961-5.478,28.295-26.323,46.561-30.678c11.38-2.713,23.212,1.684,34.907,1.371
		c19.279-0.516,37.86-13.752,56.548-8.99c13.868,3.534,23.784,16.229,37.405,20.618c7.007,2.258,14.531,2.16,21.788,3.402
		c12.859,2.202,24.927,8.786,33.739,18.406c1.097,1.198,2.246,2.326,3.416,3.422H954.17c2.707-3.971,5.313-8.031,8.701-11.418
		c10.271-10.268,25.705-12.682,39.51-17.196c13.805-4.514,28.488-14.14,29.194-28.644c0.443-9.089-4.9-18.152-2.607-26.957
		c2.49-9.559,13.157-15.332,15.498-24.928c1.138-4.663,0.127-9.67,1.417-14.293c1.745-6.25,7.327-10.672,10.061-16.557
		c5.557-11.963-1.841-26.003-0.226-39.094c1.823-14.777,14.185-24.955,24.281-36.383v-418.753
		c-6.074-1.875-12.209-3.66-17.965-5.897C1051.729,1275.876,1042.214,1270.106,1032.86,1264.211z"/>
	<linearGradient id="SVGID_1_" gradientUnits="userSpaceOnUse" x1="1.220703e-04" y1="960.0024" x2="1080" y2="960.0024">
		<stop  offset="0" style="stop-color:#00A2BE"/>
		<stop  offset="1" style="stop-color:#00A0E0;stop-opacity:0"/>
	</linearGradient>
	<rect x="0" y="0.002" opacity="0.7" fill="url(#SVGID_1_)" width="1080" height="1920"/>
	
		<linearGradient id="SVGID_00000108267070588317848580000011030283323594384054_" gradientUnits="userSpaceOnUse" x1="1253.6896" y1="960.0024" x2="598.3343" y2="960.0024">
		<stop  offset="0" style="stop-color:#00A2BE"/>
		<stop  offset="1" style="stop-color:#00A0E0;stop-opacity:0"/>
	</linearGradient>
	<rect x="0" y="0.002" fill="url(#SVGID_00000108267070588317848580000011030283323594384054_)" width="1080" height="1920"/>
</g>
<g id="_x31_7">
</g>
<g id="_x31_5">
</g>
<g id="_x31_4">
</g>
<g id="_x31_3">
</g>
<g id="_x31_2">
</g>
<g id="_x31_1">
</g>
<g id="_x31_0">
</g>
<g id="_x38_">
</g>
<g id="_x37_">
</g>
<g id="_x36_">
</g>
<g id="_x35_">
</g>
<g id="_x31_">
</g>
</svg>
