<?xml version="1.0" encoding="utf-8"?>
<!-- Generator: Adobe Illustrator 27.9.0, SVG Export Plug-In . SVG Version: 6.00 Build 0)  -->
<svg version="1.1" xmlns="http://www.w3.org/2000/svg" xmlns:xlink="http://www.w3.org/1999/xlink" x="0px" y="0px"
	 viewBox="0 0 674.7 668.84" enable-background="new 0 0 674.7 668.84" xml:space="preserve">
<g id="_x31_6">
</g>
<g id="_x31_5" opacity="0.69">
</g>
<g id="_x31_4">
</g>
<g id="_x31_3">
</g>
<g id="_x31_2">
</g>
<g id="_x31_1">
</g>
<g id="_x31_0">
</g>
<g id="_x38_">
</g>
<g id="_x37_">
</g>
<g id="_x36_">
</g>
<g id="_x35_">
</g>
<g id="_x34_">
</g>
<g id="_x33_">
</g>
<g id="_x32_">
	<g>
		<path opacity="0.48" fill="#282828" d="M643,667.41c2.82,0.27,5.64,0.54,8.45,0.8c5.05,0.48,10.15,0.96,15.18,0.31
			c1.62-0.21,3.25-0.55,4.69-1.31s2.7-1.99,3.19-3.55c0.18-0.57,0.26-1.19,0.1-1.76c-0.1-0.35-0.28-0.67-0.48-0.97
			c-2.23-3.41-6.49-4.82-10.49-5.64c-7-1.44-14.18-1.84-21.32-2.23c-4.78-0.26-9.67-0.51-14.28,0.79c-0.81,0.23-1.62,0.51-2.31,0.99
			c-1.3,0.9-2.37,2.68-2.68,4.23c-0.33,1.64,0.73,2.69,2,3.58c3.24,2.27,7.27,3.32,11.12,3.96
			C638.45,666.96,640.73,667.19,643,667.41z"/>
		<path opacity="0.48" fill="#282828" d="M636.12,664.97c4.39,0.38,8.82,0.14,13.2,0.59c1.28,0.13,2.56,0.32,3.85,0.33
			c0.83,0.01,1.65-0.06,2.47-0.13c1.82-0.15,3.65-0.29,5.48-0.2c1.83,0.09,3.83,0.39,5.37-0.61c1.75-1.13,2.2-3.59,1.65-5.6
			c-0.23-0.84-0.63-1.68-1.36-2.15c-0.5-0.33-1.11-0.45-1.7-0.53c-2.02-0.29-4.06-0.24-6.1-0.21c-9.71,0.18-19.43,0.19-29.14,0.02
			c-2.33-0.04-6.36,0.33-6.05,3.62c0.11,1.18,1.32,1.7,2.26,2.21c1.46,0.78,3.02,1.35,4.62,1.77
			C632.45,664.54,634.28,664.82,636.12,664.97z"/>
		<g>
			<path fill="none" d="M614.64,644.91c-0.01-0.2-0.03-0.4-0.04-0.6C614.59,644.31,614.56,644.53,614.64,644.91z"/>
			<polygon fill="#474747" points="664.61,663.16 663.89,660.26 667.06,653.41 667.06,656.78 			"/>
			<path fill="#542709" d="M634.17,645.03c-13.05-2.9-19.57-0.72-19.57-0.72c0.01,0.19,0.03,0.37,0.04,0.56
				c2.26-0.22,6.91-0.55,12.71-0.25c6.49,0.33,29.3,7.54,38.83,10.63l0.84-1.85C662.38,652.13,645.35,647.52,634.17,645.03z"/>
			<g>
				<path fill="#996B33" d="M643.08,648.17c-1.45,2.78-2.9,5.56-4.35,8.34c2.17,0.44,4.36,0.85,6.5,1.21
					c1.28-2.62,2.6-5.23,4.08-7.74C647.22,649.36,645.12,648.74,643.08,648.17z"/>
				<path fill="#996B33" d="M651.77,650.72c-1.23,2.53-2.59,5-4.05,7.41c3.77,0.6,7.25,1.08,10.02,1.42
					c0.86-2.06,1.67-4.16,2.6-6.18C657.73,652.55,654.8,651.64,651.77,650.72z"/>
				<path fill="#996B33" d="M640.12,647.35c-5.52-1.5-10.31-2.61-12.77-2.74c-5.81-0.3-10.46,0.03-12.71,0.25c0,0.02,0,0.03,0,0.05
					c0.28,1.47,2.08,5.37,13,8.82c2.25,0.71,4.73,1.36,7.31,1.96c0.65-1.2,1.38-2.36,2.11-3.51
					C638.08,650.57,639.1,648.96,640.12,647.35z"/>
				<path fill="#996B33" d="M666.18,655.24c-0.99-0.32-2.12-0.69-3.36-1.08c-0.8,1.91-1.59,3.81-2.39,5.72
					c2.15,0.25,3.46,0.38,3.46,0.38L666.18,655.24z"/>
				<path opacity="0.7" fill="#282828" d="M640.12,647.35c-1.02,1.61-2.04,3.22-3.06,4.83c-0.73,1.15-1.46,2.31-2.11,3.51
					c1.24,0.29,2.51,0.56,3.78,0.82c1.45-2.78,2.9-5.56,4.35-8.34C642.07,647.88,641.08,647.61,640.12,647.35z"/>
				<path fill="#664420" d="M640.12,647.35c-1.02,1.61-2.04,3.22-3.06,4.83c-0.73,1.15-1.46,2.31-2.11,3.51
					c1.24,0.29,2.51,0.56,3.78,0.82c1.45-2.78,2.9-5.56,4.35-8.34C642.07,647.88,641.08,647.61,640.12,647.35z"/>
				<path opacity="0.7" fill="#282828" d="M649.31,649.98c-1.48,2.51-2.8,5.12-4.08,7.74c0.84,0.14,1.67,0.28,2.49,0.41
					c1.46-2.41,2.82-4.88,4.05-7.41C650.96,650.47,650.14,650.22,649.31,649.98z"/>
				<path fill="#664420" d="M649.31,649.98c-1.48,2.51-2.8,5.12-4.08,7.74c0.84,0.14,1.67,0.28,2.49,0.41
					c1.46-2.41,2.82-4.88,4.05-7.41C650.96,650.47,650.14,650.22,649.31,649.98z"/>
				<path opacity="0.7" fill="#282828" d="M660.34,653.37c-0.93,2.02-1.73,4.12-2.6,6.18c1,0.12,1.9,0.23,2.69,0.32
					c0.8-1.91,1.59-3.81,2.39-5.72C662.03,653.91,661.21,653.65,660.34,653.37z"/>
				<path fill="#664420" d="M660.34,653.37c-0.93,2.02-1.73,4.12-2.6,6.18c1,0.12,1.9,0.23,2.69,0.32c0.8-1.91,1.59-3.81,2.39-5.72
					C662.03,653.91,661.21,653.65,660.34,653.37z"/>
			</g>
			<path fill="#542709" d="M634.17,600.82l-1.34,48.99c-0.01,0.5,0.39,0.91,0.89,0.91h0.33c0.5,0,0.9-0.41,0.89-0.9L634.17,600.82z"
				/>
			<polygon fill="#542709" points="614.64,644.91 590.67,634.89 591.4,634.89 616.04,644.31 			"/>
			<g>
				<path fill="none" d="M617.56,654.96c-0.04-0.07-0.09-0.15-0.13-0.23c-0.56-0.4-1.1-0.83-1.62-1.27
					C616.37,653.98,616.96,654.48,617.56,654.96z"/>
				<path fill="none" d="M611.34,645.37c1.15,1.89,2.6,3.57,4.25,5.04c-0.08-0.28-0.16-0.56-0.24-0.85
					C613.91,648.28,612.56,646.89,611.34,645.37z"/>
				<path fill="#542709" d="M667.02,653.4l-3.13,6.86c0,0-22.47-2.17-36.24-6.52c-10.93-3.45-12.73-7.35-13-8.82
					c0.04,0.59,0.1,1.14,0.17,1.69c2.19,2.83,4.8,5.27,7.76,6.41c2.43,0.93,4.68,1.78,7.25,2.17c3.95,0.6,6.89,1.83,10.87,2.17
					c2.62,0.23,5.64,0.6,8.23,1.08c4.09,0.75,8.12,2.24,12.27,2.03c-9.02,0.44-18.16,0.47-26.95-1.6c-6.89-1.62-13.6-4.66-18.88-9.3
					c0.07,0.29,0.15,0.57,0.24,0.85c1.57,1.4,3.31,2.62,5.13,3.67c3.74,2.15,7.82,3.64,11.9,5.04c4.08,1.4,8.25,2.73,12.55,2.89
					c-5.18-0.31-10.39-0.69-15.44-1.9c-4.38-1.05-8.67-2.75-12.3-5.39c0.04,0.08,0.09,0.16,0.13,0.23c5.16,4.16,11.6,6.87,18.19,7.3
					c-4.89-0.39-9.86-1.18-14.42-2.91c2.22,1.8,4.13,2.35,4.13,2.35c12.32,2.17,39.14,1.45,39.14,1.45l2.45-6.38v-3.37
					C667.05,653.41,667.03,653.4,667.02,653.4z"/>
				<path fill="#7C3C11" d="M634.25,658.86c8.79,2.07,17.93,2.03,26.95,1.6c-4.15,0.22-8.18-1.28-12.27-2.03
					c-2.59-0.47-5.61-0.85-8.23-1.08c-3.98-0.35-6.92-1.57-10.87-2.17c-2.57-0.39-4.82-1.25-7.25-2.17
					c-2.96-1.13-5.57-3.58-7.76-6.41c0.14,1.05,0.32,2.04,0.55,2.96C620.65,654.2,627.35,657.24,634.25,658.86z"/>
				<path fill="#7C3C11" d="M629.73,660.12c5.05,1.2,10.26,1.58,15.44,1.9c-4.31-0.16-8.48-1.5-12.55-2.89
					c-4.08-1.4-8.16-2.89-11.9-5.04c-1.82-1.05-3.56-2.27-5.13-3.67c0.49,1.66,1.12,3.09,1.83,4.32
					C621.06,657.37,625.35,659.08,629.73,660.12z"/>
				<path fill="#7C3C11" d="M617.56,654.96c1.17,1.95,2.52,3.37,3.78,4.39c4.56,1.73,9.53,2.52,14.42,2.91
					C629.16,661.84,622.72,659.12,617.56,654.96z"/>
			</g>
			<g>
				<path fill="#7C3C11" d="M633.95,600.66c-1.17,1.46-2.18,3.05-3.31,4.53c-1.08,1.42-2.2,2.8-3.36,4.15
					c-2.37,2.76-4.91,5.36-7.61,7.8c-5.41,4.9-11.41,9.11-17.83,12.58c-3.62,1.95-7.36,3.58-11.19,5.07
					c-0.16,0.06,0.03,0.25,0.16,0.21c3.47-1.16,6.84-2.7,10.09-4.36c3.27-1.67,6.43-3.57,9.46-5.64
					c6.03-4.13,11.54-9.04,16.37-14.52c1.36-1.54,2.66-3.13,3.9-4.76c1.21-1.59,2.47-3.21,3.42-4.97
					C634.06,600.69,634,600.61,633.95,600.66L633.95,600.66z"/>
			</g>
			<g>
				<path fill="#7C3C11" d="M634.31,601.45c-0.48,0.88-0.8,1.83-1.16,2.76c-0.38,0.99-0.78,1.97-1.18,2.95
					c-0.77,1.9-1.59,3.79-2.45,5.65c-1.61,3.47-3.34,6.85-5.85,9.77c-2.36,2.74-5.14,5.07-7.98,7.29c-2.88,2.27-5.92,4.4-9.31,5.84
					c-1.96,0.83-4.05,1.4-6.17,1.6c-2.26,0.22-4.5-0.05-6.67-0.67c-0.2-0.06-0.43,0.25-0.19,0.35c3.49,1.46,7.64,1.02,11.15-0.12
					c3.64-1.18,6.91-3.25,9.95-5.54c2.97-2.24,5.89-4.63,8.44-7.35c1.26-1.35,2.43-2.79,3.43-4.35c1.1-1.69,2-3.5,2.86-5.33
					c0.99-2.08,1.93-4.18,2.82-6.3c0.46-1.09,0.9-2.19,1.33-3.29c0.41-1.05,0.85-2.1,1.07-3.2
					C634.4,601.48,634.34,601.39,634.31,601.45L634.31,601.45z"/>
			</g>
			<g>
				<path fill="#7C3C11" d="M634.1,600.23c-0.22,2.35-0.2,4.73-0.1,7.09c0.09,2.36,0.3,4.71,0.63,7.04
					c0.65,4.58,1.73,9.12,3.24,13.5c1.42,4.13,3.31,8.02,6.04,11.44c2.6,3.26,5.75,6.03,9.16,8.4c4.17,2.9,8.73,5.26,13.39,7.27
					c0.21,0.09,0.42-0.19,0.18-0.3c-4.04-1.92-8.07-3.9-11.83-6.35c-3.54-2.3-6.85-5.01-9.64-8.19c-2.81-3.2-4.91-6.87-6.42-10.84
					c-1.64-4.31-2.77-8.86-3.5-13.41c-0.41-2.55-0.69-5.12-0.84-7.69c-0.15-2.65-0.06-5.27,0.02-7.92
					C634.45,600.1,634.12,600.07,634.1,600.23L634.1,600.23z"/>
			</g>
			<g>
				<path fill="#7C3C11" d="M633.97,600.05c0.42,4.53,1.55,9.05,2.82,13.4c1.26,4.32,2.78,8.57,4.46,12.74
					c1.69,4.21,3.53,8.37,5.45,12.48c1.87,4.02,3.97,7.9,6.77,11.36c3.05,3.78,6.64,7.12,10.2,10.41c0.16,0.15,0.46-0.08,0.27-0.25
					c-3.2-2.9-6.4-5.78-9.22-9.07c-2.91-3.38-5.18-7.14-7.11-11.15c-3.9-8.11-7.41-16.51-10.03-25.12c-0.73-2.39-1.37-4.8-1.93-7.23
					c-0.58-2.51-1.02-5.04-1.47-7.58C634.16,599.94,633.96,599.91,633.97,600.05L633.97,600.05z"/>
			</g>
			<g>
				<path fill="#7C3C11" d="M634.39,602.85c-0.76,1.46-0.88,3.09-0.89,4.71c-0.01,1.93,0.05,3.84-0.42,5.73
					c-0.49,1.97-1.36,3.82-2.12,5.7c-0.3,0.74-0.65,1.49-0.18,2.24c0.46,0.75,1.25,1.32,1.93,1.86c1.15,0.92,2.56,1.96,2.92,3.48
					c0.2,0.85,0.01,1.69-0.43,2.43c-0.43,0.7-1.03,1.29-1.62,1.85c-0.54,0.51-1.26,1.03-1.61,1.7c-0.79,1.55,1.34,2.36,2.14,3.23
					c1.56,1.69-1.52,2.94-0.76,4.65c0.04,0.1,0.1,0.19,0.17,0.27c0.28,0.35,0.51,0.77,0.16,1.13c-0.31,0.32-0.74,0.52-0.99,0.9
					c-0.42,0.6-0.33,1.42-0.09,2.08c0.33,0.9,1.05,1.58,1.56,2.38c0.6,0.96,0.67,2.02,0.69,3.12c0,0.07,0.14,0.16,0.16,0.06
					c0.16-0.86,0.08-1.76-0.25-2.58c-0.37-0.92-1.09-1.61-1.6-2.44c-0.46-0.75-0.75-1.8-0.18-2.58c0.31-0.43,0.99-0.73,1.06-1.3
					c0.03-0.21-0.06-0.39-0.18-0.56c-0.11-0.17-0.27-0.3-0.34-0.5c-0.11-0.32-0.06-0.66,0.05-0.97c0.29-0.84,1.07-1.46,1.19-2.37
					c0.22-1.74-2.18-2.07-2.67-3.46c-0.35-0.98,0.74-1.76,1.36-2.34c0.59-0.56,1.2-1.11,1.68-1.77c0.93-1.28,1-2.73,0.21-4.1
					c-0.91-1.57-2.58-2.42-3.81-3.7c-0.38-0.4-0.74-0.85-0.65-1.44c0.07-0.49,0.32-0.97,0.51-1.42c0.41-0.99,0.84-1.98,1.22-2.98
					c0.39-1.02,0.73-2.06,0.95-3.13c0.21-1.06,0.26-2.13,0.25-3.2c-0.02-2.23-0.19-4.51,0.66-6.63
					C634.48,602.86,634.42,602.8,634.39,602.85L634.39,602.85z"/>
			</g>
			<g>
				<path fill="#7C3C11" d="M590.67,634.8c0.62,0.23,1.17,0.54,1.57,1.08c0.24,0.33,0.35,0.93,0.82,1c1.12,0.16,1.36-1.65,2.42-1.63
					c-0.04-0.04-0.08-0.09-0.11-0.13c-0.08,0.83-0.22,1.66-0.31,2.5c-0.01,0.09,0.09,0.19,0.18,0.15c0.38-0.17,0.75-0.37,1.07-0.63
					c0.03-0.03,0.43-0.42,0.46-0.42c0.15,0.02,0.2,0.33,0.22,0.44c0.01,0.05-0.01,0.1,0,0.15c0.02,0.19,0.09,0.37,0.29,0.42
					c0.17,0.04,0.33-0.03,0.37-0.21c-0.07-0.02-0.14-0.04-0.21-0.05c0.17,1.1,0.35,2.17,0.41,3.28c0.05,1.18-0.03,2.32-0.15,3.49
					c-0.01,0.15,0.3,0.21,0.32,0.05c0.14-1.1,0.15-2.24,0.1-3.35c-0.05-1.15-0.17-2.35-0.47-3.47c-0.02-0.09-0.21-0.17-0.21-0.03
					c-0.24-0.04-0.35-0.15-0.34-0.32c0-0.06,0-0.12-0.01-0.18c-0.01-0.05-0.01-0.1-0.03-0.15c-0.04-0.14-0.1-0.21-0.22-0.29
					c-0.01-0.01-0.03-0.01-0.05,0c-0.5,0.45-1.07,0.8-1.69,1.05c0.06,0.05,0.12,0.1,0.18,0.15c0.1-0.84,0.16-1.68,0.27-2.52
					c0.01-0.06-0.05-0.13-0.11-0.13c-0.38-0.01-0.67,0.16-0.94,0.42c-0.31,0.29-0.65,0.91-1.07,1.03c-0.45,0.13-0.65-0.36-0.89-0.65
					c-0.18-0.22-0.38-0.42-0.61-0.6c-0.37-0.28-0.8-0.51-1.25-0.59C590.6,634.65,590.61,634.78,590.67,634.8L590.67,634.8z"/>
			</g>
			<path opacity="0.48" fill="#282828" d="M633.96,651.5c1.97,1.06,4.24,1.35,6.46,1.63c1.71,0.21,3.42,0.42,5.13,0.64
				c0.75,0.09,1.59,0.24,2.04,0.85c0.26,0.36,0.36,0.87,0.75,1.08c0.23,0.13,0.5,0.12,0.77,0.11c2.28-0.05,4.53,0.39,6.77,0.83
				c0.83,0.16,1.75,0.38,2.21,1.09c0.17,0.25,0.26,0.55,0.43,0.8c0.33,0.46,0.89,0.67,1.42,0.86c0.18,0.07,0.37,0.13,0.56,0.1
				s0.37-0.19,0.35-0.39c-0.02-0.21-0.25-0.32-0.43-0.43c-1.08-0.63-1.33-2.1-2.24-2.95c-0.75-0.7-1.82-0.88-2.82-1.04
				c-1.63-0.26-3.27-0.51-4.9-0.77c-0.33-0.05-0.68-0.12-0.91-0.36c-0.33-0.34-0.27-0.89-0.46-1.32c-0.19-0.44-0.63-0.74-1.09-0.88
				s-0.95-0.15-1.44-0.16c-2.55-0.08-5.1-0.43-7.58-1.05c-0.12-0.03-0.24-0.06-0.32-0.15c-0.11-0.12-0.11-0.29-0.2-0.42
				c-0.13-0.2-0.41-0.24-0.65-0.25c-0.71-0.04-1.41-0.08-2.12-0.11c-0.74-0.03-2.13-0.1-2.66,0.57
				C632.47,650.46,633.4,651.2,633.96,651.5z"/>
		</g>
		<path opacity="0.48" fill="#282828" d="M31.21,61.53c-2.57,0.24-5.14,0.49-7.71,0.73c-4.61,0.44-9.26,0.88-13.85,0.28
			c-1.48-0.19-2.96-0.5-4.28-1.19c-1.32-0.69-2.46-1.82-2.91-3.24c-0.17-0.52-0.23-1.09-0.09-1.61c0.09-0.32,0.25-0.61,0.44-0.89
			c2.03-3.12,5.92-4.39,9.57-5.14c6.39-1.32,12.93-1.68,19.45-2.03c4.36-0.24,8.82-0.47,13.02,0.72c0.74,0.21,1.47,0.46,2.1,0.9
			c1.18,0.82,2.16,2.44,2.44,3.86c0.3,1.5-0.67,2.45-1.83,3.26c-2.96,2.07-6.63,3.03-10.15,3.61
			C35.36,61.13,33.28,61.33,31.21,61.53z"/>
		<path opacity="0.48" fill="#282828" d="M15.56,59.8c4.08-0.32,8.14-1.02,12.21-1.29c1.19-0.08,2.39-0.12,3.58-0.28
			c0.76-0.1,1.51-0.25,2.27-0.39c1.67-0.32,3.34-0.64,5.03-0.81c1.7-0.17,3.56-0.24,4.9-1.05c1.52-0.91,1.73-2.48,1.05-3.64
			c-0.28-0.49-0.72-0.95-1.44-1.15c-0.49-0.14-1.06-0.13-1.61-0.11c-1.88,0.08-3.76,0.36-5.64,0.64
			c-8.93,1.33-17.89,2.55-26.85,3.66c-2.15,0.27-5.83,1-5.27,2.98c0.2,0.71,1.36,0.88,2.27,1.07c1.41,0.3,2.89,0.45,4.4,0.51
			C12.15,59.99,13.86,59.93,15.56,59.8z"/>
		<g>
			<path fill="none" d="M47.82,41.01c0.01-0.18,0.03-0.36,0.04-0.55C47.86,40.46,47.89,40.66,47.82,41.01z"/>
			<polygon fill="#474747" points="2.24,57.65 2.9,55.01 0,48.77 0,51.84 			"/>
			<path fill="#542709" d="M30.01,41.12c11.9-2.65,17.85-0.66,17.85-0.66c-0.01,0.17-0.02,0.34-0.04,0.51
				c-2.06-0.2-6.3-0.5-11.6-0.23c-5.92,0.3-26.73,6.88-35.42,9.7l-0.77-1.68C4.28,47.6,19.81,43.39,30.01,41.12z"/>
			<g>
				<path fill="#996B33" d="M21.88,43.98c1.32,2.54,2.64,5.07,3.96,7.61c-1.98,0.4-3.98,0.77-5.93,1.11
					c-1.17-2.39-2.37-4.77-3.72-7.06C18.1,45.07,20.02,44.51,21.88,43.98z"/>
				<path fill="#996B33" d="M13.95,46.31c1.12,2.31,2.36,4.56,3.69,6.76c-3.44,0.55-6.62,0.98-9.14,1.3
					c-0.79-1.88-1.53-3.79-2.37-5.64C8.51,47.98,11.19,47.15,13.95,46.31z"/>
				<path fill="#996B33" d="M24.58,43.23c5.04-1.37,9.41-2.38,11.65-2.5c5.3-0.27,9.54,0.03,11.6,0.23c0,0.01,0,0.03,0,0.04
					c-0.25,1.34-1.9,4.9-11.86,8.05c-2.05,0.65-4.32,1.24-6.67,1.78c-0.59-1.09-1.26-2.15-1.92-3.2
					C26.44,46.17,25.51,44.7,24.58,43.23z"/>
				<path fill="#996B33" d="M0.81,50.44c0.9-0.29,1.93-0.63,3.06-0.99c0.73,1.74,1.45,3.48,2.18,5.22
					c-1.96,0.23-3.15,0.34-3.15,0.34L0.81,50.44z"/>
				<path opacity="0.7" fill="#282828" d="M24.58,43.23c0.93,1.47,1.86,2.94,2.79,4.41c0.67,1.05,1.33,2.11,1.92,3.2
					c-1.13,0.26-2.29,0.51-3.45,0.75c-1.32-2.54-2.64-5.07-3.96-7.61C22.8,43.72,23.7,43.47,24.58,43.23z"/>
				<path fill="#664420" d="M24.58,43.23c0.93,1.47,1.86,2.94,2.79,4.41c0.67,1.05,1.33,2.11,1.92,3.2
					c-1.13,0.26-2.29,0.51-3.45,0.75c-1.32-2.54-2.64-5.07-3.96-7.61C22.8,43.72,23.7,43.47,24.58,43.23z"/>
				<path opacity="0.7" fill="#282828" d="M16.19,45.63c1.35,2.29,2.55,4.67,3.72,7.06c-0.77,0.13-1.53,0.26-2.28,0.38
					c-1.33-2.2-2.57-4.45-3.69-6.76C14.69,46.08,15.44,45.86,16.19,45.63z"/>
				<path fill="#664420" d="M16.19,45.63c1.35,2.29,2.55,4.67,3.72,7.06c-0.77,0.13-1.53,0.26-2.28,0.38
					c-1.33-2.2-2.57-4.45-3.69-6.76C14.69,46.08,15.44,45.86,16.19,45.63z"/>
				<path opacity="0.7" fill="#282828" d="M6.13,48.73c0.85,1.85,1.58,3.76,2.37,5.64c-0.91,0.11-1.73,0.21-2.45,0.3
					c-0.73-1.74-1.45-3.48-2.18-5.22C4.59,49.22,5.34,48.98,6.13,48.73z"/>
				<path fill="#664420" d="M6.13,48.73c0.85,1.85,1.58,3.76,2.37,5.64c-0.91,0.11-1.73,0.21-2.45,0.3
					c-0.73-1.74-1.45-3.48-2.18-5.22C4.59,49.22,5.34,48.98,6.13,48.73z"/>
			</g>
			<path fill="#542709" d="M30.01,0.79l1.22,44.69c0.01,0.46-0.35,0.83-0.81,0.83h-0.3c-0.45,0-0.82-0.37-0.81-0.82L30.01,0.79z"/>
			<polygon fill="#542709" points="47.82,41.01 69.69,31.87 69.02,31.87 46.54,40.46 			"/>
			<g>
				<path fill="none" d="M45.16,50.18c0.04-0.07,0.08-0.14,0.12-0.21c0.51-0.37,1-0.75,1.48-1.16
					C46.24,49.28,45.7,49.74,45.16,50.18z"/>
				<path fill="none" d="M50.83,41.43c-1.05,1.73-2.38,3.25-3.88,4.6c0.07-0.25,0.15-0.51,0.22-0.78
					C48.49,44.09,49.72,42.82,50.83,41.43z"/>
				<path fill="#542709" d="M0.04,48.75l2.86,6.26c0,0,20.5-1.98,33.06-5.95c9.97-3.15,11.61-6.71,11.86-8.05
					c-0.04,0.53-0.09,1.04-0.16,1.54c-2,2.58-4.38,4.81-7.08,5.84c-2.21,0.85-4.27,1.63-6.61,1.98c-3.6,0.55-6.29,1.67-9.92,1.98
					c-2.39,0.21-5.15,0.55-7.51,0.98c-3.73,0.68-7.4,2.05-11.19,1.85c8.23,0.4,16.56,0.43,24.58-1.46
					c6.29-1.48,12.4-4.25,17.23-8.49c-0.07,0.27-0.14,0.52-0.22,0.78c-1.43,1.28-3.02,2.39-4.68,3.35
					c-3.41,1.97-7.13,3.32-10.85,4.6c-3.72,1.28-7.52,2.49-11.45,2.64c4.73-0.29,9.48-0.63,14.09-1.73c4-0.95,7.91-2.51,11.22-4.92
					c-0.04,0.07-0.08,0.14-0.12,0.21c-4.71,3.8-10.58,6.27-16.6,6.66c4.46-0.35,8.99-1.08,13.15-2.65
					c-2.03,1.65-3.77,2.15-3.77,2.15C26.7,58.32,2.24,57.65,2.24,57.65L0,51.84l0-3.07C0.01,48.76,0.03,48.76,0.04,48.75z"/>
				<path fill="#7C3C11" d="M29.94,53.74c-8.02,1.89-16.35,1.86-24.58,1.46c3.79,0.2,7.46-1.17,11.19-1.85
					c2.36-0.43,5.12-0.77,7.51-0.98c3.63-0.32,6.32-1.43,9.92-1.98c2.34-0.36,4.4-1.14,6.61-1.98c2.7-1.03,5.08-3.26,7.08-5.84
					c-0.12,0.96-0.29,1.86-0.5,2.7C42.34,49.48,36.22,52.26,29.94,53.74z"/>
				<path fill="#7C3C11" d="M34.05,54.89c-4.61,1.1-9.36,1.44-14.09,1.73c3.93-0.15,7.73-1.36,11.45-2.64
					c3.72-1.28,7.44-2.63,10.85-4.6c1.66-0.96,3.25-2.07,4.68-3.35c-0.45,1.52-1.02,2.82-1.67,3.94
					C41.96,52.38,38.05,53.93,34.05,54.89z"/>
				<path fill="#7C3C11" d="M45.16,50.18c-1.06,1.78-2.3,3.08-3.44,4.01c-4.16,1.58-8.69,2.3-13.15,2.65
					C34.57,56.45,40.45,53.98,45.16,50.18z"/>
			</g>
			<g>
				<path fill="#7C3C11" d="M30.2,0.64c1.07,1.33,1.99,2.78,3.02,4.14c0.98,1.29,2.01,2.56,3.07,3.79c2.16,2.51,4.48,4.89,6.94,7.11
					c4.93,4.47,10.41,8.31,16.27,11.47c3.3,1.78,6.72,3.27,10.21,4.62c0.14,0.06-0.03,0.23-0.14,0.19c-3.16-1.06-6.24-2.46-9.2-3.98
					c-2.98-1.53-5.86-3.25-8.63-5.15C46.23,19.07,41.21,14.6,36.8,9.6c-1.24-1.41-2.42-2.85-3.56-4.35
					c-1.1-1.45-2.25-2.93-3.12-4.53C30.1,0.67,30.16,0.59,30.2,0.64L30.2,0.64z"/>
			</g>
			<g>
				<path fill="#7C3C11" d="M29.88,1.37c0.43,0.8,0.73,1.67,1.06,2.52c0.35,0.9,0.71,1.79,1.07,2.69c0.71,1.73,1.45,3.46,2.24,5.16
					c1.47,3.17,3.04,6.25,5.34,8.91c2.15,2.5,4.69,4.62,7.28,6.65c2.63,2.07,5.4,4.01,8.49,5.33c1.79,0.76,3.69,1.28,5.63,1.46
					c2.06,0.2,4.1-0.05,6.09-0.62c0.18-0.05,0.39,0.23,0.18,0.32c-3.18,1.33-6.97,0.93-10.17-0.11c-3.32-1.08-6.3-2.97-9.07-5.05
					c-2.71-2.04-5.37-4.22-7.7-6.7c-1.15-1.23-2.21-2.55-3.13-3.96c-1-1.55-1.82-3.2-2.61-4.86c-0.9-1.9-1.76-3.81-2.57-5.75
					c-0.42-0.99-0.82-2-1.21-3c-0.37-0.96-0.77-1.91-0.98-2.92C29.8,1.39,29.85,1.31,29.88,1.37L29.88,1.37z"/>
			</g>
			<g>
				<path fill="#7C3C11" d="M30.07,0.25c0.2,2.14,0.18,4.32,0.1,6.46c-0.08,2.15-0.27,4.29-0.58,6.42
					c-0.6,4.18-1.58,8.32-2.95,12.32c-1.3,3.77-3.02,7.31-5.51,10.44c-2.37,2.97-5.24,5.5-8.36,7.66c-3.81,2.64-7.96,4.8-12.22,6.63
					c-0.19,0.08-0.39-0.17-0.17-0.28c3.69-1.76,7.36-3.56,10.79-5.79c3.23-2.1,6.25-4.57,8.79-7.47c2.56-2.92,4.48-6.26,5.86-9.89
					c1.49-3.93,2.52-8.08,3.19-12.23c0.38-2.32,0.63-4.67,0.76-7.02c0.13-2.41,0.05-4.81-0.01-7.22C29.75,0.14,30.05,0.1,30.07,0.25
					L30.07,0.25z"/>
			</g>
			<g>
				<path fill="#7C3C11" d="M30.19,0.09c-0.38,4.13-1.41,8.25-2.57,12.23c-1.15,3.94-2.53,7.82-4.07,11.63
					c-1.54,3.84-3.22,7.63-4.97,11.38c-1.71,3.67-3.62,7.2-6.18,10.36c-2.78,3.45-6.06,6.49-9.31,9.49
					c-0.14,0.13-0.42-0.07-0.25-0.23c2.92-2.65,5.84-5.28,8.41-8.27c2.66-3.09,4.72-6.51,6.48-10.17c3.55-7.4,6.76-15.06,9.15-22.92
					c0.66-2.18,1.25-4.38,1.76-6.59c0.53-2.29,0.93-4.6,1.34-6.92C30.01-0.02,30.2-0.04,30.19,0.09L30.19,0.09z"/>
			</g>
			<g>
				<path fill="#7C3C11" d="M29.8,2.64c0.7,1.33,0.8,2.82,0.81,4.29c0.01,1.76-0.04,3.5,0.39,5.23c0.45,1.8,1.24,3.49,1.93,5.2
					c0.27,0.67,0.59,1.36,0.17,2.04c-0.42,0.68-1.14,1.21-1.76,1.7c-1.05,0.84-2.33,1.79-2.67,3.18c-0.19,0.77-0.01,1.54,0.4,2.22
					c0.39,0.64,0.94,1.17,1.48,1.68c0.49,0.47,1.15,0.94,1.47,1.55c0.72,1.41-1.22,2.15-1.95,2.95c-1.42,1.54,1.39,2.68,0.69,4.24
					c-0.04,0.09-0.09,0.17-0.16,0.25c-0.26,0.32-0.47,0.7-0.15,1.03c0.28,0.29,0.67,0.48,0.91,0.82c0.38,0.55,0.31,1.3,0.08,1.89
					c-0.3,0.82-0.96,1.44-1.42,2.17c-0.55,0.87-0.62,1.84-0.63,2.84c0,0.06-0.12,0.15-0.14,0.05c-0.15-0.79-0.07-1.6,0.23-2.35
					c0.34-0.84,1-1.47,1.46-2.22c0.42-0.68,0.68-1.64,0.17-2.35c-0.28-0.39-0.91-0.67-0.97-1.19c-0.02-0.19,0.06-0.36,0.16-0.51
					c0.1-0.16,0.25-0.27,0.31-0.45c0.1-0.29,0.05-0.61-0.04-0.89c-0.26-0.77-0.98-1.33-1.09-2.16c-0.2-1.59,1.98-1.89,2.44-3.16
					c0.32-0.89-0.67-1.61-1.24-2.14c-0.54-0.51-1.1-1.02-1.54-1.62c-0.85-1.17-0.91-2.49-0.19-3.74c0.83-1.43,2.35-2.21,3.47-3.37
					c0.35-0.37,0.67-0.77,0.6-1.31c-0.06-0.45-0.29-0.88-0.46-1.3c-0.37-0.91-0.77-1.81-1.11-2.72c-0.35-0.93-0.67-1.88-0.86-2.86
					c-0.19-0.96-0.24-1.94-0.23-2.92c0.01-2.03,0.18-4.12-0.6-6.05C29.72,2.65,29.78,2.6,29.8,2.64L29.8,2.64z"/>
			</g>
			<g>
				<path fill="#7C3C11" d="M69.69,31.78c-0.56,0.21-1.07,0.49-1.43,0.99c-0.22,0.3-0.31,0.85-0.74,0.91
					c-1.03,0.14-1.24-1.5-2.21-1.49c0.03-0.04,0.07-0.08,0.1-0.12c0.08,0.76,0.2,1.52,0.28,2.28c0.01,0.08-0.08,0.17-0.17,0.14
					c-0.35-0.15-0.68-0.34-0.98-0.58c-0.03-0.02-0.39-0.38-0.42-0.38c-0.13,0.02-0.18,0.3-0.2,0.4c-0.01,0.05,0.01,0.09,0,0.14
					c-0.02,0.17-0.08,0.34-0.26,0.39c-0.16,0.04-0.31-0.03-0.34-0.19c0.06-0.02,0.13-0.03,0.19-0.05c-0.15,1-0.32,1.98-0.37,2.99
					c-0.05,1.07,0.03,2.12,0.13,3.18c0.01,0.14-0.27,0.19-0.29,0.05c-0.13-1-0.13-2.05-0.09-3.06c0.05-1.05,0.15-2.15,0.42-3.17
					c0.02-0.08,0.19-0.15,0.19-0.03c0.22-0.04,0.32-0.14,0.31-0.29c0-0.06,0-0.11,0.01-0.17c0.01-0.04,0.01-0.09,0.02-0.13
					c0.04-0.12,0.09-0.19,0.2-0.26c0.01-0.01,0.03-0.01,0.04,0c0.46,0.41,0.97,0.73,1.55,0.96c-0.06,0.05-0.11,0.09-0.17,0.14
					c-0.09-0.77-0.15-1.54-0.24-2.3c-0.01-0.06,0.05-0.12,0.1-0.12c0.35-0.01,0.61,0.15,0.86,0.38c0.28,0.27,0.6,0.83,0.98,0.94
					c0.41,0.12,0.6-0.33,0.81-0.59c0.16-0.2,0.35-0.39,0.56-0.55c0.34-0.26,0.73-0.46,1.14-0.54
					C69.76,31.65,69.74,31.77,69.69,31.78L69.69,31.78z"/>
			</g>
			<path opacity="0.48" fill="#282828" d="M30.2,47.02c-1.8,0.97-3.87,1.23-5.89,1.48c-1.56,0.19-3.12,0.39-4.68,0.58
				c-0.69,0.09-1.45,0.22-1.86,0.78c-0.24,0.33-0.33,0.79-0.69,0.99c-0.21,0.11-0.46,0.11-0.7,0.1c-2.08-0.04-4.13,0.36-6.17,0.75
				c-0.76,0.15-1.59,0.35-2.02,0.99c-0.15,0.23-0.24,0.5-0.4,0.73c-0.3,0.42-0.81,0.61-1.29,0.79c-0.17,0.06-0.34,0.12-0.51,0.09
				c-0.17-0.03-0.34-0.18-0.32-0.35c0.02-0.19,0.22-0.29,0.39-0.39c0.98-0.57,1.22-1.91,2.05-2.69c0.68-0.63,1.66-0.81,2.58-0.95
				c1.49-0.23,2.98-0.47,4.47-0.7c0.3-0.05,0.62-0.11,0.83-0.32c0.3-0.31,0.25-0.81,0.42-1.21c0.18-0.4,0.58-0.67,1-0.8
				c0.42-0.13,0.87-0.13,1.31-0.15c2.33-0.07,4.65-0.4,6.92-0.95c0.11-0.03,0.22-0.06,0.29-0.14c0.1-0.11,0.1-0.27,0.18-0.39
				c0.12-0.19,0.37-0.22,0.59-0.23c0.64-0.04,1.29-0.07,1.93-0.1c0.68-0.03,1.95-0.09,2.43,0.52C31.56,46.08,30.71,46.75,30.2,47.02
				z"/>
		</g>
	</g>
</g>
<g id="_x31_">
</g>
</svg>
