<?xml version="1.0" encoding="utf-8"?>
<!-- Generator: Adobe Illustrator 27.9.0, SVG Export Plug-In . SVG Version: 6.00 Build 0)  -->
<svg version="1.1" xmlns="http://www.w3.org/2000/svg" xmlns:xlink="http://www.w3.org/1999/xlink" x="0px" y="0px"
	 viewBox="0 0 378.59 283.35" enable-background="new 0 0 378.59 283.35" xml:space="preserve">
<g id="_x31_6">
</g>
<g id="_x31_5" opacity="0.69">
</g>
<g id="_x31_4">
</g>
<g id="_x31_3">
</g>
<g id="_x31_2">
</g>
<g id="_x31_1">
</g>
<g id="_x31_0">
</g>
<g id="_x38_">
	<g>
		<g>
			<g>
				<path fill="#A7A738" d="M53.23,176.71c1.43,1.99,4.05,2.64,6.4,3.33c5.5,1.62,10.71,4.22,15.31,7.66
					c9.4,7.03,16.4,17.57,27.28,21.95c5.67,2.28,11.9,2.66,17.91,3.75c21.34,3.86,41.05,16.85,62.72,15.96
					c7.19-0.3,14.37-2.14,21.5-1.17c3.95,0.54,7.73,1.92,11.57,2.99c11.32,3.15,23.2,3.56,34.95,3.95
					c6.75,0.22,13.49,0.45,20.24,0.67c2.73,0.09,6.49-0.82,6.26-3.54c-1.04-0.71-2.08-1.42-3.11-2.12
					c12.05,3.44,24.77,4.54,37.23,3.22c1.97-0.21,4.11-0.57,5.4-2.07s0.84-4.45-1.11-4.73c3.43-0.56,6.85-1.12,10.28-1.69
					c9.9-1.62,19.88,0.92,29.92,0.89c1.4,0,2.95-0.07,3.98-1.01c2.66-2.43-0.9-6.57-4.2-8.02c-5.77-2.53-12.01-4.01-18.31-4.34
					c5.25-0.37,4.83,0.91,7.08,0.11c2.25-0.8,4.08-3.33,3.22-5.56c-0.29-0.75-0.84-1.38-1.05-2.15c-0.63-2.25,1.81-4.17,4.04-4.87
					c2.23-0.7,4.87-1.09,6.13-3.06c1.9-2.95-0.75-6.66-3.26-9.11c-6.63-6.5-14.15-13.18-23.4-14.04c3.48-5.33,6.8-12.92,2.29-17.41
					c-1.18-1.17-2.73-1.89-4.25-2.57c-8.26-3.7-16.62-7.19-25.06-10.47c-3.83-0.42-7.68-0.65-11.51-0.76
					c-32.03-0.94-63.93,5.75-95.95,4.55c-24.98-0.94-50.17-6.66-74.73-1.97c-5.76,1.1-11.53,2.82-16.36,6.15
					c-4.12,2.84-7.43,6.77-11.72,9.35c-12.07,7.25-29.79,2.79-40.37,11.04C52.05,173.35,52.17,175.24,53.23,176.71z"/>
				<path fill="#54391D" d="M50,174.01c-4.97,5.7-5.7,14.01-9.87,20.32c-3.04,4.61-7.7,7.85-12.25,10.98
					c-8.25,5.68-16.6,11.36-25.75,15.36c-0.16,0.15-0.31,0.31-0.48,0.46c-0.72,0.67-1.3,1.15-1.51,2.15
					c-0.3,1.43-0.16,2.83,0.94,3.87c0.53,0.5,1.13,0.86,1.77,1.16c7.21,1.92,14.7,2.79,22.16,2.57c2.17-0.06,4.78-0.01,5.95,1.82
					c0.93,1.46,0.47,3.35,0.56,5.07c0.26,4.7,4.85,8.16,9.48,9.02c4.63,0.86,9.36-0.17,14.04-0.65c7.78-0.8,15.62-0.05,23.41,0.69
					c4.16,0.4,8.67,0.95,11.66,3.86c1.56,1.52,2.55,3.55,4.08,5.1c0.97,0.98,2.14,1.75,3.32,2.49c6.43,4.07,13.28,7.66,20.68,9.42
					s15.9,1.79,22.77-1.48c1.95,4.49,7.88,5.25,12.77,5.36c21.58,0.46,43.16,0.92,64.74,1.38c3.26,0.07,6.69,0.19,9.47,1.89
					c2.24,1.37,3.79,3.63,5.91,5.17c3.8,2.77,8.84,2.94,13.54,3c8.64,0.11,17.29,0.21,25.93,0.32c4.51,0.06,10.5-1.15,10.83-5.65
					c0.07-1-0.16-2.13,0.46-2.92c0.63-0.8,1.81-0.83,2.82-0.8c9.75,0.29,19.52-0.13,29.21-1.24c2.23-0.25,4.56-0.59,6.36-1.92
					c3.37-2.5,3.26-8.39-0.19-10.77c6.25-3.96,15-2.4,20.9-6.85c1.87-1.41,3.37-3.38,5.51-4.35c1.54-0.69,3.26-0.8,4.95-0.9
					c4.92-0.28,9.85-0.57,14.77-0.85c3.86-0.22,8.7-1.22,9.53-5c0.38-1.7-0.26-3.45-0.93-5.05c-2.87-6.82-6.68-13.23-11.3-19.01
					c3.73,0.16,6.82-3.33,7.55-6.99c0.73-3.67-0.29-7.43-1.3-11.03c-0.77-2.74-1.6-5.59-3.55-7.68c-2.49-2.67-6.28-3.55-9.57-5.13
					s-5.66-4.19-6.32-7.78c-2.32-12.74-12.11-23.22-23.68-29.04c-8.14-4.09-17.09-6.15-26.19-7.14c8.44,3.28,16.8,6.76,25.06,10.47
					c1.52,0.68,3.07,1.39,4.25,2.57c4.51,4.49,1.19,12.08-2.29,17.41c9.24,0.86,16.77,7.54,23.4,14.04c2.5,2.46,5.16,6.16,3.26,9.11
					c-1.27,1.97-3.9,2.36-6.13,3.06c-2.23,0.7-4.66,2.62-4.04,4.87c0.21,0.77,0.76,1.41,1.05,2.15c0.86,2.23-0.96,4.77-3.22,5.56
					c-2.25,0.8-1.83-0.49-7.08-0.11c6.3,0.33,12.53,1.81,18.31,4.34c3.3,1.45,6.86,5.58,4.2,8.02c-1.04,0.95-2.58,1.01-3.98,1.01
					c-10.04,0.03-20.02-2.52-29.92-0.89c-3.43,0.56-6.85,1.12-10.28,1.69c1.96,0.29,2.41,3.24,1.11,4.73s-3.44,1.86-5.4,2.07
					c-12.46,1.33-25.18,0.23-37.23-3.22c1.04,0.71,2.08,1.42,3.11,2.12c0.23,2.72-3.54,3.63-6.26,3.54
					c-6.75-0.22-13.49-0.45-20.24-0.67c-11.75-0.39-23.63-0.8-34.95-3.95c-3.84-1.07-7.62-2.45-11.57-2.99
					c-7.13-0.97-14.31,0.87-21.5,1.17c-21.67,0.89-41.38-12.1-62.72-15.96c-6.02-1.09-12.24-1.47-17.91-3.75
					c-10.89-4.38-17.88-14.92-27.28-21.95c-4.59-3.44-9.8-6.04-15.31-7.66c-2.36-0.69-4.97-1.34-6.4-3.33
					c-1.06-1.47-1.18-3.36-0.67-5.12C51.65,172.3,50.79,173.09,50,174.01z"/>
			</g>
			<g>
				<path fill="#54391D" d="M48.9,181.27c0.4-1.1,1.39-1.95,2.56-1.96c1.39-0.01,1.82,1.1,2.32,2.04
					c3.31,6.15,11.79,6.71,17.79,10.28c0.68,0.4,1.36,0.89,1.66,1.62c0.47,1.17-0.23,2.46-0.91,3.52
					c-5.92,9.33-11.84,18.66-17.76,27.98c6.52-5.79,12.39-12.32,17.46-19.41c1.8-2.51,3.62-5.21,6.51-6.4
					c1.84-0.76,3.97-0.67,5.6,0.47c2.78,1.94,1.35,4.97,2.32,7.38c0.42,1.05,1.26,1.88,1.83,2.87c2.07,3.63-0.01,8.14-2.07,11.77
					c-1.7,2.99-3.66,6.21-6.92,7.31c-3.26,1.1-7.72-1.68-6.72-4.97c0.27-0.91,0.92-1.89,0.19-2.7c-0.81-0.9-1.95-0.6-2.39,0.53
					c-0.79,2.04,0.77,3.49,1.39,5.22c0.99,2.79-0.57,5.77-2.08,8.32c-1.29,2.17-2.57,4.33-3.86,6.5c1.86,1.48,4.65,0.04,6.14-1.8
					c1.49-1.85,2.58-4.2,4.73-5.2c1.73-0.8,3.75-0.53,5.6-0.99c4.39-1.1,6.65-5.86,8.15-10.14c1.5-4.27,3.27-9.1,7.45-10.85
					c0.85-0.36,1.82-0.57,2.72,0.41c0.62,0.67,0.89,1.61,0.78,2.52c-0.22,1.87-1.53,3.34-2.17,5.07c-0.14,0.37-0.24,0.78-0.13,1.17
					c0.25,0.87,1.5,1.06,2.27,0.6c0.78-0.46,1.22-1.31,1.7-2.08c1.42-2.25,3.55-4.04,6-5.07c0.68-0.29,1.49-0.51,2.13-0.15
					c0.75,0.42,0.92,1.41,0.96,2.27c0.21,4.32-0.69,8.69-2.58,12.58c1.74,1.06,3.99-0.62,4.7-2.53c0.71-1.91,0.61-4.07,1.46-5.92
					c1.27-2.77,4.46-4.24,7.5-4.34c3.04-0.11,6,0.91,8.87,1.9c1.52,0.53,3.24,1.22,3,3.44c-0.12,1.06-0.73,1.98-1.55,2.65
					c-3.63,2.95-6.41,6.93-7.94,11.35c-1.24,3.59-1.71,7.52-3.84,10.66c-1.31,1.92-3.27,3.62-3.49,5.94
					c8.11-4.6,7.76-16.76,14.05-23.64c2.01-2.2,4.63-3.77,6.6-5.99c0.67-0.76,1.31-1.62,2.26-1.99c1.28-0.49,2.7,0.09,3.95,0.65
					c5.34,2.42,11.37,5.76,12.71,11.26c0.18,0.75,1.18,0.95,1.58,0.29c0.64-1.07,0.88-2.76,1.87-3.63c0.94-0.83,2.35-0.72,3.6-0.56
					c4.29,0.55,8.58,1.09,12.87,1.64c2.09,0.27,4.2,0.54,6.16,1.29c4.58,1.76,7.86,5.99,9.61,10.57s2.19,9.55,2.62,14.43l1.56-25.74
					c0.11-1.74,1.58-2.81,3.23-2.22c1.66,0.59,1.53,2.48,2.6,3.48c0.96,0.9,2.5,0.75,3.69,1.31c1.85,0.88,2.57,3.34,4.46,4.12
					c0.64,0.26,1.34,0.3,2.03,0.39c2.51,0.34,4.83,1.47,7.25,2.19c2.88,0.85,6.25,1.07,8.53-1.22c0.77-0.77,1.85-1.25,2.92-1.03
					c2.46,0.52,1.51,3.81,3.05,5.26c1.66-1.35,0.59-4.45,2.21-5.86c0.49-0.43,1.14-0.61,1.78-0.73c6.1-1.18,12.19,1.79,18.38,2.35
					c4.41,0.4,8.82-0.44,13.21-1.06c0.71-0.1,1.45-0.19,2.12,0.04c1.29,0.44,1.94,1.87,2.28,3.19c0.95,3.68,0.65,7.54,0.67,11.33
					c0.04,8.74,1.78,17.46,5.1,25.54c-0.14-4.89-1.87-9.59-2.69-14.41c-0.94-5.5-0.69-11.12-0.45-16.69
					c0.14-3.22,0.3-6.53,1.57-9.49c0.16-0.38,0.46-0.55,0.58-0.95c0.56-1.76,3.45-2.22,5.27-1.9c1.04,0.19,1.99,0.7,2.95,1.15
					c5.79,2.69,12.62,3.06,18.67,1c1.42-0.48,2.85-1.11,4.35-1.12c0.98-0.01,1.95,0.24,2.92,0.13c0.67-0.08,1.32-0.33,2-0.39
					c0.68-0.05,1.45,0.16,1.77,0.76c0.11,0.22,0.16,0.46,0.2,0.7c0.95,5.22,1.91,10.45,2.86,15.67c0.37,2.01,1.26,3.19,2.04,5.08
					l-2.36-24.53c-0.1-1.06,0-2.14,0.41-3.12c1.12-2.69,3.43-2.52,5.47-2.29c4.08,0.46,8.17,0.92,12.25,1.38
					c2.16,0.24,4.36,0.49,6.51,0.17c4.27-0.62,8.61-3.38,12.59-1.71c3.01,1.27,4.5,4.62,5.44,7.75c0.94,3.13,1.71,6.53,4.12,8.74
					c-1.82-5.42-2.79-11.13-2.85-16.85c-0.05-4.19-0.06-9.29-3.69-11.4c-0.81-0.47-1.72-0.73-2.57-1.1
					c-2.76-1.2-4.91-3.71-5.69-6.61c0.7,1.06,1.4,2.11,2.1,3.17c0.49-2.23-0.29-4.53-0.32-6.82c-0.02-2.29,1.26-4.99,3.54-5.06
					c0.38,4.06,1.42,8.05,3.08,11.78c-0.12-4.74-0.54-9.48-1.26-14.17c-0.3-1.97-0.66-3.95-1.46-5.77c-1.71-3.88-5.2-6.63-8.56-9.22
					c-2.64-2.03-5.28-4.06-7.92-6.09c-1.68-1.29-3.55-3.07-3.11-5.15c2.55,0.96,4.81,2.66,6.44,4.84
					c-2.72-5.06-5.44-10.12-8.16-15.18c0.84,0.27,1.67,0.54,2.51,0.81c-2.61-3.17-5.22-6.33-7.84-9.48
					c-0.36-0.43-0.72-0.86-1.08-1.29c-0.48-0.26-0.96-0.53-1.45-0.77c-8.14-4.09-17.09-6.15-26.19-7.14
					c8.44,3.28,16.8,6.76,25.06,10.47c1.52,0.68,3.07,1.39,4.25,2.57c4.51,4.49,1.19,12.08-2.29,17.41
					c9.24,0.86,16.77,7.54,23.4,14.04c2.5,2.46,5.16,6.16,3.26,9.11c-1.27,1.97-3.9,2.36-6.13,3.06c-2.23,0.7-4.66,2.62-4.04,4.87
					c0.21,0.77,0.76,1.41,1.05,2.15c0.86,2.23-0.96,4.77-3.22,5.56c-2.25,0.8-1.83-0.49-7.08-0.11c6.3,0.33,12.53,1.81,18.31,4.34
					c3.3,1.45,6.86,5.58,4.2,8.02c-1.04,0.95-2.58,1.01-3.98,1.01c-10.04,0.03-20.02-2.52-29.92-0.89
					c-3.43,0.56-6.85,1.12-10.28,1.69c1.96,0.29,2.41,3.24,1.11,4.73s-3.44,1.86-5.4,2.07c-12.46,1.33-25.18,0.23-37.23-3.22
					c1.04,0.71,2.08,1.42,3.11,2.12c0.23,2.72-3.54,3.63-6.26,3.54c-6.75-0.22-13.49-0.45-20.24-0.67
					c-11.75-0.39-23.63-0.8-34.95-3.95c-3.84-1.07-7.62-2.45-11.57-2.99c-7.13-0.97-14.31,0.87-21.5,1.17
					c-21.67,0.89-41.38-12.1-62.72-15.96c-6.02-1.09-12.24-1.47-17.91-3.75c-10.89-4.38-17.88-14.92-27.28-21.95
					c-4.59-3.44-9.8-6.04-15.31-7.66c-2.36-0.69-4.97-1.34-6.4-3.33c-1.06-1.47-1.18-3.36-0.67-5.12c-0.91,0.71-1.77,1.5-2.57,2.41
					c-4.97,5.7-5.7,14.01-9.87,20.32c-0.68,1.04-1.46,1.99-2.29,2.91C42.74,192.9,46.64,187.44,48.9,181.27z"/>
				<path fill="#392613" d="M48.9,181.27c0.4-1.1,1.39-1.95,2.56-1.96c1.39-0.01,1.82,1.1,2.32,2.04
					c3.31,6.15,11.79,6.71,17.79,10.28c0.68,0.4,1.36,0.89,1.66,1.62c0.47,1.17-0.23,2.46-0.91,3.52
					c-5.92,9.33-11.84,18.66-17.76,27.98c6.52-5.79,12.39-12.32,17.46-19.41c1.8-2.51,3.62-5.21,6.51-6.4
					c1.84-0.76,3.97-0.67,5.6,0.47c2.78,1.94,1.35,4.97,2.32,7.38c0.42,1.05,1.26,1.88,1.83,2.87c2.07,3.63-0.01,8.14-2.07,11.77
					c-1.7,2.99-3.66,6.21-6.92,7.31c-3.26,1.1-7.72-1.68-6.72-4.97c0.27-0.91,0.92-1.89,0.19-2.7c-0.81-0.9-1.95-0.6-2.39,0.53
					c-0.79,2.04,0.77,3.49,1.39,5.22c0.99,2.79-0.57,5.77-2.08,8.32c-1.29,2.17-2.57,4.33-3.86,6.5c1.86,1.48,4.65,0.04,6.14-1.8
					c1.49-1.85,2.58-4.2,4.73-5.2c1.73-0.8,3.75-0.53,5.6-0.99c4.39-1.1,6.65-5.86,8.15-10.14c1.5-4.27,3.27-9.1,7.45-10.85
					c0.85-0.36,1.82-0.57,2.72,0.41c0.62,0.67,0.89,1.61,0.78,2.52c-0.22,1.87-1.53,3.34-2.17,5.07c-0.14,0.37-0.24,0.78-0.13,1.17
					c0.25,0.87,1.5,1.06,2.27,0.6c0.78-0.46,1.22-1.31,1.7-2.08c1.42-2.25,3.55-4.04,6-5.07c0.68-0.29,1.49-0.51,2.13-0.15
					c0.75,0.42,0.92,1.41,0.96,2.27c0.21,4.32-0.69,8.69-2.58,12.58c1.74,1.06,3.99-0.62,4.7-2.53c0.71-1.91,0.61-4.07,1.46-5.92
					c1.27-2.77,4.46-4.24,7.5-4.34c3.04-0.11,6,0.91,8.87,1.9c1.52,0.53,3.24,1.22,3,3.44c-0.12,1.06-0.73,1.98-1.55,2.65
					c-3.63,2.95-6.41,6.93-7.94,11.35c-1.24,3.59-1.71,7.52-3.84,10.66c-1.31,1.92-3.27,3.62-3.49,5.94
					c8.11-4.6,7.76-16.76,14.05-23.64c2.01-2.2,4.63-3.77,6.6-5.99c0.67-0.76,1.31-1.62,2.26-1.99c1.28-0.49,2.7,0.09,3.95,0.65
					c5.34,2.42,11.37,5.76,12.71,11.26c0.18,0.75,1.18,0.95,1.58,0.29c0.64-1.07,0.88-2.76,1.87-3.63c0.94-0.83,2.35-0.72,3.6-0.56
					c4.29,0.55,8.58,1.09,12.87,1.64c2.09,0.27,4.2,0.54,6.16,1.29c4.58,1.76,7.86,5.99,9.61,10.57s2.19,9.55,2.62,14.43l1.56-25.74
					c0.11-1.74,1.58-2.81,3.23-2.22c1.66,0.59,1.53,2.48,2.6,3.48c0.96,0.9,2.5,0.75,3.69,1.31c1.85,0.88,2.57,3.34,4.46,4.12
					c0.64,0.26,1.34,0.3,2.03,0.39c2.51,0.34,4.83,1.47,7.25,2.19c2.88,0.85,6.25,1.07,8.53-1.22c0.77-0.77,1.85-1.25,2.92-1.03
					c2.46,0.52,1.51,3.81,3.05,5.26c1.66-1.35,0.59-4.45,2.21-5.86c0.49-0.43,1.14-0.61,1.78-0.73c6.1-1.18,12.19,1.79,18.38,2.35
					c4.41,0.4,8.82-0.44,13.21-1.06c0.71-0.1,1.45-0.19,2.12,0.04c1.29,0.44,1.94,1.87,2.28,3.19c0.95,3.68,0.65,7.54,0.67,11.33
					c0.04,8.74,1.78,17.46,5.1,25.54c-0.14-4.89-1.87-9.59-2.69-14.41c-0.94-5.5-0.69-11.12-0.45-16.69
					c0.14-3.22,0.3-6.53,1.57-9.49c0.16-0.38,0.46-0.55,0.58-0.95c0.56-1.76,3.45-2.22,5.27-1.9c1.04,0.19,1.99,0.7,2.95,1.15
					c5.79,2.69,12.62,3.06,18.67,1c1.42-0.48,2.85-1.11,4.35-1.12c0.98-0.01,1.95,0.24,2.92,0.13c0.67-0.08,1.32-0.33,2-0.39
					c0.68-0.05,1.45,0.16,1.77,0.76c0.11,0.22,0.16,0.46,0.2,0.7c0.95,5.22,1.91,10.45,2.86,15.67c0.37,2.01,1.26,3.19,2.04,5.08
					l-2.36-24.53c-0.1-1.06,0-2.14,0.41-3.12c1.12-2.69,3.43-2.52,5.47-2.29c4.08,0.46,8.17,0.92,12.25,1.38
					c2.16,0.24,4.36,0.49,6.51,0.17c4.27-0.62,8.61-3.38,12.59-1.71c3.01,1.27,4.5,4.62,5.44,7.75c0.94,3.13,1.71,6.53,4.12,8.74
					c-1.82-5.42-2.79-11.13-2.85-16.85c-0.05-4.19-0.06-9.29-3.69-11.4c-0.81-0.47-1.72-0.73-2.57-1.1
					c-2.76-1.2-4.91-3.71-5.69-6.61c0.7,1.06,1.4,2.11,2.1,3.17c0.49-2.23-0.29-4.53-0.32-6.82c-0.02-2.29,1.26-4.99,3.54-5.06
					c0.38,4.06,1.42,8.05,3.08,11.78c-0.12-4.74-0.54-9.48-1.26-14.17c-0.3-1.97-0.66-3.95-1.46-5.77c-1.71-3.88-5.2-6.63-8.56-9.22
					c-2.64-2.03-5.28-4.06-7.92-6.09c-1.68-1.29-3.55-3.07-3.11-5.15c2.55,0.96,4.81,2.66,6.44,4.84
					c-2.72-5.06-5.44-10.12-8.16-15.18c0.84,0.27,1.67,0.54,2.51,0.81c-2.61-3.17-5.22-6.33-7.84-9.48
					c-0.36-0.43-0.72-0.86-1.08-1.29c-0.48-0.26-0.96-0.53-1.45-0.77c-8.14-4.09-17.09-6.15-26.19-7.14
					c8.44,3.28,16.8,6.76,25.06,10.47c1.52,0.68,3.07,1.39,4.25,2.57c4.51,4.49,1.19,12.08-2.29,17.41
					c9.24,0.86,16.77,7.54,23.4,14.04c2.5,2.46,5.16,6.16,3.26,9.11c-1.27,1.97-3.9,2.36-6.13,3.06c-2.23,0.7-4.66,2.62-4.04,4.87
					c0.21,0.77,0.76,1.41,1.05,2.15c0.86,2.23-0.96,4.77-3.22,5.56c-2.25,0.8-1.83-0.49-7.08-0.11c6.3,0.33,12.53,1.81,18.31,4.34
					c3.3,1.45,6.86,5.58,4.2,8.02c-1.04,0.95-2.58,1.01-3.98,1.01c-10.04,0.03-20.02-2.52-29.92-0.89
					c-3.43,0.56-6.85,1.12-10.28,1.69c1.96,0.29,2.41,3.24,1.11,4.73s-3.44,1.86-5.4,2.07c-12.46,1.33-25.18,0.23-37.23-3.22
					c1.04,0.71,2.08,1.42,3.11,2.12c0.23,2.72-3.54,3.63-6.26,3.54c-6.75-0.22-13.49-0.45-20.24-0.67
					c-11.75-0.39-23.63-0.8-34.95-3.95c-3.84-1.07-7.62-2.45-11.57-2.99c-7.13-0.97-14.31,0.87-21.5,1.17
					c-21.67,0.89-41.38-12.1-62.72-15.96c-6.02-1.09-12.24-1.47-17.91-3.75c-10.89-4.38-17.88-14.92-27.28-21.95
					c-4.59-3.44-9.8-6.04-15.31-7.66c-2.36-0.69-4.97-1.34-6.4-3.33c-1.06-1.47-1.18-3.36-0.67-5.12c-0.91,0.71-1.77,1.5-2.57,2.41
					c-4.97,5.7-5.7,14.01-9.87,20.32c-0.68,1.04-1.46,1.99-2.29,2.91C42.74,192.9,46.64,187.44,48.9,181.27z"/>
			</g>
			<g>
				<path fill="none" d="M280.87,277.89c0.1-0.08,0.19-0.18,0.27-0.27c-0.09-1.09-0.24-2.17-0.43-3.25c-1.1-1.75-2-3.61-2.7-5.56
					C278.75,271.9,279.71,274.94,280.87,277.89z"/>
				<path fill="none" d="M324.81,261.57c0.3,0.27,0.63,0.54,1.02,0.64c1.32,0.32,2.19-1.48,1.98-2.82c-0.07-0.45-0.2-0.9-0.32-1.34
					c-1.54,0.44-3.02,1.01-4.39,1.84C323.65,260.47,324.21,261.04,324.81,261.57z"/>
				<path fill="#54391D" d="M69.27,243.29c1.75,0.77,3.75,0.07,5.61-0.33c4.69-1,9.79,0.07,13.67,2.89
					c2.69,1.95,4.76,4.64,7.24,6.86c4.81,4.31,10.99,6.7,17.01,9c0.74,0.28,1.51,0.57,2.3,0.56c1.93-0.03,3.13-1.63,3.85-3.55
					c-0.1-1.06,0.11-2.11,0.77-3c-0.15,0.97-0.4,2.03-0.77,3c0.19,1.93,1.46,3.89,3.2,4.89c2.69,1.55,6.01,1.41,9.1,1.04
					c3.96-0.47,8.34-1.55,10.42-4.95c1.38-2.25,1.43-5.03,1.62-7.67c0.43-5.9,1.77-11.72,3.97-17.21c0.54-1.34,2.33-2.81,3.08-1.58
					c-1.88,9.18-2.29,18.66-1.22,27.97c0.16,1.38,0.36,2.8,1.08,3.99c1.48,2.44,4.63,3.22,7.47,3.47
					c5.18,0.47,10.38-0.03,15.58-0.26c9.93-0.43,19.9,0.15,29.71,1.73c6.68,1.08,14.47,2.3,19.38-2.35
					c5.23-4.96,4.34-14.29,9.86-18.93c2.9,4.69-3.53,11.15-0.83,15.95c0.56,1,1.49,1.8,1.86,2.89s-0.27,2.64-1.41,2.53
					c-0.01,2.08,0.21,3.51,1.71,4.95c1.29,1.23,3.2,1.56,4.98,1.57c0.93,0,1.85-0.07,2.78,0c1,0.07,1.99,0.3,2.97,0.53
					c3.65,0.85,6.62,1.92,10.35,2.27c3.32,0.31,6.55-1.04,9.61-2.36c1.01-0.44,2.04-0.89,2.82-1.66c1.84-1.82,1.74-4.79,1.31-7.34
					c-0.43-2.55-1.04-5.31,0.13-7.62c1.44,1.1,1.71,3.12,1.86,4.92c0.24,2.82,0.48,5.72,1.69,8.28s3.62,4.76,6.45,4.88
					c0.83,0.03,1.76-0.23,2.38-0.75c-1.16-2.95-2.12-5.99-2.86-9.08c-0.66-1.84-1.13-3.76-1.39-5.7c0.11,0.08,0.21,0.17,0.32,0.26
					c-0.52-3.35-0.8-6.73-0.81-10.12c-0.02-3.8,0.28-7.66-0.67-11.33c-0.34-1.32-0.99-2.75-2.28-3.19
					c-0.68-0.23-1.42-0.14-2.12-0.04c-4.38,0.62-8.8,1.46-13.21,1.06c-6.19-0.56-12.28-3.53-18.38-2.35
					c-0.64,0.12-1.29,0.3-1.78,0.73c-1.61,1.41-0.55,4.5-2.21,5.86c-1.55-1.45-0.59-4.74-3.05-5.26c-1.07-0.23-2.14,0.25-2.92,1.03
					c-2.28,2.28-5.65,2.07-8.53,1.22c-2.43-0.72-4.75-1.84-7.25-2.19c-0.68-0.09-1.39-0.13-2.03-0.39
					c-1.89-0.78-2.62-3.24-4.46-4.12c-1.19-0.57-2.73-0.41-3.69-1.31c-1.06-1-0.93-2.88-2.6-3.48c-1.64-0.59-3.12,0.48-3.23,2.22
					l-1.56,25.74c-0.42-4.89-0.86-9.85-2.62-14.43s-5.03-8.81-9.61-10.57c-1.97-0.75-4.08-1.02-6.16-1.29
					c-4.29-0.55-8.58-1.09-12.87-1.64c-1.24-0.16-2.66-0.27-3.6,0.56c-0.99,0.87-1.23,2.56-1.87,3.63c-0.4,0.66-1.4,0.46-1.58-0.29
					c-1.35-5.51-7.38-8.84-12.71-11.26c-1.25-0.57-2.67-1.14-3.95-0.65c-0.95,0.36-1.59,1.23-2.26,1.99c-1.97,2.23-4.6,3.8-6.6,5.99
					c-6.29,6.88-5.94,19.03-14.05,23.64c0.22-2.32,2.18-4.02,3.49-5.94c2.13-3.14,2.6-7.07,3.84-10.66c1.53-4.42,4.3-8.4,7.94-11.35
					c0.82-0.67,1.44-1.59,1.55-2.65c0.24-2.21-1.48-2.91-3-3.44c-2.87-1-5.83-2.01-8.87-1.9c-3.04,0.11-6.23,1.58-7.5,4.34
					c-0.85,1.85-0.74,4.01-1.46,5.92c-0.71,1.91-2.96,3.59-4.7,2.53c1.89-3.89,2.79-8.26,2.58-12.58c-0.04-0.86-0.21-1.85-0.96-2.27
					c-0.64-0.36-1.45-0.14-2.13,0.15c-2.45,1.03-4.58,2.82-6,5.07c-0.48,0.76-0.93,1.61-1.7,2.08c-0.78,0.46-2.02,0.27-2.27-0.6
					c-0.11-0.38-0.01-0.79,0.13-1.17c0.64-1.73,1.95-3.2,2.17-5.07c0.11-0.91-0.16-1.85-0.78-2.52c-0.91-0.98-1.87-0.77-2.72-0.41
					c-4.17,1.75-5.95,6.58-7.45,10.85c-1.5,4.27-3.75,9.04-8.15,10.14c-1.85,0.46-3.87,0.19-5.6,0.99c-2.15,1-3.25,3.36-4.73,5.2
					c-0.93,1.16-2.38,2.15-3.79,2.37C68.42,242.68,68.79,243.08,69.27,243.29z"/>
				<path fill="#54391D" d="M284.29,272.58c1.3,0.2,2.58-0.32,3.83-0.7c6.96-2.13,14.5-0.32,21.74-1.15
					c3.24-0.37,6.85-1.65,8.02-4.7c1.06-2.76-0.35-5.84-2.07-8.25c-0.72-1.01-1.52-2.01-1.84-3.21c-0.2-0.77-0.19-1.58-0.18-2.37
					c0.06-3.52,0.12-7.04,0.18-10.56c3.26,5.2,1.82,12.5,5.53,17.4c0.15-1.08,0.29-2.17,0.44-3.25c0.91,1.46,1.98,2.83,3.16,4.09
					c1.37-0.82,2.85-1.4,4.39-1.84c-0.25-0.89-0.48-1.78-0.22-2.65c0.51-1.71,2.63-2.42,3.44-4.01c0.46-0.9,0.44-1.95,0.65-2.94
					c0.22-0.98,0.85-2.03,1.85-2.13c-0.56,1.2-1.13,2.44-1.19,3.76c-0.06,1.32,0.53,2.76,1.74,3.31c1.79,0.82,3.72-0.61,5.41-1.63
					c2.42-1.46,5.2-2.18,7.86-3.13c3.18-1.14,6.24-2.63,9.1-4.43c2.49-1.58,5.46,0.65,8.39,0.96c3.17,0.34,6.32-0.64,9.36-1.61
					c1.15-0.37,2.49-0.94,2.7-2.13c0.12-0.66-0.17-1.32-0.45-1.94c-2.61-5.75-4.94-11.63-7-17.6c-0.92-1.31-1.88-2.6-2.88-3.85
					c3.73,0.16,6.82-3.33,7.55-6.99c0.73-3.67-0.29-7.43-1.3-11.03c-0.77-2.74-1.6-5.59-3.55-7.68c-2.49-2.67-6.28-3.55-9.57-5.13
					s-5.66-4.19-6.32-7.78c-2.23-12.2-11.3-22.32-22.23-28.26c0.36,0.43,0.72,0.86,1.08,1.29c2.62,3.15,5.24,6.32,7.84,9.48
					c-0.84-0.27-1.67-0.54-2.51-0.81c2.72,5.06,5.44,10.12,8.16,15.18c-1.63-2.18-3.89-3.89-6.44-4.84
					c-0.45,2.07,1.43,3.85,3.11,5.15c2.64,2.03,5.28,4.06,7.92,6.09c3.36,2.59,6.85,5.34,8.56,9.22c0.8,1.82,1.16,3.8,1.46,5.77
					c0.72,4.69,1.14,9.43,1.26,14.17c-1.66-3.72-2.7-7.72-3.08-11.78c-2.28,0.07-3.57,2.77-3.54,5.06c0.02,2.29,0.8,4.59,0.32,6.82
					c-0.7-1.06-1.4-2.11-2.1-3.17c0.78,2.9,2.93,5.41,5.69,6.61c0.86,0.37,1.77,0.63,2.57,1.1c3.63,2.11,3.64,7.21,3.69,11.4
					c0.06,5.72,1.03,11.43,2.85,16.85c-2.4-2.21-3.18-5.61-4.12-8.74c-0.94-3.13-2.43-6.48-5.44-7.75
					c-3.98-1.67-8.32,1.08-12.59,1.71c-2.15,0.31-4.35,0.07-6.51-0.17c-4.08-0.46-8.17-0.92-12.25-1.38
					c-2.04-0.23-4.35-0.41-5.47,2.29c-0.41,0.98-0.51,2.06-0.41,3.12l2.36,24.53c-0.78-1.88-1.67-3.07-2.04-5.08
					c-0.95-5.22-1.91-10.45-2.86-15.67c-0.04-0.24-0.09-0.48-0.2-0.7c-0.32-0.6-1.09-0.81-1.77-0.76c-0.68,0.05-1.32,0.31-2,0.39
					c-0.97,0.11-1.94-0.14-2.92-0.13c-1.5,0.01-2.93,0.63-4.35,1.12c-6.05,2.06-12.88,1.69-18.67-1c-0.96-0.45-1.91-0.96-2.95-1.15
					c-1.82-0.32-4.71,0.14-5.27,1.9c-0.13,0.4-0.42,0.57-0.58,0.95c-1.27,2.96-1.43,6.27-1.57,9.49
					c-0.24,5.57-0.49,11.19,0.45,16.69c0.08,0.49,0.18,0.99,0.28,1.48c0.42,0.81,0.78,1.67,1.15,2.49
					C280.85,270.27,282.21,272.27,284.29,272.58z"/>
				<path fill="#54391D" d="M281.58,276.6c0.06-0.78-0.41-1.49-0.83-2.14c-0.02-0.03-0.03-0.05-0.05-0.08
					c0.2,1.08,0.35,2.16,0.43,3.25C281.39,277.33,281.56,276.99,281.58,276.6z"/>
				<path fill="#54391D" d="M5.51,222.88c-1.17,0.93-2.36,2.65-1.34,3.74c0.46,0.5,1.2,0.6,1.87,0.67
					c4.64,0.48,9.28,0.96,13.91,1.45c2.11,0.22,4.26,0.43,6.32-0.04c3.7-0.86,6.51-3.78,9.04-6.61c5.79-6.47,11.3-13.19,16.53-20.12
					c-3.93,7.7-8.98,14.83-14.93,21.1c-2.32,2.44-4.98,5.83-3.37,8.79c0.61,1.13,1.74,1.87,2.53,2.88c0.68,0.86,1.1,1.9,1.66,2.85
					c2.89,4.98,9.19,7.16,14.94,6.76c4.93-0.34,9.58-2.23,14.09-4.3c0.97-1.63,1.93-3.26,2.9-4.89c1.51-2.54,3.07-5.53,2.08-8.32
					c-0.62-1.73-2.18-3.18-1.39-5.22c0.44-1.13,1.58-1.43,2.39-0.53c0.73,0.81,0.09,1.79-0.19,2.7c-0.99,3.29,3.47,6.07,6.72,4.97
					c3.26-1.1,5.23-4.32,6.92-7.31c2.06-3.64,4.14-8.14,2.07-11.77c-0.56-0.99-1.4-1.82-1.83-2.87c-0.97-2.41,0.46-5.44-2.32-7.38
					c-1.63-1.14-3.76-1.23-5.6-0.47c-2.89,1.19-4.72,3.89-6.51,6.4c-5.07,7.09-10.94,13.61-17.46,19.41
					c5.92-9.33,11.84-18.66,17.76-27.98c0.68-1.07,1.38-2.35,0.91-3.52c-0.29-0.73-0.98-1.22-1.66-1.62
					c-6-3.57-14.48-4.13-17.79-10.28c-0.51-0.94-0.93-2.05-2.32-2.04c-1.17,0.01-2.16,0.86-2.56,1.96
					c-2.24,6.08-6.06,11.48-10.88,15.79c-1.45,3.25-3.47,6.24-5.98,8.77C24.62,213.32,13.77,216.33,5.51,222.88z"/>
				<path fill="#392613" d="M280.87,277.89c0.12,0.3,0.22,0.61,0.35,0.91c-0.01-0.4-0.05-0.79-0.08-1.18
					C281.06,277.72,280.97,277.81,280.87,277.89z"/>
				<path fill="#392613" d="M68.34,239.31c0.22-0.1,0.44-0.21,0.66-0.31C68.73,239.05,68.52,239.16,68.34,239.31z"/>
				<path fill="#392613" d="M280.71,274.37c-0.52-2.85-1.31-5.66-1.9-8.5c-0.49-0.95-1.07-1.83-1.88-2.49
					c0.28,1.83,0.65,3.64,1.08,5.44C278.71,270.76,279.61,272.63,280.71,274.37z"/>
				<path fill="#392613" d="M68.16,242.21c-0.55-0.99-0.55-2.3,0.18-2.9c-0.52,0.25-1.04,0.49-1.57,0.73
					c-0.32,0.54-0.64,1.07-0.95,1.61C66.5,242.2,67.33,242.34,68.16,242.21z"/>
				<path fill="#54391D" d="M118.96,258.72c0.37-0.97,0.61-2.03,0.77-3C119.07,256.61,118.86,257.66,118.96,258.72z"/>
				<path fill="#392613" d="M118.96,258.72c0.37-0.97,0.61-2.03,0.77-3C119.07,256.61,118.86,257.66,118.96,258.72z"/>
				<path fill="#54391D" d="M278.01,268.82c-0.43-1.8-0.79-3.61-1.08-5.44c-0.1-0.09-0.2-0.18-0.32-0.26
					C276.88,265.06,277.36,266.97,278.01,268.82z"/>
				<path fill="#392613" d="M278.01,268.82c-0.43-1.8-0.79-3.61-1.08-5.44c-0.1-0.09-0.2-0.18-0.32-0.26
					C276.88,265.06,277.36,266.97,278.01,268.82z"/>
				<path fill="#54391D" d="M27.87,205.31c-8.25,5.68-16.6,11.36-25.75,15.36c-0.16,0.15-0.31,0.31-0.48,0.46
					c-0.72,0.67-1.3,1.15-1.51,2.15c-0.3,1.43-0.16,2.83,0.94,3.87c0.53,0.5,1.13,0.86,1.77,1.16c7.21,1.92,14.7,2.79,22.16,2.57
					c2.17-0.06,4.78-0.01,5.95,1.82c0.93,1.46,0.47,3.35,0.56,5.07c0.26,4.7,4.85,8.16,9.48,9.02c4.63,0.86,9.36-0.17,14.04-0.65
					c7.78-0.8,15.62-0.05,23.41,0.69c4.16,0.4,8.67,0.95,11.66,3.86c1.56,1.52,2.55,3.55,4.08,5.1c0.97,0.98,2.14,1.75,3.32,2.49
					c6.43,4.07,13.28,7.66,20.68,9.42s15.9,1.79,22.77-1.48c1.95,4.49,7.88,5.25,12.77,5.36c21.58,0.46,43.16,0.92,64.74,1.38
					c3.26,0.07,6.69,0.19,9.47,1.89c2.24,1.37,3.79,3.63,5.91,5.17c3.8,2.77,8.84,2.94,13.54,3c8.64,0.11,17.29,0.21,25.93,0.32
					c4.51,0.06,10.5-1.15,10.83-5.65c0.07-1-0.16-2.13,0.46-2.92c0.63-0.8,1.81-0.83,2.82-0.8c9.75,0.29,19.52-0.13,29.21-1.24
					c2.23-0.25,4.56-0.59,6.36-1.92c3.37-2.5,3.26-8.39-0.19-10.77c0.09-0.06,0.19-0.1,0.28-0.16c-1.18-1.26-2.24-2.63-3.16-4.09
					c-0.15,1.08-0.29,2.17-0.44,3.25c-3.71-4.89-2.27-12.19-5.53-17.4c-0.06,3.52-0.12,7.04-0.18,10.56
					c-0.01,0.8-0.03,1.6,0.18,2.37c0.31,1.2,1.12,2.2,1.84,3.21c1.72,2.4,3.12,5.48,2.07,8.25c-1.16,3.05-4.78,4.33-8.02,4.7
					c-7.24,0.83-14.77-0.98-21.74,1.15c-1.25,0.38-2.54,0.9-3.83,0.7c-2.08-0.31-3.44-2.31-4.32-4.22
					c-0.38-0.82-0.74-1.68-1.15-2.49c0.58,2.85,1.38,5.66,1.9,8.5c0.02,0.03,0.03,0.05,0.05,0.08c0.42,0.66,0.88,1.37,0.83,2.14
					c-0.03,0.4-0.2,0.74-0.44,1.02c0.03,0.39,0.07,0.79,0.08,1.18c-0.12-0.3-0.23-0.61-0.35-0.91c-0.62,0.52-1.55,0.78-2.38,0.75
					c-2.83-0.11-5.24-2.31-6.45-4.88s-1.45-5.46-1.69-8.28c-0.15-1.8-0.42-3.82-1.86-4.92c-1.17,2.31-0.57,5.07-0.13,7.62
					c0.43,2.55,0.53,5.52-1.31,7.34c-0.78,0.77-1.81,1.22-2.82,1.66c-3.06,1.32-6.29,2.68-9.61,2.36c-3.73-0.35-6.7-1.42-10.35-2.27
					c-0.98-0.23-1.97-0.46-2.97-0.53c-0.92-0.07-1.85,0-2.78,0c-1.78,0-3.69-0.33-4.98-1.57c-1.51-1.44-1.73-2.86-1.71-4.95
					c1.14,0.11,1.78-1.44,1.41-2.53s-1.29-1.89-1.86-2.89c-2.7-4.8,3.73-11.26,0.83-15.95c-5.52,4.64-4.63,13.97-9.86,18.93
					c-4.9,4.65-12.7,3.43-19.38,2.35c-9.81-1.58-19.78-2.16-29.71-1.73c-5.19,0.23-10.4,0.73-15.58,0.26
					c-2.84-0.26-6-1.03-7.47-3.47c-0.72-1.19-0.92-2.61-1.08-3.99c-1.07-9.31-0.66-18.79,1.22-27.97c-0.75-1.23-2.55,0.24-3.08,1.58
					c-2.2,5.49-3.55,11.31-3.97,17.21c-0.19,2.63-0.24,5.42-1.62,7.67c-2.08,3.4-6.46,4.48-10.42,4.95c-3.09,0.37-6.4,0.51-9.1-1.04
					c-1.74-1-3.01-2.95-3.2-4.89c-0.72,1.91-1.92,3.52-3.85,3.55c-0.8,0.01-1.56-0.28-2.3-0.56c-6.03-2.31-12.21-4.7-17.01-9
					c-2.48-2.22-4.54-4.91-7.24-6.86c-3.88-2.82-8.98-3.89-13.67-2.89c-1.87,0.4-3.87,1.1-5.61,0.33c-0.48-0.21-0.86-0.61-1.11-1.07
					c-0.83,0.13-1.66-0.02-2.35-0.57c0.32-0.54,0.64-1.07,0.95-1.61c-4.51,2.08-9.16,3.96-14.09,4.3
					c-5.75,0.4-12.05-1.78-14.94-6.76c-0.55-0.95-0.97-1.99-1.66-2.85c-0.79-1.01-1.92-1.75-2.53-2.88
					c-1.61-2.96,1.04-6.34,3.37-8.79c5.96-6.27,11-13.4,14.93-21.1c-5.22,6.94-10.74,13.65-16.53,20.12
					c-2.53,2.83-5.34,5.75-9.04,6.61c-2.06,0.48-4.21,0.26-6.32,0.04c-4.64-0.48-9.28-0.96-13.91-1.45
					c-0.67-0.07-1.41-0.17-1.87-0.67c-1.02-1.1,0.17-2.81,1.34-3.74c8.26-6.56,19.1-9.57,26.53-17.05c2.51-2.53,4.53-5.52,5.98-8.77
					c-0.06,0.06-0.12,0.12-0.18,0.17C34.98,200.38,31.4,202.89,27.87,205.31z"/>
				<path fill="#392613" d="M27.87,205.31c-8.25,5.68-16.6,11.36-25.75,15.36c-0.16,0.15-0.31,0.31-0.48,0.46
					c-0.72,0.67-1.3,1.15-1.51,2.15c-0.3,1.43-0.16,2.83,0.94,3.87c0.53,0.5,1.13,0.86,1.77,1.16c7.21,1.92,14.7,2.79,22.16,2.57
					c2.17-0.06,4.78-0.01,5.95,1.82c0.93,1.46,0.47,3.35,0.56,5.07c0.26,4.7,4.85,8.16,9.48,9.02c4.63,0.86,9.36-0.17,14.04-0.65
					c7.78-0.8,15.62-0.05,23.41,0.69c4.16,0.4,8.67,0.95,11.66,3.86c1.56,1.52,2.55,3.55,4.08,5.1c0.97,0.98,2.14,1.75,3.32,2.49
					c6.43,4.07,13.28,7.66,20.68,9.42s15.9,1.79,22.77-1.48c1.95,4.49,7.88,5.25,12.77,5.36c21.58,0.46,43.16,0.92,64.74,1.38
					c3.26,0.07,6.69,0.19,9.47,1.89c2.24,1.37,3.79,3.63,5.91,5.17c3.8,2.77,8.84,2.94,13.54,3c8.64,0.11,17.29,0.21,25.93,0.32
					c4.51,0.06,10.5-1.15,10.83-5.65c0.07-1-0.16-2.13,0.46-2.92c0.63-0.8,1.81-0.83,2.82-0.8c9.75,0.29,19.52-0.13,29.21-1.24
					c2.23-0.25,4.56-0.59,6.36-1.92c3.37-2.5,3.26-8.39-0.19-10.77c0.09-0.06,0.19-0.1,0.28-0.16c-1.18-1.26-2.24-2.63-3.16-4.09
					c-0.15,1.08-0.29,2.17-0.44,3.25c-3.71-4.89-2.27-12.19-5.53-17.4c-0.06,3.52-0.12,7.04-0.18,10.56
					c-0.01,0.8-0.03,1.6,0.18,2.37c0.31,1.2,1.12,2.2,1.84,3.21c1.72,2.4,3.12,5.48,2.07,8.25c-1.16,3.05-4.78,4.33-8.02,4.7
					c-7.24,0.83-14.77-0.98-21.74,1.15c-1.25,0.38-2.54,0.9-3.83,0.7c-2.08-0.31-3.44-2.31-4.32-4.22
					c-0.38-0.82-0.74-1.68-1.15-2.49c0.58,2.85,1.38,5.66,1.9,8.5c0.02,0.03,0.03,0.05,0.05,0.08c0.42,0.66,0.88,1.37,0.83,2.14
					c-0.03,0.4-0.2,0.74-0.44,1.02c0.03,0.39,0.07,0.79,0.08,1.18c-0.12-0.3-0.23-0.61-0.35-0.91c-0.62,0.52-1.55,0.78-2.38,0.75
					c-2.83-0.11-5.24-2.31-6.45-4.88s-1.45-5.46-1.69-8.28c-0.15-1.8-0.42-3.82-1.86-4.92c-1.17,2.31-0.57,5.07-0.13,7.62
					c0.43,2.55,0.53,5.52-1.31,7.34c-0.78,0.77-1.81,1.22-2.82,1.66c-3.06,1.32-6.29,2.68-9.61,2.36c-3.73-0.35-6.7-1.42-10.35-2.27
					c-0.98-0.23-1.97-0.46-2.97-0.53c-0.92-0.07-1.85,0-2.78,0c-1.78,0-3.69-0.33-4.98-1.57c-1.51-1.44-1.73-2.86-1.71-4.95
					c1.14,0.11,1.78-1.44,1.41-2.53s-1.29-1.89-1.86-2.89c-2.7-4.8,3.73-11.26,0.83-15.95c-5.52,4.64-4.63,13.97-9.86,18.93
					c-4.9,4.65-12.7,3.43-19.38,2.35c-9.81-1.58-19.78-2.16-29.71-1.73c-5.19,0.23-10.4,0.73-15.58,0.26
					c-2.84-0.26-6-1.03-7.47-3.47c-0.72-1.19-0.92-2.61-1.08-3.99c-1.07-9.31-0.66-18.79,1.22-27.97c-0.75-1.23-2.55,0.24-3.08,1.58
					c-2.2,5.49-3.55,11.31-3.97,17.21c-0.19,2.63-0.24,5.42-1.62,7.67c-2.08,3.4-6.46,4.48-10.42,4.95c-3.09,0.37-6.4,0.51-9.1-1.04
					c-1.74-1-3.01-2.95-3.2-4.89c-0.72,1.91-1.92,3.52-3.85,3.55c-0.8,0.01-1.56-0.28-2.3-0.56c-6.03-2.31-12.21-4.7-17.01-9
					c-2.48-2.22-4.54-4.91-7.24-6.86c-3.88-2.82-8.98-3.89-13.67-2.89c-1.87,0.4-3.87,1.1-5.61,0.33c-0.48-0.21-0.86-0.61-1.11-1.07
					c-0.83,0.13-1.66-0.02-2.35-0.57c0.32-0.54,0.64-1.07,0.95-1.61c-4.51,2.08-9.16,3.96-14.09,4.3
					c-5.75,0.4-12.05-1.78-14.94-6.76c-0.55-0.95-0.97-1.99-1.66-2.85c-0.79-1.01-1.92-1.75-2.53-2.88
					c-1.61-2.96,1.04-6.34,3.37-8.79c5.96-6.27,11-13.4,14.93-21.1c-5.22,6.94-10.74,13.65-16.53,20.12
					c-2.53,2.83-5.34,5.75-9.04,6.61c-2.06,0.48-4.21,0.26-6.32,0.04c-4.64-0.48-9.28-0.96-13.91-1.45
					c-0.67-0.07-1.41-0.17-1.87-0.67c-1.02-1.1,0.17-2.81,1.34-3.74c8.26-6.56,19.1-9.57,26.53-17.05c2.51-2.53,4.53-5.52,5.98-8.77
					c-0.06,0.06-0.12,0.12-0.18,0.17C34.98,200.38,31.4,202.89,27.87,205.31z"/>
				<path fill="#54391D" d="M376.58,241.41c-0.21,1.19-1.55,1.77-2.7,2.13c-3.04,0.97-6.19,1.95-9.36,1.61
					c-2.93-0.31-5.9-2.54-8.39-0.96c-2.86,1.81-5.91,3.3-9.1,4.43c-2.66,0.95-5.44,1.67-7.86,3.13c-1.69,1.02-3.62,2.44-5.41,1.63
					c-1.2-0.55-1.79-1.99-1.74-3.31c0.06-1.32,0.63-2.56,1.19-3.76c-1,0.1-1.64,1.15-1.85,2.13c-0.22,0.98-0.2,2.04-0.65,2.94
					c-0.81,1.59-2.93,2.3-3.44,4.01c-0.26,0.87-0.02,1.76,0.22,2.65c5.47-1.56,11.7-1.43,16.24-4.86c1.87-1.41,3.37-3.38,5.51-4.35
					c1.54-0.69,3.26-0.8,4.95-0.9c4.92-0.28,9.85-0.57,14.77-0.85c3.86-0.22,8.7-1.22,9.53-5c0.38-1.7-0.26-3.45-0.93-5.05
					c-2.25-5.34-5.08-10.43-8.42-15.16c2.06,5.97,4.39,11.85,7,17.6C376.41,240.08,376.69,240.74,376.58,241.41z"/>
				<path fill="#392613" d="M376.58,241.41c-0.21,1.19-1.55,1.77-2.7,2.13c-3.04,0.97-6.19,1.95-9.36,1.61
					c-2.93-0.31-5.9-2.54-8.39-0.96c-2.86,1.81-5.91,3.3-9.1,4.43c-2.66,0.95-5.44,1.67-7.86,3.13c-1.69,1.02-3.62,2.44-5.41,1.63
					c-1.2-0.55-1.79-1.99-1.74-3.31c0.06-1.32,0.63-2.56,1.19-3.76c-1,0.1-1.64,1.15-1.85,2.13c-0.22,0.98-0.2,2.04-0.65,2.94
					c-0.81,1.59-2.93,2.3-3.44,4.01c-0.26,0.87-0.02,1.76,0.22,2.65c5.47-1.56,11.7-1.43,16.24-4.86c1.87-1.41,3.37-3.38,5.51-4.35
					c1.54-0.69,3.26-0.8,4.95-0.9c4.92-0.28,9.85-0.57,14.77-0.85c3.86-0.22,8.7-1.22,9.53-5c0.38-1.7-0.26-3.45-0.93-5.05
					c-2.25-5.34-5.08-10.43-8.42-15.16c2.06,5.97,4.39,11.85,7,17.6C376.41,240.08,376.69,240.74,376.58,241.41z"/>
			</g>
			<g>
				<path fill="#724924" d="M45.71,200.71c0.83-0.81,2.05-1.17,3.02-1.79c1.11-0.71,2.11-1.56,3.22-2.26
					c1.33-0.84,2.68-0.96,4.13-1.51c2.27-0.85,4.37-2.75,5.26-5.03c1.29-3.33-2.42-4.29-4.89-3.42c-1.35,0.48-2.44,1.31-3.49,2.26
					c-0.67,0.61-1.35,1.27-2.11,1.77c-0.04,0.03-0.29,0.16-0.49,0.28c-0.02-0.07-0.04-0.14-0.05-0.21
					c-0.09-0.43-0.21-0.81-0.05-1.23c0.25-0.63,0.79-1.18,1.1-1.78c0.9-1.79,1.19-3.92,1.09-5.9c-0.08-1.62-2.06-1.33-2.92-0.68
					c-1.59,1.21-2.26,2.92-2.68,4.73c-0.31,0.48-0.61,0.96-0.89,1.44c-1,1.72-1.92,3.49-2.86,5.23c-0.87,1.59-1.67,3.23-2.65,4.75
					c-1.23,1.9-2.93,3.29-4.53,4.87c-1.84,1.81-3.64,3.66-5.48,5.47c-1.67,1.64-3.18,3.45-4.94,5c-1.86,1.64-3.93,3.11-5.96,4.53
					c-1.28,0.9-2.38,1.96-2.87,3.48c-0.26,0.82,0.08,2.04,1.1,2.13c2.92,0.25,5.38-0.82,7.77-2.4c2.28-1.52,4.44-3.24,6.52-5.02
					c4.15-3.55,7.96-7.5,11.35-11.79C44.15,202.67,44.83,201.57,45.71,200.71z"/>
				<path fill="#724924" d="M77.06,206.5c-0.56,0.41-1.08,0.86-1.59,1.32c-0.75,0.59-1.5,1.18-2.19,1.83
					c-1.43,1.34-2.8,2.77-4.06,4.27c-1.01,1.19-1.98,2.46-2.93,3.74c-0.79,0.69-1.62,1.35-2.37,2.05c-1.96,1.81-3.72,3.77-5.46,5.8
					c-1.27,1.48-2.63,2.97-4.32,4c-1,0.61-3.14,1.81-4.12,0.65c-0.29-0.35-0.46-0.81-0.56-1.31c0.02-0.32,0.05-0.6,0.07-0.82
					c0.02-0.26,0.06-0.51,0.09-0.77c1.26-2.91,2.64-5.77,4.08-8.59c1.33-2.59,2.73-5.15,4.08-7.73c0.85-1.62,1.76-3.22,2.57-4.86
					c0.76-1.53,1.3-3.19,1.97-4.77c0.15-0.35-0.19-0.76-0.51-0.78c-0.24-0.18-0.55-0.23-0.8,0.01c-1.51,1.43-3.02,2.86-4.45,4.34
					c-5.54,5.46-11.04,11.01-15.42,17.47c-1.84,2.71-3.23,5.69-2.75,9.04c0.36,2.48,1.62,4.74,3.7,6.14
					c1.21,1.5,2.94,2.37,4.79,2.65c0.5,0.2,1.01,0.36,1.54,0.46c0.91,0.17,1.81,0.18,2.71,0.09c0.07,0.01,0.14,0.02,0.21,0.02
					c3.1,0.2,6.1-0.39,8.75-2.06c2.42-1.53,4-3.92,4.84-6.62c0.48-1.54,0.64-3.15,1.16-4.68c0.45-1.34,1.06-2.61,1.78-3.82
					c0.39-0.65,0.56-1.5,0.34-2.22c0.62-1.01,1.25-2.01,1.86-2.99c1.31-2.11,2.63-4.21,4.02-6.27c1.11-1.64,2.14-3.33,3.64-4.64
					C78.17,207.06,77.55,206.14,77.06,206.5z"/>
				<path fill="#724924" d="M121.53,223.66c-4.82,3.56-7.34,8.1-10.06,13.29c-1.45,2.77-5.97,7.96-8.9,3.45
					c-1.93-2.98,0.3-7.68,0.47-10.9c0-0.07-0.01-0.13-0.01-0.19c1.28-2.06,2.12-4.38,2.41-6.99c-0.01-0.01-0.02-0.01-0.03-0.02
					c-0.02-0.42-0.38-0.9-0.78-0.57c-1.76,1.44-2.59,2.93-4.04,4.68c-2.39,2.89-3.39,3.32-4.81,4.07c1.02-3.87,1.46-7.84,2.97-11.63
					c0.11-0.28-0.22-0.95-0.56-0.64c-2.57,2.27-4.45,4.36-5.82,7.56c-1.48,3.44-3.46,6.32-6.79,7.9c-2.38,1.13-4.12,2.07-4.28,4.97
					c-0.12,2.04,0.89,4.22,3.05,4.66c0.65,0.13,1.41,0.03,2.2-0.18c1.22,0.21,2.43,0.32,3.6,0.57c0.86,0.27,1.71,0.59,2.54,1.02
					c0.44,0.23,0.84,0.49,1.22,0.76c0.09,0.08,0.19,0.15,0.29,0.23c0.11,0.1,0.22,0.16,0.34,0.24c1.59,1.32,2.73,2.95,4.39,4.34
					c2.32,1.94,5.21,2.49,8.07,1.51c3.93-1.34,6.56-5.21,8.13-9.52c3.41-5.49,5.08-13.08,6.88-18.02
					C122.08,224.01,121.86,223.41,121.53,223.66z"/>
				<path fill="#724924" d="M138.84,229.87c-2.5,1.85-5.13,4.2-6.9,6.8c-2.67,3.94-2.47,8.21-4.33,12.36
					c-1.65,3.66-6.73,6.29-2.72,10.82c4.27,4.84,9.83,0.22,11.76-4.15c2.43-5.51,2.71-11.89,1.69-17.8c0.74-2.3,1.55-4.57,1.85-6.96
					C140.26,230.28,139.53,229.36,138.84,229.87z"/>
				<path fill="#724924" d="M174.67,234.9c-1.36,0.49-2.41,1.44-3.17,2.63c-0.59,0.91-0.86,3.64-1.52,4.23
					c-4.6,4.02-9.26-12.26-15.12-5.06c-1.05,1.29-1.23,3.01-1.11,4.8c-0.41,2.11-0.36,4.32-0.47,6.68
					c-0.16,3.61-2.03,10.25,0.75,13.73c2.2,2.74,5.93,3.31,9.21,3.34c3.21,0.03,6.47,0.41,9.65,0.24
					c6.17-0.34,13.75-0.42,14.85-7.98c0.91-6.24-0.99-16.28-5.8-20.73C180.03,235.01,177.26,233.98,174.67,234.9z"/>
				<path fill="#724924" d="M220.23,243.43c-2.47-0.34-4.88-0.13-7.26-1.02c-1.47-0.55-2.76-1.52-4.32-1.81
					c-1.36-0.26-2.35,0.41-3.15,1.43c-1.19,1.52-1.09,3.68-1.06,5.78c-0.19,0.75-0.36,1.52-0.54,2.31
					c-0.25,1.14-0.47,2.32-0.75,3.49c-0.58,1.19-1.16,2.45-1.25,3.66c-0.79,1.53-1.97,2.83-2.04,4.62
					c-0.13,3.22,2.85,5.51,5.95,5.04c3.35-0.51,6.5-4.1,9.31-5.81c4.31-2.63,11.89-7.23,10.81-13.42
					C225.42,244.86,222.78,243.78,220.23,243.43z"/>
				<path fill="#724924" d="M261.96,254.03c-0.03-1.02,0.59-1.91,0.42-3.02c-0.92-6.17-9.29-5.23-13.49-4.7
					c-2.52,0.32-5.18-0.51-7.33,1.27c-0.53,0.44-0.97,1-1.34,1.61c-0.25,0.1-0.44,0.3-0.5,0.64c-0.03,0.22-0.1,0.43-0.16,0.65
					c-0.2,0.47-0.36,0.96-0.51,1.44c-0.99,2.12-2.66,3.93-3.11,6.33c-0.6,3.25,1.11,6.84,2.59,9.63c1.46,2.76,3.48,3.99,6.5,4.76
					c1.63,0.42,3.16,0.55,4.85,0.51c2.35-0.07,4.05,0.32,6.38,0.73c5.41,0.97,9.66-3.61,9.43-8.92c-0.1-2.42-1.08-4.73-2.23-6.82
					C262.6,256.57,262.03,255.95,261.96,254.03z M255.16,266.93c0.01,0.01,0.01,0.02,0.02,0.03c-0.01,0-0.03-0.01-0.04-0.01
					C255.14,266.94,255.15,266.93,255.16,266.93z"/>
				<path fill="#724924" d="M308.49,245.08c-0.23-1.6-0.32-2.19-1.65-3.19c-1.52-1.14-3.67-1.59-5.53-1.47
					c-1.22,0.08-2.27,0.54-3.44,0.82c-2.93,0.7-5.23-0.22-7.9-1.31c-3.11-1.28-5.73-0.39-6.86,3.05c-0.62,1.89-0.47,3.85-0.02,5.82
					c-0.06,2.2-0.2,4.31-0.61,6.6c-0.35,1.98-0.28,3.85,0.78,5.63c0.95,1.59,2.5,2.74,4.18,3.46c1.42,0.6,2.89,0.67,4.38,0.89
					c2.67,0.4,5.43,1.22,8.14,1.36c7.29,0.38,17.95-5.06,12.7-13.85C310.84,249.84,309.02,248.8,308.49,245.08z M290.49,259.08
					c0.09,0.18,0.18,0.35,0.28,0.53c-0.16-0.04-0.31-0.09-0.46-0.15C290.38,259.34,290.44,259.21,290.49,259.08z"/>
				<path fill="#724924" d="M347.27,234.76c-1.25-0.16-2.51,0.01-3.75-0.06c-2.3-0.13-3.98-1.22-6.08-2.04
					c-3.3-1.27-6.37-1.83-9.41-3.92c-1.51-1.04-3.56,0-4.06,1.65c-0.45,1.48-0.61,2.36-0.06,3.91c0.07,0.18,0.29,0.54,0.59,0.98
					c-0.18,3.1-0.66,6.25-0.94,9.2c-0.26,2.75-0.39,4.83,1.37,7.05c0.94,1.19,2.96,1.03,3.87-0.16c1.33-1.75,1.6-3.2,2.43-5.06
					c0.79-1.78-0.35-2.27,1.75-0.72c1.95,1.44,3,2.62,5.77,1.85c2.95-0.81,4.32-3.73,7.19-4.53c2.29-0.64,4.22-0.47,5.77-2.67
					C354.11,236.82,350.37,235.15,347.27,234.76z"/>
			</g>
			<path fill="#93902E" d="M103.12,169.08c-1.74,0.71-3.66,1.62-4.26,3.39c-0.88,2.57,1.65,5.13,4.24,5.95
				c2.59,0.82,5.47,0.71,7.91,1.91c4.24,2.09,5.84,7.39,9.56,10.3c6.01,4.71,15.4,1.81,21.81,5.96c2.31,1.49,4,3.77,6.17,5.45
				c8.65,6.66,21.84,2.13,31.51,7.19c4.49,2.35,7.82,6.59,12.43,8.68c2.96,1.33,6.24,1.69,9.37,2.54c5.19,1.41,9.95,4.17,15.21,5.31
				c8.91,1.93,18.2-1.04,26.26-5.3c4.19-2.21,8.24-4.8,12.76-6.25c4.56-1.46,9.4-1.71,14.18-1.95c7.33-0.36,14.65-0.73,21.98-1.09
				c4.36-0.22,8.85-0.47,12.77-2.37c3.92-1.91,7.16-5.92,6.77-10.26c-0.26-2.91-2.07-5.79-1.17-8.57c1.64-5.05,9.92-4.26,12.71-8.77
				c2.58-4.18-1.25-9.26-2.19-14.09c-0.34-1.77-0.28-3.61-0.71-5.36c-1.7-6.92-9.84-9.73-16.8-11.22
				c-13.43-2.88-27.26-5.1-40.87-3.19c-5.93,0.83-11.73,2.43-17.68,3.1c-14.99,1.69-29.92-2.59-44.66-5.78
				c-14.74-3.19-30.62-5.24-44.53,0.61c-5.09,2.14-9.77,5.32-15.14,6.75c-4.57,1.22-9.76,0.58-13.76,3.49
				c-2.82,2.06-4.58,5.04-7.71,6.8C114.27,165.1,108.44,166.89,103.12,169.08z"/>
			<path opacity="0.48" fill="#282828" d="M119.55,167.76c-1.05,0.27-2.1,0.53-3.16,0.8c-1.53,0.39-3.11,0.8-4.34,1.78
				s-2.03,2.7-1.46,4.17c0.83,2.12,3.78,2.5,5.17,4.31c1.01,1.32,1.31,3.45,2.92,3.85c7.07,1.74,13.43,7.79,20.69,7.28
				c2.29-0.16,4.59-0.74,6.85-0.34c3.32,0.59,5.89,3.14,8.88,4.68c5.64,2.89,12.71,2.11,18.12,5.41c1.78,1.08,3.3,2.57,5.18,3.47
				c4.8,2.3,11.88,0.92,14.45,5.59c0.71,1.29,0.88,2.83,1.61,4.11c1.19,2.06,3.59,3.04,5.82,3.87c4.94,1.85,9.95,3.72,15.21,4.25
				c5.25,0.53,10.86-0.42,14.99-3.7c1.59-1.26,2.93-2.84,4.7-3.83c3.73-2.09,8.45-1.11,12.49-2.5c5.65-1.94,8.72-7.91,13.34-11.7
				c7.92-6.49,19.36-5.92,28.86-9.74c4.88-1.96,9.62-5.68,10.42-10.87c0.38-2.46-0.17-5.04,0.57-7.42c0.48-1.56,1.5-2.93,1.94-4.5
				c0.93-3.34-0.98-6.95-3.76-9.03s-6.24-2.94-9.62-3.7c-10.44-2.34-21-4.11-31.56-5.76c-16.43-2.57-32.98-4.86-49.6-4.53
				s-33.43,3.4-48.19,11.04c-6.34,3.28-12.47,7.45-19.53,8.51C134.2,164.19,125.75,166.19,119.55,167.76z"/>
			<g>
				<path fill="#93902E" d="M272.22,219.26c-0.09-0.49-0.43-0.92-0.93-1.06c-2.89-0.81-5.96-0.81-8.73,0.42
					c-0.73,0.32-1.27,0.96-1.39,1.76c-0.09,0.64,0.17,1.52,0.87,1.74c0.39,0.13,0.79,0.23,1.2,0.32c0.51,0.23,1.13,0.29,1.68,0.33
					c0.8,0.07,1.59,0.09,2.4,0c0.54-0.06,1.1-0.15,1.66-0.3c0.57-0.11,1.13-0.25,1.68-0.43c0.65-0.21,1.19-0.71,1.43-1.36
					c0.08-0.21,0.1-0.46,0.1-0.7C272.24,219.77,272.27,219.53,272.22,219.26z"/>
				<path fill="#93902E" d="M283.56,222.81c-0.09-0.09-0.18-0.18-0.28-0.26c-0.18-0.16-0.41-0.27-0.62-0.38
					c-0.1-0.05-0.2-0.09-0.31-0.12c-0.23-0.06-0.48-0.12-0.72-0.14c-0.26-0.02-0.53,0-0.78,0.03c-0.14,0.01-0.28,0.04-0.41,0.08
					c-0.28,0.08-0.56,0.17-0.82,0.28c-0.07,0.03-0.14,0.06-0.21,0.09c-0.04,0.02-0.08,0.05-0.12,0.07c-0.16,0.04-0.31,0.1-0.46,0.19
					c-0.5,0.28-0.84,0.7-1.01,1.25c-0.05,0.17-0.06,0.36-0.07,0.54c0,0.07-0.01,0.13,0,0.2c0.04,0.35,0.13,0.62,0.31,0.91
					c0.12,0.19,0.22,0.36,0.4,0.5c0.14,0.12,0.3,0.24,0.46,0.34c0.18,0.11,0.39,0.16,0.59,0.22c0.71,0.2,1.45,0.1,2.16-0.05
					c0.05-0.01,0.09-0.02,0.14-0.03c0.11-0.03,0.45-0.2,0.37-0.16c0.11-0.05,0.25-0.1,0.36-0.17c0.14-0.08,0.28-0.18,0.41-0.27
					c0.15-0.1,0.27-0.17,0.39-0.27c0.26-0.22,0.49-0.46,0.65-0.77c0.11-0.22,0.17-0.43,0.19-0.67c0.04-0.36-0.04-0.74-0.25-1.05
					C283.82,223.03,283.67,222.92,283.56,222.81z M280.43,225.49C280.43,225.49,280.43,225.49,280.43,225.49
					c0.01,0,0.02-0.01,0.03-0.01C280.45,225.48,280.44,225.49,280.43,225.49z"/>
				<path fill="#93902E" d="M298.35,213.24c-0.57-0.11-1.19-0.09-1.76-0.08c-0.72,0.01-1.45,0.03-2.17,0.08
					c-0.75,0.06-1.47,0.17-2.2,0.36c-0.59,0.15-1.35,0.38-1.22,1.16c0.09,0.55,0.58,1.03,1.03,1.31c0.55,0.35,1.06,0.57,1.69,0.69
					c0.48,0.09,0.95,0.16,1.44,0.19c0.63,0.04,1.19-0.12,1.75-0.35c0.31,0.02,0.62,0.03,0.93,0.02c1-0.05,2.73-0.59,2.46-1.92
					C300.12,213.83,299.14,213.38,298.35,213.24z"/>
				<path fill="#93902E" d="M308.17,212.34c-0.16,0-0.33,0.01-0.49,0.05c-0.13,0.01-0.26,0.06-0.37,0.13
					c-0.07,0.03-0.13,0.1-0.18,0.15c-0.01,0-0.02,0-0.04,0c-0.05,0-0.1,0-0.15,0.01c-0.04,0-0.08,0.02-0.11,0.02
					c-0.01,0-0.01,0-0.02,0c0,0,0,0,0,0c-0.07,0.01-0.14,0.02-0.21,0.04c-0.25,0.07-0.4,0.34-0.39,0.59
					c0.01,0.14,0.05,0.27,0.12,0.38c0.08,0.13,0.19,0.24,0.32,0.33c0.2,0.16,0.49,0.21,0.73,0.26c0.12,0.02,0.25,0.04,0.37,0.05
					c0.19,0.01,0.37,0,0.56-0.02c0.06-0.01,0.12-0.02,0.18-0.03c0.03-0.01,0.05-0.01,0.08-0.02c0.11-0.03,0.2-0.06,0.29-0.11
					c0.03-0.01,0.06-0.01,0.09-0.01c-0.02,0-0.04,0-0.07,0c0.09-0.05,0.17-0.1,0.27-0.15c0.11-0.07,0.18-0.17,0.22-0.29
					c0.07-0.11,0.09-0.23,0.08-0.35c-0.03-0.27-0.15-0.48-0.35-0.67C308.87,212.46,308.51,212.33,308.17,212.34z"/>
				<path fill="#93902E" d="M141.3,206.98c-0.63-0.3-1.37-0.31-2.04-0.35c-0.54-0.03-1.09-0.03-1.63,0
					c-1.33,0.07-2.69,0.32-3.95,0.75c-0.89,0.3-1.43,1.15-1.3,2.07c0.12,0.9,1.11,1.28,1.89,1.3c0.13-0.01,0.26-0.02,0.39-0.03
					c0.15-0.01,0.29-0.01,0.43-0.03c0.08-0.01,0.16-0.02,0.24-0.03c0.07,0.03,0.13,0.08,0.19,0.11c0.49,0.23,1.08,0.34,1.62,0.42
					c1.22,0.18,2.55,0.11,3.67-0.46c0.75-0.38,1.38-1.02,1.55-1.87C142.5,208.07,141.99,207.31,141.3,206.98z"/>
				<path fill="#93902E" d="M171.96,213.69c-0.25-0.1-0.52-0.17-0.79-0.22c-0.24-0.04-0.5-0.04-0.74-0.01
					c-0.22,0.03-0.44,0.06-0.65,0.11c-0.33,0.07-0.57,0.24-0.8,0.46c-0.11,0.1-0.2,0.23-0.25,0.38c-0.12,0.03-0.24,0.06-0.35,0.1
					c-0.17,0.06-0.38,0.23-0.49,0.38c-0.15,0.2-0.21,0.44-0.18,0.69c0.07,0.48,0.48,0.8,0.92,0.93c0.68,0.19,1.46,0.17,2.15,0.03
					c0.67-0.14,1.35-0.45,1.87-0.9c0.19-0.17,0.34-0.31,0.4-0.57c0.06-0.25,0.01-0.44-0.1-0.68
					C172.77,213.98,172.34,213.84,171.96,213.69z"/>
				<path fill="#93902E" d="M184.63,217.26c-0.04-0.12-0.1-0.21-0.2-0.29c-0.07-0.1-0.17-0.17-0.28-0.22
					c-0.16-0.11-0.33-0.17-0.52-0.2c-0.51-0.13-1.01-0.18-1.54-0.16c-0.28,0.01-0.55,0.02-0.83,0.06c-0.1,0.02-0.2,0.03-0.31,0.06
					c-0.05,0.01-0.1,0.02-0.15,0.03c-0.3,0.06-0.57,0.18-0.82,0.36c-0.09,0.07-0.16,0.16-0.24,0.24c-0.07,0.05-0.15,0.09-0.22,0.14
					c-0.19,0.16-0.33,0.36-0.42,0.6c-0.07,0.17-0.09,0.34-0.05,0.52c0,0.18,0.06,0.34,0.17,0.49c0.14,0.2,0.32,0.35,0.54,0.44
					c0.67,0.26,1.41,0.39,2.13,0.31c0.73-0.08,1.44-0.29,2.07-0.69c0.22-0.14,0.43-0.31,0.57-0.53c0.05-0.11,0.11-0.22,0.16-0.33
					c0.07-0.17,0.08-0.35,0.04-0.52C184.74,217.47,184.7,217.36,184.63,217.26z"/>
				<path fill="#93902E" d="M108.24,193.68c-1.34-0.16-2.63,0.05-3.91,0.48c-1.03,0.35-1.95,1.53-1.43,2.65
					c0.43,0.93,1.39,1.23,2.34,1.22c0.3,0,0.59-0.04,0.89-0.07c0.16-0.02,0.33-0.04,0.49-0.07c0.19-0.03,0.38-0.04,0.56-0.09
					c0.24-0.06,0.47-0.16,0.7-0.28c0.21,0.02,0.43,0.04,0.64,0.04c0.57,0,1.17-0.08,1.7-0.3c0.71-0.29,1.29-1.05,1.1-1.84
					C111,194.1,109.37,193.81,108.24,193.68z"/>
				<path fill="#93902E" d="M133.4,198.26c0.08,0,0.17,0,0.25-0.01c0.53-0.06,1.03-0.26,1.46-0.57c0.16-0.12,0.28-0.27,0.36-0.46
					c0.06-0.14,0.08-0.28,0.04-0.43c0-0.15-0.05-0.28-0.14-0.41c-0.12-0.17-0.27-0.31-0.45-0.41c-0.23-0.14-0.5-0.24-0.76-0.31
					c-0.09-0.03-0.18-0.05-0.28-0.06c-0.1-0.02-0.19-0.02-0.29-0.03c-0.12-0.02-0.25-0.01-0.37,0.02c-0.15,0.01-0.29,0.05-0.42,0.11
					c-0.15,0.04-0.29,0.1-0.42,0.17c-0.16,0.07-0.3,0.15-0.43,0.26c-0.04,0.05-0.09,0.11-0.13,0.16c-0.07,0.04-0.14,0.09-0.21,0.16
					c-0.13,0.13-0.21,0.28-0.25,0.46c-0.03,0.14-0.02,0.27,0.04,0.39c0.03,0.14,0.09,0.25,0.19,0.36c0.14,0.15,0.3,0.26,0.48,0.34
					c0.08,0.03,0.15,0.06,0.23,0.09c0.17,0.05,0.35,0.1,0.53,0.13C133.03,198.26,133.22,198.26,133.4,198.26z"/>
				<path fill="#93902E" d="M161.37,206.99c-0.22-0.12-0.47-0.2-0.72-0.24c-0.18-0.03-0.36-0.04-0.55-0.04c-0.04,0-0.08,0-0.12,0
					c-0.1,0.01-0.23,0.04-0.33,0.07c-0.26,0.07-0.43,0.21-0.65,0.35c-0.06,0.06-0.11,0.12-0.17,0.18c-0.08,0.1-0.12,0.22-0.12,0.34
					c-0.02,0.08-0.02,0.16,0.01,0.24c0.01,0.13,0.06,0.24,0.14,0.35c0.11,0.15,0.25,0.27,0.41,0.36c0.03,0.02,0.07,0.02,0.11,0.03
					c0.07,0.04,0.14,0.09,0.22,0.12c0.63,0.2,1.29,0.17,1.89-0.12c0.32-0.15,0.54-0.46,0.51-0.82
					C161.97,207.45,161.69,207.16,161.37,206.99z"/>
				<path fill="#93902E" d="M159.05,214.94c-0.04,0-0.08-0.02-0.12-0.03c-0.04,0-0.09,0.01-0.13,0
					C158.88,214.93,158.97,214.93,159.05,214.94z"/>
				<path fill="#93902E" d="M159.54,213.58c-0.09-0.1-0.2-0.17-0.33-0.22c-0.16-0.07-0.33-0.11-0.51-0.11
					c-0.12,0-0.24,0.02-0.34,0.07c-0.11,0.03-0.2,0.09-0.28,0.18c-0.08,0.08-0.13,0.18-0.15,0.29c-0.04,0.1-0.04,0.21-0.02,0.32
					c0.03,0.07,0.05,0.14,0.08,0.21c0.08,0.15,0.18,0.27,0.32,0.37c0.08,0.05,0.15,0.09,0.23,0.14c0.12,0.06,0.25,0.07,0.39,0.08
					c0.12,0.01,0.24,0.02,0.36,0c0.07-0.03,0.14-0.06,0.21-0.08c0.13-0.07,0.23-0.18,0.29-0.32c0.05-0.1,0.07-0.21,0.05-0.32
					c0-0.11-0.02-0.22-0.08-0.32C159.71,213.75,159.63,213.66,159.54,213.58z"/>
				<path fill="#93902E" d="M339.16,190.79c-0.11-0.09-0.23-0.19-0.36-0.25c-0.17-0.08-0.37-0.15-0.56-0.21
					c-0.26-0.08-0.53-0.14-0.8-0.18c-0.4-0.06-0.82-0.07-1.23-0.04c-0.12,0.01-0.23,0.02-0.35,0.04c-0.05,0.01-0.11,0.02-0.16,0.02
					c-0.04,0.01-0.07,0.01-0.11,0.02c-0.27,0.05-0.51,0.15-0.73,0.3c-0.09,0.08-0.18,0.16-0.26,0.23c-0.06,0.09-0.13,0.19-0.19,0.28
					c-0.12,0.25-0.14,0.53-0.05,0.79c0.07,0.22,0.19,0.38,0.38,0.52c0.23,0.18,0.53,0.31,0.82,0.31c0.24,0.02,0.48,0.02,0.72-0.02
					c0.17-0.01,0.32-0.06,0.48-0.1c0.22,0.02,0.43,0.06,0.65,0.06c0.39,0.01,0.78-0.03,1.17-0.02c0.18,0,0.42-0.08,0.57-0.17
					c0.2-0.12,0.35-0.29,0.42-0.51C339.72,191.43,339.49,191.06,339.16,190.79z"/>
				<path fill="#93902E" d="M337.03,202.65c-0.15-0.11-0.31-0.18-0.49-0.22c-0.2-0.05-0.39-0.03-0.59,0
					c-0.18,0.03-0.38,0.05-0.53,0.17c-0.1,0.05-0.18,0.13-0.23,0.23c-0.07,0.09-0.11,0.19-0.11,0.31c-0.01,0.12,0.01,0.23,0.06,0.33
					c0.03,0.12,0.09,0.22,0.18,0.31c0.06,0.06,0.13,0.12,0.19,0.17c0.15,0.11,0.32,0.18,0.5,0.21c0.16,0.02,0.32,0.01,0.47-0.03
					c0,0,0,0.01,0.01,0.01c0.09-0.02,0.18-0.05,0.27-0.07c0.04-0.01,0.09-0.01,0.13-0.02c0.15-0.04,0.28-0.11,0.38-0.22
					c0.08-0.08,0.13-0.18,0.15-0.29c0.04-0.1,0.04-0.21,0.01-0.32c-0.02-0.12-0.07-0.22-0.14-0.31
					C337.22,202.81,337.14,202.72,337.03,202.65z M336.62,204.1c0.01,0,0.02,0.01,0.02,0.01c0,0-0.01,0-0.01,0
					C336.62,204.1,336.62,204.1,336.62,204.1z"/>
				<path fill="#93902E" d="M327.45,191.79c-0.11-0.02-0.3,0-0.41-0.06c-0.04-0.02-0.06-0.03-0.07-0.03c0.01-0.02,0-0.07-0.08-0.2
					c-0.17-0.29-0.31-0.59-0.47-0.88c-0.39-0.7-0.9-1.34-1.48-1.89c-1.32-1.23-3.16-1.74-4.88-1.12c-0.19,0.07-0.37,0.15-0.54,0.24
					c-0.36,0.01-0.72,0.07-1.07,0.2c-1.61,0.61-2.98,1.51-3.81,3.02c-0.86,1.56-0.65,3.63-0.47,5.32c0.12,1.17,0.38,2.7-0.03,3.65
					c-0.29,0.65-0.75,1.21-1.04,1.86c-0.41,0.91-0.62,1.83-0.48,2.82c0.51,3.44,4.73,4.01,7.45,3.09c1.53-0.52,2.75-1.5,3.84-2.66
					c0.96-1.02,1.87-1.76,3.25-2.11c1.53-0.39,3.15-0.4,4.55-1.23c1.5-0.89,2.66-2.4,2.68-4.2
					C334.42,194.06,330.46,192.19,327.45,191.79z"/>
				<path fill="#93902E" d="M331.39,184.33c0.19,0.09,0.4,0.18,0.61,0.21c0.22,0.04,0.47,0.07,0.7,0.06
					c0.22-0.02,0.47-0.05,0.68-0.12c0.22-0.06,0.42-0.17,0.6-0.33c0.13-0.1,0.21-0.23,0.27-0.38c0.08-0.14,0.11-0.29,0.09-0.45
					c-0.01-0.21-0.09-0.4-0.22-0.57c-0.1-0.13-0.23-0.24-0.35-0.34c-0.05-0.04-0.1-0.08-0.16-0.11c-0.15-0.09-0.3-0.16-0.46-0.23
					c-0.17-0.07-0.36-0.09-0.54-0.13c-0.26-0.02-0.52,0.02-0.77,0.11c-0.23,0.09-0.43,0.22-0.59,0.4c-0.01,0.01-0.01,0.02-0.02,0.03
					c-0.12,0.05-0.23,0.11-0.32,0.21c-0.13,0.13-0.21,0.29-0.24,0.48C330.56,183.7,330.96,184.13,331.39,184.33z M332.46,182.49
					c-0.04-0.02-0.07-0.03-0.11-0.05c-0.03-0.01-0.05-0.01-0.08-0.02c0,0,0.01,0,0.01,0c0.02,0,0.05-0.01,0.07-0.01
					c0.01,0,0.02,0,0.03,0C332.41,182.44,332.44,182.46,332.46,182.49C332.46,182.49,332.46,182.49,332.46,182.49z"/>
				<path fill="#93902E" d="M335.81,187.94c0.07,0.04,0.16,0.07,0.24,0.09c0.04,0.01,0.07,0.02,0.11,0.03
					c0.11,0.02,0.21,0.02,0.31-0.03c0.06-0.02,0.12-0.06,0.17-0.09c0.03-0.03,0.06-0.07,0.09-0.1c0.04-0.06,0.06-0.12,0.06-0.19
					c0.01-0.05,0.01-0.09,0-0.14c0-0.08-0.02-0.15-0.06-0.22c-0.02-0.04-0.05-0.08-0.07-0.12c-0.01-0.02-0.01-0.04-0.02-0.05
					c-0.03-0.07-0.06-0.13-0.11-0.18c-0.03-0.03-0.07-0.06-0.1-0.09c-0.07-0.05-0.14-0.08-0.22-0.09c-0.11-0.02-0.23-0.01-0.35,0.01
					c-0.08,0.01-0.15,0.03-0.23,0.07c-0.09,0.03-0.15,0.08-0.2,0.15c-0.05,0.08-0.07,0.16-0.08,0.25c-0.01,0.21,0.1,0.41,0.26,0.55
					C335.67,187.85,335.74,187.9,335.81,187.94z M336.15,186.88C336.15,186.88,336.15,186.88,336.15,186.88c0.01,0,0.03,0,0.04,0
					C336.17,186.88,336.16,186.88,336.15,186.88z"/>
			</g>
		</g>
		<g>
			<g>
				<polygon fill="#3B5653" points="145.71,131.3 145.71,143.28 198.69,160.52 229.3,153.2 270.81,128.52 204.71,107 				"/>
				<polygon fill="#80AFA1" points="255.71,117 197.71,101 145.47,121.05 205.65,142 				"/>
				<g>
					<g>
						<g>
							<polygon fill="#54726F" points="130.47,120.91 117.57,115.38 117.57,173.53 130.47,179.22 							"/>
							<polygon fill="#2D3639" points="146.43,171.41 146.43,116.07 131.06,121.16 130.47,120.91 130.47,179.22 							"/>
							<polygon fill="#6D9187" points="130.47,185 130.47,179.22 117.57,173.53 117.57,178.79 							"/>
							<polygon fill="#1B2826" points="130.47,185 146.43,177.02 146.43,171.41 130.47,179.22 							"/>
						</g>
						<polygon fill="#1B2826" points="149.09,108.74 127.81,103.41 121.05,105.45 114.51,107.84 133.13,114.94 						"/>
						<g>
							<path fill="#7B959B" d="M134.33,111.7c0.33-0.63,0.03-1.44-0.51-1.9s-1.25-0.66-1.93-0.84c-2.57-0.68-5.13-1.36-7.7-2.05
								c-1.48-0.39-2.98-0.81-4.36-1.47v3.64c3.81,1.7,7.88,2.83,12.02,3.34C132.76,112.54,133.9,112.51,134.33,111.7z"/>
							<path opacity="0.35" fill="#282828" d="M133.13,114.94l11.53-4.43v-6.71l-24.83-0.38v2.04c1.38,0.66,2.88,1.07,4.36,1.47
								c2.57,0.68,5.13,1.36,7.7,2.05c0.68,0.18,1.4,0.38,1.93,0.84s0.84,1.27,0.51,1.9c-0.43,0.81-1.57,0.84-2.49,0.73
								c-4.14-0.51-8.21-1.65-12.02-3.34v1.31L133.13,114.94z"/>
							<path fill="#577B84" d="M133.13,114.94l11.53-4.43v-6.71l-24.83-0.38v2.04c1.38,0.66,2.88,1.07,4.36,1.47
								c2.57,0.68,5.13,1.36,7.7,2.05c0.68,0.18,1.4,0.38,1.93,0.84s0.84,1.27,0.51,1.9c-0.43,0.81-1.57,0.84-2.49,0.73
								c-4.14-0.51-8.21-1.65-12.02-3.34v1.31L133.13,114.94z"/>
						</g>
						<g>
							<path fill="#518455" d="M133.17,103.57c1.99-1.35,2.01-4.23,1.76-6.62c-0.87-8.36-2.37-16.65-4.48-24.79l-11.44,31.06
								c3.34,0.98,7.01,1.1,10.56,1.12C130.81,104.35,132.13,104.27,133.17,103.57z"/>
							<path opacity="0.7" fill="#282828" d="M145.55,104.29l-14.19-34.59l-0.91,2.46c2.11,8.14,3.61,16.43,4.48,24.79
								c0.25,2.39,0.23,5.27-1.76,6.62c-1.03,0.7-2.35,0.78-3.6,0.77c-3.55-0.02-7.22-0.14-10.56-1.12l-0.07,0.18
								C133.13,110.5,145.55,104.29,145.55,104.29z"/>
							<path fill="#2D3639" d="M145.55,104.29l-14.19-34.59l-0.91,2.46c2.11,8.14,3.61,16.43,4.48,24.79
								c0.25,2.39,0.23,5.27-1.76,6.62c-1.03,0.7-2.35,0.78-3.6,0.77c-3.55-0.02-7.22-0.14-10.56-1.12l-0.07,0.18
								C133.13,110.5,145.55,104.29,145.55,104.29z"/>
						</g>
						<g>
							<path fill="#1C1C1C" d="M123.75,108.8c-0.19,0.11-0.2,0.38-0.19,0.59c0.03,0.66,0.06,1.32,0.09,1.98
								c0.07,0.03,0.14,0.06,0.21,0.09c0.75,0.37,1.57,0.58,2.4,0.63c0.09-0.87,0.1-1.75,0.04-2.63c-0.01-0.09-0.01-0.18-0.02-0.26
								c-0.7-0.29-1.46-0.45-2.22-0.46C123.96,108.73,123.84,108.74,123.75,108.8z"/>
							<path opacity="0.35" fill="#282828" d="M125.14,108.02c-0.44-0.13-0.89-0.26-1.35-0.27c-0.25,0-0.53,0.05-0.7,0.23
								c-0.19,0.2-0.2,0.51-0.2,0.79c0,0.6-0.09,1.27,0,1.86c0.06,0.43,0.41,0.57,0.77,0.73c-0.03-0.66-0.06-1.32-0.09-1.98
								c-0.01-0.22,0-0.48,0.19-0.59c0.1-0.06,0.21-0.06,0.33-0.06c0.76,0.01,1.52,0.17,2.22,0.46c-0.03-0.26-0.1-0.51-0.26-0.7
								C125.82,108.23,125.47,108.12,125.14,108.02z"/>
							<path fill="#1B2826" d="M125.14,108.02c-0.44-0.13-0.89-0.26-1.35-0.27c-0.25,0-0.53,0.05-0.7,0.23
								c-0.19,0.2-0.2,0.51-0.2,0.79c0,0.6-0.09,1.27,0,1.86c0.06,0.43,0.41,0.57,0.77,0.73c-0.03-0.66-0.06-1.32-0.09-1.98
								c-0.01-0.22,0-0.48,0.19-0.59c0.1-0.06,0.21-0.06,0.33-0.06c0.76,0.01,1.52,0.17,2.22,0.46c-0.03-0.26-0.1-0.51-0.26-0.7
								C125.82,108.23,125.47,108.12,125.14,108.02z"/>
						</g>
						<g>
							<linearGradient id="SVGID_1_" gradientUnits="userSpaceOnUse" x1="132.2437" y1="126.9094" x2="132.2848" y2="126.9094">
								<stop  offset="0" style="stop-color:#82BA18"/>
								<stop  offset="1" style="stop-color:#37571F"/>
							</linearGradient>
							<path fill="url(#SVGID_1_)" d="M132.28,126.84l-0.04,0.11C132.24,127.01,132.26,126.96,132.28,126.84z"/>
							<polygon fill="#374C51" points="149.09,108.74 133.13,114.94 133.13,122.03 149.09,115.82 							"/>
						</g>
						<g>
							<polygon fill="#6D9187" points="133.13,122.03 133.13,114.94 114.51,107.84 114.51,114.94 							"/>
						</g>
						<g>
							<path fill="#1B2826" d="M122.85,127.81v8.51l4.18,1.76l-0.01-9.36c-0.4-0.62-0.8-1.07-1.2-1.42
								C124.31,127.03,122.85,127.81,122.85,127.81z"/>
							<path fill="#3B5653" d="M121.6,126.84v10.27l5.43,2.23l0-1.26l-4.18-1.76v-8.51c0,0,1.47-0.78,2.97-0.52
								C123.64,125.37,121.6,126.84,121.6,126.84z"/>
						</g>
						<g>
							<path fill="#1B2826" d="M122.85,152.64v8.51l4.18,1.76l-0.01-9.36c-0.4-0.62-0.8-1.07-1.2-1.42
								C124.31,151.86,122.85,152.64,122.85,152.64z"/>
							<path fill="#3B5653" d="M121.6,151.68v10.27l5.43,2.23l0-1.26l-4.18-1.76v-8.51c0,0,1.47-0.78,2.97-0.52
								C123.64,150.2,121.6,151.68,121.6,151.68z"/>
						</g>
					</g>
					<g>
						<path fill="#1B2826" d="M131.36,57.29c-0.49,0-0.89,0.4-0.89,0.89v13.99l0.89-2.46l0.89,2.66V58.18
							C132.24,57.69,131.85,57.29,131.36,57.29L131.36,57.29z"/>
						<path fill="#D45A00" d="M136.87,58.13c1.92,0.47,3.78,1.23,5.75,1.34c1.26,0.07,2.51-0.12,3.74-0.41
							c0.87-0.2,1.73-0.44,2.57-0.73c-1.86,1.53-3.96,2.78-6.2,3.67c1.4,1.48,3.41,2.36,5.45,2.39c-0.26,0.63-0.98,0.91-1.63,1.11
							c-2.99,0.89-6.22,1.17-9.22,0.33c-1.06-0.3-2.09-0.73-3.18-0.91c-1.09-0.18-2.29-0.07-3.15,0.62c0.5-1.72,0.34-3.56,0.17-5.35
							c-0.05-0.52-0.3-1.3,0.05-1.72c0.3-0.37,1.24-0.51,1.68-0.6C134.21,57.64,135.59,57.81,136.87,58.13z"/>
					</g>
				</g>
				<polygon fill="#3B5653" points="197.71,105 162.01,121.5 206.54,137.5 245.71,118 				"/>
				<g>
					<polygon fill="#5B7C72" points="145.47,121.05 145.47,134.5 205.65,155.58 205.65,142 					"/>
					<polygon fill="#374C51" points="255.71,117 205.65,142 205.65,155.58 255.71,127.42 					"/>
				</g>
				<polygon fill="#5B7C72" points="169.42,88.52 169.42,122.52 209.42,135.52 209.42,99.52 				"/>
				<polygon fill="#80AFA1" points="169.42,88.52 209.42,99.52 238.59,87.21 235.63,86.75 208.56,97.97 173.42,88.52 196.77,80.73 
					195.42,80.52 				"/>
				<g>
					<polygon fill="#2D3639" points="238.59,87.21 209.42,99.52 209.42,135.52 238.59,119.32 					"/>
				</g>
				<g>
					<g>
						<polygon fill="#80AFA1" points="143.27,142 137.42,143.28 198.69,165.41 198.69,160.52 						"/>
						<polygon fill="#6D9187" points="137.42,151.52 198.69,175.35 198.69,165.41 137.42,143.28 						"/>
					</g>
					<g>
						<path fill="#54726F" d="M198.69,175.35l-61.27-23.83l2,1v28l16,7.02c0-4.43,0-14.57,0-14.57s14.94-9.75,24.97,10.9v14.63
							l18.3,8.03V175.35z"/>
					</g>
					<g>
						<path fill="#1B2826" d="M188.47,178.64v8.03l3.95,1.66l-0.01-8.83c-0.38-0.58-0.76-1.01-1.14-1.34
							C189.86,177.9,188.47,178.64,188.47,178.64z"/>
						<path fill="#3B5653" d="M187.3,177.73v9.68l5.12,2.11l0-1.19l-3.95-1.66v-8.03c0,0,1.39-0.74,2.8-0.49
							C189.23,176.34,187.3,177.73,187.3,177.73z"/>
					</g>
					<g>
						<path fill="#1B2826" d="M145.47,161.64v8.03l3.95,1.66l-0.01-8.83c-0.38-0.58-0.76-1.01-1.14-1.34
							C146.86,160.9,145.47,161.64,145.47,161.64z"/>
						<path fill="#3B5653" d="M144.3,160.73v9.68l5.12,2.11l0-1.19l-3.95-1.66v-8.03c0,0,1.39-0.74,2.8-0.49
							C146.23,159.34,144.3,160.73,144.3,160.73z"/>
					</g>
					<g>
						<path fill="none" d="M168.19,173.14c-0.03-0.01-0.07-0.02-0.1-0.03C168.12,173.12,168.16,173.13,168.19,173.14z"/>
						<path fill="none" d="M168.95,173.43c-0.03-0.01-0.07-0.03-0.1-0.04C168.88,173.4,168.92,173.41,168.95,173.43z"/>
						<path fill="none" d="M179.12,182.06c-0.22-0.29-0.43-0.58-0.65-0.85C178.69,181.48,178.9,181.77,179.12,182.06z"/>
						<path fill="none" d="M178.11,180.75c-0.2-0.25-0.4-0.49-0.6-0.72C177.71,180.26,177.91,180.5,178.11,180.75z"/>
						<path fill="none" d="M158.46,173.5C158.46,173.5,158.46,173.5,158.46,173.5C158.46,173.5,158.46,173.5,158.46,173.5z"/>
						<path fill="none" d="M172.09,175.09c-0.12-0.08-0.24-0.15-0.36-0.23C171.85,174.94,171.97,175.01,172.09,175.09z"/>
						<path fill="none" d="M177.14,179.59c-0.2-0.23-0.4-0.45-0.61-0.67C176.73,179.14,176.93,179.36,177.14,179.59z"/>
						<path fill="none" d="M171.2,174.54c-0.06-0.03-0.12-0.07-0.18-0.1C171.08,174.47,171.14,174.5,171.2,174.54z"/>
						<path fill="none" d="M175.1,177.48c-0.25-0.23-0.49-0.45-0.73-0.66C174.61,177.03,174.85,177.25,175.1,177.48z"/>
						<path fill="none" d="M180.39,183.87c-0.32-0.48-0.64-0.94-0.96-1.38C179.75,182.93,180.07,183.39,180.39,183.87z"/>
						<path fill="none" d="M173.94,176.47c-0.16-0.13-0.32-0.27-0.48-0.39C173.62,176.21,173.78,176.34,173.94,176.47z"/>
						<path fill="none" d="M173,175.73c-0.14-0.1-0.28-0.21-0.42-0.3C172.72,175.53,172.86,175.63,173,175.73z"/>
						<path fill="none" d="M175.43,177.8c0.25,0.24,0.5,0.49,0.75,0.75C175.93,178.29,175.68,178.05,175.43,177.8z"/>
						<path fill="#775830" d="M166.42,172.65c-4.44-0.93-7.58,0.64-7.96,0.85c0,0,0,0,0,0c-0.02,0.01-0.04,0.02-0.04,0.02v15.34
							l8,3.51V172.65L166.42,172.65z"/>
						<path fill="#775830" d="M180.39,183.87c-0.32-0.48-0.64-0.94-0.96-1.38c-0.11-0.15-0.21-0.28-0.31-0.43
							c-0.22-0.29-0.43-0.58-0.65-0.85c-0.12-0.16-0.24-0.31-0.36-0.46c-0.2-0.25-0.4-0.49-0.6-0.72c-0.12-0.15-0.25-0.29-0.37-0.43
							c-0.2-0.23-0.4-0.45-0.61-0.67c-0.11-0.12-0.23-0.25-0.34-0.37c-0.25-0.26-0.5-0.51-0.75-0.75c-0.11-0.11-0.23-0.22-0.34-0.32
							c-0.25-0.23-0.49-0.45-0.73-0.66c-0.14-0.12-0.28-0.23-0.42-0.35c-0.16-0.13-0.32-0.27-0.48-0.39
							c-0.15-0.12-0.31-0.24-0.46-0.35c-0.14-0.1-0.28-0.21-0.42-0.3c-0.16-0.12-0.33-0.23-0.49-0.34
							c-0.12-0.08-0.24-0.15-0.36-0.23c-0.18-0.11-0.36-0.22-0.53-0.33c-0.06-0.03-0.12-0.07-0.18-0.1c-0.71-0.4-1.4-0.74-2.07-1.01
							c-0.03-0.01-0.07-0.03-0.1-0.04c-0.22-0.09-0.44-0.17-0.66-0.24c-0.03-0.01-0.07-0.02-0.1-0.03
							c-0.23-0.08-0.45-0.15-0.67-0.21c0,0,0,0,0,0v19.91l12.97,5.69V183.87z"/>
						<path fill="#232323" d="M158.46,173.5C158.46,173.5,158.46,173.5,158.46,173.5c0.37-0.2,3.51-1.78,7.96-0.85l0,0l0,0
							c0.33,0.07,0.66,0.15,1,0.25l0,0h0c0.22,0.06,0.44,0.13,0.67,0.21c0.03,0.01,0.07,0.02,0.1,0.03
							c0.22,0.07,0.43,0.15,0.66,0.24c0.03,0.01,0.07,0.03,0.1,0.04c0.67,0.27,1.36,0.61,2.07,1.01c0.06,0.03,0.12,0.06,0.18,0.1
							c0.18,0.1,0.35,0.22,0.53,0.33c0.12,0.07,0.24,0.15,0.36,0.23c0.16,0.11,0.33,0.22,0.49,0.34c0.14,0.1,0.28,0.2,0.42,0.3
							c0.15,0.11,0.31,0.23,0.46,0.35c0.16,0.13,0.32,0.26,0.48,0.39c0.14,0.12,0.28,0.23,0.42,0.35c0.24,0.21,0.49,0.43,0.73,0.66
							c0.11,0.11,0.23,0.21,0.34,0.32c0.25,0.24,0.5,0.49,0.75,0.75c0.11,0.12,0.23,0.25,0.34,0.37c0.2,0.22,0.4,0.44,0.61,0.67
							c0.12,0.14,0.25,0.29,0.37,0.43c0.2,0.23,0.4,0.48,0.6,0.72c0.12,0.15,0.24,0.3,0.36,0.46c0.21,0.28,0.43,0.56,0.65,0.85
							c0.1,0.14,0.21,0.28,0.31,0.43c0.32,0.44,0.64,0.9,0.96,1.38c-10.03-20.65-24.97-10.9-24.97-10.9s0,10.14,0,14.57l3,1.32
							v-15.34C158.42,173.52,158.43,173.51,158.46,173.5z"/>
						
							<linearGradient id="SVGID_00000150095743896311958460000018391531691599226525_" gradientUnits="userSpaceOnUse" x1="175.0955" y1="177.6436" x2="175.4348" y2="177.6436">
							<stop  offset="0" style="stop-color:#82BA18"/>
							<stop  offset="1" style="stop-color:#37571F"/>
						</linearGradient>
						<path fill="url(#SVGID_00000150095743896311958460000018391531691599226525_)" d="M175.43,177.8
							c-0.11-0.11-0.23-0.22-0.34-0.32C175.21,177.59,175.32,177.7,175.43,177.8z"/>
						
							<linearGradient id="SVGID_00000079451481755274263270000001623156377954893476_" gradientUnits="userSpaceOnUse" x1="177.1374" y1="179.8089" x2="177.5085" y2="179.8089">
							<stop  offset="0" style="stop-color:#82BA18"/>
							<stop  offset="1" style="stop-color:#37571F"/>
						</linearGradient>
						<path fill="url(#SVGID_00000079451481755274263270000001623156377954893476_)" d="M177.51,180.02
							c-0.12-0.15-0.25-0.29-0.37-0.43C177.26,179.73,177.38,179.88,177.51,180.02z"/>
						
							<linearGradient id="SVGID_00000094592758127853371160000015772107818108815798_" gradientUnits="userSpaceOnUse" x1="179.1162" y1="182.2729" x2="179.431" y2="182.2729">
							<stop  offset="0" style="stop-color:#82BA18"/>
							<stop  offset="1" style="stop-color:#37571F"/>
						</linearGradient>
						<path fill="url(#SVGID_00000094592758127853371160000015772107818108815798_)" d="M179.43,182.49
							c-0.11-0.15-0.21-0.28-0.31-0.43C179.22,182.2,179.33,182.34,179.43,182.49z"/>
						
							<linearGradient id="SVGID_00000013191912898393191150000008508883133192819094_" gradientUnits="userSpaceOnUse" x1="178.1076" y1="180.9774" x2="178.4709" y2="180.9774">
							<stop  offset="0" style="stop-color:#82BA18"/>
							<stop  offset="1" style="stop-color:#37571F"/>
						</linearGradient>
						<path fill="url(#SVGID_00000013191912898393191150000008508883133192819094_)" d="M178.47,181.21
							c-0.12-0.16-0.24-0.31-0.36-0.46C178.23,180.9,178.35,181.05,178.47,181.21z"/>
						
							<linearGradient id="SVGID_00000159455010145003511120000009519083498604196480_" gradientUnits="userSpaceOnUse" x1="158.4209" y1="173.507" x2="158.4581" y2="173.507">
							<stop  offset="0" style="stop-color:#82BA18"/>
							<stop  offset="1" style="stop-color:#37571F"/>
						</linearGradient>
						<path fill="url(#SVGID_00000159455010145003511120000009519083498604196480_)" d="M158.46,173.5
							c-0.02,0.01-0.04,0.02-0.04,0.02S158.43,173.51,158.46,173.5z"/>
						
							<linearGradient id="SVGID_00000151518214908761977310000002400047783686545539_" gradientUnits="userSpaceOnUse" x1="173.9423" y1="176.6466" x2="174.3616" y2="176.6466">
							<stop  offset="0" style="stop-color:#82BA18"/>
							<stop  offset="1" style="stop-color:#37571F"/>
						</linearGradient>
						<path fill="url(#SVGID_00000151518214908761977310000002400047783686545539_)" d="M174.36,176.82
							c-0.14-0.12-0.28-0.23-0.42-0.35C174.08,176.59,174.22,176.7,174.36,176.82z"/>
						
							<linearGradient id="SVGID_00000120519930672514745850000005240369580619414709_" gradientUnits="userSpaceOnUse" x1="167.421" y1="173.0034" x2="168.0922" y2="173.0034">
							<stop  offset="0" style="stop-color:#82BA18"/>
							<stop  offset="1" style="stop-color:#37571F"/>
						</linearGradient>
						<path fill="url(#SVGID_00000120519930672514745850000005240369580619414709_)" d="M168.09,173.11
							c-0.23-0.08-0.45-0.15-0.67-0.21C167.64,172.96,167.87,173.03,168.09,173.11z"/>
						
							<linearGradient id="SVGID_00000024723017056506559170000013952476023153553341_" gradientUnits="userSpaceOnUse" x1="176.1864" y1="178.7402" x2="176.5305" y2="178.7402">
							<stop  offset="0" style="stop-color:#82BA18"/>
							<stop  offset="1" style="stop-color:#37571F"/>
						</linearGradient>
						<path fill="url(#SVGID_00000024723017056506559170000013952476023153553341_)" d="M176.19,178.56
							c0.11,0.12,0.23,0.25,0.34,0.37C176.42,178.8,176.3,178.67,176.19,178.56z"/>
						
							<linearGradient id="SVGID_00000021832869696611351480000001014359718216964740_" gradientUnits="userSpaceOnUse" x1="168.19" y1="173.2635" x2="168.8463" y2="173.2635">
							<stop  offset="0" style="stop-color:#82BA18"/>
							<stop  offset="1" style="stop-color:#37571F"/>
						</linearGradient>
						<path fill="url(#SVGID_00000021832869696611351480000001014359718216964740_)" d="M168.85,173.38
							c-0.22-0.09-0.44-0.17-0.66-0.24C168.41,173.22,168.63,173.3,168.85,173.38z"/>
						<path fill="#232323" d="M166.42,172.65v19.72l1,0.44V172.9C167.08,172.8,166.75,172.72,166.42,172.65z"/>
						
							<linearGradient id="SVGID_00000019635930422691964810000005156324409342183833_" gradientUnits="userSpaceOnUse" x1="158.4604" y1="172.926" x2="166.4209" y2="172.926">
							<stop  offset="0" style="stop-color:#82BA18"/>
							<stop  offset="1" style="stop-color:#37571F"/>
						</linearGradient>
						<path fill="url(#SVGID_00000019635930422691964810000005156324409342183833_)" d="M158.46,173.5c0.38-0.2,3.52-1.78,7.96-0.85
							C161.97,171.72,158.83,173.29,158.46,173.5z"/>
						
							<linearGradient id="SVGID_00000161622414138608563860000015436077425401533844_" gradientUnits="userSpaceOnUse" x1="172.9968" y1="175.906" x2="173.4583" y2="175.906">
							<stop  offset="0" style="stop-color:#82BA18"/>
							<stop  offset="1" style="stop-color:#37571F"/>
						</linearGradient>
						<path fill="url(#SVGID_00000161622414138608563860000015436077425401533844_)" d="M173.46,176.08
							c-0.15-0.12-0.31-0.24-0.46-0.35C173.15,175.84,173.3,175.96,173.46,176.08z"/>
						
							<linearGradient id="SVGID_00000068642846519535970210000010775413028807817363_" gradientUnits="userSpaceOnUse" x1="172.0857" y1="175.2595" x2="172.5753" y2="175.2595">
							<stop  offset="0" style="stop-color:#82BA18"/>
							<stop  offset="1" style="stop-color:#37571F"/>
						</linearGradient>
						<path fill="url(#SVGID_00000068642846519535970210000010775413028807817363_)" d="M172.58,175.43
							c-0.16-0.12-0.33-0.23-0.49-0.34C172.25,175.2,172.41,175.31,172.58,175.43z"/>
						
							<linearGradient id="SVGID_00000151508915481587975650000017381848100142265242_" gradientUnits="userSpaceOnUse" x1="171.199" y1="174.7006" x2="171.7297" y2="174.7006">
							<stop  offset="0" style="stop-color:#82BA18"/>
							<stop  offset="1" style="stop-color:#37571F"/>
						</linearGradient>
						<path fill="url(#SVGID_00000151508915481587975650000017381848100142265242_)" d="M171.73,174.86
							c-0.18-0.11-0.36-0.22-0.53-0.33C171.37,174.64,171.55,174.75,171.73,174.86z"/>
						
							<linearGradient id="SVGID_00000170248450651260248520000016869423650980654777_" gradientUnits="userSpaceOnUse" x1="168.9499" y1="173.9326" x2="171.022" y2="173.9326">
							<stop  offset="0" style="stop-color:#82BA18"/>
							<stop  offset="1" style="stop-color:#37571F"/>
						</linearGradient>
						<path fill="url(#SVGID_00000170248450651260248520000016869423650980654777_)" d="M171.02,174.44
							c-0.71-0.4-1.4-0.74-2.07-1.01C169.62,173.7,170.31,174.03,171.02,174.44z"/>
					</g>
				</g>
				<g>
					<path fill="#1B2826" d="M177.49,120.04l16.86,5.48c-0.23-2.59-0.99-6.39-3.29-9.37C178.7,107.78,177.49,120.04,177.49,120.04z"
						/>
					<path fill="#3B5653" d="M184.42,111.91c-10.72-2.54-10,9.6-10,9.6l20,7c0,0,0.08-1.22-0.07-3l-16.86-5.48
						c0,0,1.22-12.26,13.57-3.9C189.58,114.22,187.46,112.63,184.42,111.91z"/>
				</g>
				<g>
					<g>
						<polygon fill="#1B2826" points="204.42,110.12 204.42,102.52 201.3,101.74 201.3,108.87 						"/>
						<polygon fill="#3B5653" points="200.42,110.07 204.42,111.52 204.42,110.12 201.3,108.87 201.3,101.74 200.42,101.52 						
							"/>
					</g>
					<g>
						<polygon fill="#1B2826" points="194.42,107.12 194.42,99.52 191.3,98.74 191.3,105.87 						"/>
						<polygon fill="#3B5653" points="190.42,107.07 194.42,108.52 194.42,107.12 191.3,105.87 191.3,98.74 190.42,98.52 						"/>
					</g>
					<g>
						<polygon fill="#1B2826" points="185.42,104.12 185.42,96.52 182.3,95.74 182.3,102.87 						"/>
						<polygon fill="#3B5653" points="181.42,104.07 185.42,105.52 185.42,104.12 182.3,102.87 182.3,95.74 181.42,95.52 						"/>
					</g>
					<g>
						<polygon fill="#1B2826" points="176.42,101.12 176.42,93.52 173.3,92.74 173.3,99.87 						"/>
						<polygon fill="#3B5653" points="172.42,101.07 176.42,102.52 176.42,101.12 173.3,99.87 173.3,92.74 172.42,92.52 						"/>
					</g>
				</g>
				<path fill="none" d="M219.27,108.95c0.6,4.67,1.59,9.29,2.94,13.81c0.07-0.15,0.13-0.29,0.2-0.44"/>
				<g>
					<polygon fill="#333333" points="173.42,88.52 208.56,97.97 235.63,86.75 196.77,80.73 					"/>
					<path fill="#7B959B" d="M213.73,90.43c0.63-0.29,1.29-0.72,1.48-1.39c0.2-0.72-0.22-1.5-0.82-1.94s-1.36-0.6-2.1-0.73
						c-6.62-1.21-13.41-0.86-20.14-1.06c-5.33-0.16-10.77-0.72-15.72-2.58v4.46c9.4,2.61,19.12,4.1,28.87,4.4
						C208.16,91.68,211.13,91.64,213.73,90.43z"/>
					<path fill="#577B84" d="M208.56,97.97l18.07-7.49v-9.96h-50.2v2.22c4.95,1.86,10.4,2.41,15.72,2.58
						c6.73,0.2,13.52-0.14,20.14,1.06c0.74,0.13,1.49,0.3,2.1,0.73s1.03,1.22,0.82,1.94c-0.19,0.67-0.84,1.09-1.48,1.39
						c-2.6,1.21-5.57,1.24-8.44,1.16c-9.75-0.3-19.47-1.78-28.87-4.4v2.13L208.56,97.97z"/>
				</g>
				<g>
					<path fill="#518455" d="M208.95,74.35c4.03-3.74,3.06-10.24,1.77-15.58c-2.96-12.23-5.92-24.47-8.89-36.7
						c-0.42-1.75-0.85-3.5-1.26-5.25l-23.09,58.38c0,0,6.99,2.69,18.04,3.62C199.94,76.99,205.45,77.59,208.95,74.35z"/>
					<path fill="#4C7268" d="M214.39,82.49c2.48-0.11,5.74-0.96,5.78-3.44c-8.36,0.71-16.78,0.7-25.13-0.03
						c0.16-0.07,0.32-0.13,0.48-0.2c-11.04-0.93-18.04-3.62-18.04-3.62l-7.06,4.33c5.56,1.96,11.19,3.23,16.67,4
						c3.17,0.05,6.34-0.09,9.5-0.23C202.52,83.02,208.46,82.75,214.39,82.49z"/>
					<path fill="#2D3639" d="M210.71,58.77c1.29,5.34,2.27,11.85-1.77,15.58c-3.5,3.24-9.01,2.65-13.43,4.46
						c8.34,0.71,18.99,0.41,30.7-2.81c0.21-0.06,0.4-0.1,0.6-0.15l-0.4-0.33l-24.9-61.11l-0.95,2.4c0.41,1.75,0.83,3.5,1.26,5.25
						C204.79,34.3,207.75,46.53,210.71,58.77z"/>
					<path fill="#2D3639" d="M232.42,80.52l-5.6-4.67c-0.2,0.05-0.39,0.09-0.6,0.15c-11.71,3.22-22.36,3.52-30.7,2.81
						c-0.16,0.07-0.32,0.13-0.48,0.2c8.36,0.73,16.78,0.74,25.13,0.03c-0.05,2.48-3.3,3.33-5.78,3.44
						c-5.93,0.27-11.87,0.53-17.8,0.8c-3.16,0.14-6.33,0.28-9.5,0.23C211.18,86.88,232.42,80.52,232.42,80.52z"/>
				</g>
				<g>
					<g>
						<g>
							<polygon fill="#54726F" points="212.3,148.73 197.75,142.5 197.75,208.07 212.3,214.49 							"/>
							<polygon fill="#2D3639" points="230.3,205.68 230.3,143.28 212.97,149.02 212.3,148.73 212.3,214.49 							"/>
							<polygon fill="#6D9187" points="212.3,221 212.3,214.49 197.75,208.07 197.75,214 							"/>
							<polygon fill="#1B2826" points="212.3,221 230.3,212 230.3,205.68 212.3,214.49 							"/>
						</g>
						<polygon fill="#1B2826" points="233.3,135.01 209.3,129 201.68,131.3 194.3,134 215.3,142 						"/>
						<g>
							<path fill="#7B959B" d="M216.66,138.35c0.38-0.71,0.03-1.62-0.58-2.14s-1.41-0.74-2.18-0.95c-2.89-0.77-5.79-1.54-8.68-2.31
								c-1.67-0.45-3.36-0.92-4.92-1.66v4.1c4.3,1.91,8.88,3.2,13.55,3.77C214.88,139.3,216.17,139.27,216.66,138.35z"/>
							<path opacity="0.35" fill="#282828" d="M215.3,142l13-5v-7.57l-28-0.43v2.3c1.56,0.74,3.24,1.21,4.92,1.66
								c2.89,0.77,5.79,1.54,8.68,2.31c0.77,0.21,1.57,0.43,2.18,0.95s0.95,1.44,0.58,2.14c-0.49,0.92-1.77,0.95-2.8,0.82
								c-4.67-0.58-9.25-1.86-13.55-3.77v1.48L215.3,142z"/>
							<path fill="#577B84" d="M215.3,142l13-5v-7.57l-28-0.43v2.3c1.56,0.74,3.24,1.21,4.92,1.66c2.89,0.77,5.79,1.54,8.68,2.31
								c0.77,0.21,1.57,0.43,2.18,0.95s0.95,1.44,0.58,2.14c-0.49,0.92-1.77,0.95-2.8,0.82c-4.67-0.58-9.25-1.86-13.55-3.77v1.48
								L215.3,142z"/>
						</g>
						<g>
							<path fill="#518455" d="M215.34,129.18c2.25-1.52,2.27-4.77,1.99-7.46c-0.98-9.43-2.67-18.78-5.05-27.95l-12.9,35.02
								c3.76,1.1,7.9,1.24,11.9,1.26C212.69,130.06,214.17,129.97,215.34,129.18z"/>
							<path opacity="0.7" fill="#282828" d="M229.3,130l-16-39l-1.02,2.77c2.37,9.17,4.07,18.52,5.05,27.95
								c0.28,2.7,0.26,5.94-1.99,7.46c-1.16,0.79-2.65,0.88-4.06,0.87c-4-0.02-8.14-0.16-11.9-1.26L199.3,129
								C215.3,137,229.3,130,229.3,130z"/>
							<path fill="#365E46" d="M229.3,130l-16-39l-1.02,2.77c2.37,9.17,4.07,18.52,5.05,27.95c0.28,2.7,0.26,5.94-1.99,7.46
								c-1.16,0.79-2.65,0.88-4.06,0.87c-4-0.02-8.14-0.16-11.9-1.26L199.3,129C215.3,137,229.3,130,229.3,130z"/>
						</g>
						<g>
							<path fill="#1C1C1C" d="M204.72,135.08c-0.21,0.13-0.22,0.42-0.21,0.67c0.04,0.74,0.07,1.49,0.11,2.23
								c0.08,0.03,0.16,0.07,0.24,0.11c0.85,0.41,1.77,0.66,2.71,0.71c0.1-0.98,0.11-1.98,0.05-2.97c-0.01-0.1-0.01-0.2-0.03-0.3
								c-0.79-0.33-1.64-0.51-2.5-0.52C204.96,135.01,204.83,135.01,204.72,135.08z"/>
							<path opacity="0.35" fill="#282828" d="M206.29,134.2c-0.5-0.15-1-0.3-1.52-0.3c-0.29,0-0.6,0.05-0.79,0.26
								c-0.21,0.23-0.22,0.58-0.22,0.89c0,0.68-0.1,1.43,0,2.1c0.07,0.48,0.46,0.65,0.87,0.83c-0.04-0.74-0.07-1.49-0.11-2.23
								c-0.01-0.25,0-0.54,0.21-0.67c0.11-0.07,0.24-0.07,0.37-0.07c0.86,0.02,1.71,0.2,2.5,0.52c-0.04-0.29-0.11-0.57-0.29-0.79
								C207.05,134.44,206.66,134.31,206.29,134.2z"/>
							<path fill="#1B2826" d="M206.29,134.2c-0.5-0.15-1-0.3-1.52-0.3c-0.29,0-0.6,0.05-0.79,0.26c-0.21,0.23-0.22,0.58-0.22,0.89
								c0,0.68-0.1,1.43,0,2.1c0.07,0.48,0.46,0.65,0.87,0.83c-0.04-0.74-0.07-1.49-0.11-2.23c-0.01-0.25,0-0.54,0.21-0.67
								c0.11-0.07,0.24-0.07,0.37-0.07c0.86,0.02,1.71,0.2,2.5,0.52c-0.04-0.29-0.11-0.57-0.29-0.79
								C207.05,134.44,206.66,134.31,206.29,134.2z"/>
						</g>
						<g>
							
								<linearGradient id="SVGID_00000133500372936234747440000011418306321966206137_" gradientUnits="userSpaceOnUse" x1="214.3002" y1="155.5003" x2="214.3466" y2="155.5003">
								<stop  offset="0" style="stop-color:#82BA18"/>
								<stop  offset="1" style="stop-color:#37571F"/>
							</linearGradient>
							<path fill="url(#SVGID_00000133500372936234747440000011418306321966206137_)" d="M214.35,155.43l-0.05,0.13
								C214.3,155.61,214.32,155.55,214.35,155.43z"/>
							<polygon fill="#374C51" points="233.3,135.01 215.3,142 215.3,150 233.3,143 							"/>
						</g>
						<g>
							<polygon fill="#6D9187" points="215.3,150 215.3,142 194.3,134 194.3,142 							"/>
						</g>
						<g>
							<path fill="#1B2826" d="M203.7,156.52v9.6l4.72,1.98l-0.01-10.56c-0.45-0.69-0.91-1.21-1.36-1.61
								C205.36,155.63,203.7,156.52,203.7,156.52z"/>
							<path fill="#3B5653" d="M202.3,155.43V167l6.12,2.52l0-1.42l-4.72-1.98v-9.6c0,0,1.66-0.88,3.35-0.59
								C204.6,153.77,202.3,155.43,202.3,155.43z"/>
						</g>
						<g>
							<path fill="#1B2826" d="M203.7,184.52v9.6l4.72,1.98l-0.01-10.56c-0.45-0.69-0.91-1.21-1.36-1.61
								C205.36,183.63,203.7,184.52,203.7,184.52z"/>
							<path fill="#3B5653" d="M202.3,183.43V195l6.12,2.52l0-1.42l-4.72-1.98v-9.6c0,0,1.66-0.88,3.35-0.59
								C204.6,181.77,202.3,183.43,202.3,183.43z"/>
						</g>
					</g>
					<g>
						<path fill="#1B2826" d="M213.3,77c-0.55,0-1,0.45-1,1v15.77l1-2.77l1,3V78C214.3,77.45,213.85,77,213.3,77L213.3,77z"/>
						<path fill="#D45A00" d="M219.52,77.95c2.16,0.53,4.26,1.39,6.48,1.51c1.42,0.08,2.83-0.14,4.21-0.46
							c0.98-0.23,1.95-0.5,2.9-0.83c-2.1,1.73-4.47,3.13-7,4.14c1.58,1.67,3.85,2.66,6.15,2.69c-0.29,0.71-1.1,1.03-1.84,1.25
							c-3.37,1-7.01,1.32-10.4,0.37c-1.2-0.33-2.36-0.82-3.58-1.03s-2.58-0.08-3.55,0.7c0.57-1.94,0.38-4.02,0.19-6.03
							c-0.06-0.58-0.34-1.46,0.05-1.94c0.34-0.41,1.4-0.58,1.89-0.67C216.51,77.39,218.07,77.59,219.52,77.95z"/>
					</g>
					<g>
						<path fill="#1B2826" d="M201.42,0c-0.55,0-1,0.45-1,1v15.77l1-2.77l1,3V1C202.42,0.45,201.97,0,201.42,0L201.42,0z"/>
						<path fill="#D45A00" d="M207.64,0.95c2.16,0.53,4.26,1.39,6.48,1.51c1.42,0.08,2.83-0.14,4.21-0.46
							c0.98-0.23,1.95-0.5,2.9-0.83c-2.1,1.73-4.47,3.13-7,4.14c1.58,1.67,3.85,2.66,6.15,2.69c-0.29,0.71-1.1,1.03-1.84,1.25
							c-3.37,1-7.01,1.32-10.4,0.37c-1.2-0.33-2.36-0.82-3.58-1.03c-1.23-0.2-2.58-0.08-3.55,0.7c0.57-1.94,0.38-4.02,0.19-6.03
							c-0.06-0.58-0.34-1.46,0.05-1.94c0.34-0.41,1.4-0.58,1.89-0.67C204.63,0.39,206.19,0.59,207.64,0.95z"/>
					</g>
				</g>
				<g>
					<g>
						<g>
							<polygon fill="#54726F" points="276.52,113.52 264.15,108.22 264.15,164 276.52,169.46 							"/>
							<polygon fill="#2D3639" points="291.84,161.97 291.84,108.88 277.09,113.77 276.52,113.52 276.52,169.46 							"/>
							<polygon fill="#6D9187" points="276.52,175 276.52,169.46 264.15,164 264.15,169.04 							"/>
							<polygon fill="#1B2826" points="276.52,175 291.84,167.34 291.84,161.97 276.52,169.46 							"/>
						</g>
						<polygon fill="#1B2826" points="294.39,101.85 273.97,96.74 267.49,98.69 261.21,100.99 279.08,107.8 						"/>
						<g>
							<path fill="#7B959B" d="M280.23,104.69c0.32-0.6,0.03-1.38-0.49-1.82c-0.52-0.44-1.2-0.63-1.85-0.8
								c-2.46-0.65-4.92-1.31-7.39-1.96c-1.42-0.38-2.86-0.78-4.18-1.41v3.49c3.66,1.63,7.55,2.72,11.53,3.21
								C278.72,105.5,279.81,105.47,280.23,104.69z"/>
							<path opacity="0.35" fill="#282828" d="M279.08,107.8l11.06-4.25V97.1l-23.82-0.37v1.96c1.33,0.63,2.76,1.03,4.18,1.41
								c2.46,0.65,4.92,1.31,7.39,1.96c0.66,0.17,1.34,0.36,1.85,0.8c0.52,0.44,0.81,1.22,0.49,1.82c-0.42,0.78-1.51,0.81-2.39,0.7
								c-3.97-0.49-7.87-1.58-11.53-3.21v1.26L279.08,107.8z"/>
							<path fill="#577B84" d="M279.08,107.8l11.06-4.25V97.1l-23.82-0.37v1.96c1.33,0.63,2.76,1.03,4.18,1.41
								c2.46,0.65,4.92,1.31,7.39,1.96c0.66,0.17,1.34,0.36,1.85,0.8c0.52,0.44,0.81,1.22,0.49,1.82c-0.42,0.78-1.51,0.81-2.39,0.7
								c-3.97-0.49-7.87-1.58-11.53-3.21v1.26L279.08,107.8z"/>
						</g>
						<g>
							<path fill="#518455" d="M279.11,96.89c1.91-1.29,1.93-4.05,1.69-6.35c-0.83-8.02-2.27-15.97-4.29-23.78l-10.98,29.79
								c3.2,0.94,6.72,1.06,10.13,1.07C276.85,97.64,278.12,97.56,279.11,96.89z"/>
							<path opacity="0.7" fill="#282828" d="M290.99,97.59l-13.61-33.18l-0.87,2.36c2.02,7.8,3.46,15.76,4.29,23.78
								c0.24,2.29,0.22,5.06-1.69,6.35c-0.99,0.67-2.26,0.75-3.45,0.74c-3.4-0.02-6.92-0.14-10.13-1.07l-0.06,0.18
								C279.08,103.54,290.99,97.59,290.99,97.59z"/>
							<path fill="#365E46" d="M290.99,97.59l-13.61-33.18l-0.87,2.36c2.02,7.8,3.46,15.76,4.29,23.78
								c0.24,2.29,0.22,5.06-1.69,6.35c-0.99,0.67-2.26,0.75-3.45,0.74c-3.4-0.02-6.92-0.14-10.13-1.07l-0.06,0.18
								C279.08,103.54,290.99,97.59,290.99,97.59z"/>
						</g>
						<g>
							<path fill="#1C1C1C" d="M270.07,101.91c-0.18,0.11-0.19,0.36-0.18,0.57c0.03,0.63,0.06,1.26,0.09,1.9
								c0.07,0.03,0.14,0.06,0.2,0.09c0.72,0.35,1.51,0.56,2.31,0.61c0.08-0.84,0.1-1.68,0.04-2.52c-0.01-0.08-0.01-0.17-0.02-0.25
								c-0.67-0.28-1.4-0.43-2.13-0.44C270.28,101.85,270.17,101.85,270.07,101.91z"/>
							<path opacity="0.35" fill="#282828" d="M271.41,101.16c-0.42-0.13-0.85-0.25-1.29-0.26c-0.24,0-0.51,0.04-0.68,0.22
								c-0.18,0.2-0.19,0.49-0.19,0.76c0,0.57-0.08,1.21,0,1.78c0.06,0.41,0.39,0.55,0.74,0.7c-0.03-0.63-0.06-1.26-0.09-1.9
								c-0.01-0.21,0-0.46,0.18-0.57c0.09-0.06,0.21-0.06,0.31-0.06c0.73,0.01,1.45,0.17,2.13,0.44c-0.03-0.25-0.09-0.49-0.25-0.68
								C272.06,101.36,271.73,101.26,271.41,101.16z"/>
							<path fill="#1B2826" d="M271.41,101.16c-0.42-0.13-0.85-0.25-1.29-0.26c-0.24,0-0.51,0.04-0.68,0.22
								c-0.18,0.2-0.19,0.49-0.19,0.76c0,0.57-0.08,1.21,0,1.78c0.06,0.41,0.39,0.55,0.74,0.7c-0.03-0.63-0.06-1.26-0.09-1.9
								c-0.01-0.21,0-0.46,0.18-0.57c0.09-0.06,0.21-0.06,0.31-0.06c0.73,0.01,1.45,0.17,2.13,0.44c-0.03-0.25-0.09-0.49-0.25-0.68
								C272.06,101.36,271.73,101.26,271.41,101.16z"/>
						</g>
						<g>
							
								<linearGradient id="SVGID_00000003096812716819779790000003944140326884407187_" gradientUnits="userSpaceOnUse" x1="278.2256" y1="119.2795" x2="278.265" y2="119.2795">
								<stop  offset="0" style="stop-color:#82BA18"/>
								<stop  offset="1" style="stop-color:#37571F"/>
							</linearGradient>
							<path fill="url(#SVGID_00000003096812716819779790000003944140326884407187_)" d="M278.27,119.22l-0.04,0.11
								C278.23,119.37,278.24,119.33,278.27,119.22z"/>
							<polygon fill="#374C51" points="294.39,101.85 279.08,107.8 279.08,114.6 294.39,108.65 							"/>
						</g>
						<g>
							<polygon fill="#6D9187" points="279.08,114.6 279.08,107.8 261.21,100.99 261.21,107.8 							"/>
						</g>
						<g>
							<path fill="#1B2826" d="M269.21,120.14v8.16l4.01,1.69l-0.01-8.98c-0.38-0.59-0.77-1.03-1.16-1.37
								C270.62,119.39,269.21,120.14,269.21,120.14z"/>
							<path fill="#3B5653" d="M268.02,119.22v9.85l5.21,2.14l0-1.21l-4.01-1.69v-8.16c0,0,1.41-0.75,2.85-0.5
								C269.97,117.8,268.02,119.22,268.02,119.22z"/>
						</g>
						<g>
							<path fill="#1B2826" d="M269.21,143.96v8.16l4.01,1.69l-0.01-8.98c-0.38-0.59-0.77-1.03-1.16-1.37
								C270.62,143.21,269.21,143.96,269.21,143.96z"/>
							<path fill="#3B5653" d="M268.02,143.03v9.85l5.21,2.14l0-1.21l-4.01-1.69v-8.16c0,0,1.41-0.75,2.85-0.5
								C269.97,141.62,268.02,143.03,268.02,143.03z"/>
						</g>
					</g>
					<g>
						<path fill="#1B2826" d="M277.37,52.5c-0.47,0-0.85,0.38-0.85,0.85v13.42l0.85-2.36l0.85,2.55V53.35
							C278.23,52.88,277.84,52.5,277.37,52.5L277.37,52.5z"/>
						<path fill="#D45A00" d="M282.67,53.31c1.84,0.45,3.63,1.18,5.51,1.29c1.2,0.07,2.41-0.12,3.58-0.39
							c0.83-0.19,1.66-0.43,2.47-0.7c-1.79,1.47-3.8,2.66-5.95,3.52c1.35,1.42,3.27,2.26,5.23,2.29c-0.25,0.6-0.94,0.88-1.56,1.06
							c-2.87,0.85-5.97,1.12-8.85,0.31c-1.02-0.28-2-0.7-3.05-0.87c-1.04-0.17-2.2-0.07-3.02,0.59c0.48-1.65,0.32-3.42,0.16-5.13
							c-0.05-0.5-0.29-1.24,0.05-1.65c0.29-0.35,1.19-0.49,1.61-0.57C280.11,52.83,281.43,53,282.67,53.31z"/>
					</g>
				</g>
				<g>
					<polygon fill="#80AFA1" points="263.29,132.83 230.09,151.85 230.09,158.23 268.39,133.76 					"/>
					<polygon fill="#2D3639" points="230.09,158.23 230.09,168.09 268.39,143.28 268.39,133.76 					"/>
				</g>
			</g>
			<path fill="#374C51" d="M230.09,168.09v26.98l0.21,2.45l11.41-8.41v-15.59c0,0,2.92-15.58,14.96-11.55v16.11l10.04-7.4V145
				l1.68-1.72L230.09,168.09z"/>
			<g>
				<path fill="#775830" d="M241.71,173.52v15.59l12.58-9.28V164C246.87,160.99,241.71,173.52,241.71,173.52z"/>
				<path fill="#232323" d="M256.67,161.97c-12.04-4.03-14.96,11.55-14.96,11.55s5.16-12.52,12.58-9.52v15.84l2.38-1.75V161.97z"/>
			</g>
			<polygon fill="#232323" points="248.71,164 248.71,184 249.71,183 249.19,162.91 			"/>
		</g>
	</g>
</g>
<g id="_x37_">
</g>
<g id="_x36_">
</g>
<g id="_x35_">
</g>
<g id="_x34_">
</g>
<g id="_x33_">
</g>
<g id="_x32_">
</g>
<g id="_x31_">
</g>
</svg>
