<?xml version="1.0" encoding="utf-8"?>
<!-- Generator: Adobe Illustrator 27.9.0, SVG Export Plug-In . SVG Version: 6.00 Build 0)  -->
<svg version="1.1" xmlns="http://www.w3.org/2000/svg" xmlns:xlink="http://www.w3.org/1999/xlink" x="0px" y="0px"
	 viewBox="0 0 303.35 227.44" enable-background="new 0 0 303.35 227.44" xml:space="preserve">
<g id="_x31_6">
</g>
<g id="_x31_5" opacity="0.69">
</g>
<g id="_x31_4">
</g>
<g id="_x31_3">
</g>
<g id="_x31_2">
</g>
<g id="_x31_1">
</g>
<g id="_x31_0">
</g>
<g id="_x38_">
</g>
<g id="_x37_">
</g>
<g id="_x36_">
</g>
<g id="_x35_">
</g>
<g id="_x34_">
</g>
<g id="_x33_">
</g>
<g id="_x32_">
</g>
<g id="_x31_">
	<g>
		<g>
			<path opacity="0.48" fill="#282828" d="M112.8,23.38c11.05-0.22,23-0.17,31.9,6.39c5.68,4.19,9.44,10.61,15.28,14.58
				c5.06,3.44,11.31,4.77,16.48,8.05c6.07,3.86,10.18,10.1,15.51,14.93c12.43,11.26,30.43,14.07,44.12,23.76
				c3.89,2.75,7.44,6.07,11.76,8.06c3.87,1.78,8.16,2.41,12.31,3.39c11.73,2.78,22.73,8.59,31.63,16.72
				c6.08,5.55,11.43,12.81,11.56,21.05c0.16,10.21-7.67,20.35-4.03,29.89c0.72,1.89,1.87,3.64,2.12,5.65
				c0.6,4.93-4.25,8.62-6.37,13.12c-2.64,5.62-0.84,12.25-1.53,18.42c-1.36,12.19-14.19,21.82-26.28,19.73
				c-3.86-0.67-7.52-2.33-11.42-2.71c-5.32-0.51-10.53,1.41-15.79,2.35c-21.48,3.82-42.22-8.78-59.66-21.9
				c-3.07-2.31-8.58-4.01-9.77-0.36c-0.24,0.73-0.19,1.51-0.3,2.27c-0.71,5.06-7.55,6.63-12.43,5.13s-9.31-4.79-14.41-4.93
				c-1.93-0.05-3.91,0.35-5.78-0.14c-3.62-0.95-5.54-4.79-7.02-8.23c-1.16-2.69-2.31-5.38-3.47-8.07c-4-9.31-8.07-18.88-8.53-29
				c-0.09-1.9-0.03-3.87,0.81-5.57c1.69-3.41,6.16-5.06,7.12-8.74c1.11-4.3-3.5-8.1-7.89-8.77c-4.39-0.67-8.92,0.47-13.28-0.34
				c-5.72-1.07-10.24-5.29-15.35-8.08c-4.99-2.72-10.57-4.09-16.01-5.75c-11.7-3.57-22.96-8.6-33.43-14.93
				c-2.64-1.6-5.27-3.31-7.28-5.65c-1.91-2.22-3.19-4.92-5.06-7.17c-2.32-2.79-5.54-4.82-9.07-5.71c-2.34-0.59-4.8-0.69-7.06-1.51
				c-2.27-0.82-4.43-2.62-4.66-5.02s2.48-4.85,4.6-3.69c0.85-1.96,2.15-1.97,4.23-2.49c2.08-0.52,4.25-0.49,6.38-0.7
				c4.73-0.47,9.32-2.19,13.19-4.95c0.38-0.27,0.77-0.58,0.89-1.03c0.19-0.7-0.36-1.37-0.89-1.87c-2.93-2.73-6.59-4.66-10.5-5.52
				c-1.32-0.29-2.7-0.47-3.84-1.18c-1.04-0.64-1.78-1.64-2.64-2.51C13.61,55.02,3.8,54.93,0.23,48.29
				c13.43-8.44,30.06-10.13,45.9-9.29c6.05,0.32,12.14,0.98,18.15,0.18c4.59-0.61,9.03-2.06,13.43-3.49
				c6.46-2.11,12.95-4.24,18.99-7.35C101.24,26,107.7,23.32,112.8,23.38z"/>
			<path opacity="0.48" fill="#282828" d="M102.21,38.14c8.68-7.31,22.13-8.28,31.76-2.29c8.06,5,13.61,14.25,22.81,16.58
				c0.1,0.02,0.19,0.05,0.29,0.07c5.08,1.28,10.32,2.18,14.25,5.64c3.93,3.47,7.21,7.68,11.52,10.66
				c5.16,3.56,11.55,5.16,16.35,9.19c5.12,4.29,7.84,10.81,12.45,15.65c8.55,8.96,22.43,11.02,31.33,19.63
				c9.07,8.78,11.47,22.9,20.8,31.4c6.76,6.16,16.9,9.17,20.68,17.49c3.84,8.44-0.74,18.15-0.94,27.43
				c-0.08,3.71,0.56,7.41,0.47,11.12c-0.18,7.67-3.74,15.36-9.97,19.84c-6.23,4.48-15.1,5.3-21.7,1.39c-2-1.19-4.14-2.84-6.4-2.25
				c-1,0.26-1.82,0.93-2.68,1.5c-7.99,5.31-18.64,2.05-27.61-1.37c-5.27-2.01-10.59-4.05-15.2-7.29c-2.82-1.99-5.32-4.39-7.81-6.79
				c-4.83-4.65-9.66-9.3-14.5-13.96c-2.98-0.22-4.84,3.06-6.07,5.79c-2.44,5.43-6.54,11.35-12.49,11.3
				c-5.65-0.05-10.37-5.66-15.97-4.93c-1.24,0.16-2.48,0.64-3.7,0.39c-2.21-0.45-3.31-3.18-2.8-5.38s2.16-3.93,3.77-5.5
				c4.88-4.75,10.44-9.59,11.8-16.26c0.79-3.88,0.02-7.88-0.29-11.82c-1.27-16.12,5.64-32.68,18-43.12
				c1.23-1.04,2.58-2.12,3.08-3.65c0.71-2.18-0.53-4.48-1.79-6.4c-6.02-9.17-13.6-17.32-22.32-23.99
				c-8.28-6.34-17.54-11.32-25.77-17.73s-15.62-14.64-18.17-24.75C104.69,42.97,104.41,39.95,102.21,38.14z"/>
		</g>
		<g>
			<path fill="none" d="M165.95,52.26c0.04-0.02,0.09-0.04,0.13-0.04c0.01,0,0.02,0,0.02,0c-0.03-0.12-0.05-0.24-0.07-0.36
				C166.01,52,165.98,52.13,165.95,52.26z"/>
			<path fill="#6F725A" d="M139.83,203.38c0.57-0.43,0.95-1.07,1.56-1.45c0.76-0.47,1.73-0.43,2.61-0.61
				c2.82-0.58,4.58-3.41,5.49-6.14c0.91-2.73,1.37-5.71,3.1-8.01c-0.76,3.36-1.53,6.72-2.29,10.08c-0.31,1.37-0.62,2.84-0.12,4.15
				c1.1,2.88,5.02,3.11,8.09,2.85c1.38-0.12,3.01-0.41,3.56-1.68c0.44-1.02-0.06-2.21,0.19-3.29c0.69-2.92,5.74-2.58,6.81-5.39
				c0.78-2.05-1.15-4.05-2.87-5.4c-3.75-2.94-7.5-5.88-11.25-8.83c-0.26-0.21-0.54-0.42-0.87-0.49c-0.93-0.21-1.67,0.76-2.14,1.59
				c-2.47,4.38-4.93,8.76-7.4,13.15c1.92-5.19,3.84-10.39,5.76-15.58c1.37-3.71,2.54-8.43-0.33-11.16c-0.31-0.3-0.69-0.56-1.12-0.57
				c-0.6,0-1.07,0.5-1.45,0.97c-3.44,4.14-6.87,8.29-10.31,12.43c2.48-3.61,4.96-7.23,7.44-10.84c0.64-0.94,1.3-1.91,1.52-3.02
				c0.17-0.84,0.07-1.71-0.02-2.57c-0.49-4.46-0.98-8.92-1.48-13.39c-0.32-2.89-0.63-5.86,0.14-8.66c0.98-3.56,3.65-6.49,6.79-8.43
				c1.98-1.23,4.21-2.14,5.87-3.78c1.66-1.64,2.61-4.35,1.36-6.33c-6.97,5.35-13.46,11.31-19.39,17.8
				c3.69-6.8,8.97-12.72,15.29-17.17c1.52-1.07,3.16-2.12,4.08-3.74c1.54-2.71,0.63-6.15,1.47-9.16c0.64-2.32,2.27-4.21,3.39-6.34
				c1.79-3.38,2.25-7.44,1.29-11.14c2.19,0.95,4.98,0.47,7.09,1.45c-0.78-1.37-1.55-2.73-2.33-4.1c-0.33-0.57-0.67-1.17-1.22-1.54
				c-1.01-0.69-2.37-0.42-3.56-0.12c-1.8,0.45-3.6,0.91-5.4,1.36c-0.7,0.18-1.72,0.16-1.82-0.56c2-1.36,4.34-2.16,6.71-2.59
				c1.31-0.24,2.71-0.41,3.71-1.29c0.52-0.45,0.87-1.06,1.22-1.65c0.64-1.08,1.27-2.16,1.91-3.24c0.73-1.23,1.48-2.55,1.46-3.98
				c-0.03-2.84-2.89-4.68-4.58-6.98c-1.43-1.95-2.06-4.47-1.72-6.87c0.3-2.07,1.3-4.06,1.21-6.15c-0.06-1.47-0.66-2.86-1.06-4.28
				c-0.05-0.17-0.09-0.34-0.13-0.51c-0.01,0-0.02,0-0.02,0c-0.05,0.01-0.09,0.03-0.13,0.04c-0.38,1.74-1.12,3.39-2.32,4.69
				c-1.48,1.6-3.51,2.6-4.99,4.2c-3.03,3.28-3.3,8.64-6.83,11.38c-2.11,1.64-5.03,2.01-7.08,3.73c-2.74,2.29-3.61,6.71-6.98,7.9
				c-1.54,0.54-3.29,0.24-4.82,0.8c-2.92,1.07-3.96,4.68-5.96,7.03c-0.53,0.8-1.2,1.42-2.18,1.69c0.87-0.37,1.57-0.97,2.18-1.69
				c1.41-2.13,1.75-5.56,3.85-7.27c2.65-2.16,7.61-1.12,8.99-4.25c0.4-0.91,0.34-1.97,0.74-2.88c0.64-1.49,2.37-2.35,2.89-3.89
				c0.7-2.08-1.08-4.07-2.38-5.84c-3.64-4.94-4.26-11.64-8.04-16.47c-0.51-0.66-1.14-1.3-1.95-1.46c-1.16-0.23-2.23,0.59-3.13,1.36
				c-3.46,2.96-6.98,5.99-9.28,9.92c-1.03,1.77-1.81,3.68-2.79,5.47c-0.12,0.25-0.25,0.5-0.41,0.74c0.14-0.24,0.27-0.49,0.41-0.74
				c0.79-1.72,0.8-3.77,1.44-5.57c1.86-5.18,8.36-7.2,11.14-11.95c-3.88,2.85-8.63,4.5-13.44,4.67c-0.2-1.64-0.4-3.29-0.59-4.93
				c-0.08-0.64-0.24-1.4-0.84-1.65c-0.64-0.27-1.32,0.23-1.84,0.7c-1.46,1.33-2.93,2.66-4.39,3.99c-0.36-1.17,0.71-2.25,1.58-3.11
				c0.87-0.87,1.63-2.09,0.78-2.99c-1.86,0.48-3.71,0.96-5.57,1.44c-3.31,0.86-6.88,1.87-8.96,4.59c1.4-1.81,3.31-3.22,5.44-4.05
				c1.22-0.47,2.54-0.77,3.63-1.5c1.09-0.73,1.92-2.09,1.52-3.34c-0.27-0.84-1.03-1.48-1.22-2.34c-0.14-0.65,0.07-1.31,0.27-1.94
				c0.45-1.38,0.9-2.75,1.34-4.13c0.4-1.21,0.8-2.48,0.6-3.75c-0.19-1.26-1.18-2.5-2.45-2.53c-1.33-0.03-2.31,1.16-3.34,2
				c-1.21,0.99-2.69,1.59-4.15,2.16c-4.52,1.8-9.05,3.59-13.57,5.39c2.29-1.78,4.86-3.19,7.58-4.17c1.85-0.66,3.8-1.14,5.46-2.18
				c2.52-1.58,4.18-4.36,6.85-5.69c0.79-0.4,1.67-0.67,2.3-1.3c0.89-0.9,1.02-2.33,0.71-3.55c-0.31-1.22-0.99-2.32-1.56-3.44
				c-1.76-3.49-2.33-7.33-1.94-11.22c0.15,0.03,0.3,0.07,0.45,0.1c-0.09-1.89-0.54-3.74-1.27-5.48c-0.44-0.49-0.94-0.88-1.59-0.92
				c-0.86-0.05-1.6,0.56-2.25,1.13c-2.29,2.04-4.74,4.43-7.63,4.91c-1.16,0.19-2.22,0.79-3,1.67l-7.06,7.95
				c-1.16,1.3-2.34,2.63-3.83,3.54c-1.11,0.67-2.37,1.11-3.36,1.95c-0.87,0.74-1.46,1.74-2.18,2.61c-1.1,1.34-2.39,2.22-3.97,2.91
				c0.82,1.96,1.47,3.97,1.81,6.06c0.31,1.9,0.36,3.88,1.08,5.67c0.92,2.3,2.84,4.03,4.73,5.63c4.32,3.62,8.9,6.95,13.67,9.96
				c-5.65-0.24-11.39-0.49-16.77-2.25c-0.83-0.27-1.68-0.58-2.54-0.47c-1.52,0.2-2.73,1.63-4.22,1.68c3.74,1.95,7.19,4.5,10.59,7.04
				c2.1,1.57,4.27,3.21,5.51,5.51c1.15,2.13,1.4,4.64,2.45,6.82c1.99,4.13,5.57,7.38,8.33,11.03c2.15,2.84,1.61,6.92,3.15,10.14
				c1.01,2.13,2.89,3.77,3.75,5.97c0.58,1.48,0.65,3.11,0.71,4.69c0.09,2.2,0.17,4.43-0.26,6.59c-0.43,2.16-1.44,4.29-3.18,5.64
				c-0.22,0.17-0.45,0.33-0.69,0.47c-0.31,1.15-1.27,2.03-1.99,2.99c-0.78,1.04-1.28,2.61-0.4,3.57c0.52,0.57,1.35,0.7,2.12,0.81
				c1.99,0.27,3.99,0.55,5.98,0.82c1.49,0.21,3.01,0.42,4.38,1.03c0.96,0.42,1.84,1.04,2.84,1.36c1.47,0.47,3.07,0.27,4.6,0.06
				c2.38-0.32,4.76-0.64,7.13-0.97c0.07-0.01,0.14-0.02,0.21-0.03c0.1-0.18,0.19-0.37,0.27-0.58c0.61-1.58,0.72-3.35,0.17-4.96
				c-0.32-0.93-0.84-1.82-0.91-2.81c-0.06-0.91,0.26-1.8,0.36-2.7c0.25-2.31-0.98-4.51-2.32-6.41c-1.34-1.9-2.87-3.77-3.37-6.04
				c-0.57-2.6,0.21-5.65-1.42-7.75c-0.15-0.19-0.33-0.38-0.56-0.44c-0.53-0.15-1,0.36-1.32,0.82c-1.94,2.81-3.78,5.69-5.52,8.63
				c1.18-3.54,3.02-6.86,5.4-9.74c0.98-1.18,2.34-2.39,3.84-2.09c0.84,0.17,1.51,0.78,2.11,1.4c2.28,2.36,4.15,5.12,5.48,8.11
				c0.7,1.57,1.28,3.24,2.37,4.57c0.68,0.82,1.54,1.48,2.39,2.13c1.67,1.28,3.35,2.56,5.02,3.84c1.07,0.82,2.18,1.66,3.49,1.99
				c1.28,0.33,2.96,0.35,3.43,1.59c0.31,0.83-0.2,1.76-0.91,2.29s-1.59,0.74-2.41,1.06c-0.68,0.26-1.31,0.61-1.94,0.98
				c0.59-0.25,1.18-0.5,1.77-0.75c-0.77,0.98-1.77,1.78-2.89,2.32c-0.39,0.19-0.8,0.35-1.08,0.68c-0.24,0.29-0.35,0.66-0.45,1.02
				c-1.17,4.18-2.3,8.81-0.41,12.71c0.62,1.27,1.52,2.38,2.22,3.61c2.09,3.66,2.11,7.63,0.82,11.64c-1.39,4.3-4.71,7.65-7.95,10.79
				c-1.14,1.1-2.35,2.33-2.52,3.9c-0.19,1.76,0.99,3.38,1.17,5.14c0.25,2.48-1.5,4.89-1.06,7.35c0.31,1.74,1.63,3.08,2.85,4.36
				c3.68,3.86,6.94,8.11,9.71,12.67c0.7,1.15,1.39,2.44,1.19,3.78c-0.16,1.02-0.84,1.97-0.72,3c0,0.02,0.01,0.04,0.01,0.06
				C137.12,203.69,138.71,204.23,139.83,203.38z M111.52,80.16c-0.09,0.51-0.3,1.14-0.82,1.18c-0.23,0.02-0.45-0.11-0.64-0.24
				c-1.19-0.85-1.78-2.29-2.7-3.43c-2.21-2.74-6.19-3.61-8.26-6.45c-1.78-2.45-1.82-5.93-3.89-8.13c-0.3-0.32-0.67-0.61-1.1-0.64
				c-0.51-0.03-0.96,0.31-1.36,0.63c-1.45,1.18-2.95,2.41-3.77,4.09c-1.03,2.13-0.83,4.75-2.1,6.75c0.88-1.44,0.61-3.27,0.84-4.94
				c0.53-3.86,4.11-5.41,5.18-8.78c1.04-3.24-3.33-5.59-6.16-5.53c3.48-0.06,6.97,0.55,10.23,1.79c0.67,0.25,1.33,0.54,1.88,1
				c0.73,0.61,1.18,1.48,1.72,2.26c2.95,4.26,8.77,6.23,10.78,11C112.58,73.66,112.06,77.01,111.52,80.16z"/>
			<path opacity="0.72" fill="#505050" d="M57.03,51.82c0.04-0.05,0.08-0.09,0.13-0.13c0.2-0.18,0.44-0.32,0.68-0.45
				c0.79-0.25,1.64-0.25,2.46-0.22c0.04,0.02,0.09,0.03,0.13,0.04c0.6,0.21,1.2,0.45,1.79,0.7c-0.71-0.59-1.42-1.2-2.31-1.32
				C58.78,50.29,57.84,50.95,57.03,51.82z"/>
			<path fill="#6F725A" d="M266.87,218.8c0.3-2.34,1.73-4.51,1.58-6.86c-0.17-2.63-2.25-4.74-2.86-7.3
				c-0.89-3.74,1.51-7.59,0.97-11.4c-0.52-3.59-3.49-6.25-5.37-9.36c-2.23-3.68-3.08-8.29-6.28-11.17c-1.81-1.63-4.17-2.5-6.12-3.97
				c-7.97-6.03-6.29-19.59-13.99-25.97c-2.75,3.98-5.58,8.05-9.52,10.87c-1.83,1.31-3.89,2.34-5.53,3.88
				c-3.9,3.68-5.22,10.05-10.12,12.22c6.23-0.86,12.77,0.7,17.94,4.28c2.97,2.05,5.56,4.77,8.93,6.05c3.12,1.19,6.67,1.05,9.67,2.51
				c0.44,0.22,0.89,0.49,1.12,0.93c0.22,0.43,0.18,0.94,0.14,1.42c-0.28,3.07-0.56,6.15-0.84,9.22c-0.24,2.69-0.5,5.42-1.43,7.95
				c-0.8,2.15-2.07,4.11-2.69,6.31c-0.52,1.84-0.55,3.72-0.31,5.61c0.62,0.32,1.23,0.63,1.85,0.95c1.03,0.53,2.06,1.06,3.17,1.41
				c0.77,0.24,1.56,0.4,2.35,0.55c5.31,1.03,10.62,2.06,15.93,3.09c0.49,0.09,0.99,0.18,1.47,0.1
				C266.84,219.68,266.81,219.23,266.87,218.8z"/>
			<path opacity="0.72" fill="#505050" d="M53.47,31.73c2.45,2.76,6.93,4.03,7.69,7.64c0.37,1.75-0.19,3.91,1.14,5.1
				c-1.27,1.53-3.11,2.58-5.08,2.9c-0.86,0.14-1.77,0.15-2.56,0.51c-1.13,0.51-1.84,1.64-2.52,2.68c-2.47,3.77-5.47,7.2-8.86,10.17
				c2.54,0.33,5.13-0.51,7.26-1.93c2.13-1.42,3.83-3.39,5.31-5.48c0.31-0.44,0.66-0.9,1.03-1.33c0.05-0.06,0.1-0.12,0.15-0.17
				c0.81-0.87,1.75-1.53,2.88-1.38c0.89,0.12,1.6,0.73,2.31,1.32c0.85,0.36,1.68,0.76,2.5,1.19c1.49-0.04,2.7-1.48,4.22-1.68
				c0.86-0.11,1.72,0.2,2.54,0.47c5.38,1.76,11.12,2.01,16.77,2.25c-4.78-3-9.35-6.33-13.67-9.96c-1.9-1.59-3.81-3.33-4.73-5.63
				c-0.72-1.79-0.77-3.76-1.08-5.67c-0.34-2.09-0.99-4.1-1.81-6.06c-0.06,0.03-0.11,0.06-0.17,0.08l-0.11-0.11
				c-0.42-0.43-0.91-0.78-1.45-1.05l-9.06-4.56c-1.58-0.79-3.17-1.59-4.89-1.99c-0.94-0.22-1.93-0.3-2.89-0.19
				c1.12,1.88,1.73,3.88,2.33,6.5C51.23,27.64,51.92,29.98,53.47,31.73z"/>
			<path fill="#373A30" d="M53.47,31.73c2.45,2.76,6.93,4.03,7.69,7.64c0.29,1.36,0.01,2.97,0.5,4.18c0.3,0.75,0.04,1.63-0.6,2.13
				c-1.11,0.87-2.44,1.47-3.84,1.69c-0.86,0.14-1.77,0.15-2.56,0.51c-1.13,0.51-1.84,1.64-2.52,2.68c-2.47,3.77-5.47,7.2-8.86,10.17
				c2.54,0.33,5.13-0.51,7.26-1.93c2.13-1.42,3.83-3.39,5.31-5.48c0.31-0.44,0.66-0.9,1.03-1.33c0.05-0.06,0.1-0.12,0.15-0.17
				c0.81-0.87,1.75-1.53,2.88-1.38c0.89,0.12,1.6,0.73,2.31,1.32c0.85,0.36,1.68,0.76,2.5,1.19c1.49-0.04,2.7-1.48,4.22-1.68
				c0.86-0.11,1.72,0.2,2.54,0.47c5.38,1.76,11.12,2.01,16.77,2.25c-4.78-3-9.35-6.33-13.67-9.96c-1.9-1.59-3.81-3.33-4.73-5.63
				c-0.72-1.79-0.77-3.76-1.08-5.67c-0.34-2.09-0.99-4.1-1.81-6.06c-0.06,0.03-0.11,0.06-0.17,0.08l-0.11-0.11
				c-0.42-0.43-0.91-0.78-1.45-1.05l-9.06-4.56c-1.58-0.79-3.17-1.59-4.89-1.99c-0.94-0.22-1.93-0.3-2.89-0.19
				c1.12,1.88,1.73,3.88,2.33,6.5C51.23,27.64,51.92,29.98,53.47,31.73z"/>
			<path opacity="0.72" fill="#505050" d="M124.78,93.68c0.98-0.27,1.65-0.89,2.18-1.69C126.35,92.7,125.65,93.31,124.78,93.68z"/>
			<path fill="#373A30" d="M124.78,93.68c0.98-0.27,1.65-0.89,2.18-1.69C126.35,92.7,125.65,93.31,124.78,93.68z"/>
			<path opacity="0.72" fill="#505050" d="M102.64,6.3c-0.38,3.89,0.18,7.74,1.94,11.22c0.57,1.13,1.25,2.22,1.56,3.44
				c0.31,1.22,0.17,2.65-0.71,3.55c-0.62,0.63-1.51,0.9-2.3,1.3c-2.66,1.33-4.33,4.1-6.85,5.69c-1.66,1.05-3.61,1.52-5.46,2.18
				c-2.73,0.98-5.3,2.39-7.58,4.17c4.52-1.8,9.05-3.59,13.57-5.39c1.46-0.58,2.94-1.17,4.15-2.16c1.03-0.84,2.01-2.03,3.34-2
				c1.28,0.03,2.26,1.27,2.45,2.53c0.19,1.26-0.21,2.53-0.6,3.75c-0.45,1.38-0.9,2.75-1.34,4.13c-0.2,0.63-0.41,1.29-0.27,1.94
				c0.19,0.86,0.95,1.5,1.22,2.34c0.4,1.25-0.43,2.6-1.52,3.34c-1.09,0.73-2.4,1.02-3.63,1.5c-2.14,0.83-4.04,2.24-5.44,4.05
				c2.08-2.71,5.65-3.73,8.96-4.59c1.86-0.48,3.71-0.96,5.57-1.44c0.84,0.89,0.09,2.12-0.78,2.99c-0.87,0.87-1.94,1.94-1.58,3.11
				c1.46-1.33,2.93-2.66,4.39-3.99c0.51-0.47,1.2-0.97,1.84-0.7c0.6,0.25,0.76,1.01,0.84,1.65c0.2,1.64,0.4,3.29,0.59,4.93
				c4.81-0.18,9.56-1.83,13.44-4.67c-2.79,4.75-9.28,6.77-11.14,11.95c-0.65,1.81-0.66,3.86-1.44,5.57c0.98-1.8,1.75-3.7,2.79-5.47
				c2.29-3.93,5.82-6.97,9.28-9.92c0.9-0.77,1.97-1.58,3.13-1.36c0.82,0.16,1.44,0.81,1.95,1.46c3.78,4.83,4.4,11.53,8.04,16.47
				c1.3,1.77,3.08,3.76,2.38,5.84c-0.52,1.54-2.24,2.39-2.89,3.89c-0.39,0.91-0.34,1.97-0.74,2.88c-1.37,3.13-6.34,2.09-8.99,4.25
				c-2.1,1.71-2.44,5.14-3.85,7.27c2-2.35,3.04-5.96,5.96-7.03c1.53-0.56,3.28-0.26,4.82-0.8c3.37-1.18,4.25-5.6,6.98-7.9
				c2.05-1.72,4.97-2.08,7.08-3.73c3.53-2.74,3.8-8.09,6.83-11.38c1.48-1.6,3.51-2.6,4.99-4.2c1.21-1.31,1.94-2.95,2.32-4.69
				c-0.28,0.1-0.51,0.31-0.73,0.53c-3.15,3.21-6.56,5.89-10.31,8.38c-1.51-1.22-2.15-3.25-3.57-4.57c-2.19-2.05-5.84-2.05-7.8-4.33
				c-0.76-0.88-1.17-2.02-1.9-2.92c-1.55-1.92-4.2-2.49-6.23-3.9c-2.88-2-4.26-5.48-5.49-8.76c-2.17-5.8-4.42-11.71-8.34-16.51
				c-5.55-6.8-14.07-10.87-18.95-18.16c-0.25-0.37-0.51-0.76-0.81-1.1c0.73,1.74,1.18,3.59,1.27,5.48
				C102.94,6.37,102.79,6.33,102.64,6.3z"/>
			<path fill="#373A30" d="M102.64,6.3c-0.38,3.89,0.18,7.74,1.94,11.22c0.57,1.13,1.25,2.22,1.56,3.44
				c0.31,1.22,0.17,2.65-0.71,3.55c-0.62,0.63-1.51,0.9-2.3,1.3c-2.66,1.33-4.33,4.1-6.85,5.69c-1.66,1.05-3.61,1.52-5.46,2.18
				c-2.73,0.98-5.3,2.39-7.58,4.17c4.52-1.8,9.05-3.59,13.57-5.39c1.46-0.58,2.94-1.17,4.15-2.16c1.03-0.84,2.01-2.03,3.34-2
				c1.28,0.03,2.26,1.27,2.45,2.53c0.19,1.26-0.21,2.53-0.6,3.75c-0.45,1.38-0.9,2.75-1.34,4.13c-0.2,0.63-0.41,1.29-0.27,1.94
				c0.19,0.86,0.95,1.5,1.22,2.34c0.4,1.25-0.43,2.6-1.52,3.34c-1.09,0.73-2.4,1.02-3.63,1.5c-2.14,0.83-4.04,2.24-5.44,4.05
				c2.08-2.71,5.65-3.73,8.96-4.59c1.86-0.48,3.71-0.96,5.57-1.44c0.84,0.89,0.09,2.12-0.78,2.99c-0.87,0.87-1.94,1.94-1.58,3.11
				c1.46-1.33,2.93-2.66,4.39-3.99c0.51-0.47,1.2-0.97,1.84-0.7c0.6,0.25,0.76,1.01,0.84,1.65c0.2,1.64,0.4,3.29,0.59,4.93
				c4.81-0.18,9.56-1.83,13.44-4.67c-2.79,4.75-9.28,6.77-11.14,11.95c-0.65,1.81-0.66,3.86-1.44,5.57c0.98-1.8,1.75-3.7,2.79-5.47
				c2.29-3.93,5.82-6.97,9.28-9.92c0.9-0.77,1.97-1.58,3.13-1.36c0.82,0.16,1.44,0.81,1.95,1.46c3.78,4.83,4.4,11.53,8.04,16.47
				c1.3,1.77,3.08,3.76,2.38,5.84c-0.52,1.54-2.24,2.39-2.89,3.89c-0.39,0.91-0.34,1.97-0.74,2.88c-1.37,3.13-6.34,2.09-8.99,4.25
				c-2.1,1.71-2.44,5.14-3.85,7.27c2-2.35,3.04-5.96,5.96-7.03c1.53-0.56,3.28-0.26,4.82-0.8c3.37-1.18,4.25-5.6,6.98-7.9
				c2.05-1.72,4.97-2.08,7.08-3.73c3.53-2.74,3.8-8.09,6.83-11.38c1.48-1.6,3.51-2.6,4.99-4.2c1.21-1.31,1.94-2.95,2.32-4.69
				c-0.28,0.1-0.51,0.31-0.73,0.53c-3.15,3.21-6.56,5.89-10.31,8.38c-1.51-1.22-2.15-3.25-3.57-4.57c-2.19-2.05-5.84-2.05-7.8-4.33
				c-0.76-0.88-1.17-2.02-1.9-2.92c-1.55-1.92-4.2-2.49-6.23-3.9c-2.88-2-4.26-5.48-5.49-8.76c-2.17-5.8-4.42-11.71-8.34-16.51
				c-5.55-6.8-14.07-10.87-18.95-18.16c-0.25-0.37-0.51-0.76-0.81-1.1c0.73,1.74,1.18,3.59,1.27,5.48
				C102.94,6.37,102.79,6.33,102.64,6.3z"/>
			<path opacity="0.72" fill="#505050" d="M115.85,66.68c-0.13,0.25-0.26,0.5-0.41,0.74C115.6,67.18,115.74,66.93,115.85,66.68z"/>
			<path fill="#373A30" d="M115.85,66.68c-0.13,0.25-0.26,0.5-0.41,0.74C115.6,67.18,115.74,66.93,115.85,66.68z"/>
			<path opacity="0.72" fill="#505050" d="M100.56,59.71c-0.54-0.78-0.99-1.65-1.72-2.26c-0.54-0.46-1.21-0.75-1.88-1
				c-3.25-1.24-6.74-1.86-10.23-1.79c2.83-0.05,7.2,2.29,6.16,5.53c-1.08,3.37-4.66,4.92-5.18,8.78c-0.23,1.67,0.04,3.5-0.84,4.94
				c1.26-2,1.07-4.62,2.1-6.75c0.81-1.68,2.31-2.92,3.77-4.09c0.4-0.32,0.85-0.66,1.36-0.63c0.43,0.03,0.8,0.33,1.1,0.64
				c2.07,2.2,2.11,5.69,3.89,8.13c2.07,2.84,6.05,3.71,8.26,6.45c0.92,1.14,1.51,2.58,2.7,3.43c0.19,0.14,0.41,0.26,0.64,0.24
				c0.52-0.04,0.73-0.67,0.82-1.18c0.54-3.15,1.06-6.5-0.18-9.44C109.33,65.94,103.51,63.97,100.56,59.71z"/>
			<path fill="#373A30" d="M100.56,59.71c-0.54-0.78-0.99-1.65-1.72-2.26c-0.54-0.46-1.21-0.75-1.88-1
				c-3.25-1.24-6.74-1.86-10.23-1.79c2.83-0.05,7.2,2.29,6.16,5.53c-1.08,3.37-4.66,4.92-5.18,8.78c-0.23,1.67,0.04,3.5-0.84,4.94
				c1.26-2,1.07-4.62,2.1-6.75c0.81-1.68,2.31-2.92,3.77-4.09c0.4-0.32,0.85-0.66,1.36-0.63c0.43,0.03,0.8,0.33,1.1,0.64
				c2.07,2.2,2.11,5.69,3.89,8.13c2.07,2.84,6.05,3.71,8.26,6.45c0.92,1.14,1.51,2.58,2.7,3.43c0.19,0.14,0.41,0.26,0.64,0.24
				c0.52-0.04,0.73-0.67,0.82-1.18c0.54-3.15,1.06-6.5-0.18-9.44C109.33,65.94,103.51,63.97,100.56,59.71z"/>
			<g>
				<path fill="#373A30" d="M50.32,107.75c-1.89,0.08-4.06,0.87-5.51-0.35c-0.85-0.72-1.12-1.96-0.96-3.06s0.66-2.13,1.13-3.14
					c1.85-4.07,3.1-8.42,3.67-12.85c-1.02,3.51-2.2,6.96-3.53,10.36c-0.38,0.98-1.01,2.12-2.06,2.12c-0.41,0-0.79-0.18-1.16-0.36
					c-4.36-2.17-8.46-4.88-12.15-8.06c-0.95-0.82-1.92-1.73-2.31-2.92c-0.53-1.62,0.12-3.43,1.16-4.79c1.04-1.36,2.43-2.4,3.65-3.59
					c2.08-2.04,3.69-4.56,4.66-7.31c-2.86,3.64-5.71,7.29-8.57,10.93c-0.93,1.18-1.91,2.41-3.28,3.01
					c-2.13,0.93-4.58,0.12-6.74-0.74c-3.4-1.37-6.74-2.89-10.01-4.55c-0.06,0.16-0.12,0.32-0.15,0.49c-0.28,1.53,0.8,2.13,1.79,2.6
					c4.55,2.15,9.4,3.7,14.35,4.58c0.72,0.13,1.47,0.25,2.05,0.69c0.53,0.4,0.86,1,1.24,1.55c2.09,3.1,5.69,4.73,8.99,6.49
					c2.44,1.29,5.11,3.27,4.98,6.03c-0.06,1.21-0.61,2.65,0.28,3.47c0.44,0.41,1.09,0.48,1.69,0.53c1.83,0.15,3.66,0.3,5.49,0.45
					c0.82,0.07,1.66,0.14,2.42,0.44c0.96,0.38,1.74,1.08,2.64,1.58c2.61,1.44,5.75,0.92,8.78,0.96c-0.93-0.31-1.88-0.59-2.76-0.92
					C56.81,110.12,53.83,107.61,50.32,107.75z"/>
				<path opacity="0.72" fill="#505050" d="M50.32,107.75c-1.89,0.08-4.06,0.87-5.51-0.35c-0.85-0.72-1.12-1.96-0.96-3.06
					s0.66-2.13,1.13-3.14c1.85-4.07,3.1-8.42,3.67-12.85c-1.02,3.51-2.2,6.96-3.53,10.36c-0.38,0.98-1.01,2.12-2.06,2.12
					c-0.41,0-0.79-0.18-1.16-0.36c-4.36-2.17-8.46-4.88-12.15-8.06c-0.95-0.82-1.92-1.73-2.31-2.92c-0.53-1.62,0.12-3.43,1.16-4.79
					c1.04-1.36,2.43-2.4,3.65-3.59c2.08-2.04,3.69-4.56,4.66-7.31c-2.86,3.64-5.71,7.29-8.57,10.93c-0.93,1.18-1.91,2.41-3.28,3.01
					c-2.13,0.93-4.58,0.12-6.74-0.74c-3.4-1.37-6.74-2.89-10.01-4.55c-0.06,0.16-0.12,0.32-0.15,0.49c-0.28,1.53,0.8,2.13,1.79,2.6
					c4.55,2.15,9.4,3.7,14.35,4.58c0.72,0.13,1.47,0.25,2.05,0.69c0.53,0.4,0.86,1,1.24,1.55c2.09,3.1,5.69,4.73,8.99,6.49
					c2.44,1.29,5.11,3.27,4.98,6.03c-0.06,1.21-0.61,2.65,0.28,3.47c0.44,0.41,1.09,0.48,1.69,0.53c1.83,0.15,3.66,0.3,5.49,0.45
					c0.82,0.07,1.66,0.14,2.42,0.44c0.96,0.38,1.74,1.08,2.64,1.58c2.61,1.44,5.75,0.92,8.78,0.96c-0.93-0.31-1.88-0.59-2.76-0.92
					C56.81,110.12,53.83,107.61,50.32,107.75z"/>
			</g>
			<path opacity="0.72" fill="#505050" d="M98.95,110.74c0.43-2.16,0.35-4.39,0.26-6.59c-0.06-1.59-0.13-3.21-0.71-4.69
				c-0.86-2.19-2.73-3.84-3.75-5.97c-1.54-3.22-0.99-7.3-3.15-10.14c-2.77-3.65-6.35-6.9-8.33-11.03c-1.05-2.18-1.3-4.69-2.45-6.82
				c-1.24-2.31-3.41-3.95-5.51-5.51c-3.4-2.53-6.85-5.09-10.59-7.04c-0.08,0-0.16,0.02-0.25,0.01c-0.87-0.07-1.56-0.62-2.26-1.2
				c-0.59-0.25-1.18-0.49-1.79-0.7c-0.04-0.02-0.09-0.03-0.13-0.04c-0.82-0.03-1.67-0.03-2.46,0.22c-0.24,0.13-0.48,0.27-0.68,0.45
				c-0.05,0.04-0.08,0.09-0.13,0.13c-0.05,0.06-0.1,0.11-0.15,0.17c-0.22,0.28-0.38,0.62-0.49,0.95c-0.08,0.22-0.12,0.45-0.15,0.67
				c0.28,2.56,1.32,5.04,2.99,7c1.17,1.38,2.68,2.6,3.16,4.34c0.67,2.45-0.95,4.93-1.12,7.47c-0.07,1.12,0.14,2.24,0.12,3.37
				c-0.03,1.81-0.67,3.54-1.3,5.24c1.85-1.26,2.04-3.85,2.85-5.94c0.96-2.49,2.94-4.43,4.86-6.29c0.21-0.21,0.46-0.43,0.76-0.42
				c0.35,0.01,0.6,0.34,0.73,0.66c0.96,2.19-0.78,4.75-0.17,7.06c0.25,0.94,0.86,1.74,1.16,2.66c0.52,1.6,0.03,3.32-0.19,4.98
				c-0.23,1.66-0.07,3.62,1.29,4.61c1.06,0.77,2.51,0.7,3.7,1.23c1.49,0.66,2.41,2.18,2.97,3.72c0.55,1.53,0.83,3.17,1.52,4.65
				c0.47,1.01,1.12,1.92,1.63,2.9c2.63,5,1.15,11.74-3.19,15.3c0.39-0.02,0.79-0.03,1.18,0c1.56,0.11,3.03,0.7,4.54,1.1
				c3.37,0.91,8.07,0.31,11.43-0.66c-0.02,0.09-0.05,0.18-0.07,0.27c0.24-0.15,0.47-0.3,0.69-0.47
				C97.51,115.03,98.52,112.9,98.95,110.74z"/>
			<path fill="#373A30" d="M98.95,110.74c0.43-2.16,0.35-4.39,0.26-6.59c-0.06-1.59-0.13-3.21-0.71-4.69
				c-0.86-2.19-2.73-3.84-3.75-5.97c-1.54-3.22-0.99-7.3-3.15-10.14c-2.77-3.65-6.35-6.9-8.33-11.03c-1.05-2.18-1.3-4.69-2.45-6.82
				c-1.24-2.31-3.41-3.95-5.51-5.51c-3.4-2.53-6.85-5.09-10.59-7.04c-0.08,0-0.16,0.02-0.25,0.01c-0.87-0.07-1.56-0.62-2.26-1.2
				c-0.59-0.25-1.18-0.49-1.79-0.7c-0.04-0.02-0.09-0.03-0.13-0.04c-0.82-0.03-1.67-0.03-2.46,0.22c-0.24,0.13-0.48,0.27-0.68,0.45
				c-0.05,0.04-0.08,0.09-0.13,0.13c-0.05,0.06-0.1,0.11-0.15,0.17c-0.22,0.28-0.38,0.62-0.49,0.95c-0.08,0.22-0.12,0.45-0.15,0.67
				c0.28,2.56,1.32,5.04,2.99,7c1.17,1.38,2.68,2.6,3.16,4.34c0.67,2.45-0.95,4.93-1.12,7.47c-0.07,1.12,0.14,2.24,0.12,3.37
				c-0.03,1.81-0.67,3.54-1.3,5.24c1.85-1.26,2.04-3.85,2.85-5.94c0.96-2.49,2.94-4.43,4.86-6.29c0.21-0.21,0.46-0.43,0.76-0.42
				c0.35,0.01,0.6,0.34,0.73,0.66c0.96,2.19-0.78,4.75-0.17,7.06c0.25,0.94,0.86,1.74,1.16,2.66c0.52,1.6,0.03,3.32-0.19,4.98
				c-0.23,1.66-0.07,3.62,1.29,4.61c1.06,0.77,2.51,0.7,3.7,1.23c1.49,0.66,2.41,2.18,2.97,3.72c0.55,1.53,0.83,3.17,1.52,4.65
				c0.47,1.01,1.12,1.92,1.63,2.9c2.63,5,1.15,11.74-3.19,15.3c0.39-0.02,0.79-0.03,1.18,0c1.56,0.11,3.03,0.7,4.54,1.1
				c3.37,0.91,8.07,0.31,11.43-0.66c-0.02,0.09-0.05,0.18-0.07,0.27c0.24-0.15,0.47-0.3,0.69-0.47
				C97.51,115.03,98.52,112.9,98.95,110.74z"/>
			<path opacity="0.72" fill="#505050" d="M57.03,51.82c-0.05,0.06-0.1,0.11-0.15,0.17C56.93,51.93,56.98,51.87,57.03,51.82z"/>
			<path fill="#373A30" d="M57.03,51.82c-0.05,0.06-0.1,0.11-0.15,0.17C56.93,51.93,56.98,51.87,57.03,51.82z"/>
			<path fill="#373A30" d="M57.03,51.82c-0.05,0.06-0.1,0.11-0.15,0.17C56.93,51.93,56.98,51.87,57.03,51.82z"/>
			<path opacity="0.72" fill="#505050" d="M64.48,52.96c0.08,0.01,0.16-0.01,0.25-0.01c-0.82-0.43-1.65-0.82-2.5-1.19
				C62.91,52.33,63.61,52.89,64.48,52.96z"/>
			<path fill="#373A30" d="M64.48,52.96c0.08,0.01,0.16-0.01,0.25-0.01c-0.82-0.43-1.65-0.82-2.5-1.19
				C62.91,52.33,63.61,52.89,64.48,52.96z"/>
			<path fill="#373A30" d="M64.48,52.96c0.08,0.01,0.16-0.01,0.25-0.01c-0.82-0.43-1.65-0.82-2.5-1.19
				C62.91,52.33,63.61,52.89,64.48,52.96z"/>
			<path opacity="0.72" fill="#505050" d="M137.95,118.34c0.71-0.52,1.22-1.46,0.91-2.29c-0.46-1.24-2.15-1.26-3.43-1.59
				c-1.31-0.33-2.42-1.17-3.49-1.99c-1.67-1.28-3.35-2.56-5.02-3.84c-0.85-0.65-1.7-1.3-2.39-2.13c-1.1-1.33-1.67-2.99-2.37-4.57
				c-1.34-3-3.2-5.76-5.48-8.11c-0.6-0.62-1.27-1.23-2.11-1.4c-1.5-0.3-2.86,0.91-3.84,2.09c-2.38,2.87-4.23,6.19-5.4,9.74
				c1.74-2.94,3.58-5.82,5.52-8.63c0.31-0.46,0.78-0.97,1.32-0.82c0.23,0.07,0.41,0.25,0.56,0.44c1.64,2.1,0.85,5.15,1.42,7.75
				c0.5,2.27,2.03,4.14,3.37,6.04c1.34,1.9,2.57,4.1,2.32,6.41c-0.1,0.91-0.42,1.79-0.36,2.7c0.07,0.99,0.58,1.88,0.91,2.81
				c0.56,1.61,0.44,3.39-0.17,4.96c-0.08,0.21-0.17,0.4-0.27,0.58c1.63-0.22,3.3-0.49,4.68-1.39c0.73-0.48,1.34-1.11,2.06-1.61
				c0.73-0.51,1.56-0.86,2.38-1.21c1.51-0.64,3.01-1.28,4.52-1.92c0.62-0.37,1.26-0.72,1.94-0.98
				C136.37,119.08,137.24,118.86,137.95,118.34z"/>
			<path fill="#373A30" d="M137.95,118.34c0.71-0.52,1.22-1.46,0.91-2.29c-0.46-1.24-2.15-1.26-3.43-1.59
				c-1.31-0.33-2.42-1.17-3.49-1.99c-1.67-1.28-3.35-2.56-5.02-3.84c-0.85-0.65-1.7-1.3-2.39-2.13c-1.1-1.33-1.67-2.99-2.37-4.57
				c-1.34-3-3.2-5.76-5.48-8.11c-0.6-0.62-1.27-1.23-2.11-1.4c-1.5-0.3-2.86,0.91-3.84,2.09c-2.38,2.87-4.23,6.19-5.4,9.74
				c1.74-2.94,3.58-5.82,5.52-8.63c0.31-0.46,0.78-0.97,1.32-0.82c0.23,0.07,0.41,0.25,0.56,0.44c1.64,2.1,0.85,5.15,1.42,7.75
				c0.5,2.27,2.03,4.14,3.37,6.04c1.34,1.9,2.57,4.1,2.32,6.41c-0.1,0.91-0.42,1.79-0.36,2.7c0.07,0.99,0.58,1.88,0.91,2.81
				c0.56,1.61,0.44,3.39-0.17,4.96c-0.08,0.21-0.17,0.4-0.27,0.58c1.63-0.22,3.3-0.49,4.68-1.39c0.73-0.48,1.34-1.11,2.06-1.61
				c0.73-0.51,1.56-0.86,2.38-1.21c1.51-0.64,3.01-1.28,4.52-1.92c0.62-0.37,1.26-0.72,1.94-0.98
				C136.37,119.08,137.24,118.86,137.95,118.34z"/>
			<path opacity="0.72" fill="#505050" d="M172.35,95.54c0.17,0.03,0.35-0.22,0.21-0.32c-0.27-0.21-0.56-0.38-0.86-0.52
				c0.09,0.16,0.19,0.33,0.28,0.49C172.06,95.34,172.17,95.51,172.35,95.54z"/>
			<path fill="#373A30" d="M172.35,95.54c0.17,0.03,0.35-0.22,0.21-0.32c-0.27-0.21-0.56-0.38-0.86-0.52
				c0.09,0.16,0.19,0.33,0.28,0.49C172.06,95.34,172.17,95.51,172.35,95.54z"/>
			<path opacity="0.72" fill="#505050" d="M162.37,137.04c-0.62-8.84,2.81-17.77,1.16-26.48c1.26,5,2.52,10.01,3.78,15.01
				c1.19-6.56-3.47-13.19-2.1-19.72c0.55-2.64,2.06-5.05,2.26-7.73c0.12,4.35,1.99,8.63,5.11,11.66c-1.18-3.06-2.17-6.2-2.96-9.38
				c-0.13-0.54-0.26-1.12-0.05-1.63c0.28-0.69,1.09-1.02,1.84-1.06c3.9-0.22,6.18,4.96,10.05,5.51c-2.56-3.58-5.11-7.17-7.67-10.75
				c-1.27-1.78-2.55-4.27-1.17-5.98c3.38,0.58,6.5,2.53,8.49,5.32c0.92,1.28,1.62,2.74,2.73,3.86c1.15,1.15,2.66,1.86,4.14,2.54
				c4.47,2.07,9.76,4.13,14.1,1.8c2.55-1.37,4.07-3.93,4.89-6.76c0,0.01-0.01,0.03-0.02,0.04c-2.14-2.53-4.29-5.07-6.43-7.6
				c-0.75-0.89-1.51-1.79-2.41-2.54c-2.49-2.09-5.83-2.89-8.51-4.74c-2.59-1.78-4.43-4.43-6.58-6.73c-3.04-3.25-6.76-5.85-9.47-9.38
				c-2.26-2.95-3.73-6.45-6.09-9.3c-0.35-0.42-0.81-0.86-1.35-0.78c0.04,0.17,0.08,0.34,0.13,0.51c0.4,1.42,1,2.81,1.06,4.28
				c0.09,2.09-0.91,4.07-1.21,6.15c-0.35,2.39,0.28,4.92,1.72,6.87c1.69,2.29,4.55,4.13,4.58,6.98c0.02,1.43-0.73,2.74-1.46,3.98
				c-0.64,1.08-1.27,2.16-1.91,3.24c-0.35,0.59-0.71,1.19-1.22,1.65c-1,0.87-2.41,1.05-3.71,1.29c-2.38,0.44-4.72,1.23-6.71,2.59
				c0.1,0.71,1.12,0.73,1.82,0.56c1.8-0.45,3.6-0.91,5.4-1.36c1.19-0.3,2.55-0.57,3.56,0.12c0.55,0.37,0.89,0.97,1.22,1.54
				c0.78,1.37,1.55,2.73,2.33,4.1c0.3,0.14,0.59,0.31,0.86,0.52c0.14,0.11-0.04,0.35-0.21,0.32c-0.17-0.03-0.28-0.2-0.37-0.35
				c-0.09-0.16-0.19-0.33-0.28-0.49c-2.11-0.98-4.9-0.5-7.09-1.45c0.97,3.7,0.5,7.76-1.29,11.14c-1.12,2.13-2.75,4.02-3.39,6.34
				c-0.83,3,0.08,6.45-1.47,9.16c-0.92,1.62-2.56,2.67-4.08,3.74c-6.32,4.45-11.6,10.38-15.29,17.17
				c5.93-6.48,12.42-12.45,19.39-17.8c1.24,1.97,0.3,4.69-1.36,6.33c-1.66,1.64-3.88,2.55-5.87,3.78c-3.14,1.94-5.81,4.87-6.79,8.43
				c-0.77,2.8-0.46,5.78-0.14,8.66c0.49,4.46,0.98,8.92,1.48,13.39c0.09,0.85,0.19,1.73,0.02,2.57c-0.22,1.11-0.88,2.08-1.52,3.02
				c-2.48,3.61-4.96,7.23-7.44,10.84c3.44-4.14,6.87-8.29,10.31-12.43c0.38-0.46,0.85-0.97,1.45-0.97c0.43,0,0.81,0.27,1.12,0.57
				c2.86,2.73,1.7,7.45,0.33,11.16c-1.92,5.19-3.84,10.39-5.76,15.58c2.47-4.38,4.93-8.76,7.4-13.15c0.47-0.83,1.21-1.8,2.14-1.59
				c0.33,0.07,0.6,0.29,0.87,0.49c3.75,2.94,7.5,5.88,11.25,8.83c1.72,1.35,3.65,3.35,2.87,5.4c-1.07,2.81-6.12,2.47-6.81,5.39
				c-0.25,1.08,0.24,2.28-0.19,3.29c-0.55,1.27-2.18,1.56-3.56,1.68c-3.07,0.26-6.99,0.03-8.09-2.85c-0.5-1.31-0.2-2.78,0.12-4.15
				c0.76-3.36,1.53-6.72,2.29-10.08c-1.74,2.3-2.19,5.28-3.1,8.01c-0.91,2.73-2.67,5.57-5.49,6.14c-0.88,0.18-1.84,0.13-2.61,0.61
				c-0.6,0.37-0.99,1.02-1.56,1.45c-1.12,0.84-2.71,0.3-3.58-0.74c0.14,0.98,1.01,1.75,1.97,2c0.98,0.26,2.02,0.08,2.99-0.22
				c1.63-0.51,3.19-1.35,4.9-1.4c2.4-0.07,4.52,1.41,6.73,2.35c2.91,1.24,6.21,1.55,9.3,0.88c0.86-0.19,1.8-0.53,2.16-1.33
				c0.61-1.38-0.95-3-0.39-4.39c0.26-0.66,0.93-1.05,1.54-1.4c1.44-0.81,2.88-1.62,4.32-2.42c1.65-0.93,3.54-2.3,3.31-4.18
				c-0.11-0.87-0.69-1.64-0.76-2.52c-0.04-0.49,0.08-0.97,0.14-1.46c0.39-3.06-1.44-5.91-3.15-8.48c-1.71-2.57-3.55-5.48-3.05-8.53
				c0.77-4.67,1.05-9.42,0.88-14.15c-0.85-3.12-1.69-6.24-2.54-9.36C163.62,144.43,162.64,140.78,162.37,137.04z"/>
			<path fill="#373A30" d="M162.37,137.04c-0.62-8.84,2.81-17.77,1.16-26.48c1.26,5,2.52,10.01,3.78,15.01
				c1.19-6.56-3.47-13.19-2.1-19.72c0.55-2.64,2.06-5.05,2.26-7.73c0.12,4.35,1.99,8.63,5.11,11.66c-1.18-3.06-2.17-6.2-2.96-9.38
				c-0.13-0.54-0.26-1.12-0.05-1.63c0.28-0.69,1.09-1.02,1.84-1.06c3.9-0.22,6.18,4.96,10.05,5.51c-2.56-3.58-5.11-7.17-7.67-10.75
				c-1.27-1.78-2.55-4.27-1.17-5.98c3.38,0.58,6.5,2.53,8.49,5.32c0.92,1.28,1.62,2.74,2.73,3.86c1.15,1.15,2.66,1.86,4.14,2.54
				c4.47,2.07,9.76,4.13,14.1,1.8c2.55-1.37,4.07-3.93,4.89-6.76c0,0.01-0.01,0.03-0.02,0.04c-2.14-2.53-4.29-5.07-6.43-7.6
				c-0.75-0.89-1.51-1.79-2.41-2.54c-2.49-2.09-5.83-2.89-8.51-4.74c-2.59-1.78-4.43-4.43-6.58-6.73c-3.04-3.25-6.76-5.85-9.47-9.38
				c-2.26-2.95-3.73-6.45-6.09-9.3c-0.35-0.42-0.81-0.86-1.35-0.78c0.04,0.17,0.08,0.34,0.13,0.51c0.4,1.42,1,2.81,1.06,4.28
				c0.09,2.09-0.91,4.07-1.21,6.15c-0.35,2.39,0.28,4.92,1.72,6.87c1.69,2.29,4.55,4.13,4.58,6.98c0.02,1.43-0.73,2.74-1.46,3.98
				c-0.64,1.08-1.27,2.16-1.91,3.24c-0.35,0.59-0.71,1.19-1.22,1.65c-1,0.87-2.41,1.05-3.71,1.29c-2.38,0.44-4.72,1.23-6.71,2.59
				c0.1,0.71,1.12,0.73,1.82,0.56c1.8-0.45,3.6-0.91,5.4-1.36c1.19-0.3,2.55-0.57,3.56,0.12c0.55,0.37,0.89,0.97,1.22,1.54
				c0.78,1.37,1.55,2.73,2.33,4.1c0.3,0.14,0.59,0.31,0.86,0.52c0.14,0.11-0.04,0.35-0.21,0.32c-0.17-0.03-0.28-0.2-0.37-0.35
				c-0.09-0.16-0.19-0.33-0.28-0.49c-2.11-0.98-4.9-0.5-7.09-1.45c0.97,3.7,0.5,7.76-1.29,11.14c-1.12,2.13-2.75,4.02-3.39,6.34
				c-0.83,3,0.08,6.45-1.47,9.16c-0.92,1.62-2.56,2.67-4.08,3.74c-6.32,4.45-11.6,10.38-15.29,17.17
				c5.93-6.48,12.42-12.45,19.39-17.8c1.24,1.97,0.3,4.69-1.36,6.33c-1.66,1.64-3.88,2.55-5.87,3.78c-3.14,1.94-5.81,4.87-6.79,8.43
				c-0.77,2.8-0.46,5.78-0.14,8.66c0.49,4.46,0.98,8.92,1.48,13.39c0.09,0.85,0.19,1.73,0.02,2.57c-0.22,1.11-0.88,2.08-1.52,3.02
				c-2.48,3.61-4.96,7.23-7.44,10.84c3.44-4.14,6.87-8.29,10.31-12.43c0.38-0.46,0.85-0.97,1.45-0.97c0.43,0,0.81,0.27,1.12,0.57
				c2.86,2.73,1.7,7.45,0.33,11.16c-1.92,5.19-3.84,10.39-5.76,15.58c2.47-4.38,4.93-8.76,7.4-13.15c0.47-0.83,1.21-1.8,2.14-1.59
				c0.33,0.07,0.6,0.29,0.87,0.49c3.75,2.94,7.5,5.88,11.25,8.83c1.72,1.35,3.65,3.35,2.87,5.4c-1.07,2.81-6.12,2.47-6.81,5.39
				c-0.25,1.08,0.24,2.28-0.19,3.29c-0.55,1.27-2.18,1.56-3.56,1.68c-3.07,0.26-6.99,0.03-8.09-2.85c-0.5-1.31-0.2-2.78,0.12-4.15
				c0.76-3.36,1.53-6.72,2.29-10.08c-1.74,2.3-2.19,5.28-3.1,8.01c-0.91,2.73-2.67,5.57-5.49,6.14c-0.88,0.18-1.84,0.13-2.61,0.61
				c-0.6,0.37-0.99,1.02-1.56,1.45c-1.12,0.84-2.71,0.3-3.58-0.74c0.14,0.98,1.01,1.75,1.97,2c0.98,0.26,2.02,0.08,2.99-0.22
				c1.63-0.51,3.19-1.35,4.9-1.4c2.4-0.07,4.52,1.41,6.73,2.35c2.91,1.24,6.21,1.55,9.3,0.88c0.86-0.19,1.8-0.53,2.16-1.33
				c0.61-1.38-0.95-3-0.39-4.39c0.26-0.66,0.93-1.05,1.54-1.4c1.44-0.81,2.88-1.62,4.32-2.42c1.65-0.93,3.54-2.3,3.31-4.18
				c-0.11-0.87-0.69-1.64-0.76-2.52c-0.04-0.49,0.08-0.97,0.14-1.46c0.39-3.06-1.44-5.91-3.15-8.48c-1.71-2.57-3.55-5.48-3.05-8.53
				c0.77-4.67,1.05-9.42,0.88-14.15c-0.85-3.12-1.69-6.24-2.54-9.36C163.62,144.43,162.64,140.78,162.37,137.04z"/>
			<path fill="#373A30" d="M239.42,219.07c-0.22,0.6-0.62,1.11-1.12,1.52c1.72,1.37,3.99,2.06,6.15,1.6
				c-0.97-2.63-1.94-5.4-2.3-8.16c-0.43-0.22-0.86-0.44-1.3-0.66C239.34,214.67,240.12,217.18,239.42,219.07z"/>
			<path opacity="0.72" fill="#505050" d="M268.47,219.05c1.3-1.59,2.3-3.41,2.95-5.36c2.34-7.04-0.15-14.86,1.45-22.1
				c0.28-1.26,0.68-2.49,0.96-3.75c0.47-2.04,0.63-4.14,0.73-6.24c0.09-1.88,0.13-3.76,0.14-5.64c0.01-1.99-0.16-4.39-1.86-5.48
				c-0.93-0.59-2.1-0.63-3.1-1.07c-1.06-0.46-1.96-1.81-1.15-2.74c0.28-0.32,0.46-0.97,0.44-1.39c-0.3-6.76-4.54-12.65-8.61-18.07
				c-2.31-3.08-4.63-6.17-7.35-8.88c-1.99-1.99-4.27-3.87-5.27-6.5c-0.98-2.56-0.6-5.5-1.63-8.04c-0.64-1.59-1.79-2.92-2.92-4.21
				c-4.72-5.41-9.59-10.95-15.93-14.32c-1.65-0.88-3.39-1.6-4.95-2.63c-3.18-2.1-5.41-5.36-7.26-8.69
				c-0.52-0.93-1.04-1.91-1.91-2.51c-0.77-0.54-1.99-0.62-3.14-0.38c-0.11,0.51-0.23,1.01-0.37,1.49c-0.95,3.11-1.51,6.38-1.03,9.62
				c0.41,2.77,1.55,5.38,2.25,8.09c1.38,5.39,0.98,11.06,0.56,16.62c-0.11,1.44-0.24,2.96-1.03,4.17c-1.34,2.05-4.18,2.58-6.58,2.13
				s-4.58-1.68-6.91-2.45c-4.37-1.44-9.27-1.2-13.47,0.66c2.69,1.86,1.66,6,0.35,9c-1.31,3-2.33,7.14,0.36,9
				c1.67,1.15,3.9,0.7,5.92,0.74c3.61,0.09,7.13,2.06,9.09,5.09c3.23,5.01,2.67,12.72,7.89,15.59c1.28,0.7,2.75,0.98,4.11,1.53
				c8.26,3.37,9.16,14.88,15.37,21.29c0.97,1,2.08,1.89,2.74,3.12c1.22,2.26,0.61,5.1,1.49,7.51c0.98,2.7,3.7,4.55,4.4,7.34
				c0.36,1.43,0.13,2.95,0.35,4.41c0.26,1.83,1.32,3.46,2.77,4.61c0.49-0.41,0.89-0.91,1.12-1.52c0.7-1.89-0.08-4.4,1.44-5.71
				c0.43,0.22,0.86,0.44,1.3,0.66c-0.25-1.88-0.21-3.77,0.31-5.61c0.62-2.2,1.89-4.16,2.69-6.31c0.94-2.53,1.19-5.26,1.43-7.95
				c0.28-3.07,0.56-6.15,0.84-9.22c0.04-0.48,0.08-0.99-0.14-1.42c-0.22-0.44-0.67-0.71-1.12-0.93c-3-1.46-6.55-1.32-9.67-2.51
				c-3.37-1.29-5.96-4-8.93-6.05c-5.17-3.58-11.71-5.14-17.94-4.28c4.9-2.17,6.23-8.54,10.12-12.22c1.64-1.55,3.69-2.57,5.53-3.88
				c3.94-2.82,6.77-6.88,9.52-10.87c7.7,6.38,6.02,19.94,13.99,25.97c1.94,1.47,4.31,2.34,6.12,3.97c3.2,2.87,4.05,7.49,6.28,11.17
				c1.88,3.11,4.85,5.76,5.37,9.36c0.55,3.8-1.85,7.66-0.97,11.4c0.61,2.56,2.69,4.68,2.86,7.3c0.15,2.36-1.29,4.52-1.58,6.86
				c-0.05,0.43-0.03,0.88,0.06,1.32c0.13-0.02,0.26-0.05,0.38-0.1C267.79,219.84,268.15,219.44,268.47,219.05z"/>
			<path fill="#373A30" d="M268.47,219.05c1.3-1.59,2.3-3.41,2.95-5.36c2.34-7.04-0.15-14.86,1.45-22.1
				c0.28-1.26,0.68-2.49,0.96-3.75c0.47-2.04,0.63-4.14,0.73-6.24c0.09-1.88,0.13-3.76,0.14-5.64c0.01-1.99-0.16-4.39-1.86-5.48
				c-0.93-0.59-2.1-0.63-3.1-1.07c-1.06-0.46-1.96-1.81-1.15-2.74c0.28-0.32,0.46-0.97,0.44-1.39c-0.3-6.76-4.54-12.65-8.61-18.07
				c-2.31-3.08-4.63-6.17-7.35-8.88c-1.99-1.99-4.27-3.87-5.27-6.5c-0.98-2.56-0.6-5.5-1.63-8.04c-0.64-1.59-1.79-2.92-2.92-4.21
				c-4.72-5.41-9.59-10.95-15.93-14.32c-1.65-0.88-3.39-1.6-4.95-2.63c-3.18-2.1-5.41-5.36-7.26-8.69
				c-0.52-0.93-1.04-1.91-1.91-2.51c-0.77-0.54-1.99-0.62-3.14-0.38c-0.11,0.51-0.23,1.01-0.37,1.49c-0.95,3.11-1.51,6.38-1.03,9.62
				c0.41,2.77,1.55,5.38,2.25,8.09c1.38,5.39,0.98,11.06,0.56,16.62c-0.11,1.44-0.24,2.96-1.03,4.17c-1.34,2.05-4.18,2.58-6.58,2.13
				s-4.58-1.68-6.91-2.45c-4.37-1.44-9.27-1.2-13.47,0.66c2.69,1.86,1.66,6,0.35,9c-1.31,3-2.33,7.14,0.36,9
				c1.67,1.15,3.9,0.7,5.92,0.74c3.61,0.09,7.13,2.06,9.09,5.09c3.23,5.01,2.67,12.72,7.89,15.59c1.28,0.7,2.75,0.98,4.11,1.53
				c8.26,3.37,9.16,14.88,15.37,21.29c0.97,1,2.08,1.89,2.74,3.12c1.22,2.26,0.61,5.1,1.49,7.51c0.98,2.7,3.7,4.55,4.4,7.34
				c0.36,1.43,0.13,2.95,0.35,4.41c0.26,1.83,1.32,3.46,2.77,4.61c0.49-0.41,0.89-0.91,1.12-1.52c0.7-1.89-0.08-4.4,1.44-5.71
				c0.43,0.22,0.86,0.44,1.3,0.66c-0.25-1.88-0.21-3.77,0.31-5.61c0.62-2.2,1.89-4.16,2.69-6.31c0.94-2.53,1.19-5.26,1.43-7.95
				c0.28-3.07,0.56-6.15,0.84-9.22c0.04-0.48,0.08-0.99-0.14-1.42c-0.22-0.44-0.67-0.71-1.12-0.93c-3-1.46-6.55-1.32-9.67-2.51
				c-3.37-1.29-5.96-4-8.93-6.05c-5.17-3.58-11.71-5.14-17.94-4.28c4.9-2.17,6.23-8.54,10.12-12.22c1.64-1.55,3.69-2.57,5.53-3.88
				c3.94-2.82,6.77-6.88,9.52-10.87c7.7,6.38,6.02,19.94,13.99,25.97c1.94,1.47,4.31,2.34,6.12,3.97c3.2,2.87,4.05,7.49,6.28,11.17
				c1.88,3.11,4.85,5.76,5.37,9.36c0.55,3.8-1.85,7.66-0.97,11.4c0.61,2.56,2.69,4.68,2.86,7.3c0.15,2.36-1.29,4.52-1.58,6.86
				c-0.05,0.43-0.03,0.88,0.06,1.32c0.13-0.02,0.26-0.05,0.38-0.1C267.79,219.84,268.15,219.44,268.47,219.05z"/>
		</g>
		<g>
			<path fill="#6F725A" d="M169.17,142.88c0.81-3.15,4.09-4.84,6.57-6.94c1.98-1.68,3.58-3.81,4.64-6.18
				c-0.37,2.97-1.8,5.8-3.98,7.86c-2.16,2.04-5.24,3.75-5.47,6.71c-0.08,1.09,0.27,2.15,0.37,3.24c0.34,3.57-1.96,7.22-0.8,10.62
				c0.46,1.34,1.41,2.45,2.35,3.52c2.28,2.62,4.57,5.24,6.85,7.86c0.56-1.27,1.12-2.54,1.67-3.81c-1.35,3.86-0.66,8.43,1.89,11.65
				c0.65,0.82,1.41,1.57,1.83,2.53c0.69,1.59,0.3,3.42,0.39,5.16c0.15,3.09,1.85,5.95,4.06,8.11c2.22,2.16,4.93,3.73,7.61,5.28
				c0.43,0.25,0.93,0.5,1.39,0.31c0.33-0.14,0.53-0.48,0.69-0.81c2.77-5.52,2.78-11.98,4.15-18c0.02,0.28,0.04,0.57,0.06,0.85
				c0.04,0.56,0.1,1.14,0.15,1.73c-0.12,1.23-0.22,2.47-0.28,3.71c-0.02,0.49-0.06,0.97-0.11,1.46c-0.07,0.3-0.14,0.59-0.22,0.89
				c-0.04,0.15,0,0.29,0.08,0.4c-0.11,0.93-0.25,1.87-0.36,2.8c-0.06,0.22-0.14,0.44-0.19,0.66c-0.6,2.52-0.37,5.15-0.12,7.72
				c0.37,3.82,0.87,7.83,3.09,10.96c2.33,3.29,6.25,5.12,10.17,6.1s7.98,1.24,11.91,2.19c2.32,0.56,4.57,1.36,6.73,2.37
				c0.62,0.01,1.23-0.03,1.83-0.16c0.79-0.17,1.57-0.53,2.19-1.05c-1.44-1.15-2.5-2.77-2.77-4.61c-0.21-1.46,0.01-2.98-0.35-4.41
				c-0.7-2.78-3.42-4.64-4.4-7.34c-0.88-2.41-0.27-5.25-1.49-7.51c-0.66-1.22-1.78-2.12-2.74-3.12
				c-6.21-6.41-7.11-17.92-15.37-21.29c-1.36-0.55-2.83-0.83-4.11-1.53c-5.22-2.86-4.66-10.58-7.89-15.59
				c-1.96-3.04-5.47-5.01-9.09-5.09c-2.02-0.05-4.25,0.41-5.92-0.74c-2.69-1.86-1.67-6-0.36-9c1.31-3,2.34-7.14-0.35-9
				c4.2-1.87,9.11-2.11,13.47-0.66c2.32,0.77,4.5,1.99,6.91,2.45s5.24-0.08,6.58-2.13c0.79-1.21,0.92-2.72,1.03-4.17
				c0.42-5.55,0.83-11.22-0.56-16.62c-0.7-2.71-1.84-5.32-2.25-8.09c-0.48-3.24,0.08-6.52,1.03-9.62c0.15-0.48,0.26-0.98,0.37-1.49
				c-1.42,0.3-2.76,1.1-3.09,2.21c-0.82,2.84-2.34,5.4-4.89,6.76c-4.34,2.32-9.63,0.26-14.1-1.8c-1.48-0.68-2.99-1.39-4.14-2.54
				c-1.11-1.12-1.81-2.57-2.73-3.86c-1.99-2.79-5.11-4.74-8.49-5.32c-1.38,1.7-0.1,4.19,1.17,5.98c2.56,3.58,5.12,7.17,7.67,10.75
				c-3.87-0.56-6.15-5.74-10.05-5.51c-0.75,0.04-1.55,0.37-1.84,1.06c-0.21,0.51-0.09,1.09,0.05,1.63c0.79,3.18,1.78,6.32,2.96,9.38
				c-3.12-3.04-4.99-7.31-5.11-11.66c-0.19,2.69-1.7,5.1-2.26,7.73c-1.37,6.53,3.29,13.16,2.1,19.72c-1.26-5-2.52-10.01-3.78-15.01
				c1.65,8.71-1.78,17.64-1.16,26.48c0.26,3.74,1.25,7.39,2.23,11.01c0.85,3.12,1.69,6.24,2.54,9.36c-0.02-0.59-0.02-1.18-0.05-1.76
				c0.11,0.09,0.2,0.19,0.3,0.29c0.44-2.3,1.63-4.46,1.8-6.8C169.33,147.05,168.65,144.91,169.17,142.88z"/>
			<path opacity="0.72" fill="#505050" d="M168.98,160.57c1.99,8.73,13.43,13.14,14.6,22.03c0.29,2.23-0.12,4.53,0.36,6.73
				c0.75,3.38,3.49,5.93,6.32,7.92c2.83,1.98,5.96,3.68,8.16,6.35c2.49,3.01,3.61,7.03,6.4,9.77c2.46,2.41,5.89,3.52,9.2,4.45
				c5.94,1.68,11.98,2.96,18.09,3.8c0.72,0.1,1.44,0.17,2.16,0.18c-2.16-1.01-4.41-1.81-6.73-2.37c-3.93-0.94-7.99-1.21-11.91-2.19
				s-7.83-2.8-10.17-6.1c-2.22-3.13-2.71-7.14-3.09-10.96c-0.25-2.57-0.48-5.2,0.12-7.72c0.05-0.22,0.13-0.44,0.19-0.66
				c0.12-0.93,0.25-1.87,0.36-2.8c-0.08-0.11-0.12-0.24-0.08-0.4c0.08-0.29,0.15-0.59,0.22-0.89c0.05-0.49,0.08-0.97,0.11-1.46
				c0.06-1.24,0.16-2.47,0.28-3.71c-0.05-0.59-0.11-1.17-0.15-1.73c-0.02-0.28-0.04-0.57-0.06-0.85c-1.37,6.03-1.38,12.48-4.15,18
				c-0.16,0.32-0.36,0.67-0.69,0.81c-0.45,0.19-0.96-0.06-1.39-0.31c-2.68-1.55-5.39-3.11-7.61-5.28c-2.22-2.16-3.92-5.01-4.06-8.11
				c-0.08-1.74,0.31-3.56-0.39-5.16c-0.42-0.96-1.18-1.71-1.83-2.53c-2.55-3.22-3.24-7.79-1.89-11.65
				c-0.56,1.27-1.12,2.54-1.67,3.81c-2.28-2.62-4.57-5.24-6.85-7.86c-0.93-1.07-1.89-2.18-2.35-3.52c-1.16-3.39,1.14-7.05,0.8-10.62
				c-0.1-1.08-0.45-2.15-0.37-3.24c0.22-2.96,3.31-4.67,5.47-6.71c2.18-2.06,3.61-4.89,3.98-7.86c-1.06,2.37-2.66,4.51-4.64,6.18
				c-2.48,2.1-5.76,3.79-6.57,6.94c-0.52,2.03,0.16,4.17,0.02,6.26c-0.17,2.34-1.36,4.5-1.8,6.8
				C168.49,157.11,168.61,158.96,168.98,160.57z"/>
			<path fill="#373A30" d="M168.98,160.57c1.99,8.73,13.43,13.14,14.6,22.03c0.29,2.23-0.12,4.53,0.36,6.73
				c0.75,3.38,3.49,5.93,6.32,7.92c2.83,1.98,5.96,3.68,8.16,6.35c2.49,3.01,3.61,7.03,6.4,9.77c2.46,2.41,5.89,3.52,9.2,4.45
				c5.94,1.68,11.98,2.96,18.09,3.8c0.72,0.1,1.44,0.17,2.16,0.18c-2.16-1.01-4.41-1.81-6.73-2.37c-3.93-0.94-7.99-1.21-11.91-2.19
				s-7.83-2.8-10.17-6.1c-2.22-3.13-2.71-7.14-3.09-10.96c-0.25-2.57-0.48-5.2,0.12-7.72c0.05-0.22,0.13-0.44,0.19-0.66
				c0.12-0.93,0.25-1.87,0.36-2.8c-0.08-0.11-0.12-0.24-0.08-0.4c0.08-0.29,0.15-0.59,0.22-0.89c0.05-0.49,0.08-0.97,0.11-1.46
				c0.06-1.24,0.16-2.47,0.28-3.71c-0.05-0.59-0.11-1.17-0.15-1.73c-0.02-0.28-0.04-0.57-0.06-0.85c-1.37,6.03-1.38,12.48-4.15,18
				c-0.16,0.32-0.36,0.67-0.69,0.81c-0.45,0.19-0.96-0.06-1.39-0.31c-2.68-1.55-5.39-3.11-7.61-5.28c-2.22-2.16-3.92-5.01-4.06-8.11
				c-0.08-1.74,0.31-3.56-0.39-5.16c-0.42-0.96-1.18-1.71-1.83-2.53c-2.55-3.22-3.24-7.79-1.89-11.65
				c-0.56,1.27-1.12,2.54-1.67,3.81c-2.28-2.62-4.57-5.24-6.85-7.86c-0.93-1.07-1.89-2.18-2.35-3.52c-1.16-3.39,1.14-7.05,0.8-10.62
				c-0.1-1.08-0.45-2.15-0.37-3.24c0.22-2.96,3.31-4.67,5.47-6.71c2.18-2.06,3.61-4.89,3.98-7.86c-1.06,2.37-2.66,4.51-4.64,6.18
				c-2.48,2.1-5.76,3.79-6.57,6.94c-0.52,2.03,0.16,4.17,0.02,6.26c-0.17,2.34-1.36,4.5-1.8,6.8
				C168.49,157.11,168.61,158.96,168.98,160.57z"/>
		</g>
		<g>
			<path fill="#6F725A" d="M81.19,100.85c-0.52-0.98-1.16-1.89-1.63-2.9c-0.69-1.48-0.96-3.11-1.52-4.65
				c-0.55-1.53-1.48-3.06-2.97-3.72c-1.2-0.53-2.65-0.46-3.7-1.23c-1.36-0.99-1.52-2.95-1.29-4.61c0.23-1.66,0.71-3.38,0.19-4.98
				c-0.3-0.92-0.92-1.73-1.16-2.66c-0.61-2.31,1.13-4.87,0.17-7.06c-0.14-0.32-0.39-0.65-0.73-0.66c-0.3-0.01-0.55,0.21-0.76,0.42
				c-1.92,1.86-3.9,3.8-4.86,6.29c-0.81,2.09-1,4.68-2.85,5.94c0.63-1.69,1.27-3.43,1.3-5.24c0.02-1.12-0.19-2.24-0.12-3.37
				c0.17-2.54,1.79-5.01,1.12-7.47c-0.48-1.75-1.99-2.97-3.16-4.34c-1.67-1.96-2.71-4.44-2.99-7c0.03-0.22,0.07-0.44,0.15-0.67
				c0.11-0.33,0.28-0.66,0.49-0.95c-0.37,0.43-0.72,0.89-1.03,1.33c-1.48,2.09-3.19,4.06-5.31,5.48c-2.13,1.42-4.72,2.26-7.26,1.93
				c3.4-2.96,6.39-6.4,8.86-10.17c0.68-1.04,1.39-2.16,2.52-2.68c0.8-0.36,1.7-0.37,2.56-0.51c1.48-0.24,2.89-0.89,4.03-1.85
				c0.57-0.48,0.71-1.25,0.42-1.93c-0.51-1.21-0.23-2.84-0.52-4.22c-0.76-3.61-5.24-4.88-7.69-7.64c-1.55-1.75-2.24-4.09-2.76-6.37
				c-0.6-2.62-1.21-4.62-2.33-6.5c-0.79,0.09-1.57,0.29-2.27,0.67c-0.84,0.45-1.54,1.1-2.29,1.69c-3.05,2.4-6.81,3.72-10.01,5.91
				c-3.98,2.72-7.07,6.77-11.47,8.74c-0.8,0.36-1.63,0.64-2.48,0.88c-3.12,1.31-6.63,1.86-9.26,3.98c-1.56,1.26-2.74,3.05-4.56,3.91
				c-0.97,0.46-2.07,0.62-2.98,1.19s-1.59,1.77-1.06,2.7c0.4,0.71,1.3,0.94,2.1,1.1l13.19,2.64c0.69,0.14,1.4,0.23,2.1,0.2
				c4.35-0.23,4.52-4.15,5.88-7.05c1.82-3.88,6.14-6.38,7.22-10.53c-1.22,5-6.31,8.29-7.73,13.24c-0.47,1.65-0.58,3.55-1.82,4.73
				c-0.55,0.52-1.31,0.88-1.62,1.58c-0.33,0.72-0.04,1.61,0.5,2.19c0.54,0.58,1.28,0.93,2,1.26c1.96,0.89,3.99,1.72,6.13,1.91
				c2.14,0.2,4.44-0.32,5.99-1.82c1.64-1.6,2.17-3.98,2.94-6.14c1.05-2.93,2.67-5.65,4.76-7.96c-2.12,4.17-4.08,8.42-5.87,12.74
				c-0.38,0.91-0.61,1.89-0.58,2.87c0.01,0.25,0.06,0.5,0.19,0.71c0.22,0.34,0.62,0.51,1,0.65c1.6,0.63,3.2,1.25,4.81,1.88
				c-0.14,0.03-0.28,0.07-0.42,0.1c0.54,0.14,1.08,0.26,1.61,0.42c-12.58,3.93-24.5,10-35.08,17.87c-0.45,0.33-0.82,0.78-1.03,1.29
				c3.27,1.67,6.61,3.19,10.01,4.55c2.16,0.87,4.61,1.67,6.74,0.74c1.37-0.6,2.36-1.83,3.28-3.01c2.86-3.64,5.71-7.29,8.57-10.93
				c-0.97,2.75-2.58,5.27-4.66,7.31c-1.22,1.19-2.61,2.23-3.65,3.59c-1.04,1.36-1.69,3.16-1.16,4.79c0.39,1.2,1.36,2.1,2.31,2.92
				c3.69,3.18,7.78,5.89,12.15,8.06c0.37,0.18,0.75,0.36,1.16,0.36c1.05-0.01,1.68-1.14,2.06-2.12c1.34-3.4,2.52-6.85,3.53-10.36
				c-0.57,4.44-1.82,8.78-3.67,12.85c-0.46,1.02-0.97,2.04-1.13,3.14s0.1,2.34,0.96,3.06c1.45,1.22,3.62,0.43,5.51,0.35
				c3.51-0.14,6.49,2.37,9.77,3.61c0.88,0.33,1.83,0.61,2.76,0.92c1.34,0.02,2.65,0.14,3.89,0.58c2.44,0.88,4.4,2.95,6.95,3.4
				c1.42,0.25,2.88-0.04,4.32-0.12C82.34,112.58,83.82,105.85,81.19,100.85z"/>
			<path fill="#6F725A" d="M38.4,60.86c-0.38-0.15-0.78-0.31-1-0.65c-0.2-0.3-0.21-0.69-0.19-1.05c0.09-1.37,0.62-2.66,1.15-3.92
				c1.63-3.84,3.39-7.63,5.28-11.34c-2.09,2.31-3.71,5.03-4.76,7.96c-0.77,2.16-1.3,4.54-2.94,6.14c-1.54,1.5-3.84,2.01-5.99,1.82
				c-2.14-0.2-4.17-1.03-6.13-1.91c-0.72-0.33-1.46-0.68-2-1.26c-0.54-0.58-0.83-1.47-0.5-2.19c0.31-0.69,1.07-1.05,1.62-1.58
				c1.24-1.18,1.35-3.08,1.82-4.73c1.42-4.95,6.51-8.24,7.73-13.24c-1.07,4.15-5.4,6.64-7.22,10.53c-1.05,2.24-1.39,5.1-3.51,6.38
				c-1.61,0.97-3.65,0.63-5.49,0.27c-4.06-0.81-8.12-1.62-12.18-2.44c-0.8-0.16-1.7-0.39-2.1-1.1c-0.53-0.93,0.15-2.14,1.06-2.7
				s2.01-0.73,2.98-1.19c1.82-0.86,3-2.64,4.56-3.91c2.63-2.12,6.14-2.67,9.26-3.98c-3.02,0.88-6.23,1.26-8.96,2.8
				c-1.97,1.11-3.56,2.75-5.37,4.11c-1.35,1.02-2.91,1.9-4.56,2.17c-0.83,0.14-1.24,1.12-0.79,1.84c0.99,1.56,2.45,2.69,4.34,3.06
				c3.58,0.69,7.15,1.38,10.73,2.07c1.21,0.23,2.46,0.48,3.45,1.22c1.09,0.81,1.71,2.1,2.51,3.2c1.76,2.44,4.56,4.11,7.54,4.48
				c1.52,0.19,3.07,0.06,4.61,0.03c3.18-0.06,6.35,0.33,9.43,1.12c0.14-0.03,0.28-0.07,0.42-0.1C41.61,62.12,40.01,61.49,38.4,60.86
				z"/>
			<path fill="#373A30" d="M38.4,60.86c-0.38-0.15-0.78-0.31-1-0.65c-0.2-0.3-0.21-0.69-0.19-1.05c0.09-1.37,0.62-2.66,1.15-3.92
				c1.63-3.84,3.39-7.63,5.28-11.34c-2.09,2.31-3.71,5.03-4.76,7.96c-0.77,2.16-1.3,4.54-2.94,6.14c-1.54,1.5-3.84,2.01-5.99,1.82
				c-2.14-0.2-4.17-1.03-6.13-1.91c-0.72-0.33-1.46-0.68-2-1.26c-0.54-0.58-0.83-1.47-0.5-2.19c0.31-0.69,1.07-1.05,1.62-1.58
				c1.24-1.18,1.35-3.08,1.82-4.73c1.42-4.95,6.51-8.24,7.73-13.24c-1.07,4.15-5.4,6.64-7.22,10.53c-1.05,2.24-1.39,5.1-3.51,6.38
				c-1.61,0.97-3.65,0.63-5.49,0.27c-4.06-0.81-8.12-1.62-12.18-2.44c-0.8-0.16-1.7-0.39-2.1-1.1c-0.53-0.93,0.15-2.14,1.06-2.7
				s2.01-0.73,2.98-1.19c1.82-0.86,3-2.64,4.56-3.91c2.63-2.12,6.14-2.67,9.26-3.98c-3.02,0.88-6.23,1.26-8.96,2.8
				c-1.97,1.11-3.56,2.75-5.37,4.11c-1.35,1.02-2.91,1.9-4.56,2.17c-0.83,0.14-1.24,1.12-0.79,1.84c0.99,1.56,2.45,2.69,4.34,3.06
				c3.58,0.69,7.15,1.38,10.73,2.07c1.21,0.23,2.46,0.48,3.45,1.22c1.09,0.81,1.71,2.1,2.51,3.2c1.76,2.44,4.56,4.11,7.54,4.48
				c1.52,0.19,3.07,0.06,4.61,0.03c3.18-0.06,6.35,0.33,9.43,1.12c0.14-0.03,0.28-0.07,0.42-0.1C41.61,62.12,40.01,61.49,38.4,60.86
				z"/>
		</g>
		<path fill="#373A30" d="M155.05,102.94c2.77-2.21,5.35-4.76,8.54-6.3c-3.35,2.27-5.92,5.53-9.14,7.98
			c-2.86,2.18-6.25,3.72-8.7,6.36c-2.09,2.25-3.58,5.33-6.45,6.42c0.18-2.15,3.09-3.34,3.14-5.49c-0.02,0.92-6.38,1.92-7.14,1.76
			c0.15-1.38,2.89-1.71,3.93-2.07c1.9-0.67,3.77-1.43,5.59-2.3C148.45,107.57,151.9,105.46,155.05,102.94z"/>
		<path fill="#373A30" d="M158.26,109.28c0.38,0.79-0.29,1.66-0.91,2.27c-0.79,0.78-1.59,1.54-2.41,2.28
			c-3.19,2.92-6.67,6.13-10.4,8.31C148.62,117.41,153.34,113.13,158.26,109.28z"/>
		<path fill="#373A30" d="M176.32,117c0.93,3.01,0.79,6.43,2.57,9.03c1.05,1.53,2.67,2.62,3.53,4.26c-0.46-4.68-2.59-9-4.69-13.21
			c-0.48-0.97-0.98-1.96-1.7-2.77c-0.89-1-2.08-1.67-2.99-2.66C174.57,113.09,175.7,115.01,176.32,117z"/>
		<path fill="#373A30" d="M188.13,117.88c0.55-0.75,1.18-1.44,1.73-2.19c0.9-1.2,1.62-2.53,2.14-3.93c0.06-0.17,0.12-0.37,0.05-0.54
			c-0.08-0.16-0.26-0.24-0.43-0.3c-1.01-0.33-2.09-0.35-3.14-0.54c-1.82-0.34-3.52-1.27-4.79-2.62c0.94,0.53,1.9,1.02,2.88,1.46
			c1.12,0.51,2.3,0.96,3.53,1.04s2.54-0.27,3.39-1.16c0.42-0.44,0.71-0.99,1.02-1.52c1.07-1.77,2.51-3.32,4.2-4.51
			c-3.84,4.29-5.38,10.14-8.46,15.01c-1.2,1.9-2.64,3.65-3.81,5.57c-0.65,1.06-1.07,2.23-1.63,3.31c-0.77-0.98,0.46-3.34,0.84-4.35
			C186.28,120.93,187.07,119.31,188.13,117.88z"/>
		<g>
			<path fill="#292B22" d="M257.66,164.56c-1.41-1.94-3.2-3.58-4.53-5.59c-1.33-2.02-2.29-4.21-3.88-6.06
				c-1.64-1.92-3.74-3.42-5.73-4.94c-1.05-0.8-2.11-1.59-3.18-2.37c-1.13-0.82-2.4-1.99-3.8-2.21c-0.14-0.02-0.19,0.17-0.13,0.27
				c0.66,1.03,1.68,1.73,2.63,2.49c1.06,0.85,2.15,1.68,3.21,2.54c1.93,1.56,4.15,3.13,5.61,5.17c0.83,1.15,1.24,2.58,1.72,3.9
				c0.41,1.14,0.98,2.21,1.71,3.17c0.76,1,1.74,1.66,2.78,2.33c1.04,0.66,2.24,1.43,3.44,1.74
				C257.73,165.02,257.74,164.67,257.66,164.56z"/>
			<path fill="#292B22" d="M161.32,177.9c-1.56-0.38-3.17-0.57-4.71-1c-1.19-0.33-2.09-1.49-3.42-0.96c-0.9,0.36-1.6,1.45-0.99,2.34
				c0.13,0.19,0.6,0.3,0.65-0.02c0.07-0.51,0.32-1.27,0.96-1.24c0.45,0.02,0.95,0.53,1.35,0.73c0.97,0.48,2.04,0.56,3.1,0.68
				c2.58,0.28,5.17,0.73,7.7,1.29c0.13,0.03,0.1-0.2,0.01-0.24C164.45,178.87,162.92,178.29,161.32,177.9z"/>
			<path fill="#292B22" d="M155.06,170.24c0.49,0.56,0.76,1.26,1.35,1.73c1.03,0.83,2.57,1.23,3.79,1.71
				c1.54,0.59,3.08,1.15,4.68,1.57c0.09,0.02,0.09-0.15,0.03-0.18c-1.63-0.76-3.29-1.43-4.93-2.15c-0.81-0.36-1.67-0.68-2.44-1.12
				c-0.74-0.42-1.03-1.12-1.5-1.79c-0.84-1.19-2.25-2.17-3.44-2.98c-1.31-0.89-2.75-1.6-4.32-1c-0.26,0.1-0.24,0.46-0.04,0.6
				c0.67,0.47,1.58,0.56,2.35,0.82c1.02,0.35,1.95,0.92,2.85,1.5C154,169.34,154.6,169.71,155.06,170.24z"/>
			<path fill="#292B22" d="M245.21,182.22c-1.1-0.76-2.45-1.1-3.7-1.51c-1.39-0.46-2.79-0.9-4.19-1.35
				c-1.24-0.4-2.51-0.81-3.66-1.42c-0.99-0.52-1.91-1.2-2.84-1.82c-1.7-1.14-3.23-2.44-5.29-2.86c-0.39-0.08-0.38,0.43-0.05,0.52
				c1.87,0.47,3.41,1.68,4.71,3.06c1.38,1.47,2.93,2.83,4.81,3.62c2.02,0.85,4.22,1.36,6.33,1.95c2.16,0.6,6.07,1.34,5.19,4.5
				c-0.03,0.12,0.12,0.31,0.23,0.18C248.05,185.42,246.7,183.25,245.21,182.22z"/>
			<path fill="#292B22" d="M73.37,73.98c1.3,1.62,2.59,3.03,4.36,4.17c3.75,2.42,8.3,3.77,11.27,7.27c0.06,0.07,0.12-0.05,0.08-0.11
				c-2.76-3.83-7.44-5.24-11.15-7.88c-1.01-0.72-1.96-1.53-2.75-2.49c-0.78-0.94-1.31-1.99-1.98-3c-1.06-1.62-2.77-3.09-4.77-3.27
				c-0.37-0.03-0.41,0.44-0.11,0.58C70.38,70.24,71.95,72.21,73.37,73.98z"/>
			<path fill="#292B22" d="M73.62,68.27c-2.86-2.62-6.52-4.87-10.28-5.89c-0.64-0.17-1.07-0.33-1.58-0.73
				c-0.34-0.27-0.69-0.52-1.02-0.81c-0.72-0.65-1.37-1.32-1.92-2.12c-0.61-0.9-1.12-1.88-1.32-2.96c-0.11-0.55-0.09-1.12-0.16-1.67
				c-0.03-0.26-0.53-1.69-0.21-1.74c0.32-0.06,0.11-0.49-0.13-0.52c-0.8-0.09-0.8,0.66-0.65,1.23c0.29,1.09,0.19,2.2,0.46,3.29
				c0.56,2.24,2.22,4.13,3.52,5.98c0.77,1.1,1.75,1.63,3.04,1.92c1.17,0.26,2.34,0.4,3.48,0.76c2.4,0.77,4.64,1.95,6.71,3.37
				C73.63,68.43,73.66,68.3,73.62,68.27z"/>
			<path fill="#292B22" d="M112.71,34.4c-1.2-1.48-2.33-3.15-3.91-4.27c-0.81-0.57-1.71-0.88-2.66-1.14
				c-0.94-0.26-1.88-0.56-2.85-0.66c-0.23-0.02-0.16,0.34,0.02,0.37c0.95,0.17,1.83,0.41,2.56,1.06c0.85,0.75,1.66,1.55,2.51,2.31
				c1.4,1.26,2.68,2.67,4,4.02c2.75,2.81,5.79,5.34,9.04,7.56c0.11,0.07,0.16-0.1,0.08-0.16C118.28,40.75,115.36,37.69,112.71,34.4z
				"/>
			<path fill="#292B22" d="M113.34,24.33c-2.35-1.98-4.64-3.94-6.78-6.15c-2.43-2.52-3.19-5.38-3.54-8.8
				c-0.01-0.15-0.25-0.22-0.25-0.03c0,2.97,0.19,5.65,1.81,8.23c1.67,2.66,3.57,5.09,6.12,6.95c2.59,1.89,5.16,3.76,7.53,5.93
				c2.42,2.23,4.63,4.67,6.83,7.11c0.05,0.05,0.09-0.04,0.06-0.08C121.62,32.8,117.82,28.11,113.34,24.33z"/>
			<path fill="#292B22" d="M60.94,37.55c2.97,1.15,4.77,4.32,7.1,6.36c2.67,2.34,5.69,4.23,8.72,6.06c0.06,0.03,0.08-0.07,0.04-0.1
				c-2.75-2.06-5.55-4.09-7.99-6.53c-2.02-2.01-3.59-4.76-6.11-6.23c-1.42-0.83-3.02-1.04-4.32-2.11c-1.43-1.18-2.67-2.63-3.98-3.94
				c-0.73-0.73-1.37-1.48-1.65-2.5c-0.22-0.82-0.22-1.68-0.36-2.52c-0.28-1.67-0.96-3.04-2.05-4.31c-0.21-0.24-0.89-0.14-0.72,0.27
				c0.71,1.72,1.21,3.48,1.4,5.33c0.17,1.65,0.46,3.02,1.63,4.28c1.28,1.38,2.85,2.48,4.26,3.72
				C58.19,36.45,59.38,36.95,60.94,37.55z"/>
			<path fill="#292B22" d="M150.31,65.23c-3.22-4.12-7.08-7.83-11.1-11.16c-1.94-1.61-4.12-3.11-6.4-4.19
				c-2.03-0.96-4.93-0.69-6.24,1.37c-0.26,0.41,0.38,0.75,0.69,0.46c0.95-0.87,1.95-1.39,3.24-1.02c1.19,0.34,2.24,1.09,3.29,1.73
				c2.01,1.22,4.02,2.46,6.03,3.69c3.92,2.41,7.32,5.87,10.44,9.21C150.3,65.36,150.34,65.27,150.31,65.23z"/>
			<path fill="#292B22" d="M184.65,89.77c-2.49-1.58-5.69-3.34-6.46-6.4c-0.35-1.4-0.49-2.85-1.18-4.14
				c-0.54-1.02-1.29-1.91-2.13-2.69c-0.91-0.85-2.07-1.21-2.99-2c-0.98-0.84-1.62-1.9-2.14-3.06c-0.1-0.22-0.58-0.34-0.52,0.02
				c0.19,1.09,0.8,2.06,1.47,2.91c0.78,0.98,1.44,2.07,2.28,3c0.74,0.81,1.59,1.53,2.23,2.44c0.89,1.26,1.16,2.78,1.78,4.16
				c1.21,2.74,4.4,4.51,6.85,6.05c2.73,1.72,5.62,3.04,8.66,4.11c0.04,0.01,0.05-0.06,0.02-0.08
				C189.8,92.84,187.17,91.37,184.65,89.77z"/>
			<path fill="#292B22" d="M218.62,137.62c-0.89-1.8-2.54-3.17-3.78-4.72c-0.77-0.97-1.68-1.86-2.41-2.85
				c-0.93-1.27-0.74-2.87-0.47-4.36c0.03-0.17-0.21-0.36-0.29-0.15c-0.33,0.95-0.74,1.91-0.79,2.92c-0.07,1.59,0.46,2.74,1.3,4.05
				c0.63,0.99,1.38,1.89,2.16,2.77c0.86,0.97,1.94,1.81,2.68,2.87c0.55,0.78,0.85,1.7,1.23,2.56c0.46,1.05,1.08,1.97,1.86,2.81
				c1.68,1.79,3.11,3.53,4.09,5.82c0.05,0.11,0.15,0.03,0.12-0.06c-0.67-2.28-1.89-3.97-3.33-5.81
				C219.59,141.69,219.6,139.59,218.62,137.62z"/>
			<path fill="#292B22" d="M232.46,129.63c0.09,0.09,0.15-0.09,0.08-0.16c-1.31-1.33-2.62-2.67-3.91-4.01
				c-1.37-1.41-3-2.84-4.04-4.52c-0.62-1-0.71-2.22-1.24-3.27c-0.75-1.47-1.7-2.83-2.71-4.13c-2.1-2.7-4.43-4.88-7.54-6.35
				c-1.71-0.81-3.39-1.73-3.87-3.72c-0.45-1.85-0.24-3.57-0.23-5.44c0-0.16-0.29-0.43-0.36-0.18c-0.46,1.74-0.51,3.88-0.4,5.67
				c0.11,1.89,0.91,3.29,2.45,4.36c1.27,0.88,2.68,1.52,3.91,2.46c1.43,1.09,2.73,2.38,3.97,3.67c1.21,1.26,2.5,2.53,3.64,3.86
				c0.94,1.1,0.96,2.58,1.87,3.71c1.09,1.35,2.56,2.45,3.82,3.64C229.42,126.68,230.94,128.16,232.46,129.63z"/>
			<path fill="#292B22" d="M88.98,101.09c-0.77-0.67-1.68-1.18-2.56-1.71c-0.96-0.57-1.93-1.12-2.79-1.84
				c-0.62-0.52-1.13-1.14-1.64-1.76c-0.54-0.67-1.59-1.68-1.85-2.41c-0.27-0.78-0.35-1.4-0.78-2.1c-0.31-0.51-0.65-0.97-1.1-1.37
				c-0.8-0.72-1.55-0.85-2.55-1.13c-1.05-0.29-2.16-0.44-3.2-0.8c-0.87-0.3-1.57-0.8-1.88-1.69c-0.27-0.79-0.29-1.59-0.3-2.42
				c0-0.06-0.09-0.14-0.12-0.05c-0.51,2.15-0.16,4.02,1.98,4.95c1.39,0.61,2.76,0.84,4,1.78c0.44,0.34,0.92,0.6,1.31,1
				c0.48,0.5,0.83,1.09,1.34,1.56c0.84,0.78,1.52,1.55,2.21,2.45c0.41,0.53,0.82,1.08,1.27,1.58c0.75,0.84,1.65,1.5,2.6,2.09
				c1.85,1.16,4.26,2.08,5.61,3.88c0.02,0.02,0.04-0.01,0.03-0.03C90.08,102.32,89.68,101.7,88.98,101.09z"/>
			<path fill="#292B22" d="M81.63,100.75c-0.32-1-0.62-1.94-1.18-2.84c-0.62-1.01-1.23-1.92-1.56-3.07
				c-0.04-0.13-0.26-0.25-0.3-0.05c-0.18,0.94,0.31,1.89,0.78,2.66c0.58,0.94,1.02,1.82,1.35,2.87c0.32,1,0.91,1.76,1.65,2.49
				c1.1,1.08,1.94,2.32,2.6,3.72c0.03,0.07,0.1,0,0.08-0.05c-0.39-1.05-0.67-2.09-1.36-3C82.99,102.56,81.99,101.9,81.63,100.75z"/>
			<path fill="#292B22" d="M105.5,70.77c-0.78-0.63-1.69-1.02-2.49-1.62c-1.9-1.41-3.11-3.59-4.71-5.29
				c-1.06-1.13-2.65-2.16-4.27-2.03c-0.7,0.05-1.18,0.53-1.68,0.99c-0.78,0.72-1.49,1.52-2.28,2.24c-0.05,0.05,0,0.2,0.07,0.15
				c0.79-0.58,1.6-1.12,2.41-1.67c0.2-0.14,0.39-0.29,0.58-0.44c0.4-0.3,0.46-0.37,1.02-0.35c0.54,0.02,0.79,0.14,1.2,0.46
				c0.61,0.49,1.13,1.11,1.71,1.63c0.78,0.69,1.61,1.28,2.42,1.92c1.3,1,2.39,2.35,3.86,3.11c1.54,0.8,2.8,1.83,4.11,2.95
				c0.03,0.02,0.05-0.03,0.03-0.05C106.86,72.07,106.23,71.37,105.5,70.77z"/>
		</g>
	</g>
</g>
</svg>
