<?xml version="1.0" encoding="utf-8"?>
<!-- Generator: Adobe Illustrator 27.9.0, SVG Export Plug-In . SVG Version: 6.00 Build 0)  -->
<svg version="1.1" xmlns="http://www.w3.org/2000/svg" xmlns:xlink="http://www.w3.org/1999/xlink" x="0px" y="0px"
	 viewBox="0 0 353.31 155.16" enable-background="new 0 0 353.31 155.16" xml:space="preserve">
<g id="_x31_6">
</g>
<g id="_x31_5" opacity="0.69">
</g>
<g id="_x31_4">
</g>
<g id="_x31_3">
</g>
<g id="_x31_2">
</g>
<g id="_x31_1">
</g>
<g id="_x31_0">
</g>
<g id="_x38_">
</g>
<g id="_x37_">
	<g>
		<path opacity="0.48" fill="#282828" d="M4.2,94.53c5.38,1.57,11.15-0.11,16.74,0.23c7.85,0.46,14.86,4.81,22.28,7.43
			c6.31,2.23,13.05,3.23,19.74,2.93c3.47-0.16,8.2,0.26,8.67,3.71c0.26,1.94-1.19,3.72-1.28,5.67c-0.15,3.35,3.57,5.49,6.85,6.21
			c3.28,0.71,7.04,1.02,9.17,3.62c1.28,1.57,1.67,3.66,2.41,5.54c2.25,5.75,8.32,9.77,14.49,9.59c-3.91,1.84-3.53,8.07-0.31,10.96
			c3.22,2.89,7.87,3.35,12.19,3.67c13.47,1.01,27.13,2.01,40.41-0.46c5.38-1,10.64-2.55,16.04-3.42
			c16.51-2.66,33.33,1.22,50.05,1.19c11.47-0.02,22.85-1.89,34.17-3.75c8.86-1.46,18.33-3.22,24.71-9.54
			c2.5-2.47,4.36-5.52,6.8-8.05c14.77-15.32,42.78-6.18,59.7-19.09c3.89-2.97,7.12-7.7,6.12-12.49c-1.23-5.9-7.9-8.72-13.75-10.15
			c-7.28-1.78-14.7-2.87-22.11-3.97c-36.69-5.42-73.62-10.86-110.68-9.57c-20.37,0.71-40.81,3.45-61.07,1.24
			c-17.37-1.89-34.17-7.38-51.47-9.87c-21.23-3.06-43.12-1.52-63.71,4.48c-3.82,1.11-7.68,2.44-10.72,5.11
			c-3.15,2.77-4.94,6.28-9.39,7c-3.27,0.53-5.92-0.08-8.4,2.67C-1.3,88.86-0.35,93.2,4.2,94.53z"/>
		<path opacity="0.48" fill="#282828" d="M29.59,76.54c-2.51,0.05-4.92,0.87-6.99,2.29C16.64,82.9,7.46,84,3.06,89.72
			c1.98,2.1,5.15,2.41,8.02,2.59c5.54,0.35,11.09,0.7,16.63,1.05c3.31,0.21,6.67,0.43,9.81,1.53c2.32,0.81,4.44,2.08,6.69,3.07
			c3.43,1.51,7.11,2.35,10.77,3.18c6.96,1.58,13.91,3.15,20.87,4.73c2.33,0.53,4.92,1.25,6.09,3.32c0.68,1.21,0.74,2.67,1.15,4
			c0.68,2.21,2.42,4.08,4.58,4.91c1.22,0.47,2.66,0.69,3.45,1.74c0.79,1.05-0.19,3.1-1.35,2.5c-0.54,1.04,0.35,2.3,1.38,2.85
			c1.04,0.55,2.26,0.75,3.18,1.48c1.43,1.14,1.71,3.25,3,4.54c1.69,1.69,4.56,1.51,6.45,2.97c3.89,3.02,1.06,10.38,4.89,13.48
			c1.13,0.91,2.62,1.22,4.05,1.5c8.27,1.62,16.81,3.24,25.06,1.49c7.85-1.67,15.98-6.31,23.36-3.17
			c25.72,10.9,55.55-3.96,83.43-5.84c3.59-0.24,7.27-0.51,10.53-2.03c3.26-1.52,6.04-4.6,6.13-8.2c0.05-1.98-0.99-3.95-2.51-5.17
			c-1.83-1.47-1.39-4.39,0.88-5.02c3.89-1.07,8.9-0.54,13.12-0.85c10.44-0.77,19.01-8.61,29.15-11.23
			c9.01-2.33,19.16-0.51,26.91-6.34c1.62-1.21,2.72-3.07,2.8-5.09c0.22-5.42-6.14-7.23-11.13-7.73
			c-57.07-5.79-114.49-8.11-171.84-6.94c-15.98,0.33-32.06,0.91-47.84-1.57C77.86,77.87,52.76,76.03,29.59,76.54z"/>
		<g>
			<g>
				<g>
					<path fill="#7C7555" d="M25.28,71.76c-1.84,0.72-3.53,1.75-5.21,2.79c-3.59,2.2-7.17,4.4-10.76,6.6c-1.14,0.7-2.32,1.44-3,2.58
						c-0.69,1.14-0.69,2.81,0.35,3.64c0.72,0.58,1.72,0.61,2.65,0.62c10.23,0.1,20.47,0.19,30.7,0.29c1.76,0.02,3.6,0.05,5.14,0.89
						c1.79,0.97,2.92,2.87,4.69,3.89c3.26,1.89,7.35,0.24,10.73-1.42c2.84-1.4,5.7-2.81,8.27-4.66c1.89-1.37,3.6-2.96,5.3-4.55
						c3.31-3.08,6.62-6.17,9.93-9.25c-4.67,7.58-10.97,14.15-18.35,19.13c-1.71,1.16-3.73,3.09-2.72,4.89
						c0.7,1.25,2.4,1.39,3.83,1.39c9.64-0.04,19.6-0.14,28.41-4.05c13.53-6.01,22.69-20.31,37.03-23.99
						c2.45-0.63,5.7-1.84,5.32-4.34c-0.12-0.81-0.65-1.48-0.97-2.23c-1.12-2.61,0.24-6.02-1.51-8.25c-0.56-0.71-1.41-1.25-1.67-2.12
						c-0.31-1.01,0.29-2.05,0.73-3.02c0.85-1.88,1.11-4.02,0.73-6.05c-0.09-0.51-0.24-1.04-0.62-1.38
						c-0.42-0.38-1.02-0.47-1.58-0.46c-3.11,0.03-5.93,2.21-9.04,2.12c-1.46-0.04-2.87-0.59-4.33-0.55
						c-2.29,0.06-4.28,1.53-6.09,2.94c-7.59,5.87-15.17,11.75-22.76,17.62c8.66-9.67,19.31-17.56,31.09-23.01
						c0.88-0.41,1.88-0.94,2.05-1.9c0.38-2.15-3.23-2.34-4.63-4c-1.03-1.23-0.66-3.06-0.23-4.6c1.33-4.81,2.66-9.62,3.99-14.43
						c0.82-2.97,1.65-6.01,1.52-9.09c-0.08-1.82-0.49-3.63-0.35-5.44c0.05-0.63,0.16-1.27,0.27-1.9c-0.21-0.15-0.41-0.3-0.62-0.45
						c-0.05,0.02-0.09,0.04-0.13,0.06c-0.01,0,0,0.01-0.01,0.01c-11.35,6.64-21.26,15.44-31.08,24.17
						c-8.23,7.32-16.46,14.64-24.69,21.96c-7.69,6.84-15.43,13.71-24.26,18.99c-0.32,0.19-0.64,0.37-0.96,0.56
						c-2.35,1.59-4.89,2.86-7.62,3.65C31.64,70.31,28.32,70.57,25.28,71.76z"/>
				</g>
				<g>
					<path fill="#7C7555" d="M182.68,65.86c3.91,3.09,7.4,6.72,10.33,10.75c0.29,0.41,0.59,0.84,0.65,1.34
						c0.05,0.45-0.1,0.9-0.24,1.32c-0.37,1.07-0.74,2.13-1.11,3.2c-0.41,1.19-0.82,2.5-0.36,3.67c0.49,1.24,1.82,1.96,2.4,3.15
						c0.42,0.85,0.41,1.86,0.78,2.74c0.31,0.73,0.88,1.32,1.44,1.89c3.09,3.14,6.39,6.07,9.87,8.78c-0.93-3.38-1.86-6.84-1.64-10.34
						c0.3-4.8,2.72-9.6,1.4-14.23c-0.58-2.04-1.84-3.8-2.77-5.71c-0.92-1.91-1.5-4.19-0.63-6.12c0.47-1.05,1.32-1.88,1.91-2.87
						c1.95-3.25,0.82-7.42-0.57-10.95c-0.57-1.45-1.19-2.96-1.06-4.52c0.24-2.89,2.88-4.88,4.71-7.14
						c2.32-2.88,3.43-6.53,4.49-10.08c0.25-0.83,0.49-1.66,0.71-2.5c-0.15-0.13-0.35-0.23-0.61-0.28c-0.86-0.17-1.73,0.25-2.26,0.94
						c-3.09,4.09-8.77,3.48-13.34,5.12c-5.27,1.89-8.84,6.69-13.29,10.08c-3.84,2.93-8.62,4.99-13.09,6.84
						c1.66,3.75,3.61,7.35,6.5,10.22C178.66,62.9,180.73,64.32,182.68,65.86z"/>
				</g>
				<path fill="#7C7555" d="M167.59,120.52c-2.69-5.08-5.89-10.34-5.53-16.08c0.08-1.23,0.32-2.46,0.18-3.69
					c-0.14-1.22-0.64-2.36-1.12-3.48c-4.73-11.13-7.78-22.97-8.99-35c-0.15-1.47-0.56-2.97-1.53-4c-0.36-0.38-0.97-0.33-1.31,0.06
					c-2.47,2.87-5.03,5.65-7.68,8.35c-2.2,2.24-4.49,4.44-7.2,5.99c-2.1,1.2-4.42,2-6.45,3.31c-4.7,3.04-7.33,8.49-11.76,11.91
					c-2.37,1.83-5.16,3.02-7.92,4.19c-8.3,3.51-16.6,7.03-24.9,10.54c0.15,0.12,0.28,0.26,0.4,0.42c-0.9,1.21-2.29,1.94-3.59,2.69
					c-3.42,1.96-6.58,4.34-9.41,7.09c-1.28,1.25-2.59,2.95-2.07,4.66c0.4,1.31,1.78,2.1,3.13,2.32c1.35,0.22,2.73,0,4.1,0
					c2.07,0,4.1,0.49,6.13,0.83c1.66,0.31,3.33,0.62,4.99,0.93c2.13,0.41,4.32,0.73,6.34,1.56c0.32,0.13,0.64,0.28,0.87,0.53
					c0.36,0.39,0.43,0.96,0.5,1.48c0.22,1.62,0.59,3.36,1.81,4.44c1.04,0.92,2.48,1.18,3.85,1.41c2.13,0.35,4.63,0.86,6.77,1.21
					c-1.02,4.84-2.03,9.67-3.05,14.51c-0.07,0.34-0.14,0.7,0,1.01c0.15,0.36,0.53,0.56,0.89,0.73c2.84,1.32,6.04,1.87,9.17,1.58
					c2.03-0.19,4.05-0.74,6.09-0.62c3.08,0.18,6.05,1.86,9.1,1.37c1.94-0.31,3.65-1.46,5.56-1.9c2.3-0.53,4.77,0.01,7.02-0.68
					c2.85-0.88,4.84-3.55,7.65-4.52c2.92-1.01,6.1-0.02,9.17,0.23c2.86,0.24,5.78-0.18,8.46-1.22c2.22-0.86,4.29-2.14,6.61-2.71
					c0.47-0.12,0.94-0.2,1.41-0.26c-0.29-1.35-0.68-2.68-1.11-3.93C172.39,130.53,170.18,125.42,167.59,120.52z"/>
				<g>
					<path fill="#544D31" d="M160.47,65.71c2.71,2.12,5.01,5.01,6.69,8.02c0.99,1.77,2.07,3.12,3.56,4.5
						c1.1,1.02,3.04,2.96,4.44,3.5c7.37,2.85,13.82,5.42,20,10.34c-0.01-0.02-0.02-0.03-0.03-0.05c-0.38-0.87-0.37-1.88-0.78-2.74
						c-0.58-1.19-1.92-1.91-2.4-3.15c-0.46-1.17-0.05-2.48,0.36-3.67c0.37-1.07,0.74-2.13,1.11-3.2c0.15-0.43,0.3-0.87,0.24-1.32
						c-0.06-0.5-0.36-0.93-0.65-1.34c-2.93-4.03-6.42-7.66-10.33-10.75c-1.95-1.54-4.01-2.96-5.78-4.7
						c-2.89-2.86-4.84-6.47-6.5-10.22c-0.03,0.01-0.07,0.03-0.1,0.04c-5.35-8.44-11.15-17.29-20.16-21.61
						c-2.51-1.2-5.23-2.03-7.46-3.69c-4.42-3.28-6.04-9.01-8.67-13.84c-2.45-4.5-5.67-8.46-9.84-11.39
						c-0.11,0.63-0.22,1.26-0.27,1.9c-0.13,1.82,0.28,3.62,0.35,5.44c0.13,3.08-0.7,6.12-1.52,9.09c-1.33,4.81-2.66,9.62-3.99,14.43
						c-0.43,1.54-0.8,3.38,0.23,4.6c1.4,1.67,5.01,1.86,4.63,4c-0.17,0.96-1.17,1.49-2.05,1.9c-11.78,5.45-22.43,13.34-31.09,23.01
						c7.59-5.87,15.17-11.75,22.76-17.62c1.81-1.41,3.8-2.87,6.09-2.94c1.46-0.04,2.87,0.5,4.33,0.55c3.11,0.09,5.93-2.09,9.04-2.12
						c0.56-0.01,1.17,0.08,1.58,0.46c0.38,0.35,0.53,0.88,0.62,1.38c0.37,2.03,0.11,4.17-0.73,6.05c-0.44,0.97-1.04,2-0.73,3.02
						c0.26,0.87,1.11,1.4,1.67,2.12c1.75,2.24,0.39,5.64,1.51,8.25c0.32,0.75,0.85,1.43,0.97,2.23c0.39,2.5-2.87,3.72-5.32,4.34
						c-14.34,3.68-23.5,17.98-37.03,23.99c-8.81,3.91-18.77,4.01-28.41,4.05c-1.43,0.01-3.13-0.14-3.83-1.39
						c-1.01-1.8,1.01-3.73,2.72-4.89c7.37-4.99,13.67-11.56,18.35-19.13c-3.31,3.08-6.62,6.17-9.93,9.25
						c-1.71,1.59-3.42,3.18-5.3,4.55c-2.57,1.86-5.42,3.27-8.27,4.66c-3.38,1.66-7.47,3.32-10.73,1.42
						c-1.76-1.02-2.89-2.93-4.69-3.89c-1.55-0.84-3.39-0.87-5.14-0.89c-10.23-0.1-20.47-0.19-30.7-0.29
						c-0.92-0.01-1.93-0.04-2.65-0.62c-1.04-0.83-1.03-2.5-0.35-3.64c0.69-1.14,1.87-1.88,3-2.58c3.59-2.2,7.17-4.4,10.76-6.6
						c1.68-1.03,3.38-2.07,5.21-2.79c3.04-1.19,6.36-1.45,9.49-2.35c2.73-0.79,5.27-2.06,7.62-3.65c-3.64,2.09-7.55,3.84-11.72,4.07
						c-2.59,0.14-5.31-0.3-7.71,0.7c-1.13,0.47-2.12,1.24-3.08,2c-5.27,4.13-10.55,8.26-15.82,12.4C3.9,85.04,4,84.97,3.65,85.29
						c-0.31,0.29-0.4,0.77-0.18,1.13c0.63,1.02,1.83,1.65,3.03,2c1.44,0.43,2.97,0.4,4.48,0.44c6.32,0.18,12.56,1.71,18.89,1.71
						c4.37,0,9.19-0.62,12.69,1.99c1.03,0.77,1.89,1.79,3.06,2.34c0.79,0.37,1.66,0.5,2.53,0.61c4.23,0.55,8.74,0.8,13,0.67
						c-0.77,1.6,0.31,3.6,1.86,4.47c1.55,0.87,3.41,0.9,5.19,0.91c3.72,0.03,7.43,0.05,11.15,0.08c1.41,0.01,3,0.1,4.04,0.98
						c8.3-3.51,16.6-7.03,24.9-10.54c2.76-1.17,5.55-2.35,7.92-4.19c4.43-3.43,7.06-8.87,11.76-11.91c2.03-1.31,4.35-2.11,6.45-3.31
						c2.72-1.56,5.01-3.76,7.2-5.99c2.65-2.7,5.21-5.48,7.68-8.35c0.25-0.29,0.65-0.39,0.99-0.27c0.28-0.08,0.56-0.15,0.85-0.19
						C154.23,60.49,157.17,63.13,160.47,65.71z"/>
				</g>
				<g>
					<path fill="#5D5D5D" d="M68.72,117.48c0.4,1.31,1.78,2.1,3.13,2.32c1.35,0.22,2.73,0,4.1,0c2.07,0,4.1,0.49,6.13,0.83
						c1.66,0.31,3.33,0.62,4.99,0.93c2.13,0.41,4.32,0.73,6.34,1.56c0.32,0.13,0.64,0.28,0.87,0.53c0.36,0.39,0.43,0.96,0.5,1.48
						c0.22,1.62,0.59,3.36,1.81,4.44c1.04,0.92,2.48,1.18,3.85,1.41c2.13,0.35,4.63,0.86,6.77,1.21c-1.02,4.84-2.03,9.67-3.05,14.51
						c-0.07,0.34-0.14,0.7,0,1.01c0.15,0.36,0.53,0.56,0.89,0.73c2.84,1.32,6.04,1.87,9.17,1.58c2.03-0.19,4.05-0.74,6.09-0.62
						c3.08,0.18,6.05,1.86,9.1,1.37c1.94-0.31,3.65-1.46,5.56-1.9c2.3-0.53,4.77,0.01,7.02-0.68c2.85-0.88,4.84-3.55,7.65-4.52
						c2.92-1.01,6.1-0.02,9.17,0.23c2.86,0.24,5.78-0.18,8.46-1.22c2.22-0.86,4.29-2.14,6.61-2.71c0.47-0.12,0.94-0.2,1.41-0.26
						c-0.29-1.35-0.68-2.68-1.11-3.93c-0.87-2.54-1.84-5.05-2.9-7.51c0.42,1.76,0.88,3.56,0.71,5.29c-0.31,3.04-2.65,5.63-5.48,6.79
						c-2.82,1.17-6.03,1.08-9.01,0.38c-1.87-0.44-3.75-1.11-5.66-0.9c-1.43,0.16-2.76,0.81-4.07,1.41
						c-5.5,2.52-11.32,4.33-17.28,5.35c-0.5,0.09-1.03,0.16-1.5-0.01c-1.47-0.55-1.15-2.7-0.58-4.16c3.26-8.35,5.76-17,7.46-25.8
						c-2.09,7.8-4.81,15.43-8.14,22.79c-1.38,3.06-3.48,6.49-6.83,6.67c-1.65,0.09-3.24-0.68-4.89-0.64
						c-1.5,0.03-2.91,0.72-4.39,0.99c-1.48,0.28-3.29-0.02-3.99-1.36c-0.38-0.73-0.34-1.61-0.27-2.43
						c0.38-4.36,1.26-8.68,2.63-12.84c1.05-3.21,2.5-6.48,5.17-8.55c3.43-2.65,8.56-3.12,10.94-6.74c1.81-2.76,1.34-6.35,1.77-9.62
						c0.82-6.31,5.04-11.57,9.11-16.47c-3.89,3.73-7.9,7.65-9.74,12.71c-1.03,2.84-1.31,5.89-2.19,8.78
						c-0.88,2.89-2.57,5.77-5.36,6.94c-2.13,0.89-4.66,0.68-6.6,1.92c-3.87,2.48-3.36,9.31-7.6,11.09
						c-3.67,1.54-7.37-2.11-9.32-5.58c-0.62-1.1-1.21-2.32-1.01-3.57c0.17-1.09,0.92-1.99,1.64-2.83
						c4.62-5.39,9.23-10.78,13.85-16.17c-3.55,3.88-7.1,7.77-10.65,11.65c-2.67,2.92-5.88,6.09-9.84,5.92
						c-1.92-0.08-3.7-0.96-5.51-1.6c-3.1-1.1-6.45-1.51-9.73-1.2c-1.14,0.11-2.44,0.25-3.27-0.53c-1.32-1.24-0.65-2.85,0.43-4.32
						c-0.44,0.39-0.88,0.78-1.3,1.19C69.5,114.07,68.19,115.76,68.72,117.48z"/>
					<path fill="#514C37" d="M68.72,117.48c0.4,1.31,1.78,2.1,3.13,2.32c1.35,0.22,2.73,0,4.1,0c2.07,0,4.1,0.49,6.13,0.83
						c1.66,0.31,3.33,0.62,4.99,0.93c2.13,0.41,4.32,0.73,6.34,1.56c0.32,0.13,0.64,0.28,0.87,0.53c0.36,0.39,0.43,0.96,0.5,1.48
						c0.22,1.62,0.59,3.36,1.81,4.44c1.04,0.92,2.48,1.18,3.85,1.41c2.13,0.35,4.63,0.86,6.77,1.21c-1.02,4.84-2.03,9.67-3.05,14.51
						c-0.07,0.34-0.14,0.7,0,1.01c0.15,0.36,0.53,0.56,0.89,0.73c2.84,1.32,6.04,1.87,9.17,1.58c2.03-0.19,4.05-0.74,6.09-0.62
						c3.08,0.18,6.05,1.86,9.1,1.37c1.94-0.31,3.65-1.46,5.56-1.9c2.3-0.53,4.77,0.01,7.02-0.68c2.85-0.88,4.84-3.55,7.65-4.52
						c2.92-1.01,6.1-0.02,9.17,0.23c2.86,0.24,5.78-0.18,8.46-1.22c2.22-0.86,4.29-2.14,6.61-2.71c0.47-0.12,0.94-0.2,1.41-0.26
						c-0.29-1.35-0.68-2.68-1.11-3.93c-0.87-2.54-1.84-5.05-2.9-7.51c0.42,1.76,0.88,3.56,0.71,5.29c-0.31,3.04-2.65,5.63-5.48,6.79
						c-2.82,1.17-6.03,1.08-9.01,0.38c-1.87-0.44-3.75-1.11-5.66-0.9c-1.43,0.16-2.76,0.81-4.07,1.41
						c-5.5,2.52-11.32,4.33-17.28,5.35c-0.5,0.09-1.03,0.16-1.5-0.01c-1.47-0.55-1.15-2.7-0.58-4.16c3.26-8.35,5.76-17,7.46-25.8
						c-2.09,7.8-4.81,15.43-8.14,22.79c-1.38,3.06-3.48,6.49-6.83,6.67c-1.65,0.09-3.24-0.68-4.89-0.64
						c-1.5,0.03-2.91,0.72-4.39,0.99c-1.48,0.28-3.29-0.02-3.99-1.36c-0.38-0.73-0.34-1.61-0.27-2.43
						c0.38-4.36,1.26-8.68,2.63-12.84c1.05-3.21,2.5-6.48,5.17-8.55c3.43-2.65,8.56-3.12,10.94-6.74c1.81-2.76,1.34-6.35,1.77-9.62
						c0.82-6.31,5.04-11.57,9.11-16.47c-3.89,3.73-7.9,7.65-9.74,12.71c-1.03,2.84-1.31,5.89-2.19,8.78
						c-0.88,2.89-2.57,5.77-5.36,6.94c-2.13,0.89-4.66,0.68-6.6,1.92c-3.87,2.48-3.36,9.31-7.6,11.09
						c-3.67,1.54-7.37-2.11-9.32-5.58c-0.62-1.1-1.21-2.32-1.01-3.57c0.17-1.09,0.92-1.99,1.64-2.83
						c4.62-5.39,9.23-10.78,13.85-16.17c-3.55,3.88-7.1,7.77-10.65,11.65c-2.67,2.92-5.88,6.09-9.84,5.92
						c-1.92-0.08-3.7-0.96-5.51-1.6c-3.1-1.1-6.45-1.51-9.73-1.2c-1.14,0.11-2.44,0.25-3.27-0.53c-1.32-1.24-0.65-2.85,0.43-4.32
						c-0.44,0.39-0.88,0.78-1.3,1.19C69.5,114.07,68.19,115.76,68.72,117.48z"/>
				</g>
			</g>
			<g>
				<path fill="#544D31" d="M190.75,140.88c3.21,0.41,6.54-0.24,9.37-1.8c1-0.56,1.97-1.26,2.53-2.26c1.36-2.43-0.17-5.4-1.67-7.75
					c-4.05-6.35-8.09-12.71-12.14-19.06c5.54,7.41,11.08,14.81,16.62,22.22c1.2,1.6,2.52,3.3,4.42,3.93c3.03,1,6.51-1.02,9.46,0.18
					c0.94,0.38,1.75,1.07,2.73,1.31c0.99,0.23,2.28-0.29,2.3-1.31c0.01-0.46-0.25-0.89-0.51-1.27c-0.96-1.48-1.93-2.96-2.89-4.44
					c-0.27-0.41-0.54-0.82-0.8-1.23c0.27,0.41,0.54,0.82,0.8,1.23c2.2,3.31,4.85,6.57,8.67,7.34c1.97,0.4,4.01,0.06,5.99-0.28
					c3.38-0.58,6.76-1.15,10.14-1.73c0.31-0.05,0.64-0.11,0.9-0.3c0.39-0.28,0.55-0.79,0.59-1.28c0.21-2.28-1.38-4.29-2.94-5.96
					c-9.3-9.95-20.84-17.79-33.52-22.75c-2.8-1.1-5.68-2.07-8.19-3.73c-4.26-2.82-7.03-7.34-10.66-10.94
					c-4.03-3.99-9.19-6.84-14.71-8.14c-2.02-0.47-4.17-0.78-5.81-2.04c-1.03-0.79-1.76-1.88-2.5-2.95
					c-4.52-6.53-9.72-12.59-15.49-18.05c-0.76-0.65-1.53-1.31-2.3-1.96c-0.29,0.04-0.57,0.11-0.85,0.19
					c0.12,0.04,0.23,0.11,0.32,0.21c0.98,1.03,1.39,2.53,1.53,4c1.21,12.03,4.25,23.88,8.99,35c0.48,1.13,0.98,2.27,1.12,3.48
					c0.14,1.22-0.11,2.46-0.18,3.69c-0.36,5.74,2.84,11,5.53,16.08c2.6,4.9,4.8,10.01,6.6,15.26c0.43,1.25,0.82,2.58,1.11,3.93
					c0.11-0.01,0.21-0.01,0.32-0.02c1.45-0.57,2.99-0.92,4.62-0.93C183.82,138.74,187.19,140.43,190.75,140.88z"/>
				<path fill="#3D3621" d="M197.69,143.42c4.76-0.73,8.89-4.27,13.7-3.97c6.32,0.39,12.67,0.78,18.99,0.28
					c2.64-0.21,5.27-0.57,7.91-0.57c4.26-0.01,9.01,0.76,12.34-1.9c0.32-0.26,0.64-0.56,0.75-0.96c0.11-0.38,0.02-0.8-0.09-1.18
					c-0.62-2.06-1.7-3.96-3.16-5.53c-4.82-5.21-10.14-9.96-15.84-14.18l1.49-0.07c-6.25-3.85-12.56-7.62-19.22-10.71
					c-1.94-0.9-3.91-1.75-5.83-2.7c-0.96-0.38-1.9-0.8-2.81-1.28c-4.39-2.29-8.02-5.87-11.69-9.3c-4.82-3.72-10.06-6.87-15.61-9.38
					c-1.22-0.26-2.44-0.52-3.58-1.03c-0.83-0.37-1.57-0.85-2.26-1.41c-0.75-0.35-1.46-0.75-2.07-1.31
					c-1.21-1.12-1.84-2.69-2.57-4.19c-0.25-0.35-0.5-0.71-0.74-1.05c-1.12-1.56-2.31-3.06-3.58-4.5c-1.07-0.97-2.22-1.88-3.35-2.77
					c-2.47-1.94-4.75-3.91-7.04-5.88c5.77,5.46,10.97,11.52,15.49,18.05c0.74,1.06,1.47,2.16,2.5,2.95
					c1.64,1.26,3.79,1.57,5.81,2.04c5.53,1.29,10.68,4.14,14.71,8.14c3.63,3.59,6.41,8.12,10.66,10.94
					c2.51,1.66,5.39,2.63,8.19,3.73c12.68,4.97,24.22,12.8,33.52,22.75c1.56,1.67,3.16,3.68,2.94,5.96
					c-0.05,0.48-0.2,0.99-0.59,1.28c-0.26,0.18-0.58,0.24-0.9,0.3c-3.38,0.58-6.76,1.15-10.14,1.73c-1.98,0.34-4.02,0.68-5.99,0.28
					c-3.82-0.77-6.47-4.03-8.67-7.34c0.96,1.48,1.93,2.96,2.89,4.44c0.25,0.39,0.52,0.81,0.51,1.27c-0.02,1.01-1.32,1.54-2.3,1.31
					c-0.99-0.23-1.8-0.92-2.73-1.31c-2.95-1.21-6.43,0.82-9.46-0.18c-1.9-0.63-3.22-2.32-4.42-3.93
					c-5.54-7.41-11.08-14.81-16.62-22.22c4.05,6.35,8.09,12.71,12.14,19.06c1.5,2.35,3.03,5.32,1.67,7.75
					c-0.56,1-1.53,1.7-2.53,2.26c-2.83,1.57-6.16,2.21-9.37,1.8c-3.56-0.45-6.93-2.14-10.52-2.11c-1.63,0.01-3.16,0.36-4.62,0.93
					C182.92,138.97,190.26,144.57,197.69,143.42z"/>
			</g>
			<path fill="#3D3621" d="M179.8,116.75c-1.86-2.39-3.35-5.06-5.15-7.49c-2.88-3.87-6.58-7.11-10.77-9.49
				c0.15,0.28,0.29,0.56,0.42,0.84c1.59,1.23,3.15,2.5,4.67,3.81c1.51,1.31,2.99,2.67,4.15,4.3c1.1,1.55,1.89,3.3,2.88,4.92
				c3.32,5.42,8.77,9.12,14.05,12.65C186.38,123.39,182.68,120.44,179.8,116.75z"/>
			<g>
				<path fill="#544D31" d="M240.29,112.15c3.33-0.11,6.67,0,9.99,0.35c1.3,0.14,2.69,0.29,3.85-0.3c2.26-1.15,2.37-4.56,0.92-6.65
					c-1.45-2.08-3.88-3.2-6.12-4.39c-7.39-3.94-13.79-9.71-18.47-16.65c3.87,4.87,8.04,9.96,13.87,12.13
					c3.33,1.24,7.09,1.47,10.03,3.47c2.54,1.73,4.27,4.66,7.16,5.68c3.85,1.37,7.95-1.19,12.03-1.35c3.27-0.13,7.45,0.91,9.12-1.91
					c0.9-1.53,0.43-3.56-0.64-4.97c-1.07-1.41-2.64-2.35-4.13-3.29c-6.74-4.25-12.95-9.35-18.44-15.12
					c7.01,4.75,12.56,11.75,20.35,15.07c5.4,2.3,11.63,2.6,17.23,0.83c0.38-0.12,0.77-0.26,1.06-0.52c1.37-1.24-0.38-3.35-1.97-4.3
					c-6.5-3.89-13-7.78-19.5-11.66c-4.56-2.72-9.18-5.48-14.28-6.94c-3.19-0.91-6.66-1.36-9.29-3.38c-2.81-2.15-4.14-5.67-5.55-8.92
					c-0.4-0.93-0.85-1.85-1.29-2.77c-0.7-0.79-1.43-1.55-2.19-2.27c-4.9-4.59-11.28-7.17-17.11-10.49
					c-5.83-3.32-11.54-7.91-13.33-14.38c-0.12-0.43-0.24-0.88-0.59-1.18c-0.22,0.84-0.47,1.67-0.71,2.5
					c-1.06,3.55-2.17,7.2-4.49,10.08c-1.82,2.26-4.46,4.24-4.71,7.14c-0.13,1.56,0.49,3.06,1.06,4.52c1.39,3.53,2.52,7.7,0.57,10.95
					c-0.59,0.99-1.44,1.82-1.91,2.87c-0.87,1.93-0.29,4.21,0.63,6.12c0.92,1.91,2.19,3.67,2.77,5.71c1.32,4.62-1.11,9.43-1.4,14.23
					c-0.17,2.72,0.35,5.41,1.03,8.06c2.79,1.63,5.79,2.87,8.73,4.23c5.63,2.61,11.01,5.71,16.31,8.93c0.02-0.03,0.03-0.06,0.06-0.09
					C232.38,111.76,238.21,112.23,240.29,112.15z"/>
				<path fill="#3D3621" d="M255.53,114.35c1.94-0.09,4.16-0.32,5.3-1.89c0.68-0.94,0.85-2.23,1.71-3.02
					c0.71-0.66,1.72-0.82,2.68-0.96c5.49-0.79,10.99-1.59,16.48-2.38c1.87-0.27,3.87-0.61,5.21-1.94c1.33-1.33,1.61-3.87-0.11-4.65
					c4.11-0.5,8.23-0.99,12.34-1.49c2.24-0.27,4.94-0.87,5.16-3.51c0.12-1.42-0.65-2.78-1.82-3.59c-5.01-3.43-10.96-5.02-16.23-7.96
					c-6.21-3.46-11.4-8.77-18.08-11.2c-3.21-1.17-6.67-1.63-9.73-3.16c-5.16-2.58-8.34-7.7-12.21-12.04
					c0.44,0.92,0.88,1.83,1.29,2.77c1.41,3.25,2.73,6.77,5.55,8.92c2.64,2.02,6.1,2.47,9.29,3.38c5.1,1.46,9.72,4.21,14.28,6.94
					c6.5,3.89,13,7.78,19.5,11.66c1.58,0.95,3.34,3.06,1.97,4.3c-0.3,0.27-0.68,0.4-1.06,0.52c-5.6,1.77-11.83,1.47-17.23-0.83
					c-7.79-3.32-13.34-10.32-20.35-15.07c5.49,5.78,11.7,10.87,18.44,15.12c1.5,0.95,3.06,1.88,4.13,3.29
					c1.07,1.41,1.54,3.44,0.64,4.97c-1.67,2.82-5.85,1.78-9.12,1.91c-4.09,0.16-8.18,2.72-12.03,1.35
					c-2.89-1.03-4.62-3.96-7.16-5.68c-2.94-2-6.7-2.23-10.03-3.47c-5.83-2.17-10-7.25-13.87-12.13
					c4.68,6.94,11.08,12.71,18.47,16.65c2.24,1.19,4.67,2.31,6.12,4.39c1.45,2.08,1.34,5.5-0.92,6.65c-1.17,0.59-2.55,0.43-3.85,0.3
					c-3.32-0.35-6.66-0.46-9.99-0.35c-2.08,0.07-7.91-0.39-9.35,1.33c-0.03,0.03-0.04,0.06-0.06,0.09c0.97,0.59,1.94,1.18,2.91,1.78
					L255.53,114.35z"/>
			</g>
			<path fill="#3D3621" d="M147.05,52.66c1.11,0.51,2.29,0.86,3.45,1.23c3.69,1.18,7.33,2.65,10.52,4.86
				c1.77,1.22,3.38,2.65,5.12,3.9c2.78,2,5.86,3.53,8.86,5.2c4.04,2.25,7.93,4.76,11.64,7.51c-5.57-4.6-11.44-8.84-17.56-12.68
				c-2.23-1.4-4.5-2.75-6.59-4.35c-2.11-1.61-4.03-3.48-6.28-4.89c-4.11-2.59-9.09-3.54-13.13-6.22c-2.78-1.85-5.35-4.69-8.89-4.87
				C138.32,45.84,142.04,50.36,147.05,52.66z"/>
			<path fill="#3D3621" d="M126.13,20.62c0.45,3.23,3.11,5.71,5.92,7.36c2.81,1.66,5.94,2.81,8.45,4.89
				c2.94,2.45,4.76,5.96,7.23,8.88c1.64,1.93,3.56,3.6,5.47,5.25c-3.98-3.43-6.26-8.41-9.68-12.4c-2.11-2.46-4.66-4.54-7.49-6.12
				c-1.39-0.77-2.85-1.43-4.14-2.35c-2.63-1.88-4.43-4.89-4.85-8.1c-0.27-2.1-0.03-4.41-1.24-6.14c1.18,0.91,2.37,1.83,3.55,2.74
				c-1.74-1.99-2.9-4.48-3.31-7.08c-0.38-2.42-0.22-5.16-1.87-6.98c0.26,3.77,0.13,7.83,0.83,11.54c0.2,1.07,0.74,2.02,0.96,3.08
				C126.32,16.98,125.88,18.82,126.13,20.62z"/>
		</g>
		<g>
			<g>
				<path opacity="0.45" fill="#C4C4C4" d="M88.21,31.52c2.86-1.18,4.29-4.89,7.32-5.48c0.58-0.11,1.19-0.1,1.76-0.28
					c1.03-0.34,1.74-1.26,2.35-2.16s1.26-1.84,2.26-2.28c0.99-0.43,2.42-0.05,2.66,1c0.09,0.38,0.01,0.77-0.1,1.14
					c-0.86,2.9-3.76,5.08-3.87,8.11c-0.04,1.2,0.38,2.39,0.31,3.6c-0.1,1.72-1.18,3.22-2.24,4.58c-0.79,1.01-1.57,2.53-0.66,3.42
					c0.58,0.57,1.53,0.47,2.29,0.19c3.76-1.41,5.38-5.68,8.38-8.07c3.47-2.77,7.31-3.33,6.87-8.62c-0.19-2.33,0.56-4.72,2.05-6.52
					c0.82-0.99,1.86-1.82,2.38-3c1.13-2.57-0.51-6.13,1.5-8.09c1.21,0.28,1.93,1.59,1.99,2.83c0.06,1.24-0.36,2.44-0.65,3.64
					c-0.22,0.92-0.37,1.85-0.48,2.78c0.13-0.48,0.27-0.97,0.4-1.45c0.82-2.97,1.65-6.01,1.52-9.09c-0.08-1.82-0.49-3.63-0.35-5.44
					c0.05-0.63,0.16-1.27,0.27-1.9c-0.21-0.15-0.41-0.3-0.62-0.45c-0.05,0.02-0.09,0.04-0.13,0.06c-0.01,0,0,0.01-0.01,0.01
					c-11.35,6.64-21.26,15.44-31.08,24.17c-3.13,2.78-6.25,5.56-9.38,8.34c0.41-0.12,0.83-0.23,1.25-0.31
					C85.53,32.01,86.95,32.04,88.21,31.52z"/>
				<path opacity="0.45" fill="#B5B5B5" d="M150.14,29.37c-2.51-1.2-5.23-2.03-7.46-3.69c-4.42-3.28-6.04-9.01-8.67-13.84
					c-2.45-4.5-5.67-8.46-9.84-11.39c-0.11,0.63-0.22,1.26-0.27,1.9c-0.13,1.82,0.28,3.62,0.35,5.44c0.13,3.08-0.7,6.12-1.52,9.09
					c-0.13,0.48-0.27,0.97-0.4,1.45c-0.13,1.11-0.21,2.22-0.29,3.33c-0.23,3.33-0.45,6.66-0.68,9.99c-0.04,0.56-0.05,1.19,0.34,1.6
					c0.82,0.86,2.3-0.32,2.36-1.51s-0.59-2.31-0.57-3.5c0.02-1.81,1.52-3.23,2.06-4.96c0.39-1.25,0.27-2.66,0.89-3.81
					c0.93-1.72,3.56-2.19,5.02-0.9c2.54,2.23,0.91,7.45,3.91,9.01c0.56,0.29,1.21,0.39,1.83,0.54c2.85,0.69,5.32,2.76,6.52,5.43
					c0.79,1.78,1.07,3.83,2.3,5.34c1.23,1.51,4.05,1.95,4.9,0.2c0.21-0.43,0.26-0.93,0.44-1.37c0.66-1.68,2.86-2.2,4.62-1.82
					c1.69,0.37,3.2,1.32,4.84,1.85C157.75,34.31,154.29,31.36,150.14,29.37z"/>
			</g>
		</g>
		<path opacity="0.45" fill="#C4C4C4" d="M121.65,82.24c-0.87,0.26-1.22,1.29-1.34,2.18c-0.12,0.9-0.19,1.91-0.87,2.5
			c-0.34,0.3-0.83,0.49-0.99,0.92c-0.18,0.51,0.28,1.08,0.81,1.18c0.53,0.1,1.07-0.16,1.51-0.48c1.24-0.93,1.9-2.43,3.01-3.51
			c1.36-1.33,3.45-2.14,3.96-3.98c0.11-0.4,0.14-0.83,0.27-1.22c0.19-0.55,0.57-1.01,0.94-1.45c0.88-1.03,1.79-2.1,3.02-2.67
			c1.4-0.66,3.08-0.61,4.4-1.41c1.36-0.82,2.1-2.39,3.38-3.34c0.37-0.27,0.83-0.49,1.27-0.38c0.79,0.21,0.93,1.37,0.47,2.05
			c-0.46,0.68-1.24,1.04-1.92,1.51c-1.22,0.85-2.13,2.14-2.51,3.58c1.49,0.17,3.05-0.45,4.01-1.6c0.39-0.46,0.76-1.05,1.36-1.14
			c0.9-0.13,1.49,1.02,1.36,1.92c-0.37,2.58-3.64,3.6-4.97,5.84c-0.99,1.68-0.78,3.84-1.67,5.58c-0.62,1.21-1.71,2.09-2.58,3.14
			c-0.43,0.52-0.7,1.48-0.07,1.7c0.29,0.1,0.61-0.05,0.87-0.21c1.44-0.84,2.77-1.86,3.95-3.05c1.06-1.06,2.17-2.34,3.67-2.4
			c1.35-0.05,2.62,1.11,2.69,2.46c0.03,0.64-0.17,1.31,0.03,1.92c0.35,1.08,1.88,1.39,2.86,0.8c0.97-0.59,1.44-1.76,1.6-2.88
			c0.27-1.95-0.2-3.92-0.25-5.89c-0.06-2.48,0.53-4.92,1.12-7.33c0.16-0.67,0.45-1.46,1.13-1.58c0.78-0.14,1.36,0.74,1.55,1.51
			c0.7,2.85-0.43,6.21,1.32,8.56c0.88,1.19,2.41,1.93,2.87,3.35c0.23,0.71,0.22,1.62,0.87,2c0.61,0.35,1.4-0.06,1.81-0.63
			c1.09-1.51,0.47-3.6-0.19-5.34c-0.6-1.59-1.21-3.18-1.81-4.76c-0.37-0.98-0.75-2-0.67-3.04c0.07-0.89,0.47-1.71,0.89-2.5
			c0.45-0.85,1.16-1.8,2.1-1.66c1.16,0.17,1.43,1.75,2.35,2.47c1.02,0.8,2.5,0.34,3.69-0.15c0.09-0.04,0.19-0.08,0.26-0.15
			c0.15-0.17,0.11-0.43,0.03-0.65c-0.62-1.8-2.43-2.85-3.96-3.98c-4.5-3.35-7.39-8.57-12.06-11.68c-0.3-0.2-0.61-0.39-0.97-0.45
			c-1.05-0.17-1.87,0.85-2.48,1.72c-5.51,7.79-14.2,12.54-22.09,17.9c-2.33,1.59-4.85,3.67-4.89,6.49"/>
		<g>
			<path opacity="0.45" fill="#B5B5B5" d="M179.95,49.23c1.12-0.25,1.95-0.95,3.16-1.03c1.13-0.08,2.26,0.12,3.39-0.02
				c2.94-0.38,5.06-2.87,7.37-4.73c0.47-0.38,1.16-0.74,1.63-0.37c0.45,0.35,0.3,1.11-0.12,1.49c-0.42,0.38-1.01,0.51-1.54,0.71
				c-1.21,0.45-2.32,1.48-2.39,2.76c-0.04,0.75,0.28,1.49,0.16,2.23c-0.13,0.82-0.78,1.45-1.25,2.13c-0.47,0.68-0.78,1.66-0.25,2.31
				c0.94,1.15,2.89-0.27,4.27,0.27c1.39,0.55,1.29,2.5,1.08,3.98c-0.1,0.7-0.16,1.44,0.1,2.1c0.2,0.5,0.57,0.92,0.76,1.43
				c0.31,0.84,0.06,1.77,0.05,2.66s0.42,1.96,1.31,2.06c0.72,0.08,1.36-0.56,1.53-1.26c0.17-0.7,0-1.44-0.17-2.14
				c-0.23-0.95-0.46-1.91-0.69-2.86c-0.17-0.69-0.33-1.44-0.05-2.1c0.58-1.38,2.74-1.59,3.18-3.02c0.26-0.86-0.08-2.1,0.74-2.46
				c0.7-0.3,1.39,0.51,1.6,1.25c0.21,0.74,0.33,1.63,1,1.99c0.2,0.11,0.42,0.15,0.65,0.17c-0.3-1.47-0.79-2.94-1.33-4.31
				c-0.57-1.45-1.19-2.96-1.06-4.52c0.24-2.89,2.88-4.88,4.71-7.14c2.32-2.88,3.43-6.53,4.49-10.08c0.25-0.83,0.49-1.66,0.71-2.5
				c-0.15-0.13-0.35-0.23-0.61-0.28c-0.86-0.17-1.73,0.25-2.26,0.94c-3.09,4.09-8.77,3.48-13.34,5.12
				c-5.27,1.89-8.84,6.69-13.29,10.08c-1.46,1.12-3.06,2.1-4.73,3C178.04,48.45,177.7,49.73,179.95,49.23z"/>
			<path opacity="0.45" fill="#B5B5B5" d="M213.59,29.41c-0.12-0.43-0.24-0.88-0.59-1.18c-0.22,0.84-0.47,1.67-0.71,2.5
				c-1.06,3.55-2.17,7.2-4.49,10.08c-1.82,2.26-4.46,4.24-4.71,7.14c-0.13,1.56,0.49,3.06,1.06,4.52c0.54,1.37,1.04,2.84,1.33,4.31
				c0.26,0.03,0.53,0.04,0.79,0.11c1.57,0.42,1.76,2.51,2.4,4.01c0.36,0.83,0.95,1.56,1.7,2.09c0.81,0.57,2.12,0.79,2.66-0.04
				c0.76-1.18-0.97-2.58-0.83-3.98c0.16-1.57,2.29-1.89,3.52-2.88c1.15-0.93,1.5-2.5,2.17-3.82c0.68-1.32,2.22-2.53,3.53-1.84
				c0.56,0.29,0.95,0.89,1.56,1.07c1.23,0.36,2.2-1.4,1.65-2.55s-1.88-1.68-3.11-2.02c-0.81-0.22-1.68-0.44-2.23-1.07
				c-0.55-0.63-0.48-1.84,0.31-2.1c1.14-0.38,2.01,1.44,3.21,1.33c0.88-0.08,1.35-1.15,2.2-1.38c0.82-0.22,1.62,0.4,2.46,0.53
				c0.08,0.01,0.17,0.01,0.25,0.01c-0.27-0.15-0.54-0.29-0.81-0.45C221.09,40.47,215.38,35.88,213.59,29.41z"/>
		</g>
	</g>
</g>
<g id="_x36_">
</g>
<g id="_x35_">
</g>
<g id="_x34_">
</g>
<g id="_x33_">
</g>
<g id="_x32_">
</g>
<g id="_x31_">
</g>
</svg>
